<svg data-name="Layer 1" xmlns="http://www.w3.org/2000/svg" viewBox="0 0 545.4 545.4"><path fill="#fff" d="M103.52 333c0 46.2 60.16 83.64 134.33 83.64S372.18 379.15 372.18 333s-60.16-83.64-134.33-83.64S103.52 286.8 103.52 333"/><circle fill="#e6162d" cx="272.7" cy="272.7" r="272.7"/><path fill="#fff" d="M241.03 409.85c-65.68 6.52-122.4-23.21-126.68-66.29s45.54-83.31 111.17-89.82 122.39 23.21 126.61 66.29-45.49 83.37-111.12 89.82m131.34-143.14c-5.58-1.7-9.41-2.79-6.51-10.13 6.35-15.93 7-29.67.11-39.52-12.86-18.39-48.11-17.41-88.51-.49 0 0-12.7 5.53-9.41-4.49 6.19-20 5.25-36.67-4.38-46.36-21.9-21.95-80.19.82-130.17 50.8-37.4 37.38-59.13 77.07-59.13 111.39 0 65.58 84.13 105.48 166.4 105.48 107.89 0 179.65-62.67 179.65-112.43.05-30.11-25.29-47.18-48.06-54.25m71.65-120.04a104.91 104.91 0 0 0-100-32.35 15.172 15.172 0 0 0 6.36 29.67 74.66 74.66 0 0 1 86.65 96 15.19 15.19 0 0 0 28.9 9.36v-.05a104.76 104.76 0 0 0-21.95-102.63"/><path fill="#fff" d="M403.98 182.8a51 51 0 0 0-48.63-15.71 13.07 13.07 0 1 0 5.42 25.56 25 25 0 0 1 29 32.13 13.09 13.09 0 0 0 24.91 8 51.11 51.11 0 0 0-10.67-50M244.64 331.8c-2.3 3.94-7.39 5.8-11.33 4.16s-5.15-6-2.9-9.85 7.17-5.69 11.06-4.16 5.36 5.86 3.17 9.85m-21 26.82c-6.35 10.13-20 14.56-30.22 9.91-10.07-4.6-13.07-16.38-6.69-26.28s19.43-14.23 29.61-10c10.29 4.43 13.58 16.09 7.33 26.33m23.87-71.71c-31.26-8.16-66.56 7.44-80.14 35-13.85 28.08-.44 59.28 31.09 69.46 32.73 10.56 71.27-5.64 84.68-35.91 13.25-29.67-3.28-60.16-35.63-68.53"/></svg>
