<svg width="281" height="100" viewBox="0 0 281 100" xmlns="http://www.w3.org/2000/svg"><title>922B0ACF-E815-43AC-AB85-74FD1E2E4FD2</title><g fill="none" fill-rule="evenodd"><path fill="none" d="M0 0h280v100H0z"/><g fill="#5A697A"><path d="M69.779 48.07c1.094 0 1.988.892 1.988 1.988a1.992 1.992 0 0 1-1.988 1.988 1.992 1.992 0 0 1-1.99-1.988c0-1.096.894-1.989 1.99-1.989M75.228 48.658c.771 0 1.4.629 1.4 1.4 0 .77-.629 1.4-1.4 1.4-.77 0-1.398-.63-1.398-1.4 0-.771.628-1.4 1.398-1.4M79.722 49.248c.447 0 .81.363.81.81a.811.811 0 0 1-1.62 0c0-.447.363-.81.81-.81M83.773 49.485a.574.574 0 0 1 0 1.146.575.575 0 0 1-.573-.573c0-.316.257-.573.573-.573M66.451 44.016a1.992 1.992 0 0 1 2.813 0 1.99 1.99 0 0 1 0 2.812 1.992 1.992 0 0 1-2.813 0 1.992 1.992 0 0 1 0-2.812M70.723 40.579a1.4 1.4 0 0 1 1.979 1.979 1.402 1.402 0 0 1-1.98 0 1.402 1.402 0 0 1 0-1.98M74.317 37.818a.81.81 0 1 1 1.145 1.144.81.81 0 0 1-1.145-1.144M77.349 35.12a.575.575 0 0 1 .81 0 .575.575 0 0 1 0 .812.575.575 0 0 1-.81 0 .575.575 0 0 1 0-.811M61.234 43.502c0-1.095.893-1.989 1.989-1.989 1.095 0 1.988.894 1.988 1.989 0 1.095-.893 1.989-1.988 1.989a1.992 1.992 0 0 1-1.989-1.99M61.823 38.05c0-.77.629-1.399 1.4-1.399.77 0 1.4.63 1.4 1.4 0 .77-.63 1.4-1.4 1.4-.771 0-1.4-.63-1.4-1.4M62.413 33.559a.81.81 0 1 1 1.621 0 .81.81 0 0 1-1.621 0M62.65 29.508a.573.573 0 1 1 1.146 0 .573.573 0 0 1-1.146 0M57.181 46.828a1.991 1.991 0 0 1 0-2.812 1.99 1.99 0 0 1 2.812 0 1.99 1.99 0 0 1 0 2.812 1.99 1.99 0 0 1-2.812 0M53.743 42.558a1.402 1.402 0 0 1 0-1.98 1.402 1.402 0 0 1 1.98 0 1.402 1.402 0 0 1 0 1.98 1.404 1.404 0 0 1-1.98 0M50.982 38.963a.811.811 0 0 1 1.146-1.145.811.811 0 0 1-1.146 1.145M48.286 35.932a.575.575 0 0 1 0-.811.575.575 0 0 1 .81 0 .575.575 0 0 1 0 .81.575.575 0 0 1-.81 0M56.667 52.046a1.992 1.992 0 0 1-1.989-1.988c0-1.096.893-1.989 1.989-1.989 1.095 0 1.988.893 1.988 1.989a1.991 1.991 0 0 1-1.988 1.988M51.216 51.457c-.771 0-1.4-.628-1.4-1.4 0-.77.629-1.399 1.4-1.399.771 0 1.4.629 1.4 1.4 0 .77-.629 1.4-1.4 1.4M46.723 50.867a.811.811 0 0 1 0-1.62c.446 0 .81.364.81.81 0 .447-.364.81-.81.81M42.672 50.63a.575.575 0 0 1-.574-.572.575.575 0 0 1 1.146 0 .575.575 0 0 1-.572.573M59.993 56.1a1.99 1.99 0 0 1-2.812 0 1.99 1.99 0 0 1 0-2.813 1.99 1.99 0 0 1 2.812 0 1.992 1.992 0 0 1 0 2.812M55.722 59.538a1.402 1.402 0 0 1-1.98 0 1.404 1.404 0 0 1 0-1.98 1.402 1.402 0 0 1 1.98 0 1.402 1.402 0 0 1 0 1.98M52.128 62.297a.81.81 0 1 1-1.146-1.147.81.81 0 0 1 1.146 1.147M49.096 64.995a.573.573 0 1 1-.81-.813.573.573 0 0 1 .81.813M65.211 56.614a1.993 1.993 0 0 1-1.988 1.988 1.993 1.993 0 0 1-1.99-1.988c0-1.096.894-1.989 1.99-1.99a1.994 1.994 0 0 1 1.988 1.99M64.622 62.064c0 .77-.63 1.4-1.4 1.4-.77 0-1.399-.63-1.399-1.4 0-.77.629-1.4 1.4-1.4.77 0 1.4.63 1.4 1.4M64.032 66.558c0 .445-.363.81-.81.81a.813.813 0 0 1-.81-.81c0-.447.364-.811.81-.811.447 0 .81.364.81.81M63.796 70.609a.573.573 0 1 1-1.146-.002.573.573 0 0 1 1.146.002M69.264 53.287a1.992 1.992 0 0 1 0 2.812 1.992 1.992 0 0 1-2.813 0 1.992 1.992 0 0 1 0-2.812 1.992 1.992 0 0 1 2.813 0M72.702 57.558a1.402 1.402 0 0 1 0 1.98 1.402 1.402 0 0 1-1.98 0 1.404 1.404 0 0 1 0-1.98 1.402 1.402 0 0 1 1.98 0M75.462 61.152a.811.811 0 1 1-1.145 0 .81.81 0 0 1 1.145 0M78.16 64.184a.573.573 0 1 1-.81 0 .575.575 0 0 1 .81 0M92.494 37.056h3.19l3 13.28h-2.625l-.524-2.872h-2.884l-.545 2.871H89.48l3.014-13.28zm.517 8.432h2.175l-1.073-5.95h-.003l-1.1 5.95zM103.57 52.593c.337 0 .575-.119.713-.353.138-.235.205-.64.205-1.208V49.29l-.093.122c-.459.613-1.098.922-1.92.922-.816 0-1.388-.25-1.722-.752-.331-.504-.498-1.368-.498-2.598v-2.542c0-1.188.193-2.075.575-2.666.382-.587.958-.883 1.732-.883.796 0 1.464.337 2 1.015l.078.097v-.913h2.4v9.939c0 .987-.284 1.725-.851 2.223-.57.494-1.418.743-2.545.743-1.186 0-2.04-.204-2.56-.605-.521-.401-.775-1.054-.762-1.956v-.273h2.448v.273c-.02.375.039.661.174.86.134.196.344.296.626.296zm.026-10.042a.713.713 0 0 0-.669.395c-.144.264-.214.669-.214 1.215v2.541c0 .803.057 1.333.173 1.59.116.257.354.386.71.386.362 0 .603-.132.72-.396.115-.263.172-.806.172-1.628v-2.079c0-.822-.057-1.365-.172-1.629-.117-.263-.358-.395-.72-.395zM109.018 50.335h2.438v-9.242h-2.438v9.242zm-.01-10.963h2.45V37.17h-2.45v2.2zM113.648 50.335h2.438v-13.28h-2.438zM121.071 50.534c-1.127 0-1.943-.283-2.448-.848-.5-.565-.751-1.487-.751-2.766v-1.827c0-1.539.256-2.622.768-3.252.51-.633 1.39-.947 2.64-.947 1.318 0 2.213.272 2.689.82.479.545.716 1.573.716 3.086v1.346h-4.394v.283c0 1.072.064 1.783.192 2.13.128.343.395.517.797.517.382 0 .65-.126.797-.373.15-.247.215-.658.19-1.236v-.274h2.418v.274c.02 1.021-.273 1.79-.873 2.3-.605.51-1.517.767-2.74.767zm1.195-5.798v-.518c0-.722-.068-1.214-.206-1.474-.137-.26-.398-.392-.78-.392-.386 0-.646.158-.784.473-.138.311-.205.905-.205 1.779v.132h1.975zM126.388 41.093h2.438v.864c.527-.71 1.282-1.063 2.268-1.063.696 0 1.217.202 1.56.607.344.405.518 1.015.518 1.83v7.004h-2.438v-6.72c0-.376-.068-.649-.203-.82-.134-.17-.353-.253-.651-.253-.408 0-.69.16-.852.479-.16.32-.228.873-.202 1.657v5.657h-2.438v-9.242M139.848 50.422c-.476.074-1.022.112-1.63.112-.77 0-1.352-.228-1.74-.687-.39-.457-.585-1.14-.585-2.053v-5.062h-1.298v-1.639h1.298v-1.478l2.439-1.005v2.483h1.516v1.639h-1.516v5.062c0 .447.048.74.14.877.093.138.3.206.614.206.277-.006.53-.026.762-.055v1.6M147.949 39.03h-2.862v-1.974h8.435v1.974h-2.852v11.305h-2.721V39.03M158.029 50.534c-1.127 0-1.943-.283-2.447-.848-.501-.565-.752-1.487-.752-2.766v-1.827c0-1.539.257-2.622.768-3.252.51-.633 1.39-.947 2.64-.947 1.317 0 2.214.272 2.689.82.479.545.716 1.573.716 3.086v1.346h-4.394v.283c0 1.072.065 1.783.192 2.13.13.343.396.517.798.517.382 0 .648-.126.796-.373.15-.247.216-.658.19-1.236v-.274h2.418v.274c.02 1.021-.272 1.79-.873 2.3-.604.51-1.516.767-2.741.767zm1.195-5.798v-.518c0-.722-.067-1.214-.205-1.474-.138-.26-.398-.392-.78-.392-.386 0-.647.158-.784.473-.138.311-.206.905-.206 1.779v.132h1.975zM169.404 46.872v.547c.02 1.04-.237 1.82-.77 2.338-.534.517-1.34.777-2.419.777-1.128 0-1.944-.276-2.442-.828-.497-.554-.748-1.45-.748-2.693v-2.598c0-1.243.25-2.14.748-2.692s1.314-.829 2.442-.829c1.124 0 1.937.26 2.447.78.495.498.742 1.285.742 2.365v.386h-2.418v-.274c.025-.546-.023-.954-.145-1.223-.122-.27-.321-.406-.598-.406-.301 0-.51.123-.626.367-.115.244-.173.69-.173 1.337v2.598c0 .848.051 1.407.151 1.677s.305.404.62.404c.302 0 .51-.115.63-.343.118-.228.166-.61.141-1.143v-.547h2.418M171.178 37.056h2.438v4.836c.54-.664 1.288-.998 2.249-.998.626 0 1.133.224 1.519.678.385.452.578 1.043.578 1.78v6.983h-2.438v-6.72c0-.376-.067-.649-.202-.82-.135-.17-.354-.253-.653-.253-.388 0-.668.17-.838.513-.167.342-.24.885-.215 1.623v5.657h-2.438v-13.28M180.054 41.093h2.438v.864c.527-.71 1.281-1.063 2.268-1.063.697 0 1.217.202 1.561.607.344.405.518 1.015.518 1.83v7.004h-2.44v-6.72c0-.376-.066-.649-.201-.82-.136-.17-.354-.253-.652-.253-.409 0-.692.16-.852.479-.16.32-.228.873-.202 1.657v5.657h-2.438v-9.242M192.138 50.534c-1.198 0-2.061-.276-2.591-.828-.53-.554-.798-1.45-.798-2.693v-2.598c0-1.243.268-2.14.798-2.692s1.393-.829 2.591-.829c1.199 0 2.063.277 2.596.829.534.552.8 1.449.8 2.692v2.598c0 1.244-.266 2.14-.8 2.693-.533.552-1.397.828-2.596.828zm0-1.458c.392 0 .656-.148.784-.443.129-.296.193-.9.193-1.819v-2.599c0-.684-.073-1.166-.221-1.445-.148-.28-.4-.418-.756-.418-.359 0-.61.139-.754.418-.144.279-.216.761-.216 1.445v2.6c0 .918.064 1.522.19 1.818.126.295.386.443.78.443zM197.513 50.335h2.438v-13.28h-2.438zM205.284 50.534c-1.198 0-2.063-.276-2.593-.828-.53-.554-.796-1.45-.796-2.693v-2.598c0-1.243.266-2.14.796-2.692s1.395-.829 2.593-.829c1.197 0 2.062.277 2.595.829.533.552.8 1.449.8 2.692v2.598c0 1.244-.267 2.14-.8 2.693-.533.552-1.398.828-2.595.828zm0-1.458c.392 0 .655-.148.784-.443.128-.296.192-.9.192-1.819v-2.599c0-.684-.074-1.166-.222-1.445-.147-.28-.398-.418-.754-.418-.36 0-.61.139-.755.418-.145.279-.215.761-.215 1.445v2.6c0 .918.064 1.522.19 1.818.124.295.385.443.78.443zM213.726 52.593c.337 0 .575-.119.713-.353.138-.235.205-.64.205-1.208V49.29l-.093.122c-.459.613-1.098.922-1.92.922-.816 0-1.388-.25-1.722-.752-.331-.504-.498-1.368-.498-2.598v-2.542c0-1.188.193-2.075.575-2.666.382-.587.957-.883 1.73-.883.798 0 1.466.337 2.003 1.015l.076.097v-.913h2.4v9.939c0 .987-.282 1.725-.851 2.223-.57.494-1.417.743-2.544.743-1.186 0-2.04-.204-2.56-.605-.521-.401-.774-1.054-.762-1.956v-.273h2.448v.273c-.02.375.038.661.173.86.135.196.344.296.627.296zm.026-10.042a.712.712 0 0 0-.668.395c-.145.264-.216.669-.216 1.215v2.541c0 .803.058 1.333.174 1.59.115.257.353.386.71.386.362 0 .603-.132.72-.396.115-.263.172-.806.172-1.628v-2.079c0-.822-.057-1.365-.172-1.629-.117-.263-.358-.395-.72-.395zM219.174 50.335h2.438v-9.242h-2.438v9.242zm-.009-10.963h2.448V37.17h-2.448v2.2zM226.607 50.534c-1.127 0-1.943-.283-2.447-.848-.502-.565-.752-1.487-.752-2.766v-1.827c0-1.539.258-2.622.768-3.252.511-.633 1.391-.947 2.64-.947 1.318 0 2.213.272 2.689.82.479.545.717 1.573.717 3.086v1.346h-4.395v.283c0 1.072.065 1.783.193 2.13.128.343.394.517.797.517.382 0 .648-.126.796-.373.15-.247.216-.658.19-1.236v-.274h2.419v.274c.018 1.021-.274 1.79-.874 2.3-.605.51-1.516.767-2.74.767zm1.196-5.798v-.518c0-.722-.067-1.214-.206-1.474-.138-.26-.398-.392-.78-.392-.386 0-.647.158-.785.473-.137.311-.205.905-.205 1.779v.132h1.976zM235.512 43.868v-.272c.02-.415-.035-.726-.163-.932-.13-.209-.331-.312-.611-.312-.276 0-.482.074-.616.226-.135.15-.203.381-.203.687 0 .283.093.527.282.726.187.196.515.392.98.594 1.173.508 1.957.967 2.346 1.374.382.409.572.978.572 1.713 0 .955-.277 1.67-.83 2.146-.552.478-1.384.716-2.496.716-1.192 0-2.046-.231-2.57-.696-.507-.454-.761-1.177-.761-2.175v-.376h2.428v.272c-.025.56.03.951.165 1.177.135.228.382.34.738.34.322 0 .563-.09.723-.273.157-.184.238-.46.238-.83 0-.34-.103-.62-.312-.847-.202-.219-.552-.44-1.053-.659-1.15-.494-1.915-.937-2.297-1.326-.376-.382-.562-.912-.562-1.584 0-.89.27-1.558.806-1.998.536-.444 1.343-.665 2.422-.665 1.131 0 1.954.212 2.464.64.511.427.768 1.092.768 1.994v.34h-2.458M89.43 64.804h1.067v-7.812H89.43zM91.782 59.367h1.013v.453l.023-.023c.338-.36.738-.541 1.202-.541.415 0 .738.113.965.34.227.226.34.55.34.967v4.24h-.99v-3.897c0-.288-.06-.51-.18-.66-.12-.151-.296-.228-.528-.228-.285 0-.496.097-.63.288-.134.193-.202.49-.202.892v3.606h-1.013v-5.437M96.384 59.367h1.012v.453l.023-.023c.338-.36.739-.541 1.202-.541.416 0 .74.113.966.34.226.226.34.55.34.967v4.24h-.99v-3.897c0-.288-.06-.51-.18-.66-.12-.151-.297-.228-.53-.228-.284 0-.494.097-.629.288-.134.193-.202.49-.202.892v3.606h-1.012v-5.437M102.741 64.92c-.61 0-1.057-.167-1.339-.504-.28-.334-.423-.867-.423-1.594v-1.584c0-.635.153-1.124.458-1.47.303-.346.738-.519 1.304-.519.608 0 1.054.16 1.336.477.281.318.423.822.423 1.512v1.584c0 .742-.138 1.277-.412 1.606-.276.329-.724.492-1.347.492zm0-.762c.264 0 .455-.097.572-.292.115-.195.174-.508.174-.945v-1.583c0-.46-.06-.794-.18-1.005a.606.606 0 0 0-.566-.32c-.267 0-.458.1-.575.303-.115.2-.174.529-.174.983v1.585c0 .484.053.816.161.999.107.183.302.275.588.275zM105.38 59.367h1.04l.857 4.4.841-4.4h1.016l-1.23 5.437h-1.29l-1.234-5.437M111.215 64.92c-.414 0-.727-.13-.94-.393-.214-.262-.322-.644-.322-1.147v.012c0-.72.176-1.22.526-1.505.352-.28.97-.423 1.861-.423h.127v-.647c0-.26-.059-.458-.174-.596-.117-.138-.284-.208-.5-.208-.231 0-.407.078-.532.233-.123.155-.185.378-.185.665h-1.002c-.014-.52.127-.928.428-1.22.298-.294.723-.442 1.273-.442.59 0 1.022.133 1.294.4.275.266.41.684.41 1.257v3.898h-1.012v-.564a.753.753 0 0 1-.095.182c-.217.333-.603.498-1.157.498zm1.252-2.704h-.221c-.414 0-.728.097-.945.292-.216.194-.324.476-.324.846v-.012c0 .292.047.501.144.626.096.127.255.19.477.19a.734.734 0 0 0 .67-.367c.148-.244.214-.601.199-1.07v-.505zM116.918 64.844a2.82 2.82 0 0 1-.637.076c-.434 0-.741-.086-.917-.26-.178-.172-.267-.471-.267-.89v-3.655h-.709v-.748h.709v-.98l1.013-.422v1.402h.808v.748h-.808v3.495c0 .202.058.345.178.426.117.082.329.122.63.122v.686M117.922 64.803h1.013v-5.436h-1.013v5.436zm-.028-6.787h1.064v-1.013h-1.064v1.013zM120.014 59.367h1.013v.453l.022-.023c.339-.36.74-.541 1.203-.541.415 0 .738.113.965.34.227.226.34.55.34.967v4.24h-.99v-3.897c0-.288-.06-.51-.18-.66-.12-.151-.297-.228-.53-.228-.284 0-.494.097-.628.288-.134.193-.202.49-.202.892v3.606h-1.013v-5.437M126.275 66.177c.306 0 .52-.066.64-.197.12-.13.18-.362.18-.694v-1.042l-.05.072c-.229.326-.591.488-1.086.488-.482 0-.836-.155-1.057-.463-.22-.308-.332-.794-.332-1.46v-2.03c0-.535.118-.936.349-1.202.233-.267.58-.4 1.046-.4.465-.003.842.176 1.13.538v-.42h1.012v5.797c0 .597-.147 1.046-.442 1.342-.297.297-.739.447-1.33.447-.567 0-.984-.131-1.251-.392-.264-.259-.39-.66-.37-1.198v-.161h.858v.161c-.016.299.03.51.136.631.106.123.294.183.567.183zm.061-6.152c-.247 0-.435.087-.564.263-.13.175-.195.43-.195.766v1.867c0 .421.053.71.16.87.108.158.305.238.594.238.291 0 .492-.1.6-.299.108-.2.164-.562.164-1.093v-1.222c0-.53-.056-.892-.163-1.092-.11-.198-.307-.298-.596-.298zM134.066 64.844c-.256.054-.467.08-.637.076-.435 0-.743-.086-.919-.26-.177-.172-.266-.471-.266-.89v-3.655h-.708v-.748h.708v-.98l1.013-.422v1.402h.809v.748h-.809v3.495c0 .202.059.345.177.426.117.082.329.122.632.122v.686M135.1 56.992h1.014v2.86l.023-.02c.349-.388.739-.583 1.167-.583.424 0 .751.116.98.345.228.228.343.555.343.979v4.23h-.99v-3.915c0-.283-.059-.5-.178-.65-.116-.15-.29-.225-.52-.225-.28 0-.489.097-.623.291-.134.193-.202.492-.202.894v3.606H135.1v-7.812M141.34 64.92c-.651 0-1.11-.158-1.377-.473-.266-.317-.398-.856-.398-1.625v-1.584c0-.675.145-1.176.435-1.5.289-.325.736-.489 1.343-.489.616 0 1.067.16 1.353.477.285.318.429.822.429 1.512v1.201h-2.547v.4c0 .536.049.889.149 1.06.1.174.304.259.613.259.268 0 .461-.069.587-.203.123-.134.18-.342.168-.623v-.161h1.013v.161c.026.538-.106.939-.395 1.197-.291.261-.747.391-1.373.391zm.772-3.233v-.432c0-.473-.055-.798-.166-.976-.112-.177-.312-.266-.603-.266-.27 0-.466.097-.586.291-.12.195-.18.51-.18.95v.433h1.535zM146.74 56.992h1.067v3.354h2.26v-3.354h1.068v7.812h-1.068v-3.578h-2.26v3.578h-1.067v-7.812M152.603 56.992h1.761c.896 0 1.516.157 1.855.468.34.312.51.881.51 1.707v-.082c0 .796-.185 1.372-.557 1.727-.371.354-.974.532-1.81.532h-.691v3.46h-1.068v-7.812zm1.068 3.47h.693c.503 0 .844-.094 1.025-.284.181-.189.271-.546.271-1.072v.084c0-.501-.092-.847-.278-1.036-.188-.187-.526-.282-1.018-.282h-.693v2.59zM161.311 64.804l-1.317-7.812h1.04l.912 6.251.926-6.251h1.285l.907 6.179h.002l.938-6.18h1.027l-1.334 7.813h-1.23l-.96-6.444h.002l-.968 6.444h-1.23M169.129 64.92c-.414 0-.727-.13-.941-.393-.214-.262-.322-.644-.322-1.147v.012c0-.72.176-1.22.526-1.505.351-.28.971-.423 1.86-.423h.127v-.647c0-.26-.058-.458-.173-.596-.118-.138-.283-.208-.501-.208-.23 0-.407.078-.531.233-.123.155-.185.378-.185.665h-1.001c-.016-.52.125-.928.426-1.22.299-.294.724-.442 1.274-.442.59 0 1.022.133 1.295.4.273.266.41.684.41 1.257v3.898h-1.014v-.564a.713.713 0 0 1-.094.182c-.217.333-.602.498-1.156.498zm1.25-2.704h-.22c-.414 0-.728.097-.946.292-.214.194-.322.476-.322.846v-.012c0 .292.047.501.143.626.097.127.255.19.476.19a.737.737 0 0 0 .671-.367c.148-.244.214-.601.198-1.07v-.505zM174.167 66.812h-.941l.569-1.909v.01l-1.5-5.546h1.032l.934 4.031.98-4.031h.962l-2.036 7.445"/></g></g></svg>