<?xml version="1.0" encoding="UTF-8"?>
<svg width="52px" height="47px" viewBox="0 0 52 47" version="1.1" xmlns="http://www.w3.org/2000/svg" xmlns:xlink="http://www.w3.org/1999/xlink">
    <!-- Generator: Sketch 46.2 (44496) - http://www.bohemiancoding.com/sketch -->
    <title>PaaS／icon／流程自动化</title>
    <desc>Created with Sketch.</desc>
    <defs></defs>
    <g id="首页" stroke="none" stroke-width="1" fill="none" fill-rule="evenodd">
        <g id="PaaS平台" transform="translate(-935.000000, -5828.000000)" stroke="#FFFFFF" fill="#767D85">
            <g id="feature/normal-copy-7" transform="translate(860.000000, 5779.000000)">
                <g id="PaaS／icon／流程自动化" transform="translate(76.000000, 50.000000)">
                    <g>
                        <path d="M11.4935903,21.6761669 L11.4935903,21.6372809 L8.63824695,21.6372809 C3.90526534,21.6761669 0.0499962846,25.5258808 0.0499962846,30.2588625 C0.0499962846,34.9918441 3.90526534,38.8471131 8.63824695,38.8471131 L8.63824695,41.7024565 L12.9323723,37.4083311 L8.63824695,33.1142058 L8.63824695,35.9695492 C7.11058269,35.9695492 5.66624558,35.380704 4.57743761,34.2918961 C3.48862963,33.2030881 2.89978451,31.7643061 2.89978451,30.2310867 C2.89978451,28.7034225 3.48862963,27.2590854 4.57743761,26.1702774 C5.66624558,25.0814694 7.10502755,24.4926243 8.63824695,24.4926243 L11.3678981,24.4926243 C11.4093145,24.4963014 11.4512383,24.4981794 11.4935903,24.4981794 C12.2713103,24.4981794 12.9045966,23.8648932 12.9045966,23.0871732 C12.9045966,22.3094532 12.2713103,21.6761669 11.4935903,21.6761669 Z M38.5471354,8.82129702 L38.5471354,8.85489751 L41.4024788,8.85489751 C42.930143,8.85489751 44.3744801,9.44374264 45.4632881,10.5325506 C46.5520961,11.6213586 47.1409412,13.0601406 47.1409412,14.59336 C47.1409412,16.1210242 46.5520961,17.5653613 45.4632881,18.6541693 C44.3744801,19.7429773 42.9356982,20.3318224 41.4024788,20.3318224 L41.4024788,17.476479 L37.1083534,21.7594941 L41.4024788,26.0536194 L41.4024788,23.198276 C46.1354604,23.198276 49.9907294,19.343007 49.9907294,14.6100254 C49.9573986,9.82149235 46.1354604,5.99955415 41.4024788,5.99955415 L38.5471354,5.99955415 C38.5378979,5.9996443 38.5286391,5.99955415 38.5193597,5.99955415 C37.7416397,5.99955415 37.1083534,6.62728528 37.1083534,7.4105604 C37.1083534,8.18828038 37.7416397,8.82156666 38.5193597,8.82156666 C38.5286391,8.82156666 38.5378979,8.8214765 38.5471354,8.82129702 Z" id="Combined-Shape" fill-rule="nonzero"></path>
                        <path d="M29.5200285,12.8490451 L20.9040021,12.8490451 C17.3764865,12.8490451 14.4933674,9.96592606 14.4933674,6.43841042 C14.4933674,2.91089479 17.3764865,0.0277757136 20.9040021,0.0277757136 L29.5200285,0.0277757136 C33.0475441,0.0277757136 35.9306632,2.91089479 35.9306632,6.43841042 C35.9306632,9.96592606 33.0753198,12.8490451 29.5200285,12.8490451 Z M20.9317778,2.97200136 C19.0208087,2.97200136 17.4598136,4.53299647 17.4598136,6.44396557 C17.4598136,8.35493467 19.0208087,9.91592977 20.9317778,9.91592977 L29.5478042,9.91592977 C31.4587733,9.91592977 33.0197684,8.35493467 33.0197684,6.44396557 C33.0197684,4.53299647 31.4587733,2.97200136 29.5478042,2.97200136 L20.9317778,2.97200136 Z M29.5200285,28.6423159 L20.9040021,28.6423159 C17.3764865,28.6423159 14.4933674,25.7591968 14.4933674,22.2316812 C14.4933674,18.7041656 17.3764865,15.8210465 20.9040021,15.8210465 L29.5200285,15.8210465 C33.0475441,15.8210465 35.9306632,18.7041656 35.9306632,22.2316812 C35.9306632,25.7591968 33.0753198,28.6423159 29.5200285,28.6423159 Z M20.9317778,18.759717 C19.0208087,18.759717 17.4598136,20.3207121 17.4598136,22.2316812 C17.4598136,24.1426503 19.0208087,25.7036454 20.9317778,25.7036454 L29.5478042,25.7036454 C31.4587733,25.7036454 33.0197684,24.1426503 33.0197684,22.2316812 C33.0197684,20.3207121 31.4587733,18.759717 29.5478042,18.759717 L20.9317778,18.759717 L20.9317778,18.759717 Z M29.5200285,44.8188915 L20.9040021,44.8188915 C17.3764865,44.8188915 14.4933674,41.9357725 14.4933674,38.4082568 C14.4933674,34.8807412 17.3764865,31.9976221 20.9040021,31.9976221 L29.5200285,31.9976221 C33.0475441,31.9976221 35.9306632,34.8807412 35.9306632,38.4082568 C35.9306632,41.9357725 33.0753198,44.8188915 29.5200285,44.8188915 Z M20.9317778,34.9362926 C19.0208087,34.9362926 17.4598136,36.4972877 17.4598136,38.4082568 C17.4598136,40.3192259 19.0208087,41.880221 20.9317778,41.880221 L29.5478042,41.880221 C31.4587733,41.880221 33.0197684,40.3192259 33.0197684,38.4082568 C33.0197684,36.4972877 31.4587733,34.9362926 29.5478042,34.9362926 L20.9317778,34.9362926 Z" id="Shape" fill-rule="nonzero"></path>
                    </g>
                </g>
            </g>
        </g>
    </g>
</svg>