<svg xmlns="http://www.w3.org/2000/svg" width="40" height="40" viewBox="0 0 40 40">
    <g fill="none" fill-rule="evenodd">
        <rect width="40" height="40" fill="#E9A955" rx="20"/>
        <path fill="#FFF" fill-rule="nonzero" d="M14 25.354h13.186v.927H14v-.927zm3.686-1.366l9.184-9.375L24.202 12l-9.183 9.375-.009-.009-.693 3.298 3.372-.674-.003-.002zm6.53-10.7l1.366 1.338-.733.748-1.366-1.339.732-.747zm-7.893 8.057l.055-.056.059-.06 6.409-6.543 1.366 1.338-6.467 6.603-.03.03-.02.021-.025.025-1.366-1.338.019-.02zm-1.12 2.512l.435-1.882 1.476 1.457-1.912.425z"/>
    </g>
</svg>
