<svg width="40" height="40" viewBox="0 0 40 40" xmlns="http://www.w3.org/2000/svg" xmlns:xlink="http://www.w3.org/1999/xlink"><title>AF6961CC-A2D0-4947-829B-0B7652FC9A62</title><defs><path d="M40 20c0 11.046-8.954 20-20 20S0 31.046 0 20 8.954 0 20 0s20 8.954 20 20z" id="a"/><filter x="-50%" y="-50%" width="200%" height="200%" filterUnits="objectBoundingBox" id="b"><feMorphology radius="1" in="SourceAlpha" result="shadowSpreadInner1"/><feOffset in="shadowSpreadInner1" result="shadowOffsetInner1"/><feComposite in="shadowOffsetInner1" in2="SourceAlpha" operator="arithmetic" k2="-1" k3="1" result="shadowInnerInner1"/><feColorMatrix values="0 0 0 0 0.203921569 0 0 0 0 0.247058824 0 0 0 0 0.294117647 0 0 0 0.08 0" in="shadowInnerInner1"/></filter><path d="M27.603 12.004c.53.532.53 1.394 0 1.926l-.8.802-3.517-3.531.8-.802a1.353 1.353 0 0 1 1.917 0l1.6 1.605zM15.825 25.752l9.911-9.95-3.517-3.53-9.912 9.95 3.518 3.53zm-1.073 1.066c-.819.624-4.297 1.449-4.645 1.098-.423-.423.5-3.8 1.138-4.618l3.507 3.52zM16 28c0-.552.45-1 1.007-1h11.986c.556 0 1.007.444 1.007 1 0 .552-.45 1-1.007 1H17.007A1.001 1.001 0 0 1 16 28zm5-4c0-.552.446-1 .998-1h7.004c.551 0 .998.444.998 1 0 .552-.446 1-.998 1h-7.004A.996.996 0 0 1 21 24zm4-4c0-.552.444-1 1-1h3c.552 0 1 .444 1 1 0 .552-.444 1-1 1h-3c-.552 0-1-.444-1-1z" id="d"/><filter x="-50%" y="-50%" width="200%" height="200%" filterUnits="objectBoundingBox" id="c"><feMorphology radius=".25" operator="dilate" in="SourceAlpha" result="shadowSpreadOuter1"/><feOffset in="shadowSpreadOuter1" result="shadowOffsetOuter1"/><feGaussianBlur stdDeviation="1" in="shadowOffsetOuter1" result="shadowBlurOuter1"/><feColorMatrix values="0 0 0 0 0.164705882 0 0 0 0 0.207843137 0 0 0 0 0.254901961 0 0 0 0.1 0" in="shadowBlurOuter1"/></filter></defs><g fill="none" fill-rule="evenodd"><use fill="#00CE7D" xlink:href="#a"/><use fill="#000" filter="url(#b)" xlink:href="#a"/><g><use fill="#000" filter="url(#c)" xlink:href="#d"/><use fill="#FFF" xlink:href="#d"/></g></g></svg>