<svg xmlns="http://www.w3.org/2000/svg" width="280" height="100" viewBox="0 0 280 100">
    <g fill="none" fill-rule="evenodd">
        <path fill="none" d="M0 0h280v100H0z"/>
        <g fill="#5A6978">
            <path fill-rule="nonzero" d="M84.455 25.008c3.064.072 6.323-.325 9.235.878 3.957 1.914 4.998 7.871 1.735 10.913 4.6 1.644 5.7 8.26 2.178 11.484-3.478 3.38-8.776 1.986-13.164 2.292.008-8.522.013-17.044.016-25.567zm3.881 3.53v7.498c1.7-.051 3.89 0 4.867-1.675.762-1.537.73-3.757-.65-4.956-1.169-.954-2.792-.763-4.217-.866zm0 10.652v7.704c2.127-.056 4.592.365 6.343-1.128 1.751-1.493 1.504-4.52-.427-5.71-1.779-1.057-3.94-.843-5.936-.85l.02-.016z"/>
            <path d="M103.951 25h3.659v25.61c-1.221 0-2.442 0-3.659-.024.021-8.531 0-17.055 0-25.586z"/>
            <path fill-rule="nonzero" d="M147.856 25.014c3.231.105 6.59-.346 9.718.65 4.697 1.746 5.791 8.655 2.078 11.872-2.153 1.98-5.254 2.128-8.04 2.035V50h-3.756c-.003-8.33-.003-16.659 0-24.986zm3.764 3.427v7.71c1.58-.039 3.291.062 4.741-.677 2.394-1.167 2.489-5.135.083-6.333-1.47-.754-3.2-.661-4.824-.7z"/>
            <path d="M192.366 25.621a65.656 65.656 0 0 1 2.439 0l-1 .551c.039 1.034 0 2.069-.115 3.096-.43-.974-.368-2.057-.342-3.096l-.982-.55zM194.805 29.246c.093-1.227.301-2.443.622-3.636.4.793.802 1.596 1.203 2.4.401-.792.782-1.589 1.184-2.378.35 1.188.568 2.407.65 3.636a8.457 8.457 0 0 1-.843-2.382 50.19 50.19 0 0 1-.99 2.085 40.051 40.051 0 0 1-.952-2.055c-.227.796-.52 1.575-.874 2.33z"/>
            <path fill-rule="nonzero" d="M129.978 38.701c2.103-4.029 8.52-4.488 11.282-.938 1.368 1.674 1.544 3.92 1.594 5.994-3.517.032-7.006 0-10.508.024.348 1.755 1.395 3.725 3.435 3.78 1.99.389 3.404-1.242 4.385-2.725.933.519 1.87 1.038 2.81 1.557-1.786 3.468-6.136 5.204-9.77 3.635-4.377-1.674-5.233-7.555-3.228-11.327zm2.58 2.336c2.313.062 4.63.07 6.947 0-.922-3.473-5.979-3.395-6.948-.008v.008z"/>
            <path d="M169.746 36.758c1.603-1.731 4.156-1.72 6.156-.668a135.99 135.99 0 0 1-1.53 3.047c-1.572-.829-3.98-.727-4.458 1.285-.637 3.344-.136 6.797-.297 10.188h-3.47v-14.9c1.194.266 3.575-.78 3.599 1.048z"/>
            <path fill-rule="nonzero" d="M184.522 35.473c4.741-.833 9.61 3.298 9.014 8.005 0 4.948-5.85 8.393-10.508 6.692-3.375-1.02-5.606-4.49-5.261-7.87.22-3.444 3.231-6.424 6.755-6.827zm-.036 3.1c-3.932.907-4.32 7.013-.777 8.625 2.607 1.224 6.103-.426 6.275-3.332.769-3.08-2.239-6.335-5.49-5.312l-.008.02z"/>
            <path d="M111.922 35.378h3.277c.12 3.393-.265 6.83.211 10.194.442 2.624 4.66 2.611 5.12 0 .42-3.377.085-6.81.189-10.206h3.315c-.161 3.805.384 7.686-.384 11.44-1.64 5.207-10.114 5.027-11.505-.285-.518-3.669-.1-7.43-.223-11.143zM84.282 59.756h1.302v4.869c.633 0 1.268.008 1.904.023v1.11h-1.9c0 3.09.033 6.182-.032 9.242h-1.229c-.061-3.064-.024-6.125-.028-9.189-.962-.12-2.522.275-2.272-1.16h2.272c-.014-1.637-.02-3.27-.017-4.895z"/>
            <path fill-rule="nonzero" d="M92.269 59.178l1.253-.032c0 .603 0 1.197.028 1.812h2.318L94.3 59.62l1.274-.399a4.2 4.2 0 0 1 1.305 1.772h1.607v1.053h-4.97v1.101c1.355.024 2.708.028 4.066.028v6.328c-.615 0-1.23-.024-1.844 0 .928.798 2.165.599 3.294.635 0 .247.028.742.04.99l-2.876.031c.454 2.139-.494 4.265-3.02 3.767l-.507-1.261c1.977.494 2.543-.798 2.31-2.522h-4.796c.63.666 1.273 1.317 1.892 1.995l-1.089.798a59.526 59.526 0 0 0-1.916-2.222l1.286-.288c-1.121-.363-2.318-.271-3.479-.307 0-.251.028-.754.04-1.001h7.733c.217-1.026 1.273-1.062 2.088-1.321-.972-.399-2.032-.399-3.068-.399-.057.283-.17.85-.23 1.133l-1.132-.06c-.02-.26-.064-.798-.085-1.05h-2.699c0 .276-.044.835-.056 1.11l-1.277-.084v-6.304c1.365 0 2.727 0 4.093-.028v-1.109h-4.893v-1.045h4.877c-.004-.599-.004-1.193 0-1.784zM89.5 64.074v1.293h2.768v-1.29l-2.768-.003zm4.017 0v1.277h2.812v-1.277h-2.812zm-4.041 2.107v1.236c.984 0 1.968 0 2.952-.047-.004-1.692-1.783-1.082-2.936-1.181l-.016-.008zm4.037 0v1.197h2.812V66.18h-2.812z"/>
            <path d="M125.612 59.527c.51-.13 1.019-.255 1.532-.38 1.502 3.044 5.143 1.822 7.905 2.04v3.447h-1.408v-2.283h-11.869v2.283h-1.357v-3.448h6.694c-.495-.558-.994-1.111-1.497-1.66z"/>
            <path fill-rule="nonzero" d="M145.637 59.146l1.022.419c-.112.364-.228.729-.34 1.097 1.743-.023 3.491-.03 5.24 0a8.076 8.076 0 0 1-1.737 2.954h3.135v2.815c.535.026 1.07.057 1.604.093v1.008h-1.604v3.644h-1.154l-.24-.803h-3.048c-.088 1.097.177 2.326-.4 3.319-.822.969-2.278.62-3.412.698l-.401-1.26c2.125.616 3.404-.675 2.886-2.714h-4.125v-1.074h4.09v-1.806h-4.992c0-.268 0-.803-.02-1.07h4.987v-1.753a11.23 11.23 0 0 1-3.788-.387l-.642.093-.942-.582a18.139 18.139 0 0 0 3.88-4.69zm-.136 2.574c-.526.636-1.063 1.268-1.604 1.9h4.322c.485-.628.97-1.26 1.459-1.888a299.93 299.93 0 0 0-4.177-.012zm2.998 2.958c0 .594-.032 1.187-.044 1.784h3.207v-1.756l-3.163-.028zm-.028 2.858v1.798h3.175c0-.604.024-1.21.032-1.814l-3.207.016z"/>
            <path d="M164.39 59.146h1.43a10.73 10.73 0 0 0 1.142 6.029 27.038 27.038 0 0 0 4.198-3.273l1.13.816a29.242 29.242 0 0 1-4.757 3.498 15.432 15.432 0 0 0 5.93 5.333c-.49.334-.98.672-1.468 1.014a16.831 16.831 0 0 1-6.175-6.996c-.06 2.503.15 5.018-.095 7.51-.299 1.574-2.252 1.27-3.453 1.313-.13-.45-.256-.901-.394-1.348.815-.02 1.63-.028 2.45-.043.114-4.618.043-9.231.062-13.853zM103.482 60.725c3.73-.067 7.45-.39 11.136-.969l.79 1.201a97.515 97.515 0 0 1-10.63.933 90.234 90.234 0 0 1-.502 4.49h4.553v-3.654h1.433v3.667h5.884v1.2h-5.895c-.075 2.11.197 4.252-.158 6.341-.676 1.445-2.512 1.017-3.776.973l-.32-1.369c.87-.088 2.074.424 2.717-.312.237-1.866.056-3.759.1-5.632h-6.082c.256-2.294.474-4.584.75-6.87z"/>
            <path fill-rule="nonzero" d="M177.235 60.374h5.883v4.17l1.274.252-.144 1.162c1.053 0 2.106 0 3.16-.027l-.901-.62c.06-.163.188-.488.252-.65-.761 0-1.518.042-2.275.054v-4.35h5.951V64.7h-2.96c.575.413 1.145.831 1.71 1.255h2.28l.032 1.014c-2.055 0-4.11-.023-6.164.078 2.143 1.162 4.59 1.63 7.033 1.684-.232.388-.465.752-.693 1.131l-1.23-.05c.029 1.708 0 3.415 0 5.123l-1.085.054c-.064-.24-.196-.716-.264-.956-1.202.217-3.104-.596-3.645.871l-1.001.05V69.75c1.602 0 3.204.023 4.806-.047a13.269 13.269 0 0 1-5.499-2.737c-1.33 1.452-3.204 2.207-5.074 2.741 1.49.062 2.988.055 4.481.043v5.2l-1.077.032-.32-.93h-3.204c-.08.236-.237.713-.317.949l-1.013-.046v-5.077c-.4 0-.757.02-1.137.035l-.801-.972c2.355-.113 4.746-.562 6.724-1.87-1.962-.113-3.925-.078-5.883-.09 0-.256.02-.774.028-1.015h6.684c.068-.313.208-.937.276-1.246h-5.859l-.028-4.345zm1.246 1.037v2.262h3.328v-2.27l-3.328.008zm7.325 0v2.27h3.388v-2.262l-3.388-.008zm-7.365 9.372v2.265h3.412v-2.265h-3.412zm7.28 0v2.258h3.501v-2.27c-1.164.013-2.33.018-3.5.016v-.004z"/>
            <path d="M138.098 60.767l1.387-.401a70.462 70.462 0 0 1 2.271 3.56l-1.189.708a59.927 59.927 0 0 0-2.47-3.867zM157.23 63.415h6.477c-.365 3.919-2.754 7.395-5.91 9.756l-1.407-.722c2.778-1.903 4.82-4.658 5.8-7.822h-4.972c.004-.3.008-.91.013-1.212zM121.956 65.84l.047-1.206h10.875c0 .302-.027.904-.035 1.206h-4.844v2.672h4.742v1.205h-4.742v3.46c1.415.024 2.83.028 4.242-.085a79.132 79.132 0 0 1-2.685-2.475l1.128-.599c.708.643 1.42 1.29 2.116 1.953-.181.442-.358.884-.535 1.334.92-.072 1.844-.12 2.752-.16l.032 1.245h-15.244l.031-1.205h6.79V69.72h-4.572v-1.205h4.557v-2.672c-1.541 0-3.098.004-4.655-.004zM138.098 72.268a33.651 33.651 0 0 0 3.042-5.805l1.226.538a32.017 32.017 0 0 1-2.992 6.17l-1.276-.903zM105.182 68.902l1.208.583a20.856 20.856 0 0 1-3.601 4.295l-1.277-.601a18.647 18.647 0 0 0 3.67-4.277zM111.878 69.493l1.238-.59a58.172 58.172 0 0 1 3.64 3.851c-.33.34-.658.682-.985 1.026a74.893 74.893 0 0 0-3.893-4.287z"/>
        </g>
    </g>
</svg>
