<svg width="281" height="100" viewBox="0 0 281 100" xmlns="http://www.w3.org/2000/svg"><title>53FBCB4F-E4B0-408F-9838-6ACAE964059F</title><g fill="none" fill-rule="evenodd"><path fill="none" d="M0 0h280v100H0z"/><path d="M156.307 23c.13.236.298.39.568.513 1.027.466 2.023.998 3.038 1.491.615.3 1.263.473 1.958.494.56.017 1.138.035 1.67.184.312.087.603.318.811.686.254.449.286.932.462 1.385.244.63.417 1.278.952 1.762.362.326.737.518 1.227.458 0 .027.008.075-.002.079-.468.197-.869.071-1.247-.238-.87-.712-1.47-1.608-1.743-2.685a1.224 1.224 0 0 0-.979-.934 27.566 27.566 0 0 0-1.51-.207c-.477-.053-1.002-.004-1.423-.188-.842-.369-1.773-.474-2.676-1.022.107.277.188.432.226.596.19.803.346 1.613.802 2.328.15.236.256.502.369.76.23.525.566.924 1.093 1.205.553.294 1.02.755 1.582 1.02.36.17.451.489.685.72.302.298.082.668.178 1.073-.7-.112-1.24.15-1.748.486-.18.119-.344.278-.48.447-.126.159-.248.345-.295.538-.05.209-.05.45 0 .658.043.172.193.317.29.467-.634.251-1.174-.294-1.782-.073-.533.194-1.114.267-1.63.493-.496.215-.977.498-1.358.916.729-.198 1.348-.68 2.148-.637.794.042 1.608-.07 2.377.42-1.363.238-2.247.646-2.483 1.243 1.81-.516 2.334-.74 4.02-.201-.986.06-1.745.496-2.736.865 1.3.022 2.424-.1 3.453.456-.47.047-.936.031-1.402.055-.201.01-.4.101-.598.159-.233.068-.233.07-.433.332h.676c.194 0 .39-.01.584.002.209.013.45-.088.603.152.184-.262.358.007.518.037.191.035.348.254.54.291.194.037.363.055.498.218.14.17.299.324.427.462.436 0 .826-.005 1.215 0 1.26.018 2.504-.258 3.771-.182.398.024.775-.174.995-.577.125-.23.364-.407.448-.645.065-.182.186-.197.29-.29.348-.31.688-.192 1.12-.062-.064.167-.083.42-.195.47-.325.151-.389.374-.357.688.007.064-.094.14-.187.266.36 0 .636.021.908-.006.286-.03.57-.164.85-.151 2.235.104 4.457-.245 6.692-.182 1.362.038 2.726.008 4.09.005.165 0 .33-.03.513-.048-.396-.556-.97-.757-1.65-1.113.638 0 1.104-.009 1.57.003.468.012.916.345 1.42.083-.466-.465-1.102-.368-1.71-.473.4-.32.86-.164 1.196-.308.396-.17.801-.035 1.289-.238-.21-.033-.304-.051-.398-.062-.341-.038-.672-.027-1.026-.131-.453-.134-1.01-.108-1.471.022-.59.167-1.138.077-1.705.007.102-.065.213-.038.305-.069.936-.31 1.886-.535 2.882-.496.136.006.323.039.398-.033.245-.234.56-.185.78-.113.726.24 1.46.136 2.19.14.94.007 1.852.098 2.717.499.104.048.256-.005.46-.015-.226-.15-.382-.238-.521-.347-.775-.606-1.684-.91-2.623-1.114-.547-.119-3.504.042-4.269.157-.05.007-.095.039-.143.055-.611.203-1.22.412-1.836.6-.104.033-.235-.02-.397-.04 1.256-1.249 2.44-1.802 4.102-1.946.078-.007.185 0 .229-.045.236-.245.566-.173.779-.097.372.134.734.131 1.107.148.069.004.134.11.2.11.439-.003.837.37 1.312.15-.168-.11-.315-.219-.474-.305-.294-.16-.581-.385-.897-.443-.958-.175-1.921-.326-2.882-.492-.648-.111-1.333-.051-1.999-.013-.645.038-1.311-.18-1.938.15-.074.04-.238.008-.301-.052-.159-.15-.249-.094-.417.003-.218.124-.494.144-.74.224-1.523.502-3.033 1.025-4.349 1.986-.74.54-1.266 1.163-1.205 2.095.216.07.362.126.512.164.145.037.294.054.478.087-.07-.176-.086-.316-.165-.392-.206-.202-.251-.519-.139-.667.183-.242.084-.567.368-.778.434-.323.976-.447 1.483-.219.837.378.842.379.795 1.22-.01.16-.066.319-.122.572.19-.136.389-.201.425-.316.142-.456.575-.646.841-.982.266-.337.505-.716.836-.975.384-.302.797-.64 1.442-.6-.803.667-1.339 1.418-1.755 2.266-.186.378-.403.758-.751 1.014-.269.198-.616.298-.864.515-.29.254-.657.096-.975.287-.275.166-.66-.04-1-.117-.795-.18-1.608-.284-2.409-.418l.31-.361c-.262-.136.037-.255.009-.366-.03-.119-.128-.224-.207-.328-.332-.44-.374-.886-.124-1.394.476-.966 1.315-1.572 2.25-1.908 1.307-.47 2.574-1.124 4.002-1.216.241-.369.653-.082.983-.252.309-.159.751-.093 1.132-.072.368.02.77-.152 1.103.154.445-.189.753-.341 1.015-.55.294-.234.311-.586.05-.839-.44-.426-.8-.956-1.449-1.128-.108-.029-.183-.178-.313-.312.54-.497 1.152-.693 1.787-.81.296-.055.61-.01.916-.01.473 0 .948.022 1.419-.006a13.9 13.9 0 0 0 1.35-.163c.308-.05.63-.091.91-.214.964-.42 1.87-.967 2.487-1.82.686-.948 1.516-1.686 2.563-2.205-.057-.028-.104-.07-.15-.071-1.307-.004-2.615-.02-3.922.007a6.04 6.04 0 0 0-1.342.19c-.626.162-1.267.272-1.891.451-.746.214-1.5.409-2.191.755a12.014 12.014 0 0 0-3.198 2.341 7.7 7.7 0 0 1-2.319 1.647c-.805.366-1.574.382-2.375-.012-.365-.18-.716-.386-1.166-.422-.622-.051-1.033 0-1.454.41-.295.288-.55.634-1.108.767l.91-1.418c-.311-.162-.412-.361-.295-.677.18-.485.35-.983.941-1.386-.259 0-.373-.03-.462.005-.51.203-1.037.346-1.426.801-.33.387-.675.786-1.159 1.081-.045-.12-.102-.195-.09-.256.025-.123.083-.241.135-.358.156-.353.294-.707.132-1.114-.594.495-.95 1.032-.52 1.93-.264-.13-.416-.253-.467-.22-.324.207-.677.074-1.01.13-.199.034-.42.096-.57.219-.181.148-.363.082-.544.107.301-.329.866-.65 1.44-.834.084-.027.192-.082.223-.152.477-1.076 1.03-1.532 2.078-2.028.462-.218.878-.347 1.399-.286.017.19-.173.238-.257.346-.101.13-.243.229-.347.358-.087.108-.144.24-.258.436.969-.355 1.306-.741 3.461-.253l-1.071.643.022.11c.353 0 .709-.027 1.06.007.307.03.609.127.942.2-.282.442-.792.246-1.132.479-.316.217-.678.367-1.115.597.275.019.472.05.666.04.464-.021.882.098 1.295.304.607.302 1.204.301 1.81-.068a8.511 8.511 0 0 0 1.1-.767 83.763 83.763 0 0 0 3.174-2.809c.411-.386.931-.676 1.44-.937.36-.186.779-.283 1.183-.356.31-.056.622-.086.935-.152.655-.138 1.34-.127 2.012-.195.34-.034.676-.118 1.016-.159.315-.037.651.076.937-.163.049-.041.162-.01.245-.005.791.045 1.555-.293 2.351-.167.935-.324 1.902-.098 2.852-.164.075-.005.153.019.265.034-.46.296-.895.555-1.307.847-.2.143-.43.316-.52.528-.202.484-.593.808-.973 1.08-.677.484-1.243 1.074-1.794 1.672-.783.848-1.798 1.244-2.833 1.628a.727.727 0 0 1-.326.017c-.875-.103-1.707.296-2.744.13.176.213.234.3.31.369.138.125.299.228.431.36.659.654 1.365 1.268 1.885 2.045.258.384.53.762.691 1.208.053.147.21.284.353.367.543.314 1.135.555 1.573 1.024.21.225.387.48.677.844-.502-.16-.897-.213-1.205-.404-.378-.234-.712-.081-1.079-.045.956.027 1.677.587 2.397 1.076.825.56 1.603 1.206 2.181 2.23-1.256-.493-2.258-1.272-3.674-1.227l.945.72c-.416.043-.714-.204-1.056-.34-.331-.13-.704-.158-1.142-.249l.862 1.117c-.746-.152-1.38-.604-2.315-.325.61.08 1.02.261 1.348.747-.286-.073-.522-.086-.706-.19-.476-.268-.907-.185-1.341.092.274.274.615.34.985.435 1.007.256 2.017.098 3.024.141.583.025 1.193-.098 1.746.033.57.135 1.125.122 1.69.135.584.013 1.192-.101 1.746.028.763.178 1.516.109 2.274.139.373.014.7.228 1.1.184.362-.04.754-.108 1.105.14.092.065.272-.002.41.012.478.05.972.05 1.428.18.426.122.888.063 1.293.303.137.08.363.013.558.125l-.657.132c.844.16 1.524.307 2.166.586v.166c-.529 0-1.06-.028-1.585.008-.473.032-.94.134-1.453.211l1.541.481c-.601.037-1.178.282-1.77-.016-.238-.12-.588-.02-.894.026.477.185.948.349 1.43.798-.279-.032-.43-.038-.575-.068-.099-.02-.191-.108-.286-.107-.916.009-1.778-.4-2.7-.337-.398-.232-.89-.04-1.252-.197-.416-.18-.822-.02-1.192-.148-.532-.183-1.085-.06-1.6-.175-.593-.134-1.205-.029-1.764-.172-.627-.16-1.254-.03-1.854-.156-.758-.159-1.535-.028-2.265-.177-.85-.174-1.7-.007-2.52-.156-1.26-.227-2.533.006-3.77-.172-1.763-.254-3.52-.109-5.276-.13-3.366-.04-6.733-.014-10.099-.009-.605 0-1.231-.06-1.81.07-.58.13-1.142.062-1.71.088-.61.027-1.248-.101-1.83.03-.984.22-1.975.01-2.937.165-.817.131-1.642.03-2.433.172-.709.127-1.419.03-2.102.158-.705.133-1.42.04-2.1.174-.624.123-1.28-.02-1.843.171-.656.223-1.356-.08-1.962.295-1.004.058-1.844.11-2.683.17-.316.023-.592.219-.934.175-.285-.036-.572.076-.853.126-.816.146-1.657.153-2.5.155.296-.217.715.003.98-.291.841.069 1.61-.39 2.45-.332.31-.22.7-.075 1.007-.188.346-.128.707-.055 1.016-.166.346-.125.717-.044 1.013-.168.378-.158.764-.046 1.103-.162.372-.128.734-.122 1.105-.153.286-.023.565-.119.85-.155.263-.033.542.053.771-.164.044-.042.161-.004.245-.006.4-.012.79 0 1.19-.146.335-.122.757.075 1.093-.184.81-.058 1.54-.104 2.266-.172.341-.032.677-.111 1.016-.161.34-.05.714.119 1.02-.164 1.141-.058 2.12-.119 3.099-.166.223-.01.445.016.6-.266a2.972 2.972 0 0 0-1.64-.901c-.645-.12-1.203.318-1.928.328.475-.463.813-.92 1.6-1.069-.986-.212-1.732.023-2.531.153l1.098-1.01c-.46-.037-1.611.355-2.67.936-.043-.298-.046-.301.824-1.157.337-.332.692-.646 1.078-1.005-.22.02-.446-.009-.627.068-.638.27-1.273.555-1.887.876-.82.43-1.621.897-2.515 1.395.062-.163.088-.277.146-.371.33-.535.713-1.036 1.08-1.542.272-.375.71-.646 1.108-.915.88-.597 1.827-1.064 2.864-1.337.122-.032.228-.125.35-.16.31-.086-.004-.167.006-.242.061-.426.614-1.343 1.045-1.541.698-.322 1.309-.86 2.137-.889.12-.004.235-.178.376-.293-.411-.515-.84-.886-1.403-1.117a4.965 4.965 0 0 1-1.087-.59c-.407-.304-.684-.733-.92-1.19-.575-1.118-1.212-2.204-1.51-3.447-.076-.313-.341-.577-.46-.886-.177-.46-.43-.906-.363-1.43h.334zM89.67 58.03c1.3 0 2.494.013 3.688-.008a4.167 4.167 0 0 0 1.175-.177c.198-.063.431-.29.48-.484.116-.46.169-.943.18-1.418.023-1.104.01-2.21.006-3.314-.003-.64.076-1.29-.233-1.885h-5.294c-.051.32-.14.623-.142.927-.014 1.795-.013 3.59 0 5.386.002.307.086.615.14.973m-4.154 0c0-2.285.003-4.516-.002-6.747-.001-.459-.106-.555-.582-.557a780.18 780.18 0 0 0-4.496 0c-.49.002-.593.092-.594.545-.006 2.069-.006 4.138 0 6.208 0 .455.105.548.59.549 1.664.004 3.33.002 5.084.002m4.262 2.656c-.338.708-.251 1.387-.254 2.058-.004 1.349 0 2.697 0 4.065h-4.008v-.718c0-1.52-.017-3.042.007-4.562.013-.831-.098-.853-.89-.849-2.586.015-5.172.006-7.758.006h-.849V48.26c.181-.008.393-.024.604-.024 2.614-.002 5.228-.002 7.842-.002.139 0 .278.003.417 0 .553-.01.622-.07.625-.6.006-.993.002-1.987.002-3.016h4.007c0 .998-.004 1.988.002 2.978.003.574.07.637.67.637 2.392.003 4.783 0 7.175.003.7 0 1.462.47 1.626 1.046.115.401.198.826.202 1.242.02 2.018.071 4.04-.021 6.053-.038.833-.08 1.72-.582 2.489-.517.793-1.141 1.307-2.132 1.488-.712.13-1.405.114-2.106.125-1.529.023-3.058.007-4.579.007zM150.82 49.553v-2.48h14.153c.962-.001 1.181-.213 1.185-1.14v-1.351c1.205 0 2.368-.005 3.531.003.345.002.469.14.474.5.008.58.002 1.161.002 1.74.528.252 1.087.287 1.654.245.569-.043 1.145.105 1.713-.09.124-.042.308.089.473.143 0 .762 0 1.506-.002 2.251 0 .05-.027.1-.043.155-1.24.147-2.511-.144-3.795.187v.848c0 3.984-.002 7.968.002 11.951 0 .883-.138 1.757-.365 2.594-.136.501-.49.953-1.032 1.238-.579.304-1.147.492-1.805.488-2.473-.016-4.947-.007-7.486-.007 0-.755.003-1.494 0-2.232-.002-.268.157-.387.39-.42.163-.022.333-.004.5-.004 1.53 0 3.06.002 4.59 0a1.181 1.181 0 0 0 1.197-1.058c.014-.109.002-.22.002-.331l-.001-12.284c0-.078-.015-.155-.03-.305-.468.198-.771.497-.97.91-.244.508-.55.977-.707 1.539-.141.507-.594.909-.63 1.48-.463.63-.682 1.38-.991 2.081-.578 1.312-1.222 2.593-1.731 3.936-.29.763-.742 1.466-1.038 2.227-.287.741-.637 1.454-.941 2.186-.436 1.047-1.192 1.875-2.348 2.223-.15.046-.319.05-.48.05-1.806.004-3.613.002-5.457.002v-2.656c.92 0 1.834-.022 2.746.008.547.018.935-.252 1.214-.633.61-.834 1.091-1.751 1.508-2.695a188.881 188.881 0 0 1 1.754-3.844c.303-.649.633-1.288.917-1.945.61-1.411 1.265-2.8 1.93-4.185.187-.39.308-.812.499-1.325H150.82zM179.515 66.828h-3.966V44.582h.796c6.035 0 12.07.002 18.105-.006.284 0 .612.138.851-.158.02-.025 1.906.285 1.96.293.46.072.74.406 1.041.706.275.273.42.587.419.991-.008 5.863.006 11.726-.017 17.588-.004 1.034-.565 1.811-1.463 2.334-.415.242-1.346.498-1.794.498h-5.209v-2.476h4.04c.44-.396.598-.865.598-1.404-.001-4.73 0-9.458-.002-14.187 0-.818-.524-1.354-1.327-1.355-4.45-.004-8.9-.002-13.35-.002-.083 0-.167-.005-.25.001-.286.022-.415.157-.43.462-.01.193-.002.387-.002.58v18.381zM132.599 55.552c0 .868-.005 1.667.002 2.465.003.359.13.502.462.507.637.011 1.274.01 1.91 0 .305-.004.458-.142.46-.425.01-.845.004-1.691.004-2.547H132.6zm9.249-.013c-.647 0-1.311.004-1.975-.002-.269-.002-.415.157-.421.383-.02.743-.01 1.486-.006 2.23.002.218.138.368.346.372.775.014 1.55.016 2.325-.007.099-.003.192-.183.288-.28-.252-.202.143-.325.062-.548-.08-.219-.036-.49-.014-.736.052-.577-.118-1.054-.605-1.412zm7.261 2.988v2.668h-8.644c-.01.11-.04.185-.015.213.86.97 1.83 1.72 3.18 1.958.82.145 1.63.368 2.46.507.427.072.868.034 1.265.153.428.128.844.137 1.272.148.36.009.493.128.498.476.01.713.003 1.426.003 2.2-.71-.095-1.367.041-2.052-.16-.633-.186-1.336-.13-2.008-.197-.395-.039-.86.004-1.164-.191-.373-.24-.834.052-1.131-.304-1.244-.233-2.342-.79-3.395-1.467-.702-.451-1.205-1.105-1.833-1.649-.372.314-.746.646-1.137.956-.738.584-1.65.856-2.449 1.33-.382.227-.83.279-1.227.458-.407.183-.843.247-1.265.368-.573.165-1.155.299-1.733.446-.076.02-.15.047-.227.055-.561.058-1.151.023-1.676.19-.625.2-1.233.088-1.88.158V64.2c.23-.008.497-.014.763-.029.344-.019.682.04 1.024-.149.265-.147.65.128.935-.164.055-.056.212-.014.322-.018.741-.027 2.329-.479 3.172-.796.611-.23 1.172-.53 1.73-.858.382-.224.667-.517.901-.858-.044-.063-.056-.088-.074-.105-.019-.017-.045-.038-.067-.038l-8.703-.001v-2.652h2.608v-5.454c.237-.01.448-.027.659-.028 1.724-.002 3.448.006 5.173-.007.336-.002.672-.08.973-.12.234-.713-.191-1.442.283-2.032h3.77c.008.288.02.581.023.875.004.3.001.6.001.864.327.355.7.43 1.123.425 1.28-.016 2.559-.026 3.838.002.796.017 1.394.39 1.781 1.114.103.192.099.359.1.54.008.884.004 1.77.004 2.654 0 .166.027.338-.009.496-.031.143.289.185.068.399-.079.076.152.271.365.27.778-.006 1.557-.003 2.395-.003z" fill="#58697C"/><path d="M187.242 60.78c.184-.275.286-.5.45-.661.633-.62.996-1.393 1.366-2.176.142-.302.167-.51.012-.803-.215-.405-.456-.831-.52-1.272-.139-.956-.638-1.8-.755-2.77-.082-.683-.26-1.373-.424-2.053-.117-.483-.15-.986-.246-1.664-.177.63.027 1.14-.264 1.558-.04.922-.315 1.8-.495 2.697-.239 1.191-.64 2.328-1.138 3.428-.205.452-.131.818.113 1.196.113.175.275.33.344.52.291.806.858 1.385 1.557 2zm7.3 3.344c-.762-.647-1.457-1.163-2.058-1.77-.601-.61-1.108-1.31-1.69-2.008-.548.657-1.052 1.333-1.633 1.936-.585.606-1.247 1.138-1.908 1.731-.295-.048-.544-.229-.767-.46-.172-.18-.36-.347-.528-.531-.164-.181-.494-.195-.525-.51-.355.043-.22-.367-.451-.48-.213-.104-.375-.326-.536-.515-.332-.39-.649-.791-.99-1.21-1.004 1.392-2.085 2.642-3.607 3.634 0-1.095-.024-2.081.018-3.066.01-.227.195-.548.39-.643.315-.154.373-.478.613-.675.204-.168.286-.48.427-.725.231-.403.467-.804.674-1.16-.269-.688-.527-1.352-.787-2.014-.254-.647-.331-1.346-.612-1.988-.082-.186-.024-.428-.06-.64-.034-.201-.123-.394-.16-.595-.137-.752-.303-1.496-.358-2.266-.026-.358-.168-.717-.146-1.094.02-.36.132-.5.47-.505.584-.011 1.168.001 1.751-.006.261-.003.401.11.454.363.042.202.139.395.157.596.027.302-.103.675.033.896.194.315-.003.688.197.912.225.253.062.55.24.829.17.263-.011.731.353 1.059.115-.289.293-.58.34-.892.099-.648.44-1.254.347-1.934.296-.417.127-.892.164-1.341.03-.357.133-.482.495-.483 1.662-.006 3.323-.003 4.984-.003.078 1.628.403 3.155.875 4.691.474-.33.382-.808.469-1.188.092-.405.202-.805.305-1.207.013-.049.047-.094.052-.143.059-.558.103-1.117.175-1.672.022-.172.118-.335.171-.48.739 0 1.406-.005 2.073 0 .508.006.541.056.43.573-.012.053-.004.109-.01.163-.054.613-.017 1.253-.188 1.833-.257.872-.294 1.78-.588 2.654-.27.797-.431 1.642-.726 2.441-.141.384-.3.763-.426 1.152-.045.137-.071.32-.016.443.341.758.809 1.446 1.292 2.121.248.348.531.672.82 1.033v3.144zM124.123 45.267c-.111.245-.168.471-.298.641-.405.528-.804 1.063-1.207 1.59-.583.76-1.426 1.222-2.013 1.955-1.072.622-2.017 1.461-3.263 1.792-.304.08-.604.277-.924.378-.302.095-.502.343-.498.604.01.614-.138 1.235.138 1.846.217.479.476.786.96.796.919.02 1.84.05 2.754-.009.648-.04 1.037-.48 1.133-1.117.04-.267.007-.544.007-.837h3.102c.151 1.17.045 1.598-.243 2.733-.216.854-.818 1.273-1.513 1.533-.576.217-1.208.367-1.854.363-1.558-.01-3.117.011-4.675-.012a8.365 8.365 0 0 1-1.592-.181c-.824-.174-1.785-1.05-2.026-1.852-.128-.424-.171-.88-.208-1.324-.034-.408-.007-.822-.007-1.314-.613.14-1.189-.11-1.787.177-.431.207-.71-.063-.716-.565-.006-.498-.002-.995-.002-1.528.775-.311 1.652-.23 2.488-.638v-5.695h4.017v4.296c.165 0 .299.041.375-.007.42-.269.834-.548 1.233-.846.26-.194.46-.495.745-.623.305-.137.293-.563.655-.595l1.284-1.561H124.123zM149.111 47.072v2.469h-4.71l-.45.435v1.539h-3.988v-1.52l-.435-.432c-1.303 0-2.66-.003-4.015.002-.255 0-.393.153-.407.4a5.027 5.027 0 0 0 0 .581c.02.352-.001.692-.234.992h-3.756v-1.526l-.455-.452h-4.908c0-.625-.022-1.252.013-1.877.012-.215.147-.438.272-.627.058-.088.257-.173.343-.139.8.316 1.628.094 2.44.15.387.028.78.033 1.167-.003.363-.033.72-.133 1.107-.209V44.61h4.008c0 .597-.005 1.224.002 1.85.005.556.054.608.614.61 1.029.006 2.058.02 3.087-.007.363-.009.724-.124 1.116-.196v-2.246h4.015v2.196c.326.235.66.263 1.017.26 1.363-.012 2.726-.005 4.157-.005M114.383 57.56c.007.108.014.187.017.267.023.675.04.699.693.7 2.973.002 5.946 0 8.955 0v2.657h-1.661c-2.419 0-4.837-.002-7.256.002-.267 0-.574-.088-.73.318v5.236c-.02.02-.035.044-.057.06a.135.135 0 0 1-.07.027l-3.853.001V61.21c-.237-.01-.449-.025-.66-.025-2.614-.002-5.227-.001-7.84-.001-.14 0-.278.002-.417 0-.553-.011-.621-.071-.626-.6-.006-.662-.002-1.324-.002-2.057h8.574c.166 0 .334.009.5-.001.292-.018.412-.144.442-.45.008-.082 0-.166.002-.249.002-.08.01-.16.016-.267h3.973z" fill="#58697C"/><path d="M100.896 51.872v-2.468c.527-.27 1.074-.563 1.63-.836 1.21-.594 2.13-1.474 2.69-2.704.18-.395.539-.718.504-1.242h4.842c-.173.79-.565 1.48-.969 2.148a14.16 14.16 0 0 1-1.3 1.785c-.201.24-.24.46-.24.737.005 2.572.003 5.144.003 7.717v.854c-1.203 0-2.366.005-3.528-.002-.349-.003-.476-.138-.477-.497-.005-1.88-.002-3.761-.002-5.642 0-.027-.002-.055 0-.083.041-.659.032-.666-.53-.47-.68.235-1.359.48-2.046.695-.17.053-.37.008-.577.008M117.434 34.113v2.002c.44 0 .854.018 1.264-.007.202-.012.412-.075.594-.165.296-.148.542-.634.44-.945-.1-.298-.162-.6-.597-.736-.57-.177-1.117-.093-1.701-.15m2.78 2.906l2.566 3.22h-2.42l-2.1-2.77h-.836v2.776h-1.986v-7.45c1.384 0 2.77-.05 4.148.024.606.033 1.244.185 1.688.74.473.59.556 1.197.378 1.921-.195.795-.659 1.283-1.439 1.54zM108.886 36.975v3.266h-1.962v-7.427h1.934v2.623c.487.027.95.01 1.41.013.469.004.938.001 1.436.001v-2.617h2.006v7.398h-1.976v-3.257h-2.848zM140.308 34.953h1.794l.023.424c.039.01.099.043.115.028.566-.528 1.259-.672 1.996-.605.214.02.431.175.615.311.197.146.356.343.54.526.369-.211.724-.424 1.088-.62.602-.326 1.187-.312 1.812 0 .568.284.8.771.82 1.31.051 1.294.017 2.591.017 3.913h-1.67c0-.854.003-1.73-.001-2.605a2.839 2.839 0 0 0-.135-.853c-.094-.299-.223-.413-.475-.553-.262-.145-.411-.126-.649.033-.13.087-.405-.022-.492.195-.066.167-.08.363-.08.547-.008 1.073-.004 2.146-.004 3.262-.48 0-.919.008-1.358-.003-.348-.008-.475-.138-.477-.497-.006-1.079-.002-2.158-.002-3.284-.141-.075-.3-.166-.463-.244-.255-.123-.913-.036-1.072.173a.78.78 0 0 0-.129.44c-.01.94-.005 1.88-.005 2.82v.578h-1.808v-5.296zM82.657 39.703c-.89.471-1.842.759-2.856.715-.596-.025-1.208-.14-1.753-.38-.596-.262-1.047-.74-1.38-1.309-.294-.5-.589-.991-.514-1.618.023-.188-.198-.433-.137-.585.253-.633.042-1.364.477-1.96.519-.713 1.01-1.374 1.948-1.659 1.151-.35 1.496-.315 2.731-.128.424.065.801.216 1.192.351.184.064.325.18.315.413-.01.275-.002.552-.002.828v.828c-.346-.21-.636-.33-.856-.529-.616-.551-1.347-.621-2.108-.54-.685.072-1.53 1.052-1.543 1.742-.008.442.025.886-.012 1.325-.02.24.08.414.181.592.663 1.162 2.187 1.507 3.314.753.304-.204.595-.428 1.003-.723v1.884zM85.52 32.795v2.642c.38-.227.702-.52 1.075-.614.417-.106.88-.04 1.323-.033.31.006.572.16.746.399.277.377.536.763.53 1.274-.015 1.242-.005 2.485-.005 3.765h-1.67c0-.854.017-1.706-.007-2.557-.01-.365-.087-.732-.165-1.09-.05-.234-.426-.487-.689-.458-.31.034-.625.092-.916.198-.182.066-.235.26-.232.478.013 1.132.006 2.264.006 3.431H83.68v-4.968c0-.663-.006-1.327.003-1.99.005-.348.138-.468.499-.475.416-.008.833-.002 1.338-.002M103.882 37.775c-.305 0-.545-.055-.742.013-.335.114-.733.111-.975.445-.153.212-.17.565-.01.73.333.348.686.366 1.379.147.454-.143.332-.487.346-.792.008-.162.002-.323.002-.543m-.04-.996c-.007-.548-.223-.808-.729-.823-.666-.02-1.345-.088-1.96.288-.1.061-.255.032-.416.047v-1.266c.998-.363 2.066-.25 3.117-.222.612.017 1.207.26 1.57.791.201.293.303.654.299 1.036-.013 1.186-.005 2.372-.005 3.636-.408 0-.815.003-1.221-.001-.436-.005-.436-.009-.695-.494-.647.588-1.663.832-2.55.453-.598-.254-1.077-.998-1.043-1.626.032-.597.592-1.3 1.208-1.484.66-.197 1.32-.407 2.026-.337.132.013.266.002.399.002zM135.27 37.579c0 .31-.048.571.014.803.064.24.183.524.372.657.217.153.542.232.81.214.422-.029.938-.598.967-1.024.033-.465.034-.937 0-1.403-.033-.454-.41-.805-.865-.877-.49-.078-.88.183-1.162.589-.26.373-.038.746-.136 1.04m-1.836-.003c-.012-.62-.015-1.236.496-1.704.121-.6.69-.729 1.114-.893.839-.325 1.74-.289 2.603-.018.796.25 1.62 1.422 1.625 2.27.002.403-.038.807-.08 1.21-.075.7-.617 1.093-1.058 1.555-.284.298-.68.249-1.025.341-1.066.288-2.033 0-2.934-.578-.277-.577-.833-1.037-.744-1.769.017-.136.003-.276.003-.414M95.534 36.426v3.812c-.262.009-.53.022-.797.027-.273.004-.547 0-.847 0v-5.272h1.625c.01.126.02.257.032.388.039.008.1.036.115.02.674-.718 1.556-.665 2.414-.6.486.037 1.123.823 1.127 1.306.011 1.375.004 2.751.004 4.142h-1.67c0-.967.003-1.928-.002-2.888-.001-.185 0-.385-.062-.554-.255-.685-.587-.82-1.31-.571-.194.066-.391.118-.63.19M132.766 40.066c-.414.089-.775.15-1.127.246-.56.153-.909.191-1.4 0-.246-.097-.569.093-.746-.212-.93-.307-1.277-.634-1.57-1.476-.317-.916-.183-2 .362-2.781.3-.43.76-.716 1.224-.855.609-.183 1.269-.308 1.919-.193.454.08.896.237 1.312.351v1.507c-.23-.094-.436-.136-.59-.25-.195-.146-.334-.339-.634-.298-.182.024-.38-.09-.569-.082-.206.009-.409.085-.673.146-.972.672-.976 2.205.057 2.921 1.357.028 1.645-.047 2.376-.626.02.02.056.04.056.059.004.497.003.995.003 1.543M92.34 40.266c-.473 0-.912.005-1.352-.002-.233-.004-.181-.035-.339-.424a1.37 1.37 0 0 1-.123-.526c-.002-1.43-.001-2.86-.001-4.325h1.815v5.277zM124.25 38.689c.797-.792 1.098-.897 1.587-.582.441.285.69.895.529 1.3-.199.504-.715.785-1.269.693-.578-.097-.838-.526-.846-1.411" fill="#58697C"/><path d="M92.333 34.11h-1.78v-1.291c.261-.008.555-.02.85-.023.3-.004.602-.001.93-.001v1.315zM163.643 30.215c.114-.104.187-.176.267-.24.016-.014.06.008.08-.004.195-.118.223-.31.17-.579-.137-.703-.504-1.292-.89-1.875-.115-.174-.205-.383-.361-.508a1.76 1.76 0 0 0-.623-.297c-.352-.098-.718-.148-1.075-.227-.356-.078-.724-.13-1.062-.257-.6-.226-1.183-.499-1.77-.757-.064-.028-.111-.09-.141-.115l-.287.224c.18.528.356 1.037.526 1.548.179.539.689 1.058 1.085 1.374.599.478 1.323.52 1.996.61.825.111 1.455.449 2.085 1.103m27.548-5.272c-.251.1-.39.181-.538.21-.18.033-.35.077-.527.133-.862.275-1.745.495-2.629.697-.842.192-1.704.3-2.539.516-.619.16-1.277.22-1.828.614-.302.216-.648.799-.612 1.15.022.22.139.35.348.378.34.045.651.18 1.014.187 1.14.02 2.26-.075 3.362-.356.496-.127.997-.279 1.456-.502.797-.387 1.368-1.067 1.949-1.706.216-.237.278-.609.535-.856.065-.064.01-.25.01-.465M161.618 36.04c.104.201.168.44.319.597.605.628 1.16 1.351 1.942 1.743.705.353 1.392.747 2.199.945.784.193 1.313-.073 1.886-.443.22-.143.311-.467.65-.446.072.004.147-.039.215-.058v-.49l.608-.517c-.095-.254-.19-.492-.274-.733-.297-.852-.824-1.391-1.776-1.545-.367-.06-.785-.02-1.09-.167-.412-.2-.802-.081-1.196-.138-.394-.058-.787-.143-1.183-.16-.72-.032-1.47.094-2.052-.499-.023-.023-.174.027-.202.077-.029.05.008.202.041.21.256.064.43.178.47.468.012.087.134.19.228.23.909.385 1.796.847 2.824.836.417-.005.835.003 1.252-.002.407-.004.763.135 1.121.319.13.067.176.1.24.24.229.505.217.903-.141 1.308-.202.228-.434.429-.646.649-.174.18-.351.223-.559.055.163-.162.363-.294.469-.48.196-.345.29-.7.037-1.1-.384-.608-1.05-.854-1.714-.527-.228.112-.495.12-.663.436-.147.278-.136.524-.12.776.011.155.185.3.285.448-1.174-.526-2.273-1.107-3.17-2.032m5.708-6.233c.181-.025.363.04.544-.107.15-.123.371-.185.57-.219.333-.056.686.077 1.01-.13.051-.033.203.09.466.22-.43-.898-.073-1.435.52-1.93.163.407.026.76-.132 1.114-.051.117-.109.235-.133.358-.013.061.044.136.09.256.483-.295.828-.694 1.158-1.08.389-.456.917-.6 1.426-.802.089-.035.203-.005.462-.005-.592.403-.761.9-.941 1.386-.117.316-.016.515.294.677-.286.446-.571.892-.91 1.418.56-.133.814-.479 1.11-.766.42-.41.832-.462 1.453-.411.45.037.8.242 1.166.422.801.394 1.57.378 2.375.013a7.704 7.704 0 0 0 2.32-1.648 12.007 12.007 0 0 1 3.197-2.341c.692-.346 1.445-.54 2.19-.755.625-.179 1.266-.29 1.893-.45.418-.108.891-.181 1.34-.19 1.308-.029 2.616-.012 3.923-.008.046 0 .093.042.15.07-1.047.52-1.877 1.258-2.563 2.205-.618.854-1.522 1.402-2.486 1.821-.282.123-.604.165-.912.214-.447.07-.898.137-1.35.163-.47.028-.945.007-1.418.007-.306 0-.62-.046-.916.009-.635.117-1.246.313-1.786.81.129.134.204.283.312.312.65.172 1.009.702 1.449 1.128.26.253.244.604-.05.84-.262.208-.57.36-.861.532-.042.024-.128.04-.154.017-.333-.306-.735-.134-1.103-.154-.38-.02-.823-.087-1.132.072-.33.17-.742-.117-.983.252-1.428.092-2.695.746-4.003 1.216-.934.336-1.773.942-2.249 1.908-.25.508-.208.954.124 1.394.078.104.177.21.207.328.028.112-.27.23-.009.366l-.31.361c.8.134 1.613.238 2.41.418.339.077.723.283.999.118.318-.191.685-.034.975-.288.248-.217.595-.317.864-.515.348-.256.565-.636.75-1.014.418-.848.953-1.599 1.756-2.265-.645-.042-1.058.297-1.442.599-.33.26-.57.638-.836.975-.266.336-.699.526-.841.981-.036.116-.235.181-.425.317.056-.253.113-.411.122-.572.047-.842.042-.842-.795-1.22-.507-.228-1.049-.104-1.483.219-.284.21-.185.536-.368.778-.112.148-.067.465.14.667.078.076.093.216.164.392-.184-.032-.333-.05-.478-.087-.15-.038-.296-.094-.512-.164-.061-.932.466-1.554 1.205-2.095 1.316-.961 2.826-1.484 4.35-1.985.245-.081.52-.1.739-.225.168-.096.258-.153.417-.003.063.06.227.091.3.052.628-.33 1.294-.112 1.94-.15.665-.038 1.35-.098 1.998.013.96.166 1.924.317 2.882.492.316.057.603.283.897.443.159.086.306.195.474.304-.475.22-.873-.152-1.311-.15-.067 0-.132-.106-.2-.109-.374-.017-.736-.014-1.108-.148-.213-.076-.543-.148-.78.097-.044.046-.15.038-.228.045-1.662.144-2.846.697-4.102 1.947.162.019.293.072.397.04.615-.19 1.225-.398 1.836-.601.048-.016.094-.048.143-.055.765-.115 3.722-.276 4.269-.157.94.203 1.848.508 2.623 1.114.14.109.295.197.522.347-.205.01-.357.063-.46.015-.866-.401-1.778-.492-2.718-.498-.73-.005-1.464.1-2.19-.14-.22-.073-.535-.122-.78.112-.075.072-.262.039-.398.033-.997-.04-1.946.186-2.882.496-.092.03-.203.004-.305.069.567.07 1.115.16 1.705-.007.462-.13 1.018-.156 1.47-.022.355.104.686.092 1.027.131.094.01.188.029.398.062-.487.202-.893.068-1.289.238-.336.144-.797-.012-1.196.308.608.105 1.243.008 1.709.473-.503.262-.95-.071-1.42-.083-.465-.012-.931-.002-1.568-.002.678.355 1.253.556 1.65 1.112-.183.018-.349.047-.515.047-1.363.004-2.727.034-4.09-.004-2.234-.063-4.456.287-6.692.182-.28-.013-.563.122-.849.15-.272.028-.549.007-.908.007.093-.126.194-.202.187-.266-.032-.314.032-.537.357-.687.112-.052.13-.304.195-.471-.432-.13-.772-.248-1.12.062-.104.093-.225.108-.29.29-.084.238-.323.416-.448.645-.22.403-.597.6-.995.577-1.267-.076-2.51.2-3.77.183-.39-.006-.78-.001-1.216-.001-.128-.138-.287-.292-.427-.462-.135-.163-.304-.18-.499-.218-.191-.037-.348-.256-.539-.291-.16-.03-.334-.3-.518-.038-.152-.24-.394-.138-.603-.151-.194-.012-.39-.002-.584-.002h-.676c.2-.262.2-.264.433-.332.198-.058.397-.149.599-.159.465-.024.932-.007 1.4-.055-1.028-.557-2.151-.434-3.451-.456.99-.37 1.75-.804 2.734-.866-1.685-.538-2.21-.315-4.019.202.236-.597 1.12-1.005 2.483-1.243-.769-.49-1.583-.378-2.377-.42-.8-.042-1.42.44-2.148.637.38-.418.862-.7 1.357-.916.517-.225 1.098-.299 1.631-.493.609-.221 1.148.324 1.782.072-.097-.149-.247-.294-.29-.466a1.432 1.432 0 0 1 0-.658c.046-.193.169-.38.296-.538.135-.17.298-.328.479-.447.508-.336 1.049-.598 1.748-.486-.097-.405.124-.775-.178-1.074-.234-.23-.325-.55-.685-.719-.563-.265-1.03-.726-1.582-1.02-.527-.281-.863-.68-1.093-1.205-.113-.258-.219-.524-.37-.76-.455-.715-.61-1.525-.8-2.328-.04-.164-.12-.319-.227-.596.903.548 1.834.653 2.676 1.022.42.184.946.135 1.423.188.506.055 1.018.124 1.51.207.415.07.839.378.98.934.272 1.077.873 1.973 1.742 2.685.378.31.779.435 1.248.238.01-.004 0-.052 0-.08.127-.024.32.083.335-.165M141.848 55.54c.487.357.657.834.605 1.41-.022.246-.066.518.014.737.08.223-.314.346-.061.548-.096.097-.19.277-.29.28-.773.023-1.55.021-2.324.007-.209-.004-.344-.154-.346-.372-.005-.744-.014-1.487.006-2.23.006-.226.152-.385.42-.383.665.006 1.33.002 1.976.002M132.599 55.552h2.838c0 .856.006 1.702-.003 2.547-.003.283-.156.421-.46.426-.637.01-1.274.01-1.91 0-.333-.006-.46-.15-.463-.508-.007-.798-.002-1.597-.002-2.465M187.242 60.78c-.7-.615-1.266-1.194-1.557-2-.069-.19-.231-.345-.344-.52-.244-.378-.318-.744-.113-1.196.498-1.1.9-2.237 1.138-3.428.18-.897.456-1.775.495-2.697.291-.417.087-.928.264-1.558.097.678.13 1.18.246 1.664.164.68.342 1.37.424 2.053.117.97.616 1.814.755 2.77.064.44.305.867.52 1.272.155.294.13.5-.012.803-.37.783-.733 1.556-1.366 2.176-.164.16-.266.386-.45.661M135.27 37.579c.098-.295-.124-.668.136-1.041.282-.406.672-.667 1.162-.589.455.072.832.423.865.877.034.466.033.938 0 1.403-.03.426-.545.995-.966 1.024a1.345 1.345 0 0 1-.811-.214c-.19-.133-.308-.417-.372-.657-.062-.232-.014-.492-.014-.803" fill="#FFF"/><path d="M161.619 36.04c.897.925 1.996 1.506 3.17 2.032-.1-.149-.274-.293-.284-.448-.017-.252-.028-.498.12-.776.167-.316.434-.324.662-.436.664-.327 1.33-.081 1.714.528.252.4.16.754-.037 1.1-.106.185-.306.317-.469.48.207.167.385.125.56-.056.21-.22.443-.421.645-.65.358-.404.37-.802.14-1.307-.063-.14-.108-.173-.239-.24-.358-.184-.714-.323-1.121-.319-.417.005-.835-.003-1.252.002-1.028.011-1.915-.451-2.824-.836-.094-.04-.216-.143-.228-.23-.04-.29-.213-.404-.47-.467-.033-.009-.07-.16-.041-.21.028-.051.18-.1.202-.078.583.593 1.332.467 2.052.499.396.017.789.102 1.183.16.394.057.784-.062 1.196.138.305.147.723.108 1.09.167.952.154 1.48.693 1.776 1.545.084.241.179.48.274.733l-.608.517v.49c-.068.02-.143.062-.214.058-.34-.021-.431.303-.651.446-.573.37-1.102.636-1.886.443-.807-.198-1.494-.592-2.199-.945-.782-.392-1.337-1.115-1.942-1.743-.151-.157-.215-.396-.32-.597M191.191 24.943c0 .214.056.401-.01.465-.256.247-.319.619-.534.856-.581.64-1.152 1.319-1.949 1.706-.459.223-.96.375-1.456.502-1.101.281-2.222.377-3.362.356-.363-.007-.674-.141-1.014-.187-.21-.028-.326-.159-.348-.379-.036-.35.31-.933.612-1.149.55-.393 1.21-.454 1.828-.614.835-.217 1.697-.324 2.54-.516a31.968 31.968 0 0 0 2.628-.697c.177-.056.346-.1.527-.134.148-.028.287-.109.538-.21M163.643 30.215c-.63-.654-1.26-.992-2.085-1.103-.673-.09-1.397-.132-1.996-.61-.396-.316-.906-.835-1.085-1.374-.17-.511-.347-1.02-.526-1.548l.287-.224c.03.026.077.087.14.115.588.258 1.17.53 1.771.757.338.127.706.18 1.062.257.357.079.723.129 1.075.227.22.061.448.156.623.297.156.125.246.334.361.508.386.583.753 1.172.89 1.875.053.27.025.46-.17.579-.02.012-.064-.01-.08.004-.08.064-.153.136-.267.24" fill="#57697D"/></g></svg>