<svg xmlns="http://www.w3.org/2000/svg" width="40" height="40" viewBox="0 0 40 40">
    <g fill="none" fill-rule="evenodd">
        <circle cx="20" cy="20" r="20" fill="#6ED0CE"/>
        <g fill="#FFF" fill-rule="nonzero" stroke="#FFF" stroke-width=".3">
            <path d="M26.473 27.197H13.57a.403.403 0 0 1-.401-.4v-8.903a.403.403 0 0 1 .803 0v8.505h12.099V14.325h-8.559a.403.403 0 0 1-.402-.401c0-.221.181-.401.402-.401h8.96c.222 0 .402.18.402.4V26.8a.4.4 0 0 1-.401.397zM15.057 15.183H12.55a.403.403 0 0 1-.402-.401c0-.22.18-.401.402-.401h2.507a.4.4 0 1 1 0 .802z"/>
            <path d="M13.805 16.434a.403.403 0 0 1-.402-.401v-2.502a.403.403 0 0 1 .804 0v2.502c0 .22-.18.401-.402.401zM16.44 24.803a.403.403 0 0 1-.402-.4V21.9a.403.403 0 0 1 .803 0v2.502c0 .22-.18.401-.402.401zm3.583 0a.403.403 0 0 1-.401-.4V20.11a.403.403 0 0 1 .803 0v4.291c0 .22-.18.401-.402.401zm3.58 0a.403.403 0 0 1-.401-.4v-7.155a.403.403 0 0 1 .803 0v7.154a.4.4 0 0 1-.401.401z"/>
        </g>
    </g>
</svg>
