<svg xmlns="http://www.w3.org/2000/svg" width="40" height="40" viewBox="0 0 40 40">
    <g fill="none" fill-rule="evenodd">
        <circle cx="20" cy="20" r="20" fill="#E9A955"/>
        <path fill="#FFF" fill-rule="nonzero" stroke="#FFF" stroke-width=".3" d="M25.925 19.07a.43.43 0 0 0-.43.431v4.064a.43.43 0 0 0 .127.303v.001a.43.43 0 0 0 .303.127h1.176c.116 0 .223-.05.302-.13v.002l.002-.001a.43.43 0 0 0 .126-.302V19.5c0-.109-.042-.21-.11-.287l-.017-.016a.428.428 0 0 0-.303-.128h-1.176zm-4.6 6.202a.694.694 0 0 0-.55-.081.698.698 0 0 0-.424.325h-.001a.695.695 0 0 0-.092.33v.034a.695.695 0 0 0 1.29.355.706.706 0 0 0-.223-.962v-.001zm.41-.757a1.555 1.555 0 0 1 .57 2.13v.001a1.553 1.553 0 0 1-2.127.57l-.01-.005a1.559 1.559 0 0 1-.71-.914h-2.764a.696.696 0 0 1-.049-.002c-.96-.029-2.311-.31-3.292-.941-.79-.507-1.353-1.235-1.353-2.232v-3.62a1.296 1.296 0 0 1 1.293-1.295h.183a6.787 6.787 0 0 1 1.965-4.214A6.773 6.773 0 0 1 20.248 12c1.877 0 3.578.762 4.808 1.993a6.792 6.792 0 0 1 1.964 4.214h.08a1.29 1.29 0 0 1 .94.41c.22.235.354.547.354.884v4.064c0 .352-.147.676-.382.91l.001.002c-.234.235-.559.382-.912.382h-1.176c-.352 0-.676-.147-.912-.382v.001a1.294 1.294 0 0 1-.38-.913V19.5a1.296 1.296 0 0 1 1.292-1.294h.233a5.943 5.943 0 0 0-5.91-5.344c-1.639 0-3.123.665-4.197 1.74a5.928 5.928 0 0 0-1.709 3.604h.126a1.287 1.287 0 0 1 .94.41c.219.234.353.547.353.884v3.668a.431.431 0 1 1-.86 0v-3.668c0-.109-.044-.21-.112-.287l-.018-.016a.428.428 0 0 0-.303-.128h-1.175a.43.43 0 0 0-.43.431v3.621c0 .654.398 1.149.955 1.507.84.54 2.013.782 2.85.806l.026-.001h2.765c.034-.119.083-.235.148-.348v-.001a1.556 1.556 0 0 1 2.127-.57h.002z"/>
    </g>
</svg>
