<?xml version="1.0" encoding="UTF-8"?>
<svg width="280px" height="100px" viewBox="0 0 280 100" version="1.1" xmlns="http://www.w3.org/2000/svg" xmlns:xlink="http://www.w3.org/1999/xlink">
    <!-- Generator: Sketch 42 (36781) - http://www.bohemiancoding.com/sketch -->
    <title>Co. logo/dazujiguang</title>
    <desc>Created with Sketch.</desc>
    <defs></defs>
    <g id="Symbols" stroke="none" stroke-width="1" fill="none" fill-rule="evenodd">
        <g id="Co.-logo/dazujiguang" fill="#5A6978">
            <g id="Page-1" transform="translate(75.000000, 25.000000)">
                <path d="M81.9334909,30.745578 C81.9334909,30.3348158 81.9606234,30.0227922 81.9206325,29.7198521 C81.9035272,29.5913857 81.7508775,29.3855327 81.6500154,29.3793984 C81.0946252,29.3460136 80.5360499,29.3633548 79.9127105,29.3633548 C79.9127105,29.7018031 79.9299338,29.9531915 79.9088176,30.2013947 C79.8751969,30.5956416 80.0131007,30.7756597 80.4328285,30.7517123 C80.8977377,30.7250517 81.3652423,30.745578 81.9334909,30.745578 L81.9334909,30.745578 Z M79.8646978,33.0421661 C79.9273385,33.573255 79.9804238,34.0230644 80.033627,34.4729918 C80.5901969,34.4371298 81.2102332,34.5340989 81.6775018,34.3111407 C81.9219301,34.194471 81.8979828,33.515451 82.0063947,33.0421661 L79.8646978,33.0421661 Z M83.0584274,37.2134909 C82.8831279,38.1385907 82.9062495,38.170088 83.7498339,38.1723294 C84.3788358,38.1742169 85.0085454,38.1580554 85.6363675,38.1868394 C85.7892532,38.1939174 86.0614038,38.3411407 86.0649428,38.4320935 C86.0980917,39.2866488 86.0845254,40.1430917 86.0845254,41.0379918 L85.352892,41.0379918 C83.9376379,41.0379918 82.5220299,41.0539174 81.1073657,41.0287904 C80.6526016,41.0207686 80.5349882,41.1859229 80.5459592,41.6133185 C80.5555145,41.9826742 80.6461134,42.1516034 81.0457868,42.135324 C81.6540263,42.1105508 82.2641534,42.1294256 82.8734546,42.1294256 C83.7326107,42.1296615 84.5917668,42.1295436 85.4968122,42.1295436 C85.5096706,42.4099519 85.5270118,42.6201697 85.5276016,42.8305054 C85.5306688,43.8526924 85.5187541,44.8749973 85.5366851,45.8968303 C85.5410499,46.1525835 85.3698793,46.547892 85.8485907,46.5831642 C86.2543984,46.61301 86.6433367,46.5455327 86.829725,46.1051606 C86.8829283,45.9794074 86.9143076,45.843745 86.9498158,45.7110318 C87.4261679,43.9306688 87.9245799,42.1556143 88.3605871,40.3653421 C88.4701788,39.9150608 88.4717123,39.3931733 88.3625926,38.94301 C87.956431,37.2658684 87.4822024,35.6053603 87.0378194,33.9375381 C86.996059,33.7809955 86.9840263,33.616667 86.9493439,33.4012586 C87.9498249,33.4012586 88.8715036,33.4097523 89.7927105,33.3938267 C89.9693076,33.3907595 90.2665853,33.3321298 90.3004419,33.230206 C90.5303603,32.5377377 90.704598,31.8268666 90.8966488,31.1218938 C90.8368394,31.059961 90.776912,30.9981461 90.7171025,30.9362132 C90.4152241,31.0678648 89.9812223,31.1162314 89.8358866,31.3467396 C89.3630735,32.0958321 88.7225109,32.4952695 87.8668938,32.5697069 C87.1507142,32.6319936 86.4312314,32.6585363 85.623745,32.7060771 C85.623745,33.5416397 85.6506416,34.3438176 85.6171388,35.1434002 C85.5740808,36.1693621 85.0196343,36.8181824 84.0217486,37.0604873 C83.7037087,37.1378739 83.3735181,37.1648884 83.0584274,37.2134909 L83.0584274,37.2134909 Z M76.2068848,49.9001697 C76.0193167,48.880578 75.8318666,47.8611044 75.6451243,46.8458775 C76.5290535,46.5385726 76.6263766,46.4104601 76.6296797,45.4894891 C76.6349882,44.0377831 76.6310953,42.5859592 76.6310953,41.1011044 C76.3712132,41.0613494 76.1646525,41.0298521 75.8722114,40.9852604 C75.8722114,40.1631461 75.855578,39.3245163 75.8925018,38.4882459 C75.8973385,38.3781824 76.1725563,38.2001697 76.3303966,38.1909682 C76.957275,38.1547523 77.5876924,38.1610045 78.2162223,38.1755145 C78.5683548,38.1837722 78.6512858,38.0108321 78.6391352,37.7031733 C78.6279283,37.4158049 78.6503421,37.1425926 78.2258956,37.1595799 C77.7549701,37.1784546 77.2801515,37.1323294 76.8117033,37.1711407 C76.303382,37.213373 76.1851788,37.0031552 76.1935544,36.5288085 C76.2197432,35.035578 76.2042895,33.5416397 76.2016942,32.0479374 C76.2012223,31.8371298 76.1828194,31.6263221 76.1723203,31.4076107 C75.9488902,31.3746978 75.7770118,31.3492169 75.5605417,31.3173657 C75.4002241,30.6567486 75.2368394,29.983745 75.0735726,29.3107414 C75.0275653,29.315578 74.9815581,29.3202967 74.9356688,29.3251334 L74.9356688,32.1513947 C73.8493076,32.0453421 72.8280644,32.0415672 71.8554238,31.8226198 C70.9316216,31.6146434 70.4470118,30.8038539 70.2594437,29.9356143 C69.9829283,28.6559047 69.8344074,27.3487087 69.6200608,25.9818212 C70.8752332,25.9818212 72.0877015,25.9735635 73.2996978,25.997157 C73.4007958,25.9991624 73.5579283,26.2038358 73.5858866,26.3361951 C73.6996071,26.8727105 73.7636633,27.4194891 73.8635817,27.9591897 C73.9972387,28.6812677 74.3527922,28.5999882 75.0035,28.5446615 C76.4276016,28.4235091 76.2952423,27.3018757 76.5594891,26.4720935 C76.7496525,25.8756506 76.9874746,25.6633094 77.610814,25.6979918 C78.6076379,25.7534365 79.6096525,25.7128557 80.6869301,25.7128557 C80.6160318,26.0536633 80.5590535,26.3282913 80.4862677,26.6780644 L85.6435635,26.6780644 L85.6435635,29.4945345 C86.3323748,29.5945708 86.5732641,29.2160136 86.6882822,28.7253875 C86.8758503,27.9234456 87.0515036,27.1177287 87.1953058,26.3070572 C87.2725744,25.870696 87.4416216,25.6845436 87.9200971,25.7012949 C88.9963131,25.7390445 90.0747704,25.7130917 91.2313221,25.7130917 C91.0745436,26.4154691 90.9327468,27.0504873 90.7673566,27.791676 C91.4540445,27.791676 92.0555599,27.7912042 92.6568394,27.791676 C93.4232731,27.7923838 94.1898249,27.7981642 94.9563766,27.7926198 C95.2556597,27.7903784 95.4323748,27.8626924 95.4250608,28.2207232 C95.4067759,29.1225835 95.4189265,30.0252695 95.2970662,30.8622477 C95.1168122,31.0727015 94.835814,31.2564946 94.7716397,31.4978557 C94.052157,34.2076833 93.3619301,36.9252967 92.6793711,39.6446797 C92.6260499,39.8571388 92.6449247,40.1117123 92.7056779,40.3252332 C93.1774292,41.9842078 93.6649882,43.6386996 94.1536089,45.2928376 C94.4508866,46.2998067 94.4556053,46.2982731 95.4355599,46.6911044 L95.4355599,49.9001697 L93.3121479,49.9001697 C93.2456143,49.8652514 93.1815581,49.8065036 93.1118394,49.7989537 C91.9785272,49.6741443 91.2781552,49.0175381 90.8679828,47.9945254 C90.8198521,47.8746706 90.747774,47.7644891 90.6715672,47.6210408 C89.9892441,49.3257868 89.9181098,49.3854782 88.0924474,49.8283276 C88.0590626,49.8363494 88.0331098,49.8755145 88.003618,49.9001697 L86.234108,49.9001697 C86.0414673,49.0637813 85.8489446,48.2275109 85.656422,47.3912405 C85.3622114,49.1237087 85.0663494,49.4402151 83.3232641,49.8216034 C83.2680554,49.8337541 83.218863,49.8733911 83.1669574,49.9001697 L81.5154147,49.9001697 C81.3571025,48.9479374 81.1989083,47.995823 81.041304,47.0471298 C82.0810681,46.8353784 82.2343076,46.4713312 81.929598,45.0362586 L80.5548067,45.0362586 C80.5548067,45.8852695 80.564598,46.6860318 80.5524474,47.4865581 C80.5367577,48.5299791 79.9199065,49.3542169 78.9248521,49.6926652 C78.7261951,49.7603784 78.5284819,49.8309229 78.3302967,49.9001697 L76.2068848,49.9001697 Z" id="Fill-4"></path>
                <path d="M1.29764065,49.9001815 C1.10936479,48.8249093 0.921088929,47.749755 0.71853902,46.5934392 C1.46562613,46.5934392 2.14995463,46.5745644 2.83274955,46.5983938 C3.59293103,46.6249365 4.08084392,46.3058348 4.39628857,45.6066425 C6.3642196,41.2419691 8.35078947,36.8857895 10.3287477,32.5257169 C10.3831307,32.4057441 10.4102632,32.2733848 10.4693648,32.0854628 L0.704618875,32.0854628 C0.704618875,31.3627949 0.705090744,30.6862523 0.704500907,30.0098276 C0.703557169,28.7801361 0.703321234,28.7803721 1.95401089,28.7803721 C4.88313975,28.78049 7.81238657,28.7686933 10.7413975,28.7909891 C11.2736661,28.795 11.4863612,28.6524955 11.447078,28.097931 C11.4042559,27.4915789 11.4529764,26.8793285 11.432804,26.2704991 C11.4207713,25.9066878 11.5723593,25.7876588 11.9178857,25.79049 C13.0580399,25.8002813 14.1983122,25.8015789 15.3383485,25.7876588 C15.7077042,25.783176 15.8111615,25.9418421 15.7980672,26.2863067 C15.7771869,26.8359165 15.791461,27.3869419 15.7921688,27.9373775 C15.7933485,28.7813158 15.7938203,28.7811978 16.6127495,28.7810799 C19.6205626,28.7809619 22.6283757,28.7808439 25.6361887,28.780726 L26.3688838,28.780726 L26.3688838,32.0625771 L25.657069,32.0625771 C22.4527223,32.0625771 19.2482577,32.0721325 16.044029,32.0518421 C15.5830127,32.0488929 15.3320962,32.182078 15.1517241,32.6123049 C14.7814247,33.4959982 14.3575681,34.3571597 13.9115336,35.3233122 C14.1641016,35.3486751 14.3441198,35.3814701 14.5243739,35.3827677 C15.4090109,35.3886661 16.2942377,35.406833 17.177931,35.377931 C17.5883394,35.3644828 17.8142468,35.5131216 18.008657,35.8679673 C19.8193376,39.1741198 21.6554991,42.4663521 23.4583938,45.7767514 C23.7727768,46.3538475 24.2045372,46.5991016 24.8287024,46.5943829 C25.3727677,46.5900181 25.916833,46.5934392 26.5426497,46.5934392 L26.5426497,49.9001815 L23.1215971,49.9001815 C22.952078,49.8603085 22.7846824,49.8032123 22.612804,49.7831579 C21.2916878,49.6289746 20.3055989,48.9911252 19.6558348,47.8155808 C18.2609891,45.2921416 16.8509256,42.777196 15.4440472,40.2604809 C14.7758802,39.0652359 14.1005172,37.8740018 13.3823321,36.5988929 C13.2511525,36.8304628 13.1557169,36.9729673 13.0852904,37.1270327 C11.8368421,39.8544374 10.5915789,42.5832577 9.34560799,45.3117241 C9.10141561,45.8464701 8.82997278,46.370363 8.61786751,46.9173775 C8.01422868,48.4738385 7.05999093,49.6248457 5.30852995,49.9001815 L1.29764065,49.9001815 Z" id="Fill-6"></path>
                <path d="M104.872958,49.9001815 C104.637142,48.832931 104.401207,47.7657985 104.142033,46.5928494 C104.826715,46.5928494 105.427641,46.5956806 106.028566,46.5922595 C107.504456,46.5840018 107.808693,46.3671779 108.331525,45.0020599 C108.969964,43.3356534 109.618548,41.6730218 110.260408,40.0077949 C110.343339,39.7925045 110.41294,39.5721416 110.514156,39.2807623 L104.218711,39.2807623 L104.218711,35.9960799 L104.900681,35.9960799 C107.986824,35.9963158 111.073321,35.9800363 114.159111,36.0110617 C114.765817,36.0169601 114.915989,35.8362341 114.910327,35.2472232 C114.881425,32.2792831 114.90667,29.3107532 114.887559,26.3426951 C114.884492,25.8618603 115.014256,25.68951 115.51314,25.7026044 C116.727495,25.7343376 117.943385,25.7129855 119.249637,25.7129855 L119.249637,26.4544102 C119.249637,29.4030036 119.26049,32.3515971 119.239492,35.3000726 C119.235835,35.8179492 119.349909,36.0143648 119.916506,36.0090563 C123.277514,35.977441 126.638875,35.9853448 130,35.9800363 L130,39.2831216 L123.964437,39.2831216 C123.94108,39.4344737 123.919138,39.5107985 123.918902,39.5870054 C123.915009,41.628902 123.904392,43.6707985 123.916071,45.7125771 C123.919846,46.3965517 124.140091,46.5864791 124.875617,46.590608 C126.583666,46.6001633 128.291951,46.5957985 130,46.5970962 L130,49.9001815 L121.978221,49.9001815 C121.927024,49.8717514 121.879011,49.8283394 121.824392,49.8168966 C119.959211,49.4281942 119.577704,48.9681216 119.574991,47.0776951 C119.571688,44.7190563 119.573221,42.3604174 119.572632,40.0017786 L119.572632,39.2585844 C118.209873,39.2585844 116.934292,39.2794646 115.660127,39.2474955 C115.205245,39.2360526 115.012486,39.4078131 114.854764,39.8142105 C114.09588,41.7708167 113.304083,43.7146824 112.524319,45.6632668 C112.356688,46.0821688 112.165935,46.4935209 112.028385,46.9220962 C111.55333,48.403412 110.768258,49.5701089 109.119782,49.9001815 L104.872958,49.9001815 Z" id="Fill-8"></path>
                <path d="M46.9509982,49.9001815 C46.7931579,48.8382396 46.6353176,47.7764156 46.4595463,46.594147 C46.8711343,46.594147 47.2322323,46.5961525 47.5933303,46.5935572 C48.1017695,46.5897822 48.4707713,46.3888838 48.7582577,45.9375408 C49.3805354,44.9606534 50.0543648,44.0164428 50.7047187,43.0573684 C50.8224501,42.8836025 50.9290926,42.7024047 51.1222051,42.3953358 C50.2552632,42.3953358 49.5164338,42.3956897 48.7774864,42.3950998 C48.3056171,42.3947459 47.8298548,42.426833 47.3642377,42.3725681 C47.2125318,42.354873 46.9761252,42.1156352 46.9685753,41.9679401 C46.9285844,41.1834574 46.9638566,40.3956715 46.9422686,39.6098911 C46.9315336,39.2241379 47.1150907,39.1546552 47.4445735,39.1574864 C48.7617967,39.1683394 50.07902,39.1629129 51.3963612,39.162441 C52.1555989,39.1620871 52.1560708,39.1610254 52.1572505,38.3772505 C52.1580762,37.8463975 52.1754174,37.3146007 52.147931,36.7851633 C52.1383757,36.5998367 52.0357441,36.277078 51.9432577,36.2650454 C51.6726407,36.2298911 51.2208258,36.2228131 51.1311706,36.3755808 C50.3850272,37.6466788 49.1783394,37.6846642 47.93402,37.6777042 C46.8451815,37.6714519 46.8436479,37.6762886 46.605118,36.602196 C46.4903358,36.085735 46.3805082,35.5679764 46.2738657,35.0497459 C46.2631307,34.9978403 46.2896733,34.9382668 46.3050091,34.8443648 C46.4976497,34.8337477 46.7158893,34.8775136 46.8767967,34.8007169 C47.1767877,34.6575045 47.5940381,34.504029 47.6951361,34.2488657 C47.9734211,33.5468421 48.1133303,32.7899637 48.3302722,31.9704446 L46.5279673,31.9704446 C46.3177495,31.0199819 46.1199183,30.1254356 45.9255082,29.246461 C45.9706897,29.1967967 45.9971143,29.1434755 46.0220054,29.1441833 C47.0542196,29.1735572 47.4035209,28.5210799 47.5451996,27.6428131 C47.5917967,27.3536751 47.6822777,27.0716152 47.7538838,26.7866062 C48.0035027,25.7922595 48.0036207,25.7921416 49.0538838,25.7920236 C50.1102813,25.7917877 51.1666788,25.7919056 52.2965699,25.7919056 C52.1822595,26.2452541 52.0898911,26.6117786 51.9808893,27.0441289 C52.2903176,27.0595826 52.5388748,27.0823503 52.7875499,27.0827042 C55.2647459,27.0856534 57.7421779,27.0993376 60.2191379,27.0743285 C60.7842015,27.0685481 61.0370054,27.180735 60.9891107,27.8165789 C60.9276497,28.6336207 60.9742468,29.4588022 60.9742468,30.3243285 C60.7037477,30.3395463 60.4919964,30.3616062 60.280127,30.3617241 C57.4687296,30.3632577 54.6570962,30.3748185 51.8458167,30.3499274 C51.2710799,30.3447368 50.8087659,30.3927495 50.5727132,31.0072414 C50.5002813,31.1957532 50.320971,31.3433303 50.1206624,31.5988475 L52.5109165,31.5988475 C52.3856352,32.1115336 52.2826497,32.532441 52.1607895,33.0312069 L60.5100454,33.0312069 C60.5100454,34.0542196 60.5236116,35.0090472 60.4881034,35.9621053 C60.4848004,36.053294 60.1771416,36.2028766 60.0078584,36.2070054 C59.0254265,36.2307169 58.0416969,36.2367332 57.059265,36.2114882 C56.622078,36.2002813 56.4609347,36.3443194 56.484882,36.7859891 C56.5156715,37.3543557 56.5200363,37.9277949 56.4829946,38.4954537 C56.4499637,39 56.6011978,39.1937024 57.1377132,39.1729401 C58.1781851,39.1329492 59.2212523,39.1614973 60.2632577,39.1614973 C60.4740653,39.1616152 60.684755,39.1614973 60.966461,39.1614973 C60.966461,40.1897005 60.980971,41.1471234 60.9454628,42.1026588 C60.9416878,42.2049365 60.6493648,42.3759891 60.4876316,42.379882 C59.4265154,42.4058348 58.3613884,42.4446461 57.3039292,42.3781125 C56.5778403,42.3325771 56.1051452,42.5502269 55.8165971,43.2135572 C55.7178584,43.4406443 55.5614338,43.6426044 55.3446098,43.9985118 C55.9732577,43.9985118 56.4748548,44.0407441 56.9661887,43.9875408 C57.5383303,43.92549 57.889755,44.1366515 58.1330036,44.640608 C58.2769238,44.9389474 58.5182849,45.1903358 58.662441,45.4886751 C59.0532668,46.2973412 59.7082214,46.6183303 60.5716243,46.5986298 C60.6494828,46.5968603 60.7284029,46.6077132 60.8051996,46.6216334 C60.8405898,46.6281216 60.8720871,46.6560799 60.9891107,46.7200181 L60.9891107,49.9001815 L58.8656987,49.9001815 C58.6783666,49.8580672 58.492804,49.8032123 58.3033485,49.7758439 C56.8687477,49.5686933 55.7041742,48.9648185 55.0275136,47.6070145 C54.7519419,47.0539837 54.4414519,46.5185299 54.0925045,45.8749002 C53.487922,46.8319691 52.9319419,47.6799183 52.4101724,48.5483938 C52.0233575,49.1921416 51.4829492,49.5929946 50.7570962,49.7567332 C50.5498276,49.8035662 50.3430309,49.8522868 50.1361162,49.9001815 L46.9509982,49.9001815 Z" id="Fill-10"></path>
                <path d="M35.7441016,49.9001815 C35.6665971,49.7946007 35.5414338,49.6982214 35.51902,49.5820236 C35.3341652,48.6218875 35.1684211,47.6582123 34.9850998,46.6295372 C35.8805898,46.4655626 35.8958076,45.8353811 35.8935662,45.1418512 C35.8789383,40.621225 35.8858984,36.1004809 35.8858984,31.5799728 L35.8858984,30.9160526 C35.6402904,30.8627314 35.4347913,30.8181397 35.1574501,30.7578584 C35.1574501,29.8058621 35.143412,28.8471416 35.1782123,27.8901906 C35.1818693,27.7889746 35.4697096,27.6216969 35.630735,27.6155626 C36.3917423,27.5864247 37.1544011,27.6024682 37.9904356,27.6024682 L37.9904356,25.7127495 C39.0583938,25.7127495 40.0532123,25.7126316 41.0480309,25.7127495 C42.3321053,25.7128675 42.3527495,25.7129855 42.3453176,27.0050817 C42.3427223,27.4793103 42.5044555,27.6284211 42.961225,27.6062432 C43.5691107,27.5766334 44.1802995,27.6188657 44.788539,27.5944465 C45.1863249,27.5784029 45.3615064,27.700735 45.348294,28.1227042 C45.3255263,28.849029 45.3271779,29.5772414 45.3491198,30.3038022 C45.3618603,30.7258893 45.1752359,30.842441 44.7841742,30.8383122 C43.4281397,30.8236842 42.0711615,30.856833 40.7160708,30.8192015 C40.1612704,30.8037477 39.9941107,30.9966243 40.0303267,31.5245281 C40.0693739,32.091951 40.0578131,32.6645644 40.0389383,33.2337568 C40.0261978,33.6172686 40.1718875,33.7445554 40.5552813,33.7400726 C41.989882,33.7230853 43.4250726,33.7502178 44.8595554,33.7261525 C45.3199819,33.7183666 45.4714519,33.8627586 45.4699183,34.3274319 C45.4569419,38.6121234 45.4643739,42.8970508 45.4622505,47.1817423 C45.4621325,47.4167332 45.4346461,47.652314 45.4106987,47.886833 C45.3039383,48.9283666 44.7079673,49.5695191 43.6828312,49.7585027 C43.4729673,49.797078 43.2662886,49.8525227 43.0580762,49.9001815 L40.9346642,49.9001815 C40.7545281,48.8250272 40.574392,47.749755 40.3947278,46.6774319 C41.538657,46.4252178 41.5397187,46.4252178 41.5401906,45.2214791 C41.5410163,42.7249365 41.5406624,40.2283938 41.5407804,37.7319691 L41.5407804,37.0261706 C41.3101543,37.0016334 41.1567967,36.9753267 41.0028494,36.97049 C40.039882,36.9401724 40.0395281,36.941588 40.0394102,37.9036116 C40.0390563,40.5180036 40.0417695,43.1325136 40.0369328,45.7469056 C40.0357532,46.3947822 40.0563975,47.0476134 39.9862069,47.6894737 C39.8760254,48.6979764 39.1021597,49.5219782 38.1393103,49.7528403 C37.93098,49.8028584 37.7221779,49.8511071 37.5136116,49.9001815 L35.7441016,49.9001815 Z" id="Fill-12"></path>
                <path d="M8.93055172,9.21308348 C8.90837387,9.14336479 8.88607804,9.0736461 8.86390018,9.0039274 C7.690951,9.0039274 6.51741198,9.02339201 5.34528857,8.99213067 C4.98914519,8.98269328 4.91647731,9.1682559 4.83460799,9.42153176 C4.46100544,10.5777296 4.11394555,11.7440726 3.69433575,12.8834011 C3.48093285,13.4629746 3.55678584,13.8738548 3.99432668,14.1565045 C3.99432668,13.9228113 3.93050635,13.6329655 4.00517967,13.3848802 C4.36663158,12.1839728 4.77444465,10.9972214 5.14427223,9.79867332 C5.23628675,9.50068784 5.37466243,9.4044265 5.68798367,9.41846461 C6.43164973,9.45184936 7.17826497,9.46576951 7.9216951,9.43698548 C8.26037931,9.42400907 8.59434483,9.29141379 8.93055172,9.21308348 M10.0649256,14.4045898 C9.94707623,14.4765499 9.82993466,14.6096171 9.71125953,14.6110327 C8.49466243,14.6264864 7.27794737,14.6204701 5.87555172,14.6204701 C6.37419964,14.2725844 6.75393648,14.0318131 7.10406352,13.7536461 C7.29245735,13.6038276 7.50232123,13.4153158 7.57817423,13.2002613 C7.98185844,12.0565681 8.34614156,10.8988367 8.75147731,9.66230309 C8.10619601,9.69545191 7.51529764,9.73284755 6.9239274,9.75372777 C6.4447441,9.77083303 5.84688566,9.59730309 5.51929038,9.82344646 C5.20856443,10.0379111 5.17683122,10.6606606 5.02937205,11.1061053 C4.79532486,11.8127296 4.55549728,12.5178203 4.33961706,13.2301071 C4.08575136,14.068147 4.95328312,14.5265681 5.04376407,15.2842722 L0.301477314,15.2842722 L0.300415608,15.1147532 L4.53544283,15.1147532 C4.5590363,15.0389002 4.58274773,14.9629292 4.6063412,14.8869583 C4.4055608,14.7981289 4.20596007,14.6354519 4.00388203,14.6322668 C2.66955354,14.6117405 1.33463521,14.6254247 -4.7186929e-05,14.627902 L-4.7186929e-05,14.5099347 C0.879163339,14.0729837 1.70717604,13.6360327 1.95821053,12.5232468 C2.18836479,11.5029474 2.58284755,10.5196897 2.79684029,9.40371869 C2.35163158,9.60343739 1.90642287,9.80303811 1.46121416,10.0028748 C1.4332559,9.95297459 1.40529764,9.90331034 1.37745735,9.85341016 C1.93827405,9.56934483 2.49909074,9.28516152 3.19179492,8.93420871 C2.34585118,8.85292922 1.80898185,9.20789292 1.26515245,9.60921779 C1.40753902,9.02516152 2.1424755,8.32266606 2.95220327,8.07068784 C3.3243902,7.95496189 3.48777495,7.76255717 3.59524319,7.4074755 C3.89641379,6.41253902 4.20395463,5.41713067 4.57319238,4.4463775 C4.77255717,3.92260254 4.73976225,3.51821053 4.33654991,3.13033394 C4.20230309,3.00127768 4.11217604,2.82633212 3.96495281,2.62083303 L8.1217677,2.62083303 C8.09770236,2.69125953 8.09605082,2.74540653 8.07316515,2.75684936 C6.75063339,3.41687659 6.28206715,4.63406352 5.94939927,5.95635935 C5.79321053,6.57686751 5.56753902,7.17991652 5.37324682,7.79075136 C5.4343539,7.83451724 5.49546098,7.87840109 5.55656806,7.92216697 C5.67076044,7.78178584 5.8352069,7.65862795 5.89065154,7.49795644 C6.18521597,6.64505263 6.52625953,5.79828312 6.70946279,4.91966243 C6.91979855,3.91198548 7.64258439,3.44483485 8.49808348,3.04870054 C8.35664065,3.19026134 8.23631397,3.36709437 8.06986207,3.46689474 C7.47884574,3.82079673 7.16635027,4.33572414 6.98727586,4.99551543 C6.73093285,5.94007985 6.39885481,6.86411797 6.07432668,7.8736824 C7.1005245,8.07811978 8.08507985,8.07210345 9.06727586,7.91638657 C9.20812886,7.89409074 9.37469873,7.68174955 9.42884574,7.52296552 C9.83488929,6.33420871 10.2266588,5.14002541 10.5918857,3.93817423 C10.6426116,3.77089655 10.5638094,3.530951 10.4742722,3.36213975 C10.3489909,3.12596915 10.157176,2.92518875 9.937049,2.63416334 L14.1254791,2.63416334 C13.9745989,2.7628657 13.8898984,2.86455354 13.7818403,2.92259347 C12.8009419,3.44990744 12.3428748,4.30446279 12.0309691,5.35342831 C11.2924936,7.83593285 10.4835917,10.2989728 9.63375499,12.7458512 C9.37682214,13.4859782 9.50646824,13.9802613 10.1038548,14.411314 C10.1037368,14.4109601 10.0649256,14.4045898 10.0649256,14.4045898" id="Fill-18"></path>
                <path d="M70.0725953,49.9001815 C69.8540018,48.8318693 69.6355263,47.7637931 69.4058439,46.6405082 C70.3455717,46.6100726 70.4693194,45.9843739 70.5521325,45.3052359 C70.741706,43.7500726 70.9410708,42.1960889 71.1575408,40.6447005 C71.1781851,40.4961797 71.3429855,40.2513975 71.445853,40.2488022 C72.5773956,40.2201361 73.71,40.2307532 74.9050091,40.2307532 C74.7693466,41.3496733 74.6486661,42.3953358 74.5144192,43.4391107 C74.3369964,44.8182668 74.1495463,46.1960073 73.9656352,47.5742196 C73.7944646,48.8577042 73.085245,49.5773049 71.8147368,49.768294 C71.6248094,49.7968421 71.4396007,49.8554719 71.2522686,49.9001815 L70.0725953,49.9001815 Z" id="Fill-22"></path>
                <path d="M130,5.19056261 C129.552786,7.14186025 128.189201,8.236951 126.441044,8.94404719 C126.105426,9.07970962 126.048448,9.25666062 126.072985,9.5607804 C126.231652,11.5293013 126.739029,13.3438748 128.303984,14.7017967 C128.360372,14.7506352 128.397532,14.8214156 128.424664,14.8569238 C126.891325,15.4618603 125.369192,16.0624319 123.84706,16.6630036 C125.077577,15.7656261 126.492949,15.2864428 127.984174,14.8106806 C126.521851,13.4797731 126.048566,11.7632305 125.810744,9.93898367 C125.684991,8.97318512 125.669891,8.98002722 126.558775,8.61892922 C127.89735,8.07533575 129.007069,7.25333938 129.506425,5.84917423 C129.714401,5.26488203 129.71157,4.60568058 129.791434,4.06727768 C129.814555,4.11328494 129.907278,4.29802178 130,4.48275862 L130,5.19056261 Z" id="Fill-30"></path>
                <path d="M89.382951,4.86045463 C89.3213721,4.83591742 89.2595572,4.81138022 89.1979782,4.78684301 C88.3928512,5.94079946 87.584657,7.09251452 86.7893212,8.25307713 C86.7258548,8.34568149 86.7003739,8.52451996 86.7459093,8.62160708 C87.0345753,9.23786842 87.3481325,9.84256897 87.6753739,10.4944564 C87.7918076,10.4045653 87.992706,10.2920245 87.9792577,10.2529773 C87.7554737,9.60097187 87.5049111,8.95804991 87.2438494,8.26971053 C87.8479601,7.39875771 88.5048022,6.46941107 89.1379328,5.52425681 C89.2655735,5.33373956 89.303559,5.08329492 89.382951,4.86045463 M87.573922,8.2820971 C87.8328603,8.84598094 88.0746933,9.37258711 88.3166443,9.89931125 C89.1894846,9.46684301 89.7462904,8.91310436 89.4957278,7.81648004 C89.3542849,7.19785935 89.4156279,6.53299546 89.3856642,5.8890118 L89.2561361,5.86789564 C88.689775,6.68069056 88.1234138,7.49348548 87.573922,8.2820971 M84.4671343,14.3917432 C84.3018621,14.4680681 84.1375336,14.6082132 83.9711996,14.6104546 C82.6937314,14.6282677 81.4156733,14.6079773 80.138323,14.6303911 C79.9396661,14.6339301 79.6718802,14.7417523 79.5605191,14.8929864 C79.2716171,15.2855817 78.9301016,15.3924601 78.4537495,15.3888031 C75.682225,15.3669791 72.9103466,15.3807813 70.1385862,15.3753548 C69.9110272,15.3750009 69.6838221,15.3207359 69.4563811,15.291598 C69.4613358,15.2232949 69.4664083,15.1549918 69.4714809,15.0865708 L70.1372886,15.0865708 C72.9485681,15.0870426 75.7596116,15.0879864 78.5707731,15.0875145 C79.3869891,15.0873966 79.5829328,14.7574419 79.3382686,13.995373 C79.0967895,13.2435672 78.9500381,12.4614437 78.7616443,11.6926506 C78.8481143,11.6675236 78.9345844,11.6425145 79.0210544,11.6175054 C79.2796388,12.5807087 79.5384592,13.5440299 79.7956279,14.5015708 C81.6290762,14.1487305 83.8185499,11.499774 85.3199201,8.93941107 C84.9392396,8.77956534 84.5689401,8.62396642 84.1525154,8.44902087 C84.5534864,7.94801361 84.9566987,7.4442931 85.3937677,6.89810436 C85.6484592,7.21000998 85.8661089,7.47638022 86.0803376,7.73885753 C86.4757641,7.60508258 86.4559456,7.41609891 86.219775,7.14418421 C86.0626425,6.96345826 85.9575336,6.73755082 85.8290672,6.53169782 C85.9092849,6.47365789 85.9893848,6.41573593 86.0696025,6.35757804 C86.2306279,6.60177042 86.3917713,6.84584483 86.6198022,7.19148911 C86.9752377,6.67325862 87.2462087,6.27948367 87.515882,5.88476497 C87.9035227,5.31757804 88.2581325,4.72373049 88.6881234,4.19075408 C89.0040399,3.79910254 88.9948385,3.48353993 88.7020436,3.11465608 C88.5970526,2.98229673 88.5313448,2.81855808 88.4199837,2.61942922 L92.5973249,2.61942922 C92.4641397,2.76275953 92.4044483,2.86845826 92.3140853,2.91788657 C91.502588,3.3612078 91.2881234,4.03220599 91.405147,4.92639837 C91.5215808,5.81799546 91.5116715,6.72599002 91.5572069,7.62678857 C91.6172523,7.6440118 91.6775336,7.66123503 91.7378149,7.67834029 C91.7938494,7.50587205 91.9013176,7.33222414 91.8973067,7.16093557 C91.8786679,6.33599002 91.8587314,5.50903902 91.7819347,4.68810436 C91.7290853,4.12327677 91.8706461,3.70166152 92.3504192,3.38020054 C92.6441579,3.18343103 92.9033321,2.9351098 93.1779601,2.71002813 C93.2259728,2.76795009 93.2741034,2.82575408 93.3222341,2.88379401 C93.0773339,3.09530944 92.8449383,3.32381216 92.5847024,3.51444737 C92.2241942,3.77845826 92.0761452,4.07951089 92.1064628,4.55562704 C92.163559,5.4517069 92.1229782,6.35392105 92.1229782,7.4251824 C92.57149,7.15598094 92.8301924,7.00073593 93.1605009,6.80243285 C93.2152377,7.43391198 93.2645481,8.00381216 93.3185771,8.6262078 C92.8987314,8.66844011 92.4968167,8.6962804 92.0990309,8.75302269 C91.7638857,8.80079946 91.6105281,8.97161615 91.6318802,9.35654356 C91.7030145,10.6316525 91.7144574,11.9101824 91.7832323,13.1855272 C91.8175608,13.8242024 92.3454646,14.1122786 92.8055372,14.4304365 L92.8261815,14.4711352 C92.7109274,14.5205635 92.5957913,14.6122241 92.4801833,14.6130499 C91.0865172,14.6229592 89.6928512,14.6195381 88.2440944,14.5191479 C88.6199383,14.2632768 89.0268076,14.0412623 89.3597114,13.7378503 C89.5433866,13.5704546 89.6947387,13.2689301 89.700755,13.023912 C89.7178603,12.3430045 89.6510907,11.6599737 89.6085045,10.7937396 C88.7898113,11.5152278 88.0778784,12.1424601 87.3658276,12.7699283 L87.2518711,12.6402822 C88.0495662,11.9038122 88.8472613,11.1672241 89.6450744,10.4307541 C89.5791307,10.3616252 89.5133049,10.2924964 89.4474791,10.2233675 C88.6622886,10.8948376 87.87698,11.5664256 87.0843575,12.2443838 C86.8446479,11.5981588 86.6003376,10.9388394 86.3506007,10.26501 C84.7841125,11.6301279 84.4265535,13.2505272 85.2261361,15.3055181 L80.2561724,15.3055181 C80.2536951,15.2324964 80.2513358,15.1595926 80.2488584,15.0865708 L82.4672341,15.0865708 L84.8176152,15.0865708 C84.6732232,14.8135944 84.5644574,14.6076234 84.4556915,14.4016525 C84.1884955,13.4711261 84.4127514,12.6198739 84.8992486,11.8240662 C85.2256642,11.2900281 85.6005644,10.7855998 85.9223793,10.2489664 C86.0193485,10.0873512 86.0108548,9.86238748 86.0506098,9.66656171 C85.9615445,9.63435662 85.8724791,9.60215154 85.7834138,9.57006443 C85.2166987,10.5867069 84.6046842,11.5816434 84.1001379,12.6282495 C83.8022704,13.2458085 83.9466624,13.8862532 84.4671343,14.3917432" id="Fill-36"></path>
                <path d="M122.569096,8.48753721 C123.403243,8.25113067 124.094532,8.1138167 124.739695,7.85983303 C126.031555,7.3515118 126.956301,6.46994192 127.238715,5.05173866 C127.345004,4.51734664 127.200848,4.04406171 126.763071,3.68095826 C125.907454,2.97103085 124.935993,3.0553775 123.973025,3.32953358 C123.709604,3.4045608 123.403833,3.69110345 123.312172,3.94956987 C122.827209,5.31633938 122.403116,6.70481488 121.962036,8.08703811 C121.924877,8.20358984 121.91886,8.33005082 121.898334,8.4517931 C121.9572,8.48246461 122.016065,8.51301815 122.074931,8.54368966 C122.19337,8.36520508 122.355811,8.20182033 122.423171,8.00575862 C122.740975,7.07924319 123.03023,6.14317241 123.33435,5.21193829 C123.848216,3.63801815 124.033543,3.52606715 125.71269,3.75515971 C125.810013,3.76849002 125.912998,3.76211978 126.004305,3.79208348 C126.497998,3.9541706 126.918434,4.19623956 127.007027,4.80306352 C126.29533,4.00407078 125.388044,3.876902 124.42024,4.02294555 C124.231138,4.05149365 123.967717,4.22372595 123.910149,4.38947005 C123.459985,5.68427949 123.051465,6.99359891 122.569096,8.48753721 M119.361211,10.3699419 C118.855131,10.4863757 118.521991,10.5629365 118.188969,10.6396152 C118.171392,10.5910127 118.153815,10.5424102 118.136238,10.4938076 C118.39671,10.3915299 118.652935,10.275922 118.918951,10.1908675 C119.176002,10.1086443 119.547599,10.181902 119.475757,9.64515064 C119.048125,9.71522323 118.63229,9.78340835 118.211619,9.85230127 C118.351292,9.08445191 118.668034,8.77466969 119.358733,8.79035935 C119.741891,8.79908893 119.902209,8.64903448 120.010857,8.28675681 C120.343878,7.17857169 120.723733,6.08454265 121.077517,4.98249183 C121.334096,4.18314519 121.328434,4.18137568 120.497354,3.64780944 C121.546555,3.291902 122.460212,2.91086751 123.410085,2.67658439 C124.772254,2.3407314 126.166274,2.23680218 127.527499,2.70867151 C129.344314,3.33838113 129.815829,4.78855354 128.725575,6.36872595 C128.106955,7.26527768 127.241782,7.8610127 126.237526,8.25915245 C125.874187,8.40319056 125.502354,8.52611252 125.073189,8.6807677 C125.188915,10.8185717 125.682608,12.8375826 126.942499,14.6220744 C125.801519,15.1154138 124.67965,15.6004955 123.544922,16.0910036 C123.861074,14.0058131 124.107626,11.9050508 123.917227,9.7218294 C123.321846,9.85878947 122.772944,9.96967877 122.235249,10.120677 C122.115276,10.1544156 122.003679,10.3144973 121.943751,10.4423739 C121.844423,10.6540073 121.789686,10.8865209 121.717372,11.1107768 C121.482617,11.8388711 121.21259,12.558118 121.023724,13.2980091 C120.811855,14.1279093 121.725748,14.5418566 121.831211,15.3032178 L117.17622,15.3032178 L117.167962,15.0865118 L119.215639,15.0865118 L121.390838,15.0865118 C121.288089,14.8669746 121.250575,14.7087804 121.156555,14.5991887 C120.626882,13.9812759 120.602345,13.3449601 120.924632,12.6027096 C121.227572,11.9046969 121.425403,11.1581996 121.633969,10.4229093 C121.750875,10.0108494 121.942336,9.80275499 122.402054,9.78399819 C122.807272,9.76748276 123.215793,9.65128494 123.605085,9.52435209 C123.741809,9.47964247 123.825566,9.27249183 123.933624,9.13954265 C123.895285,9.09353539 123.856946,9.04752813 123.818724,9.0014029 C123.147844,9.10368058 122.473307,9.18708348 121.809269,9.32262795 C121.662871,9.35259165 121.490993,9.54594011 121.438615,9.70047731 C121.042245,10.8705953 120.663924,12.0470835 120.305067,13.2291162 C120.257762,13.384833 120.316864,13.5998875 120.389768,13.7586715 C120.510448,14.0213848 120.682445,14.2606225 120.871782,14.5746515 L116.926837,14.5746515 C118.774441,13.8132904 118.701301,11.9747695 119.361211,10.3699419" id="Fill-38"></path>
                <path d="M31.246078,4.99039564 C31.1824936,4.98237387 31.1189093,4.97423412 31.0553249,4.96609437 C30.4483829,6.84236479 29.8321216,8.71556806 29.2394537,10.5963212 C29.0279383,11.2675554 28.844971,11.9509401 28.7010508,12.6397514 C28.555951,13.3338711 28.7778475,13.8127005 29.2875844,14.0907495 C28.9376933,13.4193975 28.9289637,12.8804047 29.2838094,11.7805953 C29.90302,9.86150272 30.5427568,7.9491343 31.1472214,6.02544102 C31.2487913,5.70209256 31.2165862,5.3365118 31.246078,4.99039564 L31.246078,4.99039564 Z M24.2712595,14.6121652 C23.1475027,13.3168838 23.5782015,11.7135898 23.4336915,10.2335717 C23.3253975,9.12467877 23.0630381,9.08350817 24.497167,9.09589474 C24.6886279,9.09754628 24.8800889,9.09613067 25.0951434,9.09613067 C25.0549165,8.43515971 25.0138639,7.76357169 24.9729292,7.09210163 C25.0401706,7.08478766 25.107294,7.07759165 25.1744174,7.07027768 C25.2789365,7.86986025 25.3833376,8.66932486 25.4916316,9.49733757 C24.8955426,9.46336298 24.3519492,9.4322196 23.7258966,9.39659347 C23.7258966,9.69929764 23.7162232,9.96401633 23.727902,10.2276733 C23.7527931,10.7969837 23.8655699,11.3741978 23.8043448,11.9330091 C23.6726933,13.1350962 24.1458603,14.0607858 24.9611325,14.8669746 C25.0622305,14.9668929 25.2006062,15.0960672 25.3229383,15.0973648 C26.7942269,15.1132904 28.2657514,15.1076279 29.7371579,15.1076279 C29.7606334,15.0377913 29.7839909,14.9679546 29.8073485,14.898 C29.6043267,14.8055136 29.4027205,14.6369383 29.1979292,14.6329274 C27.9498348,14.6079183 26.7009147,14.6204229 25.4201434,14.5687532 C26.9730653,14.1177641 27.6577477,12.9301869 28.1114501,11.5368748 C28.4516679,10.4920381 28.8039183,9.45109437 29.1450799,8.40649365 C29.5835644,7.06414338 29.9927931,5.71164791 30.4632468,4.38074047 C30.6435009,3.87088566 30.6799528,3.4630726 30.2306152,3.09241924 C30.1010871,2.9856588 30.0153249,2.82616697 29.8613775,2.62916152 L34.4575027,2.62916152 C33.9561416,2.91122142 33.5761688,3.09808167 33.2295808,3.3337804 C33.0996987,3.42201996 32.9510599,3.64084936 32.9738276,3.7717931 C33.441922,6.45932486 33.9333739,9.14284574 34.4221125,11.8268385 C34.4286007,11.8624646 34.4586824,11.8938439 34.6243085,11.9417387 C34.6540363,11.5440708 34.7638639,11.1330726 34.7001615,10.7509764 C34.3356425,8.56280036 33.9411597,6.37946098 33.5290998,4.19966062 C33.445461,3.75740109 33.5441996,3.50424319 33.9600345,3.32693829 C34.3362323,3.16650272 34.6874211,2.94743739 35.0495808,2.75408893 C35.0830835,2.8137804 35.1165862,2.87358984 35.149971,2.93328131 C34.8109328,3.13406171 34.4547895,3.31195644 34.1407604,3.54623956 C34.0004973,3.65087659 33.8417132,3.88563158 33.8660145,4.03238294 C34.2097713,6.11368058 34.5836098,8.19002359 34.9786824,10.4290436 C35.1008966,10.1659764 35.1658966,10.0567387 35.2042359,9.93900726 C35.7340272,8.31648457 36.2760871,6.69785481 36.7818131,5.06778221 C37.1623757,3.8415118 37.0767314,3.55544102 36.2064864,2.62373503 L40.0164773,2.62373503 C39.9769583,2.69357169 39.9662232,2.74358984 39.9410962,2.75255535 C38.4419673,3.28435209 37.8248802,4.53221053 37.3756606,5.91360799 C36.5080109,8.5814392 35.6442541,11.2505681 34.7781379,13.9188711 C34.705706,14.1418294 34.6270218,14.3627822 34.5482196,14.5936443 L32.9608512,14.5936443 C32.4614955,11.8602232 31.9652069,9.14402541 31.4643176,6.40222868 C31.4004973,6.43750091 31.3286552,6.45248276 31.3174483,6.48704719 C30.700833,8.39009619 30.079735,10.2917296 29.4817586,12.200677 C29.202294,13.0932178 29.3017405,13.9316116 29.9457241,14.6674918 C30.0947169,14.8377187 30.1805971,15.0631543 30.3159056,15.2984991 L19.9494083,15.2984991 C19.9482287,15.2401053 19.947049,15.1815935 19.9457514,15.1230817 L24.5756152,15.1230817 C24.6383739,15.0311851 24.7011325,14.9392886 24.7638911,14.84751 C24.5989728,14.7661125 24.4340544,14.6845971 24.2691361,14.6030817 L24.2712595,14.6121652 Z" id="Fill-40"></path>
                <path d="M15.8782377,14.4833684 C15.610098,13.3880417 15.6164682,13.1086951 16.1349347,12.1312178 C16.473265,11.4931325 16.9062051,10.9057731 17.2670672,10.2786588 C17.3696987,10.1006461 17.3681652,9.86282396 17.4142904,9.65237024 C17.3406788,9.6275971 17.2670672,9.60282396 17.1933376,9.57816878 C16.6471488,10.5035045 16.0731198,11.4138584 15.5636189,12.3590127 C15.1661869,13.0963085 15.2796715,13.8123702 15.8782377,14.4833684 M19.0265499,10.4600926 C19.0937913,10.4707096 19.1611506,10.4813267 19.228392,10.4919437 C19.2613049,10.2974156 19.3664138,10.079294 19.3122668,9.91307804 C19.1862777,9.52626316 19.026078,9.13555535 18.7994628,8.801 C18.5887731,8.49003811 18.5847623,8.28241561 18.809608,7.97805989 C19.4026298,7.17541016 19.9662777,6.35022868 20.5173031,5.51785118 C20.6414047,5.33028312 20.6662958,5.07700726 20.7369583,4.85393103 C20.6808058,4.83399456 20.6247713,4.81405808 20.5686189,4.79423956 C19.7638457,5.94854991 18.9557695,7.10061887 18.1610236,8.26188929 C18.1003884,8.35024682 18.087294,8.52519238 18.1323575,8.62286933 C18.4178385,9.24113612 18.7259691,9.84890381 19.0265499,10.4600926 M19.7336461,9.98987477 C20.1495989,9.60624501 20.7867405,9.29964791 20.8306243,8.92380399 C20.9469401,7.9260363 20.8071488,6.89842287 20.7691633,5.88260617 C20.1159782,6.60975681 19.5949165,7.34233394 19.0998076,8.0921343 C19.0257241,8.2044392 19.0215953,8.41796007 19.0740907,8.54902178 C19.2544628,8.99883122 19.4743539,9.43283303 19.7336461,9.98987477 M24.2691361,14.6031053 L19.491931,14.6031053 C19.9932922,14.2601742 20.3989819,14.0273067 20.7461597,13.726608 C20.9213412,13.574902 21.0877931,13.3014537 21.0895626,13.0815626 C21.095461,12.3821343 21.0222033,11.6821162 20.9682922,10.7981869 C20.1583285,11.5175517 19.4533557,12.1438403 18.7483829,12.7700109 C18.7111053,12.726127 18.6738276,12.6822432 18.6364319,12.6383593 C19.4394356,11.8969347 20.2424392,11.15551 21.0454428,10.4140853 C20.9812686,10.3449564 20.9169764,10.2758276 20.8528022,10.2066987 C20.062657,10.8775789 19.2725118,11.5484592 18.4611325,12.2372704 C18.2194174,11.5942305 17.9715681,10.9346751 17.6906878,10.1872341 C16.5198621,11.8003194 15.28498,13.2819891 16.6667314,15.297343 C15.4106152,15.5123975 11.923265,15.4114174 11.5281924,15.1010454 L16.1062686,15.1010454 C16.1404791,14.6317713 15.8982922,14.6126606 15.5865045,14.6152559 C14.1939002,14.6272886 12.8009419,14.6204465 11.3809691,14.5812813 C13.8637096,13.3967713 15.2623303,11.2114265 16.7245354,8.93583666 C16.2845172,8.75782396 15.8993539,8.60210708 15.5170218,8.44733394 C15.9223575,7.94927586 16.3274574,7.45121779 16.7760871,6.89983848 C17.022049,7.20407623 17.2476025,7.4833049 17.4791724,7.76972958 C17.7919038,7.59549183 17.8786098,7.42939383 17.5965499,7.14686207 C17.4233739,6.97321416 17.3226298,6.7274882 17.1893267,6.5140853 C17.2477205,6.47562795 17.3061143,6.4371706 17.3643902,6.39871325 C17.5866407,6.60244283 17.8088911,6.80617241 18.0851706,7.05921234 C18.8560871,5.93321416 19.6162686,4.82302359 20.3981561,3.68109982 C20.2130653,3.35881307 20.0201887,3.02319601 19.7948711,2.63095463 L23.9828294,2.63095463 C23.7525572,2.839049 23.6072214,3.01423049 23.4236642,3.12806897 C22.8603702,3.47760617 22.6904973,3.94923956 22.7616316,4.61056443 C22.8698076,5.61517423 22.8807786,6.63028312 22.9331561,7.64102722 C23.0042904,7.65223412 23.0755426,7.66344102 23.1467949,7.67464791 C23.1910327,7.49050091 23.2773848,7.30517423 23.2724301,7.12244283 C23.2483648,6.21916697 23.222176,5.31494737 23.14998,4.41473866 C23.1196624,4.03547368 23.2291361,3.78054628 23.5201615,3.56148094 C23.8752432,3.29416697 24.2162868,3.00821416 24.5634646,2.73028312 C24.6075844,2.78443013 24.6517042,2.83845917 24.695824,2.8924882 C24.3793176,3.16322323 24.0504247,3.42098185 23.7524392,3.71059165 C23.6252704,3.83433938 23.4807604,4.0263902 23.4844174,4.18423049 C23.507775,5.21892196 23.5695898,6.25278766 23.6223212,7.35967514 C23.955225,7.1583049 24.2311506,6.99126316 24.5683013,6.78729764 C24.6101797,7.43328675 24.6484011,8.02394918 24.6867405,8.61579129 C24.2401162,8.67854991 23.7916044,8.71016515 23.3626751,8.81893103 C23.2163956,8.85609074 23.0138457,9.08895826 23.0162051,9.22922142 C23.0396806,10.5843122 23.0095989,11.9519074 23.200824,13.2863539 C23.2698348,13.7676606 23.8962414,14.1691034 24.2698439,14.6095935 C24.2712595,14.6121887 24.2691361,14.6031053 24.2691361,14.6031053" id="Fill-42"></path>
                <path d="M112.899691,9.07956806 C112.402695,9.1285245 111.905227,9.21841561 111.408702,9.21346098 C111.001007,9.20933212 110.823584,9.34912341 110.705735,9.7362922 C110.31255,11.0283884 109.879846,12.3084519 109.452686,13.6222541 C111.631543,13.9663648 113.346434,13.3350036 114.583321,11.419922 C114.563739,12.535539 114.750835,13.5303575 115.433512,14.4551034 L105.132368,14.4551034 C105.541243,14.1912105 105.854328,13.9456025 106.203748,13.7737241 C106.702632,13.528588 106.950009,13.1420091 107.101951,12.6207114 C107.423176,11.5181887 107.793829,10.4300581 108.186897,9.20249002 C107.605789,9.36941379 107.148312,9.50071143 106.537359,9.67612886 C107.033294,8.96749909 107.94176,9.23056624 108.36196,8.69924138 C108.334002,8.62633757 108.306162,8.55343376 108.278085,8.48041198 C107.679637,8.65217241 107.081071,8.82393285 106.408303,9.0169274 C106.841597,8.34109256 107.373394,7.85105626 108.169083,7.76045735 C108.595889,7.71173684 108.765998,7.50576588 108.878893,7.12756261 C109.153639,6.20635572 109.428621,5.28243557 109.769664,4.38470417 C109.956642,3.89254446 109.913113,3.53935027 109.506125,3.20821597 C109.326107,3.06158258 109.187849,2.86375136 108.981053,2.63418693 L118.600699,2.63418693 C117.799819,3.53958621 117.007196,4.43543013 116.190036,5.3592323 C116.116661,5.04307985 116.042341,4.69094737 115.952332,4.34294374 C115.824809,3.84984029 115.481996,3.5450127 114.995381,3.51174592 C114.076298,3.44875136 113.152849,3.43825227 112.231289,3.43860617 C112.101053,3.43860617 111.896025,3.59621053 111.852613,3.72396915 C111.417668,5.00403267 111.009265,6.29294374 110.590363,7.58893285 C111.014338,7.81330672 111.135962,7.55094737 111.233049,7.25296189 C111.548848,6.28315245 111.876679,5.31688203 112.169002,4.34011252 C112.268566,4.00697278 112.422396,3.84052087 112.777949,3.85326134 C113.443639,3.87697278 114.11275,3.85019419 114.775018,3.90717241 C115.360608,3.95766243 115.769129,4.28407804 115.898421,4.92263521 C115.096597,3.93890563 114.008702,4.14251724 112.964927,4.15844283 C112.656443,4.16316152 112.477015,4.25340653 112.377332,4.58984936 C112.077695,5.60130127 111.730989,6.59871506 111.417668,7.55543013 C113.025327,8.22560254 113.736434,6.94341561 114.728775,6.18665517 C114.316125,7.46435935 113.903593,8.74206352 113.473249,10.0747405 C113.252532,9.70349728 113.070036,9.39654628 112.887541,9.08947731 C112.91892,8.71953176 112.752822,8.54682759 112.378276,8.55968603 C112.084773,8.56971325 111.790563,8.56133757 111.496588,8.56098367 C110.288838,8.55886025 110.285535,8.55768058 109.912877,9.69571143 C109.48265,11.0095136 109.058793,12.3255572 108.632223,13.6410109 C109.039682,13.835775 109.166379,13.6458475 109.26441,13.337245 C109.678829,12.0325263 110.102568,10.7307568 110.53598,9.43217241 C110.592486,9.26265336 110.723784,8.98389655 110.820871,8.98377858 C111.513811,8.98248094 112.206751,9.0404029 112.899691,9.07956806" id="Fill-44"></path>
                <path d="M49.9637777,10.8840436 C49.9740408,11.0790436 49.9893766,11.1675191 49.9817087,11.2539891 C49.8350753,12.926176 50.3152024,13.5991797 51.9330064,13.984225 C53.3279701,14.3161851 54.9141588,13.7349601 55.6822441,12.6103775 C56.5454111,11.3464755 56.1505744,10.0635808 54.7022895,9.56717423 C53.9809192,9.32003267 53.2213276,9.18625771 52.4839138,8.9837078 C50.735284,8.50334483 50.1524074,7.31222868 50.7865998,5.61113975 C51.6372623,3.32917967 53.8982241,2.13664791 56.3478158,2.4057314 C56.7561007,2.45067695 57.1711098,2.51095826 57.560402,2.63517786 C58.3731969,2.89458802 59.1734873,3.14102178 60.0048031,2.72683848 C59.2022713,3.7411216 58.3997396,4.75540472 57.5178158,5.87007804 C57.4876162,5.44067695 57.459422,5.15401633 57.4489229,4.86676588 C57.4200209,4.07213793 57.0447668,3.55496915 56.2903657,3.28470599 C54.7945399,2.74889837 52.8896034,3.81992377 52.5768721,5.37249183 C52.4455744,6.02449728 52.5867813,6.49152995 53.190892,6.74315426 C54.0717541,7.11003267 54.996618,7.37628494 55.9123984,7.65315426 C57.4596579,8.1210127 58.1753657,9.00789111 58.0213004,10.3967205 C57.9073439,11.4243339 57.4478612,12.3143975 56.719059,13.041902 C55.0211552,14.7368566 52.9989592,15.1751053 50.713578,14.5339528 C50.3370263,14.4282541 49.9520989,14.3499238 49.5794401,14.2321924 C48.7831606,13.980686 48.0048122,14.0154864 47.1931969,14.2980181 C48.0935236,13.1885354 48.9938503,12.0791706 49.9637777,10.8840436" id="Fill-46"></path>
                <path d="M104.338531,4.92196279 C104.262324,3.82899546 103.622115,3.20471234 102.533631,3.17699002 C101.244248,3.14407713 100.232088,3.63753448 99.6354093,4.81119147 C99.1362895,5.79267967 99.4049011,6.54967604 100.423903,6.94722595 C101.150346,7.23058348 101.93648,7.35916788 102.66717,7.63332396 C103.227043,7.84342377 103.82962,8.07747096 104.258549,8.46971234 C105.104493,9.24357804 105.044683,10.2690681 104.687714,11.2612913 C103.902288,13.4443947 101.563113,14.9743131 99.2416343,14.7951207 C98.444765,14.7336597 97.6463621,14.5641407 96.873794,14.3520354 C95.9308811,14.0930971 95.0136851,13.8821715 94.0477686,14.3184147 C94.9480953,13.2116452 95.848422,12.1047577 96.8498466,10.8736506 C96.7599555,12.2940953 96.7877958,13.5411279 98.4340299,13.8353385 L98.4140935,13.8178793 C100.138422,14.5068085 102.209338,13.6830426 102.845536,12.0552114 C103.230464,11.0700662 102.924221,10.1882604 101.955119,9.75272505 C101.371652,9.49048367 100.728377,9.35942196 100.11011,9.17610073 C99.7160989,9.05931307 99.3068702,8.98511162 98.924774,8.83883212 C97.6767976,8.36106443 97.2046924,7.44115517 97.5086942,6.13785209 C97.993186,4.06115517 99.8840844,2.4645853 102.022832,2.41032033 C102.79717,2.39073775 103.591916,2.46788838 104.347732,2.63469419 C105.185654,2.81966697 105.990191,3.14855989 106.843095,2.73944918 C106.065573,3.73639111 105.28805,4.73333303 104.426299,5.83833303 C104.388077,5.45694465 104.360591,5.18385027 104.33334,4.91063793 L104.338531,4.92196279 Z" id="Fill-48"></path>
                <path d="M77.7393158,3.11812432 C77.5283902,3.29861434 77.3348058,3.50623684 77.102882,3.65357804 C76.6792613,3.92266152 76.467274,4.30110073 76.3174555,4.77261615 C75.4328185,7.55817877 74.5223466,10.3356016 73.6222559,13.1162096 C73.5510036,13.3361007 73.4915481,13.5597668 73.4073194,13.8473711 C75.6934083,14.1538503 77.2233267,13.2096397 78.1729637,11.1737595 C78.3804682,12.3803294 78.5706316,13.4859192 78.7623285,14.6002387 L69.3191615,14.6002387 C69.5329183,14.4419265 69.653127,14.3175889 69.7995245,14.2501116 C70.6663485,13.851382 71.0613031,13.1526615 71.3320381,12.2508013 C72.1100327,9.65870508 72.9614029,7.08772505 73.8338893,4.52535662 C74.0242886,3.96595554 73.9780454,3.55755263 73.5867477,3.14773412 C73.4561579,3.01112795 73.3627278,2.83889564 73.2106679,2.6241951 L77.5626007,2.6241951 C77.0638348,3.00369601 76.6546062,3.28693557 76.2810036,3.6111098 C76.0837623,3.78216243 75.875196,4.00051996 75.7965118,4.23881397 C74.7816388,7.31186298 73.7888258,10.3923439 72.7921198,13.4715272 C72.7626279,13.562598 72.7535445,13.660275 72.7332541,13.7638503 C73.1879002,13.9908194 73.1843612,13.5966906 73.2560853,13.3775073 C74.0503593,10.9538684 74.8333085,8.5265726 75.6190889,6.10022051 C75.7461397,5.70797913 75.9278094,5.32375953 75.9884446,4.92137296 C76.138853,3.9234873 76.9033993,3.4926706 77.6056588,2.99260708 C77.6502505,3.03448548 77.6947241,3.07636388 77.7393158,3.11812432" id="Fill-50"></path>
                <path d="M104.809256,27.0960817 C106.214365,27.0960817 107.484873,27.0846388 108.754201,27.1133049 C108.883848,27.1163721 109.054546,27.3380327 109.126978,27.4948113 C109.520635,28.3483049 109.924083,29.200265 110.255454,30.0786497 C110.503657,30.7365535 110.911706,31.0089401 111.59922,30.9366261 C111.908648,30.9040672 112.224211,30.9311996 112.590499,30.9311996 L112.590499,34.1953557 L110.796452,34.1953557 C110.24696,34.1953557 109.69735,34.1934682 109.14774,34.1955917 C108.078131,34.1997205 107.242214,33.7375245 106.855163,32.7554465 C106.138866,30.9383956 105.520835,29.0827695 104.809256,27.0960817" id="Fill-52"></path>
                <path d="M129.644718,27.1566815 C129.027985,28.5825526 128.459736,29.910275 127.879219,31.2326887 C127.64352,31.769676 127.42646,32.3225889 127.121515,32.8195853 C126.557867,33.7383149 125.708384,34.2016906 124.616714,34.1968539 C123.735852,34.192961 122.854872,34.1961461 121.906651,34.1961461 C121.696079,33.1247668 121.490698,32.0794583 121.264908,30.9303385 C121.706932,30.9303385 122.088674,30.9335236 122.470417,30.9296307 C123.22234,30.9221987 123.784926,30.6376615 124.087631,29.8989501 C124.414164,29.1016089 124.765943,28.3134691 125.144146,27.5396034 C125.226015,27.3719719 125.464899,27.1774437 125.635834,27.1734328 C126.928756,27.1428793 128.22274,27.1566815 129.644718,27.1566815" id="Fill-54"></path>
                <path d="M69.7076279,33.1750917 C70.9846243,33.1750917 72.1585172,33.1644746 73.3315844,33.1903094 C73.4572196,33.1930227 73.6550508,33.3892024 73.686784,33.5263984 C73.7745517,33.9054274 73.7973194,34.3002641 73.8362486,34.6899102 C73.9155227,35.4832405 74.0605045,35.6498103 74.8740073,35.8255817 L74.8740073,39.0048013 C73.9978639,39.0048013 73.1505045,39.0878503 72.3265027,38.9845109 C71.2147786,38.8450735 70.5285626,38.077578 70.299588,37.0295563 C70.0295608,35.7937305 69.9078185,34.5254637 69.7076279,33.1750917" id="Fill-56"></path>
                <path d="M46.9523784,0.140546279 C46.9523784,0.762116152 46.9783312,1.38510163 46.9442387,2.00478403 C46.9166343,2.50484755 47.0761261,2.72143557 47.6019065,2.69548276 C48.2635853,2.66268784 48.9283312,2.68757895 49.5916615,2.68757895 L49.6361352,2.83680762 C48.9165345,3.28767877 48.2080227,3.75742468 47.4732042,4.18175318 C47.0870971,4.40471143 46.914275,4.67874955 46.9325599,5.12714338 C46.9595744,5.78705263 46.93952,6.44884936 46.93952,7.10982033 C46.8777051,7.13129038 46.8157722,7.1528784 46.7538394,7.17434846 C46.31099,6.7733775 45.8500917,6.3898657 45.4313076,5.96494737 C45.1601007,5.68972958 44.9433947,5.68442105 44.6220517,5.8817804 C43.8904183,6.33111797 43.1340118,6.74011071 42.2979773,7.09637205 C42.8108993,6.25396733 43.3237033,5.41156261 43.8711897,4.51229764 C43.3661715,3.9671706 42.851716,3.41189837 42.3371425,2.85650817 C42.3417432,2.80070962 42.346226,2.7447931 42.3507087,2.68899456 C43.0195835,2.68899456 43.68952,2.66481125 44.3567432,2.69666243 C44.8874782,2.72190744 45.2234492,2.52973866 45.4946561,2.06423956 C45.8876053,1.38982033 46.3554637,0.759166969 46.791353,0.109756806 C46.8450281,0.120019964 46.8987033,0.130283122 46.9523784,0.140546279" id="Fill-58"></path>
                <path d="M10.0648902,14.4046252 C10.0648902,14.4046252 10.1037015,14.4108775 10.1039374,14.4113494 C9.69270327,13.8413312 9.90929129,13.2829918 10.1012241,12.700941 C10.9482296,10.1325563 11.8354619,7.5746706 12.5779483,4.97585027 C12.8660245,3.96746552 13.5429211,3.47955263 14.3893367,3.04389927 C14.2655889,3.17354537 14.1635472,3.34082305 14.0144365,3.42634936 C13.35901,3.80231125 13.0579574,4.38330036 12.8392459,5.09122232 C12.040961,7.6754147 11.2043367,10.2481642 10.3428212,12.8120662 C10.1592641,13.358255 10.1331933,13.8112495 10.4694002,14.2937359 C10.6767868,14.5912495 10.8157523,14.936422 10.9906978,15.2700336 C10.1715327,15.488745 6.49000817,15.4137178 6.06721325,15.1107777 L10.5654256,15.1107777 C10.3404619,14.7934456 10.202676,14.5990354 10.0648902,14.4046252" id="Fill-60"></path>
                <path d="M105.038278,8.68212432 C105.726617,9.40089927 105.763305,10.2348103 105.50767,11.1256996 C104.817915,13.5308176 102.228886,15.511961 99.5925517,15.5525417 C98.7633593,15.5652822 97.919657,15.3970608 97.1023793,15.2206996 C96.1808185,15.0218067 95.2824973,14.7127323 94.330265,15.0330136 C94.2958185,15.0445744 94.2389583,14.9891298 94.0504465,14.8910989 C94.3456007,14.7723058 94.5312813,14.6690844 94.7300563,14.6222514 C95.7605009,14.3799465 96.7139129,14.7884673 97.6681506,15.0419791 C100.670419,15.8395563 103.851172,14.3558811 105.062697,11.5193566 C105.462724,10.5829319 105.497996,9.62798639 105.038278,8.68212432" id="Fill-62"></path>
                <path d="M58.3570236,8.84530853 C58.9248004,9.66895644 58.8533122,10.5006261 58.5870599,11.3142468 C57.6423775,14.2004356 54.0562886,16.1720236 51.111824,15.4479401 C50.5600907,15.3121597 50.0190926,15.1061887 49.4600454,15.0324592 C48.7610889,14.9403267 48.0484483,14.9514156 47.2506352,14.9136661 C47.4385572,14.8106806 47.6019419,14.6419873 47.7564791,14.6497731 C48.5106443,14.6875227 49.2841561,14.6835118 50.010363,14.8601089 C51.3013975,15.17402 52.5733212,15.3844737 53.8972686,15.1000544 C56.1083303,14.625 58.1611978,12.6074047 58.438657,10.5333031 C58.5089655,10.0075227 58.3920599,9.45661525 58.3570236,8.84530853" id="Fill-64"></path>
                <path d="M92.8262405,14.4710998 L92.8054782,14.4304011 C92.1900426,13.8295935 92.1331824,13.0663448 92.1307051,12.2647568 C92.1282278,11.401118 92.0763221,10.5362995 92.0120299,9.67454809 C91.9782913,9.22155354 92.1668031,9.07456624 92.586059,9.09285118 C92.9551788,9.10889474 93.3253603,9.09615426 93.7243258,9.09615426 C93.6799701,8.46290563 93.6336089,7.80110889 93.5872477,7.13931216 L93.8046615,7.11595463 C93.9096525,7.8964265 94.0146434,8.67689837 94.1247069,9.49500181 C93.5406506,9.46503811 92.9825472,9.43649002 92.4367123,9.40853176 C92.4367123,10.2289946 92.4867305,11.0097024 92.4253875,11.7815626 C92.3272387,13.0159728 92.6912858,14.0439401 93.5883094,14.8925971 C93.6967214,14.9951107 93.7698612,15.13502 93.8921933,15.3026515 L88.5867305,15.3026515 L88.5801243,15.0866534 L90.8590172,15.0866534 L93.3562677,15.0866534 C93.1153784,14.8068348 92.9708684,14.6389673 92.8262405,14.4710998" id="Fill-66"></path>
                <path d="M40.3813503,3.2965735 C40.1461234,3.47258076 40.0543448,3.58995826 39.9400345,3.61909619 C38.926931,3.87697278 38.5246624,4.66924138 38.2377659,5.55411434 C37.2395263,8.63188203 36.2401071,11.7091779 35.2664047,14.7946134 C35.1235463,15.2472541 34.922176,15.4362377 34.4407514,15.3898766 C33.9859873,15.3459927 33.5236733,15.3804392 33.0646624,15.3804392 C33.0618312,15.2891325 33.058882,15.1977078 33.0560508,15.1064011 C33.4136098,15.1003848 33.7750617,15.0585064 34.127784,15.0968457 C34.6647713,15.1552396 34.9060145,14.9725082 35.0754156,14.427853 C35.9897804,11.4873993 36.9496806,8.56098367 37.9114682,5.6355118 C38.2420127,4.63019419 38.677902,3.68645554 39.8324483,3.36912341 C39.9553702,3.33538475 40.0871397,3.33408711 40.3813503,3.2965735" id="Fill-68"></path>
                <path d="M105.635711,15.0870309 L106.269668,15.0870309 C109.21484,15.0870309 112.160131,15.0892722 115.105303,15.0825481 C115.312336,15.0820762 115.56396,15.0771216 115.716374,14.9663503 C115.981446,14.7735917 116.188833,14.5441452 115.900521,14.1434102 C115.427826,13.4863321 115.141165,12.7410145 115.14435,11.9183103 C115.201446,11.8987278 115.258307,11.8791452 115.315403,11.8595626 C115.450593,12.3183376 115.54886,12.7924483 115.731474,13.2315227 C115.917626,13.6790907 116.186828,14.0922123 116.41073,14.5039183 C116.051991,15.2366134 115.468642,15.4109691 114.680149,15.3976388 C111.892699,15.3505699 109.104069,15.3805336 106.315911,15.3751071 C106.08269,15.3746352 105.849468,15.3278022 105.616365,15.3024392 C105.622853,15.2305971 105.629223,15.158755 105.635711,15.0870309" id="Fill-70"></path>
                <path d="M102.770863,11.1393249 C102.276108,10.8833358 101.795155,10.5658857 101.268313,10.3765481 C100.256625,10.0129728 99.2119065,9.74152995 98.1949102,9.39163884 C97.7590209,9.24158439 97.4032314,8.95799093 97.4583221,8.31129401 C98.5481044,9.61943376 100.170863,9.49568603 101.515926,10.051902 C102.085473,10.2874828 102.735355,10.434824 102.770863,11.1393249" id="Fill-72"></path>
                <path d="M55.8503947,11.310059 C55.3587069,10.5241606 54.5262114,10.3956942 53.7492786,10.1575181 C52.9258666,9.90518603 52.0957305,9.67113884 51.2854129,9.38176497 C50.8728811,9.23454174 50.5524819,8.94670145 50.6119374,8.3521461 C51.6432078,9.58230944 53.184569,9.45561252 54.444696,10.006402 C54.8190064,10.1699047 55.2321279,10.2746597 55.5598412,10.5032804 C55.762863,10.6448412 55.838598,10.9690154 55.9714292,11.2112024 C55.9312024,11.2441152 55.8907396,11.2771461 55.8503947,11.310059" id="Fill-74"></path>
                <path d="M57.3778593,4.85134755 C55.9060989,3.6837069 54.9102187,3.5782441 53.8809537,4.5348412 C53.1601733,5.20489564 53.1526234,5.86032214 53.9294383,6.88604809 C53.3332314,6.65825318 53.0429138,6.32157441 53.0101189,5.78906987 C52.9636397,5.03691016 53.6610626,4.11936025 54.5560808,3.76038566 C55.2317976,3.48953267 56.5118612,3.47832577 57.0004819,4.1697323 C57.1494746,4.38053993 57.2532858,4.62319873 57.3778593,4.85134755" id="Fill-76"></path>
                <path d="M104.333352,4.91067332 C104.156991,4.79223412 103.953143,4.70010163 103.809341,4.55040109 C103.238379,3.95655354 102.552635,3.75364973 101.771456,3.96563702 C101.011628,4.17196189 100.369178,4.60608167 100.268788,5.43055535 C100.214759,5.87328675 100.452935,6.35164428 100.551673,6.78080944 C100.143624,6.58757895 99.8259383,6.21609982 99.9030889,5.62036479 C100.026365,4.66754265 100.635548,4.08089111 101.482789,3.74385844 C102.366011,3.39266969 103.376047,3.60925771 103.910557,4.23177132 C104.083615,4.43325953 104.195684,4.68712523 104.337009,4.91952087 C104.338543,4.92199819 104.333352,4.91067332 104.333352,4.91067332" id="Fill-78"></path>
                <path d="M113.727079,10.394314 C114.169928,9.02188203 114.61266,7.64933212 115.055509,6.27690018 C115.134547,6.30084755 115.213585,6.32491289 115.292623,6.34897822 C114.854493,7.72671869 114.41648,9.1043412 113.978349,10.4820817 L113.727079,10.394314 Z" id="Fill-80"></path>
                <path d="M104.783905,5.91133122 C105.548923,4.8869029 106.264867,3.81929855 107.249186,2.98715699 L107.390629,3.11019691 C106.570166,4.10206624 105.749703,5.09405354 104.929123,6.08592287 C104.880756,6.02776497 104.832271,5.96960708 104.783905,5.91133122" id="Fill-82"></path>
                <path d="M57.844196,5.9085 C58.6671361,4.91344555 59.4899583,3.91839111 60.3127804,2.92333666 L60.51651,3.09415336 C59.700176,4.09510617 58.8838421,5.09605898 58.0675082,6.09712976 C57.9930708,6.03425318 57.9186334,5.97137659 57.844196,5.9085" id="Fill-84"></path>
                <path d="M98.4340653,13.8353031 C97.608294,13.366029 97.1843194,12.6832341 97.31951,11.712363 C97.3377949,11.5805935 97.4016152,11.4551942 97.5497822,11.3132795 C97.5481307,12.3108113 97.7495009,13.1841234 98.7161252,13.7622813 C98.5527405,13.7911833 98.482196,13.8036878 98.4128312,13.8170181 C98.4141289,13.8179619 98.4340653,13.8353031 98.4340653,13.8353031" id="Fill-86"></path>
                <path d="M51.7178457,13.7472877 C51.0772831,13.6207087 50.6692341,13.2357813 50.5098603,12.6316706 C50.3975554,12.2055726 50.3031815,11.7484492 50.6754864,11.3429955 C50.6620381,12.3148103 50.9074102,13.1497831 51.7178457,13.7472877" id="Fill-88"></path>
                <path d="M116.395972,5.68230944 C117.206525,4.80439655 118.016961,3.92648367 118.827515,3.04857078 C118.882251,3.09835299 118.937106,3.14825318 118.991843,3.19803539 C118.179992,4.06946007 117.368023,4.94064882 116.556172,5.8120735 C116.50285,5.76877949 116.449411,5.72560345 116.395972,5.68230944" id="Fill-90"></path>
                <path d="M8.93055172,9.21308348 C8.59434483,9.29141379 8.26037931,9.42400907 7.9216951,9.43698548 C7.17826497,9.46576951 6.43164973,9.45184936 5.68798367,9.41846461 C5.37466243,9.4044265 5.23628675,9.50068784 5.14427223,9.79867332 C4.77444465,10.9972214 4.36663158,12.1839728 4.00517967,13.3848802 C3.93050635,13.6329655 3.99432668,13.9228113 3.99432668,14.1565045 C3.55678584,13.8738548 3.48093285,13.4629746 3.69433575,12.8834011 C4.11394555,11.7440726 4.46100544,10.5777296 4.83460799,9.42153176 C4.91647731,9.1682559 4.98914519,8.98269328 5.34528857,8.99213067 C6.51741198,9.02339201 7.690951,9.0039274 8.86390018,9.0039274 C8.88607804,9.0736461 8.90837387,9.14336479 8.93055172,9.21308348" id="Fill-98"></path>
            </g>
        </g>
    </g>
</svg>