<?xml version="1.0" encoding="UTF-8"?>
<svg width="61px" height="53px" viewBox="0 0 61 53" version="1.1" xmlns="http://www.w3.org/2000/svg" xmlns:xlink="http://www.w3.org/1999/xlink">
    <!-- Generator: Sketch 46.2 (44496) - http://www.bohemiancoding.com/sketch -->
    <title>开发者社区</title>
    <desc>Created with Sketch.</desc>
    <defs></defs>
    <g id="首页" stroke="none" stroke-width="1" fill="none" fill-rule="evenodd">
        <g id="PaaS平台" transform="translate(-929.000000, -6784.000000)">
            <g id="开发者社区" transform="translate(925.000000, 6779.000000)">
                <rect id="Rectangle" fill-opacity="0" fill="#D8D8D8" x="0" y="0" width="70" height="112"></rect>
                <g transform="translate(5.000000, 6.000000)" stroke="#FFFFFF">
                    <g>
                        <path d="M0.941489362,0 C0.421410638,0 0,0.426663529 0,0.952941176 L0,50.0470588 C0,50.5733365 0.421410638,51 0.941489362,51 L58.0585106,51 C58.5785894,51 59,50.5733365 59,50.0470588 L59,39.8823529 C59,39.3560753 58.5785894,38.9294118 58.0585106,38.9294118 C57.5384319,38.9294118 57.1170213,39.3560753 57.1170213,39.8823529 L57.1170213,49.0941176 L1.88297872,49.0941176 L1.88297872,9.52941176 L57.1170213,9.52941176 L57.1170213,36.0705882 C57.1170213,36.5968659 57.5384319,37.0235294 58.0585106,37.0235294 C58.5785894,37.0235294 59,36.5968659 59,36.0705882 L59,0.952941176 C59,0.426663529 58.5785894,0 58.0585106,0 L0.941489362,0 Z M1.88297872,1.90588235 L36.7180851,1.90588235 L36.7180851,7.62352941 L1.88297872,7.62352941 L1.88297872,1.90588235 L1.88297872,1.90588235 L1.88297872,1.90588235 Z M38.6010638,7.62352941 L38.6010638,1.90588235 L57.1170213,1.90588235 L57.1170213,7.62352941 L38.6010638,7.62352941 L38.6010638,7.62352941 L38.6010638,7.62352941 Z M47.8904255,3.74823529 C47.3367043,3.74823529 46.8861702,4.20424941 46.8861702,4.76470588 C46.8861702,5.32516235 47.3367043,5.78117647 47.8904255,5.78117647 C48.4441468,5.78117647 48.8946809,5.32516235 48.8946809,4.76470588 C48.8946809,4.20424941 48.4441468,3.74823529 47.8904255,3.74823529 L47.8904255,3.74823529 L47.8904255,3.74823529 Z M42.743617,3.74823529 C42.1898957,3.74823529 41.7393617,4.20424941 41.7393617,4.76470588 C41.7393617,5.32516235 42.1898957,5.78117647 42.743617,5.78117647 C43.2973383,5.78117647 43.7478723,5.32516235 43.7478723,4.76470588 C43.7478723,4.20424941 43.2973383,3.74823529 42.743617,3.74823529 L42.743617,3.74823529 L42.743617,3.74823529 Z M53.037234,3.74823529 C52.4835128,3.74823529 52.0329787,4.20424941 52.0329787,4.76470588 C52.0329787,5.32516235 52.4835128,5.78117647 53.037234,5.78117647 C53.5909553,5.78117647 54.0414894,5.32516235 54.0414894,4.76470588 C54.0414894,4.20424941 53.5909553,3.74823529 53.037234,3.74823529 L53.037234,3.74823529 L53.037234,3.74823529 Z" id="coding" stroke-width="0.5" fill="#767D85"></path>
                        <g id="Group-3" transform="translate(9.000000, 22.000000)" stroke-width="0.4" fill="#6ED0CE">
                            <path d="M10.9227388,0.410349012 L0.745892135,6.41692576 C0.481363313,6.57297971 0.319221472,6.85553894 0.319221472,7.16060596 C0.319221472,7.46567297 0.481363313,7.7482322 0.745775654,7.90428616 L10.9226223,13.9108629 C11.0627492,13.9936223 11.2167373,14.032982 11.3688618,14.032982 C11.6665878,14.032982 11.9568589,13.8820068 12.1201656,13.610182 C12.3671057,13.1993861 12.2311722,12.6680871 11.816732,12.4235025 L2.89997911,7.16060596 L11.816732,1.89770941 C12.2312886,1.65312485 12.3672222,1.12182577 12.1202821,0.711029894 C11.8733419,0.300234017 11.3371789,0.165533599 10.9227388,0.410349012 Z" id="Path"></path>
                            <path d="M28.6402293,14.032982 C28.7923538,14.032982 28.9463419,13.9936223 29.0864688,13.9108629 L39.2633155,7.90428616 C39.5278443,7.74811678 39.6898696,7.46567297 39.6898696,7.16060596 C39.6898696,6.85553894 39.5277278,6.57297971 39.2633155,6.41692576 L29.0864688,0.410349012 C28.6720287,0.165649024 28.1356327,0.300234017 27.8889255,0.711029894 C27.6419854,1.12182577 27.7779189,1.65312485 28.1923591,1.89770941 L37.109112,7.16060596 L28.1923591,12.4235025 C27.7778025,12.6680871 27.6418689,13.1993861 27.8889255,13.610182 C28.0523487,13.8821222 28.3425034,14.032982 28.6402293,14.032982 Z" id="Path"></path>
                            <path d="M15.2086648,12.6845928 C14.9397097,13.0814223 15.04629,13.6193006 15.4468689,13.8859312 C15.5964307,13.9854271 15.7656779,14.032982 15.9331779,14.032982 C16.21448,14.032982 16.490657,13.8985125 16.6592053,13.6497726 L24.8004263,1.63661914 C25.0693814,1.23978963 24.9628011,0.701911357 24.5622223,0.435280709 C24.1614104,0.168765486 23.6187245,0.274609773 23.3498858,0.671439283 L15.2086648,12.6845928 Z" id="Path"></path>
                        </g>
                    </g>
                </g>
            </g>
        </g>
    </g>
</svg>