<svg width="281" height="100" viewBox="0 0 281 100" xmlns="http://www.w3.org/2000/svg"><title>1ED56F98-EE93-48C0-BAAD-13DA5C7DF2B3</title><g fill="none" fill-rule="evenodd"><path fill="none" d="M0 0h280v100H0z"/><g fill="#5A6978"><path d="M127.32 36.937h4.702V35.79h-4.701v1.146zm4.918-5.495h-4.955l.067 1.138h4.888v-1.138zm-14.55 1.14h5.2v-1.14h-5.2v1.14zm5.227 3.207h-5.264l.058 1.145h5.206V35.79zm13.983-11.912v3.116h-9.616v.945h9.023v9.153c.026 3.127-1.161 3.302-3.28 3.309-1.861.006-3.723.001-5.692.001v6.793h-4.362v-6.77h-9.286V27.99h9.198v-.997h-9.518v-3.116h9.535v-.805h4.006l.572.805h9.42zM131.9 63.992V57.54h-14.495v6.452H131.9zm-14.524 10.227h14.588v-6.421h-14.588v6.421zm18.93-20.093s-.005 19.918 0 21.817c.003 1.899-2.376 1.758-2.376 1.758h-20.547V54.126h22.922zM161.712 27.93v-1.474h-14.157v1.473h14.157zm.356 2.888h-14.586l.064 1.454h14.522v-1.454zm-.81 4.611c-4.28-.023-11.45 0-11.45 0l-.446.893h17.04v9.394c-.401 1.336-1.33 1.57-2.478 1.534-1.6-.051-3.202-.013-4.87-.013v-2.781h3.295v-4.83c-1.213-.23-9.94-.302-14.76-.109-.133.146-1.297 1.442-1.98 1.49-.874.063-1.755.016-2.623.016-.344-.013-.4-.227-.42-.42v-2.99h1.316c.485-.825 1.422-2.184 1.422-2.184h-1.477V23.311h22.604s-.079 6.267-.002 9.008c.07 2.505-.892 3.133-5.171 3.11zM146.916 58.145v.873h9.197c.25 4.1.164 6.255-.21 7.193-1.151 1.037-2.413.93-3.663.917-1.443-.016-2.887-.004-4.384-.004v-3.107h4.873V62.22h-5.859c0 .939-.055 1.866.014 2.784.085 1.134-.921 2.218-2.105 2.13-.67-.05-1.346-.008-2.02-.01-.148-.002-.297-.02-.497-.032V64.41l.848-.155v-9.227h13.069v-1.52h3.758l.434 1.46h1.981l.525-.859h3.217s.318 4.036-.939 3.986h-4.243v1.828h1.055l.545-1.142h3.105s-.762 4.656-1.792 4.656h-2.002v.86h4.247v2.827c-2.136 0-4.283.206-6.364-.005-2.418-.246-2.873-6.82-2.801-8.974h-9.99zM161.76 70.906h-2.46v3.623h2.46v-3.623zm-6.228 3.676c.013-.592-.023-3.674-.023-3.674h-2.424s.023 3.086.035 3.674h2.412zm-6.228-.026v-3.724h-2.382v3.724h2.382zm15.887-6.758v6.726h1.812c.147.947.008 1.852.086 2.803h-24.847V74.64h.84c.131-2.296.013-4.546.073-6.841h22.036z"/><path d="M147.826 46.914h-5.24v-2.757h2.631l2.994-4c1.408 0 2.786-.008 4.163.014.111.002.22.205.354.34l-4.902 6.403M155.602 40.463h4.74c-.757 1.4-1.702 2.52-2.614 3.645-.892 1.1-1.476 2.51-3.047 3.093h-4.04v-3.002h1.89l3.071-3.736M115.625 44.185l1.7-3.419h3.686s-.246 1.24-.454 1.84c-.328.946-.796 1.843-1.185 2.77-.366.873-1.048 1.416-1.9 1.815h-4.44v-3.006h2.593zM136.89 47.237c-1.158 0-2.301.131-3.401-.033-1.406-.21-2.626-.674-3.146-2.357-.396-1.283-1.8-4.135-1.8-4.135h4l1.713 3.35c.786.351 1.873-.376 2.635.477v2.698z"/></g></g></svg>