<svg width="40" height="40" viewBox="0 0 40 40" xmlns="http://www.w3.org/2000/svg" xmlns:xlink="http://www.w3.org/1999/xlink"><title>5F056BD7-7566-49EE-B17D-2C47564AAAFC</title><defs><rect id="a" width="40" height="40" rx="20"/><filter x="-50%" y="-50%" width="200%" height="200%" filterUnits="objectBoundingBox" id="b"><feMorphology radius="1" in="SourceAlpha" result="shadowSpreadInner1"/><feOffset in="shadowSpreadInner1" result="shadowOffsetInner1"/><feComposite in="shadowOffsetInner1" in2="SourceAlpha" operator="arithmetic" k2="-1" k3="1" result="shadowInnerInner1"/><feColorMatrix values="0 0 0 0 0.203921569 0 0 0 0 0.247058824 0 0 0 0 0.294117647 0 0 0 0.06 0" in="shadowInnerInner1"/></filter><path d="M12 28.505c0-.279.226-.505.496-.505h15.008c.274 0 .496.214.496.505v.99a.503.503 0 0 1-.496.505H12.496a.493.493 0 0 1-.496-.505v-.99zm10.93-11.063h3.578c.537 0 .694.332.326.743l-6.168 6.886a.878.878 0 0 1-1.332 0l-6.168-6.886c-.363-.405-.222-.743.326-.743h3.578v-6.438c0-.56.445-1.004.994-1.004h3.872c.554 0 .994.45.994 1.004v6.438z" id="d"/><filter x="-50%" y="-50%" width="200%" height="200%" filterUnits="objectBoundingBox" id="c"><feMorphology radius=".5" operator="dilate" in="SourceAlpha" result="shadowSpreadOuter1"/><feOffset in="shadowSpreadOuter1" result="shadowOffsetOuter1"/><feGaussianBlur stdDeviation="1" in="shadowOffsetOuter1" result="shadowBlurOuter1"/><feColorMatrix values="0 0 0 0 0.164705882 0 0 0 0 0.207843137 0 0 0 0 0.254901961 0 0 0 0.1 0" in="shadowBlurOuter1"/></filter></defs><g fill="none" fill-rule="evenodd"><use fill="#268CFF" xlink:href="#a"/><use fill="#000" filter="url(#b)" xlink:href="#a"/><g><use fill="#000" filter="url(#c)" xlink:href="#d"/><use fill="#FFF" xlink:href="#d"/></g></g></svg>