<svg width="281" height="100" viewBox="0 0 281 100" xmlns="http://www.w3.org/2000/svg"><title>CE8CE3E0-7D4D-4308-AC44-F3E2B925E157</title><g fill="none" fill-rule="evenodd"><path fill="none" d="M0 0h280v100H0z"/><path d="M100.012 26.5c-2.265-2.262-4.232-1.817-6.39.341L76.568 43.894c-1.486 1.488-1.917 3.365-1.288 5.392a6.076 6.076 0 0 0 1.832 2.759c1.19 1.021 2.483 1.302 3.994 1.302v7.374c0 3.258 2.555 6.239 6.05 6.239h4.16c.927 0 1.801-.413 2.506-1.044.994-.891 1.652-2.217 1.652-3.435v-7.529c0-1.157.786-1.227 1.773-1.227h6.168V48.81H95.475V46.54c0-.666.01-.855.455-1.379.47-.553 1.037-.89 2.191-.89h5.294v-4.915h-6.428c-1.592 0-3.126 1.04-4.256 2.172-.312.312-.595.617-.845.925-.853 1.049-1.327 2.126-1.327 3.617v14.483c0 .955-.343 1.868-1.512 1.868h-1.513c-.343 0-.624-.063-.846-.181-.455-.241-.666-.711-.666-1.332v-9.843c0-.645-.029-.954-.435-1.494-.257-.342-.585-.578-1.149-.689-.317-.062-.632-.055-1.11-.047-.652.01-1.28.015-1.904.014-1.21 0-1.57-1.058-.696-1.93l.756-.757 14.369-14.369c.758-.758 1.088-1.084 1.89-.377l15.125 15.124c1.131.953 1.818 2.433-.422 2.36-.335-.012-.701-.004-1.07-.018-2.433-.087-3.278.416-3.278 3.163v6.898c0 .26.02.514 0 .768-.14 1.802-.154 2.71-2.415 2.71h-3.78v4.538h5.671c1.183 0 2.931-1.095 3.698-1.974a6.531 6.531 0 0 0 1.596-4.233v-7.406c1.133-.162 2.23-.22 3.242-.783.634-.352 1.136-.866 1.597-1.503.209-.29.386-.612.536-1.03.292-.815.494-1.407.492-2.541-.002-1.275-.331-2.426-1.33-3.596l-17.393-17.393zM151.6 66.585h-4.534v-8.537c0-1.806-.099-2.972-.292-3.504a2.489 2.489 0 0 0-.947-1.237c-.435-.29-.959-.44-1.57-.44-.788 0-1.493.209-2.115.628-.623.425-1.052.979-1.284 1.672-.231.693-.347 1.973-.347 3.843v7.575h-4.533V49.86h4.208v2.457c1.498-1.892 3.382-2.838 5.652-2.838.997 0 1.917.177 2.743.527.827.354 1.454.8 1.879 1.349.424.548.721 1.166.886 1.86.171.693.254 1.682.254 2.973v10.396zm21.631 7.772h1.436v-1.443h-1.436v1.443zm7.952-3.841l-1.417.256c-.047-.284-.155-.498-.324-.642-.17-.144-.388-.215-.656-.215-.36 0-.644.124-.857.371-.213.25-.32.665-.32 1.247 0 .647.109 1.104.325 1.371.217.266.506.4.87.4.275 0 .496-.077.67-.234.175-.156.297-.424.369-.802l1.412.24c-.147.65-.43 1.143-.845 1.474-.415.333-.972.498-1.672.498-.793 0-1.427-.25-1.898-.754-.472-.503-.708-1.2-.708-2.092 0-.899.237-1.6.71-2.102.474-.503 1.115-.754 1.923-.754.661 0 1.186.144 1.577.43.389.286.67.722.841 1.308zm1.065 1.036c0-.478.119-.943.353-1.392.235-.447.568-.79 1-1.026a2.952 2.952 0 0 1 1.444-.356c.82 0 1.493.269 2.018.805.526.537.788 1.213.788 2.032 0 .824-.266 1.508-.794 2.052-.531.543-1.197.813-2.002.813-.499 0-.972-.112-1.423-.338a2.324 2.324 0 0 1-1.031-.994c-.234-.437-.353-.968-.353-1.596zm1.473.077c0 .542.127.956.384 1.243.254.288.57.432.945.432s.69-.144.942-.432c.255-.287.383-.704.383-1.253 0-.533-.128-.945-.383-1.233a1.205 1.205 0 0 0-.942-.431c-.375 0-.69.144-.945.431-.257.288-.384.703-.384 1.243zm5.456-2.726h1.325v.743c.472-.578 1.038-.868 1.692-.868.347 0 .65.072.904.216.256.144.466.361.63.652.237-.29.495-.508.77-.652.276-.144.571-.216.885-.216.398 0 .737.083 1.012.246.276.161.482.401.618.715.1.233.148.61.148 1.131v3.488h-1.436v-3.118c0-.542-.049-.89-.148-1.048-.132-.206-.337-.31-.612-.31a.972.972 0 0 0-.569.187 1.025 1.025 0 0 0-.382.542c-.079.238-.119.613-.119 1.127v2.62h-1.436v-2.99c0-.531-.026-.873-.077-1.027a.654.654 0 0 0-.237-.344.75.75 0 0 0-.438-.114c-.221 0-.42.06-.597.18a.981.981 0 0 0-.382.52c-.076.226-.115.6-.115 1.123v2.652h-1.436v-5.455zm.484-1.842h5.672c5.546 0 9.074-3.126 9.074-8.697v-.378c0-4.785-2.47-7.94-7.183-7.94h-7.563V67.06zm6.806-3.403h-2.646V53.069h1.512c2.836 0 5.294 1.844 5.294 4.538v1.512c0 2.038-2.037 4.538-4.16 4.538zm-17.771 3.403c5.095 0 9.453-3.36 9.453-8.319v-1.134c0-4.693-3.474-7.563-8.319-7.563h-6.806V67.06h5.672zm1.134-3.403h-2.647V53.069h2.269c2.271 0 4.537 2.266 4.537 4.538v1.512c0 2.038-2.036 4.538-4.159 4.538zm-26.09-4.16c0 3.82 2.895 7.94 6.428 7.94 3.437 0 4.17-1.388 6.05-2.646 0 3.898-.788 7.184-4.537 7.184h-2.269c-1.514 0-1.88-.78-3.403-1.134l-.76 3.024c1.413.677 3.56 1.135 5.676 1.135h1.134c4.668 0 8.696-3.721 8.696-8.697V50.044h-4.537v1.513c-1.47-.985-2.433-1.513-4.915-1.513h-1.135c-4.295 0-6.428 4.838-6.428 9.453zm4.538-1.134c0-2.488 1.325-4.915 3.78-4.915h.757a3.417 3.417 0 0 1 3.403 3.403v3.78c0 2.322-1.8 3.404-4.16 3.404-2.037 0-3.78-2.653-3.78-4.916v-.756zm-30.504-5.72c.767.241 1.372.724 1.372 1.737v1.872c-3.877.118-8.211.224-9.704 2.83-.335.585-.456 1.2-.498 1.833-.205 3.058 1.367 5.943 4.726 5.943 2.85 0 3.927-1.425 5.476-2.647v2.269h4.016v-12.1c0-1.347-.262-2.64-1.133-3.314-1.823-1.41-9.427-1.588-9.874-.435-.166.429-.307.97-.579 2.492l.1-.019c2.07-.38 4.009-1.121 6.098-.462zm-4.55 7.35c.953-2.075 3.993-1.14 5.922-1.831 0 1.53-.128 2.896-.643 3.857-.655 1.224-2.329 1.858-3.62 1.664-1.804-.272-2.397-2.085-1.66-3.69zm26.707-16.491v-7.484l12.776.01c.874.001 1.616-.55 1.616-1.512v-3.027c0-.871-.263-1.135-1.135-1.135h-5.296V29.22h-2.648v1.135l-6.948.003c-.53 0-.75.355-.747.83.021 2.967-.048 10.917-.06 12.974-.21.301-.431.592-.91.679v1.33c2.13.063 3.352-.353 3.352-2.668zm.016-9.365h11.728v-1.891h-11.728v1.891zm18.159 2.365v1.419c4.573.34 14.97-1.295 15.89-7.945-2.245-.03-4.597.032-7.189 0v-.757h-2.27c-.091.347-3.977 3.457-5.674 3.783v1.513c1.32-.207 2.875-.747 3.935-1.244.49.477 1.477 1.396 2.184 2.037-2.584 1.307-5.51 1.222-6.876 1.194zm9.448-2.238c-.364.032-2.456-1.56-3.017-2.397 1.892 0 4.142.043 6.034.043-.465.693-2.643 2.397-3.017 2.354zm-8.43 5.57c-.002.59-.021 1.129-.024 1.607 1.642.023 2.326.01 3.86-.338.961.794 1.985 1.81 2.946 2.604-2.455.574-5.064.9-7.8 1.023v1.513c5.688 0 13.351-.457 16.879-5.92.618-.958.716-1.918.027-2.012a552.82 552.82 0 0 0-4.422-.012c.736-.467 1.421-1.02 2-1.756l-3.135-.136c-2.011 1.742-6.711 3.275-10.332 3.426zm9.196 2.626c-.527 0-2.286-1.728-2.648-2.27h5.986c-.56.838-2.679 2.355-3.338 2.27zm-22.017-4.525l-5.599-.014v1.538l1.513-.001v3.759c-.439.988-1.069 1.488-1.817 1.686l-.074 1.34h1.134c2.295 0 2.973-1.546 3.405-3.405h6.431c-.026 1.213.124 1.892-1.134 1.892h-1.892v1.891h3.405c1.534 0 1.96-.35 2.27-1.512v-4.162l-9.08-.029v-1.477l9.458-.03v-1.49h-5.674v-1.135h-2.27l-.076 1.15zm31.447-1.433v1.419c4.573.34 14.969-1.295 15.889-7.945-2.244-.03-4.596.032-7.188 0v-.757h-2.27c-.091.347-3.977 3.457-5.674 3.783v1.513c1.32-.207 2.875-.747 3.934-1.244.49.477 1.478 1.396 2.185 2.037-2.584 1.307-5.51 1.222-6.876 1.194zm9.448-2.238c-.364.032-2.456-1.56-3.017-2.397 1.892 0 4.142.043 6.033.043-.464.693-2.642 2.397-3.016 2.354zm-8.43 5.57c-.002.59-.022 1.129-.024 1.607 1.641.023 2.326.01 3.86-.338.96.794 1.985 1.81 2.946 2.604-2.455.574-5.064.9-7.8 1.023v1.513c5.688 0 13.35-.457 16.878-5.92.618-.958.717-1.918.027-2.012a552.82 552.82 0 0 0-4.421-.012c.736-.467 1.42-1.02 2-1.756l-3.135-.136c-2.012 1.742-6.711 3.275-10.332 3.426zm9.196 2.626c-.527 0-2.286-1.728-2.648-2.27h5.986c-.56.838-2.68 2.355-3.338 2.27z" fill="#5A6978"/></g></svg>