<svg width="40" height="40" viewBox="0 0 40 40" xmlns="http://www.w3.org/2000/svg" xmlns:xlink="http://www.w3.org/1999/xlink"><title>9CF89DEF-929F-4CED-AE51-5B20B89D1D17</title><defs><rect id="a" width="40" height="40" rx="20"/><filter x="-50%" y="-50%" width="200%" height="200%" filterUnits="objectBoundingBox" id="b"><feMorphology radius="1" in="SourceAlpha" result="shadowSpreadInner1"/><feOffset in="shadowSpreadInner1" result="shadowOffsetInner1"/><feComposite in="shadowOffsetInner1" in2="SourceAlpha" operator="arithmetic" k2="-1" k3="1" result="shadowInnerInner1"/><feColorMatrix values="0 0 0 0 0.412893282 0 0 0 0 0.0445329777 0 0 0 0 0.0445329777 0 0 0 0.08 0" in="shadowInnerInner1"/></filter><filter x="-50%" y="-50%" width="200%" height="200%" filterUnits="objectBoundingBox" id="c"><feMorphology radius=".5" operator="dilate" in="SourceAlpha" result="shadowSpreadOuter1"/><feOffset in="shadowSpreadOuter1" result="shadowOffsetOuter1"/><feGaussianBlur stdDeviation="1" in="shadowOffsetOuter1" result="shadowBlurOuter1"/><feColorMatrix values="0 0 0 0 0.164705882 0 0 0 0 0.207843137 0 0 0 0 0.254901961 0 0 0 0.1 0" in="shadowBlurOuter1" result="shadowMatrixOuter1"/><feMerge><feMergeNode in="shadowMatrixOuter1"/><feMergeNode in="SourceGraphic"/></feMerge></filter></defs><g fill="none" fill-rule="evenodd"><use fill="#FFB652" xlink:href="#a"/><use fill="#000" filter="url(#b)" xlink:href="#a"/><g filter="url(#c)" transform="translate(11 11)" fill="#FFF"><path d="M9 18A9 9 0 1 1 9 0a9 9 0 0 1 0 18zm-.923-6.68h1.786v-.399c0-.225.015-.415.045-.569a1.42 1.42 0 0 1 .159-.43c.076-.133.177-.266.303-.4.126-.133.29-.286.492-.46.232-.205.441-.403.628-.592a3.65 3.65 0 0 0 .476-.592c.132-.205.232-.43.303-.676.07-.246.106-.533.106-.86 0-.482-.086-.908-.257-1.276a2.672 2.672 0 0 0-.704-.93 3.07 3.07 0 0 0-1.03-.569 3.914 3.914 0 0 0-1.233-.192c-.464 0-.898.07-1.301.207a3.28 3.28 0 0 0-1.075.608 3.153 3.153 0 0 0-.764.975 3.908 3.908 0 0 0-.386 1.315l1.862.169c.01-.205.05-.405.12-.6a1.521 1.521 0 0 1 .795-.868c.187-.087.396-.13.628-.13.454 0 .805.135 1.052.406.247.272.37.608.37 1.007 0 .308-.067.569-.203.784-.137.215-.3.41-.492.584l-.681.66c-.192.185-.35.36-.477.523a2.402 2.402 0 0 0-.47 1.06 3.725 3.725 0 0 0-.052.662v.584zm-.303 2.137a1.142 1.142 0 0 0 .363.83c.111.102.24.184.386.246.147.061.3.092.462.092.333 0 .618-.118.855-.353a1.15 1.15 0 0 0 .356-.846 1.09 1.09 0 0 0-.364-.83 1.205 1.205 0 0 0-.847-.338 1.17 1.17 0 0 0-.855.354 1.15 1.15 0 0 0-.356.845z"/></g></g></svg>