<?xml version="1.0" encoding="UTF-8"?>
<svg width="61px" height="53px" viewBox="0 0 61 53" version="1.1" xmlns="http://www.w3.org/2000/svg" xmlns:xlink="http://www.w3.org/1999/xlink">
    <!-- Generator: Sketch 46.2 (44496) - http://www.bohemiancoding.com/sketch -->
    <title>文档中心@1x</title>
    <desc>Created with Sketch.</desc>
    <defs></defs>
    <g id="首页" stroke="none" stroke-width="1" fill="none" fill-rule="evenodd">
        <g id="PaaS平台" transform="translate(-724.000000, -6784.000000)">
            <g id="文档中心" transform="translate(720.000000, 6779.000000)">
                <rect id="Rectangle" fill-opacity="0" fill="#D8D8D8" x="0" y="0" width="70" height="112"></rect>
                <g transform="translate(5.000000, 6.000000)">
                    <g>
                        <path d="M53.9787234,4.10322044 L33.2659574,4.10322044 C32.7458787,4.10322044 32.3244681,4.5271778 32.3244681,5.05011746 C32.3244681,5.57305713 32.7458787,5.99701449 33.2659574,5.99701449 L53.9787234,5.99701449 C55.7091809,5.99701449 57.1170213,7.41294117 57.1170213,9.1533379 L57.1170213,10.2653738 C56.2566255,9.57047761 55.1655021,9.1533379 53.9787234,9.1533379 L30.4414894,9.1533379 L30.4414894,5.05011746 C30.4414894,2.26548269 28.1889447,0 25.4202128,0 L5.0212766,0 C2.25254468,0 0,2.26548269 0,5.05011746 L0,50.053103 C0,50.5760426 0.421410638,51 0.941489362,51 L58.0585106,51 C58.5785894,51 59,50.5760426 59,50.053103 L59,9.1533379 C59,6.36870313 56.7474553,4.10322044 53.9787234,4.10322044 L53.9787234,4.10322044 L53.9787234,4.10322044 Z M57.1170213,49.1063322 L1.88297872,49.1063322 L1.88297872,5.05011746 C1.88297872,3.30972073 3.29081915,1.89379405 5.0212766,1.89379405 L25.4202128,1.89379405 C27.1506702,1.89379405 28.5585106,3.30972073 28.5585106,5.05011746 L28.5585106,10.1002349 C28.5585106,10.6231746 28.9799213,11.047132 29.5,11.047132 L53.9787234,11.047132 C55.7091809,11.047132 57.1170213,12.4630586 57.1170213,14.2034554 L57.1170213,49.1063322 L57.1170213,49.1063322 L57.1170213,49.1063322 Z" id="folder" stroke="#FFFFFF" stroke-width="0.5" fill="#767D85"></path>
                        <g id="Group-2" transform="translate(19.000000, 19.000000)" fill="#6ED0CE">
                            <rect id="Rectangle-16" x="9.41176471" y="0" width="1.17647059" height="19"></rect>
                            <polygon id="Rectangle-16-Copy" transform="translate(10.000000, 9.500000) rotate(90.000000) translate(-10.000000, -9.500000) " points="9.41176471 0 10.5882353 0 10.5882353 19 9.41176471 19"></polygon>
                        </g>
                    </g>
                </g>
            </g>
        </g>
    </g>
</svg>