<svg width="281" height="100" viewBox="0 0 281 100" xmlns="http://www.w3.org/2000/svg"><title>5F3AC471-AE38-42D1-9693-4C05D9A51EE0</title><g fill="none" fill-rule="evenodd"><path fill="none" d="M0 0h280v100H0z"/><g fill="#5A6978"><path d="M73.032 28.702c1.373-.933 3.59-.938 4.971 0l20 13.592c1.372.933 1.38 2.44 0 3.378l-20 13.592c-1.373.933-3.59.938-4.971 0l-20-13.592c-1.372-.933-1.38-2.44 0-3.378l20-13.592zm2.485 3.737L58.532 43.983l16.985 11.544 16.986-11.544-16.986-11.544z"/><path d="M73.032 41.702c1.373-.933 3.59-.938 4.971 0l20 13.592c1.372.933 1.38 2.44 0 3.378l-20 13.592c-1.373.933-3.59.938-4.971 0l-20-13.592c-1.372-.933-1.38-2.44 0-3.378l20-13.592zm2.485 3.737L58.532 56.983l16.985 11.544 16.986-11.544-16.986-11.544zM173 45.534a3.972 3.972 0 0 0-1.996-.534h-8.008A3.998 3.998 0 0 0 159 49v11h4v-9.008A2 2 0 0 1 164.998 49h4.004A1.99 1.99 0 0 1 171 50.992V60h4v-9.008A2 2 0 0 1 176.998 49h4.004A1.99 1.99 0 0 1 183 50.992V60h4V49a4 4 0 0 0-3.996-4h-8.008c-.727 0-1.41.195-1.997.534zM114 53v7h-4V45.992A4.994 4.994 0 0 1 114.995 41H130l-3 4h-13v4h10l-3 4h-7zm12-4a4 4 0 0 1 4.006-4h10.988A4.005 4.005 0 0 1 145 49v7a4 4 0 0 1-4.006 4h-10.988A4.005 4.005 0 0 1 126 56v-7zm4 .997v5.006c0 1.101.892 1.997 1.992 1.997h7.016A2 2 0 0 0 141 55.003v-5.006A1.996 1.996 0 0 0 139.008 48h-7.016A2 2 0 0 0 130 49.997zM152 49v11h-4V49.5c0-2.485 2.02-4.5 4.5-4.5h4.5v4h-5zm66 1.833L223 45h5l-6 7.5h-8l-6-7.5h5l5 5.833zm0 3.334L213 60h-5l6-7.5h8l6 7.5h-5l-5-5.833zM204 49v-1h-6v-3h5.99a4 4 0 0 1 4.01 4.002v6.996A4.002 4.002 0 0 1 204 60h-12a4 4 0 0 1-4-4.002v-2.996A4.002 4.002 0 0 1 192 49h12zm-12 5.005v.99c0 1.111.9 2.005 2.009 2.005h7.982A2.008 2.008 0 0 0 204 54.995v-.99c0-1.111-.9-2.005-2.009-2.005h-7.982A2.008 2.008 0 0 0 192 54.005z"/></g></g></svg>