<svg width="281" height="100" viewBox="0 0 281 100" xmlns="http://www.w3.org/2000/svg"><title>245E910D-5B40-431A-88AA-FA1AD7FB70EF</title><g fill="none" fill-rule="evenodd"><path fill="none" d="M0 0h280v100H0z"/><g fill="#5A697A"><path d="M147.62 58.434h10.193v4.28h-26.608c-.238 0-.476.008-.713-.001-.71-.025-.907-.205-.917-.9-.014-1.09-.004-2.181-.004-3.371h4.278V44.48h4.2c-.022-.02.019.007.045.045a.235.235 0 0 1 .047.122c.002 4.562.002 9.124.002 13.733h4.787V41.326h-12.148v-4.001h26.152v3.934h-9.302v6.296h8.17v3.923c.025-.03 0 .011-.036.039-.034.025-.08.052-.12.052-2.659.003-5.317.002-8.025.002v6.863zM110.858 50.714c-.098 2.124-2.24 6.958-3.246 8.366-1.308 1.83-4.92 4.942-5.047 5.07l-3.23-3.938c1.14-.788 2.328-1.595 3.274-2.684 1.321-1.52 2.824-3.689 3.3-6.215.157-.834.497-4.282.515-5.201.019-.902.004-1.804.004-2.826-1.67 0-3.321-.024-4.971.007-1.591.03-1.653-.029-1.603-1.659.018-.57 0-1.231.031-1.71.016-.24.08-.617.599-.615.52.001 10.276-.023 10.276-.023h1.18c-.335-.791-.632-1.429-.874-2.087-.22-.6.017-.935.673-1.056 1.017-.19 2.035-.369 3.047-.582.201-.042.311-.075.624-.117.458 1.123.894 1.92 1.298 2.981.318.836.294.857 1.109.859 2.857.005 9.72.002 9.72.002v3.988h-16.51v3.395h12.258c1.118.03 1.118 1.149 1.118 1.149s-.412 9.545-.505 12.477c.004 1.416-.735 3.081-5.082 3.007-1.808-.03-3.619-.01-5.428-.02-.724-.004-1.514-3.079-1.814-4.282 1.898 0 5.588.001 6.767-.007 1.18-.008 1.31-5.914 1.181-8.279h-8.664zM82.413 41.298c-3.093-.033-6.186-.012-9.278-.012 0 0-3.852.01-3.943.012-1 .013-1.255.512-1.31 3.93-.011.756.255.925.718.919.951-.013 10.125-.004 10.125-.004-.067.323-.034.683-.199.876-1.477 1.735-2.99 3.44-4.464 5.124l-5.202.002c-.972 0-1.008 0-1 .958.016 1.713.082 3.428.03 5.137-.03.992-3.226 5.195-4.085 6.023-.86.828-2.547.95-2.52-.651.028-1.601.016-13.607-.01-20.411-.006-1.549.54-8.201 7.87-8.201 5.91 0 11.24.022 17.236.025.458 0 2.088 0 1.66 1.06-.913 1.67-2.722 5.244-5.628 5.213zM159.494 59.985c1.136-.24 2.217-.46 3.293-.702 1.383-.31 2.742-.717 4-1.371 1.495-.778 2.938-1.662 3.779-3.209.334-.615.825-1.961.825-1.961h3.636v2.497h2.506v3.857c.544.768 1.829.768 1.829.768h1.998s2.854-.97 2.7-3.15H180.482V52.19h-13.72v5.025h-4.006v-8.436h21.682v.849s-.019 3.426-.006 5.14c.008 1.103.18 1.27 1.322 1.668.788.274 2.388.955 2.388.955s-.566 2.283-1.177 4.315c-.095.316-.546.553-.94.763-.987.529-3.093.827-3.093.827s-4.91.031-6.425 0c-1.514-.03-2.677-1.027-2.937-2.564-.083-.486-.284-2.38-.284-3.009-1.033 1.693-2.502 2.671-3.954 3.518-2.42 1.412-5.034 2.459-7.898 2.645l-1.94-3.9zM205.857 49.608c0 .35-.011.715.003 1.08.026.685.213.86.934.882.333.01.666.001.999.001h7.493c0 2.175-.08 3.536-.068 5.658.03 5.08-5.235 4.383-7.505 4.36-.226-1.27-.549-2.525-.771-3.77.472 0 2.963.038 3.682.038 1.155.07.65-3.083.65-3.083h-5.398V63.8h-4.006v-9.031h-5.148v7.036h-3.913c.021.02-.02-.007-.046-.045a.233.233 0 0 1-.047-.121c-.002-3.323-.002-6.646-.002-10.068h5.426c.998 0 1.997-.003 2.996.002.458.002.675-.272.713-.674.038-.416.008-.838.008-1.29h4zM218.092 41.571c-1.424 0-2.799-.009-4.173.004-.71.007-.901.202-.916.9-.015.709-.003 1.419-.003 2.184h-3.667c-.133-.949.018-1.98-.078-3.04h-3.398c0 .742.015 1.535-.005 2.327-.013.503-.26.75-.763.763-.809.02-1.619.02-2.428 0-.579-.014-.789-.25-.8-.87-.014-.712-.004-1.424-.004-2.202h-3.406v3.02h-3.737c0-.638.004-1.25 0-1.861-.01-1.16-.062-1.217-1.169-1.223-1.282-.007-2.565-.002-3.91-.002v-3.125h5.024v-2.787c.634-.163 1.242-.068 1.838-.084.612-.016 1.225-.004 1.887-.004v2.789h3.444v-2.728h4.015v2.743h3.391c.133-.856-.013-1.794.083-2.758H213c0 .656-.015 1.353.005 2.05.015.5.262.75.77.756 1.422.016 2.845.006 4.317.006v3.142zM167.05 46.707h-7.15v-3.392h7.078v-1.686h3.73v1.608h6.196v-1.605h3.769v1.62h7.145v3.442h-7.09v1.682h-3.763v-1.617h-6.138V48.43h-3.777v-1.722z"/><path d="M194.142 48.763v2.476s-3.235.012-3.617 0c-.382-.012-.382-.382-.382-.382 0-1.502-.007-3.022.003-4.542.005-.903.129-1.02 1.075-1.027 1.522-.01 3.045-.002 4.568-.002h20.127c.286 0 .572-.013.857.002.572.032.788.257.795.878.012 1.19.046 3.725-.01 4.422-.056.697-.214.662-.48.663l-3.501-.01v-2.478h-19.435zM171.072 37.572l-.407-2.307h5.188l.639 2.307h10.744v4.857h-3.908V40.99h-1.469s-3.518.01-5.277.01c-2.044 0-12.218-.012-12.218-.012v1.388h-3.917c-.04-.726-.012-1.516-.017-2.304-.005-.802-.001-2.5-.001-2.5h10.643z"/></g></g></svg>