<svg xmlns="http://www.w3.org/2000/svg" width="280" height="100" viewBox="0 0 280 100">
    <g fill="none" fill-rule="evenodd">
        <path fill="none" d="M0 0h280v100H0z"/>
        <path fill="#5A6978" d="M129.95 46.354c-3.883-.274-7.848-.173-11.537 1.113-1.141.46-1.32-.998-1.487-1.694 1.879-.357 4.868-.246 4.761-2.747-1.175.136-2.342.3-3.521.385.086-.713.192-1.436.32-2.169 1.14-.182 2.3-.385 3.441-.617-.118-.296-.38-.884-.483-1.18-.647.25-1.29.506-1.932.76-.203-.81-.398-1.617-.586-2.423 2.902-.945 5.967-1.313 9.01-1.634.027.653.053 1.313.076 1.97-1.023.299-2.061.556-3.111.763-.164.178-.487.535-.65.713 1.194.625 2.593.357 3.898.475.034.82 0 1.67-.84 2.14.585.607 1.121 1.28 1.14 2.14l1.442.065.04 1.035a168.623 168.623 0 0 0-.462-9.117c-.29-2.026-2.716-1.92-4.255-1.832-2.843.161-6.742.733-7.56 4.03-.9 3.606-1.733 7.457-1.058 11.158a93.404 93.404 0 0 1 11.598-1.447c.332.966.52 1.976.56 2.997a21.001 21.001 0 0 0-13.752 1.576c-.7-2.17-.491-4.478-.491-6.72.124-3.324.077-6.691.733-9.967.245-1.491 2.08-1.253 3.18-1.645 4.738-1.078 10.114-2.83 14.658-.268.542 1.37-.682 3.016-.392 4.54.469 5.643-.58 11.326.245 16.936-2.85.202-5.606-1.934-7.101-4.261 1.374.34 2.682.986 4.122 1.026.033-2.033.031-4.068-.006-6.101zm-74.845 2.183c9.26-6.824 18.44-13.743 27.726-20.537 1.88 1.701 5.495 2.737 4.63 5.876-5.917 4.39-11.832 8.79-17.744 13.198 3.227 2.345 6.37 4.789 9.624 7.101-.03.98.594 2.327-.414 3.008-2.632 1.954-5.265 3.886-7.86 5.854C65.704 59.042 60.326 55.075 55 51.051c.026-.83.056-1.672.105-2.514zm93.626-14.849c-.203-1.324.778-2.426 1.621-3.244.695 1.535 1.517 3.061 1.611 4.81-1.227.292-2.747-.218-3.232-1.566zm24.053 1.897c3.394-.099 6.456-1.69 9.805-1.881.097 1.636-.588 3.038-1.378 4.392-.224 2.87-1.464 5.572-1.36 8.475a51.898 51.898 0 0 1 5.42-.941v-1.607c-.588.03-1.17.062-1.75.102a7.056 7.056 0 0 1-.928-2.767c1.71-.344 3.849-.198 5.01-1.728 1.491-1.966 2.698-4.253 4.825-5.63.611.213.813.934 1.2 1.402a23.677 23.677 0 0 0-3.938 4.06l1.677.564v1.552c-1.263 1.251-3.834 1.464-3.856 3.594 2.16.088 4.323-.083 6.441-.509.865.813 1.08 1.973 1.196 3.094-2.57-.264-5.242-1.099-7.779-.26-1.233 1.134-1.144 2.928-1.37 4.451-1.45 1.783-3.808 2.511-6.036 2.775l-.332.98c-.903-.2-1.785-.484-2.634-.849.373-.285.745-.563 1.118-.841.212-2 .09-4.009.112-6.011-2.608 1.3-4.598 3.444-6.956 5.088a75.01 75.01 0 0 1-1.382-1.665c1.14-1.036 2.638-1.747 3.49-3.05.19-3.053-.42-6.223.489-9.195.495.227.987.465 1.49.714.712.066 1.427.128 2.138.205.526 1.757-1.527 2.288-2.678 3.045.838.052 1.676.084 2.518.121.69 1.666-1.263 2.28-2.343 3.038l-.041 1.347c1.118-.615 2.235-1.2 3.33-1.83.429-2.262.597-4.678.03-6.915-1.315-1.061-3.05-.27-4.47.063a14.094 14.094 0 0 1-1.058-3.383zm7.011 13.251a22.608 22.608 0 0 0 .078 5.382c2.169-1.721 4.452-3.61 4.948-6.476a20.839 20.839 0 0 0-5.026 1.094zm23.501-10.352c2.242-2.234 5.316-3.352 8.11-4.78.395.65.875 1.312.853 2.104-1.014.417-2.165.353-3.193.707-1.972.59-3.502 2.556-5.77 1.97zM90.518 34.52c6.472 4.594 12.703 9.625 19.038 14.438 0 .815.026 1.63.037 2.448-5.066 3.88-10.132 7.757-15.2 11.632-2.615-1.984-5.212-3.991-7.827-5.975 0-.798-.012-1.595-.037-2.392 2.357-1.936 4.802-3.747 7.243-5.59l-2.105-1.633c-2.933 2.254-5.873 4.494-8.798 6.756a1132.984 1132.984 0 0 1-6.919-5.275c-.938-.633-.428-1.91-.539-2.855 5.024-3.865 10.05-7.734 15.107-11.554zm93.223 1.821c1.62-.34 3.185-1.088 4.889-1a5.73 5.73 0 0 1-3.241 3.253 6.527 6.527 0 0 1-1.648-2.253zm29.333.867c.73-1.462 2.703-1.428 4.128-1.789 2.217-.241 5.33-.095 6.465 2.157-1.39 1.086-2.503 2.513-2.418 4.363a11.743 11.743 0 0 0-5.703.729 9.645 9.645 0 0 1-2.472-5.46zm2.931.855l.058 1.405c1.32.41 3.742.49 3.576-1.497-.085-2.018-2.862-.975-3.634.092zm-91.633 4.672v1.705c.59 0 1.183-.029 1.773-.036a9.858 9.858 0 0 1-.898-2.09c-.285.139-.582.278-.875.42zm20.532-4.66c3.043-.551 5.996-1.531 9.07-1.926.064.326.2.98.264 1.305l-1.58.764c.588.311 1.169.63 1.75.958-.883.849-1.852 1.609-2.727 2.46.637 0 1.274 0 1.916.023.132.387.267.778.403 1.17a35.92 35.92 0 0 1-2.67 1.246c-.083.297-.166.589-.245.885a60.57 60.57 0 0 1 2.146-.482c.377.574.754 1.151 1.131 1.736-1.298.43-2.617.796-3.952 1.097.871.541 1.765 1.06 2.595 1.663-.181.366-.378.732-.54 1.097l-2.108-.095a15.452 15.452 0 0 1 0 4.914 32.218 32.218 0 0 1-4.242-2.925c-.483.629-.97 1.257-1.464 1.883-.714-.439-1.42-.881-2.12-1.327 1.012-1.463 2.037-2.896 3.142-4.278-1.122.331-2.214.75-3.266 1.254-.354-.487-.7-.975-1.037-1.462 2.546-.625 4.812-2.058 7.418-2.453-.068-.201-.207-.607-.275-.812-1.184.245-2.353.53-3.511.87-.317-.629-.63-1.254-.935-1.883a39.079 39.079 0 0 0 5.415-1.718c1.067-.643 1.132-2.04 1.132-3.133-1.43.848-2.007 2.504-3.394 3.389-1.72-.527.29-2.376.52-3.411-.735.303-1.463.625-2.187.954a30.87 30.87 0 0 1-.649-1.762zm1.886 10.066c-.14 1.115-.28 2.23-.378 3.352l2.067.45c.319-1.33.375-2.705.166-4.054l-1.855.252zm8.975-9.415c2.274-.85 4.767-1.183 6.817-2.577.353.768.64 1.564.854 2.38-1.566.897-3.318 1.307-5.064 1.7-.861.67-.979 1.912-1.301 2.903 2.739-.537 5.386-1.452 8.136-1.931a22.165 22.165 0 0 1 1.423 3.306c-1.518.225-3.044 0-4.562-.08-.806 3.198-.205 6.515-.84 9.73-.22 1.343.11 2.682.367 3.992a73.784 73.784 0 0 1-1.833-.13c-.887-4.41.183-9.012-.88-13.374-.675.269-1.342.552-2.006.838-.366 1.053-.858 2.102-.88 3.241-.036 2.062-2.295 3.114-4.033 3.63 2.01-3.027 3.744-6.417 3.685-10.133.136-1.15-.37-2.446.117-3.495zm52.107-.132c.646.131 1.29.277 1.934.438.018.223.05.669.07.888l1.625-.42c.335.717.59 1.47.758 2.244-1.041.248-2.083.486-3.092.826.686.793 1.615 1.305 2.363 2.028.218.83-.272 1.55-.69 2.211-.631-.3-1.264-.594-1.898-.884-.526 3.234-.511 6.516-.587 9.78-.686-.143-1.361-.3-2.033-.475 1.031-3.096.704-6.422.857-9.634-1.318 1.52-2.733 2.975-3.829 4.678-.638 1.25-2.235.512-3.313.537 2.025-2.397 4.656-4.385 5.908-7.36-1.862-.095-3.629.456-5.407.96a11.929 11.929 0 0 1-.338-3.325c2.576.353 5.199.04 7.621-.91 0-.53.018-1.056.05-1.582zm4.632 5.14c3.015-.26 6.048-.377 9.006-1.066l.653 1.556c-1.039 1.096-3.125.983-3.507 2.637 1.008-.075 2.017-.158 3.03-.23 0 .675 0 1.349-.046 2.02-1.047.41-2.148.716-3.114 1.296-.13.55.21 1.1.764 1.24 1.853.342 3.752.218 5.628.233a5.228 5.228 0 0 1 .153 3.47c-1.716-.497-3.225-1.7-5.078-1.665a26.55 26.55 0 0 0-10.26 1.661 48.002 48.002 0 0 1-.733-2.358c2.105-.328 4.241-.49 6.32-.98.852-.117.707-1.13.818-1.722-.827.035-1.648.161-2.446.377a31.944 31.944 0 0 1-.848-2.423c1.146-.188 2.292-.327 3.412-.542-.088-.498-.187-.991-.29-1.48a44.95 44.95 0 0 0-2.38.297 4.665 4.665 0 0 1-1.082-2.321zm-24.69 5.452a23.01 23.01 0 0 1 6.375 1.65c.265 1.451.297 3.004-1.083 4.054-2.213-1.538-4.019-3.485-5.291-5.704zM74.557 63.698c2.737-2.188 5.59-4.217 8.346-6.365 2.617 2.026 5.325 3.975 7.95 6.008v2.397A3348.59 3348.59 0 0 1 82.498 72c-2.655-1.963-5.276-3.97-7.927-5.941 0-.788-.004-1.576-.015-2.361zm40.596-3.074c1.476-2.403 5.777-2.202 6.663.624l-.982.367c-.516-.961-1.346-1.879-2.582-1.684-3.162-.07-3.638 5.28-.72 6.037 1.085.4 2.177-.114 3.173-.525 0-.503 0-1.002.026-1.505l-2.328-.03v-.953h3.41v2.987c-1.536 1.1-3.65 1.615-5.402.69-2.103-1.09-2.428-4.114-1.258-6.008zm8.312-1.639l1.144-.022c.065 1.93-.126 3.873.133 5.795.271 1.589 2.799 1.666 3.698.589.66-2.048.225-4.251.351-6.362.381 0 .762 0 1.144-.022-.035 1.966.152 3.947-.13 5.925-.381 3.006-6.004 2.962-6.23-.123-.228-1.914-.08-3.862-.11-5.78zm10.967.098c3.109-.844 5.402 2.95 4.144 5.725-.753 2.31-3.908 3.041-5.653 1.46-2.25-1.917-1.576-6.59 1.509-7.185zm-.318 1.15c-1.724.96-1.82 3.702-.686 5.17 1.346 1.533 4.084.639 4.282-1.439.675-2.187-1.321-4.932-3.596-3.731zm5.164-1.187c.417-.03.835-.06 1.253-.083a95.78 95.78 0 0 1 2.111 3.003c.746-1.001 1.492-1.995 2.238-2.98l1.179.04c-.91 1.273-1.847 2.527-2.783 3.78.989 1.438 2.037 2.834 2.984 4.286l-1.343.02-2.323-3.341c-.787 1.126-1.575 2.21-2.354 3.325h-1.313c.962-1.456 2.037-2.826 3.044-4.245-.907-1.26-1.817-2.522-2.693-3.805zm8.62-.06l.796-.023c.024 2.683 0 5.367 0 8.047l-.796.101c-.018-2.71 0-5.42 0-8.126zm2.466.043l1.146-.04c1.417 2.041 2.838 4.083 4.24 6.132v-6.077l1.081-.081c.023 2.699.035 5.398 0 8.1l-1.184-.173c-1.406-1.998-2.777-4.017-4.187-5.996-.02 2.071.023 4.146-.03 6.217l-1.005-.255c-.18-2.602-.03-5.22-.061-7.827zm11.378-.043c.364 0 .727 0 1.09-.023.03 2.36 0 4.72.019 7.085h3.78v1.063h-4.878c-.014-2.685-.01-5.414-.01-8.125zm6.534-.023h.733c.11 2.681.053 5.37.037 8.05l-.783.098c.013-2.715-.021-5.437.013-8.148zm5.428 0h1.135c1.09 2.687 2.181 5.375 3.199 8.1l-1.225-.042c-.306-.808-.609-1.617-.91-2.425-1.09 0-2.144 0-3.213.045-.262.748-.524 1.534-.778 2.305l-1.207.165c.941-2.732 1.988-5.438 3-8.148zm-.64 4.697h2.509a128.32 128.32 0 0 1-1.29-3.578c-.396 1.198-.802 2.39-1.219 3.578zm5.001-4.638l1.116-.059a527.185 527.185 0 0 1 4.275 6.176v-6.154l1.089.026c0 2.687.038 5.373-.023 8.056l-1.211-.185c-1.364-2.002-2.72-4.011-4.142-5.976-.03 2.068 0 4.137-.042 6.205l-1.009-.24c-.171-2.613-.007-5.236-.053-7.849zm10.603.19a3.73 3.73 0 0 1 2.824.059 3.497 3.497 0 0 1 1.905 2l-1.062.274c-.53-.842-1.26-1.794-2.445-1.589-3.438.066-3.384 6.174.054 6.204 1.257.088 2.01-.963 2.471-1.93l1.105.223c-.463 1.538-1.85 2.857-3.634 2.633-4.286.187-5.054-6.669-1.218-7.873zm5.666-.238h1.152c.019 1.089.027 2.177.03 3.27h4.168v-3.247c.384 0 .768-.027 1.152-.034.038 2.691 0 5.382 0 8.073l-1.152.075v-3.798a166.23 166.23 0 0 0-4.18 0v3.73l-1.15.064c-.024-2.702-.016-5.427-.02-8.133zm8.16-.003c1.835-.019 3.673 0 5.508 0 .018.25.05.756.067.998h-4.516v2.407h4.123c.028.25.082.756.106 1.002h-4.23v2.667h4.634c0 .269 0 .798-.018 1.066-1.895 0-3.79 0-5.667-.023-.029-2.69-.018-5.403-.007-8.117zm7.334-.008c.556.105 1.293 0 1.571.626 1.29 1.824 2.483 3.716 3.791 5.53.042-2.024 0-4.047.03-6.066l1.114-.041v8.1h-1.144c-1.396-2.046-2.784-4.096-4.195-6.137 0 2.03 0 4.06-.042 6.091l-1.103.038c-.06-2.713-.022-5.425-.022-8.141zm9.46.911c1.836-1.576 5.194-1.102 5.976 1.385l-.988.368c-.562-1.69-2.693-2.18-4.081-1.187-1.65 1.404-1.525 4.865.775 5.512 1.102.419 2.255-.066 3.262-.54 0-.368-.022-1.103-.033-1.47-.9-.1-2.413.415-2.447-.974 1.18-.022 2.362-.022 3.545-.022v2.98c-1.524 1.143-3.673 1.624-5.403.695-2.384-1.26-2.528-4.987-.606-6.747z"/>
    </g>
</svg>
