<svg xmlns="http://www.w3.org/2000/svg" width="320" height="100" viewBox="0 0 320 100">
    <g fill="#2A3541" fill-rule="evenodd">
        <path d="M89.012 70.196c-11.41 0-20.66-9.148-20.66-20.431 0-11.283 9.25-20.432 20.66-20.432 11.409 0 20.663 9.149 20.663 20.432s-9.254 20.43-20.663 20.43M88.765 28C76.745 28 67 37.745 67 49.765c0 12.02 9.745 21.765 21.765 21.765 12.02 0 21.765-9.745 21.765-21.765 0-12.02-9.745-21.765-21.765-21.765zm15.47 11.218c.552.797.5 1.487-.152 2.065l-.577-.815c.25-.232.287-.49.101-.772-.232-.308-.608-.29-1.126.053-.48.334-.602.674-.36 1.015.183.258.435.302.765.135l.584.829c-.752.377-1.407.205-1.96-.518-.607-.916-.476-1.697.391-2.34.912-.559 1.689-.443 2.335.348zm.959 3.885l-1.206.134.265.628.94-.762zm1.106.131l-2.553 2.295-.408-.968.346-.274-.405-.967-.438.047-.4-.951 3.447-.165.411.983zm1.166 4.584l-.832.156-.176-.925-2.362.442-.199-1.045 2.36-.446-.18-.924.834-.157.555 2.899zm.051 1.776l-3.244.127-.04-1.063 3.244-.127.04 1.063zm-1.668 1.665c-.607-.053-.943.114-1.007.506-.04.416.239.668.845.759.598.052.923-.125.976-.53.04-.391-.23-.638-.814-.735zm1.604.836c-.186 1.046-.819 1.534-1.9 1.467-1.07-.185-1.554-.815-1.463-1.893.175-1.07.814-1.55 1.914-1.447 1.042.19 1.524.816 1.45 1.873zm-.923 3.575l-2.064.462.708.227.958.355-.36.948-3.041-1.132.354-.932 2.065-.462-.715-.21-.956-.357.359-.948 3.042 1.132-.35.917zm-3.67 4.783a.52.52 0 0 1-.536-.499.519.519 0 0 1 1.038-.03.515.515 0 0 1-.503.529zm-2.246 3.671a8.965 8.965 0 0 0-.63-.247c.18.3.257.514.238.643.004.127-.106.268-.332.417l-.72.524c-.307.24-.546.24-.712-.004l-.624-.838.158-.116c.238-.174.371-.234.398-.18.02.03.042.056.062.084a.572.572 0 0 0 .1.192l.254.341c.05.05.108.058.17.026l.52-.378c.113-.05.084-.214-.077-.49a.55.55 0 0 0 .133-.055c.201-.075.338-.132.416-.172a6.773 6.773 0 0 0-.392-.128c-.082-.028-.128-.053-.142-.072.157-.364.233-.53.228-.496.538.147.936.273 1.19.38a4.92 4.92 0 0 1-.238.57zm-3.025 2.009a5.21 5.21 0 0 0-.374-1.127c.164-.077.354-.145.58-.205.234.692.363 1.093.39 1.207-.348.09-.546.133-.596.125zm1.768-2.056a2.172 2.172 0 0 1-.328.48 1.616 1.616 0 0 1-.29-.183 8.16 8.16 0 0 0-.4-.235c.21-.256.338-.4.385-.435.097.048.305.173.633.373zm-.919-.756l.531-.387-.234-.31-.527.385.23.312zm-.473.346l-.232-.313-.518.378.235.311.515-.376zm.431-2.484l1.313 1.76-2.454 1.79-1.312-1.76 2.453-1.79zm-5.312 5.8l.103.428.399-.09-.102-.432-.4.094zm.03-1.656l-.4.092.082.344.398-.092-.08-.344zm.175.757l-.398.092.09.378.4-.093-.092-.377zm.078 2.083l-.49.114-.55-2.334-.05.1a1.02 1.02 0 0 1-.142-.131l.084.343-.28.066.39 1.631c.035.163.018.281-.064.36-.078.077-.283.163-.617.252a2.528 2.528 0 0 0-.213-.44c.303-.06.423-.14.36-.246l-.231-.98c-.08.392-.224.788-.434 1.189a6.068 6.068 0 0 1-.24-.163l-.192-.118c.306-.507.463-.941.463-1.303l-.578.133-.157-.435c.133-.055.193-.116.173-.184a5.103 5.103 0 0 0-.067-.51l.553-.003c-.013.15-.02.331-.02.548l.284-.063-.188-.791-.907.21-.107-.448 1.755-.407.109.447-.368.086.188.789.193-.044-.098-.105c.22-.402.32-.901.284-1.498.073-.005.183-.005.332-.005l.327-.004c-.07.27-.122.52-.15.743l.411-.097c-.02-.032-.042-.086-.075-.163a3.884 3.884 0 0 0-.157-.362c.206-.107.372-.19.493-.24.129.236.226.416.292.546-.006.016-.1.065-.272.155l.817-.19.101.428-.699.162.087.346.573-.136.102.429-.574.135.087.36.573-.134.104.447-.571.135.097.411.675-.159.106.431-1.6.371.078.326zm-4.355-6.765c-6.499 0-11.767-5.211-11.767-11.637 0-6.428 5.268-11.636 11.767-11.636 6.501 0 11.767 5.208 11.767 11.636 0 6.426-5.266 11.637-11.767 11.637zm0-24.235c-7.034 0-12.738 5.642-12.738 12.598S81.978 62.36 89.012 62.36c7.037 0 12.739-5.64 12.739-12.596s-5.702-12.598-12.739-12.598zM74.96 49.765c0-7.674 6.29-13.894 14.053-13.894 7.765 0 14.055 6.22 14.055 13.894 0 7.675-6.29 13.895-14.055 13.895-7.762 0-14.053-6.22-14.053-13.895zm10.79 15.451l-.423-.071-.124.712.438.074-.075.453-.44-.074-.116.66.51-.092c.008.013.008.15 0 .411-.012-.014-.014.004-.012.051.292-.213.58-.44.863-.679a3.788 3.788 0 0 1-.402.113c.015-.01-.012-.008-.071.007a10.255 10.255 0 0 0-.208-.896c.01-.01.161-.043.449-.102-.024.006 0 .006.075-.007.007.027.016.057.02.095.077.241.14.483.181.727l.074-.078.141-.851-.931-.158.05-.295zm2.52.711l-1.074-.182-.05.298a.445.445 0 0 0 .002.089c.022.217.048.385.077.496a4.27 4.27 0 0 0 .42-.555c.145.095.31.237.508.427-.003.01-.014.026-.045.044a5.731 5.731 0 0 0-.693.654c.158.289.37.562.638.823a1.7 1.7 0 0 1-.148.136c-.158.127-.284.238-.386.327-.212-.226-.41-.588-.59-1.084l-.16.94c-.017.142-.09.224-.225.25-.128.037-.354.035-.67-.007l-.016-.127a4.908 4.908 0 0 0-.053-.421l.3.05c.072 0 .116-.034.13-.104l.112-.678c-.14.12-.332.302-.582.547l-.303.288c-.093-.1-.224-.27-.399-.515a2.9 2.9 0 0 0 .364-.223c-.09.02-.273.066-.55.138-.579.141-.873.211-.884.208a3.368 3.368 0 0 1-.109-.626c.036-.005.09-.007.164-.007.17-.021.305-.038.405-.057l.144-.834-.49-.085.076-.454.493.085.122-.695-.511-.086.08-.471 1.495.255-.05.294.878.149.117-.679.301.05c.21.036.314.07.307.106a.442.442 0 0 1-.03.067.953.953 0 0 0-.078.237l-.053.314.352.06a2.351 2.351 0 0 0-.221-.38c.172-.112.316-.2.425-.267.172.255.296.45.367.583-.08.046-.157.078-.235.102l.408.07-.08.45zm-7.763-3.046l-.389-.247-.347.534.449.286-.261.4-.45-.288-.349.534c.199.043.396.079.59.104l.016.01-.183.282c.699-.269 1.256-.668 1.672-1.2l-.719-.458-.029.043zm2.158 1.313l-.885-.564a6.67 6.67 0 0 1-.288.317.933.933 0 0 1-.13.13l-.202.312c.107.012.246.033.427.061.025.437-.015 1.007-.12 1.71l-.612-.1a6.34 6.34 0 0 0 .188-1.494l-1.22 1.868-.477-.305.88-1.349c-.564.298-.969.473-1.214.528a3.485 3.485 0 0 0-.288-.54c.164-.01.343-.055.54-.138a17.63 17.63 0 0 0-1.047-.123 8.317 8.317 0 0 1-.43-.062c.06-.216.112-.448.16-.696a.859.859 0 0 0 .127.037c.24.082.409.136.51.159l.445-.683-.438-.278.266-.4.431.276.35-.533-.496-.314.27-.416 1.334.85.031-.045 2.16 1.377-.272.415zm-7.021-2.912a.521.521 0 0 1-.535-.499.517.517 0 0 1 .504-.527.516.516 0 0 1 .535.497.517.517 0 0 1-.504.53zm-1.396-3.357c-1.05.384-1.806.1-2.275-.853-.325-.8-.162-1.426.487-1.881l.405.93c-.221.17-.27.39-.157.656.17.357.544.42 1.12.186.537-.242.716-.564.54-.971-.147-.243-.33-.36-.558-.35l.19.432-.65.277-.583-1.33 1.638-.7.274.625-.276.156c.31.098.553.346.73.752.358.938.064 1.627-.885 2.07zm-3.324-4.406l2.441-.496-.297-1.42.744-.149.511 2.461-3.182.646-.217-1.042zm2.144-3.826c-.008-.42-.318-.636-.929-.65-.604.022-.903.235-.905.643.011.395.31.606.898.631.613-.02.923-.228.936-.624zm-2.628-.011c.05-1.058.617-1.621 1.701-1.685 1.082.05 1.642.617 1.686 1.698-.037 1.084-.61 1.639-1.719 1.67-1.056-.064-1.613-.624-1.668-1.683zm1.653-4.27c-.184-.055-.297.07-.343.369l-.084.356.515.12.1-.426c.055-.238-.007-.378-.188-.42zm1.172.163c-.21-.072-.352.092-.424.494l-.076.322.584.135.107-.44c.081-.305.02-.475-.19-.51zm-2.23-.067c.192-.866.555-1.228 1.088-1.092.288.077.487.265.594.565.185-.314.467-.434.847-.36.642.137.856.665.64 1.582l-.361 1.53-3.162-.731.354-1.494zm3.071-2.39l.296-.617-1.203-.18.907.797zm-1.547-1.7l3.432.345-.455.945-.434-.069-.456.943.33.292-.454.93-2.427-2.424.464-.962zm1.611-2.549l1.994 1.474.874-1.159.61.45-1.524 2.013-2.6-1.926.646-.852zm3.304-3.4l2.104 2.449-.823.69-2.102-2.45.82-.69zm2.987-1.973l.398.639-1.35.827.242.387 1.14-.7.4.639-1.142.699.27.43 1.394-.856.4.639-2.31 1.414-1.708-2.731 2.266-1.387zm1.903-.792l.883 2.302 1.37-.515.267.703-2.376.892-1.153-3.005 1.01-.377zm4.939-1.208l.148.826-.938.164.416 2.338-1.06.186-.418-2.339-.94.162-.147-.825 2.939-.512zm1.985 1.973c-.83-.218-1.24-.58-1.23-1.078.041-.662.515-.993 1.422-.994.823.028 1.277.377 1.368 1.042l-1.007-.022c-.007-.106-.058-.177-.15-.212a.418.418 0 0 0-.266-.079c-.235-.004-.352.057-.356.185-.003.116.205.23.628.346.817.217 1.22.565 1.21 1.042-.042.71-.557 1.058-1.544 1.046-.859-.056-1.332-.417-1.42-1.083l1.022.026a.487.487 0 0 0 .168.265.615.615 0 0 0 .3.078c.306.007.459-.065.465-.218.002-.126-.2-.243-.61-.344zm4.082-1.524l2.542.798-.232.716-1.513-.475-.137.433 1.276.4-.228.716-1.279-.403-.154.484 1.564.491-.228.716-2.593-.814.982-3.062zm4.459 3.564c.332-.508.245-.878-.26-1.107l-.183-.103-.852 1.49.202.112c.44.246.803.116 1.093-.392zm.252-1.683c.97.554 1.208 1.275.715 2.162-.556.971-1.337 1.178-2.341.617l-1.215-.678 1.595-2.797 1.246.696zm2.21 1.359l.784.703-1.303 1.422c-.288.297-.293.556-.025.783.253.226.509.189.77-.112l1.306-1.425.783.705-1.235 1.347c-.655.747-1.363.762-2.135.04-.81-.694-.87-1.4-.18-2.117l1.236-1.346zM89.013 30.43c-10.8 0-19.554 8.656-19.554 19.335 0 10.68 8.754 19.337 19.554 19.337 10.798 0 19.556-8.658 19.556-19.337 0-10.68-8.758-19.335-19.556-19.335zm8.203 32.228l-.518.377.243.328.518-.379-.243-.326zm1.248-.406l-.246-.326-.529.389.242.326.533-.389zm-11.11-17.196c2.837-.53 3.998 1.109 4.417 2.028-.43-.724-1.484-1.816-3.833-1.385h-.01s-2.294.472-2.772 3.637c-.03.2-.05.406-.066.62a6.62 6.62 0 0 0-.03.664c0 .99.182 2.078.718 3.073-1.216-1.185-1.396-2.884-1.425-3.478-.13-3.445 1.806-4.937 3-5.16zm5.702-.161v3.413h-.296l-.719-.643h.298v-3.359l.717.589zm-4.69 4.627l.886-.955c.115-.023 1.233-.244 2.514.722l.022.019.013-.019s1.308-.966 2.51-.738l.824.998c-2.337-.674-3.362.776-3.362.776-1.058-1.249-2.813-.95-3.408-.803zm-5.898.514c.043 1.692.631 2.921 1.484 3.79a7.114 7.114 0 0 0 2.557 1.857 7.612 7.612 0 0 0 2.34.576h.01c2.568.223 4.423-1.16 4.432-1.166l.006-.007V51.781c0-.31.009-.56.082-.776.066-.22.208-.405.48-.59.516-.355 1.702-.177 1.708-.177l.01-.06c-.01 0-1.218-.179-1.755.192-.282.191-.427.384-.503.613-.075.23-.082.48-.082.798v3.274c-.157.118-1.934 1.353-4.379 1.146a7.734 7.734 0 0 1-1.235-.207 7.06 7.06 0 0 1-3.076-1.649c1.099.818 2.468 1.185 3.696 1.236 2.713.109 4.35-1.213 4.35-1.213v-3.791c1.337-1.093 2.992-.45 2.992-.45-.263-.312-.263-.526-.263-.526-.031-.01-.059-.016-.09-.025l-.882-1.069-.009-.008h-.013c-1.144-.228-2.385.623-2.54.732-1.36-1.02-2.55-.715-2.55-.715h-.013v.007l-.952 1.023-.114.033c-.086.413-.237.548-.237.548 2.096-.548 3.02.45 3.02.45v3.452c-.555.768-2.02.945-2.863.796-.95-.17-1.652-.552-2.18-1.025-.587-1.018-.78-2.149-.78-3.18 0-.218.007-.442.02-.657.026-.213.05-.421.077-.62.47-3.118 2.722-3.584 2.726-3.584 3.35-.621 4.039 1.913 4.039 1.921v.007l.006.008.74.665.01.007H93.108V44.87l-.007-.013-.763-.627v-.075h-.403s0 .302-.398.464c-.49.208-.916-.028-1.264-.117-.745-.214-2.688-.637-4.451.148-3.342 1.47-3.38 4.634-3.355 5.386zm14.771 5.27a.461.461 0 0 0-.132.156c-.022.03-.035.052-.06.066a.083.083 0 0 1-.044.015c-.015 0-.028 0-.044-.006a.167.167 0 0 1-.034-.035c.081-.113.134-.27.196-.477l.042-.103c.102-.324.46-.902.635-1.19.02-.036.042-.066.057-.095.022-.037.047-.075.06-.103.038-.055.063-.096.087-.14a.519.519 0 0 0 .145-.083c.047-.037.067-.081.098-.126a.252.252 0 0 1 .105-.092c.074-.018.72-.185 1.158-.711.545-.666.83-1.74.792-2.39 0 0-.92.657-1.354 1.273-.427.595-.623 1.502-.61 1.8a.274.274 0 0 0-.113.107c-.029.043-.051.08-.091.118a.488.488 0 0 1-.107.06c.026-.055.053-.122.094-.231.09-.237.17-.828.22-1.175.01-.072.019-.133.025-.186.031-.166.06-.256.104-.383.02-.052.043-.11.066-.175.12-.083.14-.168.166-.29.016-.044.025-.088.045-.15.023-.075.04-.124.055-.164.087-.05.621-.37.91-.995.314-.68.42-1.73.176-2.58 0 0-.736.954-.953 1.627 0 0-.375 1.015-.156 1.933-.016.04-.035.092-.06.173-.023.061-.032.105-.04.149-.027.1-.044.177-.125.247l.011-.034c.05-.147.062-.332.056-.516a5.194 5.194 0 0 0-.056-.547c-.004-.043-.013-.09-.02-.141-.045-.326-.108-.748-.048-1.098.117-.14.107-.337.093-.469v-.058l-.007-.009c0-.06.011-.132.022-.19.078-.06.595-.502.664-1.569.084-1.145-.44-2.106-.513-2.232 0 0-.445 1.161-.51 1.93-.064.76.154 1.51.332 1.86a.91.91 0 0 0-.017.21v.058c.014.11.02.258-.048.384.036-.37-.181-.977-.364-1.419-.037-.087-.066-.17-.104-.236-.03-.074-.062-.131-.073-.177a1.435 1.435 0 0 1-.136-.498c.114-.075.087-.221.05-.351-.007-.015-.007-.03-.007-.038a6.134 6.134 0 0 0-.087-.313 2.63 2.63 0 0 0 .216-1.764c-.233-.992-.826-1.683-1.071-1.906 0 0-.117.997 0 1.838.113.828.409 1.398.838 1.863.02.077.052.194.073.282 0 .023.01.029.01.043.034.117.058.242-.026.307-.004-.06-.004-.1-.004-.1v-.005c0-.193-.15-.438-.323-.651-.037-.045-.064-.09-.104-.125-.037-.038-.073-.083-.112-.113l-.007-.014a2.618 2.618 0 0 1-.518-.718 2.962 2.962 0 0 1-.06-.14c-.017-.05-.035-.096-.048-.14a.787.787 0 0 0-.087-.201c-.062-.17-.152-.392-.19-.484.033-.16.136-.77-.053-1.311-.21-.62-.779-1.514-1.668-1.935 0 0 .135.93.442 1.751a3.135 3.135 0 0 0 1.261 1.53c.032.08.086.214.135.343a1.205 1.205 0 0 0-.135-.144 1.93 1.93 0 0 0-.581-.325c-.456-.178-.718-.443-.718-.443l-.012.012c-.179-1.33-1.587-1.543-1.587-1.543-1.188-.19-2.257.341-2.257.341 1.427.22 1.635.953 2.323 1.221.566.21 1.302.065 1.484.024.02.02.284.285.738.455.23.088.416.192.56.319.084.07.146.15.196.235a.348.348 0 0 0-.256-.09s-.305-.042-.613-.227c-.299-.193-.688-.392-1.359-.274-.719.134-1.288.518-1.449.782 0 0 .617-.013 1.035.134.414.147 1.439.367 2.34-.378.149-.041.271.056.337.127.016.035.039.067.05.104a.794.794 0 0 0 .04.14c.024.052.037.102.068.147.12.251.305.52.531.74l.007.014c.038.03.075.066.108.111.036.039.07.075.102.118.149.191.278.393.297.564a.354.354 0 0 0-.219-.164c-.073-.037-.269-.15-.543-.428-.314-.31-.626-.584-1.239-.659-.482-.059-1.188.03-1.524.29 0 0 .35.058.745.345.396.289.808.577 1.52.674.532.062.856-.116 1.04-.193a.34.34 0 0 1 .228.206c.002.086.016.372.15.644.023.043.045.104.074.177.037.067.068.148.106.237.133.322.282.74.336 1.078a.325.325 0 0 0-.143-.109 2.464 2.464 0 0 1-.456-.675c-.277-.575-1.116-1.344-2.547-1.106 0 0 .356.2.633.538.341.41 1.056 1.44 2.35 1.269a.284.284 0 0 1 .175.165c.012.103.015.197.002.274-.073.37-.007.813.037 1.152.01.047.013.096.02.133.024.17.049.362.055.54.003.081 0 .157-.006.23a.211.211 0 0 0-.122-.107 2.146 2.146 0 0 1-.259-.773c-.09-.57-.726-1.662-2.168-1.884 0 0 .23.28.416.613.223.41.6 1.735 1.983 2.068v.002c.088.027.127.09.14.158a.984.984 0 0 1-.039.19c-.026.11-.057.183-.084.25-.046.132-.084.22-.115.398 0 .047-.016.113-.022.187-.053.346-.135.937-.22 1.158a4.627 4.627 0 0 1-.073.186.372.372 0 0 0-.064-.194 3.425 3.425 0 0 1-.04-.819 2.116 2.116 0 0 0-.464-1.522c-.715-.931-1.135-.931-1.135-.931s.18.227.248.531c.07.302.093 1.147.403 1.73.194.368.488.783.957 1.015.063.068.072.179.07.248a1.522 1.522 0 0 1-.094.164c-.015.028-.037.059-.057.095-.018.03-.04.06-.062.104-.18.287-.538.873-.65 1.204-.014.05-.023.074-.03.103-.045.143-.085.26-.13.354a.378.378 0 0 0-.05-.172c0-.106.01-.355.105-.616.133-.378.2-.754.12-1.295-.076-.531-.531-1.463-.963-1.73 0 0 .095.335.053.74-.048.4-.115.91-.048 1.404.068.482.195 1 .715 1.532.034.07.042.139.039.19a.387.387 0 0 1-.161.17 1.17 1.17 0 0 1-.138.045c-.201.052-.484.125-.845.642-.095.15-.177.288-.254.422-.064.11-.122.21-.181.294l-.001-.04c.007-.064.042-.286.244-.58.232-.347.409-.59.464-1.123.051-.628-.097-1.521-.48-2.077 0 0-.02.378-.164.792-.148.414-.373.982-.396 1.516-.021.505.002.902.3 1.436a.371.371 0 0 1-.009.13.722.722 0 0 1-.164.163l-.434.228c-.394.207-.903.473-1.069.62a3.926 3.926 0 0 0-.234.184.363.363 0 0 0 .014-.186c.041-.08.161-.279.433-.499.236-.2.553-.468.708-1.013.157-.525.279-1.397.024-2.041 0 0-.009.273-.257.614-.254.333-.606.821-.83 1.36-.194.484-.24 1.113-.11 1.567a.317.317 0 0 1-.032.24c-.03.026-.058.05-.088.078-.022.022-.044.044-.068.057-.027.018-.051.037-.084.055a.799.799 0 0 1-.492.103l-.037-.009c-.294-.036-.883-.117-1.301.236l.013.015-.05.03c.015-.058.035-.16.048-.295.055-.061.214-.215.526-.347.293-.118.682-.288 1.003-.805.314-.503.528-1.33.471-1.864 0 0-.142.334-.529.6-.376.267-1.524 1.062-1.495 2.371-.012.174-.04.305-.053.359-.23.135-.613.315-1.025.315-.362 0-.764-.008-1.156.121-.391-.129-.792-.121-1.15-.121-.412 0-.792-.18-1.018-.315a2.031 2.031 0 0 1-.055-.359c.028-1.309-1.12-2.104-1.494-2.372-.387-.265-.53-.6-.53-.6-.06.535.156 1.362.47 1.865.32.517.704.687 1.003.805.313.132.47.285.526.347.014.134.034.237.05.295a1.922 1.922 0 0 1-.05-.031l.012-.014c-.418-.353-1.01-.272-1.304-.236l-.035.009a.798.798 0 0 1-.575-.158c-.023-.013-.045-.035-.066-.057h-.01l-.073-.066a.319.319 0 0 1-.037-.252h-.002c.131-.455.083-1.084-.118-1.568-.216-.538-.577-1.026-.825-1.36-.245-.34-.25-.613-.25-.613-.257.644-.137 1.516.02 2.041.16.545.473.812.708 1.013.269.222.39.421.433.5a.366.366 0 0 0 .016.19c-.122-.105-.225-.177-.237-.189-.165-.147-.672-.413-1.068-.62-.197-.097-.357-.185-.436-.228a.705.705 0 0 1-.163-.162.392.392 0 0 1-.01-.123c.302-.538.325-.936.303-1.444-.024-.534-.25-1.102-.396-1.516-.141-.414-.166-.792-.166-.792-.387.556-.529 1.45-.478 2.077.053.533.233.776.465 1.124.197.287.236.506.243.575 0 .015-.003.034-.001.048-.06-.086-.119-.186-.184-.298a6.313 6.313 0 0 0-.255-.422c-.356-.517-.642-.59-.843-.642-.053-.014-.1-.03-.137-.045a.37.37 0 0 1-.162-.168.383.383 0 0 1 .033-.184c.528-.535.654-1.056.72-1.54.07-.494 0-1.004-.042-1.405-.047-.404.05-.738.05-.738-.433.266-.89 1.198-.97 1.73-.076.54-.007.916.127 1.294.097.266.107.518.106.621a.387.387 0 0 0-.051.174c-.046-.095-.084-.215-.132-.361a1.338 1.338 0 0 0-.029-.103c-.113-.331-.471-.923-.65-1.204-.022-.044-.042-.075-.06-.104-.022-.036-.044-.067-.058-.095a1.58 1.58 0 0 1-.094-.164c-.002-.07.007-.18.068-.248.471-.232.755-.647.96-1.015.306-.583.334-1.428.4-1.73.071-.304.25-.531.25-.531s-.42 0-1.137.93a2.134 2.134 0 0 0-.462 1.523c.024.438-.027.744-.042.822a.313.313 0 0 0-.066.184l-.074-.179c-.084-.228-.172-.82-.214-1.158-.01-.083-.024-.14-.031-.187-.024-.178-.06-.266-.104-.39-.029-.075-.062-.148-.09-.259a1.054 1.054 0 0 1-.04-.193.192.192 0 0 1 .133-.153c1.39-.328 1.771-1.66 1.995-2.071.175-.333.416-.613.416-.613-1.443.222-2.08 1.315-2.169 1.884a2.134 2.134 0 0 1-.26.775.217.217 0 0 0-.123.11 1.942 1.942 0 0 1-.006-.234 5.994 5.994 0 0 1 .075-.68c.045-.333.113-.776.04-1.146a.96.96 0 0 1 0-.274.288.288 0 0 1 .176-.165c1.293.17 2.01-.86 2.34-1.269.285-.339.644-.538.644-.538-1.434-.238-2.272.53-2.55 1.106a2.47 2.47 0 0 1-.457.677.322.322 0 0 0-.141.108c.053-.337.205-.756.338-1.08.037-.088.066-.169.106-.236.029-.067.049-.125.073-.177.13-.266.146-.544.148-.637a.34.34 0 0 1 .23-.212c.187.076.507.254 1.034.192.719-.097 1.13-.385 1.527-.674.391-.287.745-.346.745-.346-.334-.259-1.053-.348-1.524-.289-.62.075-.932.348-1.24.659-.276.272-.467.386-.542.426a.347.347 0 0 0-.223.167c.02-.17.15-.373.3-.565.03-.043.07-.08.105-.118a.488.488 0 0 1 .106-.111l.007-.013a2.67 2.67 0 0 0 .529-.741c.024-.045.046-.095.07-.147l.042-.14c.012-.039.035-.074.052-.11.07-.073.191-.167.335-.12.898.744 1.924.524 2.333.377.414-.147 1.042-.134 1.042-.134-.166-.264-.737-.648-1.45-.782-.674-.118-1.064.081-1.36.274-.31.185-.613.227-.613.227l.001.001a.357.357 0 0 0-.254.083c.05-.082.11-.16.191-.23.144-.126.327-.23.553-.318.387-.142.633-.351.715-.428.858.174 1.62.024 2.334-.577.615-.51 1.047-1.198 1.047-1.198-.558.474-1.868.215-2.69.643-.561.28-.71.91-.74 1.08-.078.07-.317.27-.688.413-.24.09-.434.199-.582.325-.054.048-.099.099-.14.152.051-.133.108-.272.14-.352.371-.224.959-.724 1.263-1.529.306-.82.439-1.751.439-1.751-.888.42-1.454 1.316-1.664 1.935-.188.545-.087 1.16-.057 1.315-.037.092-.122.304-.184.471a.95.95 0 0 0-.098.21c-.011.044-.02.09-.042.14a2.516 2.516 0 0 1-.578.858l-.006.014c-.04.03-.078.075-.113.113-.035.035-.069.08-.102.125-.172.213-.325.458-.325.65v.006s0 .04-.004.1c-.083-.065-.057-.19-.023-.307 0-.014.007-.027.007-.043l.075-.283c.432-.465.724-1.034.834-1.862.113-.84 0-1.838 0-1.838-.245.223-.836.914-1.066 1.906a2.637 2.637 0 0 0 .213 1.764 6.499 6.499 0 0 0-.087.313c0 .016-.009.023-.009.038-.035.13-.062.276.053.35a1.481 1.481 0 0 1-.132.499c-.018.046-.047.103-.085.177-.028.066-.066.149-.097.236-.183.445-.398 1.054-.36 1.424-.073-.126-.061-.277-.05-.389v-.058a.951.951 0 0 0-.019-.214c.18-.351.399-1.099.334-1.857-.069-.768-.51-1.929-.51-1.929-.083.126-.597 1.087-.514 2.232.068 1.086.601 1.524.664 1.572a.78.78 0 0 1 .012.187v.067c-.012.128-.018.315.088.454.063.353.005.783-.041 1.113l-.022.14c-.025.17-.045.363-.051.548-.007.184.006.37.051.516l.01.028c-.076-.068-.095-.144-.12-.241-.01-.044-.014-.088-.039-.15a2.93 2.93 0 0 0-.062-.175c.218-.917-.154-1.93-.154-1.93-.217-.673-.956-1.626-.956-1.626-.241.85-.142 1.898.18 2.579.288.631.83.952.908.996.015.04.032.089.054.163.022.062.03.106.044.15.03.12.049.204.163.285l.063.18c.05.127.081.217.11.383.009.046.014.114.025.18.05.345.132.944.223 1.18.038.11.064.176.09.23a.482.482 0 0 1-.108-.058c-.035-.037-.055-.075-.088-.118a.325.325 0 0 0-.111-.107c.009-.296-.183-1.205-.613-1.8-.433-.616-1.352-1.272-1.352-1.272-.037.65.237 1.723.79 2.389.433.518 1.065.687 1.157.71a.261.261 0 0 1 .109.093c.02.045.053.09.088.126a.618.618 0 0 0 .148.08c.024.045.049.086.083.143.024.028.046.066.07.103.014.029.036.059.058.095.175.28.533.866.64 1.19l.026.103c.067.207.123.365.204.478-.01.014-.02.027-.032.034-.017.006-.03.006-.046.006a.09.09 0 0 1-.044-.015c-.022-.014-.038-.036-.06-.066a.45.45 0 0 0-.13-.157c-.115-.362-.487-1.043-.998-1.46-.531-.444-1.713-.904-1.713-.904.305 1.161 1.033 1.863 1.577 2.188.457.26 1.011.22 1.121.209a.4.4 0 0 1 .12.138c.017.038.045.06.067.074.022.015.038.024.06.024.024 0 .038 0 .062-.015a.112.112 0 0 0 .036-.027c.04.049.084.09.141.116.044.022.09.029.15.042.186.052.456.126.793.623.104.146.188.287.254.413.076.127.144.24.216.334l-.028-.001c-.04 0-.084.02-.135.038a.295.295 0 0 1-.15.017c-.057-.09-.505-.772-1.315-1.083-.867-.333-1.856-.341-1.856-.341.195.416.701 1.065 1.549 1.441.832.38 1.484.079 1.61.013a.296.296 0 0 0 .176-.019.292.292 0 0 1 .126-.037c.017 0 .036.004.057.011a.74.74 0 0 0 .168.157c.076.053.244.136.443.239.387.206.894.466 1.044.612h.01s.178.128.366.297l.021.02a.222.222 0 0 1-.08-.057c-.042-.022-.069-.045-.115-.052a.278.278 0 0 0-.18.04c-.082-.066-.826-.638-1.763-.624-.732.013-1.66.273-1.66.273.6.607 1.512.93 2.273.893.582-.023 1.036-.41 1.142-.508.038-.024.108-.06.183-.044.042 0 .064.022.095.045a.32.32 0 0 0 .155.078l.002.002c.029.022.06.036.091.06.155.087.34.133.544.101h.036c.27-.037.843-.117 1.235.223l.015-.017.035.037a.47.47 0 0 0-.177.052c-.112-.042-.809-.284-1.482-.168-.589.103-1.879.88-1.879.88.326.236 1.312.442 2.158.244.776-.191 1.156-.824 1.214-.927a.412.412 0 0 1 .2-.05c.604.58 1.185.392 1.845.541l.014.005c-.289.17-.563.444-.8.888l.397-.044s.199-.462.75-.722c.553.26.752.722.752.722l.396.044c-.237-.444-.513-.719-.802-.889.004 0 .008-.003.012-.004.67-.149 1.254.038 1.86-.54a.42.42 0 0 1 .2.05c.06.108.438.736 1.213.926.843.198 1.83-.008 2.16-.244 0 0-1.293-.777-1.884-.88-.672-.116-1.368.127-1.48.168a.486.486 0 0 0-.175-.052.847.847 0 0 0 .034-.035l.013.015c.39-.34.954-.26 1.235-.223h.035a.843.843 0 0 0 .546-.101c.031-.024.06-.038.091-.06l.003-.002a.338.338 0 0 0 .152-.078c.029-.023.055-.045.097-.045.073-.016.146.021.184.045.106.1.554.484 1.14.507.763.037 1.675-.286 2.266-.893 0 0-.919-.26-1.653-.273-.942-.014-1.684.561-1.762.624a.277.277 0 0 0-.181-.04c-.053.007-.073.03-.113.052a.292.292 0 0 1-.075.053l.018-.016c.185-.164.364-.297.364-.297h.007c.148-.146.657-.406 1.047-.612.192-.103.365-.186.44-.239a.727.727 0 0 0 .172-.16.16.16 0 0 1 .054-.008c.037 0 .084.014.124.037.07.03.133.028.174.02.128.066.783.365 1.614-.014.845-.376 1.354-1.025 1.548-1.441 0 0-.989.008-1.854.341-.812.312-1.265.996-1.32 1.083a.28.28 0 0 1-.145-.017c-.053-.018-.097-.038-.141-.038h-.023c.072-.094.14-.206.215-.333.069-.126.149-.267.25-.413h.007c.334-.497.604-.57.788-.623.062-.013.108-.02.15-.042a.402.402 0 0 0 .144-.117.115.115 0 0 0 .04.028c.018.015.035.015.057.015s.038-.009.06-.024a.201.201 0 0 0 .066-.074.43.43 0 0 1 .122-.139c.104.011.662.054 1.12-.208.544-.325 1.268-1.027 1.578-2.188 0 0-1.18.46-1.72.903-.503.418-.877 1.1-.99 1.462zm-9.564 3.682v-1.213h-.208a.395.395 0 0 1-.166.193.566.566 0 0 1-.224.111v.215a.785.785 0 0 0 .334-.178v.872h.264zm.874-.636a.174.174 0 0 1-.127.057.16.16 0 0 1-.126-.057c-.037-.037-.053-.09-.053-.17 0-.075.016-.134.044-.163a.152.152 0 0 1 .12-.052h.015c.047 0 .082.022.122.06.036.045.042.102.042.177 0 .065-.006.118-.037.148zm-.127.467h-.008a.127.127 0 0 1-.096-.039c-.03-.022-.046-.051-.05-.095l-.257.02c.024.105.068.18.13.23a.442.442 0 0 0 .253.075h.028a.461.461 0 0 0 .323-.149c.09-.095.133-.257.133-.48 0-.214-.044-.368-.126-.466a.427.427 0 0 0-.33-.14.464.464 0 0 0-.314.11.4.4 0 0 0-.12.297c0 .118.04.214.114.288.075.075.17.103.276.103h.044a.289.289 0 0 0 .188-.096c-.006.134-.024.229-.061.274-.036.043-.08.068-.127.068zm1.113-.467a.162.162 0 0 1-.123.057.16.16 0 0 1-.131-.057c-.036-.037-.053-.09-.053-.17 0-.075.017-.134.046-.163a.162.162 0 0 1 .12-.052h.018c.041 0 .077.022.117.06a.265.265 0 0 1 .055.177c0 .065-.018.118-.049.148zm-.123.467h-.01a.154.154 0 0 1-.099-.039c-.029-.022-.042-.051-.05-.095l-.244.02c.01.105.057.18.117.23a.456.456 0 0 0 .261.075h.025a.476.476 0 0 0 .327-.149c.09-.095.142-.257.142-.48 0-.214-.042-.368-.135-.466a.44.44 0 0 0-.334-.14.462.462 0 0 0-.317.11.39.39 0 0 0-.117.297c0 .118.035.214.11.288a.39.39 0 0 0 .28.103h.044a.352.352 0 0 0 .199-.096c-.014.134-.036.229-.076.274a.168.168 0 0 1-.123.068zm.759.17h.256c-.007-.113.016-.23.05-.363a1.72 1.72 0 0 1 .171-.386 1.85 1.85 0 0 1 .228-.279v-.163h-.891v.215h.6a1.392 1.392 0 0 0-.295.464c-.07.172-.11.342-.12.511zM246.296 69.553l-.035.04-2.502-5.818h-2.106v7.372h1.32V65.05l.036-.04 2.573 6.137h2.037v-7.372h-1.323zM237.049 63.616c2.025.053 3.073 1.34 3.146 3.865-.073 2.444-1.121 3.692-3.146 3.747-2.072-.055-3.132-1.303-3.18-3.747.073-2.524 1.13-3.812 3.18-3.865zm0 6.535c1.096 0 1.644-.89 1.644-2.67 0-1.807-.548-2.71-1.644-2.71-1.12 0-1.678.903-1.678 2.71 0 1.78.558 2.67 1.678 2.67zM231.053 71.147h1.429v-7.372h-1.43zM224.558 65.01h1.966v6.137h1.429V65.01h1.965v-1.235h-5.36zM219.92 63.775h1.679l2.324 7.372h-1.43l-.501-1.554h-2.607l-.502 1.554h-1.356l2.392-7.372zm-.18 4.582h1.894l-.893-3.147h-.035l-.965 3.147zM213.959 64.77c.81.028 1.24.492 1.286 1.396h1.501c-.094-1.675-1.024-2.524-2.787-2.55-1.764.078-2.678 1.368-2.75 3.865.047 2.445.964 3.693 2.75 3.746 1.787-.026 2.717-.85 2.787-2.471h-1.501c-.022.903-.451 1.368-1.286 1.395-.786-.054-1.203-.943-1.25-2.67.047-1.754.464-2.657 1.25-2.71zM208.321 67.8c.024.877-.072 1.474-.286 1.793-.215.372-.595.558-1.143.558-.547 0-.941-.186-1.178-.558-.216-.319-.31-.916-.286-1.794v-4.024h-1.43v4.623c.047 1.833 1.012 2.776 2.894 2.83 1.834-.054 2.788-.997 2.858-2.83v-4.623h-1.429V67.8zM199.144 63.775c2.192.026 3.3 1.262 3.325 3.706-.025 2.417-1.133 3.64-3.325 3.666h-2.249v-7.372h2.249zm-.105 6.137c1.308.053 1.952-.757 1.928-2.431.024-1.7-.62-2.524-1.928-2.471h-.752v4.902h.752zM192.22 67.959h2.788v-1.236h-2.787V65.01h3v-1.235h-4.43v7.372h4.538v-1.235h-3.108zM184.123 66.804a.951.951 0 0 0-.178-.04c-.858-.133-1.262-.479-1.216-1.037.024-.584.383-.903 1.073-.956.69 0 1.049.372 1.07 1.116h1.36c-.07-1.435-.823-2.193-2.252-2.271-1.763.105-2.68.916-2.75 2.43 0 .983.725 1.66 2.179 2.033a.942.942 0 0 0 .25.078c.833.187 1.251.533 1.251 1.038-.024.61-.466.93-1.324.956-.738-.054-1.106-.505-1.106-1.355h-1.429c-.024 1.621.82 2.431 2.535 2.431 1.858-.053 2.8-.85 2.824-2.39.024-1.01-.74-1.688-2.287-2.033zM174.805 65.01h1.966v6.137h1.429V65.01h1.966v-1.235h-5.36zM171.204 63.775h-1.394v7.372h4.252v-1.235h-2.858zM165.1 67.959h2.788v-1.236H165.1V65.01h3.002v-1.235h-4.43v7.372h4.537v-1.235H165.1zM160.712 71.147h1.429v-7.372h-1.429zM153.652 63.775h-1.394v7.372h4.252v-1.235h-2.858zM147.085 63.775h1.68l2.321 7.372h-1.429l-.501-1.554h-2.608l-.499 1.554h-1.358l2.394-7.372zm-.178 4.582h1.893l-.893-3.147h-.037l-.963 3.147zM142.375 67.321c.952.266 1.44.904 1.465 1.913-.07 1.196-.966 1.834-2.68 1.913h-2.5v-7.372h2.5c1.523 0 2.324.638 2.394 1.913-.024.77-.418 1.302-1.179 1.594v.04zm-2.286-2.311v1.713h1.106c.62 0 .93-.278.93-.836 0-.584-.31-.877-.93-.877h-1.106zm1.106 4.902c.787.053 1.167-.266 1.143-.956.024-.718-.356-1.05-1.143-.997h-1.106v1.953h1.106zM134.056 63.616c2.025.053 3.073 1.34 3.146 3.865-.073 2.444-1.121 3.692-3.146 3.747-2.071-.055-3.131-1.303-3.18-3.747.073-2.524 1.13-3.812 3.18-3.865zm0 6.535c1.097 0 1.644-.89 1.644-2.67 0-1.807-.547-2.71-1.644-2.71-1.12 0-1.678.903-1.678 2.71 0 1.78.559 2.67 1.678 2.67zM126.99 63.775h-1.395v7.372h4.253v-1.235h-2.859zM121.1 64.77c.88 0 1.323.413 1.323 1.237h1.5c.023-1.594-1.001-2.391-3.072-2.391-2.025.16-3.063 1.446-3.11 3.865.047 2.365 1.085 3.614 3.11 3.746.618 0 1.119-.026 1.5-.08.5 0 .989-.079 1.466-.238V67.2h-2.68v1.236h1.286v1.555c-.073.027-.097.027-.073 0-.477.105-.892.159-1.25.159-1.215-.027-1.834-.917-1.858-2.67.024-1.78.643-2.683 1.857-2.71z"/>
        <g>
            <path d="M235.065 50.733c-.61-1.578-1.045-2.63-1.305-3.157 2.35-.611 3.74-.92 4.176-.92.346.703 1.045 2.367 2.09 4.997-1.393.703-2.743 1.183-4.047 1.447-.175-.264-.48-1.051-.914-2.367zm-7.439-1.578c-1.654 5.174-2.656 8.153-3.002 8.942-2.437-.966-3.785-1.578-4.045-1.84 1.128-2.368 2.042-5.172 2.74-8.418 1.305.264 2.74.703 4.307 1.316zm15.53 8.942c-.521.79-1.783 1.14-3.784 1.052h-6.525c-2.871.087-4.264-.966-4.176-3.156v-7.758h1.436c2.173 0 3.217.218 3.131.657v.79c-.176.44-.262.965-.262 1.577v3.157c.086.526.393.833.915.92h4.699c.868.176 1.435-.92 1.695-3.288.174.088.523.176 1.045.262 1.528.43 2.595.69 3.213.782a48.19 48.19 0 0 0-1.777-2.49c-.349-.526-.523-.876-.523-1.053 2.524-1.49 3.697-2.147 3.522-1.973 2.524 3.244 4.308 5.744 5.352 7.497-1.13.789-2.437 1.577-3.916 2.367a65.915 65.915 0 0 0-2.615-4.283c-.261 2.597-.738 4.244-1.43 4.94zm-18.401-11.703V30.087h22.317v16.307h-22.317zm4.176-3.289h4.698v-2.893h-4.698v2.893zm0-6.31h4.698v-3.026h-4.698v3.025zm9.005 6.31h4.83v-2.893h-4.83v2.893zm0-6.31h4.83v-3.026h-4.83v3.025zM198.487 44.1v12.5c0 1.228-.348 2.06-1.044 2.5-.699.438-2.307.701-4.83.789-.174-1.404-.436-2.587-.782-3.552 2.261.088 3.263-.306 3-1.185v-7.5c-1.218 2.72-2.914 5.353-5.089 7.896-.348-.35-.828-.877-1.436-1.579-.608-.613-1.001-1.008-1.173-1.186 3.043-3.157 4.87-6.052 5.48-8.684h-4.307l-.39-3.422c1.044-.174 1.566-.525 1.566-1.052.172-1.316.303-2.587.391-3.816l3.916.921c-.35 1.054-.699 2.369-1.044 3.947h2.086v-6.053h-6.784v-3.42h13.18v3.42h-2.74v6.053h1.436l-.522-.92c2.26-2.543 3.785-6.008 4.566-10.397.523.089 1.305.265 2.35.527 1.218.264 2 .44 2.349.526-.959 1.842-1.741 3.554-2.35 5.132h3.134c-.088-.262-.176-.7-.262-1.315-.174-1.227-.348-2.191-.522-2.896 1.652-.437 2.957-.743 3.916-.92.522 1.93.913 3.421 1.173 4.474-.086.088-.827.308-2.218.657h6.134v3.29h-5.22v2.632h4.307v3.29h-4.308v2.763h4.308v3.422h-4.308V54.1h5.092v3.29h-12.008v2.499h-3.653V41.994l-.522.658c-.177-.175-.437-.57-.785-1.185V44.1h-2.087zm7.047-2.633h3.003v-2.631h-3.003v2.631zm0 6.053h3.003v-2.895h-3.003v2.895zm0 6.58h3.003v-3.29h-3.003v3.29zM174.08 50.176v7.069c.085 1.047-.34 1.746-1.277 2.095-.852.436-2.428.698-4.727.785l-.255-.916a78.097 78.097 0 0 0-.894-3.011h2.171c.511-.085.766-.393.766-.916v-5.106c-.852 1.047-2.001 2.62-3.448 4.712a134.269 134.269 0 0 0-1.789 2.488c-.768-.612-1.917-1.7-3.45-3.272a24.655 24.655 0 0 0 2.3-2.096c-.596.263-1.834.831-3.706 1.703-3.918 1.747-5.921 2.617-6.005 2.617-.598-1.308-1.107-2.791-1.534-4.45.257-.086.64-.174 1.151-.262 1.19-.347 2.127-.655 2.81-.917v-6.284h-3.576v-3.403h3.577v-5.237h-3.705v-3.534h10.858v2.225h6.39V29.36h2.172c1.534 0 2.3.132 2.3.393 0 .088-.044.263-.128.524a6.804 6.804 0 0 0-.255 1.832v2.357h2.554c-.511-.785-1.193-1.613-2.043-2.487a138.287 138.287 0 0 1 2.683-2.487c1.534 1.658 2.638 2.924 3.322 3.796a7.931 7.931 0 0 1-1.534 1.047h2.94v3.404h-7.793v2.226c0 .088.041.306.126.653.424 1.572.81 2.75 1.15 3.536 1.191-2.096 1.96-3.62 2.3-4.582 1.107.524 2.47 1.354 4.088 2.486 0 .089-.086.22-.254.394-1.195 1.31-2.557 3.188-4.09 5.629 1.447 1.921 3.277 3.666 5.495 5.237-.172.261-.47.654-.894 1.178a91.55 91.55 0 0 0-2.302 2.88c-1.788-1.395-3.621-3.797-5.493-7.2zm-4.216-5.891v-6.416h-6.77v-2.224h-3.066v5.367h3.194v3.403h-3.194v4.976l3.448-1.31c.084.088.257 1.092.511 3.01-.086-.084-.086.046 0 .394a118.224 118.224 0 0 0 5.24-6.022c-.598.349-1.492.785-2.683 1.308.082-.085-.087-.042-.511.132-1.023-2.792-1.875-4.887-2.557-6.285.084-.085 1.107-.522 3.068-1.308-.173.088 0 .045.509-.132.084.177.17.394.256.656a38.34 38.34 0 0 1 2.172 5.105l.383-.654zM139.09 41.007a56.142 56.142 0 0 1 2.8-1.315c1.865 2.63 3.859 6.36 5.98 11.182l-4.071 1.842c-1.105-3.42-2.672-6.796-4.709-10.13v16.576h-4.071V47.19c-2.207 4.124-3.946 6.842-5.218 8.157-.934-.7-2.206-1.447-3.817-2.236.932-.702 1.825-1.711 2.673-3.027-1.358.616-3.606 1.755-6.745 3.421-1.444.704-2.376 1.141-2.8 1.315a93.432 93.432 0 0 0-1.78-4.998c.083 0 .38-.086.89-.264 1.781-.438 3.011-.788 3.69-1.052v-6.052h-3.69v-3.552h3.69v-4.736h-4.2V30.48h11.327v-.394h18.321v3.683h-7.507c-.084.705-.254 1.756-.507 3.159-.086.613-.172 1.052-.256 1.315v2.763zm-9.033 6.973c3.137-4.473 4.918-9.21 5.343-14.21h-6.108v.396h-3.308v4.736h3.817v3.552h-3.817v4.736a53.767 53.767 0 0 0 3.945-1.71h.128v2.5z"/>
        </g>
    </g>
</svg>
