<?xml version="1.0" encoding="UTF-8"?>
<svg width="52px" height="49px" viewBox="0 0 52 49" version="1.1" xmlns="http://www.w3.org/2000/svg" xmlns:xlink="http://www.w3.org/1999/xlink">
    <!-- Generator: Sketch 46.2 (44496) - http://www.bohemiancoding.com/sketch -->
    <title>PaaS／icon／通知服务</title>
    <desc>Created with Sketch.</desc>
    <defs></defs>
    <g id="首页" stroke="none" stroke-width="1" fill="none" fill-rule="evenodd">
        <g id="PaaS平台" transform="translate(-684.000000, -5828.000000)" stroke="#FFFFFF" fill="#DFB46D">
            <g id="feature/normal-copy-9" transform="translate(610.000000, 5779.000000)">
                <g id="PaaS／icon／通知服务" transform="translate(75.000000, 50.000000)">
                    <g id="通知">
                        <path d="M11.6667448,11.6732553 L0,11.6732553 L0,35.006745 L11.6667448,35.006745 L33.3335567,46.6734899 L33.3335567,0.00651044402 L11.6667448,11.6732553 L11.6667448,11.6732553 Z M3.33335569,15.006611 L11.6667449,15.006611 L11.6667449,31.6733893 L3.33335569,31.6733893 L3.33335569,15.006611 Z M30.000201,41.173453 L15.0001005,33.1733994 L15.0001005,13.6732687 L30.000201,5.67321512 L30.000201,41.173453 Z M39.3335969,30.5067148 L47.000315,37.1734262 C47.6669861,37.8400973 47.6669861,38.840104 47.1669827,39.5067751 L47.1669827,39.6734429 C46.8336472,40.0067785 46.5003116,40.1734463 46.0003083,40.1734463 C45.6669727,40.1734463 45.3336371,40.1734463 45.0003015,39.8401107 L37.3335835,33.1733993 C36.6669124,32.5067282 36.6669124,31.5067215 37.1669158,30.8400504 L37.1669158,30.6733826 C37.5002513,30.340047 37.8335869,30.1733792 38.3335902,30.1733792 C38.6669258,30.1733792 39.0002613,30.1733792 39.3335969,30.5067148 Z M38.3335902,15.006611 C37.8335869,15.006611 37.5002513,14.8399432 37.0002479,14.5066076 C36.3335768,13.8399364 36.5002446,12.8399297 37.1669157,12.1732586 L44.8336337,5.67321507 C45.0003015,5.50654725 45.5003049,5.33987948 45.8336404,5.33987948 C46.3336438,5.33987948 46.8336471,5.50654725 47.1669827,5.83988283 C47.8336539,6.506554 47.6669861,7.5065607 47.000315,8.17323182 L39.3335969,14.6732754 C39.1669292,14.8399432 38.6669258,15.006611 38.3335902,15.006611 Z M50.0003351,23.3400002 C50.0003351,24.3400069 49.3336639,25.006678 48.3336572,25.006678 L38.3335902,25.006678 C37.3335835,25.006678 36.6669124,24.1733391 36.6669124,23.3400002 L36.6669124,23.3400002 C36.6669124,22.3399935 37.5002513,21.6733223 38.3335902,21.6733223 L48.3336572,21.6733223 C49.3336639,21.6733223 50.0003351,22.5066612 50.0003351,23.3400002 Z" id="Combined-Shape" fill-rule="nonzero"></path>
                    </g>
                </g>
            </g>
        </g>
    </g>
</svg>