<?xml version="1.0" encoding="UTF-8"?>
<svg width="50px" height="50px" viewBox="0 0 50 50" version="1.1" xmlns="http://www.w3.org/2000/svg" xmlns:xlink="http://www.w3.org/1999/xlink">
    <!-- Generator: Sketch 46.2 (44496) - http://www.bohemiancoding.com/sketch -->
    <title>PaaS/icon/集成服务</title>
    <desc>Created with Sketch.</desc>
    <defs></defs>
    <g id="Symbols" stroke="none" stroke-width="1" fill="none" fill-rule="evenodd">
        <g id="PaaS/icon/集成服务" fill-rule="nonzero">
            <g>
                <path d="M42.9094923,44 L7.09050773,44 C6.50331126,44 6,43.4933333 6,42.9022222 L6,7.09777778 C6,6.50666667 6.50331126,6 7.09050773,6 L42.9094923,6 C43.4966887,6 44,6.50666667 44,7.09777778 L44,42.9022222 C44,43.4933333 43.4966887,44 42.9094923,44 Z" id="Shape" fill="#767D85"></path>
                <path d="M39.5802048,41 L10.4197952,41 C9.6552901,41 9,40.3402062 9,39.5704467 L9,10.4295533 C9,9.65979381 9.6552901,9 10.4197952,9 L39.5802048,9 C40.3447099,9 41,9.65979381 41,10.4295533 L41,39.5704467 C41,40.3402062 40.3447099,41 39.5802048,41 Z" id="Shape" fill="#FAFAFA"></path>
                <path d="M8.52459016,0.491803279 L10.1639344,0.491803279 L10.1639344,6.47540984 L8.52459016,6.47540984 L8.52459016,0.491803279 Z M12.8688525,0.491803279 L14.5081967,0.491803279 L14.5081967,6.47540984 L12.8688525,6.47540984 L12.8688525,0.491803279 Z M17.2131148,0.491803279 L18.852459,0.491803279 L18.852459,6.47540984 L17.2131148,6.47540984 L17.2131148,0.491803279 Z M21.557377,0.491803279 L23.1967213,0.491803279 L23.1967213,6.47540984 L21.557377,6.47540984 L21.557377,0.491803279 Z M25.9836066,0.491803279 L27.6229508,0.491803279 L27.6229508,6.47540984 L25.9836066,6.47540984 L25.9836066,0.491803279 Z M30.3278689,0.491803279 L31.9672131,0.491803279 L31.9672131,6.47540984 L30.3278689,6.47540984 L30.3278689,0.491803279 Z M34.6721311,0.491803279 L36.3114754,0.491803279 L36.3114754,6.47540984 L34.6721311,6.47540984 L34.6721311,0.491803279 Z M39.0983607,0.491803279 L40.7377049,0.491803279 L40.7377049,6.47540984 L39.0983607,6.47540984 L39.0983607,0.491803279 Z M8.52459016,43.6885246 L10.1639344,43.6885246 L10.1639344,49.6721311 L8.52459016,49.6721311 L8.52459016,43.6885246 Z M12.8688525,43.6885246 L14.5081967,43.6885246 L14.5081967,49.6721311 L12.8688525,49.6721311 L12.8688525,43.6885246 Z M17.2131148,43.6885246 L18.852459,43.6885246 L18.852459,49.6721311 L17.2131148,49.6721311 L17.2131148,43.6885246 Z M21.557377,43.6885246 L23.1967213,43.6885246 L23.1967213,49.6721311 L21.557377,49.6721311 L21.557377,43.6885246 Z M25.9836066,43.6885246 L27.6229508,43.6885246 L27.6229508,49.6721311 L25.9836066,49.6721311 L25.9836066,43.6885246 Z M30.3278689,43.6885246 L31.9672131,43.6885246 L31.9672131,49.6721311 L30.3278689,49.6721311 L30.3278689,43.6885246 Z M34.6721311,43.6885246 L36.3114754,43.6885246 L36.3114754,49.6721311 L34.6721311,49.6721311 L34.6721311,43.6885246 Z M39.0983607,43.6885246 L40.7377049,43.6885246 L40.7377049,49.6721311 L39.0983607,49.6721311 L39.0983607,43.6885246 Z" id="Combined-Shape" fill="#767D85"></path>
                <path d="M0,39.3442623 L5.98360656,39.3442623 L5.98360656,40.9836066 L0,40.9836066 L0,39.3442623 Z M0,35 L5.98360656,35 L5.98360656,36.6393443 L0,36.6393443 L0,35 Z M0,30.6557377 L5.98360656,30.6557377 L5.98360656,32.295082 L0,32.295082 L0,30.6557377 Z M0,26.3114754 L5.98360656,26.3114754 L5.98360656,27.9508197 L0,27.9508197 L0,26.3114754 Z M0,21.9672131 L5.98360656,21.9672131 L5.98360656,23.6065574 L0,23.6065574 L0,21.9672131 Z M0,17.6229508 L5.98360656,17.6229508 L5.98360656,19.2622951 L0,19.2622951 L0,17.6229508 Z M0,13.2786885 L5.98360656,13.2786885 L5.98360656,14.9180328 L0,14.9180328 L0,13.2786885 Z M0,8.93442623 L5.98360656,8.93442623 L5.98360656,10.5737705 L0,10.5737705 L0,8.93442623 Z M43.442623,39.3442623 L49.4262295,39.3442623 L49.4262295,40.9836066 L43.442623,40.9836066 L43.442623,39.3442623 Z M43.442623,35 L49.4262295,35 L49.4262295,36.6393443 L43.442623,36.6393443 L43.442623,35 Z M43.442623,30.6557377 L49.4262295,30.6557377 L49.4262295,32.295082 L43.442623,32.295082 L43.442623,30.6557377 Z M43.442623,26.3114754 L49.4262295,26.3114754 L49.4262295,27.9508197 L43.442623,27.9508197 L43.442623,26.3114754 Z M43.442623,21.9672131 L49.4262295,21.9672131 L49.4262295,23.6065574 L43.442623,23.6065574 L43.442623,21.9672131 Z M43.442623,17.6229508 L49.4262295,17.6229508 L49.4262295,19.2622951 L43.442623,19.2622951 L43.442623,17.6229508 Z M43.442623,13.2786885 L49.4262295,13.2786885 L49.4262295,14.9180328 L43.442623,14.9180328 L43.442623,13.2786885 Z M43.442623,8.93442623 L49.4262295,8.93442623 L49.4262295,10.5737705 L43.442623,10.5737705 L43.442623,8.93442623 Z" id="Combined-Shape" fill="#767D85"></path>
            </g>
        </g>
    </g>
</svg>