<?xml version="1.0" encoding="UTF-8"?>
<svg width="280px" height="100px" viewBox="0 0 280 100" version="1.1" xmlns="http://www.w3.org/2000/svg" xmlns:xlink="http://www.w3.org/1999/xlink">
    <!-- Generator: Sketch 42 (36781) - http://www.bohemiancoding.com/sketch -->
    <title>Co. logo/jinfuzi</title>
    <desc>Created with Sketch.</desc>
    <defs></defs>
    <g id="Symbols" stroke="none" stroke-width="1" fill="none" fill-rule="evenodd">
        <g id="Co.-logo/jinfuzi" fill="#5A6978">
            <g id="Group-28" transform="translate(82.500000, 25.000000)">
                <path d="M3.91432679,9.69964163 L13.3073739,9.69964163 C16.279216,9.69964163 19.2516952,9.73454729 22.2229002,9.6898932 C25.1944237,9.64523911 28.1815567,9.8908366 31.306626,9.51662276 C30.6488005,8.05247182 30.033662,6.84146553 29.5564598,5.57951584 C29.0384819,4.21064792 28.0783434,3.62165421 26.6534265,3.63863534 C26.3351855,3.64240892 26.016626,3.62228314 25.698385,3.62228314 C20.4447007,3.62133974 15.1910165,3.61347811 9.93733233,3.63108817 C9.14666751,3.63360389 8.34899438,3.71725169 7.56852346,3.84586804 C7.23244313,3.90152842 6.78199992,4.0889498 6.6396038,4.35184289 C5.75305255,5.9898932 4.93913288,7.66599383 3.91432679,9.69964163 M103.140213,15.64178 L114.801404,15.64178 L114.801404,19.2071888 L101.739825,19.2071888 C101.739825,21.2744844 101.740144,23.1477548 101.739507,25.0207108 C101.739188,26.6452391 101.76977,28.2707108 101.730587,29.8942957 C101.646487,33.3766857 99.3949085,35.551214 95.8805595,35.555302 C88.7136066,35.5628492 81.5466537,35.5622202 74.3797007,35.5537297 C70.8634404,35.5493272 68.7345068,33.5455536 68.5293545,30.0798303 C68.5229833,29.9754278 68.5261689,29.8703963 68.5213905,29.7656794 C68.3914182,26.9920945 67.630698,26.227629 64.8385235,26.2137926 C60.0607672,26.1902077 55.2826924,26.2078177 50.5049362,26.2081322 L48.615878,26.2081322 L48.615878,22.9452391 C49.1338559,22.9106479 49.6457811,22.8471259 50.1577063,22.8461825 C55.2540221,22.8383209 60.3506564,22.8358052 65.4469722,22.8455536 C66.2420969,22.8471259 67.0499639,22.8395787 67.8294791,22.9697674 C69.906806,23.3163083 71.4540498,25.1386353 71.7942714,27.5358052 C71.9041744,28.3115913 72.0026093,29.0886353 72.1192021,29.8631636 C72.3415567,31.3358052 73.0350609,31.9999561 74.5348393,32.0367485 C76.3920415,32.082346 78.2508365,32.0515284 80.1089944,32.0518429 C85.0992298,32.0527863 90.0897839,32.0593901 95.0800193,32.0499561 C97.365047,32.045868 98.1585789,31.278258 98.1690913,29.0543586 C98.1847007,25.8625347 98.1732326,22.6703963 98.1732326,19.3027863 C97.5122215,19.2568743 96.9005872,19.1773146 96.2889528,19.1773146 C80.2029694,19.1810882 64.1173046,19.2270001 48.0319584,19.1744844 C44.8469999,19.1644215 44.2197561,19.982975 44.2465152,22.9433523 C44.266903,25.196497 44.2955733,27.4524718 44.2117922,29.7031007 C44.0999778,32.7037297 42.4597146,34.723541 39.6895207,35.4181951 C39.2843129,35.5197674 38.8545761,35.5669372 38.4359888,35.5672517 C26.0134404,35.5725976 13.5905733,35.5700819 1.16770629,35.5656794 C0.856155042,35.5653649 0.544603795,35.5348618 0.0995760942,35.5115913 L0.0995760942,32.0867485 C0.651321247,32.0609624 1.21357886,32.0134781 1.77615504,32.0125347 C6.02287249,32.0059309 10.2699085,32.0178806 14.516626,32.0031007 C16.1552963,31.9974404 16.1970276,31.9405221 16.2027617,30.3008995 C16.2113628,27.9952391 16.2113628,25.6892643 16.1970276,23.3832894 C16.193842,22.8766857 16.1167506,22.3707108 16.060047,21.710019 L1.41522706,21.710019 L1.41522706,18.2836039 C1.97716612,18.2490127 2.53591958,18.1867485 3.09499161,18.1851762 C6.8113074,18.1766857 10.5276232,18.1858052 14.2436204,18.1792014 C16.0909473,18.1760567 16.1944791,18.0952391 16.1973462,16.3650504 C16.2037174,12.6795158 16.5187728,13.0449246 12.9053517,13.0342328 C9.72007471,13.0244844 6.5347977,13.0320316 3.34952069,13.0320316 L1.64745698,13.0320316 C1.10208302,12.2993272 1.63662596,10.9920945 0.256307396,10.9348618 C0.163288006,10.9310882 0.028537313,10.4905221 0.0180248477,10.2486982 C-0.013831108,9.52228314 0.00623814406,8.79366679 0.00623814406,7.9980693 C1.34578108,7.66630829 1.91855116,6.67637119 2.3963905,5.60530201 C2.90863427,4.45687433 3.39634895,3.29744037 3.92452069,2.1562454 C4.53424368,0.838635339 5.56828801,0.160647918 7.06360657,0.16253471 C14.1241606,0.171654207 21.1850332,0.188006408 28.2455872,0.155302006 C29.9855595,0.147125905 31.0256564,0.951213955 31.630601,2.47951584 C32.0160581,3.45372968 32.4285927,4.41756616 32.8385789,5.38234603 C33.3406287,6.56379257 33.885047,7.71159131 35.4106287,7.8889498 L35.4106287,10.8615913 C35.0490636,11.0159938 34.6753933,11.1754278 34.2877063,11.3408366 C34.2182603,11.8317171 34.1535927,12.29178 34.064396,12.9232265 C33.4999085,12.960019 32.9408365,13.0270001 32.3814459,13.0279435 C28.6122492,13.037063 24.8430525,13.0254278 21.0738559,13.0345473 C19.3332465,13.0389498 19.2889667,13.0961825 19.2704902,14.7999561 C19.2669861,15.114107 19.2704902,15.4285724 19.2704902,15.7430379 C19.2724016,18.1760567 19.2724016,18.1779435 21.6615983,18.1795158 C25.1654348,18.1814026 28.6692714,18.1801448 32.173108,18.1804592 L34.0513351,18.1804592 L34.0513351,21.6678806 L19.4434681,21.6678806 C19.0815844,25.1150504 19.3800747,28.3889498 19.2367229,31.8301448 C19.8856287,31.8952391 20.4402409,31.9980693 20.9951717,31.9993272 C26.7286066,32.0115913 32.4620415,32.0131636 38.1954764,32.005302 C40.1842437,32.0024718 41.079396,31.1486982 41.1109334,29.1301448 C41.153939,26.3534152 41.0969168,23.5747989 41.1360996,20.7977548 C41.1660442,18.6609624 41.9232603,16.8722831 44.0658919,16.0181951 C44.7737312,15.7361196 45.6086758,15.6675662 46.3856426,15.6659938 C57.2689113,15.6442957 68.1518614,15.6518429 79.0351301,15.6518429 C84.768565,15.6515284 90.502637,15.6351762 96.2360719,15.6663083 C97.193662,15.6713397 97.9572492,15.4751133 98.6631772,14.7851762 C101.566529,11.9477548 104.532637,9.1725976 107.422609,6.32165421 C107.812526,5.93674855 108.115795,5.23769194 108.077568,4.71096238 C108.021183,3.92700012 107.206307,3.72983031 106.519493,3.61756616 C106.000878,3.53297496 105.461875,3.55310075 104.931792,3.55310075 C97.7648393,3.54964163 90.5978863,3.55089949 83.4309334,3.55089949 L81.3857811,3.55089949 L81.3857811,0.0933523201 C81.8878309,0.06253471 82.3997561,0.00372967855 82.9116814,0.00372967855 C90.874396,-0.0016162334 98.8377478,-0.00224516422 106.800781,0.00876112509 C107.379604,0.00970452132 107.957152,0.116308295 108.536931,0.158761125 C112.250061,0.429201377 113.998634,4.28926427 111.178745,7.63045924 C110.132277,8.87071081 108.86887,9.9389498 107.658981,11.037063 C106.292679,12.2773146 104.872222,13.4590756 103.484258,14.6763712 C103.30236,14.8361196 103.175573,15.0571888 103.022983,15.2496416 C103.062166,15.3804592 103.10103,15.5109624 103.140213,15.64178" id="Fill-3"></path>
                <path d="M74.6704875,4.79374214 L74.6704875,7.72110063 C72.5667202,7.82330189 70.5537424,7.5277044 68.8844903,6.22141509 C67.9189363,5.46575472 67.1967618,5.44877358 66.200626,6.04279874 C64.7170942,6.9277044 63.1599751,7.69279874 61.651277,8.69216981 C65.7966925,10.4748742 70.1778421,10.5248742 74.6504183,10.558522 L74.6504183,13.6789623 C72.9473989,13.7654403 71.2112493,13.8321069 69.4938947,13.6418553 C65.6460139,13.2154403 61.8503767,12.5487736 58.2535208,11.0157547 C57.7645319,10.8072642 57.0101828,10.9563208 56.465446,11.1629245 C51.7064848,12.9707862 46.7799612,13.785566 41.6935208,13.7188994 C41.280349,13.7135535 40.8674958,13.6626101 40.352385,13.6248742 L40.352385,10.6516038 C42.6527036,10.5000314 44.8701967,10.4393396 47.065072,10.185566 C49.1882715,9.93965409 51.2875789,9.49531447 53.7768033,9.07361635 C53.2330222,8.57330189 53.0555845,8.33305031 52.8169834,8.2031761 C51.4267895,7.445 50.0018726,6.74657233 48.6298366,5.95883648 C47.7859723,5.47455975 47.1463047,5.51481132 46.329518,6.1113522 C44.4535208,7.48242138 42.6096981,7.89059748 40.4065402,7.61166667 L40.4065402,4.67330189 C40.6260277,4.62172956 40.825446,4.52801887 41.0204044,4.53556604 C43.0939086,4.61732704 44.4828283,3.55286164 45.2734931,1.80946541 C45.7952936,0.657893082 46.4884792,0.213553459 47.7187562,0.365125786 C48.3794488,0.446257862 49.0589363,0.379591195 49.8776343,0.379591195 C49.5883823,1.38022013 49.362205,2.16198113 49.1067202,3.045 C51.7625512,4.35946541 54.3037008,5.63713836 56.8700166,6.86355346 C57.2064155,7.02393082 57.7457368,7.07078616 58.0655706,6.91638365 C60.7217202,5.63462264 63.3485623,4.29279874 66.045169,2.93839623 C65.7651551,2.08179245 65.5268726,1.35443396 65.2137285,0.396886792 C66.43859,0.396886792 67.5248781,0.367012579 68.6073435,0.418899371 C68.8637839,0.431163522 69.166097,0.672358491 69.3422604,0.890597484 C69.6025235,1.21323899 69.7898366,1.59971698 69.9717341,1.97613208 C70.7499751,3.58713836 72.004144,4.47738994 73.8393657,4.5204717 C74.0483407,4.52550314 74.2569972,4.5777044 74.4637424,4.61858491 C74.5077036,4.62738994 74.5427452,4.68273585 74.6704875,4.79374214" id="Fill-5"></path>
                <path d="M10.0113075,28.2429245 C9.39457618,29.2234277 8.78931302,30.1863208 8.16971468,31.1715409 C7.24557341,30.3511006 6.39884211,29.5992138 5.53204155,28.8300314 C6.24147368,27.5743711 6.85470083,26.488522 7.58420222,25.1970126 C8.43061496,26.2592767 9.18783102,27.2092767 10.0113075,28.2429245" id="Fill-21"></path>
                <path d="M28.1299875,31.3006604 C27.2052091,30.3374528 26.4508601,29.5516038 25.6222867,28.6880818 C26.2641842,27.5578931 26.8930208,26.4490881 27.6323975,25.1468868 C28.3749598,26.1060063 29.0477576,26.8846226 29.5966357,27.740283 C29.7683393,28.0072642 29.7231039,28.5399686 29.5708324,28.8531761 C29.1882424,29.6405975 28.6881039,30.3723585 28.1299875,31.3006604" id="Fill-23"></path>
                <path d="M3.9517313,49.6855346 L5.61461219,49.6855346 L7.96558172,42.0581761 L7.99425208,42.0581761 L10.3452216,49.6855346 L12.0654432,49.6855346 L15.0184903,39.6666667 L13.1835873,39.6666667 L11.1909972,46.8836478 L11.1623269,46.8836478 L8.92603878,39.6666667 L7.14847645,39.6666667 L4.86918283,46.8836478 L4.84051247,46.8836478 L2.93393352,39.6666667 L0.95567867,39.6666667 L3.9517313,49.6855346 Z M18.0145429,49.6855346 L19.6774238,49.6855346 L22.0283934,42.0581761 L22.0570637,42.0581761 L24.4080332,49.6855346 L26.1282548,49.6855346 L29.0813019,39.6666667 L27.2463989,39.6666667 L25.2538089,46.8836478 L25.2251385,46.8836478 L22.9888504,39.6666667 L21.2112881,39.6666667 L18.9319945,46.8836478 L18.9033241,46.8836478 L16.9967452,39.6666667 L15.0184903,39.6666667 L18.0145429,49.6855346 Z M32.0773546,49.6855346 L33.7402355,49.6855346 L36.091205,42.0581761 L36.1198753,42.0581761 L38.4708449,49.6855346 L40.1910665,49.6855346 L43.1441136,39.6666667 L41.3092105,39.6666667 L39.3166205,46.8836478 L39.2879501,46.8836478 L37.051662,39.6666667 L35.2740997,39.6666667 L32.9948061,46.8836478 L32.9661357,46.8836478 L31.0595568,39.6666667 L29.0813019,39.6666667 L32.0773546,49.6855346 Z M44.1189058,48.6949686 C44.1189058,49.3034591 44.6636427,49.7704403 45.2657202,49.7704403 C45.8964681,49.7704403 46.4125346,49.2751572 46.4125346,48.6666667 C46.4125346,48.0581761 45.882133,47.591195 45.2657202,47.591195 C44.6349723,47.591195 44.1189058,48.086478 44.1189058,48.6949686 Z M53.4941136,39.6666667 L51.6878809,39.6666667 L51.6878809,46.3883648 C51.6878809,47.591195 51.3868421,48.327044 50.3547091,48.327044 C49.7239612,48.327044 49.2652355,47.8883648 49.150554,47.2374214 L47.4590028,47.6336478 C47.7743767,49.2185535 48.8495152,49.9402516 50.4407202,49.9402516 C52.4763158,49.9402516 53.4941136,48.5110063 53.4941136,46.9119497 L53.4941136,39.6666667 Z M55.6873961,49.6855346 L57.4936288,49.6855346 L57.4936288,45.5251572 L61.966205,45.5251572 L61.966205,43.9119497 L57.4936288,43.9119497 L57.4936288,41.2798742 L62.2385734,41.2798742 L62.2385734,39.6666667 L55.6873961,39.6666667 L55.6873961,49.6855346 Z M63.2850416,49.6855346 L71.040374,49.6855346 L71.040374,48.072327 L65.4926593,48.072327 L70.9543629,41.2798742 L70.9543629,39.6666667 L63.3710526,39.6666667 L63.3710526,41.2798742 L68.7037396,41.2798742 L63.2850416,48.072327 L63.2850416,49.6855346 Z M72.5168975,48.6949686 C72.5168975,49.3034591 73.0616343,49.7704403 73.6637119,49.7704403 C74.2944598,49.7704403 74.8105263,49.2751572 74.8105263,48.6666667 C74.8105263,48.0581761 74.2801247,47.591195 73.6637119,47.591195 C73.032964,47.591195 72.5168975,48.086478 72.5168975,48.6949686 Z M85.2895429,40.9968553 C84.2860803,39.8506289 83.1105956,39.4119497 81.7344183,39.4119497 C78.609349,39.4119497 76.3730609,41.5062893 76.3730609,44.7185535 C76.3730609,47.8459119 78.609349,49.9402516 81.7344183,49.9402516 C83.225277,49.9402516 84.6014543,49.4025157 85.5189058,48.1572327 L84.0280471,47.1100629 C83.3542936,47.9591195 82.5658587,48.327044 81.7487535,48.327044 C79.6558172,48.327044 78.2653047,46.7421384 78.2653047,44.6053459 C78.2653047,42.6100629 79.6558172,41.0251572 81.7487535,41.0251572 C82.4511773,41.0251572 83.1392659,41.2374214 83.8846953,42.0157233 L85.2895429,40.9968553 Z M86.1926593,44.7185535 C86.1926593,41.5062893 88.4289474,39.4119497 91.5540166,39.4119497 C94.7220914,39.3553459 96.9583795,41.4496855 96.9583795,44.6619497 C96.9583795,47.7893082 94.7220914,49.8836478 91.5540166,49.9402516 C88.4289474,49.9402516 86.1926593,47.8459119 86.1926593,44.7185535 Z M88.084903,44.6053459 C88.084903,46.7421384 89.4754155,48.327044 91.5683518,48.327044 C93.6756233,48.327044 95.0661357,46.7421384 95.0661357,44.6053459 C95.0661357,42.6100629 93.6756233,41.0251572 91.5683518,41.0251572 C89.4754155,41.0251572 88.084903,42.6100629 88.084903,44.6053459 Z M98.7216066,49.6855346 L100.441828,49.6855346 L100.441828,41.3647799 L100.470499,41.3647799 L103.552562,49.6855346 L104.814058,49.6855346 L107.896122,41.3647799 L107.924792,41.3647799 L107.924792,49.6855346 L109.645014,49.6855346 L109.645014,39.6666667 L106.92133,39.6666667 L104.18331,46.6855346 L101.473961,39.6666667 L98.7216066,39.6666667 L98.7216066,49.6855346 Z" id="WWW.JFZ.COM"></path>
            </g>
        </g>
    </g>
</svg>