<svg xmlns="http://www.w3.org/2000/svg" width="280" height="100" viewBox="0 0 280 100">
    <g fill="none" fill-rule="evenodd">
        <path fill="#FFF" fill-opacity="0" d="M0 0h280v100H0z"/>
        <g fill="#5A6978">
            <path d="M67.498 36.151c1.67-4.32 6.605-6.988 11.108-5.913 4.347.883 7.773 5.084 7.69 9.543a10.088 10.088 0 0 1 5.142 6.602c-1.497-.017-2.997 0-4.494-.015l.477.468-.075.584c1.37-.041 2.74 0 4.11-.035-.026.925.025 1.848 0 2.774-.465 4.599-4.73 8.54-9.385 8.324l-.04-.49c3.753-1.627 5.368-6.236 4.781-10.083-.285-2.393-2.39-4.331-4.778-4.461a65.392 65.392 0 0 0-.014 1.543h-4.655c0-2.064.06-4.126.045-6.19 2.681.163 5.45-.363 8.04.55-2.024-3.07-5.828-4.974-9.493-4.535-2.467.303-4.382 2.621-4.377 5.084h1.252c.142 1.435.075 2.88.065 4.32-2.024.055-4.047.023-6.071.02.202-2.592-.32-5.286.548-7.793-2.782 2.418-4.505 6.244-3.616 9.955-1.388-.112-2.801.112-4.175-.124-.219-.878-.047-1.79-.107-2.682-.11 1.49-.09 3.001.416 4.425 1.35-.02 2.702-.037 4.048.01l-.065-1.017c1.771 5.523 7.968 8.373 13.44 7.674.105-1.733.03-3.47.052-5.203h4.67c-.31 2.76.503 5.693-.693 8.314-1.546 3.66-5.517 5.98-9.424 5.847-2.994.145-6.06-1.12-7.968-3.456a8.896 8.896 0 0 1-1.96-5.659l.511-.067c.79 2.184 2.746 3.705 4.843 4.53 1.928.753 4.118 1.086 6.13.462 1.795-.624 3.001-2.286 3.679-4-3.582 2.22-8.27 2.034-11.972.218-3.846-1.993-6.46-6.252-6.402-10.616.04-2.393.889-4.819 2.587-6.519a7.873 7.873 0 0 1 6.13-2.389zM59.741 31.951c.332 0 .661.015.99.026-.362.25-.83.569-1.463.427a3.98 3.98 0 0 1 .473-.453zM89.512 31.951a2.009 2.009 0 0 1 1.464.976 1.76 1.76 0 0 1-1.464-.976z"/>
            <path d="M91.122 31.463c.621.582.851 1.514.828 2.44-.743 0-1.523-.224-1.95-1.042.46.036.916.15 1.351.337a7.27 7.27 0 0 1-.23-1.735zM56.598 31.951c.784.805.948 1.948.847 3.012.492-.465 1.18-.528 1.823-.435-.494.628-1.282.83-2.058.838-.697-.985-1.195-2.254-.612-3.415z"/>
            <path d="M58.308 33.902c-.027-.7-.109-1.73.76-1.95a7.84 7.84 0 0 1-.154 1.313c.409-.213.88-.274 1.33-.173-.456.616-1.209.784-1.936.81zM93.518 31.951c.77 1.042.24 2.434-.336 3.415-.489-1.131-.22-2.385.336-3.415zM55.466 33.415c.803.786 1.118 1.932 1.071 3.046.5-.407 1.084-.8 1.756-.608-.419.643-1.164 1.091-1.933.95-.915-.852-1.158-2.189-.894-3.388z"/>
            <path d="M94.03 36.538c-.146-1.111.1-2.428 1.149-3.123.477 1.195 0 2.551-.965 3.41-.921.052-1.797-.379-2.263-1.114a3.34 3.34 0 0 1 2.08.827z"/>
            <path d="M90.976 34.4c.708-.064 1.36.209 1.95.584a16.48 16.48 0 0 0-.378.382 2.58 2.58 0 0 1-1.572-.967z"/>
            <path fill-rule="nonzero" d="M108.977 39.407c1.118-1.292 1.288-3.679 3.263-4.01 4.441-.067 8.885 0 13.33-.03.672.01 1.435-.055 1.982.418 1.144.946 1.39 2.506 2.307 3.638h.712c.432.808.393 1.744.365 2.627l-.755-.066v1.079h-9.372v1.847c2.994 0 5.986.018 8.98-.012l.017.457.41.34c-.018.636-.016 1.273-.018 1.911h-9.376c0 1.579 0 3.157.012 4.736 2.186 0 4.374-.013 6.562.012.177-1.148.082-2.31.099-3.466.68.022 1.361.024 2.05 0 .638 1.048.232 2.314.38 3.468.225-.02.45-.04.679-.057.486.778.354 1.71.358 2.579h-22.557a9.98 9.98 0 0 1-.324-2.557c.41 0 .82.017 1.23.029-.01-1.154.01-2.306-.016-3.46.683 0 1.368.012 2.05-.013.78.993.308 2.306.445 3.454 2.184 0 4.368-.014 6.552.013v-4.748h-9.162a15.352 15.352 0 0 1-.125-2.71c3.096.034 6.195 0 9.294.018v-1.85h-9.134l-.2-1.024-.629.026c-.158-.859-.354-1.72-.336-2.599l.927-.05zm2.522 1.026h16.303c-.615-.865-.838-2.518-2.229-2.383-3.968 0-7.938-.018-11.904.015-1.333-.05-1.532 1.536-2.17 2.368z"/>
            <path d="M136.787 35.368c.67.02 1.34.02 2.011 0 .163.345.34.681.51 1.022 3.62 0 7.23-.014 10.847 0-.012-.34-.018-.681-.028-1.024.688 0 1.378 0 2.068.012.15.337.32.667.472 1.008.944 0 1.89 0 2.833-.016.104.254.215.506.336.756.012.655.018 1.312.018 1.969h-3.287v1.637h-2.213c-.042-.522-.088-1.042-.106-1.567-3.673-.165-7.358-.028-11.035-.072v1.639h-2.225a14.96 14.96 0 0 1-.201-1.619h-3.066a10.087 10.087 0 0 1-.303-2.72c1.14.019 2.28 0 3.42.021-.019-.355-.037-.7-.051-1.046zM168.313 35.366c.692.021 1.385.021 2.08 0 0 .105.027.313.035.418.205.308.342.656.403 1.021h9.503c.117.255.241.508.382.75 0 .64.02 1.278.012 1.917h-2.362c.245 1.664.402 3.342.703 4.996.073.637.708.863 1.259.914.509.809.402 1.761.378 2.667-1.582-.053-3.217-.924-3.717-2.52-.58-1.967-.604-4.043-.996-6.065h-5.253c-.01 2.85 0 5.702 0 8.552h-2.23c-.388-2.83-.076-5.705-.176-8.554h-5.228c-.315 1.973-.482 3.973-.906 5.924-.386 1.597-2.01 2.469-3.52 2.65a7.292 7.292 0 0 1-.37-2.757c.259 0 .52.02.784.032.498-.443.9-1.01.954-1.69.12-1.393.459-2.762.503-4.16-.627 0-1.252 0-1.88.011a6.959 6.959 0 0 1-.366-2.685c3.354.033 6.707-.014 10.053.022-.016-.475-.024-.96-.045-1.443zM183.191 38.133c-.09-1.472 1.276-2.871 2.742-2.761 6.425 0 12.848.018 19.272 0 .132.246.267.49.405.733v1.879c-6.23-.02-12.461.032-18.688 0-.655-.033-1.375.454-1.316 1.173-.011 4.071-.011 8.143 0 12.215-.027.407.202.94.677.9 6.303-.01 12.607.014 18.91-.015.132.259.267.513.405.766v1.848H186.11c-1.656.126-2.954-1.5-2.94-3.08.008-4.542.028-9.096.02-13.658zM210.631 35.396c.67.018 1.339.024 2.01 0 .116.25.245.493.387.728 0 .3.025.605.053.898 1.77 0 3.543-.016 5.315 0-.016-.549-.018-1.097-.032-1.644.67.018 1.339.024 2.01 0 .114.25.243.493.387.728 0 .3.024.605.053.898 1.778 0 3.557-.017 5.335 0 0-.547-.012-1.094-.026-1.638.657.014 1.316.01 1.976 0 .135.244.293.474.472.69.012.343.02.683.034 1.026 1.911.636 2.583 2.782 2.314 4.599h-2.182a14.705 14.705 0 0 0-.315-1.684c-.407-.418-1.017-.418-1.56-.44h-14.473c-.566 0-1.284.02-1.603.573-.216.472-.137 1.008-.167 1.513 4.527-.018 9.055 0 13.583 0 .979 0 2.035.123 2.838.728.647.696 1.187 1.76.72 2.692-.443.876-1.395 1.291-2.173 1.816h4.941c.114.254.245.5.393.736v1.918c-2.479 0-4.96.018-7.438.014-.016.902.061 1.815-.06 2.709a3.229 3.229 0 0 1-3.063 2.622h-4.949a10.029 10.029 0 0 1-.246-2.699c1.628.02 3.256.035 4.884-.014.885-.615.636-1.72.659-2.642h-12.33a26.283 26.283 0 0 1-.33-2.64c4.107-.016 8.218.046 12.322-.03 1.39-.749 2.735-1.592 4.084-2.42-4.837-.174-9.682-.031-14.523-.075a11.645 11.645 0 0 1-.238-2.669c-.444 0-.883 0-1.323.014a9.883 9.883 0 0 1-.114-2.727c.306-1.09 1.39-1.716 2.416-2.035-.014-.496-.019-1.025-.04-1.545zM53.955 35.854c1.181.568 1.425 2.026 1.514 3.194a1.799 1.799 0 0 1 1.848-1.024c-.374.795-1.2 1.19-2.051 1.244-.886-.905-1.561-2.116-1.311-3.414zM95.795 35.921l.497-.067c.213 1.289-.275 2.595-1.272 3.4-.885.123-1.72-.547-2.093-1.348a2.965 2.965 0 0 1 1.901 1.09 5.43 5.43 0 0 1 .967-3.075z"/>
            <path d="M52.992 37.805c1.113.772 1.772 1.963 1.787 3.231.446-.646 1.127-1.279 2.05-1.182-.34.76-1.215 1.458-2.155 1.355-1.21-.735-1.983-2.072-1.682-3.404zM96.01 41.02c-.137-1.268.595-2.46 1.677-3.215.442 1.31-.42 2.7-1.6 3.414-.979.023-1.843-.67-2.185-1.475.855.168 1.608.624 2.108 1.275z"/>
            <path fill-rule="nonzero" d="M188.669 38.293c.645.016 1.293.012 1.94 0 .144.245.327.466.542.655l-.123.584c4.584-.012 9.171.012 13.758-.012.447.826.41 1.76.387 2.668h-7.896c-.06.71-.113 1.42-.12 2.131 2.692-.022 5.383.022 8.072-.024.473.802.342 1.728.346 2.606-1.697 0-3.396-.012-5.093 0a7.171 7.171 0 0 0 4.679 2.298c.143.274.29.547.449.816v1.928c-3.28-.469-6.505-2.14-8.14-5.052h-1.087c-1.64 3.53-5.845 4.611-9.44 5.06a13.949 13.949 0 0 1-.178-2.646c2.215-.337 4.537-.838 6.232-2.38-2.06-.066-4.123-.02-6.185-.028-.238-.83-.23-1.694-.225-2.55l.282-.289c-.151-.878-.106-1.77-.082-2.656 1.124-.66 1.648-1.888 1.882-3.11zm1.182 3.975c-.778.802-1.615 1.562-2.641 2.057 2.375 0 4.748-.016 7.124 0 .09-.71.252-1.403.256-2.131-1.576.05-3.177-.1-4.739.074zM143.172 39.756c.677.019 1.354.023 2.033 0 .13.26.277.51.44.75 0 .237.016.47.036.706 1.816 0 3.631-.018 5.447 0 1.189.047 2.25.762 2.739 1.846.615 1.147.43 2.482.457 3.73l1.161-.011c.462.863.363 1.846.353 2.789-2.872.016-5.744-.035-8.616.027 2.269 1.98 5.403 2.256 8.249 2.693.115.231.236.461.36.689v1.899c-4.223-.062-9.095-1.194-11.399-5.103-2.037 4.102-7.094 4.922-11.215 5.107-.339-.874-.295-1.809-.277-2.726 2.91-.104 6.007-.664 8.323-2.555-2.678-.07-5.359-.015-8.038-.029-.342-.896-.301-1.846-.291-2.791.55 0 1.1 0 1.641.014 0-1.075-.041-2.15 0-3.224.19-1.383 1.58-2.482 2.968-2.377 1.884.016 3.769 0 5.654.018.004-.47-.004-.962-.025-1.452zm-6.13 7.201c1.913-.02 3.827.014 5.745-.012.517-.907.41-2.01.42-3.02-1.731.034-3.473-.09-5.198.06-1.307.337-.976 1.965-.966 2.972zm8.723-.152h6.083c-.174-.908.492-2.54-.74-2.848-1.81-.105-3.628-.01-5.439-.044-.035.965-.003 1.932.096 2.892z"/>
            <path d="M51.986 39.756c1.116.81 1.855 2.12 2.022 3.584.402-.744.967-1.558 1.846-1.496-.27.928-1.016 1.71-1.906 1.815-1.211-.793-2.196-2.279-1.962-3.903zM98.31 40.269l.46-.025c.121 1.446-.851 2.622-1.918 3.415-.16-1.322.54-2.53 1.457-3.39zM73.348 40.244c1.182.027 2.362.014 3.544.01.119 1.733.03 3.472.062 5.206h5.116l.125 1.012c-4.488-.02-8.978.025-13.468-.022.012.425.018.85.014 1.277 4.452-.054 8.921.012 13.381-.035-.014.48-.018.963-.026 1.437h-5.237c.039 1.753.047 3.506.043 5.261h-3.643v-5.255h-5.21V45.46h5.22c-.016-1.74.02-3.48.08-5.216zM94.39 41.707c.827.24 1.456.886 1.951 1.617-.112.11-.224.219-.333.335-.724-.427-1.435-1.015-1.618-1.952zM50.993 42.683c1.329.68 2.2 1.923 2.565 3.3.119-.858.87-1.652 1.808-1.696-.176 1.013-1.523 2.428-2.59 1.519-1.049-.73-1.937-1.835-1.783-3.123z"/>
            <path d="M96.845 45.85c.053-1.369 1.023-2.75 2.419-3.167.086 1.518-1.093 2.656-2.326 3.415-1.048-.232-1.856-1.029-2.06-2.034a3.771 3.771 0 0 1 1.967 1.787zM50.488 45.61a5.143 5.143 0 0 1 3.106 3.303c.149-.937.722-1.95 1.772-2.106-.04 1.137-1.278 2.827-2.543 1.995-1.2-.654-2.331-1.749-2.335-3.192zM97.157 48.779c.362-1.477 1.505-2.878 3.087-3.17-.141 1.7-1.611 3.008-3.232 3.415-.843-.599-1.636-1.364-1.646-2.457a3.556 3.556 0 0 1 1.79 2.212z"/>
            <path d="M50 48.537c1.74.277 3.115 1.583 3.935 3.124-.095-1.117.482-2.1 1.34-2.744.373 1.223-.462 2.294-1.31 3.034-1.737-.44-3.531-1.508-3.965-3.414zM96.83 51.463c.172-1.629 1.905-2.81 3.414-2.926-.386 1.59-1.864 2.775-3.415 2.926zM95.399 48.537c.796.718 1.554 1.769 1.413 2.926-1.02-.487-1.594-1.756-1.413-2.926zM160.188 49.024c.653.01 1.306.01 1.961 0 .166.226.344.444.534.651-.234 1.38-.238 2.98-1.339 4.041-.733.775-1.837 1.02-2.874 1.162-.144-.89-.2-1.792-.168-2.692l.636.028c.343-.328.678-.667.998-1.018.068-.722.25-1.438.252-2.172zM166.104 49.024c.673.02 1.347.022 2.022.016.12.24.258.47.41.692v5.146h-2.31c-.239-1.94-.06-3.901-.122-5.854zM171.96 49.024h2.054c.11.242.236.476.376.702v5.152h-2.19c-.457-1.904-.12-3.9-.24-5.854zM178.293 49.024c.678.018 1.356.024 2.036 0 .115.25.247.491.394.724.019 1.709 0 3.418 0 5.13h-2.27c-.284-1.937-.053-3.904-.16-5.854z"/>
            <path d="M50 51.471a5.28 5.28 0 0 1 4.035 2.723c-.062-1.058.347-2.161 1.262-2.73.274 1.117-.31 2.146-1.046 2.926-1.794-.081-3.664-1.107-4.251-2.919zM94.91 51.463c.978.532 1.279 1.709 1.369 2.747.684-1.53 2.307-2.657 3.965-2.659-.57 1.798-2.444 2.83-4.216 2.84-.704-.8-1.296-1.799-1.118-2.928z"/>
            <path d="M93.518 53.902c.825.793 1.186 1.932 1.195 3.07.965-1.516 2.775-2.53 4.555-2.375-.78 1.905-2.891 2.77-4.803 2.718-.815-.94-1.266-2.16-.947-3.413zM55.573 57.077c-.107-1.162.184-2.449 1.107-3.175.404 1.212-.049 2.56-.91 3.404-1.916.13-4.012-.914-4.794-2.865 1.84.053 3.547 1.03 4.597 2.636z"/>
            <path d="M57.15 59.502a3.857 3.857 0 0 1 .74-3.16c.806 1.066.305 2.576-.65 3.405-2.03.096-4.383-.561-5.289-2.391 2-.072 3.922.722 5.199 2.146zM92.179 56.341c.941.801 1.12 2.063.954 3.187 1.158-1.464 3.225-2.382 5.16-2.048-.984 1.825-3.363 2.442-5.394 2.24-.712-.982-1.282-2.206-.72-3.379z"/>
            <path d="M90.717 58.78c.961.866.95 2.31.8 3.498a5.477 5.477 0 0 1 5.312-1.7c-1.139 1.843-3.56 2.405-5.534 1.96-.897-1.003-.977-2.512-.578-3.758zM113.402 58.78h2.07c.185.494.432.983.373 1.531-.04 1.73.077 3.466-.068 5.192-.1 1.253-1.158 2.203-2.321 2.394-1.566.252-3.162.092-4.74.152-.107-.7-.167-1.408-.18-2.116 1.612-.14 3.539.546 4.834-.769.056-2.124.044-4.245.032-6.384zM117.814 58.78c.658.017 1.318.021 1.978 0 .134.304.283.605.446.902 0 2.785.014 5.57 0 8.357-.743 0-1.486 0-2.22.01-.418-3.056-.067-6.18-.204-9.269zM122.204 58.78c.9.07 1.83-.088 2.715.085 1.502 2.121 2.845 4.366 4.251 6.566-.016-2.214.014-4.43-.016-6.644.645.018 1.292.016 1.938.012.145.43.397.841.37 1.317v7.933h-2.74c-1.434-2.069-2.793-4.19-4.211-6.267-.02 2.087.024 4.176-.02 6.265h-2.087c-.41-3.06-.065-6.18-.2-9.267zM132.439 58.799h2.596c.897 1.122 1.653 2.34 2.61 3.424.81-1.177 1.75-2.26 2.573-3.426.872 0 1.744.014 2.618-.017-.207.206-.413.399-.608.602l.943.062c-1.391 1.633-2.823 3.233-4.16 4.907-.128 1.233 0 2.465-.054 3.698h-2.284c-.5-1.584.5-3.583-.886-4.834-1.004-1.189-1.968-2.413-2.982-3.594.012-.142.04-.428.051-.57l-.417-.252zM144.166 58.78c.641.01 1.284.017 1.927 0 .154.3.316.598.484.893 0 2.791.02 5.584 0 8.376h-2.182c-.492-3.042-.074-6.183-.229-9.269zM148.554 58.785c.952.018 1.906.012 2.86 0 1.527 2.105 2.86 4.344 4.418 6.43.06-2.145.029-4.29.02-6.435.684.013 1.369.013 2.054 0 .173.501.417.996.384 1.542v7.719h-2.904c-1.47-2.088-2.916-4.185-4.395-6.27v6.278h-2.198c-.502-3.05-.085-6.182-.24-9.264zM161.825 59.286c2.333-.82 4.852-.367 7.271-.485.318.664.45 1.407.379 2.144-1.829.062-3.677-.129-5.494.13-1.825.356-1.95 2.927-1.161 4.276 1.175 1.014 2.818.447 4.212.615v-1.502h-2.71a14.93 14.93 0 0 1-.162-2.17c1.643.028 3.287 0 4.932.013.762 1.789.227 3.833.361 5.736-2.02-.03-4.042.06-6.059-.051-1.515-.07-2.947-1.137-3.32-2.675-.626-2.082-.465-5.052 1.75-6.03zM175.448 58.78c.66.021 1.32.019 1.98 0 .571 1.187.308 2.533.362 3.805-.032 1.135.1 2.295-.157 3.407-.299 1.131-1.385 1.82-2.46 1.952-1.487.173-2.987.064-4.481.105a10.81 10.81 0 0 1-.204-2.11c1.112.023 2.226.028 3.34.014.905-.005 1.635-.766 1.636-1.703.002-1.825.004-3.647-.016-5.47zM179.777 58.78c.639.015 1.28.013 1.92 0 .155.299.319.588.49.876-.013 2.798.023 5.595 0 8.393h-2.174c-.51-3.04-.074-6.183-.236-9.269zM187.057 58.889c1.653-.205 3.33-.045 4.995-.103a4.24 4.24 0 0 1 .37 2.151c-1.526.041-3.067-.094-4.583.123-.702.13-1.25.684-1.378 1.392 1.844.014 3.688.014 5.532 0 .484.591.457 1.348.429 2.07-2.021.017-4.044-.018-6.065.02.226.995 1.282 1.397 2.2 1.411h3.46c.115.253.246.499.393.735-.014.45 0 .901-.01 1.353-1.975-.066-3.991.18-5.931-.282-2.239-.634-3.102-3.357-2.725-5.459a3.76 3.76 0 0 1 3.313-3.411zM199.882 59.099c1.88-.488 3.834-.252 5.753-.316.142.304.298.603.463.898v1.257c-1.825.182-3.934-.478-5.542.643-1.033 1.257-.966 4.053 1.014 4.334 1.354.071 2.712 0 4.07.018.134.258.285.506.451.744.009.448.009.897 0 1.347-2.07-.103-4.205.262-6.23-.29-2.027-.635-2.726-3.019-2.505-4.95-.143-1.682.918-3.23 2.526-3.685z"/>
            <path fill-rule="nonzero" d="M210.315 58.87c1.672-.182 3.474-.149 4.987.694 1.904 1.307 2.44 4.025 1.688 6.12-.57 1.5-2.206 2.244-3.724 2.324-1.762.104-3.736.088-5.205-1.02-1.529-1.326-1.676-3.605-1.304-5.441.368-1.632 2.005-2.514 3.558-2.677zm.8 2.05c.405.072.814.12 1.225.143l.431.437c0 .322.013.646.023.97.39 0 .78 0 1.175-.01.124.586.172 1.186.143 1.784h-1.332v1.375h-1.576a17.05 17.05 0 0 1-.123-1.345c-.425-.02-.85-.032-1.27-.042a14.257 14.257 0 0 1-.154-1.794c.437.019.873.03 1.312.047 0-.534.014-1.069 0-1.603-2.068.612-2.35 3.94-.613 5.061.946 0 1.935.178 2.861-.104 1.502-.634 1.67-2.603 1.159-3.948-.613-1.16-2.142-1.126-3.262-.97z"/>
            <path d="M218.804 58.78c1.055 0 2.11.015 3.165 0 1.082 2.112 1.788 4.397 2.682 6.595l.304-.265c.785-2.134 1.724-4.204 2.541-6.323h3.113c.139.433.403.848.362 1.322v7.94h-2.114c-.427-1.947-.084-3.962-.22-5.937-.903 1.953-1.674 3.967-2.556 5.93h-2.32c-.922-2.109-1.717-4.273-2.601-6.399v6.396h-2.098c-.546-3.042-.1-6.178-.258-9.259zM59.117 58.78l.368.013c.525 1.205.234 2.607-.412 3.68-2.006.613-4.498-.12-5.658-2.125 1.96-.304 3.937.403 5.347 1.912-.21-1.172-.154-2.404.355-3.48zM89.054 61.22c.803 1.126.726 2.584.433 3.874a5.895 5.895 0 0 1 5.879-1.378c-1.41 1.948-4.007 2.128-6.146 1.707-.713-1.271-1.02-2.924-.166-4.203z"/>
            <path d="M61.393 65.13c-.525-1.248-.589-2.792.25-3.91.838 1.222.644 2.876-.065 4.105-2.14.651-4.792.228-6.212-1.711 2.1-.62 4.386.08 6.027 1.516z"/>
            <path d="M63.179 63.17c1.452.437 2.163 1.905 2.43 3.293-1.892 1.035-4.54 1.764-6.34.168a6.7 6.7 0 0 1 5.54-.576 4.518 4.518 0 0 1-1.63-2.884zM85.122 66.417c.235-1.373.914-3.025 2.437-3.246a4.884 4.884 0 0 1-1.485 2.803c1.788-.574 3.857-.32 5.39.809-1.946 1.354-4.46.751-6.342-.366z"/>
            <path d="M66.17 64.146c1.584.126 2.741 1.327 3.342 2.677-1.638 1.51-4.092 2.908-6.341 1.807 1.459-1.376 3.472-2.266 5.527-2.008a4.554 4.554 0 0 1-2.527-2.476zM81.22 67.15c.585-1.268 1.6-2.725 3.078-2.49-.453 1.098-1.292 1.955-2.33 2.383 1.93-.2 3.832.621 5.105 2.205-2.156.846-4.353-.471-5.853-2.098zM193.906 65.61c.525.01 1.053.013 1.58.01.11.281.232.553.368.823v1.606h-1.715a9.984 9.984 0 0 1-.233-2.44zM75.834 68.4a9.549 9.549 0 0 1 3.85-.265c1.453.33 2.532 1.388 3.975 1.76-1.518.092-3.138.12-4.501-.59a4.99 4.99 0 0 0-3.06-.446c.978.477 2.067.702 3.108 1.035-1.226.31-2.432-.109-3.518-.604-.498-.307-1.013.08-1.491.237a4.751 4.751 0 0 1-2.807.381 11.5 11.5 0 0 1 2.555-.787l.16-.33c-.912-.044-1.852.024-2.65.46-1.314.712-2.898.795-4.382.626.845-.459 1.688-.92 2.53-1.382.984-.55 2.18-.45 3.282-.398.985.044 1.948.622 2.949.303z"/>
        </g>
    </g>
</svg>
