<svg xmlns="http://www.w3.org/2000/svg" width="280" height="100" viewBox="0 0 280 100">
    <g fill="none" fill-rule="evenodd">
        <path fill="#FFF" fill-opacity="0" d="M0 0h280v100H0z"/>
        <g fill="#5A6978">
            <path d="M126.421 25.105c.747-.106 1.501-.132 2.252-.077.061.43.126.856.189 1.29.597 0 1.192-.01 1.789.012-.008.685 0 1.37-.012 2.043-.598.009-1.198.01-1.799 0-.232 1.055.041 2.124-.018 3.188-.044 2.836.072 5.678-.062 8.51-.78.014-1.562.01-2.344-.013V30.19c-.024-.493.018-1.08-.36-1.45-.425-.482-1.105-.331-1.661-.367-.09-.68-.115-1.37-.075-2.055.696-.009 1.393-.009 2.09-.01.009-.401.012-.802.011-1.203zM134.268 25.005c.823-.01 1.636 0 2.455 0 .046.377.094.752.138 1.129.841-.024 1.68.034 2.52.093v1.964c-.823 0-1.662.01-2.493-.012a4.442 4.442 0 0 0-.037 1.911c.785-.016 1.57-.016 2.356 0 0 .683 0 1.366-.01 2.05-2.477 0-4.954.013-7.43-.013 0-.681 0-1.36.01-2.042.824 0 1.663 0 2.494-.01-.028-.52.072-1.185-.41-1.526-.7-.496-1.603-.316-2.398-.387.063-.628-.148-1.383.127-1.93.844-.247 1.786-.034 2.666-.103.003-.377.007-.75.012-1.124zM158.925 25.084a14.457 14.457 0 0 1 2.038-.076c.047.438.096.877.146 1.317.628 0 1.257 0 1.883.034V25.27c1.223.033 2.454-.068 3.673.05.762.227.95 1.219.723 1.891-.148.923-.668 1.844-.468 2.784.473.135.973.096 1.46.094.194 2.055.352 4.109.366 6.174h-1.529c-.008-1.743-.283-3.474-.232-5.218-.04-.297.062-.685-.22-.887-.463 1.279-.68 2.646-.968 3.972.512 1.996 1.168 3.961 1.8 5.933-.66.019-1.322.02-1.982.009-.215-.685-.429-1.354-.643-2.029a48.02 48.02 0 0 0-.587 2.02c-.763.012-1.529.017-2.292 0 .545-1.926.978-3.88 1.518-5.807.145-.409.028-.834-.075-1.236-.39-1.42-.62-2.881-1.048-4.292a53.088 53.088 0 0 1 1.954-.024c.098.221.194.444.294.666.146-.673.297-1.342.426-2.018-.816 0-1.668.106-2.443-.218 0 .418 0 .834-.009 1.252-.54 0-1.08 0-1.618-.012-.198 3.878-.017 7.77-.09 11.655-.687 0-1.389 0-2.082-.019.016-3.164 0-6.334.014-9.493 0-.628-.022-1.356-.528-1.808-.413-.405-1.032-.311-1.56-.36a99.724 99.724 0 0 1 0-2.028h2.064c.009-.416.014-.827.015-1.237z"/>
            <path d="M169.406 25.023c.868-.047 1.74-.021 2.604.077-.01.402-.015.804-.024 1.206l.728.243v1.819l-.719.222c.02 3.271 0 6.541.011 9.81.06.702-.382 1.357-1.088 1.612-.797.12-1.608.043-2.41.041v-1.882l.787-.37c-.12-2.971.308-5.95-.052-8.92-.419-.199-.85-.376-1.29-.53V26.5c.447-.035.896-.076 1.348-.121.016-.45.062-.904.105-1.357zM140.581 25.802c4.387-.02 8.776 0 13.163 0 1.16-.068 1.55 1.731.614 2.285-1.613 1.11-3.274 2.158-4.861 3.292 0 .246.01.49.017.736 1.904.016 3.81 0 5.715 0-.008.76.247 1.981-.713 2.236-1.66.156-3.334.02-4.997.067-.019 1.546 0 3.091 0 4.638-.01.587-.14 1.334-.736 1.582-.832.351-1.75.198-2.624.221-1.068-.035-2.145.095-3.202-.102.025-.671.042-1.34.057-2.012 1.198-.044 2.413.096 3.593-.111.016-1.093.067-2.19 0-3.283-.019-.65-.762-.905-1.294-.932-1.708-.031-3.419.011-5.126-.015-.021-.767-.016-1.535.02-2.301 2.123.02 4.248 0 6.376 0 .096-.45.048-1.009.443-1.322 1.034-.924 2.033-1.868 3.065-2.785-3.16-.132-6.325-.025-9.489-.06-.019-.7-.024-1.415-.02-2.134zM125.095 37.687c.017-2.64-.018-5.279.022-7.918.72-.065 1.548.302 1.54 1.113.029 2 .039 4 0 5.998-.039.8-.95.852-1.562.807zM156.897 29.777c.647-.077 1.552.13 1.514.96.028 2.194.019 4.392 0 6.587.058.86-.913 1.065-1.558 1.168.017-2.906-.06-5.813.044-8.715zM129.44 30.357c.13-.24.372-.404.568-.595.782 1.469.891 3.274.102 4.762h-.432c-.882-1.256-.678-2.808-.237-4.167zM161.854 35.307a10.702 10.702 0 0 1 .033-4.751c.348.158.35.744.426 1.177.185 1.195.036 2.426-.186 3.584l-.273-.01z"/>
            <path fill-rule="nonzero" d="M132.653 33.108c1.436-.312 2.923-.089 4.382-.16.95-.06 2.203.335 2.312 1.463.07 1.885.009 3.774.015 5.661-2.635.016-5.271 0-7.907 0-.015-1.662-.008-3.324-.01-4.986-.015-.802.32-1.817 1.208-1.978zm1.4 2.036v2.825c.915.024 1.832.021 2.749.014-.046-.935.24-1.99-.352-2.801-.8-.035-1.6-.052-2.398-.038h.001z"/>
            <path d="M180.65 40.08c4.187 1.018 7.477 4.923 7.85 9.26.666 4.877-2.557 9.911-7.19 11.374 2.3-2.234 4.081-5.162 4.4-8.425.669-4.607-1.412-9.407-5.06-12.21z"/>
            <path fill-rule="nonzero" d="M87 46.965c-.018-2.82 2.452-5.26 5.143-5.275 6.504-.035 13.01 0 19.51-.014 1.04.025 2.095-.09 3.125.122v19.64c-7.485.14-14.969.02-22.462.06-2.74.072-5.316-2.407-5.316-5.27v-9.263zm8.275-3.266c.018 3.357 0 6.716.01 10.073.025.76-.182 1.602-.802 2.072-.841.549-1.897.446-2.848.415-1.495-.098-2.738-1.047-3.903-1.919-.022 1.1-.012 2.201-.017 3.301 1.283 1.221 3.071 1.676 4.771 1.77 1.38.055 2.84-.139 4.017-.938 1.394-.994 1.978-2.818 1.983-4.51-.01-3.442 0-6.884 0-10.327-1.075-.019-2.148-.075-3.211.063zm5.693-.07c-.013 3.207 0 6.416 0 9.623-.029 1.49.31 3.059 1.23 4.234.992 1.237 2.576 1.718 4.073 1.81 1.398.032 2.836.13 4.188-.327 1.533-.455 2.722-1.714 3.126-3.314a11.53 11.53 0 0 0 .237-3.45c-.03-2.86.009-5.72-.016-8.58-1.025.132-2.288-.31-3.159.214-.064 3.196.015 6.398-.034 9.591 0 1.13-.625 2.325-1.717 2.663-1.244.349-2.746.32-3.777-.58-.71-.712-.96-1.787-.947-2.782.01-3.01-.019-6.02.015-9.032-1.071-.159-2.148-.073-3.219-.07z"/>
            <path d="M187 42.46c3.137.836 5.666 3.46 6.199 6.59.813 3.878-1.752 8.133-5.66 9.283 2.113-1.97 3.62-4.671 3.548-7.58.164-3.22-1.565-6.28-4.087-8.293zM137.4 44.996c1.318-.867 2.962-1.023 4.496-.92 1.43.138 2.916.632 3.88 1.77.663.731.968 1.7 1.223 2.638-1.015.01-2.03.01-3.043 0-.27-.752-.645-1.527-1.327-1.972-.9-.531-2.01-.54-2.919-.022-.91.708-.877 2.387.15 2.979 1.162.646 2.532.61 3.75 1.09 1.326.461 2.73 1.156 3.403 2.478.847 1.836-.181 4.107-1.748 5.186-2.087 1.323-4.784 1.038-6.976.14-1.485-.59-2.3-2.098-2.876-3.516 1.04.009 2.08.032 3.121.037 1.013 1.81 3.662 2.423 5.163.89.995-.935 0-2.471-1.033-2.866-1.408-.487-2.942-.55-4.3-1.203-1.067-.462-2.114-1.265-2.424-2.454-.282-1.525.113-3.348 1.46-4.255zM115.865 44.048h12.846v2.399c-3.039 3.16-6.046 6.353-9.078 9.514h9.43v2.372H115.58c-.01-.789 0-1.58-.009-2.369 3.022-3.052 5.994-6.15 9.006-9.211-2.903-.013-5.805 0-8.708 0-.006-.905-.004-1.805-.004-2.705zM130.653 43.254h3.172v15.08h-3.172c-.003-5.033-.003-10.06 0-15.08zM150.493 44.051h3.174v5.481h6.405v-5.484c1.04 0 2.08 0 3.118.01v14.275h-3.116v-5.888h-6.403v5.888h-3.175c-.008-4.758 0-9.519-.003-14.282zM164.792 43.254h3.352c.01 2.77-.011 5.54.01 8.31.01 1.137.353 2.434 1.42 3.034a4.622 4.622 0 0 0 3.714.205c1.09-.414 1.644-1.62 1.628-2.717.017-2.937 0-5.876.01-8.813 1.113-.026 2.228 0 3.343-.014v9.524c.025 1.693-.633 3.504-2.088 4.498-1.433.967-3.25 1.092-4.94 1.043-1.699 0-3.538-.295-4.83-1.476-1.217-1.121-1.605-2.825-1.633-4.41.002-3.069.014-6.127.014-9.184zM118.722 64.684h1.418v1.04h2.843v-1.041h1.38v1.038h2.32v1.008h-2.315c0 .375-.01.75-.014 1.128h-1.37c0-.375 0-.751-.022-1.124-.941.007-1.882.007-2.82 0 0 .375 0 .748-.011 1.124h-1.416v-1.126c-.783 0-1.567 0-2.35-.013v-.977c.783-.023 1.567-.012 2.35-.018.005-.347.005-.693.007-1.039zM163.693 64.683h1.554l.307.753h2.398v.834h-6.349v-.832h2.346c-.09-.259-.174-.506-.256-.755zM130.69 64.683h1.387v1.751h1.48a219.78 219.78 0 0 0-.15-1.5h1.255c.045.5.093.997.139 1.497h1.25v.998h-2.062c.183 1.817.693 3.671 1.911 5.008.423.38.278.998.296 1.516-2.19-1.295-3.333-3.942-3.519-6.535l-.599.01V75c-.462 0-.927-.012-1.39-.034v-7.55l-.625.03c-.049 2.724-1.226 5.504-3.38 7.031v-1.513c1.346-1.471 2.003-3.51 2.179-5.53-.659-.012-1.328 0-1.993 0l-.01-1.001h3.835c-.005-.592-.003-1.175-.003-1.75z"/>
            <path fill-rule="nonzero" d="M139.4 64.683h1.148l.03.796 1.047.01c.008.278.018.558.03.838.214-.358.43-.716.642-1.075h1.052a16.57 16.57 0 0 1-1.235 2.134c.489.06.326.583.376.934-.83-.179-1.51.233-2.046.836h1.836c0 .295 0 .59.015.886a8.136 8.136 0 0 1-1.301 1.241c.595-.076 1.184-.192 1.778-.275 0 .303 0 .608.008.913-.58.094-1.157.192-1.731.313-.06.574.197 1.332-.304 1.76-.594.32-1.302.175-1.952.203v-.793c.75.166 1.264-.293 1.065-1.073-.672.022-1.342.07-2.01.115v-1.002a79.353 79.353 0 0 1 1.984-.037l.026-.485a8.109 8.109 0 0 0 1.077-.879c-1.116-.165-2.212.03-3.141.699v-.917c.768-.43 1.547-.866 2.188-1.49-.701-.022-1.401-.015-2.1-.014v-.859h1.495v-1.064h-1.147v-.92h1.138c.017-.262.023-.529.031-.795zm1.164 1.721c0 .386 0 .773.023 1.16.467-.25.725-.73 1.025-1.148-.35-.008-.7-.012-1.048-.012z"/>
            <path fill-rule="nonzero" d="M143.945 64.73c.374-.026.747-.036 1.121-.047-.08.426-.168.85-.257 1.275h2.508v.868h-.624c-.031 1.641-.312 3.315-1.144 4.733a6.596 6.596 0 0 0 1.675 1.377v1.25a11.998 11.998 0 0 1-2.26-1.814 10.883 10.883 0 0 1-2.403 1.834c.02-.402-.055-.82.062-1.212.625-.45 1.313-.83 1.774-1.478a10.411 10.411 0 0 1-1.093-3.282l-.489.241c0-.433 0-.892.287-1.234.534-.719.706-1.63.843-2.51zm.548 2.1l-.312.534c.148 1.073.419 2.123.807 3.127.531-1.136.565-2.421.647-3.659l-1.142-.001z"/>
            <path d="M152.137 64.683h1.503c0 .252.013.514.021.759h3.974v.91h-4.384c-.94-.147-1.526.78-2.339 1.089 1.352.025 2.703-.024 4.055-.048l-.508-.7h1.132c.448.636.886 1.279 1.331 1.915l-1.187.043-.29-.262c-2.088 0-4.176.024-6.263.017v-.94a11.4 11.4 0 0 0 1.693-1.098c-.922-.02-1.843 0-2.764-.018v-.896c1.324-.014 2.647-.009 3.97 0 .017-.258.036-.515.056-.771zM158.91 64.698c.494.07 1.166-.168 1.537.177.057.72 0 1.441.019 2.162l1.092.008v.952h-1.088v4.03l1.133-.326v.966c-1.282.374-2.6.697-3.968.746v-1.056a85.3 85.3 0 0 0 1.266-.167v-4.188h-1.225v-.952h1.225c-.002-.792-.006-1.571.008-2.352zM168.746 64.683h1.43c.433.749.753 1.55.951 2.38h-1.478a9.607 9.607 0 0 0-.903-2.38zM172.233 72.306c.035-2.276 0-4.554.017-6.83h1.253c-.018 2.329.035 4.66-.024 6.99-.066 1.206-1.147 2.107-2.334 2.534.06-.455-.204-1.045.293-1.356.452-.335.808-.791.795-1.338zM177.484 65.476h.786V75h-.794c.005-3.175.008-6.35.008-9.524zM175.095 65.476h.794v8.73h-.794c.002-2.91.002-5.82 0-8.73zM162.565 67.063h1.19c.064.53.175 1.055.331 1.567h1.362c.149-.514.26-1.037.333-1.565l1.175.01a6.752 6.752 0 0 1-.39 1.56h1.386v.798c-2.115.025-4.233 0-6.349.009 0-.273.008-.544.013-.814h1.338a7.532 7.532 0 0 1-.39-1.565z"/>
            <path d="M167.958 67.857h2.659c.032 1.51 0 3.023.018 4.534.431-.188.859-.385 1.286-.584v1.075a8.58 8.58 0 0 1-2.848 1.324c-.022-1.752 0-3.503 0-5.256h-1.12c0-.369.003-.733.005-1.093zM116.369 67.857h8.541v1.093c-2.064 1.352-4.247 2.526-6.244 3.984 1.853.146 3.72.055 5.577.055.557.037.516-.653.57-1.041h1.064c.014.797.144 2.12-.919 2.228-2.59.055-5.187.02-7.781.016-.722.076-1.053-1.027-.403-1.377 1.79-1.262 3.631-2.447 5.44-3.684h-5.849l.004-1.274z"/>
            <path fill-rule="nonzero" d="M148.905 69.444h7.926c-.041 1.611.08 3.232-.059 4.836-.38.922-1.628.558-2.417.633v-.803c.334-.013.67-.025 1.005-.042l.1-.69c-1.705-.145-3.418-.04-5.126-.067-.01.561-.012 1.124-.009 1.689h-1.413c-.005-1.848-.007-3.7-.007-5.556zm1.405 1.465c1.706.007 3.412.007 5.117 0 0-.231-.013-.46-.018-.68h-5.08l-.02.68zm.01.87v.792h5.1v-.796c-1.7.005-3.4 0-5.091.003h-.009zM162.397 70.238h5.549c-.017 1.01.038 2.022-.024 3.03-.05.545-.572.927-1.081.924-1.48.033-2.961 0-4.44 0 0-1.315-.002-2.633-.004-3.954zm1.323.91v2.23c.9-.03 1.81.075 2.704-.053.434-.593.113-1.472.205-2.175-.97-.002-1.939.001-2.909-.002z"/>
        </g>
    </g>
</svg>
