<svg xmlns="http://www.w3.org/2000/svg" width="280" height="100" viewBox="0 0 280 100">
  <g fill="#5A6978" fill-rule="evenodd" transform="translate(65 25)">
    <path d="M7.79589649 41.1791035C6.43314233 41.1791035 5.07038817 41.1840943 3.70791128 41.1771627 3.01558226 41.1735582 2.31853974 41.194353 1.63203327 41.1222643.689889094 41.0235582.0826802218 40.5078466.0757486137 39.5047043.0591127542 37.1493438.0494085028 34.7937061.0804621072 32.4386229.0968207024 31.1959242.931663586 30.780305 2.02796673 30.7653327 3.92112754 30.7392699 5.81595194 30.7797505 7.70855823 30.7259612 9.88231054 30.6641312 11.5104067 29.395647 11.860037 27.4331701 11.3152126 27.393244 10.7861922 27.3233734 10.2571719 27.3211553 7.48591497 27.3092329 4.71465804 27.310342 1.94340111 27.3161645 1.04700555 27.3181054.185545286 27.2060906.163641405 26.0729113.141460259 24.9341867.898114603 24.6297505 1.92399261 24.6372366 5.06456562 24.6602495 8.20569316 24.6289187 11.3462662 24.6510998 12.2451571 24.6571996 12.8421072 24.4772551 13.3007024 23.5334473 14.0185397 22.0567375 15.5177079 22.8025786 16.6733457 22.7781793 17.0875786 22.7693068 17.4843438 23.521525 17.9487616 23.8398244 18.4192791 24.1622828 18.9580037 24.5920425 19.4756562 24.6045194 22.5225139 24.6782717 25.572976 24.6034104 28.6195564 24.6813216 29.2084658 24.6962939 30.0563401 25.0104344 30.3130869 25.4573845 30.8742699 26.4347412 30.1908133 27.2834473 28.9092976 27.296756 25.5380407 27.331414 22.1653974 27.3558133 18.794695 27.2945379 17.5689094 27.2723567 16.6628096 27.5815065 16.0176155 28.6694917 13.689427 32.595 9.91585952 33.5734658 5.71308688 33.7159797 5.03573013 33.7389926 3.84321627 33.9571996 3.78914972 34.2510998 3.57815157 35.3950924 3.68434381 36.6100647 3.79580407 37.7870518 3.81243993 37.9622828 4.48702403 38.1979575 4.85772643 38.1993438 11.8783364 38.2240203 18.8986691 38.2148706 25.9192791 38.2209704 26.7652126 38.2218022 27.1489464 37.8646858 27.2218669 36.9893623 27.4849908 33.8374214 27.3765804 33.6957394 24.232403 33.693244 23.0315712 33.6924122 21.8307394 33.6924122 20.6299076 33.6766081 19.8380407 33.6663494 19.3056932 33.3516543 19.2477449 32.4682902 19.185915 31.5233734 19.6145656 30.8426895 20.5267652 30.8216174 23.4330499 30.7547967 26.3446026 30.745647 29.2472828 30.8723567 29.662902 30.8906562 30.3568946 31.7659797 30.3815712 32.2711553 30.5016266 34.7132994 30.4348059 37.1645933 30.4386876 39.6122828 30.4403512 40.7568299 29.7458041 41.1486044 28.7398891 41.1608041 26.9848059 41.1824307 25.2286137 41.2187523 23.4749168 41.1674584 22.2851756 41.1325231 21.8476525 41.6063678 21.8354529 42.7961091 21.8049538 45.7140388 21.7628096 45.7129298 24.6674307 45.7148706 26.0529205 45.7162569 27.4386876 45.7134843 28.8241774 45.7284566 29.7993161 45.7389926 30.4137338 46.1665342 30.4192791 47.2206932 30.4248244 48.3070148 29.7679852 48.6591405 28.8011645 48.6583087 26.3531978 48.6560906 23.9043993 48.6996211 21.4578189 48.6394547 19.4931238 48.5909335 18.6604991 47.6615434 18.6313863 45.6652403 18.6150277 44.5570148 18.605878 43.4479575 18.6302773 42.3400092 18.6477449 41.5431516 18.3654898 41.1438909 17.5045841 41.1660721 15.9349908 41.2065527 14.3554159 41.0917652 12.7982994 41.2387153 12.2579113 41.289732 11.5148429 41.8148706 11.3030129 42.3106192 9.7481146 45.9552588 7.06308688 48.1356654 3.21853974 48.9926895 2.27473198 49.2028558 1.56465804 49.1737431 1.2494085 48.1198614.87232902 46.8602495 1.28268022 45.8773475 2.48212569 45.6330776 4.38166359 45.2465712 5.9196488 44.3388078 7.14876155 42.8748521 7.46012939 42.5041497 7.70606285 42.078549 7.98194085 41.6781793 7.92011091 41.5115434 7.8580037 41.3454621 7.79589649 41.1791035M86.6204529 33.4628373C85.9724861 37.0439834 86.6282163 37.7817837 89.9784011 37.3791959 90.0698983 37.3681054 90.1954991 37.3936137 90.247902 37.342597 90.5836691 37.0181978 91.1257209 36.7118207 91.1836691 36.3350185 91.3170333 35.464963 91.2258133 34.5577542 91.1845009 33.6674584 91.1808965 33.5917652 90.8706377 33.4739279 90.7017837 33.4717098 89.3334843 33.4559057 87.9651848 33.4628373 86.6204529 33.4628373L86.6204529 33.4628373zM101.520083 31.6744824L101.514815 31.6744824C101.514815 30.2917652 101.50927 28.9090481 101.517033 27.5263309 101.521192 26.6901017 101.159917 26.2206932 100.284316 26.2223567 98.947902 26.2248521 97.6053882 26.1533179 96.2781238 26.2636691 95.8627819 26.2980499 95.2328373 26.7513771 95.1355176 27.1259612 94.4659242 29.7017468 95.1075139 30.5571072 97.69439 30.7547967 97.8782163 30.7689372 98.1382902 30.721525 98.230342 30.8230037 98.5672181 31.1942606 99.1078835 31.6331701 99.0829298 32.014963 99.0532625 32.4760536 98.5913401 32.9828928 98.1895841 33.3178281 97.9616728 33.5074769 97.4800647 33.4057209 97.1124122 33.4123752 94.8147227 33.4531331 94.6788632 33.5995287 94.5252588 35.9268854 94.4606562 36.9025786 94.8061275 37.4130222 95.8378281 37.3972181 97.2662939 37.3753142 98.6955915 37.3739279 100.124057 37.3958318 101.123041 37.4108041 101.540878 36.9361275 101.525906 35.9609889 101.503725 34.5325231 101.520083 33.1035028 101.520083 31.6744824L101.520083 31.6744824zM93.8534473 23.5387153C96.8540018 23.5387153 99.8545564 23.5254067 102.855388 23.5439834 104.513429 23.5542421 104.745499 23.7730037 104.749935 25.3547967 104.762135 29.6479575 104.718327 33.9413956 104.761026 38.2340018 104.774612 39.5970333 104.265555 40.1399168 102.88561 40.0983272 100.57988 40.0284566 98.270268 40.0786414 95.9617652 40.084464 93.846793 40.089732 94.0089926 40.1587708 93.3141682 42.0849261 92.540878 44.2284566 91.5222089 46.30378 90.4103789 48.2975878 89.7604713 49.4629298 88.9162015 49.4277172 87.8581608 48.6427819 86.816756 47.870878 87.411488 47.2229113 87.8492884 46.4074769 88.7154621 44.7935213 89.4449445 43.105536 90.2010444 41.4347412 90.6269224 40.4934288 90.2864418 40.0586784 89.2486414 40.0786414 87.8179575 40.1063678 86.3858872 40.052024 84.9557579 40.0875139 83.6462384 40.1199538 82.9666636 39.6036876 82.9866266 38.222634 83.0126895 36.3771627 82.9397689 34.5300277 82.9677726 32.6842791 82.9910628 31.144353 83.4083457 30.7692144 85.0056654 30.7503604 86.8056654 30.7287338 88.6064972 30.7220795 90.4064972 30.742597 91.3977172 30.7536876 91.8258133 30.3106192 91.8258133 29.3230037 91.8249815 25.4823383 92.0445749 26.2764233 88.9081608 26.2115434 87.5240573 26.1829852 86.1388447 26.2012847 84.7541867 26.1899168 83.8611183 26.1824307 83.032098 26.0401941 83.0187893 24.8906562 83.0052033 23.7494362 83.8042791 23.5545194 84.7134288 23.5531331 87.7600092 23.5486969 90.8068669 23.5514695 93.8534473 23.5514695L93.8534473 23.5387153zM65.037976 27.5918207C60.1220795 27.5918207 55.2771627 27.6253697 50.4336322 27.5685305 49.2023013 27.5541128 47.8681054 27.4950555 46.7754067 27.0151109 45.717366 26.5504159 44.7707856 25.6229667 44.052671 24.6860906 43.7196765 24.2516174 43.796756 23.1439464 44.135573 22.6451479 44.5481423 22.0373845 46.7254991 22.3964418 46.9902865 23.0654806 47.5938909 24.5890481 48.7292884 24.6877542 50.1297505 24.6716728 55.3936137 24.6106747 60.6583087 24.6364603 65.9224492 24.6494917 67.9736506 24.6544824 68.2409335 24.9065157 68.1982348 26.9926525 68.1583087 28.9487523 68.5351109 30.9578096 67.3700462 32.7980129 67.1559982 33.1362754 67.5136691 33.9084566 67.7288262 34.430268 68.0831701 35.2892329 68.4508226 36.1750924 67.4141312 36.7315619 66.3666266 37.293854 65.5165342 36.8233364 65.0401941 35.8013401 64.578549 34.8101201 63.7944455 34.5253697 62.7951848 34.5264787 58.1310444 34.5323013 53.4671811 34.5342421 48.8033179 34.5245379 47.726146 34.5223198 46.9498059 34.8921904 46.5347412 35.9635397 46.1449076 36.9691774 45.2867745 37.2331331 44.3773475 36.8341497 43.4058133 36.4079945 43.3983272 35.4730591 43.8619131 34.7075323 44.5348336 33.5962569 44.518475 32.6471811 43.8971257 31.5059612 43.6697689 31.0878466 44.0790111 30.3234288 44.1979575 29.7170518 44.9510074 29.8975508 46.1313216 29.8465342 46.3778096 30.301525 47.1427819 31.7139094 48.2368669 31.8824861 49.6140388 31.8680684 53.6773475 31.825647 57.7412107 31.8539279 61.8047967 31.8522643 64.9769778 31.850878 65.6465712 31.0104898 65.037976 27.5918207M46.8560351 45.4195841C52.6012292 45.4195841 58.18561 45.4323383 63.7694362 45.3907486 64.1290481 45.387976 64.6780314 45.0472181 64.8113956 44.7272551 65.4931885 43.0933364 64.7675878 42.0197689 63.0424492 42.01561 57.9596396 42.0036876 52.8768299 42.0025786 47.7942976 42.0072921 47.4898614 42.0075693 47.1854251 42.0968484 46.8560351 42.1481423L46.8560351 45.4195841zM55.8418946 39.3402865C59.3517837 39.3402865 62.8619501 39.3752218 66.3710074 39.3222643 67.6727634 39.3025786 68.2225786 39.7642237 68.1712847 41.0959242 68.1025231 42.8945379 68.1188817 44.6984196 68.1649076 46.4984196 68.197902 47.7793808 67.6516913 48.3829852 66.3698983 48.3818762 59.3040943 48.3749445 52.2385675 48.3760536 45.1727634 48.3827079 43.9076063 48.383817 43.3051109 47.7710628 43.3098244 46.5145009 43.3164787 44.759695 43.3550185 43.0029482 43.2912477 41.2506377 43.2410628 39.8795656 43.8280314 39.3269778 45.1741497 39.3389002 48.7297874 39.3702311 52.2859797 39.3494362 55.8418946 39.3494362L55.8418946 39.3402865zM76.4778466 28.6284288C75.19439 29.5381331 74.1962384 30.1120702 73.2127819 28.7981146 72.6610259 28.0614233 72.6740573 27.5030129 73.4540018 26.9373937 75.1272921 25.7238078 76.7637061 24.4594824 78.4281238 23.2334196 79.2147227 22.6539372 79.8327449 22.9062477 80.0334843 23.8553235 80.0526155 23.9448799 80.0609335 24.0391497 80.0581608 24.130647 79.8310813 31.447098 80.7701756 38.8059704 79.2288632 46.0755638 78.9784935 47.2569871 78.6901386 48.208281 77.1687893 48.1198336 76.0677726 48.0563401 75.6050185 47.52122 75.8207301 46.5244547 76.9766451 41.1832348 76.4684196 35.7702033 76.5704529 30.3840665 76.5796026 29.8971904 76.5210998 29.4089279 76.4778466 28.6284288M49.8944362 10.870647C50.6802033 8.53524954 51.4363031 6.18903882 52.2675416 3.86972274 52.5697597 3.02600739 52.4899076 1.59171904 53.7841774 1.79301294 54.3509057 1.88118299 54.8826987 3.0725878 55.1777079 3.85807763 56.0169871 6.09255083 56.7265065 8.37554529 57.8352865 10.6826617 57.9949908 10.3532717 58.1948983 10.0369131 58.3071904 9.6919963 58.9934196 7.5850647 59.6566359 5.47092421 60.3351017 3.36149723 60.4620887 2.96722736 60.5402773 2.51168207 60.7948059 2.21750462 61.0204991 1.95659889 61.4596858 1.88090573 61.8048799 1.72341959 61.9279852 2.07110906 62.2335305 2.47480591 62.1464695 2.75761553 61.004695 6.46297597 59.8243808 10.1569686 58.5958226 13.8346026 58.4777079 14.1889464 57.9728096 14.4138078 57.6473013 14.6988355 57.365878 14.3727726 56.9585767 14.0913494 56.823549 13.7128835 55.9709612 11.321756 55.1824214 8.90733826 54.3619963 6.50456562 54.2192052 6.08645102 54.0245656 5.68608133 53.6868577 4.87813309 53.3233641 5.77397412 53.0804806 6.28524954 52.9055268 6.8187061 52.1571904 9.09920518 51.4565434 11.3960628 50.668281 13.6624214 50.5254898 14.0722181 50.0530314 14.3672274 49.7327911 14.7151941 49.3881516 14.3821996 48.8643993 14.1099261 48.7268762 13.7062292 47.5058041 10.1234196 46.3363031 6.5225878 45.2095009 2.90900185 45.108854 2.58626617 45.4177264 2.13598891 45.5363956 1.74476895 45.9567283 2.00096118 46.6260444 2.16704251 46.7569131 2.52831793 47.5737338 4.78358595 48.2671719 7.08377079 49.0091312 9.36648799 49.173549 9.87194085 49.3687431 10.3674122 49.5495194 10.867597 49.6645841 10.8684288 49.7793715 10.8695379 49.8944362 10.870647M17.839963 7.38698706C18.1832163 7.41332717 18.4973567 7.45907579 18.8114972 7.45796673 20.52 7.45214418 22.2304436 7.48402957 23.9356192 7.40279113 24.9578928 7.35426987 25.6712939 6.78504621 25.7952311 5.6923475 25.9216636 4.57746765 25.4639002 3.7276525 24.3667652 3.48393715 23.3902403 3.26711645 22.3593715 3.21221811 21.3537338 3.22219963 17.4590018 3.2612939 17.6181516 2.51434381 17.7296118 7.09807763 17.7304436 7.14160813 17.7609427 7.18430684 17.839963 7.38698706M27.5142699 14.5232163C26.3913494 15.0608318 25.7966174 14.644658 25.3316451 13.821183 24.6063216 12.5368946 23.9503142 11.1990943 23.0858041 10.0146211 22.7292421 9.52580407 21.8985582 9.09354898 21.3018854 9.11628466 17.7323845 9.2535305 17.7343253 9.30038817 17.6930129 12.9139741 17.689963 13.1906839 17.7742514 13.5214603 17.6528096 13.7316266 17.4321072 14.1142514 17.0869131 14.4250647 16.7938447 14.7658226 16.4924584 14.4197967 16.1680591 14.0904067 15.9024399 13.7188725 15.8120518 13.5924399 15.8614048 13.3598152 15.8614048 13.1757116 15.859464 9.90149723 15.8810906 6.62756007 15.8489279 3.35390018 15.8370055 2.12977819 16.3227726 1.58661738 17.5762847 1.62127542 19.6499445 1.6781146 21.729427 1.57996303 23.7994824 1.6828281 25.8492976 1.7845841 27.1912569 2.89031423 27.5777634 4.55916821 27.9448614 6.14567468 27.2583549 7.66536044 25.5786876 8.71868762 24.9113124 9.13707948 24.8065065 9.52330869 25.203549 10.1712754 25.8052126 11.1536229 26.3749908 12.1567652 26.9284104 13.1673937 27.1585397 13.5871719 27.3124214 14.0490943 27.5142699 14.5232163M82.5827911 8.01393715C82.5827911 9.21255083 82.5972089 10.4111645 82.5780776 11.6095009 82.5639372 12.5014603 82.8997043 13.0113494 83.8631978 12.9908318 84.9689279 12.9672643 86.0826987 13.0534935 87.1801109 12.9531238 89.8354713 12.7110721 91.5999815 10.6415712 91.5198521 7.9684658 91.4369501 5.19748614 89.5313124 3.26661738 86.7938817 3.2003512 85.8722551 3.17817006 84.9484104 3.22890943 84.0281701 3.19120148 82.9482255 3.14683919 82.5367652 3.65617375 82.5719778 4.69508318 82.6094085 5.80025878 82.5802957 6.90737523 82.5827911 8.01393715M80.7414787 8.16809612C80.7414787 6.46264325 80.7450832 4.75719039 80.7400924 3.05173752 80.737597 2.27373383 80.9397227 1.64739372 81.8635675 1.64462107 83.9233641 1.63824399 86.0144917 1.43584104 88.0354713 1.72031423 91.6368577 2.22687616 93.4631978 5.03362292 93.1069131 9.03260628 92.8105176 12.3595009 90.452939 14.4780776 86.9926802 14.5612569 85.3826063 14.5997967 83.7703142 14.6499815 82.1649538 14.7728096 81.1196673 14.8526617 80.7326063 14.3979482 80.7387061 13.4228096 80.7497967 11.6713309 80.741756 9.91985213 80.7414787 8.16809612M99.274159 8.08109057L99.265841 8.08109057C99.265841 8.54273567 99.2644547 9.00465804 99.265841 9.46630314 99.2791497 13.4669501 98.9677819 13.0496673 102.868336 12.9456932 104.126007 12.9121442 105.479612 12.4685213 106.59061 11.8532717 108.415009 10.8426433 108.251146 8.93201479 108.173235 7.1622366 108.077301 4.99624769 106.443937 3.32184843 104.277948 3.21399261 103.080444 3.15465804 101.876839 3.22563771 100.677394 3.1915342 99.6637153 3.16269871 99.2561368 3.6492976 99.27 4.61805915 99.2871904 5.77231054 99.274159 6.92656192 99.274159 8.08109057L99.274159 8.08109057zM97.6582625 7.95133087C97.6582625 6.24144177 97.6668577 4.53182994 97.654658 2.82194085 97.6485582 1.94301294 97.9901479 1.35271719 98.9309057 1.38515712 101.047542 1.4583549 103.201331 1.36713494 105.268059 1.74060998 108.35207 2.29818854 110.525545 5.51306839 110.168152 8.51306839 109.720647 12.2702773 107.504473 14.443475 103.954381 14.5471719 102.338484 14.5945841 100.718983 14.5233272 99.1028096 14.5696303 98.0212015 14.6006839 97.6136229 14.138207 97.6407948 13.0804436 97.6851571 11.3716636 97.6527172 9.6609427 97.6527172 7.95133087L97.6582625 7.95133087zM147.206506 7.4714695C148.024436 7.68718115 149.584325 7.78505545 149.662514 8.17821627 149.898189 9.36019409 149.882662 10.8144455 149.371109 11.8758133 148.315564 14.0637061 145.239039 15.2140758 142.67268 14.7532625 139.891719 14.2539094 137.644492 12.1752588 137.140425 9.40843808 136.616673 6.5318207 137.52305 4.07719963 139.882015 2.31490758 142.136174.631358595 144.613808.712042514 147.10586 1.7878281 147.520924 1.96694085 147.983124 2.22368762 148.222126 2.57969501 148.585619 3.12119224 149.163993 4.04614603 148.963253 4.34143253 148.286451 5.33930684 147.757985 4.36056377 147.238946 3.92359519 145.191627 2.19928835 142.033031 2.28468577 140.288762 4.11851201 138.399482 6.10483364 138.391996 9.74586876 140.272957 11.7335767 141.972588 13.529695 145.271756 13.6206377 147.191257 11.8857948 147.551423 11.5605638 147.896617 11.1208226 148.036636 10.6683272 148.396802 9.50492606 148.026932 9.0624122 146.806969 9.01943623 146.391627 9.00474122 145.939409 9.102061 145.570924 8.96647874 145.207708 8.83283734 144.929612 8.46878928 144.614085 8.2059427 144.948466 7.9611183 145.252625 7.5973475 145.625545 7.50113678 146.101885 7.37830869 146.633956 7.4714695 147.206506 7.4714695M130.639686 10.1900739C130.639686 9.43674677 130.638299 8.68369686 130.639963 7.93036969 130.644122 6.12926063 130.606137 4.32593346 130.689316 2.52842884 130.706506 2.15301294 131.171479 1.79839187 131.430166 1.43406654 131.690795 1.79950092 132.172403 2.16133087 132.178503 2.53064695 132.235065 6.17833641 132.218429 9.82713494 132.201516 13.4756562 132.200129 13.7709427 132.043198 14.0653974 131.819168 14.8425693 128.893198 11.6512569 126.192643 8.705878 123.240333 5.48573013 123.154935 6.26678373 123.065102 6.72842884 123.060388 7.19118299 123.040702 9.13064695 123.110296 11.0742699 122.998835 13.0079113 122.97 13.5097597 122.404104 13.9802773 122.084972 14.4654898 121.796063 13.9802773 121.268152 13.50061 121.257616 13.0095749 121.18414 9.63942699 121.201331 6.267061 121.241257 2.89580407 121.246248 2.44580407 121.543198 1.9994085 121.70512 1.55134935 122.102163 1.80865065 122.57268 1.99802218 122.884048 2.33462107 125.045323 4.67362292 127.188299 7.03064695 129.296063 9.41789279 129.590518 9.75144177 129.66122 10.282403 129.835342 10.7218669 130.103457 10.544695 130.371571 10.3675231 130.639686 10.1900739M5.47813309 7.45319778L5.47813309 7.4476525C6.21288355 7.4476525 6.94763401 7.44792976 7.68238447 7.44737523 7.77415896 7.44737523 7.86621072 7.44543438 7.95770795 7.43850277 9.32462107 7.3325878 10.005305 6.69654344 10.009464 5.52288355 10.0139002 4.24719039 9.31935305 3.52547135 7.9394085 3.48582255 6.4712939 3.44367837 4.9984658 3.52574861 3.53201479 3.45837338 2.24523105 3.39931608 1.86232902 3.97852126 1.87147874 5.1890573 1.88866913 7.45125693 1.83931608 7.45181146 4.10040665 7.45319778 4.55955638 7.45347505 5.01898336 7.45319778 5.47813309 7.45319778L5.47813309 7.45319778zM.0634380776 8.23452865C.0634380776 6.61890943.0673197782 5.0032902.0623290203 3.38767098.0584473198 2.19903882.589408503 1.57879852 1.83072089 1.63175601 4.17720887 1.73184843 6.53589649 1.69829945 8.86824399 1.93369686 10.8537338 2.13415896 11.7670425 3.2748244 11.84939 5.13859519 11.9322921 7.01733826 10.9136229 8.66345656 9.14051756 8.96678373 7.43007394 9.25957486 5.66001848 9.23462107 3.91408503 9.28508318 1.96907579 9.3416451 1.90530499 9.37297597 1.89116451 11.3340665 1.88561922 12.1187246 1.9674122 12.9169686 1.8445841 13.6824954 1.78192237 14.0709427 1.35243993 14.4003327 1.08903882 14.7566174.754380776 14.3825878.1712939 14.0332348.131090573 13.6298152-.00116451017 12.3036599.0626062847 10.9578189.0531792976 9.61918669.0498521257 9.15754159.0526247689 8.69589649.0526247689 8.23452865L.0634380776 8.23452865zM66.0429205 8.14294824C66.0418115 6.43583179 66.0659335 4.72843808 66.0323845 3.02215342 66.012976 2.0181793 66.4424584 1.61254159 67.44061 1.62529575 69.8852495 1.65634935 72.3318299 1.60117375 74.7750832 1.66882625 75.2203697 1.68130314 75.6540111 2.11134011 76.0929205 2.34840111 75.6506839 2.62788355 75.2195379 3.12557301 74.7645471 3.14830869 72.8774861 3.24313309 70.9823845 3.23148799 69.0922736 3.18601664 67.6385767 3.15108133 67.6258226 4.07936229 67.614732 5.11854898 67.6036414 6.16577634 67.780536 6.9595841 69.1003142 6.90385397 70.0202773 6.8647597 70.9510536 6.8617098 71.8635305 6.96291128 72.1832163 6.99840111 72.462976 7.39350277 72.7610351 7.62418669 72.454658 7.89451941 72.1715712 8.3569963 71.8371904 8.39775416 70.8814603 8.51392791 69.9043808 8.46984288 68.9358965 8.4673475 68.0885767 8.46540665 67.6407948 8.85080407 67.638854 9.71448244 67.6385767 9.80681146 67.6338632 9.89886322 67.629427 9.99119224 67.4871904 12.9723383 67.5124214 12.9972921 70.4996673 12.9989556 72.1604806 12.9997874 73.8246211 12.9509889 75.4798891 13.0499723 75.8874677 13.0743715 76.2659335 13.5884196 76.6577079 13.877329 76.2637153 14.1892514 75.8772089 14.7598614 75.4746211 14.7715065 72.7091867 14.8513586 69.9404251 14.8228004 67.1727726 14.8103235 66.2486506 14.8064418 66.0420887 14.1787153 66.0431978 13.4023752 66.0462477 11.6492329 66.0443068 9.89609057 66.0429205 8.14294824M32.1992052 8.172061C32.201146 6.4630037 32.2136229 4.7539464 32.1964325 3.04516636 32.186451 2.05505545 32.6450462 1.62418669 33.6309982 1.63222736 36.1249908 1.65191312 38.6200924 1.60810536 41.1126987 1.66882625 41.506414 1.6785305 41.8901479 2.09969501 42.2785952 2.33065619 41.8832163 2.6181793 41.4994824 3.13361368 41.0907948 3.15385397 39.2015157 3.24784658 37.3033641 3.25755083 35.4121442 3.19294824 33.9700924 3.14331793 33.753549 3.91716266 33.7560444 5.1082902 33.758817 6.26060074 34.0017006 7.01531423 35.3611275 6.90274492 35.9572458 6.85366913 36.5636229 6.86531423 37.1611275 6.909122 37.8542884 6.9595841 38.8890388 6.70921442 38.8907024 7.76836414 38.892366 8.88601664 37.8354344 8.69137708 37.0807209 8.73185767 36.4818299 8.76402033 35.87878 8.76984288 35.2798891 8.73906654 34.2387616 8.68583179 33.8009612 9.11836414 33.7643623 10.1949815 33.6617745 13.2024677 33.6484658 13.223817 36.638207 13.2282532 38.2549353 13.2304713 39.8755453 13.1716913 41.4856192 13.2756654 41.9497597 13.30561 42.3839556 13.8052403 42.8320148 14.0894362 42.4022551 14.3370333 41.9777634 14.7873105 41.5421811 14.7984011 38.91122 14.8649445 36.2772089 14.8122643 33.6445841 14.839159 32.553549 14.8502495 32.175915 14.3145749 32.1903327 13.2992329 32.2150092 11.5904529 32.1972643 9.8811183 32.1992052 8.172061M36.3874214 44.2103512C36.3874214 43.287061 36.3777172 42.3634935 36.3899168 41.4404806 36.4040573 40.3749538 37.1016543 40.0261553 38.0207856 39.9349353 38.9424122 39.8437153 39.6882532 40.253512 39.7381608 41.1465804 39.8482348 43.1207024 39.8709704 45.1125693 39.7312292 47.0828096 39.6505453 48.222366 38.6693068 48.4563771 37.6384381 48.3582255 36.6081238 48.2595194 36.3813216 47.5716266 36.3793808 46.703512 36.3777172 45.8725508 36.3791035 45.0413124 36.3791035 44.2103512L36.3874214 44.2103512zM39.8468762 34.3692144C39.8468762 34.9220795 39.8732163 35.4763309 39.8413309 36.0269778 39.7775601 37.1304898 39.0697043 37.5286414 38.0707209 37.5358503 37.0905915 37.5433364 36.4678558 37.0534104 36.4182255 36.0635767 36.3633272 34.961451 36.3500185 33.8482348 36.4459519 32.7508226 36.544658 31.6237431 37.2500185 31.0367745 38.4062107 31.0486969 39.6192421 31.0608965 39.7789464 31.9331701 39.8468762 32.8492514 39.8840296 33.3533179 39.8535305 33.8623752 39.8535305 34.3692144L39.8468762 34.3692144zM116.167791 8.00420518C116.167514 9.70938078 116.227403 11.4178835 116.127865 13.1172366 116.101248 13.5755545 115.592745 14.0058688 115.305222 14.4494917 115.059566 14.0205638 114.607902 13.5952403 114.600693 13.1624307 114.541913 9.7068854 114.5372 6.24967652 114.603743 2.79468577 114.612616 2.34607209 115.122782 1.90716266 115.400878 1.46381701 115.656516 1.89274492 116.111506 2.31196858 116.132856 2.75254159 116.218253 4.49930684 116.168068 6.2530037 116.167791 8.00420518M39.846183 25.9172551C39.846183 26.4235397 40.0139279 27.0179945 39.8059797 27.4153142 39.507366 27.9864787 38.9539464 28.7855545 38.4740018 28.8102311 37.8612477 28.8418392 36.7630037 28.2928558 36.666793 27.8295471 36.3928558 26.5100462 36.3862015 25.0879575 36.5722458 23.747939 36.6293623 23.3378651 37.6735397 22.7644824 38.2233549 22.8074584 38.7787153 22.8507116 39.4616174 23.4690111 39.7552403 24.0146673 40.0305638 24.5264972 39.8700277 25.2728928 39.9016359 25.916146 39.8830591 25.9164233 39.8644824 25.9169778 39.846183 25.9172551"/>
  </g>
</svg>
