<svg xmlns="http://www.w3.org/2000/svg" xmlns:xlink="http://www.w3.org/1999/xlink" width="320" height="100" viewBox="0 0 320 100">
    <defs>
        <path id="a" d="M0 42.788V0h48.923v42.788z"/>
        <path id="c" d="M4.15 4.326L.086 1.6 4.15.124v4.202z"/>
        <path id="e" d="M4.15 4.326L.086 1.6 4.15.124v4.202z"/>
        <path id="g" d="M4.286 3.668L4.15.124.086 1.6l4.2 2.817v-.75z"/>
        <path id="i" d="M4.286 4.417L.086 1.6 4.15.124l.136 3.544v.75z"/>
    </defs>
    <g fill="none" fill-rule="evenodd">
        <path fill="none" d="M0 0h320v100H0z"/>
        <path fill="#2A3541" d="M147.46 64.946h.81l-2.727 4.609h-.241l-.416-3.157-1.828 3.157h-.245l-.66-4.61h.812l.38 2.748 1.595-2.747h.56l.342 2.747zM158.161 64.946h.81l-2.726 4.609h-.241l-.416-3.157-1.828 3.157h-.245l-.66-4.61h.812l.38 2.748 1.595-2.747h.56l.342 2.747zM168.863 64.946h.81l-2.727 4.609h-.24l-.417-3.157-1.827 3.157h-.245l-.66-4.61h.812l.38 2.748 1.594-2.747h.56l.343 2.747z"/>
        <path fill="#343F4B" d="M173.884 68.42c.152 0 .269.053.348.158.08.104.1.233.059.386a.693.693 0 0 1-.261.377.703.703 0 0 1-.434.152c-.153 0-.268-.05-.346-.152-.077-.102-.096-.228-.056-.377a.72.72 0 0 1 .26-.386.68.68 0 0 1 .43-.158M183.058 65.293h.971l-2.305 2.019 1.557 2.11h-1.097l-1.506-2.108 2.38-2.021zm-2.117-2.141h.818l-1.682 6.27h-.818l1.682-6.27zM191.909 66.423l-.804 2.998h-.823l.617-2.297c.123-.458.147-.777.073-.959-.075-.18-.264-.271-.57-.271-.17 0-.338.039-.5.116a3.046 3.046 0 0 0-.6.413l-.803 2.998h-.818l1.107-4.129h.818l-.145.543c.527-.415.99-.623 1.389-.623.524 0 .863.248 1.018.745.572-.503 1.096-.754 1.573-.754.4 0 .692.146.872.44.18.293.19.74.03 1.341l-.655 2.437h-.817l.656-2.446c.092-.343.092-.607 0-.79-.091-.182-.269-.273-.533-.273-.338 0-.7.17-1.085.511M200.063 65.293l.066-.248c.178-.664.453-1.16.823-1.485.37-.326.754-.49 1.15-.49.17 0 .365.028.584.082l-.214.798a.957.957 0 0 0-.358-.071c-.32 0-.566.085-.736.255-.17.171-.314.475-.431.911l-.066.248h.737l-.198.736h-.737l-.91 3.393h-.817l.91-3.393h-.593l.197-.736h.593zM205.901 68.42c.153 0 .27.053.349.158.08.104.1.233.058.386a.694.694 0 0 1-.26.377.703.703 0 0 1-.434.152c-.153 0-.268-.05-.346-.152-.077-.102-.096-.228-.056-.377a.72.72 0 0 1 .26-.386.68.68 0 0 1 .43-.158M214.637 68.456l-.217.809a3.97 3.97 0 0 1-1.266.228c-.647 0-1.111-.191-1.394-.574-.282-.383-.337-.896-.164-1.54.174-.649.502-1.172.983-1.57a2.501 2.501 0 0 1 1.638-.597c.213 0 .399.02.557.06.159.04.347.116.566.227l-.233.87c-.343-.263-.691-.395-1.045-.395-.368 0-.705.13-1.011.389a1.91 1.91 0 0 0-.621.99c-.113.421-.075.756.114 1.005.19.248.502.372.936.372.315 0 .7-.091 1.157-.274M222.202 66.02c-.393 0-.75.128-1.07.385a1.84 1.84 0 0 0-.64.983c-.107.395-.065.718.126.968.19.25.488.374.892.374a1.72 1.72 0 0 0 1.088-.38c.324-.252.54-.576.645-.97.105-.393.06-.717-.138-.975-.198-.257-.5-.386-.903-.386m.242-.736c.63 0 1.098.203 1.405.609.308.405.38.914.215 1.528-.16.595-.504 1.09-1.032 1.483a2.865 2.865 0 0 1-1.753.59c-.62 0-1.085-.2-1.394-.599-.31-.4-.384-.898-.223-1.497.162-.604.507-1.107 1.036-1.51a2.817 2.817 0 0 1 1.746-.604M232.676 66.423l-.804 2.998h-.822l.616-2.297c.123-.458.147-.777.073-.959-.075-.18-.264-.271-.57-.271-.17 0-.338.039-.501.116a3.053 3.053 0 0 0-.598.413l-.804 2.998h-.818l1.108-4.129h.817l-.146.543c.528-.415.992-.623 1.39-.623.524 0 .864.248 1.018.745.572-.503 1.096-.754 1.573-.754.401 0 .692.146.872.44.18.293.19.74.029 1.341l-.654 2.437h-.817l.656-2.446c.092-.343.092-.607 0-.79-.091-.182-.269-.273-.533-.273-.338 0-.7.17-1.085.511"/>
        <path fill="#2A3541" d="M173.546 37.706l-.666 3.946h-19.707l-1.174 1.91h19.586l-.664 3.946h-20.925l-.343 2.036h17.396c2.434 0 3.428 1.317 2.985 3.946l-.536 3.183c-.386 2.29-1.796 3.436-4.229 3.436h-22.627l.708-4.2h21.289l.15-.891c.129-.764-.375-1.146-1.51-1.146h-19.343l.686-4.073-2.468 1.654.965-5.727c2.175-1.357 3.7-2.715 4.58-4.074h-4.259l.666-3.946h11.313l.129-.764c.215-1.272-.694-1.909-2.72-1.909h-7.299l.662-3.927h10.34l.239-1.413 4.986.01-.212 1.257-.686 4.073-.451 2.673"/>
        <path fill="#2A3541" d="M173.277 35.447h-10.922l.77-4.179h10.825zM217.88 29.691h5.393l-4.935 9.598c-.665.935-1.84 2.25-3.346 2.25h-3.737l6.626-11.848zM237.697 31.219L240 41.539h-6.074l-1.43-6.374c-.201-.764-.803-1.146-1.806-1.146l-6.596-.002 2.403-4.326h8.707c1.254 0 2.084.51 2.493 1.528M235.14 43.51c2.71-.083 3.828 1.273 3.352 4.073l-1.572 9.265c-.36 2.12-1.579 3.261-3.62 3.261h-5.51l.724-4.268h2.236c.57 0 1.032-.48 1.103-.905l.838-4.934c.216-1.273-.33-2.46-1.719-2.46h-9.874l-5.769 12.567h-5.88l5.811-12.568h-6.083l4.275-4.03h21.688zM211.255 43.807c.545-.765.414-1.936-1.324-1.05l-15.497 10.2-5.23-3.821-.812 4.566 5.942 6.332 16.609-15.871M176.269 36.554c5.815 2.112 7.497 7.729 5.258 16.45l-2.105 7.105h-5.013l2.481-7.979c1.627-5.653 1.703-8.545-1.484-9.952M176.275 37.115l-.95 5.725"/>
        <path fill="#343F4B" d="M182.612 32.736c0 1.693-1.35 3.065-3.014 3.065-1.665 0-3.014-1.372-3.014-3.065 0-1.693 1.35-3.065 3.014-3.065 1.665 0 3.014 1.372 3.014 3.065M186.907 56.937h-.002zM194.853 41.1h2.76l-.222 1.23h-2.759l.221-1.23zm5.9 6.908l4.75-3.035c.138-1.8-.83-2.643-3.095-2.643h-1.882l.222-1.23h6.02l.707-3.932h-21.57l-.708 3.933h6.27l-.22 1.229h-1.882c-2.913 0-4.61 1.148-5.097 3.949l-2.41 13.75h4.515l.508-2.942.022-.193.002-.06h-.002.002l.037-.209 1.605-9.14c.136-.789.807-1.222 1.59-1.222h9.617c1.009 0 1.269.684 1.192 1.092l-.193.653zM198.26 60.029h2.535c1.435 0 2.272-.826 2.507-2.183l1.238-6.694-5.207 4.948-1.073 3.929zM204.727 31.268l.246-1.475h-5.643l-.246 1.475h-3.26l.245-1.475h-5.518l-.245 1.475h-3.387l-.74 4.18h21.444l.741-4.18z"/>
        <g transform="translate(81 25)">
            <mask id="b" fill="#fff">
                <use xlink:href="#a"/>
            </mask>
            <path fill="#343F4B" d="M24.461 0C10.951 0 0 11.006 0 24.582c0 .162.003.324.006.486a4.565 4.565 0 0 1 2.477-.049c2.471.645 3.956 3.184 3.316 5.673-.09.348-.217.676-.375.982a5.55 5.55 0 0 1 5.43 2.938 2.928 2.928 0 0 1 2.383.02c.068.03.511.186.884.123.215-.043.51-.168.916-.552l9.42-8.78.452.1a.317.317 0 0 1-.012.033L20.012 37.77c-.075.365-.12 1.037.383 1.508a5.12 5.12 0 0 1 3.752.196 5.162 5.162 0 0 1 2.42 2.264 6.589 6.589 0 0 1 7.717-1.425 6.604 6.604 0 0 1 2.724 2.474 3.662 3.662 0 0 1 4.51-.589 24.566 24.566 0 0 0 7.405-17.617C48.923 11.006 37.971 0 24.461 0" mask="url(#b)"/>
        </g>
        <path fill="#343F4B" d="M125.03 49.776c0 10.861-8.76 19.666-19.569 19.666-10.807 0-19.569-8.805-19.569-19.666 0-10.86 8.762-19.665 19.57-19.665 10.807 0 19.569 8.804 19.569 19.665"/>
        <path stroke="#FFF" stroke-width=".2" d="M125.03 49.776c0 10.861-8.76 19.666-19.568 19.666-10.808 0-19.57-8.805-19.57-19.666 0-10.86 8.762-19.665 19.57-19.665 10.807 0 19.569 8.804 19.569 19.665z"/>
        <path fill="#343F4B" d="M120.138 49.776c0 8.146-6.57 14.75-14.677 14.75-8.105 0-14.676-6.604-14.676-14.75s6.57-14.749 14.676-14.749 14.677 6.603 14.677 14.75"/>
        <path stroke="#FFF" stroke-width=".2" d="M120.138 49.776c0 8.146-6.57 14.75-14.677 14.75-8.105 0-14.676-6.604-14.676-14.75s6.57-14.749 14.676-14.749 14.677 6.603 14.677 14.75z"/>
        <path fill="#FFF" d="M105.461 74.164c6.635 0 12.651-2.655 17.058-6.965a3.662 3.662 0 0 0-4.51.588 6.604 6.604 0 0 0-2.725-2.473 6.589 6.589 0 0 0-7.718 1.425 5.162 5.162 0 0 0-2.42-2.264 5.12 5.12 0 0 0-3.751-.196c-.503-.471-.458-1.143-.383-1.508l4.885-12.215a.317.317 0 0 0 .012-.034l-.453-.1-9.419 8.781c-.405.384-.7.509-.916.552-.373.063-.816-.093-.884-.123a2.928 2.928 0 0 0-2.383-.02 5.55 5.55 0 0 0-5.43-2.938c.158-.306.286-.634.375-.982.64-2.489-.845-5.028-3.316-5.673a4.565 4.565 0 0 0-2.477.049c.258 13.352 11.107 24.096 24.455 24.096"/>
        <path fill="#343F4B" d="M102.039 44.964c-.245-.006-.492 0-.74.02-3.77.298-6.62 3.495-6.559 7.243a4.39 4.39 0 0 1 5.87-1.476"/>
        <path stroke="#FFF" stroke-width=".2" d="M102.039 44.964c-.245-.006-.492 0-.74.02-3.77.298-6.62 3.495-6.559 7.243a4.39 4.39 0 0 1 5.87-1.476"/>
        <path fill="#343F4B" d="M111.96 51.593c.099.224.188.456.265.695 1.17 3.613-.677 7.483-4.145 8.862a4.434 4.434 0 0 0-.893-6.015"/>
        <path stroke="#FFF" stroke-width=".2" d="M111.96 51.593c.099.224.188.456.265.695 1.17 3.613-.677 7.483-4.145 8.862a4.434 4.434 0 0 0-.893-6.015"/>
        <path fill="#343F4B" d="M105.4 37.94a32.236 32.236 0 0 0-5.244 20.661l17.295-26.147-4.164-2.782a32.108 32.108 0 0 0-7.888 8.267"/>
        <path stroke="#FFF" stroke-width=".2" d="M105.4 37.94a32.236 32.236 0 0 0-5.244 20.661l17.295-26.147-4.164-2.782a32.108 32.108 0 0 0-7.888 8.267z"/>
        <path fill="#343F4B" d="M100.13 58.585a31.966 31.966 0 0 0 16.95-12.824 32.247 32.247 0 0 0 4.548-10.503l-4.156-2.788-17.342 26.115z"/>
        <path stroke="#FFF" stroke-width=".2" d="M100.13 58.585a31.966 31.966 0 0 0 16.95-12.824 32.247 32.247 0 0 0 4.548-10.503l-4.156-2.788-17.342 26.115z"/>
        <path fill="#4E4E4E" d="M121.63 35.28l.003.002"/>
        <path stroke="#FFF" stroke-width=".5" d="M121.63 35.28l.003.002"/>
        <path fill="#343F4B" d="M118.823 26.472a31.898 31.898 0 0 0-5.51 3.209l4.16 2.789 3.17-4.776-1.82-1.222z"/>
        <path stroke="#FFF" stroke-width=".2" d="M118.823 26.472a31.898 31.898 0 0 0-5.51 3.209l4.16 2.789 3.17-4.776-1.82-1.222z"/>
        <path fill="#343F4B" d="M117.472 32.47l4.158 2.79c.492-2.097.768-4.222.835-6.345l-1.821-1.221-3.172 4.776z"/>
        <path stroke="#FFF" stroke-width=".2" d="M117.472 32.47l4.158 2.79c.492-2.097.768-4.222.835-6.345l-1.821-1.221-3.172 4.776z"/>
        <path fill="#343F4B" d="M118.747 26.422l3.76 2.522-.147-3.834z"/>
        <g>
            <g transform="translate(119.221 25)">
                <mask id="d" fill="#fff">
                    <use xlink:href="#c"/>
                </mask>
                <path fill="#343F4B" d="M4.153.124L4.15.122A35.972 35.972 0 0 0-6.024 5.266l4.678 3.138L2.647 2.39 4.153.124z" mask="url(#d)"/>
            </g>
            <g transform="translate(119.221 25)">
                <mask id="f" fill="#fff">
                    <use xlink:href="#e"/>
                </mask>
                <path stroke="#FFF" stroke-width=".2" d="M4.15.124L4.147.122A35.972 35.972 0 0 0-6.027 5.266l4.678 3.138L2.644 2.39 4.15.124z" mask="url(#f)"/>
            </g>
            <g transform="translate(119.221 25)">
                <mask id="h" fill="#fff">
                    <use xlink:href="#g"/>
                </mask>
                <path fill="#343F4B" d="M4.156.126L4.153.124l-5.498 8.28 4.678 3.138A36.404 36.404 0 0 0 4.156.126" mask="url(#h)"/>
            </g>
            <g transform="translate(119.221 25)">
                <mask id="j" fill="#fff">
                    <use xlink:href="#i"/>
                </mask>
                <path stroke="#FFF" stroke-width=".2" d="M4.153.126L4.15.124l-5.499 8.28 4.679 3.138A36.404 36.404 0 0 0 4.153.126z" mask="url(#j)"/>
            </g>
        </g>
        <g>
            <path stroke="#FFF" stroke-width=".2" d="M118.492 26.44l3.71 2.553-.145-3.881z"/>
            <path fill="#343F4B" d="M105.576 50.589s-6.945-1.121-6.143 9.564l6.143-9.564z"/>
            <path stroke="#FFF" stroke-width=".2" d="M105.576 50.589s-6.945-1.121-6.143 9.564l6.143-9.564z"/>
            <path fill="#343F4B" d="M105.576 50.589s3.64 6.105-6.143 9.564l6.143-9.564z"/>
            <path stroke="#FFF" stroke-width=".2" d="M105.576 50.589s3.64 6.105-6.143 9.564l6.143-9.564z"/>
        </g>
    </g>
</svg>
