<svg width="281" height="100" viewBox="0 0 281 100" xmlns="http://www.w3.org/2000/svg"><title>012E7DD8-FF0A-45D8-B17F-74B87E63EE24</title><g fill="none" fill-rule="evenodd"><path fill="none" d="M0 0h280v100H0z"/><g fill="#5A6978"><path d="M109.471 63h-9.873l-2.673 6h-2.789v1h2.344l.445-1h-1.781l9.353-21 9.496 21h-1.809l-2.713-6zm-.904-2l-4.07-9-4.009 9h8.079zm.689 12v6H77l.03-1.086s2.529.03 6.018.043V23h5.04v54.958c5.57-.018 11.655-.11 14.116-.405 2.77-.331 4.629-2.59 5.739-4.553h1.313zm2.928-4h3.12v1h-2.667l-.453-1zM77 21h19.152v2H77v-2zM120.646 48.972v1.36h13.376v-1.36h-13.376zm-2.318 5.618v1.36h18.012v-1.36h-18.012zm.793-10.847v1.341h16.426v-1.341h-4.777a25.129 25.129 0 0 0 2.216-4.257L131.542 39a31.282 31.282 0 0 1-2.236 4.743H119.12zm3.862-4.549l-1.382.642c.793.972 1.545 2.1 2.257 3.343l1.3-.622a36.576 36.576 0 0 0-2.175-3.363zm16.02 1.089v1.244h4.168v1.07h1.402v-1.07h6.038v1.089h1.403v-1.089h4.37v-1.244h-4.37v-1.264h-1.403v1.264h-6.038V39h-1.402v1.283h-4.168zm11.06 5.404v3.44h-2.217v1.128h5.469c-.427.583-.976 1.108-1.626 1.594a34.83 34.83 0 0 0-2.989-1.4l-.732.817c.935.408 1.81.836 2.643 1.283-.935.524-2.053.972-3.334 1.36l.773.972c1.423-.466 2.663-1.03 3.72-1.671.833.505 1.606 1.03 2.317 1.574l.834-.972a21.292 21.292 0 0 0-2.114-1.341c.874-.72 1.565-1.516 2.053-2.41v-.934h-3.476v-1.302h3.659v-1.05h-3.66v-1.088h-1.32zm5.732-2.06h-7.257a21.797 21.797 0 0 0-.61-1.556l-1.464.253c.203.389.406.836.59 1.302h-7.502v3.15h1.362V44.85h13.519v1.788h1.362v-3.013zm-14.86 2.993v1.205h5.488V46.62h-5.489zm-1.2 2.799v1.225h1.91c0 .252-.02.583-.04 1.01-.06.836-.264 1.594-.61 2.255-.366.68-1.077 1.42-2.175 2.197l.996.894c.935-.68 1.647-1.419 2.175-2.216a6.18 6.18 0 0 0 .875-2.721c.04-.584.06-1.05.08-1.42h1.668v4.355c0 1.108.549 1.672 1.687 1.672h8.112c.915 0 1.545-.175 1.91-.506.346-.35.57-1.341.692-2.974l-1.26-.389c-.062 1.322-.204 2.1-.448 2.333-.223.194-.59.31-1.118.31h-7.603c-.427 0-.63-.213-.63-.64v-4.16h1.179v-1.225h-7.4zm21.834-.564c0 .272-.102.515-.305.73-.204.213-.468.32-.793.32s-.59-.107-.793-.32a1.03 1.03 0 0 1-.305-.73c0-.272.102-.515.305-.729.203-.213.468-.32.793-.32s.59.107.793.32c.203.214.305.457.305.73zm4.655 7.873c1.159 0 1.748-.564 1.748-1.652V49.38c.61-.272 1.2-.583 1.79-.894v-1.38c-.59.33-1.18.641-1.79.913v-3.887h1.932v-1.303h-1.932v-3.693h-1.463v3.693h-2.277v1.303h2.277v4.51c-.854.33-1.749.602-2.643.835l.366 1.342a24.377 24.377 0 0 0 2.277-.817v4.704c0 .506-.265.778-.793.778-.427 0-.874-.04-1.362-.097l.305 1.34h1.565zm4.107-16.97v1.128h1.707v5.909c-.61 0-1.24.02-1.89.058l.284 1.07c2.887-.117 5.632-.234 8.274-.37v.894h1.403v-.972l1.911-.116V46.27c-.63.039-1.26.078-1.91.136v-5.52h1.646v-1.128H170.33zm3.09 6.979v-1.4h5.285v1.147a418 418 0 0 1-5.285.253zm0-2.333V43.14h5.285v1.264h-5.285zm0-2.216v-1.302h5.285v1.302h-5.285zm-2.46 8.708l-.895.836a40.152 40.152 0 0 1 2.115 1.905c-.732.894-1.688 1.633-2.867 2.236l.773 1.127a10.08 10.08 0 0 0 3.05-2.39c.487.524.914 1.049 1.3 1.554l.996-.972a36.163 36.163 0 0 0-1.524-1.652c.569-.972.996-2.08 1.26-3.343V49.05h-5.082v1.205h3.801a9.317 9.317 0 0 1-.955 2.332 42.49 42.49 0 0 0-1.972-1.69zm5.021-1.846v1.205h.508a9.207 9.207 0 0 0 1.81 3.732c-.773.739-1.708 1.38-2.826 1.905l.752 1.108a11.831 11.831 0 0 0 2.989-2.022c.731.7 1.606 1.322 2.663 1.905l.732-1.108c-.997-.505-1.85-1.069-2.582-1.71.854-1.089 1.443-2.391 1.789-3.868V49.05h-5.835zm1.708 1.205h2.785a8.996 8.996 0 0 1-1.382 2.818 7.28 7.28 0 0 1-1.403-2.818zm7.827-10.516v5.248h3.395l.305 1.205h-4.818V47.3h10.855v-1.108h-4.675l-.285-1.205h3.964v-5.248h-8.741zm7.4 4.296h-6.079v-1.186h6.079v1.186zm-6.079-2.08V40.71h6.079v1.244h-6.079zm-1.138 6.453v3.752h3.496v2.896c0 .35-.183.525-.528.525-.407 0-.854-.039-1.301-.078l.284 1.225h1.464c.976 0 1.484-.467 1.484-1.38V52.16h3.517v-3.752H185.7zm7.074 2.76h-5.733V49.4h5.733v1.768zm-6.586 1.633c-.55 1.205-1.2 2.236-1.932 3.091l1.037.72c.773-.934 1.423-2.042 1.992-3.286l-1.097-.525zm6.688.04l-1.017.602a21.356 21.356 0 0 1 1.728 2.78l1.037-.7c-.406-.778-.996-1.672-1.748-2.683zm8.193-13.569c-1.505 1.477-3.416 2.683-5.733 3.577l.61 1.205c2.399-1.01 4.411-2.294 6.017-3.81l-.894-.972zm.508 5.112c-1.525 1.75-3.456 3.15-5.814 4.2l.61 1.204c2.44-1.166 4.472-2.643 6.098-4.432l-.894-.972zm.285 4.918c-1.566 2.916-3.904 5.015-6.994 6.298l.59 1.264c3.334-1.36 5.834-3.616 7.542-6.745l-1.138-.817zM118.328 67.22v11.262h7.965v-1.467h-6.248v-9.794h-1.717zm13.715 0l-4.372 11.262h1.844l1.065-2.902h4.88l1.066 2.902h1.86l-4.372-11.261h-1.971zm-.938 6.94l1.891-5.094h.064l1.876 5.094h-3.831zm9.454-6.94v11.262h1.732v-8.47h.064l5.866 8.47h1.685V67.22h-1.732v8.375h-.064l-5.803-8.375h-1.748zm17.577-.22c-1.812 0-3.18.584-4.133 1.782-.859 1.057-1.272 2.413-1.272 4.085 0 1.703.397 3.06 1.224 4.07.938 1.166 2.337 1.766 4.197 1.766 1.224 0 2.274-.347 3.148-1.041.938-.742 1.526-1.767 1.78-3.076h-1.685c-.222.883-.62 1.546-1.192 1.987-.54.41-1.24.616-2.067.616-1.272 0-2.21-.395-2.814-1.183-.572-.742-.858-1.783-.858-3.139 0-1.309.286-2.35.874-3.107.62-.836 1.542-1.246 2.766-1.246.827 0 1.495.174 2.035.536.54.363.907.93 1.097 1.688h1.685c-.174-1.136-.683-2.05-1.51-2.713-.858-.694-1.955-1.025-3.275-1.025zm12.777 0c-1.733 0-3.1.552-4.086 1.688-.954 1.072-1.415 2.46-1.415 4.18 0 1.702.461 3.09 1.415 4.163.986 1.104 2.353 1.672 4.086 1.672 1.717 0 3.084-.552 4.086-1.656.953-1.073 1.43-2.46 1.43-4.18 0-1.735-.477-3.138-1.43-4.195-1.002-1.12-2.37-1.672-4.086-1.672zm0 1.514c1.208 0 2.146.379 2.798 1.167.636.773.97 1.83.97 3.186 0 1.34-.334 2.397-.97 3.154-.652.773-1.59 1.168-2.798 1.168s-2.146-.41-2.814-1.2c-.636-.772-.954-1.813-.954-3.122 0-1.325.318-2.366.954-3.138.668-.82 1.606-1.215 2.814-1.215zm8.325-1.293v11.26h1.733v-8.043h.063l3.482 8.044h1.494l3.482-8.044h.064v8.044h1.733V67.22h-2.051l-3.943 9.021h-.048l-3.958-9.021h-2.051zm15.336 0v11.26H203v-1.466h-6.693v-3.58h6.041v-1.467h-6.041v-3.28h6.423V67.22h-8.156z"/></g></g></svg>