<svg xmlns="http://www.w3.org/2000/svg" xmlns:xlink="http://www.w3.org/1999/xlink" width="40" height="40" viewBox="0 0 40 40">
    <defs>
        <path id="a" d="M.001.017h16.99v17.54H.001z"/>
    </defs>
    <g fill="none" fill-rule="evenodd">
        <circle cx="20" cy="20" r="20" fill="#E9A955"/>
        <g transform="translate(12 11)">
            <mask id="b" fill="#fff">
                <use xlink:href="#a"/>
            </mask>
            <path fill="#FFF" fill-rule="nonzero" d="M6.851 7.143a.822.822 0 1 0 0-1.645.822.822 0 0 0 0 1.645zm3.289 0a.822.822 0 1 0 0-1.645.822.822 0 0 0 0 1.645zM5.28 12.48c.427.069 1.395.144 1.844.144 3.936 0 6.578-2.929 6.578-6.372S10.4.017 7.125.017C3.185.017 0 2.81 0 6.252 0 8.247.76 9.94 2.192 11.16v3.108l3.09-1.788zM1.096 6.32c0-2.875 2.605-5.206 6.03-5.206 2.725 0 5.48 2.33 5.48 5.207 0 2.875-2.151 5.207-5.48 5.207-.49 0-1.511-.056-1.967-.151l-1.87 1.247V10.68c-1.337-1.084-2.193-2.534-2.193-4.36zm13.675-1.294c.01.157.028.313.028.472 0 .349-.034.69-.083 1.028.738.863 1.179 1.927 1.179 3.083 0 1.827-1.092 3.432-2.74 4.36v1.943l-1.871-1.247a6.94 6.94 0 0 1-1.418.151c-1.42 0-2.174-.426-3.204-1.135-.299.024-.601.039-.907.039-.218 0-.432-.016-.647-.028 1.305 1.276 2.647 2.083 4.758 2.083.449 0 .887-.04 1.313-.11l3.072 1.892v-3.11c1.665-1.14 2.74-2.912 2.74-4.907 0-1.778-.855-3.378-2.22-4.514zM3.563 7.143a.822.822 0 1 0 0-1.645.822.822 0 0 0 0 1.645z" mask="url(#b)"/>
        </g>
    </g>
</svg>
