<?xml version="1.0" encoding="UTF-8"?>
<svg width="43px" height="52px" viewBox="0 0 43 52" version="1.1" xmlns="http://www.w3.org/2000/svg" xmlns:xlink="http://www.w3.org/1999/xlink">
    <!-- Generator: Sketch 46.2 (44496) - http://www.bohemiancoding.com/sketch -->
    <title>PaaS／icon／定位</title>
    <desc>Created with Sketch.</desc>
    <defs></defs>
    <g id="首页" stroke="none" stroke-width="1" fill="none" fill-rule="evenodd">
        <g id="PaaS平台" transform="translate(-1188.000000, -5824.000000)" fill="#DFB12C">
            <g id="feature/normal-copy-6" transform="translate(1110.000000, 5779.000000)">
                <g id="PaaS／icon／定位" transform="translate(79.000000, 46.000000)">
                    <g id="定位">
                        <path d="M20.5484721,49.9441048 C19.0375551,49.9441048 17.7869,48.8122271 17.6471621,48.6829694 C17.6314415,48.6672489 16.466376,47.5406114 11.0305682,42.1065502 C6.99214022,38.0716157 4.04541533,33.1772926 2.64978214,30.6253275 L2.30917079,29.9982533 C2.05240223,29.49869 1.91441096,29.2209607 1.91441096,29.2209607 C1.87794014,29.144866 1.84926418,29.0652756 1.82882144,28.9834061 C0.623002782,26.3349049 -0.000634284736,23.4585501 4.84087261e-07,20.5484716 C4.84087261e-07,9.21572052 9.21921446,0 20.5502188,0 C31.8812232,0 41.0969437,9.21746725 41.0969437,20.5484716 C41.0969437,23.4672489 40.4803498,26.3126638 39.2611359,29.0043668 C39.2397363,29.0786872 39.212279,29.1511279 39.1790398,29.2209607 L38.434935,30.641048 C37.0462887,33.1825328 34.0995638,38.0663755 30.0628826,42.1065502 C24.6270747,47.5458515 23.4655027,48.6672489 23.4655027,48.6672489 C23.3117909,48.8122271 22.0576424,49.9441048 20.5519655,49.9441048 L20.5484721,49.9441048 Z M4.36681271,28.2323144 L4.95021882,29.3484716 C6.28995682,31.7921397 9.08471664,36.4401747 12.8925769,40.2427948 C18.275983,45.6262009 19.4480354,46.7633188 19.4620092,46.7790393 C19.6838433,46.9799127 20.206114,47.3082969 20.5484721,47.3082969 C20.9135376,47.3082969 21.475983,46.9222707 21.6471621,46.7633188 C21.6471621,46.7633188 22.8244546,45.6157205 28.1973804,40.2427948 C32.0017472,36.4401747 34.8000005,31.7921397 36.1310049,29.358952 L36.7301315,28.2218341 C36.745852,28.1659389 36.7668127,28.1135371 36.7860267,28.0628821 C37.8934503,25.6751092 38.4576424,23.1441048 38.4576424,20.5449782 C38.4576424,10.6689956 30.4227079,2.63056769 20.5467254,2.63056769 C10.6689961,2.63056769 2.63056817,10.6689956 2.63056817,20.5449782 C2.63056817,23.1441048 3.19126686,25.669869 4.30218389,28.0628821 C4.32838476,28.120524 4.34934546,28.1764192 4.36855944,28.2323144 L4.36681271,28.2323144 Z" id="Shape" stroke="#FFFFFF" stroke-width="0.5" fill-rule="nonzero"></path>
                        <path d="M20.5,27 C16.3635288,27 13,23.6364712 13,19.5 C13,15.3635288 16.3635288,12 20.5,12 C24.6364712,12 28,15.3635288 28,19.5 C28,23.6364712 24.63374,27 20.5,27 Z M20.5,14.0607247 C17.4963743,14.0622309 15.0616193,16.4963747 15.0593591,19.5 C15.0593591,22.4975419 17.5010925,24.9392753 20.5,24.9392753 C23.4989075,24.9392753 25.9406409,22.4975419 25.9406409,19.5 C25.9376287,16.4966867 23.503314,14.062983 20.5,14.0607247 Z" id="Combined-Shape"></path>
                    </g>
                </g>
            </g>
        </g>
    </g>
</svg>