<svg width="281" height="100" viewBox="0 0 281 100" xmlns="http://www.w3.org/2000/svg"><title>EB7D2FF9-BEB6-46CB-94B6-68170A7CFD4D</title><g fill="none" fill-rule="evenodd"><path fill="none" d="M0 0h280v100H0z"/><path d="M130.402 20.881c5.388-2.279 11.613-2.502 17.146-.59a23.833 23.833 0 0 1 9.94 6.519c3.33 3.65 5.485 8.35 6.032 13.243-.547-.016-1.078 0-1.625-.016a22.108 22.108 0 0 0-4.809-11.235 22.001 22.001 0 0 0-9.136-6.662c-5.067-2.008-10.89-2.071-15.988-.159a22.567 22.567 0 0 0-9.474 6.678c-2.686 3.235-4.423 7.235-4.922 11.378-.547.016-1.078.016-1.625 0 .483-4.334 2.22-8.51 4.938-11.936a24.074 24.074 0 0 1 9.523-7.22zm-1.754 17.563c3.941-1.53 7.866-3.092 11.806-4.654l-1.238 2.598c1.335-.255 2.67-.494 4.005-.733-.273.717-.563 1.418-.836 2.12 2.702-.495 5.404-1.037 8.122-1.499-3.844 1.514-7.672 3.06-11.5 4.574.402-.876.836-1.753 1.238-2.645l-4.005.621c.322-.637.66-1.259.981-1.896-2.863.494-5.71 1.052-8.573 1.514zm2.912 27.395h2.171c.692 1.211 1.11 2.582 1.158 3.968h-1.785a7.195 7.195 0 0 0-1.544-3.968zm13.913 0h2.284c-.997 1.084-1.609 2.502-1.673 3.968h-1.801a8.461 8.461 0 0 1 1.19-3.968zm-12.771 6.598h13.849v-1.211H132.7v1.21zm0 2.056h13.849v-1.196H132.7v1.196zm0 .972h13.849c-.145.398-.306.797-.45 1.195h-12.933c-.16-.398-.306-.797-.466-1.195zm.949 2.454c3.989-.016 7.962-.016 11.95 0-1.093 1.8-3.152 2.853-5.227 3.044-2.557.255-5.372-.813-6.723-3.044zM100 44.42c0-.637.547-1.259 1.223-1.211h15.763c.675-.048 1.319.526 1.303 1.211v5.163c0 .654-.628 1.212-1.303 1.18h-9.104c-.37.558-.724 1.115-1.094 1.673 3.137 0 6.257-.016 9.394 0 .514-.016.98.399 1.045.909.032.35-.064.717-.273 1.004-1.705 2.597-3.394 5.21-5.1 7.809-.385.605-1.35.7-1.833.143-.386-.414-.386-1.1-.032-1.546a1349.69 1349.69 0 0 1 4.037-6.183h-8.621c-.563.844-1.126 1.705-1.673 2.55h6.177c.498-.048 1.03.19 1.206.669.29.653-.241 1.482-.965 1.466-2.863 0-5.71 0-8.557-.016-.837-.032-1.32-1.036-.9-1.721 1.447-2.263 2.927-4.51 4.39-6.757-1.319-.016-2.638 0-3.973-.016-.643 0-1.142-.67-1.11-1.275V44.42zm2.461.908v3.283c1.223.016 2.445 0 3.668.016a3.826 3.826 0 0 1-.065-3.299c-1.19.016-2.396 0-3.603 0zm10.327 0a3.718 3.718 0 0 1-.065 3.3c1.03-.017 2.06-.017 3.105-.017v-3.283c-1.014 0-2.027.016-3.04 0zm-3.78.24c-.66.19-1.11.924-.965 1.593.112.701.836 1.243 1.544 1.148.772-.064 1.383-.845 1.238-1.61-.096-.813-1.029-1.403-1.817-1.132zm65.642-1.02c-.065-.718.53-1.403 1.27-1.371.724 0 1.287.685 1.223 1.37.643.016 1.27-.015 1.914.016.579.048 1.03.654.917 1.228a1.066 1.066 0 0 1-1.03.892h-1.801c-.016 1.02-.016 2.056-.016 3.076.61.016 1.206 0 1.801 0 .53 0 1.013.43 1.062.956.08.558-.37 1.132-.933 1.163-.644.032-1.287.016-1.93.016v3.092c.643 0 1.286-.016 1.914.016.595.048 1.045.653.933 1.227-.065.494-.531.893-1.03.893-.595 0-1.206 0-1.801-.016-.032 1.036 0 2.071-.016 3.107.61 0 1.206-.016 1.801 0 .563-.016 1.078.494 1.062 1.052.016.558-.483 1.084-1.062 1.068-2.01.016-4.021 0-6.016 0-.595.032-1.142-.494-1.11-1.084 0-.526.45-1.02.998-1.036.627-.016 1.238 0 1.866 0v-3.091c-.628-.016-1.255 0-1.866-.016-.531-.016-.981-.478-.997-1.004-.049-.558.434-1.084.997-1.116.627-.016 1.238 0 1.866 0-.016-1.036 0-2.056-.016-3.092-.612 0-1.239.016-1.85 0-.563-.032-1.014-.542-.997-1.067-.017-.542.45-1.036.997-1.052.611-.032 1.238 0 1.866-.016v-3.076c-.66-.016-1.303.016-1.963-.016-.724-.08-1.158-.988-.756-1.594.21-.366.66-.557 1.078-.526h1.625zm-13.19-.256c-.016-.541.467-1.051 1.03-1.067.916-.016 1.85 0 2.766 0 .467-.032.95.223 1.126.653.29.622-.177 1.418-.885 1.466-.514.032-1.045 0-1.576.016v3.443c.756.08 1.737-.271 2.3.398.547.606.097 1.673-.724 1.721-.965.032-1.93.016-2.895.016-.579.032-1.126-.446-1.126-1.02-.016-1.88-.016-3.745-.016-5.626zm5.453.542c-.402-.637.128-1.561.884-1.561a89.628 89.628 0 0 1 2.928 0c.595-.016 1.11.557 1.045 1.147-.032.574-.579.988-1.126.988V61.25c.049.638-.45 1.243-1.093 1.291-.692.096-1.367-.478-1.367-1.163-.017-5.323 0-10.646 0-15.969-.483.032-1.046-.112-1.271-.574zm-5.453 7.714c-.032-.574.434-1.116 1.013-1.132h2.912c.547 0 1.061.478 1.077 1.02.033.542-.418 1.068-.965 1.116-.53.016-1.045 0-1.56 0-.016 1.147-.016 2.295-.016 3.458.499 0 .981-.016 1.464 0 .482-.016.933.335 1.045.797.113.462-.112.972-.53 1.195-.258.144-.58.128-.87.144-.852-.016-1.688 0-2.54-.016-.563-.016-1.046-.526-1.03-1.084v-5.498zm.837 7.633c1.029-.063 2.058-.015 3.088-.031.595-.016 1.11.525 1.077 1.115-.016.542-.514 1.02-1.077 1.02-.965 0-1.946 0-2.912-.016-.627-.016-1.125-.653-.997-1.259.08-.414.418-.749.82-.829zM123.26 43.767c.45-.718 1.673-.654 2.027.111.321.574-.049 1.18-.226 1.721.612.016 1.239-.016 1.866.016.58.064 1.014.654.901 1.211-.064.494-.499.893-.981.909-.869.016-1.721 0-2.574 0-.466 1.275-.933 2.55-1.415 3.84h3.86c.515-.031 1.013.335 1.11.845.145.574-.29 1.195-.885 1.275-.45.032-.917 0-1.367.016 0 1.084-.016 2.183 0 3.267.66.064 1.48-.207 1.979.335.53.51.305 1.482-.403 1.721-.514.143-1.061.048-1.576.08-.016.797.016 1.577-.016 2.374-.08.765-.997 1.291-1.705.972a1.236 1.236 0 0 1-.756-1.21v-2.136c-.692-.016-1.367 0-2.059-.016-.547-.016-.997-.526-.98-1.052a1.065 1.065 0 0 1 .98-1.068c.692-.016 1.367 0 2.06 0v-3.267c-.693-.016-1.368.016-2.06-.016a1.045 1.045 0 0 1-.98-.924c-.033-.287.063-.542.16-.797.515-1.418 1.03-2.82 1.544-4.24-.45 0-1.013.08-1.367-.286-.563-.478-.386-1.498.305-1.753.596-.191 1.239-.048 1.85-.096.258-.605.418-1.243.708-1.832zm5.79-.479c.177-.063.37-.063.563-.063h7.866c.66-.032 1.27.526 1.27 1.163.017 1.116 0 2.231 0 3.347.033.67-.595 1.275-1.254 1.227-2.718 0-5.42.016-8.123 0-.643 0-1.078-.638-1.078-1.227v-3.203c-.016-.51.258-1.068.756-1.244zm1.721 3.538h5.518V45.36h-5.518v1.466zm-2.54 3.985c0-.606.482-1.26 1.141-1.26h8.107c.708-.063 1.35.574 1.303 1.276 0 3.522.016 7.028 0 10.534-.016.717-.724 1.275-1.432 1.147-.515-.064-.9-.494-1.013-.972h-6.965c-.66-.016-1.174-.67-1.142-1.307v-9.418zm2.476 2.055h5.614v-1.179h-5.614v1.18zm0 3.347h5.614v-1.211h-5.614v1.211zm0 3.188h5.614v-1.052h-5.614V59.4zm11.195-16.097c.177-.08.37-.08.547-.08h14.717c.644-.015 1.239.559 1.223 1.196.016 2.757 0 5.498 0 8.24.032.461-.241.94-.66 1.147-.305.175-.675.127-1.029.143-4.793-.016-9.57 0-14.364-.016-.691.048-1.206-.621-1.174-1.275v-8.127c-.016-.51.241-1.052.74-1.228zm1.721 4.303h5.131V45.36h-5.13v2.247zm7.608 0h4.697V45.36h-4.697v2.247zm-7.608 4.192h5.131v-2.056h-5.13v2.056zm7.608 0h4.697v-2.056h-4.697v2.056zm-9.329 2.98c.756-.367 1.737.255 1.721 1.1v5.386c.032.574-.402 1.116-.965 1.227-.708.176-1.48-.398-1.496-1.115-.016-1.801 0-3.602 0-5.403-.032-.494.258-1.004.74-1.195zm3.265 1.1c0-.638.58-1.212 1.223-1.196.66-.032 1.254.542 1.254 1.18v4.27h9.764c.756-.015 1.303.909.917 1.562-.226.479-.789.622-1.271.574h-10.31c-.338-.016-.708.048-1.014-.127a1.096 1.096 0 0 1-.563-.988v-5.275zm6.37-1.1c.724-.35 1.673.191 1.72.988.033.956.017 1.896.017 2.853.016.717-.724 1.322-1.432 1.179-.563-.08-1.029-.606-1.029-1.163-.016-.893 0-1.77 0-2.662a1.24 1.24 0 0 1 .724-1.195zm5.211.032c.74-.399 1.737.143 1.786.956.016.956.016 1.912 0 2.869 0 .637-.595 1.21-1.255 1.179-.627 0-1.206-.558-1.19-1.195a77.86 77.86 0 0 1 0-2.741c0-.447.257-.877.66-1.068z" fill="#5A6978"/></g></svg>