<svg width="281" height="100" viewBox="0 0 281 100" xmlns="http://www.w3.org/2000/svg"><title>7C6A0D6C-9D7A-4644-BE50-97F59576030A</title><g fill="none" fill-rule="evenodd"><path fill="none" d="M0 0h280v100H0z"/><path d="M136.625 67.835H141.427V66.21H135.287c.012-.11.032-.269.032-.481l.02-.396h6.463v-1.617h-6.423v-.788h5.032V61.397H135.378v-.665h5.645V59.152h-3.047l.225-.241.015-.004v-.005l.512-.669.127-.155-.187-.082-1.418-.568-.123-.044-.07.114c-.047.078-.072.135-.092.172-.27.481-.622.96-1.062 1.4l-.077.082h-2.447a9.105 9.105 0 0 0-1.222-1.678l-.06-.086-.097.04-1.383.543-.217.074.147.168.617.706.2.233h-3.202V60.732h5.474v.665H128.786V62.928H133.636v.788h-6.308V65.333h6.247l-.024.367c0 .168-.028.34-.065.51h-5.774v1.625h5.13c-.417.638-1.01 1.123-1.78 1.467-.872.39-2.084.669-3.594.836l-.217.017.094.195.637 1.417.053.098.115-.012c1.683-.282 3.09-.722 4.187-1.323 1.052-.575 1.863-1.441 2.405-2.588 1.014 2.11 3.11 3.43 6.226 3.895l.125.016.034-.098.667-1.388.095-.188-.217-.024c-2.557-.372-4.268-1.156-5.047-2.32zm17.948-1.127c.062-.228.114-.473.16-.722H158.125v-1.69h-3.202c.008-.24.008-.486.008-.76v-1.294h2.78v-1.628h-1.833l.037-.042a10.64 10.64 0 0 0 1.536-2.372l.065-.135-.135-.07-1.146-.55-.127-.061-.07.114c-.47.767-.98 1.454-1.551 2.021l-.123.13.145.102 1.201.85.025.012h-3.503l.107-.078 1.261-.845.135-.09-.09-.126a24.227 24.227 0 0 0-1.696-1.996l-.08-.094-.11.061-1.028.67-.14.085.098.127c.609.804 1.093 1.523 1.433 2.156l.07.13h-1.763v1.629h2.759v1.294c0 .257-.017.503-.025.76h-3.291v1.69H152.965c-.128.6-.308 1.14-.535 1.63-.48.93-1.374 1.722-2.667 2.355V59.31h.727v-1.642h-6.431V59.311H144.888v8.76a7.295 7.295 0 0 1-.706.132l-.155.024.032.16.295 1.424.027.164.16-.05a52.258 52.258 0 0 0 3.659-1.134v2.964H149.763v-1.27l.624 1.009.075.114.122-.058c1.48-.64 2.568-1.583 3.222-2.796a2.99 2.99 0 0 0 .235-.486c.829.698 1.913 1.76 3.221 3.132l.125.134.097-.155.915-1.322.082-.107-.102-.094a48.066 48.066 0 0 0-3.806-3.148zm-8.114-5.85h1.74v-1.547h-1.74v1.547zm0 3.25h1.74v-1.74h-1.74v1.74zm1.74 3.095c-.564.191-1.143.375-1.74.522v-2.11h1.74v1.588zm23.375 1.751a4.691 4.691 0 0 1-1.658-1.641h4.97v-1.641h-1.317v-3.417H168.622v-1.36h-1.821v1.359H162.162V65.672h-1.345v1.64h5.306c-.984 1.479-2.787 2.443-5.381 2.92l-.235.037.137.192.917 1.314.052.09.093-.028c1.845-.482 3.266-1.09 4.25-1.797a6.943 6.943 0 0 0 2.135-2.518c1.054 2.167 3.131 3.617 6.16 4.315l.12.028.053-.11.657-1.405.082-.17-.18-.042c-1.498-.355-2.642-.75-3.408-1.184zm-3.067-3.282a7.92 7.92 0 0 0 .065-.906l.033-.874h3.259v1.78h-3.357zm-1.78-.92c0 .226-.026.524-.073.887v.025l-2.777.008v-1.78h2.902l-.052.86zm-2.787-2.82h1.823V60.495H167.476v-1.642H165.763V57.424h-1.823V58.853h-3.247v1.642h3.247V61.932zm5.916 0h1.833V60.495H174.974v-1.642h-3.287V57.424H169.856V58.853h-1.633v1.642h1.632V61.932zm12.965 4.29h-.154v5.414h1.648v-.783h5.554v.783H191.509V66.223h-8.688zm1.494 3.063h5.554v-1.499h-5.554v1.499zm6.775-8.64v-.15h-4.001l.292-1.123h4.628V57.8H182.112v1.571H185.606l-.282 1.123h-2.675V62.013h2.288l-.418 1.617h-2.62V65.25h10.167V63.63h-.976v-2.984zm-1.703 2.985h-3.092l.402-1.617h2.69v1.617zm-10.244-3.086l.13-.09 1.27-.854.136-.08-.11-.132c-.39-.539-1.112-1.384-1.846-2.176l-.087-.098-.105.07-1.034.665-.135.082.098.134c.642.853 1.263 1.72 1.598 2.336l.085.143zm2.642 6.691l-.225.176c-.005.016-.522.425-1.196.93v-7.303h-3.341V62.745h1.421v7.025c-.325.225-.617.43-.837.564l-.147.074.102.138.917 1.32.087.134.132-.094c.025-.02 2.458-1.894 3.197-2.486l.06-.05v-.081l-.15-1.768-.02-.286zM147.982 52.71h2.917c.74 0 1.366-.261 1.893-.792.537-.527.79-1.14.79-1.874 0-.747-.253-1.364-.79-1.89-.534-.527-1.154-.785-1.898-.785h-2.912a3.632 3.632 0 0 1-2.662-1.106c-.729-.714-1.096-1.612-1.096-2.658v-2.821h6.188c.68 0 1.236-.233 1.723-.714.49-.486.727-1.041.727-1.723 0-.674-.237-1.238-.727-1.723a2.333 2.333 0 0 0-1.735-.715h-6.176v-5.242c0-.739-.257-1.351-.777-1.878-.539-.53-1.146-.788-1.885-.788-.77 0-1.398.245-1.92.768-.527.519-.784 1.138-.784 1.91v12.939c0 2.523.879 4.62 2.68 6.43 1.8 1.792 3.91 2.662 6.444 2.662zm-12.006-2.037c0-1.127-.792-2.16-1.916-2.16h-5.6c-2.016 0-3.46-.49-4.226-1.335-.83-.923-.87-1.907-.87-1.907h10.676c1.978 0 2.625-.559 2.625-2.315 0-1.94-1.743-7.5-9.47-7.5-2.944 0-5.236.809-6.792 2.401-2.317 2.36-2.292 5.679-2.28 5.712 0 2.718.492 4.785 2.225 6.565 1.75 1.772 3.421 2.474 6.688 2.576h6.912a2.036 2.036 0 0 0 2.028-2.037zm-8.915-11.237s3.59-.007 4.143 2.259h-8.064c.81-2.324 3.92-2.258 3.92-2.259zm36.16 13.274h6.915c1.128 0 2.03-.919 2.03-2.037 0-1.127-.792-2.16-1.916-2.16h-5.601c-2.013 0-3.459-.49-4.226-1.335-.836-.923-.869-1.907-.868-1.907H170.226c1.99 0 2.621-.559 2.621-2.315 0-1.94-1.74-7.5-9.467-7.5-2.941 0-5.226.809-6.79 2.401-2.314 2.36-2.29 5.679-2.29 5.712 0 2.718.512 4.785 2.24 6.565 1.751 1.772 3.409 2.474 6.68 2.576zm.027-13.274s3.594-.007 4.148 2.259h-8.064c.802-2.324 3.916-2.258 3.916-2.259zm-49.72-4.09c-1.68-1.674-3.646-2.49-6.008-2.49-2.128 0-4.018.73-5.614 2.167l-.377.33-.362-.33c-1.626-1.436-3.536-2.167-5.671-2.167-2.355 0-4.323.816-6.001 2.49C87.807 37.015 87 38.975 87 41.33v8.917c0 .67.24 1.245.727 1.74.49.481 1.061.722 1.743.722.677 0 1.256-.24 1.748-.723.484-.493.727-1.07.727-1.751v-8.913c0-.975.35-1.821 1.03-2.51a3.476 3.476 0 0 1 2.52-1.03 3.4 3.4 0 0 1 2.478 1.03c.692.69 1.036 1.534 1.036 2.51v8.913c0 .682.242 1.257.737 1.743.49.49 1.061.731 1.748.731.702 0 1.288-.245 1.788-.739.482-.506.727-1.086.727-1.76v-8.888c0-.975.35-1.821 1.043-2.51.687-.682 1.517-1.03 2.47-1.03.994 0 1.826.348 2.517 1.03a3.455 3.455 0 0 1 1.03 2.51v8.913c0 .706.244 1.274.728 1.76a2.39 2.39 0 0 0 1.749.714c.694 0 1.26-.233 1.755-.714.482-.474.722-1.046.722-1.748V41.33c0-2.36-.819-4.316-2.495-5.986zm76.483 2.674c-1.401-1.4-3.074-2.217-4.977-2.413h-.047a2.265 2.265 0 0 0-.508-.058h-.858l-.313.001c-2.312 0-4.315.829-5.958 2.47-1.666 1.654-2.465 3.588-2.465 5.932v6.32c0 .67.227 1.237.71 1.72a2.336 2.336 0 0 0 1.732.718c.677 0 1.239-.233 1.72-.719.488-.481.728-1.05.728-1.723v-6.324c0-.975.344-1.813 1.028-2.49.682-.686 1.524-1.03 2.495-1.03h.323l.446.001a3.42 3.42 0 0 1 2.498 1.03c.686.677 1.026 1.513 1.026 2.489v6.325c0 .673.237 1.24.717 1.722a2.33 2.33 0 0 0 1.723.72c.681 0 1.246-.234 1.73-.72.482-.481.72-1.05.72-1.719v-6.32c0-2.343-.805-4.279-2.47-5.932z" fill="#59697B"/></g></svg>