<svg width="254" height="85" viewBox="0 0 254 85" xmlns="http://www.w3.org/2000/svg"><title>22632305-B147-4C56-A79A-81E78583FB74</title><g fill="#5A6978" fill-rule="evenodd"><path d="M106.984 47.5c-.064-3.485-.12-6.857-1.771-10.066 1.975 1.454 3.826 2.728 6.159 3.284 3.888.927 6.981-.12 9.295-3.308 1.185-1.633 2.114-3.45 3.258-5.115.942-1.37 1.887-2.793 3.088-3.921 1.814-1.705 4.138-2.232 6.618-2.1 2.244.12 4.404-.196 6.333-1.448 1.749-1.134 1.989-2.01 1.18-4.31-1.285-.77-2.646-.443-4.007-.035-2.191.657-4.35 1.456-6.578 1.955-3.826.857-7.465.37-10.907-2.024l2.894-1.232c3.48 3.81 7.463 2.807 11.485.823 1.34-.662 2.55-1.632 3.934-2.152 1.448-.544 3.043-1.018 4.562-.988 2.887.056 4.51 2.608 3.728 5.375-.54 1.906-1.796 3.28-3.472 4.132-2.345 1.194-4.742 2.38-7.246 3.147-3.826 1.174-7.11 3.008-9.638 6.136-.495.613-1.12 1.12-1.663 1.696-2.883 3.057-6.305 5.066-10.584 5.336-3.185.2-5.644 1.324-6.668 4.814M131.641 12.445c3.057.181 5.272-1.62 7.717-2.908 2.822-1.488 5.516-.37 5.982 2.348.227 1.319-.234 2.43-1.264 3.269-.96.782-2.074.941-3.23.524-1.248-.45-2.022-1.728-1.738-2.91.313-1.3 1.15-1.882 2.656-1.628l-1.132 1.856c.618 1.49 1.601 1.271 2.57 1.01.902-1.187.95-2.261.029-3.22-.916-.954-2.073-.884-3.174-.351-1.105.534-2.125 1.251-3.245 1.748-1.637.727-3.322 1.445-5.17.262M91.528 76.697h-2.54l-2.782-19.842-7.56 11.432-7.496-11.146c-.873 6.648-2.531 19.662-2.531 19.662H66l3.505-26.194s6.158 8.559 9.144 13.228c3.008-4.73 9.085-13.228 9.085-13.228l3.794 26.088zM152.365 61.802c2.035.814 2.864.016 3.598-1.097a8215.979 8215.979 0 0 0 6.644-10.096h2.765s-2.85 4.555-4.198 6.621c-1.336 2.047-2.716 4.065-4.273 6.387 2.922 4.152 9.041 13.186 9.041 13.186h-2.776l-8.223-11.724-2.428-.144v11.868h-2.498V50.609h2.348v11.193zM104.71 76.803h-2.553l-.042-7.917s-.581-4.582-1.983-6.624c-2.19-3.188-7.126-11.653-7.126-11.653h2.6l7.896 11.846c2.632-4.027 7.624-11.846 7.624-11.846h2.351s-4.404 8.19-6.81 11.653c-1.486 2.136-1.99 6.624-1.99 6.624l.033 7.917M137.751 73.905v2.898h-14.419l-.32-26.194h2.47l.153 23.296h12.116zM144.526 76.803h-2.01l.058-26.194h1.952v26.194zM186.54 76.318h-16.496V59.476l.077-8.506h16.419v2.366h-13.385V73.77h13.385v2.549z"/><path d="M175.088 67.24h9.555v-2.325h-9.555z"/></g></svg>