<?xml version="1.0" encoding="UTF-8"?>
<svg width="50px" height="51px" viewBox="0 0 50 51" version="1.1" xmlns="http://www.w3.org/2000/svg" xmlns:xlink="http://www.w3.org/1999/xlink">
    <!-- Generator: Sketch 46.2 (44496) - http://www.bohemiancoding.com/sketch -->
    <title>PaaS/icon/回款</title>
    <desc>Created with Sketch.</desc>
    <defs></defs>
    <g id="首页" stroke="none" stroke-width="1" fill="none" fill-rule="evenodd">
        <g id="PaaS平台" transform="translate(-1433.000000, -5611.000000)" stroke="#FFFFFF" fill="#EC909C">
            <g id="PaaS/icon/回款" transform="translate(1434.000000, 5612.000000)">
                <g id="回款">
                    <path d="M47.0430529,27.8466398 C46.7204717,27.7985349 46.3925243,27.8882185 46.1393143,28.0937846 L40.6271232,32.5878864 C40.2170413,32.9175396 40.0894749,33.4869961 40.3197291,33.9600937 C40.5511614,34.4367704 41.0776214,34.6944214 41.5960294,34.5847185 L43.1440661,34.0387866 C39.7258437,42.0593135 32.9053833,46.3382395 24.0389078,46.4193915 C13.2727367,46.4218506 4.943586,39.4206425 3.34759582,28.9151417 C3.24677053,28.2954351 2.96396797,27.7433554 1.72332541,27.7433553 C0.482682851,27.7433553 0.0867592016,28.5069223 0.0781521714,29.1450725 C1.8487422,40.7571921 12.1525926,49.5142354 24.0487444,49.5142354 C33.9824923,49.547434 42.9227424,43.5581672 46.5708956,34.423644 C47.2546857,32.725809 47.7395009,30.9544799 48.0156479,29.1450725 C48.0591797,28.8438651 47.9811098,28.5377126 47.7986554,28.2941324 C47.6162009,28.0505523 47.3443491,27.8895527 47.0430529,27.8466398 L47.0430529,27.8466398 Z M1.03476258,21.7098239 C1.35734386,21.7579287 1.68529123,21.6682451 1.93850127,21.462679 L7.45069232,16.9685772 C7.86036324,16.6386682 7.98785978,16.0695236 7.75808643,15.5963699 C7.52731843,15.1190316 7.000309,14.8611118 6.48178611,14.9717451 L4.93374944,15.517677 C8.35197183,7.49715006 15.1724322,3.21945372 24.0389078,3.13830168 C34.8050789,3.13584255 43.1342295,10.1370507 44.7314492,20.6425515 C44.8322745,21.262258 45.1150771,21.8143378 46.3557197,21.8143379 C47.5963623,21.8143379 47.9922859,21.0520005 48.0008929,20.4126207 C46.2303029,8.80050107 35.9264525,0.0434578174 24.0303007,0.0434578174 C14.0953233,0.009029697 5.15630273,5.99952598 1.50691996,15.1340492 C0.823857808,16.831705 0.339064481,18.6025415 0.0621676492,20.4113912 C0.0179568253,20.7127037 0.0957635492,21.0192046 0.278339024,21.2629463 C0.460914499,21.506688 0.733174592,21.667533 1.03476258,21.7098239 Z M29.449044,12.4129966 L24.4249947,19.9478409 L19.4009455,12.4129966 L16.3097904,12.4129966 L21.9769081,20.9142879 L16.3097904,20.9142879 L16.3097904,23.233269 L23.2655042,23.233269 L23.2655042,27.0978277 L16.3097904,27.0978277 L16.3097904,29.4168088 L23.2655042,29.4168088 L23.2655042,37.1459262 L25.5844853,37.1459262 L25.5844853,29.4168088 L32.5401991,29.4168088 L32.5401991,27.0978277 L25.5844853,27.0978277 L25.5844853,23.233269 L32.5401991,23.233269 L32.5401991,20.9142879 L26.8718518,20.9142879 L32.5401991,12.4129966 L29.449044,12.4129966 Z" id="Shape" stroke-width="0.5" fill-rule="nonzero"></path>
                </g>
            </g>
        </g>
    </g>
</svg>