<svg width="281" height="100" viewBox="0 0 281 100" xmlns="http://www.w3.org/2000/svg"><title>176B3A99-24D9-4AD8-94C8-078716EACCB2</title><g fill="none" fill-rule="evenodd"><path fill="none" d="M0 0h280v100H0z"/><g fill="#58697C"><path d="M97.585 37.863l.372-.474c.301-.38.604-.757.901-1.138.039-.05.053-.118.077-.176-.133-.133-.224-.282-.4-.315l-.238.354.303.297c-.045.118-.111.194-.233.225l-.33-.229c-.16.207-.312.409-.47.606-.115.143-.227.293-.401.354l-.264-.071-.013.03.696.537m-1.36-1.786c.09-.013.189-.058.269-.035.208.059.416.033.622.03.133-.001.265-.043.433-.073l-.663-.552.019-.174.13-.096c.073.046.147.086.213.135.214.163.424.332.64.494.039.028.097.031.147.047l.248-.328-1.017-.798c-.047.045-.089.077-.12.117-.034.041-.053.095-.087.136-.23.28-.464.556-.69.839-.061.075-.099.17-.147.256a.927.927 0 0 0-.328.398c.11.165.714.645.864.693l-.213-.304.022-.19.181-.079c.172.107.166.356.381.405l.49-.603c-.032-.019-.047-.035-.058-.033-.233.05-.466.102-.707.09-.022-.002-.044.011-.067.017-.215.05-.405-.018-.612-.118l.05-.274m-.813.437c.094-.133.176-.261.27-.381.299-.382.601-.76.904-1.14.149-.185.3-.37.454-.553.13-.155.241-.171.395-.052.237.184.47.374.705.56.242.19.487.377.727.57.174.138.343.284.489.406a.287.287 0 0 1-.049.312c-.184.237-.36.48-.545.716-.299.382-.603.76-.905 1.138-.049.06-.101.117-.142.163h-.238c-.398-.31-.781-.606-1.162-.906-.253-.2-.505-.403-.75-.613-.062-.052-.096-.135-.153-.22M93.574 33.848c-.275-.173-.57-.236-.838-.376l-.06.114.809.343.089-.081m.151-.399l-.825-.357-.09.107.825.36.09-.11m-.713-.606l.829.353-.014-.162c-.276-.082-.509-.252-.799-.317l-.016.126m-.746 1.086a.272.272 0 0 1-.01-.265c.093-.211.175-.427.271-.663l-.239-.09-.018-.188c.361-.142.695-.296.961-.561.112.017.203.045.249.168-.04.06-.083.12-.141.205l.711.287v-.257l.164-.03c.211.104.16.327.26.46.262.166.587.194.83.415-.033.053-.05.114-.08.122a.358.358 0 0 1-.2.002c-.195-.07-.385-.156-.577-.237-.07-.03-.138-.065-.22-.103l-.067.12.822.377c.041.118.03.185-.074.237-.264-.107-.54-.22-.824-.334l-.095.084c.278.202.648.2.885.462l-.086.167c-.322-.07-.598-.264-.913-.334l-.024.042c.026.031.045.077.078.093.147.068.298.127.446.192.148.065.293.134.45.207l-.028.168c-.115.077-.195.02-.28-.017l-.966-.408-.066.191 1.201.527-.029.183c-.195.084-.321-.065-.47-.104-.153-.04-.296-.118-.476-.194.103.201.237.334.354.481.113.144.3.213.393.374-.05.132-.125.193-.253.163-.356-.274-.599-.642-.863-1.019-.14.169-.154.394-.295.545-.13.047-.208-.01-.278-.142l.192-.502c-.458.074-.883.14-1.314.092-.136-.124-.136-.124-.068-.309.189 0 .388.002.588-.002.195-.004.397.032.598-.073l-.883-.381c-.05-.096-.053-.177.06-.244l.325.092c.284.125.567.25.866.38l.103-.191-.659-.278c-.077.107-.197.089-.31.09M84.858 33.253c-.169.398-.483.64-.844.83-.04.021-.102.003-.163.003l-.075-.194c.018-.024.028-.046.046-.06.102-.081.21-.156.308-.242.117-.1.23-.207.336-.318.025-.026.023-.078.036-.13l-.796.086-.094-.182.106-.134.913-.138-.038-.417-.467.075-.276.413-.184-.02c-.018-.035-.033-.054-.039-.075-.025-.097.016-.18.057-.265.048-.097.094-.195.128-.297.032-.094.046-.194.069-.294-.17-.073-.318.016-.473.034-.017.036-.045.066-.041.091.101.698.205 1.395.31 2.093.005.026.035.048.058.079l2.394-.362c.131.044.158.145.127.3-.076.02-.162.048-.25.062-.152.022-.306.031-.458.053-.508.075-1.016.154-1.524.23-.166.024-.333.042-.473.059a.394.394 0 0 1-.21-.324c-.036-.266-.089-.53-.128-.794a68.775 68.775 0 0 1-.15-1.072c-.025-.19-.043-.38-.06-.532.088-.181.223-.196.351-.217.378-.062.757-.121 1.136-.177.258-.039.517-.07.776-.105.113-.015.227-.035.341-.044.052-.004.105.011.178.02l.024.244c-.281.075-.553.107-.823.15-.264.041-.529.076-.817.117l.081.267 1.44-.208.119.202c-.042.043-.072.097-.116.114-.085.033-.177.05-.268.064-.143.024-.287.04-.444.06v.38c.086.047.173.025.264.008.212-.037.424-.066.637-.094.026-.003.056.023.087.037.046.126.028.227-.093.294-.219.046-.444.04-.673.122l.716.488c.05.153-.005.227-.122.293-.344-.099-.566-.424-.939-.573M79.635 36.04l-.183.115-.176-.125c-.046-.129-.002-.214.057-.285a2.15 2.15 0 0 0 .348-.622c.166-.43.175-.867.071-1.3-.1-.054-.167-.005-.236.027-.224.103-.446.212-.672.311-.075.033-.16.045-.22.061-.136-.071-.19-.151-.132-.294.33-.22.73-.328 1.1-.544l-.232-.557c.062-.138.062-.138.224-.188.229.118.207.402.384.587l1.029-.455.168.079c.05.08.057.152.004.208a.572.572 0 0 1-.168.118c-.277.131-.557.257-.848.39.02.138.144.194.223.275.258.262.567.453.904.596.169.071.351.112.525.173.078.027.15.068.223.103v.245c-.144.074-.278.056-.414.02a3.365 3.365 0 0 1-1.329-.727c-.016-.014-.04-.019-.083-.038.024.68-.204 1.27-.567 1.826M94.197 65.904l-.18-.167c-.309-.034-.533.106-.769.249l.228.502c.246-.053.45-.154.676-.277l.045-.307m.464-.036l-.127.38c.103.09.234.175.325.292.087.113.133.26.214.428l.152.177-.464.201c-.117-.093-.157-.226-.209-.354-.063-.157-.118-.325-.329-.365-.063.023-.137.046-.207.076-.127.054-.252.112-.388.174l.327.787-.397.183c-.206-.334-.294-.698-.451-1.03-.158-.333-.29-.678-.44-1.033.091-.041.179-.085.27-.122.306-.124.608-.26.921-.363.287-.094.594.077.71.36l.093.21M104.18 57.074c.022-.048.048-.096.066-.146.131-.37.019-.57-.253-.753a1.464 1.464 0 0 0-.49-.191c-.262-.065-.515.024-.63.214-.175.29-.151.504.066.759.096.112.229.15.355.206.304.134.593.14.886-.089m-.533.655c-.446.005-.803-.206-1.102-.505-.193-.192-.24-.463-.2-.734.042-.277.138-.532.352-.732a.97.97 0 0 1 .856-.253c.394.065.753.225 1 .559a.762.762 0 0 1 .148.331c.027.197.042.403-.044.593-.157.347-.268.482-.502.627-.126.078-.282.112-.508.114M101.279 59.461l.536.285c.118-.276.354-.471.357-.768-.094-.13-.195-.22-.359-.226l-.164.076-.37.633m1.608.952l-.237.361-1.928-1.132c.037-.07.07-.136.106-.199.156-.266.307-.535.471-.796a.839.839 0 0 1 .219-.232c.265-.188.48-.15.753.052.163.122.221.272.242.45l.342-.03c.162.088.306.176.46.245.08.037.176.04.278.061l-.268.442c-.155-.08-.296-.156-.44-.224-.095-.046-.183-.122-.3-.094-.232.125-.278.38-.415.562.02.11.095.148.17.19.13.07.257.141.383.217.051.03.096.073.164.127M100.847 62.517l.195-.375c-.059-.277-.059-.277-.156-.403l-.326.36c-.127-.057-.195-.16-.284-.245.179-.203.35-.4.524-.595.02-.021.05-.032.098-.061l.883.769-.21.23c-.068-.05-.12-.091-.17-.13-.089.048-.069.124-.071.191-.018.456-.409.838-.863.864a1.125 1.125 0 0 1-.883-.321c-.219-.206-.39-.43-.453-.728a.931.931 0 0 1 .161-.742c.112-.16.27-.29.368-.391.34-.156.626-.21.917-.022-.035.16-.149.249-.258.337-.578-.127-.86.367-.747.797a.574.574 0 0 0 .15.23c.137.143.262.3.46.375a.546.546 0 0 0 .546-.068c.03-.022.066-.04.119-.072M89.262 31.498l.1-.19.227-.041.124.27 1 .127c.06.169.06.169-.032.34-.121-.012-.25-.023-.376-.04-.182-.024-.364-.054-.546-.077a11.906 11.906 0 0 0-.411-.045c-.26-.024-.516-.095-.8-.05-.022.13-.046.263-.066.397-.048.319-.08.64-.144.955-.076.369-.25.694-.527.957a.802.802 0 0 1-.106.089c-.032.02-.07.032-.102.047-.148-.044-.2-.14-.18-.286.167-.227.458-.37.503-.713l-.381.142-.127-.185c.012-.033.015-.07.035-.088.068-.06.138-.12.213-.17.127-.086.259-.166.391-.25v-.18l-.191-.045c-.083-.144-.142-.497-.162-.987.022-.023.046-.054.076-.077.023-.018.054-.025.084-.038.132.058.182.162.2.292.013.097.035.192.06.329.074-.216.012-.434.2-.564.31-.034.611.045.938.081M85.436 66.794h.443c.006.064.02.123.015.18-.027.314-.06.627-.09.94-.032.33-.062.659-.098.988-.006.05-.037.098-.059.153l-.43-.057c-.002-.327.106-.648.072-.992l-.849-.075-.093.966c-.143.072-.278-.016-.431-.036a1.657 1.657 0 0 1-.004-.458c.024-.244.055-.488.082-.732.028-.244.056-.488.082-.732.01-.084.013-.169.02-.262.135-.062.27-.014.402-.024.081.149.048.283.029.42-.02.137-.022.276-.031.407.13.104.27.093.408.1.136.006.272.023.424.037.021-.122.045-.233.06-.346.019-.151.03-.304.048-.477M68.63 54.655l-.083-.607.8-.772c-.109-.202-.207-.246-.398-.21-.179.033-.36.057-.55.086-.04-.157-.1-.29-.058-.456.71-.153 1.43-.25 2.147-.37.01 0 .024.018.05.038l.072.425-.42.069-.432.074c.038.05.055.092.087.113.307.204.617.405.922.604l.075.57-1.05-.723c-.44.339-.732.796-1.162 1.16M72.376 61.927l-.348-.323.767-.65-.547-.677-.768.65-.29-.367c.546-.49 1.13-.926 1.681-1.432l.168.183.148.166-.644.548.55.658c.23-.154.424-.338.629-.5l.332.303c-.279.269-.576.486-.855.723-.275.234-.545.475-.823.718M96.413 65.428l.3.472c.384-.16.693-.433 1.069-.64l.187.314c-.13.136-1.208.807-1.433.89l-1.184-1.863 1.389-.88.216.334-.985.629a.91.91 0 0 0 .258.388c.307-.16.572-.388.902-.53l.194.298-.913.588M103.108 54.172l.064-.424c.173-.062.333.025.493.052.348.059.691.142 1.04.197.099.016.208-.03.318-.049.042-.104.087-.194.114-.289.063-.222-.026-.407-.247-.478a5.37 5.37 0 0 0-.603-.148c-.293-.058-.587-.105-.875-.156-.04-.254-.04-.255.057-.49.214.043.43.088.646.133.3.062.6.127.9.185.281.054.578.41.56.705-.015.257-.038.505-.185.726a.69.69 0 0 1-.617.338c-.227 0-.441-.056-.66-.098-.33-.064-.659-.133-1.005-.204M74.838 63.948l-.308.213c-.389-.338-.795-.72-1.192-1.141l.172-.118c.036-.05.071-.12.124-.173.408-.414.82-.824 1.23-1.234.016-.017.037-.028.055-.04.145.087.941.867 1.13 1.107-.068.094-.109.216-.265.262l-.821-.815-.334.337c.235.29.503.52.767.748-.103.164-.103.164-.283.252l-.759-.691-.423.39c.296.302.61.559.907.903M71.124 55.19c.084.13.143.266.117.442-.063.024-.126.049-.19.071-.35.12-.7.237-1.05.358-.08.028-.16.058-.233.1-.182.103-.233.261-.149.452.04.092.09.18.133.264l.253.085 1.554-.518.16.43c-.176.066-.343.134-.514.19-.336.112-.676.213-1.012.325-.26.087-.635-.046-.786-.295a1.688 1.688 0 0 1-.238-.644c-.041-.294.095-.545.38-.71.126-.074.265-.127.403-.175.363-.127.73-.246 1.095-.367.02-.007.045-.005.077-.008M91.308 67.635l-.446-.731c-.094.411-.105.63-.04.852l.486-.121m.454.747l-.241-.388-.786.19-.07.475-.403.123c-.062-.164-.039-.309-.023-.451.022-.198.054-.394.078-.592.031-.25.061-.501.088-.753.02-.183.033-.366.051-.563l.52-.136 1.292 1.985c-.15.045-.277.084-.406.119-.027.007-.06-.005-.1-.009M76.597 64.827c.21.077.3.24.479.282.086-.215.17-.42.249-.625a.182.182 0 0 0 0-.091c-.003-.02-.02-.038-.034-.063l-.694.497m.603 1.462l-.405-.283.131-.485-.606-.449c-.19.005-.262.163-.41.239l-.424-.267 1.979-1.322.432.31-.697 2.257M104.247 50.094c-.17.16-.211.351-.162.704.204.038.407.059.619.024l.041-.486c-.027-.08-.043-.193-.178-.242h-.32zm.82-.178c.106.308.079.62.02.947l.83.087-.055.432c-.16 0-.311.004-.463-.001-.099-.004-.197-.027-.296-.033-.345-.019-.691-.03-1.036-.052-.13-.008-.256-.04-.4-.063-.038-.152-.017-.313-.011-.472.006-.153.04-.305.038-.457-.006-.56.475-.804.906-.697a.84.84 0 0 1 .466.31zM69.961 50.71c.106-.277.103-.575.002-.702l-.574.038v.575l.16.151c.151.003.292.037.412-.062m-1.873-1.083c.247-.023.426-.046.607-.056.154-.009.31.002.465-.004.338-.012.677-.03 1.016-.044.067-.002.135.006.228.01-.023.48.054.95-.053 1.422l-.231.198c-.208.128-.447.111-.671.075-.229-.036-.428-.238-.44-.55-.004-.106-.033-.212-.04-.319-.008-.098-.002-.198-.002-.299-.278-.088-.538.085-.796-.007-.096-.128.028-.273-.083-.426M88.5 68.207c.163-.001.315-.027.472.015-.04.168-.086.322-.182.455-.249.344-.609.453-1 .388-.44-.073-.729-.44-.81-.863a1.554 1.554 0 0 1 .008-.73c.06-.211.14-.408.342-.53.045-.027.079-.073.114-.106.39-.172.773-.196 1.127.056a.694.694 0 0 1 .319.549h-.436l-.147-.201c-.23-.16-.46-.156-.69-.004-.303.398-.27.967.048 1.325.42.223.706.108.835-.354M77.497 37.032l.298-.3c.025-.262-.229-.387-.312-.624l.13-.116c.13-.047.202 0 .26.083.027.038.045.085.08.113.151.125.229.286.247.487-.025.227-.152.405-.34.54-.173.125-.333.288-.596.226-.206-.114-.341-.327-.507-.505-.235-.254-.446-.528-.667-.795-.225-.271-.448-.544-.664-.806.025-.165.134-.202.257-.25l.444.514c.13-.094.16-.243.223-.37.031-.06.034-.135.065-.196.04-.08.093-.153.151-.246l.258.114c-.045.379-.265.678-.383 1.019.02.05.028.113.064.146.28.256.474.583.726.862a.278.278 0 0 0 .266.104"/><path d="M90.544 32.322v.197c-.254.218-.575.309-.887.44.121.157.229.285.325.42.13.184.137.393.075.598-.08.268-.29.39-.557.41a1.317 1.317 0 0 1-.526-.049c-.103-.034-.206-.065-.307-.103-.114-.042-.203-.112-.235-.253l.099-.153c.093.02.19.019.265.06.235.13.482.152.789.119.024-.03.074-.088.114-.135.055-.21-.026-.366-.147-.503a2.465 2.465 0 0 0-.285-.271.259.259 0 0 1-.1-.268l.17-.148c.163-.05.325-.098.53-.159-.08-.04-.12-.071-.163-.08a4.752 4.752 0 0 0-.364-.05c-.206-.023-.412-.041-.616-.06-.119-.061-.142-.157-.105-.302.058-.015.129-.05.2-.049.113.001.227.024.34.04l.955.134c.039.005.078.004.116.003.126-.002.223.05.314.162M74.65 36.815c.19-.158.37-.31.554-.462l-.397-.519.213-.212c.047.023.082.03.1.05.612.722 1.224 1.444 1.833 2.169.033.039.044.096.073.161l-.173.188c-.208-.088-.301-.292-.474-.414-.218.16-.243.481-.514.617l-.195-.176c.107-.295.364-.505.426-.814-.226-.254-.41-.53-.668-.774l-.533.44c-.21-.022-.223-.036-.244-.254M81.332 66.341l.093-.352c.588.148 1.155.329 1.747.476-.017.073-.03.123-.04.173-.013.051-.024.103-.031.136-.124.132-.216-.024-.329-.006-.095.014-.203-.052-.326-.089-.195.587-.332 1.178-.52 1.778l-.426-.114c.032-.317.145-.603.228-.895.081-.288.154-.578.233-.874-.188-.137-.437-.098-.629-.233M79.758 65.217l-.806 1.622c.158.144.338.198.5.285.16.087.326.168.5.256l-.164.333c-.266-.054-.472-.221-.705-.33l-.734-.338c.165-.352.316-.687.477-1.018.16-.33.331-.656.503-.993.16.01.279.109.429.183M71.127 43.633c-.435-.045-.644-.295-.712-.682.039-.417.285-.63.686-.707.39.062.654.262.7.706-.037.396-.285.608-.674.683M103.54 42.939c-.116.463-.218.566-.69.696-.392-.066-.653-.27-.697-.698.116-.466.21-.562.684-.693.407.054.644.284.703.695"/><path d="M85.205 35.42c-.121.02-.227.033-.437.058-.34.041-.484.061-.664.096-.718.137-1.448.353-2.287.663-.187.07-.378.15-.61.256a20.68 20.68 0 0 0-1.038.497c-.479.245-.695.363-.932.517-.668.434-1.053.705-1.445 1.033-.37.31-.744.644-1.147 1.023-.075.07-.13.13-.247.265a3.17 3.17 0 0 1-.21.228c-.304.292-.551.587-.95 1.11-.465.61-.87 1.254-1.209 1.926-.217.433-.43.89-.651 1.395a12.02 12.02 0 0 0-.578 1.685 10.942 10.942 0 0 0-.335 1.722 9.254 9.254 0 0 1-.051.384l-.029.202c-.03.218-.044.386-.046.552 0 .13-.003.233-.007.468-.016.827-.011 1.196.038 1.662l.027.289c.028.316.044.466.073.638.016.095.028.178.05.345.044.328.066.468.107.643.103.443.23.9.384 1.391.133.425.3.858.515 1.336.36.807.739 1.518 1.163 2.166.11.168.203.3.414.584.133.181.192.261.262.36.256.364.49.63 1.025 1.198.048.051.07.073.094.1.314.333.664.652 1.06.97.076.061.137.112.273.226.283.238.412.341.581.46.714.503 1.48.95 2.299 1.347.445.215.882.39 1.58.646.917.335 1.898.541 3.14.692.268.033.52.045.942.051.277.005.526.005.98.003l.487-.001c.122 0 .161 0 .207-.006l.213-.025c.43-.051.628-.076.865-.11.484-.071.742-.114 1.032-.177a12.735 12.735 0 0 0 1.797-.527 16.103 16.103 0 0 0 1.67-.73 15.131 15.131 0 0 0 1.81-1.08c.282-.198.525-.391.955-.752.29-.243.58-.502.87-.778.319-.301.623-.635.986-1.072.387-.466.643-.802.875-1.16.207-.32.347-.542.483-.768a15.65 15.65 0 0 0 .982-1.972c.204-.479.377-.988.524-1.532.14-.518.211-.808.273-1.133a11.569 11.569 0 0 0 .144-1.052c.064-.585.085-.816.093-1.104.013-.42.012-.813.001-1.473a7.355 7.355 0 0 0-.052-.731 16.807 16.807 0 0 0-.172-1.158 9.628 9.628 0 0 0-.183-.884c-.11-.415-.247-.842-.409-1.291-.18-.5-.337-.89-.51-1.259-.513-1.087-1.063-2.008-1.707-2.822a17.588 17.588 0 0 0-1.152-1.318 10.759 10.759 0 0 0-.668-.622 20.764 20.764 0 0 1-.345-.309c-.34-.313-.714-.594-1.231-.941-.298-.2-.558-.362-.817-.506l-.13-.073a17.223 17.223 0 0 0-.937-.495 15.114 15.114 0 0 0-2.381-.908 9.606 9.606 0 0 0-1.489-.325 33 33 0 0 1-.289-.037 21.05 21.05 0 0 0-.597-.074c-.372-.043-.54-.06-.751-.07a8.418 8.418 0 0 0-.594-.006l-.28.002c-.656-.013-1.19.011-1.707.092zm1.705.266c.084 0 .154 0 .286-.002.303-.004.42-.003.571.005.201.01.364.027.73.068l.13.015c.126.014.23.028.454.058l.298.039c.438.055.887.156 1.434.313.808.234 1.583.528 2.325.886a16.936 16.936 0 0 1 1.048.56c.25.137.501.294.791.489.504.338.864.61 1.188.908.096.088.174.158.347.31.336.297.482.431.651.606.392.405.768.835 1.13 1.291.625.79 1.16 1.689 1.663 2.753.168.356.32.737.497 1.227.16.44.292.858.4 1.262a9.33 9.33 0 0 1 .193.953l.02.115c.051.293.095.598.132.923.03.257.047.482.05.696.011.655.012 1.043 0 1.456a11.6 11.6 0 0 1-.083.998l-.025.217c-.043.391-.076.635-.124.885-.06.314-.129.597-.266 1.107-.143.529-.31 1.022-.508 1.485a15.31 15.31 0 0 1-.96 1.927 27.84 27.84 0 0 1-.477.759c-.222.344-.471.67-.85 1.125-.354.427-.65.751-.956 1.041-.286.271-.57.525-.854.764-.423.354-.659.543-.93.733-.54.378-1.125.725-1.768 1.054-.506.259-1.044.493-1.633.714-.564.212-1.146.383-1.747.512-.28.06-.532.102-1.008.172a28.456 28.456 0 0 1-1.069.135.79.79 0 0 1-.104.003h-.48c-.52.003-.768.003-1.042-.002a8.235 8.235 0 0 1-.904-.048c-1.217-.148-2.172-.349-3.06-.673-.688-.251-1.116-.423-1.547-.632a16.125 16.125 0 0 1-2.249-1.317 7.714 7.714 0 0 1-.554-.44c-.14-.118-.203-.17-.282-.233a10.025 10.025 0 0 1-1.11-1.029c-.532-.563-.757-.82-1-1.165a18.184 18.184 0 0 0-.264-.363c-.21-.284-.3-.411-.406-.571a15.101 15.101 0 0 1-1.135-2.117 11.734 11.734 0 0 1-.5-1.297 19.292 19.292 0 0 1-.378-1.365 5.778 5.778 0 0 1-.098-.596c-.025-.184-.037-.27-.054-.37a6.934 6.934 0 0 1-.067-.578 17.55 17.55 0 0 0-.03-.328c-.047-.446-.052-.805-.036-1.617l.007-.472c.001-.148.015-.302.043-.507l.028-.198c.029-.197.04-.286.053-.398a10.59 10.59 0 0 1 .325-1.666c.168-.619.346-1.148.56-1.636.218-.499.428-.95.643-1.376.329-.653.722-1.278 1.174-1.87.388-.51.626-.794.913-1.07.07-.067.122-.124.232-.25.11-.127.159-.18.222-.24.399-.375.768-.705 1.132-1.01.378-.316.753-.58 1.41-1.007a8.75 8.75 0 0 1 .839-.467l.174-.09c.23-.118.435-.214.838-.398.298-.136.48-.213.659-.28.82-.303 1.533-.514 2.23-.647.169-.032.307-.051.621-.09.232-.027.34-.041.467-.061.494-.077 1.01-.1 1.646-.088l.004-.179v.179zm.006-.358a62.42 62.42 0 0 0-.006 0v.179l.006-.179z" fill-rule="nonzero"/><path d="M100.87 48.52c.04.484.072.967.094 1.267-.066 3.957-1.36 7.245-4 9.943-2.734 2.793-6.11 4.16-10.014 4.228-3.853-.075-7.195-1.42-9.908-4.16-2.71-2.734-4.029-6.083-4.06-9.933-.003-.483.04-.97.094-1.45.055-.488.132-.975.237-1.454.103-.473.233-.942.387-1.4.154-.46.345-.908.533-1.356.189-.447.415-.878.67-1.291.259-.419.536-.828.822-1.228.282-.394.594-.763.918-1.125.326-.364.659-.715 1.03-1.028.37-.312.752-.61 1.136-.906.391-.302.818-.55 1.243-.802.42-.248.855-.465 1.299-.662.443-.196.898-.37 1.36-.516.46-.145.934-.253 1.405-.362.48-.111.966-.171 1.456-.223.483-.051.968-.072 1.452-.079.483-.007.97.035 1.45.09.488.054.973.135 1.454.23.475.096.94.23 1.401.381.462.152.917.32 1.357.525.44.205.874.427 1.294.672.425.248.843.514 1.238.807.39.287.768.592 1.133.913.366.323.694.676 1.022 1.033.33.358.618.746.909 1.136.295.396.56.81.81 1.237.246.42.468.852.66 1.296.192.445.35.905.514 1.361.164.457.276.927.377 1.402.103.48.184.965.226 1.454zM86.764 58.768c-.246.068-.422-.032-.59-.118-.52-.268-1.087-.338-1.654-.366-.453-.022-.91-.039-1.366.032-.221.035-.441.06-.652.139a.86.86 0 0 1-.611.006c-.058-.02-.12-.03-.178-.047a4.865 4.865 0 0 1-1.487-.721c.067-.273.058-.542.036-.814-.034-.399-.075-.795-.19-1.18-.096-.317-.163-.642-.372-.913-.07-.09-.142-.157-.237-.17-.14.058-.146.178-.176.278-.114.382 0 .764.017 1.146.004.105.035.21.06.315.058.244.12.487.182.737-.424-.296-1.12-1.054-1.234-1.339.263-.951.32-1.899.088-2.848l-.19-.164c-.19.112-.275.28-.323.47-.12.47-.204.947-.189 1.436.001.04-.01.08-.018.14-.258-.396-.674-1.24-.76-1.617.511-.699.814-1.47.912-2.31l-.06-.294c-.083-.071-.172-.072-.247-.03a.816.816 0 0 0-.234.185 3.597 3.597 0 0 0-.518.872c-.054.13-.111.259-.188.438-.156-.665-.283-1.275-.278-1.907.298-.152.543-.348.791-.546.293-.233.498-.525.69-.83.092-.148.166-.323.027-.495a.35.35 0 0 0-.354-.035c-.148.064-.302.123-.436.21-.225.146-.437.312-.65.467-.057-.318.148-1.457.356-1.943.04-.005.085-.013.13-.017.047-.004.094.002.14-.008.53-.11 1.036-.275 1.47-.625.164-.134.293-.27.333-.493l-.068-.201c-.074-.022-.152-.061-.232-.066-.48-.029-.95.01-1.386.279.06-.303.527-1.214.73-1.438.142.03.283.08.426.084.462.013.923.033 1.366-.165.183-.082.321-.203.47-.314v-.316l-.084-.058a1.15 1.15 0 0 0-.648-.212c-.305-.011-.61-.01-.945.099.489-.653 1.051-1.16 1.669-1.629.07.088.118.191.199.236.187.104.384.201.59.263.196.058.406.069.611.097a.553.553 0 0 0 .14-.002c.098-.012.198-.023.295-.043.227-.048.432-.127.494-.363-.054-.218-.189-.33-.37-.41-.24-.107-.482-.195-.75-.205-.142-.006-.283-.04-.477-.07l.674-.344c.044 0 .083-.002.121 0 .366.022.704-.084 1.022-.247a4.54 4.54 0 0 0 .627-.39c.21-.156.326-.368.262-.671l-.18-.16c-.443-.156-.86-.037-1.266.155-.412.194-.785.435-.968.872l-.46.253c.015-.132.022-.23.035-.327.02-.137.058-.272.064-.409.011-.247.019-.497-.001-.743-.014-.17-.013-.357-.15-.508h-.148c-.16.113-.222.282-.273.449-.166.538-.28 1.086-.263 1.655.004.123 0 .245 0 .357-.688.5-1.324 1.025-1.848 1.728-.027-.415.02-.787-.054-1.152-.037-.18-.062-.363-.09-.544-.024-.166-.11-.302-.19-.432-.125-.058-.207-.01-.264.086-.043.073-.08.15-.105.231-.09.304-.12.62-.138.932-.03.547-.002 1.094.164 1.624a.33.33 0 0 1-.044.287c-.065.104-.137.203-.196.31-.133.242-.267.485-.387.734-.097.201-.174.411-.26.618-.031-.144-.016-.284-.034-.42-.034-.25-.082-.5-.133-.747a3.41 3.41 0 0 0-.303-.895.528.528 0 0 0-.301-.283l-.192.17c-.027.236-.072.486-.08.738-.008.206.014.416.048.62.047.287.111.571.18.855.084.354.196.698.47.971-.093.388-.203.772-.275 1.162-.072.39-.106.789-.16 1.214-.033-.054-.054-.078-.062-.106-.119-.395-.305-.758-.51-1.113a1.813 1.813 0 0 0-.362-.448c-.104-.093-.22-.142-.355-.08a.351.351 0 0 0-.095.283c.02.16.033.322.069.478.116.508.315.983.593 1.424.181.287.354.584.706.653.052.384.112.748.148 1.114.035.359.165.702.197 1.077-.246-.17-.469-.32-.687-.476a1.827 1.827 0 0 0-.749-.296l-.208.083-.061.197c.137.694 1.328 1.623 2.054 1.64.1.206.2.414.302.62.106.215.217.426.32.642.096.204.25.377.338.612-.567-.177-1.102-.187-1.657.055l-.115.215c.023.163.1.258.205.33.35.245.745.364 1.168.39.324.019.645-.007.962-.15.37.428.732.857 1.155 1.228.015.013.016.04.023.061-.506.102-.95.313-1.301.672-.036.13-.103.233-.048.366.099.135.257.18.419.192.482.036.931-.087 1.353-.314.147-.08.283-.18.42-.27.24.143.467.293.707.414.238.12.5.186.78.33-.882.481-1.717.954-2.63 1.283.007.108.09.128.161.137.199.023.399.048.598.049.394.001.786.002 1.18-.034.377-.034.75-.074 1.118-.157.49-.112.962-.274 1.371-.585.366-.28.77-.486 1.224-.583.39-.085.781-.185 1.183-.078.16.043.343.039.459.222-.076.057-.143.122-.222.164-.196.106-.396.208-.598.301-.485.225-.99.382-1.516.478-.126.023-.278.005-.382.118.138.134.262.196.433.202.34.013.68.014 1.009-.09.315-.101.634-.198.938-.327.232-.098.44-.251.665-.369.176-.092.361-.168.548-.254.2.095.396.17.573.275.473.28.96.524 1.497.657.455.113.908.167 1.38.044l.134-.151c-.174-.083-.345-.086-.508-.124a8.352 8.352 0 0 1-1.885-.683c-.12-.061-.222-.16-.347-.251.143-.108.274-.192.429-.21.265-.03.527-.06.802-.013.369.062.727.146 1.055.318.293.154.567.342.847.52.203.13.423.219.653.29.376.115.757.203 1.15.238.275.024.549.07.824.08.44.016.88.012 1.319-.04.101-.012.194-.03.268-.136-.942-.307-1.76-.832-2.68-1.282a6.299 6.299 0 0 0 1.587-.758c.067.051.114.09.165.126.34.24.728.382 1.13.452.275.048.573.064.83-.11.127-.227.12-.325-.045-.497-.259-.27-.595-.41-.935-.54-.101-.038-.212-.053-.309-.076l1.184-1.256c.241.041.473.091.708.12.28.033.558-.005.82-.1a3.91 3.91 0 0 0 .602-.29.384.384 0 0 0 .202-.332c-.011-.027-.024-.063-.04-.098-.014-.027-.031-.053-.05-.086-.535-.315-1.1-.233-1.681-.088.183-.325.363-.62.52-.927.16-.315.296-.64.437-.95.307-.02.57-.102.806-.256.187-.121.38-.236.55-.38.328-.276.607-.594.713-1.04l-.09-.171-.234-.055c-.557.1-.952.446-1.402.8.152-.774.302-1.498.346-2.233l.24-.085c.324-.252.489-.578.665-.894.24-.429.376-.895.465-1.374.03-.168.055-.358-.1-.492-.153-.04-.265.015-.365.113-.292.287-.486.636-.64 1.01-.088.213-.172.427-.259.643-.06-.41-.11-.814-.183-1.213-.072-.398-.168-.792-.255-1.196.177-.145.268-.34.335-.548.056-.175.12-.349.164-.527.08-.32.146-.644.152-.976 0-.07-.005-.142.01-.209.061-.294-.011-.578-.062-.862-.012-.065-.057-.124-.083-.178-.185-.055-.29.042-.351.168-.1.2-.191.407-.254.62-.094.316-.178.635-.198.969-.008.142-.015.298-.116.445a8.456 8.456 0 0 0-.799-1.558c-.062-.097-.06-.197-.027-.31.12-.401.137-.818.156-1.232.01-.215-.01-.43-.035-.645a4.586 4.586 0 0 0-.103-.612 1.063 1.063 0 0 0-.103-.256c-.064-.115-.105-.123-.284-.088-.044.088-.095.183-.139.281-.018.041-.023.089-.035.133-.098.359-.119.727-.134 1.096-.008.19-.001.38-.001.618a9.077 9.077 0 0 0-1.853-1.738c-.025-.354.02-.717-.05-1.077-.06-.316-.11-.634-.221-.938a2.147 2.147 0 0 0-.164-.332c-.06-.104-.146-.16-.268-.095-.093.197-.14.382-.142.555-.006.41-.003.817.09 1.22.012.053-.005.114-.009.17l-.398-.192c-.107-.158-.187-.335-.318-.459a2.558 2.558 0 0 0-1.399-.664.916.916 0 0 0-.503.04c-.24.103-.315.251-.215.523a.81.81 0 0 0 .21.3c.259.237.567.398.892.525.291.114.594.16.892.14.562.255.604.28.679.423-.144-.051-.278-.071-.413-.009-.02.01-.046.005-.069.003a1.14 1.14 0 0 0-.516.107c-.23.097-.488.175-.584.453.082.259.12.313.379.378.184.047.379.085.567.079a2.74 2.74 0 0 0 .657-.109c.287-.082.557-.211.73-.475.62.467 1.182.97 1.639 1.598-.12-.015-.22-.017-.315-.04-.34-.083-.672-.028-1.004.046a.497.497 0 0 0-.33.227c-.027.133-.012.251.053.326.094.075.155.136.227.178.08.046.17.075.254.11.29.123.906.2 1.22.153l.52-.08c.326.405.511.902.753 1.425-.404-.215-.803-.275-1.224-.319-.125.067-.313-.008-.446.143l-.054.169c.046.254.198.41.395.534.06.037.113.082.173.117.354.21.721.383 1.139.425.128.013.254.045.368.065.017.019.025.023.027.03.158.49.235 1 .345 1.502a.995.995 0 0 1-.03.414c-.119-.097-.233-.201-.358-.29-.22-.156-.44-.313-.704-.394-.134-.04-.256-.047-.368.037-.08.108-.074.213-.037.334.049.16.145.289.24.419.177.243.359.48.613.653.229.155.45.321.684.49.034.381-.156 1.653-.28 1.865-.106-.242-.204-.492-.324-.73a2.568 2.568 0 0 0-.427-.63c-.101-.105-.215-.174-.39-.124l-.089.29c.045.476.163.88.314 1.278s.37.76.598 1.094a7.498 7.498 0 0 1-.762 1.582c-.023-.294-.031-.572-.072-.845a8.12 8.12 0 0 0-.186-.877c-.037-.14-.116-.27-.289-.302a.459.459 0 0 0-.222.334c-.026.198-.077.393-.087.591-.034.704.012 1.402.227 2.072-.157.342-.925 1.16-1.231 1.322.045-.194.074-.402.141-.596.118-.34.113-.697.154-1.046.023-.186-.022-.382-.056-.57-.02-.11-.05-.234-.214-.253-.023.016-.056.035-.084.06-.177.153-.265.363-.333.575-.128.394-.24.791-.293 1.207-.054.417-.033.829-.018 1.262-.632.398-1.307.737-2.084.832a3.85 3.85 0 0 0-1.442-.268c-.053 0-.107-.016-.16-.018a3.277 3.277 0 0 0-.273-.005c-.214.008-.428.02-.673.032-.107.023-.246.069-.388.08-.392.03-.754.15-1.097.336-.047.026-.095.059-.146.069-.117.023-.241.062-.343-.044.012-.121.029-.235.033-.349.025-.672-.021-1.344.04-2.017.04-.461.01-.929.008-1.394 0-.04-.02-.081-.039-.145l-.566.248c0 .097-.002.173 0 .25.015.555.032 1.111.045 1.667.005.217 0 .434.002.65 0 .063-.004.127.009.186.07.314.019.628.035.947zm.964-17.557c.055.404-.075.807-.031 1.2.163.088.299.178.447.238.456.184.751.525.945.96.135.303.141.621.004.921-.115.253-.29.479-.491.667-.23.214-.487.401-.745.581-.247.171-.51.319-.767.475-.322.196-.646.39-.97.584-.289.175-.586.34-.867.53-.344.231-.614.525-.763.93-.173.472-.157.925.077 1.362.223.417.568.72.965.968.255.16.511.315.769.47.044.028.095.044.173.08.01-.447.024-.868-.055-1.285-.174-.164-.335-.343-.525-.486a.758.758 0 0 1-.295-.451.807.807 0 0 1 .318-.59c.163-.128.334-.248.512-.354.232-.137.477-.254.714-.383.502-.273.999-.555 1.505-.82.275-.143.543-.292.798-.469.268-.186.51-.4.706-.662.245-.328.376-.709.412-1.113.02-.212.024-.428-.027-.645a3.7 3.7 0 0 0-.404-1.026c-.14-.24-.28-.478-.486-.671-.107-.101-.209-.207-.312-.312a2.414 2.414 0 0 0-1.146-.666c-.138-.035-.287-.126-.461-.033zm-.217 4.642c.034-.661-.007-1.286.046-1.912.057-.653.006-1.31.044-1.968.048-.832-.004-1.668.054-2.502.01-.137.033-.246.135-.35a.877.877 0 0 0 .237-.79.836.836 0 0 0-.365-.59 1.18 1.18 0 0 0-.695-.21c-.327.006-.596.11-.812.365-.307.362-.31.85.01 1.194.043.045.097.079.13.106.023.15.053.27.057.393.026.67 0 1.342.038 2.014.048.809-.002 1.622.056 2.433.015.208-.001.418.004.626.013.571.03 1.142.047 1.713.001.026.018.052.035.098.34-.209.688-.37.979-.62zm-.98 10.161l-.207-.158c-.217-.168-.28-.454-.12-.624.098-.104.22-.2.349-.26.286-.131.584-.238.877-.356.343-.138.688-.275.979-.51.241-.194.454-.41.57-.712.073-.19.095-.385.138-.579.085-.385-.03-.709-.216-1.031-.195-.339-.494-.568-.794-.797-.182-.14-.378-.26-.568-.39-.089.05-.062.136-.063.21-.003.316.005.634-.005.951a.468.468 0 0 0 .176.407c.175.142.277.335.35.538.103.285.015.5-.205.617a4.65 4.65 0 0 1-.421.192c-.68.276-1.299.635-1.764 1.224a2.27 2.27 0 0 0-.434.857c-.055.216-.008.41.09.601.107.212.27.372.458.509.25.181.519.326.843.422.065-.37.015-.72-.034-1.11zm-.008-7.842c0 .297-.003.575 0 .854.003.277.022.554.035.83.036.725 0 1.452.05 2.179.033.493.006.99.01 1.486 0 .065-.03.141.058.202l.629-.301c.034-.41.026-.812.044-1.211.047-1.034.043-2.07.058-3.106.004-.256-.001-.511.003-.767.002-.091.025-.182.032-.273.01-.126.037-.255-.025-.392-.166.083-.32.154-.468.236-.141.078-.275.169-.426.263zm.845 8.45c-.007.243-.026.46.013.664.375.191.46.523.51.895l.165.032c.202-.124.267-.313.369-.463.004-.205-.032-.331-.148-.456a3.245 3.245 0 0 0-.909-.672zm-4.698-11.909c.13-.063.244-.129.365-.175.302-.116.607-.223.912-.334a2.72 2.72 0 0 0 1.13-.765c.332-.372.67-.751 1.12-.965.1-.122.093-.257.065-.37-.046-.185-.03-.369-.038-.553-.002-.067-.007-.134-.011-.202-.301.042-.57.128-.838.232-.192.075-.397.117-.6.164a2.122 2.122 0 0 0-.745.3c-.27.186-.479.419-.657.694-.283.435-.44.914-.536 1.415-.026.133-.04.256-.142.354-.056.053-.069.118-.025.205z"/><path d="M84.516 42.737c-.121-.143-.121-.143-.287-.198a.74.74 0 0 0-.425.441l.194.23.382-.195.136-.278"/></g><path d="M87 71c11.598 0 21-9.402 21-21s-9.402-21-21-21-21 9.402-21 21 9.402 21 21 21zm0-.597c-11.268 0-20.403-9.135-20.403-20.403 0-11.268 9.135-20.403 20.403-20.403 11.268 0 20.403 9.135 20.403 20.403 0 11.268-9.135 20.403-20.403 20.403z" fill="#57697D" fill-rule="nonzero"/><path d="M172.267 41.457c.906.352 1.733.784 2.234 1.81.62-.145 1.244-.218 1.808-.442.895-.356 1.683-.905 2.307-1.805-.242-.742.788-.94.94-1.636-.667-.503-1.181.292-1.823.147-.63-.142-1.316-.031-2.097-.031a982.12 982.12 0 0 1-.493-.76c-.539-1.654.926-2.13 1.913-2.89l.61.298-.177 1.65c.294 0 .493.05.65-.009 1.167-.442 2.38-.237 3.573-.27.868-.025 1.684-.477 2.577-.294.174.035.36.005.698.005l-.348.755-2.793.46-.345.345.418 1.332c.98-.562 2.113-.547 3.147-.913.289-.102.547-.29 1.076-.58l1.55.27c.186.99-.308 1.72-.6 2.585-.849-.626-1.772-.447-2.705-.287-.927.158-1.808.482-2.56.996-.841.573-1.304 1.472-1.502 2.568l-2.914 3.323-1.017-1.427v-1.544l.713-1.016h-2.056l-.397.48c.209 1.638.563 3.33 2.115 4.489.98.121 1.968.294 2.962.353 1.036.061 2.085-.052 3.118.031 1.078.087 2.092-.266 3.145-.301.047-.002.097.01.141-.002 1.37-.35 1.666-.367 3.11-.148-.17.249-.273.517-.467.658-.75.546-3.452 1.499-4.51 1.775-2.634.688-5.3.938-8.017.86a4.452 4.452 0 0 1-1.808-.445c-.69-.33-.871-1.15-1.13-1.781-.282-.687-.32-1.514-.299-2.275.017-.62-.206-1.153-.313-1.726-.1-.528.255-1.134-.272-1.589.178-1-.639-1.936-.162-3.019M149.801 49.138l-1.279-.425c-.555-1.004-.582-2.076-.458-3.33.223.142.399.21.51.336.146.164.24.374.355.561 1.124.176 2.127-.316 2.883-.877 1.153-.857 2.457-1.18 3.735-1.641 1.044-.377 2.154-.61 2.91-1.523.113-.802.27-1.603.328-2.412.057-.8-.028-1.61.026-2.41a2.476 2.476 0 0 0-.395-1.544c-.51-.79-.588-1.74-1.013-2.564-.152-.294-.025-.731-.025-1.154 1.381-.162 2.478.383 3.718 1.365.168.225.302.767.26 1.379-.11 1.615-.196 3.232-.286 4.848-.016.273-.002.547-.002 1.004.568-.335 1.108-.504 1.425-.868.926-1.066 2.091-1.682 3.622-2.127l.498.566c-.666.677-1.22 1.31-1.848 1.86-.58.505-1.201.963-1.77 1.49-.605.56-1.269 1.056-1.876 1.555-.216 2.624-1.117 4.874-3.122 6.564-1.192 1.005-4.162 2.261-5.688 1.808-.013-.09-.067-.234-.033-.26 1.005-.737 1.995-1.499 3.037-2.181 1.257-.824 2.187-1.874 2.703-3.383l-.505-.638c-1.624.415-3.148.939-4.395 2.14-.796.767-1.735 1.392-2.88 1.597-.16.029-.3.18-.435.264M214.003 33.217l.545.907-.746.47c-1.104.13-2.108.21-3.098.377-.916.154-1.883.266-2.698.663-.464.225-1.077-.122-1.379.448-.88-.152-1.398.513-2.086.887l-.706 4.213c-.264.827-.56 1.607-.757 2.411-.292 1.2-.642 2.38-.997 3.561-.164.547-.286 1.112-.51 1.634-.754 1.762-2.102 2.858-3.934 3.382-.04.012-.074.098-.1.093-.98-.185-1.88.436-2.86.272l-.424-.424c.571-.56 1.179-1.086 1.706-1.684 1.364-1.549 2.648-3.155 3.426-5.104.23-.574.272-.558.262-1.156-.955-.367-1.195-1.104-1.096-2.091l2.526-.42-.355-1.204-2.413-.776V38.44c.518-.18 1.118-.438 1.743-.59.652-.158 1.328-.213 2.055-.322.327-.988.422-2.112 1.334-2.784l4.967-.61c.044-.724.11-1.453.775-2.014.744.048 1.579-.164 2.325.363l.413.971c.682.358 1.298-.138 2.082-.236M125.711 45.19c-1.382 1.37-2.313 3.027-3.08 4.485l.187.521c1.766-.406 3.13-1.37 4.419-2.259v-3.836l-.85 1.089h-.676zm-2.932-3.699c1.735-.07 2.958 1.093 4.413 1.614.23-.655.428-1.373.415-2.17-.011-.713-.306-1.497.258-2.152l-.414-2.526c-.526-.646-1.19-1.51-1.908-2.326-.432-.49-.814-.97-.803-1.672l.449-.422c1.143.684 2.328 1.352 3.466 2.092.427.278.745.721 1.1 1.076.595 3.779.408 7.573.338 11.354-.027 1.495-.314 3.021-.808 4.472-.135.396-.654 1.096-1.356 1.78l-.67-.465v-2.39c-1.269.357-1.637.642-4.334 3.339h-1.185c-.997-.914-.602-2.087-.7-3.21 1.17-1.067 1.72-2.499 2.333-3.955.7-1.662-.406-2.907-.594-4.439zM135.654 34.868c1.177.65 1.51 1.049 1.86 2.123.378 1.167.747 2.337 1.142 3.498.093.273.274.516.436.813l1.776-1.311v-1.152l.753-.747c.25.533.564.956 1.174 1.192.48.185.873.599 1.233.86l-.378 1.59-1.01.895c-.874.395-2.084.156-3.086.883.009 1.348-.774 2.387-1.638 3.545.91.139 1.662.203 2.418-.021.8-.237 1.637-.4 2.377-.758.406-.197.773-.212 1.174-.26.208-.025.404-.145.613-.225l.395.775c-.416 1.449-1.636 1.754-2.875 2.008-.705.145-1.418.24-1.902.321l-2.42 1.051c-.602-.238-1.274-.343-1.6-.966-.201-.388-.415-.775-.563-1.184-.49-1.36-.982-2.728-1.324-4.125-.302-1.234-.475-2.534-.04-3.814.471-1.382.76-2.812 1.084-4.232.057-.248.242-.467.4-.76" fill="#58697C"/><path d="M213.142 36.662l.977.977v1.836l-3.733 5.544 1.72 4.5c-.047.203.05.632-.105 1.11-.296.905-1.134 1.011-1.747 1.297-.463.215-1.153.33-1.695.3-.86-.05-1.77-.188-2.496-.787-.166-.138-.357-.247-.673-.463l-.375-.761c.102-.097.175-.215.227-.206.57.097 1.186.11 1.697.347 1.017.472 1.827.173 2.61-.425.158-.844-.126-1.48-.576-2.177-.433-.669-.803-1.46-.323-2.398.266-.52.47-1.16.389-1.827-.088-.72.433-1.238.758-1.806.394-.69.847-1.346 1.41-2.227-.652.146-1.18.122-1.507.365-.857.638-1.996.421-2.841 1.045-.118.086-.462.073-.532-.021-.327-.436-.796-.144-1.092-.258l-.665-.992c-.003.006.008-.07.05-.122.623-.76 1.555-1.072 2.404-1.376a11.748 11.748 0 0 0 1.563-.67c1.03-.557 2.056-.88 3.219-.81.424.027.85.005 1.336.005M186.526 32.69c.21.575.401 1.094.606 1.65-.563.488-1.326.413-1.994.6-.596.17-1.233-.096-1.874.265-.467.264-1.143-.102-1.716.291-.244.168-.734.062-1.085-.028-1.06-.27-2.105-.594-3.238-.92.166-.157.294-.378.47-.428 2.85-.807 5.722-1.508 8.83-1.43M164.226 48.075v-1.408c1.375-.168 3.64 1.696 3.944 3.728-.95.498-1.76 1.608-2.934.75l-1.01-3.07M187.176 45.66v.484l-1.015 1.014h-1.533l-1.676-2.247V43.5c.95-.182 1.414.699 2.158.938.733.235 1.364.79 2.066 1.22M121.858 59.235v7.102h1.544v-2.388h1.225c2.107 0 2.834-1.054 2.834-2.362 0-1.29-.727-2.352-2.834-2.352h-2.77zm1.544 1.363h1.071c.98 0 1.444.345 1.444.99 0 .653-.454.998-1.453 1.007h-1.062v-1.997zm5.03-1.363v7.102h1.544V64.12l.672-.754 2.152 2.97h1.88l-2.97-4.16 2.616-2.942h-1.87l-2.48 2.734v-2.734h-1.544zm7.02 0v4.223c0 2.052 1.253 3.033 3.015 3.033 1.77 0 3.015-.953 3.015-3.033v-4.223h-1.544v4.214c0 1.026-.418 1.671-1.471 1.671-1.072 0-1.471-.763-1.471-1.67v-4.215h-1.544zm10.834 0v7.102h1.544V63.43h2.996v2.906h1.544v-7.102h-1.544v2.834h-2.996v-2.834h-1.544zm7.464 0v7.102h5.63v-1.362h-4.086V63.43h3.642v-1.362h-3.642v-1.471h4.069v-1.363h-5.613zm6.157 7.102h1.617l.563-1.471h2.97l.553 1.47h1.626l-2.77-7.1h-1.716l-2.843 7.1zm3.687-5.358h.019l.935 2.525h-1.934l.98-2.525zm4.36-1.744v7.102h5.22v-1.362h-3.677v-5.74h-1.544zm5.475 0v1.363h2.216v5.739h1.544v-5.74h2.216v-1.362h-5.976zm6.684 0v7.102h1.544V63.43h2.996v2.906h1.544v-7.102h-1.544v2.834h-2.996v-2.834h-1.544zm6.802 7.102h1.616l.563-1.471h2.97l.554 1.47h1.625l-2.77-7.1h-1.716l-2.842 7.1zm3.687-5.358h.018l.935 2.525h-1.934l.98-2.525zm4.095 1.807c0 1.907.963 3.705 3.315 3.705 1.68 0 2.651-.926 3.042-2.097l-1.553-.228c-.272.618-.754.954-1.49.954-1.098 0-1.77-.926-1.77-2.334 0-1.453.68-2.334 1.77-2.334.709 0 1.136.29 1.48.927l1.563-.237c-.372-1.107-1.371-2.052-3.042-2.052-2.37 0-3.315 1.807-3.315 3.696zm7.556-3.55v7.1h1.552V63.64h1.163c.735 0 1.071.463 1.117.971.1.954.19 1.38.363 1.726h1.626a6.816 6.816 0 0 1-.49-1.907c-.083-.763-.419-1.217-1-1.453v-.01c.663-.317 1.099-.97 1.099-1.652 0-1.18-.754-2.08-2.615-2.08h-2.815zm1.552 1.362h1.1c.871 0 1.234.317 1.234.826 0 .509-.4.854-1.217.854h-1.117v-1.68zm5.222-1.363v7.102h5.63v-1.362h-4.086V63.43h3.641v-1.362h-3.641v-1.471h4.068v-1.363h-5.612z" fill="#58697C"/></g></svg>