<svg xmlns="http://www.w3.org/2000/svg" width="280" height="100" viewBox="0 0 280 100">
  <g fill="#5A6978" fill-rule="evenodd" transform="translate(83 23)">
    <path d="M-.42108547e-14 18.2692868L6.16124492 18.2692868 6.16124492 6.52500099 1.76558649 6.52500099 1.76558649 2.67049828 17.0610618 2.67049828 17.0610618 6.52500099 12.916377 6.52500099 12.916377 18.2692868 18.4614082 18.2692868 18.4614082 23.2684166-.42108547e-14 23.2684166-.42108547e-14 18.2692868zM100.023109 0L100.023109 3.39808377 114.900654 3.39808377 114.900654 11.9044799 110.678149 11.9044799C110.678149 11.9044799 110.053227 9.24597012 109.731602 8.39452877L86.6512698 8.39452877C86.226746 9.37451097 85.4903458 11.9053749 85.4903458 11.9053749L81.5590219 11.9053749 81.5590219 3.39808377 94.6647284 3.39808377 94.6647284 0 100.023109 0zM77.4982623 15.4171159C77.4982623 15.4171159 68.5613761 14.6573126 64.6301106 16.9385124 64.6006395 17.3322856 64.5416974 17.8146578 64.5416974 17.8146578L68.377405 17.8146578 77.734031 17.8146578 77.734031 21.1142982 77.734031 22.8862776C77.734031 22.8862776 71.2164538 22.9721918 69.0079078 22.9721918 68.8659107 23.3784942 68.5828096 24.1919938 68.5828096 24.1919938L71.4479743 26.7508222C71.4479743 26.7508222 72.8109168 25.6167012 73.2959786 25.4720348 73.7810405 25.3273684 75.6886798 27.7431122 75.6886798 27.7431122L73.9313667 30.3831825 76.9876552 34.9359117 76.9876552 39.53125C76.9876552 39.53125 75.0682365 38.2040553 74.2912713 37.4388824 69.9447314 33.1476494 65.605336 28.8483619 61.3320272 24.4846389 59.1824234 22.2884583 56.8997532 21.7380708 53.6856178 23.5476376 56.8720682 26.0418329 53.8981669 28.5664561 53.8633374 32.0083919 56.4675105 32.0083919 58.9171836 31.9913881 61.3668567 32.0083919 62.5555242 32.0173413 63.7950963 31.7103772 64.9149979 32.0083919 65.5981914 32.1909595 66.0974139 31.4454752 66.6796913 32.0083919 66.0366856 32.6590126 64.7462089 35.8441009 64.7462089 35.8441009L53.5927392 35.8441009 46.5625435 35.8441009C46.5625435 35.8441009 48.5013843 30.4619371 49.3238957 28.1780526 49.1247426 28.0384421 48.9246964 27.8997265 48.7255432 27.760116 46.7500868 29.1633805 42.5893041 32.1211542 42.5893041 32.1211542L42.5893041 26.8565675C42.5893041 26.8565675 47.353035 24.7899512 48.5344276 23.0795845 47.372552 22.8576396 42.8009601 22.4602866 42.8009601 22.4602866L42.8009601 20.3482304 42.8009601 17.8146578 54.4607968 17.8146578 59.3797905 17.8146578 60.2567788 10.915633 63.5209258 10.915633 66.1072376 10.915633 66.1072376 7.97659221 60.6506198 7.97659221 60.994567 3.82690434 66.1072376 3.82690434 66.1072376 1.57151306 71.9005404 1.57151306 71.9005404 3.82690434 77.4982623 3.82690434 77.4982623 7.97659221 71.9005404 7.97659221 71.9005404 10.915633 77.4982623 11.9117445 77.4982623 15.4171159zM110.842484 19.0264948C107.709617 21.3864492 105.531435 23.9262864 104.773225 28.2828499 103.7721 34.0355185 93.4072057 38.6820423 93.4072057 38.6820423L93.4072057 31.9342015C93.4072057 31.9342015 99.418416 28.8341324 100.129294 25.0673337 94.9923934 29.0193848 86.0340736 35.9139956 86.0340736 35.9139956L86.0340736 30.2373969C86.0340736 30.2373969 92.5337896 26.033868 95.2183384 23.9119674 96.3507429 23.0170283 97.4402804 22.064813 98.6235895 21.0776952 96.984818 18.2416332 95.578243 19.8793718 94.2359686 20.8566453 92.9133416 21.8187048 91.6451915 22.8550443 90.3627523 23.87259 88.9767178 24.9715752 86.1582095 27.2438256 86.1582095 27.2438256L86.1582095 21.4786279C86.1582095 21.4786279 91.7693273 18.6622546 93.6072519 17.2554103 93.3527288 16.8723764 93.0982057 16.4902374 92.8436826 16.1063085 88.9686802 18.5342783 80.6846234 23.7240301 80.6846234 23.7240301L80.6846234 19.3021591C80.6846234 19.3021591 86.5937654 15.9641827 88.0961572 13.6816191 87.6603422 12.6139567 86.3171748 9.82741577 86.3171748 9.82741577L109.355533 9.82741577 109.355533 12.9919204 98.6182311 12.9919204 104.257034 18.2112053 108.29003 15.2139957 114.354903 15.2139957C114.354903 15.2139957 111.905229 18.2264192 110.842484 19.0264948zM19.9570216 2.67882121L38.0129789 2.67882121 38.0129789 7.22421691 27.3721276 7.22421691C27.3721276 7.22421691 23.2821748 7.22421691 24.6840065 11.2362289 27.0416941 11.8170444 29.375269 12.2367708 31.6061415 12.9706209 38.225528 15.1453229 41.4798513 19.9717295 41.1208398 26.8350174 40.7787965 33.3635982 37.0502565 37.7004731 30.1486619 38.9453334 27.4319629 39.4366549 24.5116453 39.3740092 21.764582 38.9873955 17.289441 38.3600432 17.0849294 33.0942215 17.0849294 33.0942215L17.0849294 30.2187822C17.0849294 30.2187822 22.3995502 32.4856629 24.8929834 33.233832 29.8843152 34.7319601 34.4148262 31.9755476 35.3248578 27.1079739 36.1920225 22.4730843 32.7698032 17.5213862 28.0472836 17.0587027 25.5868937 16.818859 23.0577379 17.289597 19.9570216 17.4757443L19.9570216 2.67882121zM43.4421797 3.58109882C43.4421797 3.58109882 48.4451213 3.61242168 49.7802512 3.54440631 50.6949327 3.49835478 53.0187879 3.54440631 53.0187879 3.54440631L53.0187879.801417966 58.2652473.801417966 58.2652473 15.8811418C53.5659472 15.8811418 42.9456364 15.7979125 42.9456364 15.7979125L42.9456364 14.0169837 42.9456364 11.881659 47.7815751 11.881659 53.0187879 11.881659 53.0187879 7.81147595 47.5654538 7.81147595 43.4421797 7.81147595 43.4421797 3.58109882zM115 27L115 34.8693491C115 34.8693491 109.689628 26.5098861 107.167617 23.3015294 107.293539 23.1842924 108.190175 22.3537889 109.134143 21.4785384 111.66371 23.3991261 115 27 115 27zM3.1320926 44.6743268C4.01951884 44.6743268 4.6981389 44.9601064 5.16795279 45.5316656L5.16795279 44.8482796 6.55129369 44.8482796 6.55129369 53.7322972 5.0635497 53.7322972 5.0635497 50.3899186C4.50238311 51.0857297 3.83681344 51.4460605 3.05379029 51.4460605 2.07501135 51.4460605 1.31808897 51.1105801.769972764 50.4396193.247957331 49.8183594 0 49.0355718 0 48.0912566 0 47.0972407.261007717 46.3020279.78302315 45.680768 1.34418974 45.0098072 2.12721289 44.6743268 3.1320926 44.6743268zM3.35394916 45.8174451C2.68837948 45.8174451 2.20551521 46.0410987 1.90535633 46.4884059 1.64434862 46.8611619 1.52689514 47.3954455 1.52689514 48.0912566 1.52689514 48.7870678 1.657399 49.3213514 1.94450749 49.6941074 2.25771675 50.0917138 2.74058103 50.3029422 3.4061507 50.3029422 3.87596459 50.3029422 4.28052655 50.1165642 4.59373581 49.7438082 4.93304585 49.3337766 5.11575125 48.7870678 5.11575125 48.116107L5.11575125 48.0167055C5.11575125 47.3705951 4.972197 46.8611619 4.6981389 46.4759807 4.38492964 46.0286735 3.92816614 45.8174451 3.35394916 45.8174451zM9.1222197 42.2265625C8.83511121 42.2265625 8.60020427 42.3135389 8.40444848 42.4874917 8.20869269 42.6614445 8.11733999 42.8850981 8.11733999 43.1584525 8.11733999 43.4318068 8.20869269 43.6554604 8.40444848 43.8418384 8.60020427 44.0157912 8.83511121 44.1027676 9.1222197 44.1027676 9.40932819 44.1027676 9.64423513 44.0157912 9.83999092 43.8418384 10.0357467 43.6678856 10.1401498 43.4318068 10.1401498 43.1584525 10.1401498 42.8850981 10.0357467 42.6614445 9.85304131 42.4874917 9.65728552 42.3135389 9.40932819 42.2265625 9.1222197 42.2265625zM8.37834771 44.8482796L8.37834771 51.2721077 9.86609169 51.2721077 9.86609169 44.8482796 8.37834771 44.8482796zM14.7730368 44.6743268C15.7648661 44.6743268 16.5087381 44.9104056 16.978552 45.3825632 17.3961643 45.7925947 17.6049705 46.3890043 17.6049705 47.1717919L17.6049705 51.2721077 16.2216296 51.2721077 16.2216296 50.4271941C15.9606219 50.7502493 15.6343622 50.9863281 15.255901 51.1602809 14.8252383 51.3466589 14.3162733 51.4460605 13.7290059 51.4460605 13.0242851 51.4460605 12.4761689 51.2721077 12.0716069 50.9366273 11.6539946 50.5887217 11.4451884 50.1538398 11.4451884 49.6195562 11.4451884 48.8988946 11.7322969 48.3397606 12.3326146 47.9545795 12.8807308 47.5818235 13.6507036 47.3830203 14.6425329 47.3581699L16.1172265 47.3208943 16.1172265 47.0723903C16.1172265 46.2274767 15.6343622 45.8174451 14.6686337 45.8174451 14.2510213 45.8174451 13.9247617 45.8795711 13.6768044 46.0286735 13.3896959 46.1902011 13.1939401 46.4387051 13.1156378 46.7741855L11.6409442 46.6623587C11.7844984 45.9541223 12.1499092 45.432264 12.7371766 45.1092088 13.2330912 44.811004 13.9117113 44.6743268 14.7730368 44.6743268zM16.1172265 48.3397606L14.746936 48.3770362C13.5593509 48.4018866 12.9720835 48.799493 12.9720835 49.5698554 12.9720835 49.793509 13.0634362 49.979887 13.2722424 50.1289894 13.4810486 50.2780918 13.7420563 50.3650682 14.0683159 50.3650682 14.6425329 50.3650682 15.1253972 50.2035406 15.5169088 49.8929106 15.9084203 49.5698554 16.1172265 49.1598238 16.1172265 48.6628158L16.1172265 48.3397606zM22.3031094 44.6743268C23.3210395 44.6743268 24.1432138 44.9849568 24.7696323 45.6310672 25.3830005 46.2647523 25.6962097 47.0723903 25.6962097 48.0664062 25.6962097 49.047997 25.3830005 49.855635 24.7826827 50.4768949 24.1562642 51.1230053 23.3210395 51.4460605 22.3031094 51.4460605 21.2721289 51.4460605 20.4499546 51.1230053 19.8235361 50.4768949 19.210168 49.855635 18.9100091 49.047997 18.9100091 48.0664062 18.9100091 47.0723903 19.210168 46.2647523 19.8365865 45.6310672 20.4499546 44.9849568 21.2721289 44.6743268 22.3031094 44.6743268zM22.3031094 45.8298703C21.6766909 45.8298703 21.206877 46.0535239 20.867567 46.5256815 20.5804585 46.9232879 20.4369042 47.4451463 20.4369042 48.0664062 20.4369042 48.6876662 20.5804585 49.1970994 20.867567 49.5947058 21.206877 50.0544382 21.6766909 50.290517 22.3031094 50.290517 22.9164775 50.290517 23.3993418 50.0544382 23.7386518 49.5947058 24.0257603 49.1846742 24.182365 48.675241 24.182365 48.0664062 24.182365 47.4451463 24.0257603 46.9232879 23.7386518 46.5256815 23.3993418 46.0535239 22.9164775 45.8298703 22.3031094 45.8298703zM26.6749887 44.8482796L26.6749887 46.0038231 30.2768951 46.0038231 26.5444848 50.3153674 26.5444848 51.2721077 32.4954607 51.2721077 32.4954607 50.1165642 28.5020427 50.1165642 32.2866546 45.7553191 32.2866546 44.8482796 26.6749887 44.8482796zM33.6047435 42.2265625L33.6047435 51.2721077 35.0924875 51.2721077 35.0924875 47.6812251C35.0924875 47.1345163 35.2229914 46.6996343 35.4970495 46.3517287 35.7580572 46.0038231 36.123468 45.8298703 36.5932819 45.8298703 37.1022469 45.8298703 37.4807081 45.9789727 37.7417158 46.2896027 37.9635724 46.5753823 38.0810259 46.9978391 38.0810259 47.5445479L38.0810259 51.2721077 39.5687699 51.2721077 39.5687699 47.2960439C39.5687699 46.4387051 39.3730141 45.7925947 38.9945529 45.3577128 38.5899909 44.8979804 37.9766228 44.6743268 37.1544485 44.6743268 36.7237857 44.6743268 36.3453246 44.748878 36.0190649 44.9104056 35.6536541 45.0843584 35.3404448 45.3452876 35.0924875 45.7056184L35.0924875 42.2265625 33.6047435 42.2265625zM41.1348162 44.8482796L41.1348162 48.8491938C41.1348162 50.5762965 41.9439401 51.4460605 43.5621879 51.4460605 44.3974126 51.4460605 45.1021335 51.1105801 45.6763504 50.4396193L45.6763504 51.2721077 47.1640944 51.2721077 47.1640944 44.8482796 45.6763504 44.8482796 45.6763504 48.7746426C45.5458466 49.234375 45.32399 49.5947058 45.0238311 49.8680602 44.7236723 50.1289894 44.410463 50.2656666 44.0842034 50.2656666 43.5621879 50.2656666 43.1967771 50.1414146 42.9618702 49.9053358 42.7269632 49.6568318 42.6225601 49.2840758 42.6225601 48.7622174L42.6225601 44.8482796 41.1348162 44.8482796zM51.7969814 44.6743268C52.7888107 44.6743268 53.5326827 44.9104056 54.0024966 45.3825632 54.4201089 45.7925947 54.6289151 46.3890043 54.6289151 47.1717919L54.6289151 51.2721077 53.2455742 51.2721077 53.2455742 50.4271941C52.9845665 50.7502493 52.6583069 50.9863281 52.2798457 51.1602809 51.8491829 51.3466589 51.3402179 51.4460605 50.7529505 51.4460605 50.0482297 51.4460605 49.5001135 51.2721077 49.0955515 50.9366273 48.6779392 50.5887217 48.469133 50.1538398 48.469133 49.6195562 48.469133 48.8988946 48.7562415 48.3397606 49.3565592 47.9545795 49.9046754 47.5818235 50.6746482 47.3830203 51.6664775 47.3581699L53.1411711 47.3208943 53.1411711 47.0723903C53.1411711 46.2274767 52.6583069 45.8174451 51.6925783 45.8174451 51.274966 45.8174451 50.9487063 45.8795711 50.700749 46.0286735 50.4136405 46.1902011 50.2178847 46.4387051 50.1395824 46.7741855L48.6648888 46.6623587C48.808443 45.9541223 49.1738538 45.432264 49.7611212 45.1092088 50.2570359 44.811004 50.9356559 44.6743268 51.7969814 44.6743268zM53.1411711 48.3397606L51.7708806 48.3770362C50.5832955 48.4018866 49.9960281 48.799493 49.9960281 49.5698554 49.9960281 49.793509 50.0873808 49.979887 50.296187 50.1289894 50.5049932 50.2780918 50.7660009 50.3650682 51.0922606 50.3650682 51.6664775 50.3650682 52.1493418 50.2035406 52.5408534 49.8929106 52.932365 49.5698554 53.1411711 49.1598238 53.1411711 48.6628158L53.1411711 48.3397606zM59.6794144 44.6743268C59.2748525 44.6743268 58.9094417 44.748878 58.5701316 44.9104056 58.243872 45.059508 57.9437131 45.2955868 57.6827054 45.5937916L57.6827054 44.8482796 56.1949614 44.8482796 56.1949614 51.2721077 57.6827054 51.2721077 57.6827054 47.4078707C57.7349069 46.8984375 57.9176123 46.5008311 58.2308216 46.2274767 58.5048797 45.9789727 58.8311394 45.8547207 59.1965502 45.8547207 60.2144803 45.8547207 60.7234453 46.3765791 60.7234453 47.4327211L60.7234453 51.2721077 62.2111893 51.2721077 62.2111893 47.3084691C62.2111893 45.5440908 61.3629142 44.6743268 59.6794144 44.6743268zM66.5830685 44.6743268C67.4182932 44.6743268 68.0838629 44.9849568 68.5797776 45.6310672L68.5797776 44.8482796 70.0675216 44.8482796 70.0675216 50.8620761C70.0675216 52.8873836 69.0104403 53.90625 66.8962778 53.90625 65.9435996 53.90625 65.2258284 53.7322972 64.7299138 53.409242 64.2339991 53.0613364 63.9207898 52.5394781 63.790286 51.8188165L65.27803 51.8188165C65.3563323 52.1791473 65.5129369 52.4276513 65.7608942 52.5767537 65.9958012 52.7134309 66.3742624 52.787982 66.8962778 52.787982 68.018611 52.787982 68.5797776 52.2164229 68.5797776 51.0733045L68.5797776 50.1289894C68.0838629 50.7875249 67.4182932 51.1230053 66.5830685 51.1230053 65.6695415 51.1230053 64.9256695 50.8248005 64.364503 50.2532414 63.790286 49.669257 63.5162279 48.8864694 63.5162279 47.9173039 63.5162279 46.9481383 63.790286 46.1653507 64.364503 45.5689412 64.9256695 44.9725316 65.6695415 44.6743268 66.5830685 44.6743268zM66.8179755 45.8174451C66.2568089 45.8174451 65.8261462 46.0038231 65.5129369 46.3765791 65.1997276 46.7369099 65.043123 47.2463431 65.043123 47.9173039 65.043123 48.5261386 65.1605765 48.9982962 65.4085338 49.3462018 65.6956423 49.7562334 66.1524058 49.9674618 66.8049251 49.9674618 67.3791421 49.9674618 67.8228552 49.7810838 68.1360645 49.4331782 68.4362233 49.0604222 68.592828 48.5634142 68.592828 47.9173039 68.592828 47.2587683 68.4362233 46.7493351 68.1360645 46.3765791 67.8228552 46.0038231 67.3791421 45.8174451 66.8179755 45.8174451zM72.651498 42.2265625C72.3643895 42.2265625 72.1294825 42.3135389 71.9467771 42.4874917 71.7379709 42.6614445 71.6466182 42.8850981 71.6466182 43.1584525 71.6466182 43.4318068 71.7379709 43.6554604 71.9467771 43.8418384 72.1294825 44.0157912 72.3643895 44.1027676 72.651498 44.1027676 72.9386064 44.1027676 73.1735134 44.0157912 73.3823196 43.8418384 73.565025 43.6678856 73.6694281 43.4318068 73.6694281 43.1584525 73.6694281 42.8850981 73.565025 42.6614445 73.3823196 42.4874917 73.1865638 42.3135389 72.9386064 42.2265625 72.651498 42.2265625zM71.907626 44.8482796L71.907626 51.7939661C71.907626 52.3158245 71.6596686 52.5767537 71.163754 52.5767537L70.6547889 52.5767537 70.6547889 53.7322972 71.2942578 53.7322972C72.6906491 53.7322972 73.39537 53.098612 73.39537 51.8560921L73.39537 44.8482796 71.907626 44.8482796zM76.2403541 42.2265625C75.9532456 42.2265625 75.7183386 42.3135389 75.5225828 42.4874917 75.3268271 42.6614445 75.2354744 42.8850981 75.2354744 43.1584525 75.2354744 43.4318068 75.3268271 43.6554604 75.5225828 43.8418384 75.7183386 44.0157912 75.9532456 44.1027676 76.2403541 44.1027676 76.5274626 44.1027676 76.7623695 44.0157912 76.9581253 43.8418384 77.1538811 43.6678856 77.2582842 43.4318068 77.2582842 43.1584525 77.2582842 42.8850981 77.1538811 42.6614445 76.9711757 42.4874917 76.7754199 42.3135389 76.5274626 42.2265625 76.2403541 42.2265625zM75.4964821 44.8482796L75.4964821 51.2721077 76.9842261 51.2721077 76.9842261 44.8482796 75.4964821 44.8482796zM81.8911711 44.6743268C82.8830005 44.6743268 83.6268724 44.9104056 84.0966863 45.3825632 84.5142987 45.7925947 84.7231049 46.3890043 84.7231049 47.1717919L84.7231049 51.2721077 83.339764 51.2721077 83.339764 50.4271941C83.0787562 50.7502493 82.7524966 50.9863281 82.3740354 51.1602809 81.9433727 51.3466589 81.4344076 51.4460605 80.8471403 51.4460605 80.1424194 51.4460605 79.5943032 51.2721077 79.1897413 50.9366273 78.7721289 50.5887217 78.5633227 50.1538398 78.5633227 49.6195562 78.5633227 48.8988946 78.8504312 48.3397606 79.450749 47.9545795 79.9988652 47.5818235 80.7688379 47.3830203 81.7606673 47.3581699L83.2353609 47.3208943 83.2353609 47.0723903C83.2353609 46.2274767 82.7524966 45.8174451 81.786768 45.8174451 81.3691557 45.8174451 81.0428961 45.8795711 80.7949387 46.0286735 80.5078302 46.1902011 80.3120744 46.4387051 80.2337721 46.7741855L78.7590785 46.6623587C78.9026328 45.9541223 79.2680436 45.432264 79.8553109 45.1092088 80.3512256 44.811004 81.0298457 44.6743268 81.8911711 44.6743268zM83.2353609 48.3397606L81.8650704 48.3770362C80.6774852 48.4018866 80.0902179 48.799493 80.0902179 49.5698554 80.0902179 49.793509 80.1815706 49.979887 80.3903768 50.1289894 80.5991829 50.2780918 80.8601906 50.3650682 81.1864503 50.3650682 81.7606673 50.3650682 82.2435315 50.2035406 82.6350431 49.8929106 83.0265547 49.5698554 83.2353609 49.1598238 83.2353609 48.6628158L83.2353609 48.3397606zM87.2940309 49.3959026C87.0069224 49.3959026 86.758965 49.482879 86.5762596 49.6816822 86.3674535 49.8680602 86.2761008 50.104139 86.2761008 50.3774934 86.2761008 50.6508477 86.3674535 50.8745013 86.5762596 51.0733045 86.758965 51.2472573 87.0069224 51.3466589 87.2940309 51.3466589 87.5811394 51.3466589 87.8160463 51.2472573 88.0248525 51.0733045 88.2206083 50.8745013 88.3250113 50.6508477 88.3250113 50.3774934 88.3250113 50.104139 88.2206083 49.8680602 88.0248525 49.6816822 87.8160463 49.482879 87.5811394 49.3959026 87.2940309 49.3959026zM92.9056968 44.6743268C91.8486155 44.6743268 91.0264412 45.0098072 90.4391739 45.680768 89.8910576 46.2896027 89.6169995 47.0848155 89.6169995 48.0539811 89.6169995 49.047997 89.8910576 49.855635 90.4522242 50.4768949 91.0264412 51.1230053 91.8355651 51.4460605 92.879596 51.4460605 93.7539719 51.4460605 94.4586927 51.2348321 94.9807081 50.8248005 95.5157739 50.4023438 95.8681344 49.7562334 96.024739 48.8864694L94.5500454 48.8864694C94.4325919 49.8183594 93.8844757 50.290517 92.8926464 50.290517 92.3184294 50.290517 91.8877667 50.0917138 91.6006582 49.7065326 91.2874489 49.3089262 91.1438947 48.7497922 91.1438947 48.0415559 91.1438947 47.3457447 91.3004993 46.7990359 91.6137086 46.4138547 91.9269178 46.0162483 92.3575806 45.8298703 92.9056968 45.8298703 93.3494099 45.8298703 93.7148207 45.9292719 93.9888788 46.1280751 94.2498865 46.3268783 94.4325919 46.6250831 94.5239446 47.0351147L95.9986382 47.0351147C95.8681344 46.2274767 95.5288243 45.6310672 94.9937585 45.2334608 94.4717431 44.8607048 93.7800726 44.6743268 92.9056968 44.6743268zM100.331366 44.6743268C101.349296 44.6743268 102.171471 44.9849568 102.797889 45.6310672 103.411257 46.2647523 103.724467 47.0723903 103.724467 48.0664062 103.724467 49.047997 103.411257 49.855635 102.81094 50.4768949 102.184521 51.1230053 101.349296 51.4460605 100.331366 51.4460605 99.3003858 51.4460605 98.4782115 51.1230053 97.851793 50.4768949 97.2384249 49.855635 96.938266 49.047997 96.938266 48.0664062 96.938266 47.0723903 97.2384249 46.2647523 97.8648434 45.6310672 98.4782115 44.9849568 99.3003858 44.6743268 100.331366 44.6743268zM100.331366 45.8298703C99.7049478 45.8298703 99.2351339 46.0535239 98.8958239 46.5256815 98.6087154 46.9232879 98.4651611 47.4451463 98.4651611 48.0664062 98.4651611 48.6876662 98.6087154 49.1970994 98.8958239 49.5947058 99.2351339 50.0544382 99.7049478 50.290517 100.331366 50.290517 100.944734 50.290517 101.427599 50.0544382 101.766909 49.5947058 102.054017 49.1846742 102.210622 48.675241 102.210622 48.0664062 102.210622 47.4451463 102.054017 46.9232879 101.766909 46.5256815 101.427599 46.0535239 100.944734 45.8298703 100.331366 45.8298703zM108.344303 44.6743268C107.691784 44.6743268 107.078416 44.9476812 106.517249 45.5068152L106.517249 44.8482796 105.029505 44.8482796 105.029505 51.2721077 106.517249 51.2721077 106.517249 47.4202959C106.517249 46.9978391 106.647753 46.6250831 106.908761 46.3268783 107.169768 46.0038231 107.509079 45.8547207 107.939741 45.8547207 108.827167 45.8547207 109.270881 46.3393035 109.270881 47.3208943L109.270881 51.2721077 110.758625 51.2721077 110.758625 47.3457447C110.758625 46.8735871 110.876078 46.5132563 111.137086 46.2523271 111.385043 45.9789727 111.685202 45.8547207 112.050613 45.8547207 112.572628 45.8547207 112.938039 45.9665475 113.172946 46.2026263 113.394803 46.4262799 113.512256 46.7990359 113.512256 47.3084691L113.512256 51.2721077 115 51.2721077 115 47.0599651C115 46.3517287 114.765093 45.7801695 114.32138 45.3328624 113.851566 44.8855552 113.277349 44.6743268 112.585679 44.6743268 112.128915 44.6743268 111.750454 44.748878 111.450295 44.8979804 111.110985 45.0470828 110.784725 45.3204372 110.471516 45.7180436 110.040853 45.0222324 109.336133 44.6743268 108.344303 44.6743268z"/>
  </g>
</svg>
