<svg xmlns="http://www.w3.org/2000/svg" width="280" height="100" viewBox="0 0 280 100" xmlns:xlink="http://www.w3.org/1999/xlink">
  <defs>
    <path id="a" d="M0,36.039073 C0,39.904248 3.14382745,43.0375914 7.00371426,43.0375914 L10.4782731,43.0375914 L10.4782731,51.7268862 L20.3023904,43.0375914 L37.1095225,43.0375914 C40.9740354,43.0375914 44.1068421,39.9077667 44.1068421,36.039073 L44.1068421,7.10542736e-15 L35.3208897,8.92269766 L10.118505,8.92269766 L0,7.10542736e-15 L0,36.039073 Z"/>
    <mask id="b" width="44.107" height="51.727" x="0" y="0" fill="white">
      <use xlink:href="#a"/>
    </mask>
  </defs>
  <g fill="none" fill-rule="evenodd" transform="translate(65 24)">
    <use stroke="#5A6978" stroke-width="6" mask="url(#b)" xlink:href="#a"/>
    <path fill="#5A6978" d="M21.2316176,29.9590926 L21.2316176,28.0630008 C20.3155307,27.9348848 19.2365737,27.6818865 19.2365737,27.6818865 C18.9678465,27.6220426 18.75,27.3503328 18.75,27.0736919 L18.75,26.9704258 C18.75,26.6943731 18.970181,26.4705882 19.2473991,26.4705882 L24.870248,26.4705882 C25.1449539,26.4705882 25.3676471,26.6937848 25.3676471,26.9704258 L25.3676471,27.0736919 C25.3676471,27.3497445 25.1560696,27.6214443 24.8810733,27.6818865 C24.8810733,27.6818865 23.8021164,27.9348848 22.8860294,28.0630008 L22.8860294,29.9750692 C23.7993653,29.7935308 24.5784053,29.3084987 24.9727179,28.5729339 C25.1885643,28.1702862 25.6899528,28.0188538 26.0926005,28.2347002 C26.4952482,28.4505466 26.6466806,28.9519351 26.4308342,29.3545828 C25.5964334,30.9111043 23.8690361,31.7095588 22.0588235,31.7095588 C20.3106054,31.7095588 18.7069211,30.8459741 17.7365048,29.431794 C17.4780159,29.0551001 17.5738399,28.5401826 17.9505339,28.2816937 C18.3272278,28.0232047 18.8421452,28.1190288 19.1006342,28.4957227 C19.608571,29.2359352 20.3678967,29.7550942 21.2316176,29.9590926 Z M12.1323529,26.4705882 C10.3049402,26.4705882 8.82352941,24.9891775 8.82352941,23.1617647 C8.82352941,21.3343519 10.3049402,19.8529412 12.1323529,19.8529412 C13.9597657,19.8529412 15.4411765,21.3343519 15.4411765,23.1617647 C15.4411765,24.9891775 13.9597657,26.4705882 12.1323529,26.4705882 Z M33.0882353,26.4705882 C31.2608225,26.4705882 29.7794118,24.9891775 29.7794118,23.1617647 C29.7794118,21.3343519 31.2608225,19.8529412 33.0882353,19.8529412 C34.9156481,19.8529412 36.3970588,21.3343519 36.3970588,23.1617647 C36.3970588,24.9891775 34.9156481,26.4705882 33.0882353,26.4705882 Z"/>
    <g transform="translate(54.044 8.824)">
      <path fill="#FFFFFF" d="M34.8643322,11.1120321 C34.6712271,10.1622863 35.225492,9.30771237 35.8724632,8.55994784 C36.6069135,7.71119269 37.6349665,7.31314763 38.7567119,7.31709257 C41.0461613,7.32508109 42.7494904,9.00138731 42.7631991,11.2987267 C42.7774009,13.6760498 41.0568127,15.227104 38.8083907,15.2775007 C36.647152,15.3260235 34.7670893,13.6249627 34.8643322,11.1120321"/>
      <path fill="#5A6978" d="M81.9944584 20.1827518C79.9417058 20.1827518 77.8886572 20.1925156 75.8360031 20.1759468 75.3321349 20.1719032 75.011608 20.3448891 74.7835901 20.8052643 74.3525061 21.6755194 74.3333731 21.6584575 75.3047175 21.6577672 79.5254153 21.6547098 83.7461131 21.6550057 87.9668109 21.6576685 88.7606327 21.6581617 88.7606327 21.6657557 88.8312473 20.8837687 88.8848985 20.2886736 88.798307 20.1854147 88.2023242 20.1846257 86.1331014 20.1813711 84.0637799 20.1833436 81.9944584 20.1827518M78.1509961 13.5359122L79.0853566 13.5359122C83.3253846 13.5360108 87.5654127 13.5282195 91.8054407 13.5499167 92.1919468 13.5519878 92.5985721 13.6971618 92.9584499 13.8590032 93.4190223 14.0661129 93.5436826 14.5186969 93.4715887 14.977001 93.3903228 15.4937889 93.1869609 15.97882 92.5662236 16.046969 92.0167912 16.1073266 91.4627235 16.1292211 90.9100366 16.1555536 90.6811311 16.1664022 90.4506476 16.1387876 90.2208545 16.1385903 86.0466084 16.1358289 81.8722637 16.1402669 77.6980177 16.1243885 77.2477021 16.1227119 76.9879274 16.2640396 76.8666203 16.7004493 76.7888062 16.9804418 76.6602996 17.2463312 76.5214375 17.6036447 76.8900927 17.6272157 77.2083512 17.666468 77.5263139 17.66489 79.7772015 17.6530551 82.0278919 17.6247502 84.2787795 17.6172548 87.1218035 17.6078855 89.9650248 17.6070965 92.8081474 17.6207066 93.1435665 17.6222846 93.4954556 17.6929977 93.8098678 17.8111489 94.4398757 18.0478456 94.6819968 18.4977667 94.5865291 19.1190957 94.4922449 19.7328307 94.0619499 20.1356097 93.4103434 20.1690431 92.8692941 20.1969536 92.3258778 20.1874858 91.7837435 20.1810752 91.496157 20.1776234 91.3507857 20.2906461 91.3654806 20.5870102 91.3702146 20.685338 91.3635082 20.7841588 91.3626205 20.8827825 91.355421 21.7114184 91.3594646 21.6988932 92.1783368 21.6687144 92.6189872 21.6525401 93.0669359 21.6732511 93.5031483 21.7355812 94.3119609 21.8511681 94.6433363 22.2795893 94.6069442 23.0845555 94.5801186 23.6767906 94.0178651 24.212317 93.3546211 24.2423972 92.8460189 24.2653765 92.3355429 24.2596564 91.8264476 24.2481174 91.4889574 24.2405234 91.354632 24.3839222 91.3579852 24.718355 91.3672559 25.6221421 91.3768223 26.5264224 91.3545334 27.4297164 91.3326389 28.3206825 91.1822379 29.202871 90.371157 29.7268585 89.8897749 30.0379175 89.3243655 30.2663299 88.7651694 30.3953296 88.263964 30.5110152 87.719167 30.4600267 87.1945878 30.4458249 86.615371 30.4300451 86.241686 30.0688853 86.1398078 29.4847374 86.0328011 28.8715942 86.2965208 28.3189072 86.8508843 28.1320154 87.1861061 28.0189927 87.5543668 27.9640593 87.9089189 27.9585364 88.3447368 27.9516328 88.6609242 27.749257 88.6902154 27.361962 88.7603369 26.4362804 88.7510662 25.5040896 88.746924 24.5745617 88.7465295 24.4876742 88.563484 24.3446699 88.4492779 24.3261287 88.1268771 24.2735623 87.7958962 24.2540348 87.468367 24.2537389 82.8831562 24.2496954 78.2979453 24.2624178 73.7128331 24.2405234 72.9207866 24.236677 72.3458107 24.3622249 71.817681 25.0923358 71.0108409 26.207868 70.0054714 27.1823683 69.0585857 28.1924717 68.6797723 28.5964342 68.2467158 28.9541422 67.8126731 29.3005085 67.1962753 29.7925419 66.4441713 29.7640396 65.9887273 29.2659902 65.492749 28.7234615 65.5387076 27.9703713 66.1280825 27.3772486 66.7371822 26.7644012 67.4137405 26.2118129 67.9729366 25.5577409 69.1595764 24.1695143 70.2936497 22.7361182 71.4385717 21.3123871 71.6913441 20.9980736 71.8991442 20.6473678 72.194522 20.2156921 71.9063437 20.2004055 71.736711 20.1836394 71.5670783 20.1834422 70.0222374 20.1815683 68.4771993 20.1679583 66.9327529 20.1887679 66.110922 20.1997151 65.7620902 19.6516635 65.6247074 19.0404927 65.5140517 18.5478675 65.9713696 17.9069124 66.5368776 17.7457614 66.8476407 17.6571973 67.1826652 17.6207066 67.5071371 17.6188327 69.3806906 17.6073924 71.2542441 17.6144933 73.127699 17.6124222 73.6435993 17.6119291 74.3122677 16.8563733 74.2006257 16.3672 74.1765615 16.262363 73.9637317 16.1285307 73.8389728 16.129517 72.2135564 16.1427325 70.5883372 16.1972714 68.9630194 16.196581 68.4315366 16.1963838 67.8875285 16.1129482 67.3745869 15.9741847 67.1687593 15.9184623 66.9403469 15.6364973 66.8779182 15.4139037 66.5998981 14.4237223 66.9987321 13.5457745 68.143161 13.540153 70.3123882 13.5295016 72.48201 13.5207241 74.6509413 13.5471553 75.1817338 13.5535658 75.4692217 13.4379789 75.6494072 12.8814456 75.9782184 11.8661151 76.0244729 11.8867274 74.9718627 11.8881082 72.4738242 11.8914614 69.9757857 11.8942228 67.4778458 11.885544 66.5615335 11.8824866 66.0612157 11.441343 66.0153557 10.6428859 65.9700874 9.85202288 66.4382539 9.33326247 67.255844 9.32290699 68.537557 9.30673271 69.8195658 9.31876479 71.1013774 9.31846892 72.6955302 9.31807443 74.2896829 9.31314325 75.883737 9.31965241 76.2996329 9.32132901 76.6348547 9.29026256 76.7580356 8.77317875 76.8635629 8.33025993 77.1481908 7.99592575 77.6454513 7.88240992 78.3721103 7.71682081 79.0273659 8.06624441 79.1193817 8.79960989 79.1813174 9.29401026 79.4300462 9.32182213 79.8106349 9.32132901 84.0015484 9.31600333 88.1922646 9.31866617 92.3829808 9.32054002 92.6457143 9.32063864 92.9108146 9.31304462 93.1705893 9.34371658 93.8349183 9.42192513 94.1785231 9.83397475 94.2088991 10.5570834 94.2334564 11.1457679 93.8229848 11.7121636 93.2579699 11.8143377 92.9370485 11.8723284 92.6045882 11.886333 92.2772563 11.8865302 87.9714463 11.889982 83.6656362 11.8846564 79.3599248 11.8887985 78.5461811 11.8895875 78.4474588 11.7775511 78.3318719 12.7367647 78.3031724 12.9750394 78.2269363 13.2074954 78.1509961 13.5359122M4.76270053 12.7637383C5.38905935 12.6606766 5.98267511 12.5597846 6.57757298 12.466388 6.91861357 12.4129339 7.03222802 12.2145032 7.02867757 11.8816483 7.01723722 10.8134556 7.02206978 9.74506553 7.02611335 8.67677413 7.02867757 8.02605527 7.37238099 7.49960222 7.86875384 7.36705203 8.52006443 7.19337578 9.1245288 7.44881104 9.44406943 8.05297953 9.50827343 8.17448387 9.53204173 8.33030924 9.53243622 8.47035483 9.53529631 9.4380501 9.52622293 10.4059426 9.52336285 11.3736379 9.5231656 11.4699932 9.53914263 11.5662499 9.55600728 11.7570867 9.95809591 11.6215778 10.337008 11.5350848 10.6777527 11.3698902 11.2598295 11.0879252 11.8422022 10.7927446 12.3797011 10.435727 12.9157206 10.0794983 13.7687166 9.99290677 14.2203143 10.340851 14.7634347 10.7594098 14.8570286 11.8032425 14.3029609 12.2003014 13.6158499 12.6927292 12.8702551 13.1213476 12.1046397 13.4812253 11.4130906 13.8063875 10.6515188 13.9798665 9.94123126 14.2701159 9.76242658 14.3431961 9.54920224 14.6037598 9.54348207 14.784241 9.50738582 15.9294589 9.52513807 17.0763533 9.52513807 18.3304517 10.3877992 18.0574614 11.1259972 17.8033083 11.8765232 17.5942261 12.2988297 17.4764695 12.8048676 17.2669929 13.1582362 17.4013183 13.5380359 17.5456047 13.8749343 18.0010487 14.0621219 18.3997841 14.26075 18.8229782 13.9471268 19.448548 13.5129854 19.6522059 12.9984659 19.8934393 12.4532743 20.0721454 11.9147892 20.2589386 11.2951368 20.4739382 10.6738077 20.6876556 10.0425178 20.8637974 9.69092443 20.961928 9.57947971 21.1512854 9.58105768 21.4994269 9.58953932 23.3401387 9.58125493 25.1808506 9.57898659 27.021661 9.57809897 27.7432903 9.585693 28.4650182 9.57415403 29.1864502 9.56596827 29.6988001 9.21664329 30.3451795 8.87047427 30.391434 8.34757167 30.4613582 7.75504076 30.6331606 7.36961953 30.0978314 7.20028272 29.862614 7.08962698 29.5307454 7.08459718 29.2402987 7.04642982 27.0556862 7.04100552 24.8704819 7.02601473 22.6853763 7.01980144 21.787408 6.99840011 21.7985524 6.15161743 22.0958041 4.96418866 22.512489 3.76058561 22.8846947 2.55629219 23.2510816 2.06563952 23.4003978 1.36915929 22.9974215 1.19439818 22.5163354.959673884 21.8701532 1.2145174 21.1140057 1.81700929 20.8839167 2.78933988 20.5123028 3.78050758 20.1881268 4.7708863 19.8663178 5.37830937 19.6689719 5.99963838 19.5148231 6.61386649 19.3380896 6.90559525 19.2542594 7.02818445 19.0606612 7.02877619 18.7522651 7.03065004 17.569373 7.04712019 16.3863823 7.05856053 15.2034902 7.06201236 14.8441056 6.85460682 14.8613647 6.59384588 14.9255687 5.44271062 15.2091117 4.28240335 15.3881137 3.08895853 15.265919 2.2923753 15.1843572 1.81839002 14.6934087 1.88663759 13.8911052 1.94078198 13.2548841 2.05350881 12.6220161 2.1714627 11.9933889 2.54278075 10.0134205 2.92918822 8.03621351 3.30780442 6.05772442 3.3164833 6.0121603 3.30247874 5.96235535 3.29034803 5.79055295 2.96222714 5.79055295 2.62947094 5.79775248 2.29710923 5.78897497 1.67114491 5.7724062 1.21146007 5.31222824 1.16836153 4.67038551 1.12033181 3.95694201 1.51393881 3.39754865 2.15785263 3.30859012 2.49751249 3.26174389 2.84575261 3.24359713 3.18817393 3.25760169 3.58523275 3.27387459 3.86917025 3.19694815 3.90595687 2.73243074 3.91749584 2.58784847 3.98939248 2.44908499 4.02006443 2.30469996 4.19778426 1.46985075 4.6428728 1.13847528 5.43452485 1.25702091 6.20300035 1.37221333 6.57905234 1.8595128 6.52737354 2.67207307 6.51721531 2.83144889 6.50962129 2.99102196 6.49857544 3.19053761 7.06289997 3.22298479 7.58313974 3.27505808 8.103774 3.27870715 9.82949066 3.29083786 11.5552073 3.28778053 13.280924 3.28570943 13.828088 3.28511769 14.3070045 3.41835824 14.523582 3.97666674 14.7436114 4.54375274 14.694694 5.10038463 14.1998992 5.50148703 13.9951565 5.66747063 13.6811388 5.77437867 13.4152494 5.777436 11.3774875 5.80080981 9.33942974 5.79213093 7.30147059 5.79331441 7.21931709 5.79331441 7.13706496 5.79301854 7.05491146 5.79331441 6.01206496 5.79637175 6.02823924 5.7995277 5.8333589 6.80085364 5.59616902 8.01984198 5.30947006 9.2295597 5.08076181 10.450126 4.9426887 11.1865488 4.87394801 11.9357927 4.76270053 12.7637383M41.3515429 17.8971684C41.3514443 21.6934886 41.3546002 25.4899075 41.3493732 29.2862278 41.3478938 30.3170422 40.5801087 30.8534562 39.624051 30.4877597 39.1283685 30.2981064 38.9487749 29.8487771 38.8636627 29.3679868 38.8269747 29.1604826 38.8521237 28.9417353 38.8521237 28.7281165 38.851532 21.3161546 38.8513347 13.9041926 38.8510388 6.49213202 38.8510388 5.79269308 38.8510388 5.79210134 38.1378912 5.79131235 37.1353818 5.79003024 36.1327737 5.79515867 35.1303629 5.78756465 34.3305251 5.78135136 33.8880994 5.39188656 33.8605834 4.60102349 33.8274459 3.6511791 33.8383931 2.69896774 33.8640352 1.74882747 33.8683747 1.58925441 34.026567 1.31971596 34.1444223 1.30156921 34.3761879 1.26596607 34.6986872 1.29180547 34.861219 1.43313316 35.3790918 1.88325151 35.8617559 2.37972298 36.3161151 2.89522881 36.5703669 3.18370299 36.8411874 3.3109275 37.2143793 3.29455597 37.6080849 3.27719821 38.0035658 3.27640922 38.39737 3.29169589 38.7423556 3.30501008 38.8259884 3.14780398 38.8628737 2.82214868 38.9090295 2.41503024 38.9866464 1.97842334 39.1836964 1.62959148 39.4530376 1.15254887 40.0059218 1.06408346 40.6308013 1.27089726 41.0882178 1.42238319 41.3533181 1.8277264 41.3496691 2.37055098 41.3489787 2.48554616 41.3573617 2.60182344 41.3442448 2.71543789 41.2955247 3.13902647 41.4686092 3.33607653 41.903145 3.29199176 42.0333282 3.27877619 42.1712041 3.26565924 42.2965547 3.29337249 43.5043986 3.56064259 44.1501863 2.7988735 44.7914373 1.97871921 45.0046616 1.70612343 45.3030968 1.48086701 45.6024196 1.29989261 45.9427698 1.09416367 46.2627049 1.29131235 46.2686223 1.69635969 46.2843035 2.7642566 46.2928838 3.83294249 46.2716797 4.90064215 46.2596476 5.51023494 45.9497721 5.77277111 45.2636473 5.78302797 44.1627115 5.79920224 43.0610853 5.80886736 41.9606426 5.78292934 41.4834027 5.77178487 41.3414833 5.9412203 41.3433571 6.4094854 41.3580521 10.2386473 41.3515429 14.0679079 41.3515429 17.8971684M23.4901683 13.6261134C22.9390593 14.1143991 22.3200973 14.6730034 21.690188 15.218984 20.3187275 16.4073003 18.7571206 17.308326 17.1748028 18.1747348 16.9623674 18.2911107 16.7196546 18.3641908 16.4821688 18.420505 15.8435807 18.5721881 15.4069738 18.3707 15.1328 17.823536 14.8146401 17.1882024 14.8765758 16.7191483 15.4299531 16.3022662 15.8166564 16.0108333 16.2745661 15.8148681 16.6967739 15.5694924 18.5603664 14.4861116 20.2422942 13.1831945 21.6893991 11.5711909 22.9540501 10.1623521 24.041869 8.6434492 24.8519637 6.93124397 25.0086767 6.60006575 25.1274196 6.2508394 25.2979399 5.82419348 24.8704063 5.8430306 24.5660537 5.86739064 24.2616025 5.868081 22.5692207 5.87192733 20.8767402 5.87784474 19.1843583 5.86630578 18.5120409 5.86167047 17.8393289 5.8263632 17.168195 5.78336329 16.5052468 5.74085649 16.1806763 5.42003375 16.1644034 4.7472232 16.1406351 3.76374814 16.1471443 2.77928684 16.1647979 1.79561453 16.1678553 1.62262865 16.2705225 1.31738845 16.3581989 1.30575085 16.5946984 1.27428991 16.9100969 1.29056281 17.0818993 1.42814281 17.4825085 1.7487683 17.8666477 2.11584553 18.1669567 2.529769 18.5990269 3.12525861 19.1449088 3.30564127 19.8508569 3.29873762 22.3317349 3.27467345 24.8141908 3.33296002 27.2934908 3.26569869 28.3413671 3.23729508 29.050274 4.18151793 28.5569584 5.19201587 27.7749715 6.7937626 27.0698124 8.43298632 26.3055777 10.0436092 26.1182914 10.4383997 25.8350443 10.7893026 25.5823705 11.1508569 25.3658916 11.4607324 25.417669 11.7083764 25.6751753 11.9730823 26.9333173 13.2665315 28.1804133 14.5706321 29.4328351 15.8695056 29.6490181 16.0937758 29.8761484 16.3073946 30.0918383 16.531862 30.5529039 17.0118633 30.5435347 17.7813251 30.0751709 18.2751337 29.6298852 18.7444837 28.8625931 18.8198321 28.390679 18.3680372 27.4603621 17.4774656 26.5778776 16.5371877 25.6556478 15.63774 24.9664658 14.965817 24.2461186 14.3260454 23.4901683 13.6261134M51.3241891 28.0242001C51.5667047 28.0420509 51.7258832 28.0637481 51.8851604 28.0638468 53.8081244 28.0657206 55.7310884 28.0661151 57.6540523 28.0631564 58.6383164 28.0615784 59.2716775 27.425949 59.2761155 26.4363593 59.2817371 25.1871921 59.2769045 23.9381235 59.2863724 22.689055 59.2914022 22.0245288 59.6049268 21.5865412 60.1980494 21.3736127 60.5952069 21.2311015 61.2623959 21.4694749 61.5673402 21.9117033 61.6894363 22.0887328 61.7711953 22.3325305 61.7735623 22.5469383 61.788849 23.9930569 61.8879657 25.4499255 61.749005 26.8830258 61.5551109 28.8831134 60.2356251 30.4866354 58.0830652 30.5368348 55.1919129 30.6041948 52.297999 30.5733256 49.4054659 30.5510366 48.0560971 30.5406812 47.6535154 29.6469536 48.3026563 28.3252981 49.1822806 26.5345884 50.032811 24.7290852 50.8680547 22.9171715 51.3339528 21.9066735 51.7885092 20.8866091 52.1664351 19.841297 52.5829228 18.6892741 52.9251468 17.5088476 53.2644122 16.3306895 53.6135399 15.1182103 53.9081288 13.8901486 54.250057 12.6754997 54.4192952 12.0742899 55.1376699 11.7093824 55.7570264 11.8649119 56.2901859 11.9988428 56.7455313 12.7871417 56.616926 13.3602437 55.9738998 16.2240773 55.1967454 19.0486587 54.1354563 21.7889169 53.3624441 23.7851582 52.4981064 25.7402735 51.4755764 27.6231963 51.4237004 27.718664 51.3972692 27.8280376 51.3241891 28.0242001M23.967921 27.7126282C25.5181862 27.1250285 26.8126216 26.3819979 27.5496362 24.911322 27.6806084 24.6499693 27.8380117 24.3918712 28.0295389 24.1730253 28.4659485 23.6743842 28.9746493 23.5738866 29.5259556 23.8335627 30.014833 24.0639476 30.3680043 24.6608179 30.2118831 25.2288902 30.0676953 25.7540611 29.8410581 26.2853467 29.531084 26.7307311 28.4214693 28.3251797 26.9159792 29.3852854 25.0672789 30.0204217 22.551784 30.884858 20.285018 30.3768475 18.0858092 29.0339879 16.7664219 28.2283313 15.9048457 27.044453 15.1179276 25.7815771 14.6975936 25.1070899 14.9644692 24.2942338 15.6796879 23.87962 16.3100903 23.5142193 17.0763961 23.7566363 17.4612256 24.4888183 18.060956 25.6300912 18.8209499 26.6088323 20.0105483 27.184893 20.362832 27.3556106 20.7174827 27.5260323 21.0853489 27.6559196 21.1575414 27.6814631 21.3888139 27.5208052 21.3898987 27.4437801 21.4063689 26.2279478 21.4036074 25.0117209 21.3831923 23.7958885 21.3813185 23.6833589 21.2537981 23.5285198 21.1437341 23.4695428 20.5525839 23.1524678 19.9102481 22.9156724 19.3598295 22.5419874 18.8320943 22.1836876 18.3373981 21.7391908 17.934126 21.2458753 17.5124112 20.7298764 17.8090712 20.0946414 18.4730056 19.9442404 18.7102941 19.8904905 18.9609954 19.8773735 19.2055821 19.8766832 21.4243184 19.8713575 23.6430547 19.8684974 25.861791 19.8773735 26.1875449 19.8786557 26.5196108 19.9165271 26.8373762 19.9881279 27.500423 20.1375427 27.7162115 20.7267204 27.3064303 21.2638248 26.6285899 22.1522267 25.7614908 22.7983102 24.710064 23.1798852 23.8955313 23.4754602 23.8909946 23.463724 23.8912904 24.317509 23.8914877 25.1556128 23.8871482 25.9939138 23.8958271 26.8320176 23.89849 27.0916937 23.9370518 27.3511725 23.967921 27.7126282"/>
      <path fill="#5A6978" d="M55.3031308 3.28974314C56.5519034 3.28974314 57.8006761 3.28569957 59.0493502 3.29132112 59.733108 3.29447708 60.1990061 3.74587753 60.3227788 4.41326379 60.452962 5.11526694 60.6576061 5.80316692 60.8044567 6.50260586 60.9451926 7.17324669 61.0361237 7.85453888 61.1794238 8.5246866 61.5454162 10.2380753 61.9395163 11.9455466 62.3013665 13.6599215 62.6226823 15.1821776 62.9336427 16.7070965 63.2139311 18.2374397 63.3566396 19.0155803 62.9075075 19.6809941 62.2565913 19.7713334 61.4073431 19.8891887 60.8871033 19.45199 60.6992253 18.593767 60.2442743 16.5143859 59.7317272 14.44753 59.2724369 12.3689379 59.0685818 11.4468068 58.9515155 10.5059371 58.7695549 9.57857894 58.5552457 8.48701236 58.3057278 7.40234943 58.0872765 6.31137459 58.0096596 5.92368502 57.8239513 5.778511 57.4138742 5.78275182 55.4916992 5.80257517 53.5690311 5.79419216 51.6466588 5.78896511 50.5280694 5.7860064 49.9633504 4.83369641 50.4983837 3.857914 50.7036195 3.48353862 51.0129033 3.28767204 51.4583863 3.29112387 52.739902 3.30138073 54.0215164 3.29477295 55.3031308 3.29477295L55.3031308 3.28974314zM45.5937604 18.6925188C45.5932673 21.9962139 45.5918866 25.3000077 45.5943522 28.6038014 45.5948453 29.2447565 45.3833962 29.758783 44.7727185 30.0454819 44.1076006 30.357823 43.4339024 30.1326652 43.1447379 29.4522607 43.0135684 29.14347 42.9417704 28.7848744 42.9417704 28.4488636 42.9414745 25.3265374 42.968596 22.2042112 42.9761901 19.0819837 42.9836855 15.9754372 42.9729355 12.8688908 42.9823047 9.76234439 42.9838827 9.22642347 42.9694837 8.67176405 43.0973985 8.15931555 43.2775839 7.43827803 43.7109363 7.24980823 44.6008175 7.3451773 45.0706606 7.39557399 45.5337972 7.92597199 45.5839967 8.48575984 45.6015517 8.68152779 45.593859 8.87985995 45.593859 9.07700864 45.5943522 12.2821787 45.5942535 15.4873488 45.5937604 18.6925188M37.3965372 9.50395043C37.3286841 12.5681873 37.3084663 15.6344953 37.1743381 18.6958721 37.0978062 20.444568 36.8379328 22.1853741 36.6560708 23.9292375 36.5100092 25.3289044 36.3573398 26.7279795 36.2073332 28.1272519 36.1511177 28.6516339 36.0940146 29.1646741 35.6551394 29.553843 35.1939752 29.9626381 34.7309371 30.0414384 34.1714452 29.7422142 33.7053498 29.4929922 33.4978456 29.0092432 33.5568226 28.4654324 33.7136342 27.0186234 33.8358289 25.5680668 33.9931336 24.1213564 34.1345599 22.8202146 34.3457132 21.5256805 34.4502542 20.2220731 34.5613045 18.8365094 34.5982883 17.4443379 34.6404993 16.0541389 34.7167353 13.5454491 34.7474073 11.0348854 34.8547098 8.52767489 34.8825217 7.87725191 35.2662663 7.28708797 36.110682 7.32801679 36.8846805 7.36539515 37.3309525 7.73898155 37.3884501 8.51909463 37.4125142 8.84563755 37.392395 9.17553366 37.392395 9.50395043L37.3965372 9.50395043zM73.0694026 5.78842268C71.3116332 5.78842268 69.5538639 5.78832406 67.7960945 5.78842268 67.0296901 5.78842268 66.6937779 5.57983365 66.6375625 4.82141777 66.5588608 3.7599314 66.5825305 2.68858267 66.6091588 1.62265824 66.6193171 1.21524393 67.1663825 1.06957679 67.5314872 1.39464035 68.0035 1.81487573 68.4063777 2.31243206 68.8750373 2.73700688 69.1112409 2.95092158 69.4245682 3.21641645 69.7070264 3.22144626 72.6298369 3.27233607 75.5534365 3.27588652 78.4767402 3.28989108 79.2151354 3.29344153 79.7524371 3.76308736 79.8006641 4.45927172 79.8548085 5.23879307 79.3098141 5.78112453 78.4412356 5.7851681 76.8807136 5.79236763 75.3198957 5.78635158 73.759275 5.78595709 73.5292846 5.78585846 73.2993929 5.78595709 73.0694026 5.78595709L73.0694026 5.78842268zM88.1746208 5.78581901C86.4331244 5.78591764 84.6917266 5.78897497 82.9502301 5.78384654 82.4680591 5.78256443 82.0128123 5.73680306 81.6878474 5.2783017 81.3974007 4.86852043 81.3404949 4.4297438 81.5594394 4.03081112 81.7902187 3.61027987 82.1036447 3.26904204 82.7106733 3.27545257 85.6510388 3.30622315 88.5918975 3.28393421 91.5326576 3.29616354 91.988003 3.29803739 92.175092 2.9569968 92.4313163 2.70461887 92.8711778 2.27136517 93.2687297 1.79313908 93.7274283 1.38217432 93.8640221 1.25978237 94.165416 1.23285811 94.3535899 1.28877772 94.4729245 1.32418362 94.5883142 1.59165096 94.5930481 1.75822631 94.6196765 2.69396752 94.6335824 3.63118809 94.61011 4.56683067 94.5856514 5.53886539 94.3104914 5.78463553 93.3496011 5.7853259 91.6245748 5.78650938 89.8995485 5.78562177 88.1746208 5.78581901"/>
      <path fill="#5A6978" d="M48.8115444 18.6014103C47.883989 18.6030869 47.3311048 17.7853982 47.6204666 16.9837852 48.4591621 14.6610009 49.1886813 12.3060654 49.6749945 9.8807125 49.7998521 9.25760827 49.8862464 8.61783664 50.0961175 8.02293877 50.3446491 7.31866727 50.9529598 7.0494247 51.5709356 7.25288529 52.267909 7.48238253 52.5898166 8.04276212 52.4268903 8.78914592 52.0184897 10.6601352 51.655752 12.5436497 51.1654938 14.3933363 50.8452628 15.6018706 50.3482982 16.7653338 49.9022234 17.9382649 49.7066527 18.4524886 49.2300046 18.5658072 48.8115444 18.6014103M80.473593 29.4607916C79.0279675 29.368973 77.7012821 28.9757605 76.4539888 28.3142917 75.595174 27.858749 75.3175484 26.9963838 75.7597769 26.3068072 76.0672854 25.827299 76.6907842 25.6192031 77.2223657 25.8225651 77.9038551 26.083326 78.5695647 26.3976396 79.2682147 26.5980429 80.3266437 26.9014092 81.3902012 26.7598843 82.4156899 26.4060226 82.8574253 26.2536491 83.2643465 26.0011725 83.6889213 25.7980078 84.2352963 25.5364579 84.8961734 25.9619203 85.2718309 26.4178575 85.5018213 26.697061 85.3420509 27.6174169 84.9774393 27.8580586 84.3540392 28.2696151 83.7077584 28.6937955 83.0096016 28.932662 82.1988165 29.209893 81.321855 29.29323 80.473593 29.4607916M90.4206167 7.55478215C90.4362979 8.45847068 89.726898 9.01490532 88.8709433 9.02950162 88.0218923 9.04419655 87.3109144 8.29702376 87.3181139 7.44649338 87.3249189 6.63994915 88.1487223 5.84099895 88.9533927 5.86052643 89.8121088 5.88143465 90.4505983 6.61874507 90.4206167 7.55478215M73.832868 7.46367362C73.9223196 8.58956123 73.0646883 9.00170948 72.3274765 9.01314982 71.4206321 9.027253 70.745849 8.32219251 70.7658696 7.45469887 70.7852985 6.61698957 71.5242855 5.86537871 72.3356623 5.85808056 73.1521675 5.85078241 73.8349391 6.58286578 73.832868 7.46367362"/>
    </g>
  </g>
</svg>
