<svg width="281" height="100" viewBox="0 0 281 100" xmlns="http://www.w3.org/2000/svg"><title>6059F1BD-88B6-40CD-A5F2-DB04DFF652E6</title><g fill="none" fill-rule="evenodd"><path fill="none" d="M0 0h280v100H0z"/><path d="M120.952 29.022l.094 3.02s-8.883 1.699-10.017 7.125c-.251 2.866 1.164 4.97 2.906 6.453 2.187 1.863 5.159 2.703 5.741 2.843 1.37.33-3.157.073-6.615-2.218-2.146-1.422-4.256-3.48-4.347-6.842.614-9.013 12.238-10.381 12.238-10.381zm-2.057-3.68l.025 3.255s-2.163.346-5.056 1.51c-3.663 1.474-8.185 4.936-8.08 9.154.082 3.26 2.025 5.567 4.253 7.409 2.74 2.265 7.04 3.105 7.796 3.256 1.654.33-4.3.377-8.883-2.548-2.851-1.724-5.373-4.203-5.48-8.768.236-10.91 15.425-13.269 15.425-13.269zm-13.488-.614C109.619 22.097 115.99 21 115.99 21v4.247s-15.97 2.831-15.924 13.59c.048 10.759 14.553 13.118 14.553 13.118s-6.142-.283-10.725-3.35c-5.716-3.825-7.938-10.193-7.938-10.193s-1.213-3.742-2.544-6.047c-1.331-2.305-4.922-5.467-4.922-5.467h4.772s1.783 1.686 2.977 3.256c.951 1.251 1.37 2.47 1.37 2.407 0-.076 2.874-4.759 7.797-7.833zM91.09 33.929s-23.814 4.813-19.467 21.518c4.347 16.704 19.089 16.42 24.664 16.42 2.72 0 7.951-1.467 12.096-3.49 4.355-2.127 7.53-3.855 7.53-3.855h91.412v3.382h-94.878s-12.852 6.512-24.854 4.813c-12.001-1.698-17.646-10.61-18.522-19.063-.567-5.474 2.3-10.997 6.899-14.44 6.246-4.675 15.12-5.285 15.12-5.285zm36.683-.377h2.314v13.43c-.046 1.203-.677 1.85-1.894 1.939h-5.587V47.05l5.167.134v-8.396h-5.1V36.94h5.1v-3.389zm4.346 0h2.313v3.456h2.144l-.002-2.59 1.778-.002v4.436l-3.92.003v8.195h5.09l.01 1.87h-5.655c-1.172 0-1.758-.623-1.758-1.87V33.552zm18.181 2.605v-2.54h2.53v2.54h6.481v2.071h-6.189l4.261 7.884c.417.446.778.647 1.319.602h.987v2.138h-1.596c-1.218.045-2.03-.356-2.435-1.203L151.6 40.3l-3.923 7.284c-.27.534-.564.868-.88 1.002-.27.134-.924.2-1.961.2h-1.325v-2.004h1.054c.541.044.925-.156 1.386-.602l4.127-7.95h-6.19v-2.072h6.413zm29.136 4.99v5.97c0 .668-.136 1.09-.406 1.27-.271.222-.857.333-1.76.333h-4.342v-1.214h3.977c.225 0 .338-.09.338-.267v-.524h-9.834v2.14h-2.247v-7.709h14.274zm-12.027 4.598h9.834V44.7h-9.834v1.046zm0-2.138h9.834v-1.113h-9.834v1.113zm3.827-9.386v-.602h2.058v.602h6.21v1.47h-6.21v.668h6.142v1.603h-6.142v.735h6.547v1.537h-15.017v-1.537h6.412v-.735h-6.21V36.36h6.21v-.668h-6.21v-1.47h6.21zm18.426 2.672h2.503l.541 1.203c.135.268.316.379.542.334h1.894v1.67h-3.112c-.45 0-.767-.044-.947-.133-.18-.134-.338-.4-.473-.802l-.948-2.272zm4.817-3.407l-.014.723h6.576v4.89c0 .757-.09 1.224-.27 1.402-.181.223-.42.334-1.097.334h-3.396v-1.803h1.908c.27.044.383-.09.338-.401v-2.54h-9.876v5.279c-.045.356.09.512.406.468h11.987v5.546c0 .668-.09 1.09-.27 1.27-.181.222-.42.333-1.097.333h-1.84v-1.603H186.13v-1.682h11.649v1.214h1.054c.27.045.384-.089.339-.4v-2.862h-11.54c-1.037.044-1.533-.324-1.488-1.482v-7.963h5.073l.014-.723h3.247zm-85.623 18.846h-8.623L87.499 62.43h5.174l4.181-3.303h7.844l.472 3.303h5.647l-1.961-10.098zm-10.332 5.191l3.756-3.256 1.993.024.425 3.2-6.174.032zm18.908-5.19h12.096s2.48.754 2.008 3.491c-.661 2.076-3.26 3.209-5.009 3.209h-4.725v-2.076s2.741.22 3.591 0c.85-.22 1.229-2.454-.189-2.454h-3.213l-3.803 7.927h-5.765l5.009-10.098zm16.155 2.114h5.202l-3.875 7.983h5.387l3.783-7.983h6.28l.615-2.115h-17.161l-.23 2.115zm19.848-2.115h14.83l-.252 2.14h-10.647l-.567 1.384h7.938l-.44 2.202h-8.317l-1.07 2.328h9.764v2.044h-15.775l4.536-10.098zm34.336 0l-.905 2.14h-7.89s-3.403.188-4.159 2.58c-.756 2.39.694 3.209 1.575 3.27.882.063 7.796.063 7.796.063l-.906 2.045h-8.679s-7.548-.66-5.834-5.379c1.715-4.719 7.724-4.719 7.724-4.719h11.278zm3.59 0h5.884l-1.732 3.768 7.607.007 1.786-3.775h5.86l-4.474 10.098-5.82-.07 1.797-3.94-7.694.007-2.041 4.003h-6.023l4.85-10.098z" fill="#5A697A"/></g></svg>