<svg xmlns="http://www.w3.org/2000/svg" width="280" height="100" viewBox="0 0 280 100">
  <path fill="#5A6978" fill-rule="evenodd" d="M50.0637585,41.9969765 C49.8493542,39.73565 50.0756927,37.9006627 52.3205582,37.7245303 C58.7407502,37.222059 65.164646,38.1566309 71.5901878,37.7245303 C72.6749661,37.6516905 73.7786745,37.7578638 74.8696257,37.7245303 C78.1079111,37.6253529 79.8856965,39.2829731 80.0457795,43.5871067 C80.1420762,46.1743606 79.7387823,48.7772524 79.6252015,51.3760289 C79.4486576,55.4213137 80.273764,56.5134994 84.1437394,57.8242046 C88.2737981,59.222976 92.5075611,59.2270912 96.7544928,58.7814103 C99.491953,58.4941663 100.906362,56.9999212 101.337228,54.0534066 C101.822827,50.7332278 101.333113,47.4747777 100.1471,44.3607726 C99.9080042,43.7331979 99.0240498,42.9352521 98.4289855,42.9286677 C95.1610704,42.891219 91.8873938,43.0294912 88.6211247,43.2085043 C87.4737947,43.2714675 86.9910766,44.1048044 87.1013652,45.2397887 C87.2737939,47.0118127 87.3951936,48.7916557 87.6482811,50.5525686 C87.9326444,52.5332355 89.5100174,51.9241794 90.7305988,51.9472248 C92.0787527,51.9731508 92.4100298,51.2336415 92.413322,49.968204 C92.4157911,49.0291053 92.5552979,47.7603756 93.156535,47.2151058 C95.0269134,45.5192138 96.5795949,46.1126319 97.2606678,48.5455641 C97.3162236,48.7435074 97.3606682,48.9447428 97.4141664,49.1430976 C98.7203448,53.9896203 98.3174624,54.6032032 93.21456,54.7394177 C90.894797,54.8011464 88.5651574,54.5295403 86.2408677,54.3883874 C85.1137024,54.3200744 84.2688428,53.8550518 84.0276895,52.6406433 C83.2820073,48.8838372 82.3844726,45.1492533 81.8387912,41.364052 C81.4770613,38.8558108 82.5655433,37.6673284 85.2976538,37.6516905 C89.1886169,37.6302912 93.0812261,37.4829655 96.9746583,37.6516905 C98.1960627,37.7043656 99.432282,37.7751478 100.64381,37.6516905 C103.040939,37.4068334 104.050409,38.4574552 104.403908,40.7763952 C104.702263,42.7307245 104.700617,44.7294985 104.856585,46.7064616 C105.14136,50.3192343 105.3249,53.9455872 105.772638,57.5386066 C106.236426,61.2616678 105.434777,62.9052962 101.783321,62.9908933 C94.7281467,63.1567376 87.6758532,62.8427445 80.6206791,62.9908933 C76.8457658,63.0703175 76.2387673,62.4555001 75.9589308,58.6600106 C75.651522,54.4912685 75.4004922,50.3184112 75.1404087,46.1463769 C74.9646878,43.329081 74.1362892,42.6253742 71.272491,42.5755798 C68.1358521,42.5216701 65.0020938,42.2735209 61.8654549,42.2138499 C60.5819104,42.1891584 59.2395178,42.2484179 58.0181134,42.5982136 C55.2571963,43.3891635 55.0143969,43.9315527 55.2267435,46.822923 C55.4814771,50.2924852 55.6695437,53.7665741 55.8905323,57.2381938 C55.9823022,58.6818214 56.5699591,59.392524 58.204534,59.3628943 C61.3905558,59.3048693 64.5856312,60.2760669 67.763011,59.0056911 C68.9012874,58.5501336 69.417339,58.2007494 69.1066381,56.8233773 C68.656842,54.828307 68.4609563,52.7661583 68.2835893,50.7221166 C68.1198026,48.8348658 66.8313198,49.0192287 65.6004503,49.1373362 C64.1218432,49.2793121 64.5000341,50.4488644 64.5325445,51.3521605 C64.549417,51.8204752 64.6802818,52.313893 64.8798711,52.7398207 C65.3461282,53.7344752 65.064234,54.3381815 64.1576458,54.9443569 C61.0000191,57.055477 60.4485765,56.9073282 59.5876674,53.2863251 C59.1609166,51.4924903 58.8839607,49.6595607 58.6107085,47.8336269 C58.4275802,46.6134571 58.9341667,45.8060463 60.2707979,45.8056347 C63.6206065,45.8035771 66.9745302,45.7521366 70.3161083,45.9270344 C70.910761,45.9583103 71.8280489,46.9081086 71.9585021,47.5607863 C72.7222914,51.3846709 73.3490431,55.2390084 73.9140661,59.0986956 C74.2054253,61.0880045 73.5659164,62.4657882 71.3761951,62.9908933 C66.6514836,64.12382 61.8675126,63.3892489 57.0748995,62.9908933 C50.0645815,62.4081748 50.030425,62.0447987 50.0637585,56.1431274 C50.0670507,55.5258409 50.4505914,46.0850598 50.0637585,41.9969765 Z M191.494033,41.5189498 C190.276332,41.7790332 189.322007,42.037059 188.35081,42.1757427 C187.057389,42.3601056 186.422407,41.7140123 186.426933,40.4251179 C186.430637,39.2720266 186.635576,38.5856039 188.16727,38.5662623 C189.741351,38.545686 191.436831,38.165026 192.091978,36.2115197 C192.179221,35.9522593 193.563178,35.8526704 193.570585,35.8810656 C194.212563,38.3460967 196.624919,37.432101 198.08295,38.2823104 C198.646739,38.6107069 199.20312,38.9502145 199.762793,39.2843723 C199.209292,40.0452809 198.788303,41.0037212 198.055378,41.4983736 C197.552907,41.8370581 196.613397,41.4889085 195.873064,41.5247111 C195.211744,41.55681 194.554952,41.6942592 193.896513,41.7847945 C193.888282,42.0350014 193.880463,42.2847967 193.872233,42.534592 C194.742195,42.6687489 195.661129,42.6736872 196.46854,42.9757461 C197.211753,43.2539366 197.835212,43.8518815 198.511347,44.3086736 C197.918752,44.9839851 197.44591,45.9424254 196.70064,46.2580647 C195.890348,46.601276 194.824088,46.2959249 193.875936,46.365061 C192.317493,46.4794648 190.7644,46.6671199 189.20925,46.8243222 L189.16357,47.6848197 C189.71419,47.8539562 190.261929,48.1502538 190.817487,48.1675378 C192.59733,48.2230936 194.38705,48.0823523 196.158251,48.2140401 C196.822862,48.2638345 198.029452,48.9733026 197.987476,49.1774187 C197.817105,50.0119901 197.435622,51.2132298 196.809282,51.4601445 C195.456601,51.9934801 193.904743,52.0218753 192.063583,52.3165267 C194.638903,56.9885631 199.197358,58.9350735 203.569393,61.3252072 C203.272684,63.1429104 201.868151,63.9017614 200.21835,64.3091705 C196.347963,65.2659647 194.687874,62.5606034 193.114616,59.6581219 C190.681684,64.097647 186.258208,63.3005243 182.219508,64.4017635 L182.219508,58.2412434 C181.039256,59.3535938 179.973819,60.6025703 178.668052,61.5029857 C177.789448,62.1087496 176.299318,62.7626619 175.581619,62.4021665 C174.87709,62.047844 174.706719,60.4581253 174.489434,59.373347 C174.366799,58.7564719 174.620299,58.0642879 174.712068,57.3437087 C177.621134,58.7083236 180.570941,57.2313625 182.543378,53.8416361 C181.131849,53.6045981 179.46106,53.6107709 178.142124,52.9325788 C177.733069,52.7222898 178.277104,50.6572604 178.407146,49.1827685 C179.33966,49.5045806 179.758181,49.7156926 180.199335,49.7893555 C181.748724,50.0482043 182.807165,49.1535503 182.842967,47.5926383 C182.863544,46.7020995 182.869305,45.8111492 182.87342,44.9201989 C182.874243,44.7864534 182.832679,44.6522965 182.739263,44.0889196 C182.317451,44.8564126 182.13103,45.4049746 181.77465,45.8008611 C181.012507,46.6457206 180.264767,47.5856423 179.310442,48.1444925 C178.734719,48.4819425 177.481216,48.4835886 177.074218,48.0839984 C176.545821,47.5658892 176.273392,46.4399584 176.427302,45.6856342 C176.547879,45.0967428 177.414549,44.5214317 178.076692,44.2115539 C179.427315,43.5798639 180.890696,43.1905618 182.249549,42.5736868 C182.710868,42.3646324 182.997701,41.7712142 183.642559,41.0366432 C181.421562,41.3123645 179.783284,41.640761 178.139655,41.6724484 C177.148704,41.690967 176.097671,41.4061921 176.146642,39.9070087 C176.21619,37.7831314 176.717427,37.3596728 178.807559,37.9308686 C179.333487,38.0749021 179.906741,38.1123509 180.386578,38.3465082 C181.741728,39.008651 182.652843,38.7008307 183.500583,37.423459 C183.910462,36.8057609 184.814581,36.5164593 185.495242,36.0781858 C185.737218,36.8868312 186.23969,37.7168759 186.175492,38.5004184 C185.92405,41.5547524 185.488658,44.59386 185.135158,47.6403751 C185.105528,47.8963433 185.175076,48.1638341 185.23022,48.7737133 C185.890305,48.5123953 186.48002,48.4160986 186.834754,48.0749448 C186.993602,47.9226808 186.770968,47.2263815 186.565205,46.8667092 C185.601415,45.1806938 185.931046,44.4798678 187.794429,44.0469441 C189.201842,43.7193707 190.945471,43.7897414 191.494033,41.5189498 Z M189.156986,52.5095317 C189.019125,52.2556211 188.880853,52.0012991 188.742993,51.746977 C187.867269,52.0580894 186.602243,52.1078839 186.185368,52.7276396 C184.707996,54.9239453 184.211286,57.4153139 184.960672,60.3416639 C186.66356,59.8087398 188.236406,59.4013307 189.73312,58.8042088 C190.285798,58.5840432 191.017488,57.9206659 191.023249,57.4515281 C191.030245,56.8832129 190.354111,56.3070788 189.963985,55.7194219 C188.20225,56.6860927 187.148336,58.5198454 184.571781,58.0474154 C186.259854,56.0087236 187.70842,54.2589219 189.156986,52.5095317 Z M147.312898,53.9057928 C145.942933,54.2321316 144.83264,53.9666984 144.510005,52.3633994 C144.170498,50.6769724 144.81906,49.8284091 146.590673,49.5712064 C147.06228,49.5028933 147.545821,49.446926 147.991913,49.2921928 C149.179984,48.88108 151.139663,48.6609144 151.364767,47.9271664 C151.833082,46.3979418 151.493574,44.571185 151.268059,42.8958692 C151.112914,41.7423664 150.592747,40.6374234 150.177931,39.331245 C151.97012,39.0839188 153.390702,38.9365931 154.790708,38.6806249 C156.066845,38.4472906 157.127343,37.9666301 157.224463,36.3637426 C157.253681,35.8769092 157.720761,35.1267003 158.120352,35.0266998 C158.593193,34.9085923 159.473444,35.1974825 159.721181,35.5946035 C161.253287,38.0448197 163.59733,38.3637511 166.1566,38.3497593 C167.687471,38.3411173 167.772245,38.9892682 167.334794,40.4728136 C166.671828,42.7217944 166.243431,45.0781831 166.053307,47.4164647 C165.917504,49.0888998 167.428622,49.4967205 168.780479,49.5358153 C169.933982,49.5687372 171.09695,49.3333453 172.252922,49.193427 C173.332762,49.0625622 173.664039,49.5572145 173.346342,50.5205931 C172.09572,54.3119674 170.558265,55.4374866 167.219156,53.9959166 C166.796932,53.8136113 166.344255,53.7004421 165.367296,53.3765724 C165.367296,56.1671193 165.412564,58.6823564 165.347543,61.1947128 C165.315855,62.4161172 165.710096,64.3251788 164.036015,64.3733272 C162.171809,64.4268254 162.750001,62.455212 162.712964,61.2881288 C162.636832,58.8918223 162.64712,56.4819355 162.827368,54.0934479 C162.943006,52.5658694 162.360287,51.9115456 160.94917,51.8234794 C159.78826,51.7506395 158.622,51.6605157 157.461912,51.7004336 C154.592764,51.7987879 154.192351,52.2119584 153.586176,55.0222585 C153.25531,56.5580675 152.998519,58.17042 152.311273,59.5502613 C151.703452,60.767962 150.656122,61.8515057 149.576282,62.7099456 C149.112083,63.079083 148.076276,62.7296988 147.300141,62.7066534 C147.443351,62.0272266 147.457755,61.2836021 147.753641,60.6786612 C148.939654,58.2551941 150.213322,55.8745255 151.454479,53.4782189 C151.237195,53.2992058 151.01991,53.1201927 150.803036,52.9407681 C149.640068,53.2654608 148.486566,53.6259562 147.312898,53.9057928 Z M154.446673,47.9506233 C157.016232,47.9506233 159.531469,48.0107059 162.038064,47.8884831 C162.435596,47.8691415 163.031484,47.0666689 163.121607,46.553498 C163.355353,45.2213936 163.47058,43.8423753 163.392802,42.4958675 C163.365641,42.0176762 162.600206,41.1555326 162.24753,41.1921583 C159.906779,41.4361922 157.39113,41.4460688 155.318693,42.3847559 C153.523213,43.1979281 154.351611,45.5613127 154.255314,47.2855999 C154.248319,47.4115264 154.325274,47.5419796 154.446673,47.9506233 Z M122.72876,51.3456995 C123.181437,51.4144241 123.654278,51.4506383 124.108601,51.5625729 C124.79132,51.7304749 126.026717,51.9263605 126.036182,52.1531104 C126.074042,53.0366533 125.785563,53.9597025 125.483093,54.8202 C125.365808,55.1535347 124.915601,55.5485982 124.572801,55.5955119 C122.077728,55.9391348 122.237811,57.8198013 122.15633,59.5918253 C122.083901,61.1844247 121.983901,62.776201 121.620113,64.3766194 C119.038621,62.3827837 120.279367,59.688945 120.164963,56.8498383 C118.855081,57.2547783 117.719274,57.5605409 116.616388,57.9572504 C115.051773,58.5206273 114.680578,58.26219 114.690454,56.5634173 C114.700742,54.7304877 114.765352,53.1625797 117.257543,52.7922078 C118.406108,52.6214252 120.191712,52.3185432 120.419697,49.8197671 C118.657138,50.2642134 117.156308,50.6428159 115.463708,51.0703897 C114.678108,49.8765575 114.535721,48.510708 115.427906,47.0814838 C116.008155,46.1514387 116.650956,45.2559616 117.165362,44.2913484 C117.490055,43.6835269 117.628738,42.976528 117.964954,41.9740546 C116.190872,42.3386652 115.026258,42.1621212 114.669055,40.4781634 C114.318436,38.8275391 114.716792,38.3686894 116.426676,38.1143673 C117.161658,38.0049018 117.863719,37.416422 118.492528,36.9312347 C119.063724,36.4904921 119.514755,35.8946048 120.099119,35.9123003 C121.546039,36.2588039 122.997486,36.5880234 124.437821,36.9592184 C125.367866,37.198314 126.692151,37.0007823 126.638242,38.539472 C126.586801,39.990507 125.59297,40.1238409 124.357574,40.2333064 C120.460026,40.5769293 119.114753,42.1423681 119.504466,45.70905 C121.783077,45.4604892 121.091716,43.2312616 122.128758,41.6036826 C122.483903,42.6160326 122.64234,43.3041014 122.962506,43.9057501 C123.218886,44.3872336 123.613538,44.8432026 124.053457,45.1658378 C124.589262,45.5596666 125.23659,45.802466 125.836181,46.1106978 C125.236178,46.9399194 124.807781,48.0786074 123.997078,48.5263459 C122.754275,49.2140032 122.215589,49.9024835 122.72876,51.3456995 Z M140.628466,50.2172174 C139.990603,53.9287558 139.992661,53.9703198 136.646145,54.1308143 C135.316098,54.1946006 134.848195,54.7987184 134.838318,56.0538678 C134.82803,57.3073711 135.398403,57.7110765 136.597996,57.7102535 C137.815285,57.7098419 139.060558,58.1279507 140.242868,57.9732176 C141.592668,57.7962621 142.885677,57.1896751 144.394326,56.7090146 C143.929715,58.8505876 143.597615,61.2329023 141.830117,62.9427861 C141.254395,63.4995786 139.749862,63.7979338 139.081546,63.4423767 C135.04408,61.2933963 131.058055,61.7530691 126.948984,63.0946386 C126.026346,63.396286 124.260495,63.4831176 124.029218,63.0526631 C123.510698,62.0872269 123.620986,60.7308425 123.676542,59.5427716 C123.693003,59.1872145 124.335392,58.6378294 124.758851,58.5641666 C126.232931,58.3073754 127.733349,58.1740415 129.229241,58.0785678 C131.788511,57.9151926 132.035014,57.6370021 131.735424,54.6271127 C130.974515,54.7007756 130.210315,54.7806113 129.444468,54.8472783 C127.720181,54.9974847 127.062565,54.2908973 126.989725,52.1810118 C126.940342,50.7460262 127.210713,50.0501385 129.083972,50.1464352 C131.616905,50.2768884 134.181114,49.5871735 136.740384,49.4995188 C138.031747,49.4550742 139.342041,49.9624838 140.628466,50.2172174 Z M214.478205,61.7831104 C214.418946,61.3633555 214.256805,60.9279627 214.317299,60.5263149 C214.694256,58.0254812 215.203311,55.5415199 215.50002,53.0324557 C215.672861,51.5731902 215.64035,50.067011 215.506193,48.599515 C215.345287,46.8365445 216.028829,45.6694613 217.656408,45.9237834 C219.274522,46.1768709 219.873702,45.3122581 220.53749,44.2390025 C221.48235,42.7106009 222.028855,42.6303537 222.981534,44.1509363 C223.90376,45.6237821 225.096769,45.8711083 226.663854,45.6361278 C228.423532,45.3723407 229.549463,46.3735796 228.875386,47.7299639 C227.439578,50.6217458 228.079086,53.6411003 227.881555,56.6114833 C227.769209,58.3114906 227.640813,60.0119094 227.449043,61.7045092 C227.399248,62.1419596 227.081551,62.5485457 226.353153,63.1378487 C225.96097,62.3131538 225.26179,61.4991585 225.231338,60.6608834 C225.119403,57.592969 225.281544,54.5155896 225.216523,51.4443831 C225.202942,50.8028166 224.660142,50.1727727 224.361375,49.5373791 C223.902937,50.1954066 223.096761,50.8279196 223.046555,51.5159883 C222.827212,54.5180588 222.845731,57.5370017 222.739969,60.5485372 C222.684825,62.1152106 222.714043,63.743201 221.094694,64.7551395 C219.871232,64.4469078 219.359296,63.8226253 219.471231,62.4205617 C219.736664,59.0814527 219.800039,55.7258829 219.93255,52.3760743 C219.960945,51.6526144 219.936665,50.9266854 219.936665,50.1896452 C218.241184,49.9345001 218.076986,50.8287426 218.037068,51.8744261 C217.927603,54.7612697 217.493033,57.5719813 216.015249,60.1246671 C215.668334,60.7250812 215.313188,61.3209685 214.961746,61.9193249 C214.800429,61.8736457 214.639523,61.8283781 214.478205,61.7831104 Z M209.969914,41.3441342 C208.106944,42.6009297 206.60241,43.6149258 205.098289,44.6293334 C204.904049,44.4881806 204.710221,44.3466162 204.516393,44.2054633 C204.646846,40.741251 207.481838,38.5457684 209.197072,35.047811 C209.948515,36.5165416 210.458805,37.5136652 211.08638,38.7395963 C211.543584,38.6437112 212.194204,38.3655207 212.819309,38.413669 C213.499559,38.4667557 214.265406,38.6906249 214.770758,39.1095568 C214.982693,39.2848662 214.623844,40.1540057 214.518905,40.7066829 C213.750178,44.7544368 210.504073,47.8128861 210.019709,51.9754553 C209.943165,52.6351289 209.833288,53.2906873 209.738638,53.9478917 C209.956334,54.0544765 210.173208,54.1606498 210.390081,54.2664116 C211.482267,52.4820418 212.574041,50.6976721 213.912318,48.5095969 C214.321373,50.4310043 214.229192,52.1577606 213.456761,53.5042684 C212.039882,55.9750609 210.316418,58.288651 208.530814,60.515821 C208.066614,61.0944243 206.900354,61.1092392 206.056318,61.3833144 C205.883477,60.4944217 205.357549,59.4940059 205.597056,58.735978 C206.847679,54.7767019 207.530398,50.7820346 207.207763,46.6194654 C207.118873,45.474193 207.587188,44.7305684 208.992544,44.6544364 C209.607361,44.6211029 210.492962,43.9309765 210.681852,43.3515502 C210.853869,42.8268566 210.247282,42.0470179 209.969914,41.3441342 Z M131.940651,40.9016632 C131.044351,41.0617462 130.140644,41.1868496 129.25422,41.3897311 C128.002363,41.675329 127.483019,41.1395243 127.39413,39.9329348 C127.227051,37.6551473 127.950099,36.8851851 130.187146,36.723456 C132.633658,36.5465006 135.065356,36.1176921 137.51228,36.0181032 C138.376893,35.9827121 139.267843,36.5942374 140.146448,36.9106996 C139.598709,37.6522666 139.132863,38.4757269 138.487181,39.1197626 C136.571947,41.0317049 134.600745,42.8889145 132.620901,44.7354244 C131.538592,45.7448937 130.498258,46.8732936 129.232821,47.579058 C128.666975,47.8946972 127.594542,47.3016905 126.752563,47.1210313 C127.150919,46.5197942 127.453801,45.8156759 127.966972,45.3370731 C129.348048,44.0494133 130.818836,42.8584617 132.254644,41.6292383 C132.150117,41.3864389 132.04559,41.1440511 131.940651,40.9016632 Z M217.499124,35.7754685 C220.1086,36.1614783 219.565799,38.331858 220.42712,39.2763065 L230,39.2763065 C229.944444,42.9792029 227.867892,44.4117193 224.883106,42.9907256 C221.943999,41.5911311 219.222999,42.1129441 216.936158,44.4911435 C216.63163,44.8084288 216.244386,45.0462899 215.741914,45.4417649 C214.178945,41.6322836 218.27032,39.3549076 217.499124,35.7754685 Z M135.671696,42.1784176 C137.373349,42.9463221 138.892697,43.4290402 140.170481,44.2759574 C141.110814,44.8990054 141.59559,46.1356361 140.508342,47.0788501 C139.523564,47.9331747 138.180349,49.2167193 136.961002,47.8977836 C135.919434,46.7714413 135.434246,45.0973601 134.853174,43.6072303 C134.740416,43.3187517 135.321077,42.7607246 135.671696,42.1784176 Z M158.771301,52.858957 C159.640029,53.2573126 160.578716,53.6873556 161.51658,54.1178101 C160.974602,55.0029991 160.591473,56.0610283 159.855668,56.7346938 C158.616979,57.869678 157.052363,57.7170025 155.65318,56.975847 C154.460994,56.3445686 154.547414,54.5379766 155.845362,53.7754219 C156.627259,53.3157491 157.613683,53.2050491 158.771301,52.858957 Z M157.772243,47.5065474 C156.805984,46.6653915 155.71174,46.1695046 155.488694,45.4160034 C155.108034,44.1295782 155.709683,42.9604374 157.311747,42.860437 C158.571423,42.7818358 159.869371,42.6546748 161.096126,42.8645522 C162.53358,43.1106438 162.650453,44.3073567 161.747569,45.1201174 C160.717112,46.0481049 159.34262,46.5937863 157.772243,47.5065474 Z"/>
</svg>
