<svg xmlns="http://www.w3.org/2000/svg" width="40" height="40" viewBox="0 0 40 40">
    <g fill="none" fill-rule="evenodd">
        <rect width="40" height="40" fill="#6ED0CE" rx="20"/>
        <path fill="#FFF" d="M20.156 13c-1.318 0-2.343.403-3.076 1.208-.732.77-1.08 1.795-1.08 3.077h1.447c0-.898.2-1.593.604-2.106.44-.604 1.117-.897 2.032-.897.77 0 1.374.201 1.795.64.402.403.622.971.622 1.703 0 .513-.183.99-.55 1.447-.109.146-.329.366-.622.66-.988.878-1.593 1.574-1.849 2.123-.22.458-.33.989-.33 1.593v.421h1.465v-.42c0-.495.11-.935.348-1.337.183-.33.458-.66.86-1.008.806-.714 1.3-1.19 1.484-1.41.458-.604.696-1.318.696-2.142 0-1.098-.348-1.959-1.026-2.582-.714-.659-1.648-.97-2.82-.97zm-.274 11.151c-.311 0-.568.092-.788.311-.22.202-.31.458-.31.77 0 .31.09.567.31.787.22.201.477.311.788.311.311 0 .567-.11.787-.311.22-.202.33-.458.33-.788 0-.31-.11-.567-.312-.769-.22-.22-.494-.31-.805-.31z"/>
    </g>
</svg>
