<?xml version="1.0" encoding="UTF-8"?>
<svg width="50px" height="49px" viewBox="0 0 50 49" version="1.1" xmlns="http://www.w3.org/2000/svg" xmlns:xlink="http://www.w3.org/1999/xlink">
    <!-- Generator: Sketch 46.2 (44496) - http://www.bohemiancoding.com/sketch -->
    <title>PaaS／icon／日程服务</title>
    <desc>Created with Sketch.</desc>
    <defs></defs>
    <g id="首页" stroke="none" stroke-width="1" fill="none" fill-rule="evenodd">
        <g id="PaaS平台" transform="translate(-435.000000, -5829.000000)" fill="#D76A6A">
            <g id="feature/normal-copy-5" transform="translate(360.000000, 5779.000000)">
                <g id="PaaS／icon／日程服务" transform="translate(75.000000, 50.000000)">
                    <g id="日程">
                        <path d="M47.773522,4.29545454 L40.1960371,4.29545454 L40.1960371,6.46036994 L47.7735923,6.46036994 L47.7735923,16.5791673 L2.22196232,16.5791673 L2.22196232,6.46036994 L9.79951754,6.46036994 L9.79951754,4.29545454 L2.22196232,4.29545454 L0.0570469194,4.29545454 L0.0570469194,6.46036994 L0.0570469194,16.5791673 L0.0570469194,18.7440124 L0.0570469194,45.9820578 L0.0570469194,48.1469028 L0.0570469194,48.1469731 L2.22196232,48.1469731 L2.22196232,48.1469028 L47.7735221,48.1469028 L47.7735221,48.1469731 L49.9384375,48.1469731 L49.9384374,4.29545454 L47.773522,4.29545454 Z M47.773522,45.9820577 L2.22196232,45.9820577 L2.22196232,18.7440827 L47.7735221,18.7440827 L47.773522,45.9820577 Z" id="Shape" fill-rule="nonzero"></path>
                        <path d="M19.152309,4.29538428 L30.8434564,4.29538428 L30.8434564,6.46029968 L19.152309,6.46029968 L19.152309,4.29538428 L19.152309,4.29538428 Z M13.3528713,0.0630259894 L15.5177867,0.0630259894 L15.5177867,10.6925877 L13.3528713,10.6925877 L13.3528713,0.0630259894 Z M34.6465703,0.0630259894 L36.8114857,0.0630259894 L36.8114857,10.6925877 L34.6465703,10.6925877 L34.6465703,0.0630259894 Z M22.6292027,39.5372074 L22.6290622,39.5373479 L15.5676825,32.4759682 L17.0984996,30.9451511 L22.6292027,36.4758542 L32.897055,26.208002 L34.4278721,27.7388191 L22.6293433,39.5373479 L22.6292027,39.5372074 Z" id="Combined-Shape" fill-rule="nonzero"></path>
                    </g>
                </g>
            </g>
        </g>
    </g>
</svg>