<svg width="60" height="60" viewBox="0 0 60 60" xmlns="http://www.w3.org/2000/svg" xmlns:xlink="http://www.w3.org/1999/xlink"><title>1F3D580F-734D-443E-8A00-019400847090</title><defs><rect id="a" width="60" height="60" rx="30"/><filter x="-50%" y="-50%" width="200%" height="200%" filterUnits="objectBoundingBox" id="b"><feMorphology radius="1" in="SourceAlpha" result="shadowSpreadInner1"/><feOffset in="shadowSpreadInner1" result="shadowOffsetInner1"/><feComposite in="shadowOffsetInner1" in2="SourceAlpha" operator="arithmetic" k2="-1" k3="1" result="shadowInnerInner1"/><feColorMatrix values="0 0 0 0 0.203921569 0 0 0 0 0.247058824 0 0 0 0 0.294117647 0 0 0 0.08 0" in="shadowInnerInner1"/></filter><filter x="-50%" y="-50%" width="200%" height="200%" filterUnits="objectBoundingBox" id="c"><feMorphology radius=".5" operator="dilate" in="SourceAlpha" result="shadowSpreadOuter1"/><feOffset in="shadowSpreadOuter1" result="shadowOffsetOuter1"/><feGaussianBlur stdDeviation="1" in="shadowOffsetOuter1" result="shadowBlurOuter1"/><feColorMatrix values="0 0 0 0 0.203921569 0 0 0 0 0.247058824 0 0 0 0 0.294117647 0 0 0 0.4 0" in="shadowBlurOuter1" result="shadowMatrixOuter1"/><feMerge><feMergeNode in="shadowMatrixOuter1"/><feMergeNode in="SourceGraphic"/></feMerge></filter></defs><g fill="none" fill-rule="evenodd"><use fill="#9AA7BD" xlink:href="#a"/><use fill="#000" filter="url(#b)" xlink:href="#a"/><g filter="url(#c)" transform="translate(18 18)" fill="#FFF"><path d="M14.776 11.85l7.752 7.656c.964 1.03.964 2.696 0 3.723a2.362 2.362 0 0 1-3.49 0l-7.268-8.373 3.006-3.006zM5.905 9.73c-1.358.183-2.777-.28-3.82-1.392C.94 7.116.535 5.408.856 3.837l2.474 2.64 2.743-.798.747-2.925L4.348.114c1.473-.342 3.073.088 4.22 1.31C9.61 2.537 10.044 4.052 9.871 5.5c-.106.897.276 1.782.899 2.397l1.363 1.345-2.805 2.805-1.177-1.357c-.576-.663-1.406-1.073-2.247-.959zm4.586 4.86l.54.54a.765.765 0 0 1 0 1.082l-7.564 7.564a.765.765 0 0 1-1.082 0L.224 21.615a.763.763 0 0 1 0-1.08l7.566-7.566a.763.763 0 0 1 1.08 0l.541.54 8.738-8.738a1.53 1.53 0 0 0 .448-1.081V2.162L22.92 0 24 1.081 21.84 5.405H20.31c-.405 0-.793.161-1.08.447l-8.739 8.74z"/></g></g></svg>