<svg width="281" height="100" viewBox="0 0 281 100" xmlns="http://www.w3.org/2000/svg"><title>525E5973-8FD6-4276-B21B-10AFFA230BD8</title><g fill="none" fill-rule="evenodd"><path fill="none" d="M0 0h280v100H0z"/><path d="M114.035 55.529h.005c0 2.314.006 4.63-.002 6.945-.003.7.088.81.784.81l9.438-.006c.814 0 1.628-.004 2.443 0 .688.003 1.158-.295 1.499-.91.409-.74.548-1.526.547-2.347-.006-3.895-.023-7.79-.035-11.685-.002-.633-.23-.854-.874-.854-4.072 0-8.144 0-12.215.004a5.09 5.09 0 0 0-.858.067c-.53.093-.733.358-.733.886.002 2.363 0 4.726 0 7.09m-16.26 3.155c3.18-2.656 5.975-5.676 8.301-9.101a59.158 59.158 0 0 0 3.315-5.48c1.171-2.205 2.186-4.494 3.246-6.757.357-.761.658-1.549.96-2.333.193-.497.072-.651-.452-.64-2.587.047-5.174.094-7.76.152a80.042 80.042 0 0 0-3.159.122c-.588.038-1.018-.218-1.385-.62a19.906 19.906 0 0 1-.949-1.136c-.08-.101-.097-.25-.143-.379.138-.048.274-.133.414-.138.318-.01.637.03.955.03 5.273.003 10.546-.004 15.818.002 4.92.005 9.842.019 14.763.045.482.002.848-.132 1.19-.478.606-.611 1.257-1.18 1.885-1.771.267-.25.514-.292.774.013.84.984 1.693 1.956 2.521 2.95.116.137.216.425.148.548-.085.155-.347.285-.538.294-.878.042-1.756.036-2.635.047-2.826.033-5.654.056-8.48.101-3.337.054-6.674.128-10.011.188-.382.007-.766-.038-1.149-.024-.174.007-.345.1-.516.154.08.182.112.418.247.535a52.051 52.051 0 0 0 2.308 1.913c.542.419.552.603.17 1.165-.606.897-1.119 1.858-1.72 2.758a199.952 199.952 0 0 1-2.97 4.277c-.257.361-.223.539.165.733.912.458 1.867.557 2.877.552 3.883-.018 7.764.017 11.647.032.875.003 1.022-.098 1.363-.903.13-.308.266-.614.418-.912.195-.387.564-.482.922-.265.873.527 1.748 1.055 2.623 1.578.548.327.574.417.28.97-.57 1.073-.943 2.159-.891 3.434.097 2.408.094 4.826.014 7.236-.06 1.828.092 3.671-.321 5.487-.384 1.685-1.414 2.82-2.861 3.644-.346.196-.537.01-.64-.319-.12-.38-.205-.775-.37-1.135-.261-.574-.69-.94-1.374-.93-3.273.043-6.546.075-9.82.118-.815.01-1.628.05-2.442.06-.333.004-.558.103-.608.462-.231 1.687-1.054 3.087-2.103 4.384-.15.187-.227.434-.337.653h-.959c-.012-.797-.035-1.593-.034-2.39.01-6.262.025-12.524.03-18.787 0-.138-.1-.276-.153-.415-.132.076-.296.124-.388.233-.367.439-.68.926-1.072 1.34-1.152 1.22-2.287 2.457-3.508 3.604a72.363 72.363 0 0 1-4.367 3.803C98.229 59.382 96 60.118 96 60.118s1.315-1.05 1.774-1.434zm85.657 7.96l-9.006.026c-9.425.023-18.849.038-28.272.087-.863.005-1.298-.527-1.77-1.047-.207-.227-.035-.42.264-.421.272-.004.543.023.813.024 5.416.02 10.83.036 16.245.054.574.001.668-.087.67-.662.005-.878 0-1.757.013-2.635.006-.36-.129-.535-.502-.53-3.178.03-6.356.056-9.535.08-1.245.01-2.491.018-3.737.015-.329 0-1.408-.848-1.43-1.15-.008-.1.172-.294.286-.31.248-.039.508.02.763.02 4.505.019 9.009.031 13.513.057.456.002.639-.178.634-.621-.018-1.646-.015-3.29-.045-4.935-.006-.405.175-.544.52-.462.963.227 1.92.478 2.876.733.297.079.336.255.207.55a2.781 2.781 0 0 0-.244.992c-.032 1.004-.01 2.011-.018 3.018-.003.572.127.717.691.717 3.004.001 6.008-.006 9.01.003.433.002.771-.143 1.065-.449.409-.426.832-.84 1.24-1.265.261-.272.491-.301.767-.007.677.721 1.376 1.423 2.053 2.145.106.114.237.353.188.43-.08.129-.293.238-.454.244-.909.036-1.82.042-2.73.05-3.72.036-7.44.067-11.161.102-.568.006-.669.117-.666.678.003.846-.002 1.693 0 2.54.003.534.12.652.643.654 3.499.012 6.997.018 10.494.04.417.002.721-.118 1.004-.433.566-.63 1.17-1.222 1.758-1.832.33-.341.499-.327.821.017a178.32 178.32 0 0 0 2.554 2.661c.115.118.478.63.478.823zM162.347 47.83c-.007-.559.001-1.118.004-1.677.004-.57-.1-.68-.658-.68-3.467.002-6.935-.022-10.4.03-.839.013-1.326-.438-1.851-.92-.067-.064-.12-.231-.082-.295a.402.402 0 0 1 .296-.178c1.515.013 3.032.044 4.55.063 1.18.015 2.363.018 3.545.028 1.325.011 2.65.016 3.977.045.454.01.641-.17.629-.62a43.168 43.168 0 0 1-.004-1.869c.005-.38-.154-.554-.544-.553-3.242.015-6.485.024-9.728.03-.438 0-.785.15-1.11.46-.52.495-1.08.949-1.647 1.388-.143.111-.414.188-.56.126-.142-.059-.256-.31-.283-.49-.045-.297-.01-.605-.01-.908l-.002-10.162c-.001-.703.12-.753.798-.554 1.326.391 2.633.79 4.064.779 6.31-.05 12.62-.027 18.932-.022.957 0 1.916.03 2.872.076.466.022.754-.188.963-.569.146-.265.305-.524.44-.794.162-.326.37-.394.695-.207.762.436 1.53.858 2.304 1.274.38.206.47.466.196.81-.546.681-.689 1.442-.657 2.313.06 1.675.009 3.354.017 5.032 0 .233.051.474.124.697.186.556.035.786-.551.784-1.997-.007-3.994-.02-5.99-.025-2.11-.005-4.22-.004-6.329-.005-.563-.001-.67.11-.67.672.002.59.009 1.182-.003 1.773-.009.426.181.61.605.608 2.477-.007 4.952.008 7.429-.02.285-.004.616-.169.843-.358.428-.355.805-.774 1.185-1.184.253-.272.474-.27.73-.016.658.652 1.33 1.29 1.976 1.952.128.13.17.345.252.52-.181.071-.36.2-.543.202-3.928.038-7.858.061-11.788.086-.582.003-.685.106-.684.707.002.591.007 1.182 0 1.773-.004.555.103.674.668.677 1.039.003 2.077-.007 3.117 0 2.378.018 4.759.038 7.137.066.552.007 1.019-.093 1.396-.565.306-.382.72-.677 1.08-1.016.244-.232.479-.23.711.004.7.702 1.404 1.4 2.09 2.112.096.099.187.319.14.409-.068.13-.254.22-.41.27-.127.043-.282.004-.426.002-2.38-.044-4.758-.115-7.137-.125-2.267-.01-4.534.053-6.802.064-2.761.013-5.523.014-8.284.004-3.944-.014-7.889-.053-11.833-.053-.752 0-1.159-.481-1.569-.955-.202-.234.024-.372.276-.371 1.612.012 3.226.033 4.838.045 1.054.006 8.338.08 10.925.08.705 0 .76-.063.75-.77zm8.372-14.934c-1.469 0-2.938.007-4.406-.004-.415-.003-.635.153-.635.58 0 2.06-.008 4.12.012 6.178.001.162.182.456.292.463.665.037 1.334.02 2-.011.12-.005.274-.128.34-.24.46-.76.992-1.496 1.327-2.311.465-1.13.783-2.32 1.154-3.486.133-.419.384-.536.694-.264.672.589 1.332 1.191 1.993 1.792.257.234.304.471.1.8-.997 1.595-2.469 2.586-4.147 3.329-.124.056-.212.197-.318.298.13.063.262.178.394.178 1.883 0 3.766-.02 5.65-.029.4-.002.558-.165.555-.583-.014-1.995-.006-3.99.004-5.985.004-.54-.119-.701-.651-.703-1.453-.006-2.905-.003-4.358-.002zm-13.613 7.272c1.55 0 3.098-.008 4.648.006.46.003.608-.183.603-.635-.02-1.948-.013-3.896-.009-5.845.002-.716-.072-.796-.789-.795-2.952.002-5.905.003-8.858 0-.713 0-.804.085-.801.787.002 1.9.005 3.802 0 5.702 0 .705.061.78.75.781h4.456zm23.618 13.51c-.253 1.017-.59 2.044-1.492 2.761-.727.578-1.526.28-1.936-.648-.617-1.4-1.265-2.79-2.27-3.965-.286-.336-.654-.602-.965-.919-.095-.098-.125-.258-.184-.39.14-.04.292-.135.419-.108 1.94.403 3.828.973 5.586 1.913.503.27.824.694.842 1.356zm-31.318 3.772c-.855-.333-1.7-.577-2.461-.982-.726-.388-.669-1.23.038-1.78.791-.617 1.598-1.215 2.378-1.848.776-.63 1.363-1.422 1.835-2.305.07-.132.235-.214.356-.32.065.165.203.338.185.495-.176 1.52-.335 3.046-.593 4.554-.094.555-.367 1.118-.692 1.585-.198.282-.652.386-1.046.6zm11.984-3.134c-.11.891-.65 1.553-1.256 2.177a.631.631 0 0 1-.072.062c-.417.329-.848.69-1.417.5-.628-.208-.763-.786-.889-1.363-.317-1.466-.694-2.912-1.512-4.197-.135-.213-.33-.387-.473-.595-.073-.106-.096-.246-.142-.372.143-.031.307-.124.426-.083.344.118.688.26.999.447 1.21.73 2.413 1.473 3.61 2.226.424.268.672.669.726 1.198zm7.526 2.687c-.469-.11-.743-.392-.875-.78-.248-.722-.442-1.463-.686-2.188-.385-1.15-.824-2.274-1.731-3.144-.09-.087-.09-.27-.13-.408.145-.015.318-.09.436-.038.948.415 1.902.82 2.82 1.295.69.357 1.337.8 1.986 1.23.583.384.785 1.064.528 1.708-.344.86-.823 1.623-1.658 2.09-.216.12-.474.163-.69.235zm-8.8-19.987c-.376.62-.67 1.18-1.039 1.683-.21.285-.52.527-.833.697-.778.421-1.39.12-1.625-.747-.254-.936-.452-1.893-.792-2.797-.25-.67-.693-1.267-1.04-1.903-.068-.126-.082-.282-.123-.424.14-.017.304-.09.417-.044 1.508.623 2.917 1.43 4.188 2.453.326.262.533.672.847 1.082z" fill="#5A697A"/></g></svg>