<svg xmlns="http://www.w3.org/2000/svg" width="280" height="100" viewBox="0 0 280 100">
    <g fill="none" fill-rule="evenodd">
        <path fill="none" d="M0 0h280v100H0z"/>
        <g fill="#5A6978">
            <path d="M78.21 23c.387.462.847.863 1.36 1.189 1.22.767 2.627 1.193 4.033 1.51 1.131.245 2.277.423 3.43.536 2.58.322 5.092 1.245 7.19 2.747 1.54 1.105 2.856 2.527 3.723 4.193A8.991 8.991 0 0 1 98.98 38a10.765 10.765 0 0 0-1.779-3.044c-1.598-1.917-3.882-3.225-6.312-3.88a16.862 16.862 0 0 0-7.854-.207c-.657.137-1.3.331-1.92.581a12.087 12.087 0 0 1-3.74.836c-.807.056-1.626.109-2.426-.05-1.009-.185-1.965-.562-2.949-.838 2-2.3 4.928-3.678 7.923-4.288-.452-.351-.945-.671-1.278-1.14A3.084 3.084 0 0 1 78.21 23z"/>
            <path d="M67.096 25.773c2.328-.837 4.927-1.052 7.318-.358.91.278 1.817.644 2.586 1.209a11.33 11.33 0 0 0-6.86.911c-2.41 1.124-4.399 3.02-5.828 5.23-1.152 1.79-1.988 3.801-2.226 5.918-.256 1.61-.93 3.13-1.775 4.527-.71 1.123-1.838 1.878-2.782 2.79-1.084-2.845-.876-6.035.067-8.89-.507.21-1.018.44-1.571.498-1.119.153-2.31-.278-3.025-1.149.972-.11 1.878-.528 2.688-1.055 1.69-1.122 3.047-2.656 4.296-4.23 1.772-2.435 4.254-4.381 7.112-5.401z"/>
            <path fill-rule="nonzero" d="M123.068 33.365c.672-.456 1.35-.903 2.017-1.365 1.172.75 2.24 1.639 3.263 2.573-.517.35-1.048.68-1.548 1.054.76-.038 1.52-.021 2.28-.014.488-.464.977-.926 1.458-1.4.864.728 1.73 1.454 2.597 2.177-.424.332-.832.682-1.242 1.028-.592.019-1.186-.041-1.774.019.576.112 1.153.211 1.732.332a15.555 15.555 0 0 1-3.303 3.634c.462-.015.924-.007 1.385-.01.472-.443.953-.874 1.427-1.316.688.606 1.406 1.18 2.1 1.782-.007-2.953-.007-5.906 0-8.859 1.257.205 2.522.355 3.781.542 0 .32 0 .64.014.961 1.654-.43 3.298-1.069 4.613-2.174 1.004.746 2.02 1.48 3.023 2.228-2.368 1.18-5.02 1.661-7.642 1.884-.018 1.164 0 2.328-.008 3.49h4.259c.424-.333.862-.647 1.282-.986.735.604 1.479 1.195 2.218 1.799-.35.35-.691.7-1.03 1.059-.482-.006-.964 0-1.444-.006v13.872c-1.212.105-2.423.21-3.632.331V41.797c-.549.004-1.098 0-1.647 0 .028 1.971-.075 3.959-.545 5.882-.286 1.239-.792 2.412-1.353 3.55a18.04 18.04 0 0 1-3.297 4.496c-.55-.371-1.114-.724-1.667-1.089.458-.818.867-1.663 1.223-2.529-.75.47-1.5.936-2.252 1.4-.376-1.364-.9-2.682-1.482-3.971-.045 1.044-.006 2.09-.02 3.135-.01.744.09 1.556-.329 2.22-.355.586-1.064.851-1.727.89-.69.027-1.382-.007-2.073.019-.035-.446-.106-.929-.437-1.264-.423-.454-1.085-.544-1.678-.558.038-.392.054-.787.08-1.18.556-.003 1.114.025 1.67-.008.426-.068.56-.543.585-.905.031-.773 0-1.547.016-2.32a27.66 27.66 0 0 1-3.48 4.07c-.486-.39-.985-.763-1.481-1.137.991-1.559 1.686-3.28 2.288-5.014.887.305 1.787.578 2.67.898v-1.453c-1.261.015-2.523-.01-3.783.013-.198-.603-.345-1.224-.533-1.827 1.44.013 2.878 0 4.317.009V43.2c-1.43.005-2.858 0-4.286.004-.165-.612-.344-1.21-.507-1.818 1.12.02 2.243 0 3.364.011a17.902 17.902 0 0 0-2.13-3.055c.367-.304.722-.62 1.085-.929-.532.008-1.06 0-1.588.013-.177-.613-.342-1.218-.519-1.826 1.686.014 3.371-.012 5.063.014a21.742 21.742 0 0 0-1.373-2.25zm-.744 4.05c1.082.716 2.155 1.461 3.083 2.37a493.14 493.14 0 0 0-1.701 1.62c.678-.013 1.355-.01 2.034 0 .896-1.224 1.577-2.595 2.175-3.986-1.864.002-3.728.005-5.591-.004zm10.31 5.796c-1.596-.017-3.186 0-4.78-.008v1.924c.32-.005.64-.007.96 0 .486-.464.975-.924 1.455-1.399.857.731 1.728 1.445 2.587 2.175-.418.328-.807.692-1.232 1.01-1.253.042-2.514.01-3.77.014v1.267c.347-.207.701-.404 1.046-.616 1.154.945 2.29 1.928 3.226 3.09.887-2.624 1.296-5.396 1.33-8.159-.267.242-.543.474-.821.702zM212.806 33.452c.527-.476 1.04-.967 1.56-1.452 1.475.488 2.921 1.075 4.262 1.838-.422.369-.833.748-1.253 1.12 2.319-.007 4.638-.007 6.958 0 .54-.455 1.089-.903 1.632-1.355.867.73 1.755 1.438 2.629 2.161-.395.348-.78.695-1.166 1.051-1.447-.015-2.893.009-4.34-.013 2.051 1.03 4.08 2.127 5.912 3.487-1.096.695-2.2 1.378-3.287 2.085a19.184 19.184 0 0 0-1.784-1.766c-2.23.275-4.474.466-6.708.666-3.154.267-6.312.558-9.48.59.8.173 1.626.19 2.437.3v.806h11.206c.632-.577 1.266-1.153 1.893-1.737 1.213.832 2.43 1.658 3.652 2.479-.3.376-.703.695-.935 1.109-.025 2.805.016 5.612-.01 8.418-.005.596-.172 1.229-.64 1.655-.529.487-1.294.63-2.008.65-.89.007-1.777 0-2.665.005 0-.55-.263-1.104-.76-1.403-.83-.51-1.86-.569-2.821-.578.008-.5.018-1 .027-1.499 1.278.074 2.567.129 3.853.116a.526.526 0 0 0 .534-.342c.085-.32.036-.655.045-.981-3.794.007-7.587 0-11.381 0v4.609c-1.501.17-3.003.334-4.5.529-.01-4.682 0-9.366-.007-14.048-.451.026-.903.028-1.353.038a518.28 518.28 0 0 1-.778-3.264c.933-.007 1.868.019 2.8-.007a12.944 12.944 0 0 0 2.718-1.918c-1.848.021-3.696-.007-5.543.014-.172-.62-.333-1.245-.505-1.866 3.897.012 7.795 0 11.693.006a16.944 16.944 0 0 0-1.887-1.503zm.547 3.933c-.88.503-1.807.924-2.723 1.362 2.198-.025 4.395-.079 6.592-.162 1.321.013 2.64-.057 3.96-.105a19.4 19.4 0 0 0-1.657-1.044c.359-.206.72-.411 1.071-.631-2.072.022-4.145-.009-6.216.015-.367.138-.673.391-1.027.565zm-3.175 7.471c0 .411 0 .821.004 1.232 3.791 0 7.579-.011 11.375.004.006-.413 0-.827 0-1.24-3.792.013-7.586.005-11.38.005zm0 3.03v1.176c3.794 0 7.587-.01 11.38.006.004-.396.004-.793 0-1.189-3.794.018-7.588.006-11.381.007zM178.665 32c1.221.153 2.443.299 3.667.439.008.873 0 1.747 0 2.621.233 0 .466 0 .7.005.397-.323.788-.655 1.172-.994.42.336.838.676 1.254 1.02.32-.616.637-1.236.91-1.875 1.179.27 2.36.52 3.542.779-.95 2-2.153 3.872-3.58 5.573h.528c.392-.406.78-.816 1.165-1.23.385.415.784.817 1.169 1.233a27.337 27.337 0 0 0 1.76-7.26c1.407.242 2.822.471 4.23.701a26.131 26.131 0 0 1-.89 2.98c.836-.005 1.673-.005 2.511 0 .519-.456 1.033-.921 1.556-1.375.873.734 1.764 1.449 2.641 2.177-.417.372-.833.746-1.252 1.117-.339-.01-.677-.008-1.014-.008-.09 3.572-.797 7.205-2.599 10.338 1.431 1.652 2.967 3.23 4.724 4.55-.988 1.065-1.976 2.13-2.95 3.209a23.96 23.96 0 0 1-4.065-4.65c-1.82 2-4.161 3.484-6.647 4.546-.375-.583-.755-1.162-1.138-1.738 2.35-1.595 4.422-3.615 5.945-6.003a20.897 20.897 0 0 1-1.694-4.957c-.308.414-.649.801-.994 1.183-.587-.464-1.193-.899-1.79-1.348.33-.558.628-1.133.896-1.722-1.226.01-2.452 0-3.677.005a35.166 35.166 0 0 1-1.75 1.668c.255-.019.54.048.772-.09.508-.275 1.018-.544 1.521-.827a393.68 393.68 0 0 0 3.32 2.18c-.73.388-1.582.593-2.186 1.177-.688.585-1.38 1.169-2.068 1.748v.516c1.45-.217 2.901-.45 4.328-.789.17.636.347 1.271.5 1.911-1.597.466-3.2.912-4.822 1.283-.017 1.243.007 2.487-.01 3.73-.023.639-.274 1.317-.832 1.68-.655.442-1.483.457-2.246.444h-1.467c-.007-.532-.154-1.101-.577-1.46-.546-.468-1.304-.563-2.003-.563.028-.433.059-.867.09-1.3.806.01 1.612.054 2.417.027.286-.008.625-.146.68-.455.047-.424.01-.852.022-1.276a75.84 75.84 0 0 1-4.807.726 250.855 250.855 0 0 0-.58-3.185c1.798-.01 3.595-.122 5.386-.28v-1.817c.58.071 1.162.135 1.743.21.422-.643.852-1.281 1.275-1.928-.846.028-1.692.016-2.537.01a40.833 40.833 0 0 1-4.75 2.987c-.385-.479-.774-.955-1.164-1.428.754-.498 1.517-.989 2.21-1.572-.277.014-.552.02-.827.021l-.448-1.695c1.093.017 2.186 0 3.278.012a22.134 22.134 0 0 0 1.76-1.674c-1.76.02-3.52-.007-5.28.014-.168-.586-.312-1.178-.482-1.764 1.152.015 2.303 0 3.455.01v-2.809c-.863.016-1.73 0-2.589.008-.158-.57-.315-1.142-.476-1.712 1.022.012 2.044 0 3.066.007-.003-1.02-.008-2.04-.002-3.061zm3.672 4.764c0 .95-.011 1.9.006 2.85.28-.102.407-.387.588-.6a32.304 32.304 0 0 0 1.566-2.247c-.72.004-1.44.002-2.16-.006v.003zm11.025 1.48c-.33.74-.718 1.454-1.116 2.158a21.153 21.153 0 0 0 1.545 4.093c.78-2.11 1.17-4.352 1.274-6.593-.505.008-1.01-.014-1.514.007-.079.1-.143.212-.19.331v.004zM165.698 33.754c.557-.257 1.124-.498 1.684-.754 1.329.882 2.667 1.75 4.008 2.615-.913.21-1.842.353-2.748.578-.864.51-1.683 1.094-2.544 1.609.13.06.265.119.4.176-.226.252-.462.495-.694.74.277 0 .555-.005.834 0 .603-.444 1.21-.885 1.817-1.324 1.178.824 2.355 1.64 3.545 2.437-.398.353-.799.697-1.192 1.052v8.11c.012.67.02 1.403-.398 1.975-.453.633-1.268.864-2.024.895-.927.025-1.855 0-2.783.015-.022-.751-.125-1.666-.884-2.064-.02.612 0 1.224-.01 1.836-1.255.101-2.508.216-3.762.327v-4.756h-2.004v4.322c-1.268.155-2.536.308-3.804.457V37.976c1.268.153 2.536.272 3.81.413v.331c.842-.005 1.684-.005 2.526 0a26.902 26.902 0 0 0-2.354-1.504c.348-.446.695-.894 1.04-1.344 1.213.297 2.42.617 3.602 1.022.416-.398.846-.781 1.263-1.178-3.185.02-6.37-.005-9.553.012-.163-.603-.316-1.21-.473-1.813 3.378.017 6.757 0 10.136.008.196.01.38-.09.562-.169zm-6.755 6.94v1.38a137.88 137.88 0 0 1 2.004 0v-1.38h-2.004zm5.77 0v1.384c.757-.01 1.516-.01 2.275 0v-1.384l-2.272-.002-.004.001zm-5.77 3.226v1.43a94.708 94.708 0 0 1 2.003 0v-1.429c-.668 0-1.335.002-2.003-.002zm5.773 1.433a66.632 66.632 0 0 1 2.274 0c.004-.479 0-.958 0-1.436-.759.007-1.518.007-2.276 0-.005.478-.006.957.002 1.436zm0 1.866v1.151c.64.103 1.291.22 1.94.15.515-.225.291-.874.338-1.302-.765.002-1.524 0-2.278.001z"/>
            <path d="M148 34.617c.594-.533 1.177-1.075 1.76-1.617 1.502.917 2.98 1.909 4.24 3.172-.922.948-1.865 1.873-2.779 2.828-.89-1.597-1.936-3.113-3.221-4.383zM92 36c2.96.534 5.604 2.257 7.618 4.487.071-.8.236-1.626.739-2.27.486-.681 1.248-1.109 2.052-1.269-.525 1.27-.48 2.693-.235 4.023.332 1.767.963 3.457 1.686 5.095 1.325 3.207 1.562 6.932.355 10.215-.6 1.633-1.562 3.146-2.86 4.296A10.292 10.292 0 0 1 99.244 62a10.786 10.786 0 0 0 2.24-4.297c.76-2.907.252-6.035-1.01-8.716-1.012-2.149-2.468-4.123-4.379-5.52-1.165-.929-2.093-2.126-2.856-3.406-.777-1.214-.925-2.684-1.238-4.061zM69.6 39.297c2.11-.955 4.468-1.248 6.775-1.266 2.307-.017 4.575.582 6.856.902 1.328.176 2.756.233 3.99-.361.344-.149.625-.403.956-.572.19-.01.301.186.28.351v6.859c.017.163-.09.372-.286.35-.18-.004-.24-.2-.31-.328-.36-.79-.958-1.45-1.627-2.007-.926-.762-2-1.336-3.115-1.792a17.014 17.014 0 0 0-4.716-1.155c-1.17-.1-2.376-.096-3.511.229-.647.19-1.292.51-1.691 1.06-.44.614-.521 1.509-.041 2.123.527.686 1.34 1.082 2.117 1.44 1.69.724 3.478 1.188 5.227 1.75 2.198.702 4.42 1.435 6.377 2.664 1.255.795 2.412 1.881 2.881 3.303.39 1.125.278 2.369-.171 3.463-.599 1.524-1.758 2.807-3.159 3.684-1.505.95-3.255 1.47-5.017 1.735-1.999.288-4.03.302-6.032.044-1.358-.183-2.69-.506-4.024-.807-1.04-.227-2.096-.497-3.17-.433a3.958 3.958 0 0 0-2.391 1.028c-.206.176-.385.418-.68.439a1.017 1.017 0 0 1-.113-.482c.005-2.546.005-5.093 0-7.641a.371.371 0 0 1 .21-.399c.203.02.29.214.4.351 1.722 2.477 4.27 4.42 7.199 5.348 2.088.664 4.371.877 6.52.36.876-.225 1.758-.577 2.397-1.224.426-.426.672-1.052.519-1.645-.146-.614-.63-1.084-1.139-1.441-.864-.592-1.851-.983-2.839-1.332-2.125-.739-4.308-1.31-6.414-2.105-1.513-.57-3.013-1.234-4.305-2.203-1.055-.79-1.95-1.857-2.27-3.136-.332-1.215-.113-2.523.459-3.637.788-1.581 2.234-2.786 3.857-3.517zM55.74 38c-.936 1.14-1.69 2.444-2.106 3.873-.838 2.76-.505 5.773.576 8.409 1.009 2.445 2.578 4.704 4.707 6.263 1.012.81 1.85 1.825 2.548 2.922.286.455.581.91.77 1.418.38 1.002.524 2.075.765 3.115-2.968-.51-5.595-2.263-7.624-4.472-.06.796-.233 1.616-.728 2.258a3.23 3.23 0 0 1-2.052 1.268c.715-1.762.371-3.738-.12-5.508a27.024 27.024 0 0 0-1.306-3.544c-1.076-2.599-1.47-5.518-.928-8.299.476-2.55 1.757-4.996 3.783-6.61.536-.42 1.11-.786 1.714-1.093zM149.731 41.573c.605-.518 1.192-1.055 1.797-1.573 1.12.884 2.26 1.743 3.39 2.62-.374.34-.747.681-1.112 1.03v5.497c0 .35-.037.712.102 1.043.225.611.69 1.112 1.292 1.394.968.476 2.079.557 3.147.568H173a401.712 401.712 0 0 0-1.085 3.232c-4.613-.019-9.227 0-13.835-.01-1.609-.036-3.229-.528-4.49-1.514a7.794 7.794 0 0 1-1.65-1.77c-.216.606-.563 1.158-.908 1.698-.5.763-1.046 1.497-1.617 2.212-.801-.946-1.615-1.881-2.415-2.827a23.405 23.405 0 0 0 1.949-1.93c.39-.49.916-.992.916-1.652v-6.079c-.703.007-1.405 0-2.107.008-.192-.65-.373-1.301-.56-1.952.837.004 1.685-.01 2.533.005z"/>
            <path d="M94.76 56.697c.714-1.074 1.804-1.814 2.722-2.697.626 1.724.852 3.565.661 5.388a16.4 16.4 0 0 1-.73 3.503c.72-.331 1.499-.6 2.304-.513.88.058 1.701.501 2.283 1.15-1.322.18-2.51.861-3.534 1.681-1.325 1.066-2.452 2.351-3.494 3.685-1.652 2.26-3.925 4.084-6.536 5.138-1.816.73-3.798 1.091-5.754.93-1.66-.138-3.301-.659-4.682-1.59 2.053.38 4.172.18 6.115-.58 2.534-.974 4.671-2.808 6.215-5.008 1.235-1.761 2.169-3.766 2.516-5.893.193-1.855.931-3.616 1.914-5.194z"/>
            <path d="M56.03 62c.926 2.637 3.049 4.788 5.604 6.015a15.02 15.02 0 0 0 4.991 1.394c2.126.242 4.28.067 6.333-.516.613-.175 1.183-.455 1.792-.636 1.338-.421 2.75-.563 4.152-.58 1.427-.01 2.756.556 4.098.95-2.004 2.288-4.922 3.65-7.909 4.277.5.384 1.038.75 1.376 1.29.558.833.68 1.873.327 2.806h-.009c-.65-.788-1.527-1.36-2.466-1.772-1.52-.664-3.16-1.01-4.803-1.26-.928-.15-1.872-.193-2.791-.395-3.484-.7-6.799-2.557-8.857-5.411-1.292-1.78-2.03-3.978-1.838-6.162zM126.004 59c.65.009 1.301.01 1.952 0 .005 1.193.008 2.386 0 3.58.377-.481.935-.836 1.56-.898.656-.065 1.392.058 1.867.543.475.485.6 1.18.615 1.825.005 1.316 0 2.632 0 3.95-.654-.006-1.309-.006-1.963 0v-3.422c-.007-.395-.063-.834-.363-1.123-.418-.382-1.163-.283-1.483.177-.168.225-.248.5-.227.777V68h-1.958c-.002-3.002-.008-6 0-9z"/>
            <path fill-rule="nonzero" d="M184.426 59c.508.008 1.017.01 1.525 0v7.255c0 .536.024 1.071.049 1.607-.45 0-.9-.005-1.35 0-.029-.326-.05-.653-.072-.979-.274.437-.662.812-1.159.973-.775.28-1.64.146-2.295-.357-.65-.502-1.012-1.31-1.095-2.121-.101-.908.052-1.88.59-2.636a2.538 2.538 0 0 1 2.083-1.092c.654-.016 1.347.234 1.72.802.005-1.15.001-2.3.004-3.452zm-1.766 3.891c-.588.175-.948.76-1.048 1.34-.133.706-.065 1.521.419 2.085.52.612 1.596.59 2.079-.065.443-.544.289-1.285.315-1.931a1.431 1.431 0 0 0-.622-1.276c-.332-.224-.764-.247-1.143-.15v-.003z"/>
            <path d="M133.578 59.09c.569-.27 1.37.09 1.41.795.1.611-.44 1.153-1.005 1.113-.53.03-1.027-.464-.98-1.032a.966.966 0 0 1 .575-.877zM210.63 59.06c.344-.106.764-.084 1.045.178.406.356.441 1.086.05 1.468-.434.45-1.28.381-1.59-.19-.309-.509-.065-1.273.494-1.457zM121.03 59.178c1.129-.363 2.329-.112 3.435.227v1.587c-.882-.273-1.809-.553-2.733-.38-.36.058-.76.332-.735.762-.021.433.35.713.688.856.861.371 1.808.58 2.526 1.245.765.68.967 1.891.635 2.858-.28.79-1.01 1.3-1.762 1.497-1.36.394-2.77.034-4.084-.376V65.82c.689.226 1.392.4 2.104.521.574.07 1.221.101 1.722-.253.352-.24.344-.823.041-1.101-.369-.358-.86-.528-1.318-.708-.752-.273-1.523-.64-2.028-1.315-.506-.674-.559-1.642-.193-2.392.341-.7.997-1.18 1.701-1.393zM174.008 59c1.604.011 3.209.015 4.813 0 .005.456.005.91 0 1.366-1.101-.02-2.203 0-3.304-.01v2.323c1.04-.01 2.08 0 3.12-.008v1.349c-1.04-.022-2.08 0-3.12-.01v2.647c1.16-.007 2.319.01 3.478-.01.008.45.005.902 0 1.353-1.665-.007-3.33-.007-4.995 0 .005-3 .008-6 .008-9zM206.906 60.45c.523-.152 1.052-.287 1.573-.45v1.605H210v1.182h-1.52v2.781c.014.353.023.785.345 1.011.328.198.735.107 1.091.061l.018 1.197c-.75.201-1.638.287-2.309-.169-.566-.386-.697-1.112-.727-1.745-.012-1.048 0-2.094-.008-3.142-.297.007-.594.007-.89.008V61.6c.296 0 .593 0 .89.01.017-.387.015-.775.016-1.16zM137.75 62.987a2.376 2.376 0 0 1 1.716-.971c.7-.077 1.465.123 1.925.643.51.553.62 1.317.608 2.02v3.32h-1.954v-2.987c0-.41 0-.859-.255-1.211-.278-.371-.877-.421-1.271-.192a1.057 1.057 0 0 0-.543.897c-.01 1.165 0 2.33 0 3.494-.657-.005-1.316-.006-1.973 0-.01-1.958.008-3.917 0-5.875.554.004 1.108 0 1.662 0 .039.29.066.575.085.862z"/>
            <path fill-rule="nonzero" d="M157.475 62.512a6.307 6.307 0 0 1 3.316-.458c.724.095 1.433.449 1.768 1.034.43.7.325 1.517.337 2.28.014.833-.05 1.672.104 2.498a76.115 76.115 0 0 0-1.836 0 31.24 31.24 0 0 0-.13-.6c-.835.889-2.598 1.007-3.514.153-.659-.618-.683-1.64-.12-2.313.81-.902 2.247-1.034 3.468-1.06.038-.448-.41-.783-.897-.798a5.722 5.722 0 0 0-2.49.418c.004-.386-.004-.77-.006-1.154zm1.861 2.97c-.42.261-.44.914.015 1.154.455.24 1.06.068 1.366-.282.305-.35.174-.804.203-1.202-.538.03-1.133.035-1.584.33z"/>
            <path d="M195.104 62.724c1.07-.824 2.62-.885 3.896-.481-.09.375-.193.745-.283 1.122-.478-.226-1.033-.263-1.557-.204-.666.092-1.217.526-1.422 1.118-.27.762-.116 1.73.612 2.235.696.478 1.656.388 2.422.118.06.36.132.72.217 1.076a5.235 5.235 0 0 1-2.549.227c-.92-.152-1.766-.709-2.14-1.51-.573-1.22-.335-2.822.804-3.701z"/>
            <path fill-rule="nonzero" d="M200.418 62.5c.81-.442 1.77-.578 2.682-.459.635.088 1.251.455 1.528 1.04.364.703.264 1.513.278 2.274.012.837-.047 1.68.094 2.51-.442-.005-.883 0-1.324 0l-.1-.66a2.273 2.273 0 0 1-2.074.769 1.724 1.724 0 0 1-1.251-.791c-.302-.485-.32-1.11-.115-1.634.183-.466.584-.817 1.037-1.026.71-.334 1.51-.396 2.285-.402 0-.413-.18-.868-.609-1.003-.72-.227-1.509-.018-2.155.326-.085-.316-.185-.631-.276-.945zm1.404 2.907c-.505.32-.508 1.22.063 1.472.512.217 1.154-.015 1.443-.478.257-.403.113-.908.146-1.352-.561.024-1.166.034-1.652.358zM215.334 62.068c.823-.154 1.73-.057 2.435.412.627.406 1.035 1.082 1.167 1.796.2 1.067-.054 2.298-.936 3.024-1.106.916-2.913.944-4.023.018-.564-.47-.886-1.17-.954-1.88-.09-.825.085-1.708.613-2.374a2.84 2.84 0 0 1 1.698-.996zm.361 1.013c-.432.097-.77.43-.935.82a2.83 2.83 0 0 0-.096 1.931c.127.419.404.819.823 1.005a1.265 1.265 0 0 0 1.378-.23c.454-.427.596-1.073.596-1.663-.02-.568-.164-1.183-.604-1.587-.31-.284-.76-.366-1.16-.276h-.002z"/>
            <path d="M221.52 63.052c.673-1.04 2.362-1.383 3.467-.691.73.457.993 1.291 1.008 2.053.01 1.195 0 2.39.005 3.584-.554 0-1.109-.004-1.663 0v-3.334c-.01-.417-.088-.872-.426-1.181-.473-.411-1.294-.352-1.742.055a1.286 1.286 0 0 0-.462.962c-.009 1.166 0 2.333 0 3.5-.552-.007-1.102 0-1.652 0-.017-1.957.041-3.916-.055-5.871h1.438c.029.307.054.615.083.923zM133.003 68c-.004-2-.004-4 0-6 .666.004 1.331 0 1.997 0v5.995c-.666.002-1.336-.003-1.997.005zM143 62.005c.637.006 1.275 0 1.912 0 .47 1.225.97 2.437 1.427 3.665.475-1.217.933-2.443 1.401-3.666.621-.004 1.242 0 1.863-.004.312 1.397.637 2.791.934 4.192.391-1.392.756-2.792 1.132-4.187h1.5c.35 1.395.75 2.78 1.067 4.184.337-1.386.589-2.794.9-4.186.621.005 1.243.005 1.864 0-.638 2.064-1.25 4.135-1.88 6.201-.593-.01-1.186 0-1.78-.005-.311-1.244-.647-2.48-.95-3.724-.192.406-.238.864-.38 1.289-.223.812-.438 1.627-.664 2.44a80 80 0 0 0-1.788 0c-.342-1.191-.685-2.382-1.03-3.572-.676 1.753-1.401 3.486-2.097 5.232-.18.471-.5.955-1.013 1.082-.414.09-.84.037-1.258.053-.142-.547-.276-1.096-.419-1.642.37-.02.84.114 1.123-.204.237-.346.312-.774.472-1.154-.79-1.996-1.552-4-2.336-5.994zM163 62c.675.009 1.35.007 2.025 0 .518 1.219 1.005 2.451 1.534 3.668.464-1.23.981-2.445 1.468-3.667.657.004 1.314 0 1.973 0a1960.617 1960.617 0 0 0-3.241 7.571c-.186.461-.397.97-.863 1.238-.502.287-1.114.15-1.665.19-.15-.546-.291-1.095-.443-1.642.396-.026.904.114 1.2-.22.236-.348.322-.762.487-1.141-.834-1.995-1.636-4.005-2.475-5.997zM187.002 62h1.663v3.297c.024.429.088.907.442 1.229.47.406 1.294.328 1.736-.075a1.24 1.24 0 0 0 .438-.982V62h1.665c.024 1.955-.052 3.911.054 5.865a59.26 59.26 0 0 0-1.448 0c-.036-.305-.061-.61-.087-.914-.304.394-.711.74-1.229.9-.821.268-1.85.191-2.493-.372-.562-.5-.73-1.238-.742-1.92-.002-1.186-.001-2.373 0-3.559zM210 62h2v6c-.667-.003-1.334-.003-2 0v-6z"/>
        </g>
    </g>
</svg>
