<svg width="281" height="100" viewBox="0 0 281 100" xmlns="http://www.w3.org/2000/svg"><title>51C4080B-8F9E-4100-9688-4CB82D2180C1</title><g fill="none" fill-rule="evenodd"><path fill="none" d="M0 0h280v100H0z"/><g fill="#5A6978"><path d="M137.168 53.519c0 1.867-.028 3.734.015 5.6.015.694-.207.874-.819.854-1.875-.06-1.57.244-1.578-1.717-.016-3.309-.002-6.617-.005-9.926-.003-2.077-.978-3.117-2.917-3.124-.342-.002-.686.026-1.027-.005-2.253-.208-3.198 1.514-3.155 3.332.085 3.449 0 6.9.043 10.35.011.84-.16 1.146-.996 1.1-1.568-.086-1.395.157-1.396-1.51-.007-3.422.001-6.844-.003-10.265-.004-1.936-.983-2.99-2.773-3.002a91.19 91.19 0 0 0-1.502.002c-1.738.013-2.747 1.065-2.756 2.94-.016 3.535.001 7.07-.013 10.605-.001.395.212 1.002-.245 1.138-.618.18-1.303.15-1.948-.01-.196-.048-.192-.317-.19-.515.014-3.93-.051-7.863.075-11.79.084-2.608 2.126-4.513 4.561-4.555.816-.015 1.633-.004 2.448-.004 1.178 0 2.23.394 3.112 1.234.296.282.467.39.822.045.933-.911 2.067-1.327 3.33-1.277 1.077.043 2.159-.125 3.23.127 2.157.51 3.662 2.476 3.684 4.859.015 1.837.003 3.675.003 5.514M214.143 53.43c0-1.787-.01-3.572.003-5.358.02-2.878 1.964-5.032 4.555-5.064.713-.008 1.427-.005 2.14-.001 2.752.011 4.692 2.06 4.735 5.136.05 3.684.003 7.37.024 11.056.003.653-.227.823-.774.805-1.766-.058-1.564.283-1.57-1.69-.008-3.317.001-6.634-.002-9.951-.003-2.153-.914-3.155-2.86-3.159-.484 0-.968-.008-1.452.002-1.482.031-2.487 1.138-2.493 2.795-.012 3.657-.027 7.313.013 10.97.008.831-.218 1.073-.95 1.04-1.577-.073-1.357.191-1.367-1.565-.01-1.671-.002-3.345-.002-5.017M105.861 57.804c.76 0 1.52.011 2.28-.004 1.143-.023 1.992-.817 2.182-2.017.221-1.407-.206-2.223-1.444-2.694a94.662 94.662 0 0 0-3.34-1.224c-1.772-.6-2.673-1.906-2.72-3.89-.043-1.927.707-3.39 2.294-4.312a4.661 4.661 0 0 1 2.332-.645c1.337-.013 2.672.014 4.007-.014.5-.01.745.148.698.719-.02.253-.022.51 0 .764.049.562-.182.742-.688.732-1.362-.026-2.723-.013-4.086-.008-1.22.007-2.098.782-2.273 1.991-.215 1.485.263 2.31 1.586 2.77 1.118.389 2.235.787 3.351 1.187 1.56.56 2.402 1.76 2.557 3.504.155 1.735-.37 3.188-1.694 4.232a4.97 4.97 0 0 1-3.08 1.101c-1.414.017-2.83-.021-4.243.017-.581.015-.83-.189-.772-.824.024-.251.015-.509.004-.764-.021-.476.177-.645.614-.63.811.028 1.624.009 2.435.009M187.758 57.806c.76-.001 1.52.012 2.28-.003 1.077-.023 1.993-.858 2.165-1.953.227-1.43-.192-2.278-1.39-2.738a91.54 91.54 0 0 0-3.417-1.252c-1.7-.58-2.611-1.821-2.703-3.732-.092-1.88.584-3.365 2.099-4.35.706-.462 1.487-.727 2.307-.748 1.441-.038 2.883-.002 4.323-.027.466-.008.604.215.578.665-.013.197-.023.4.003.594.098.738-.16.996-.867.965-1.309-.06-2.62-.025-3.93-.015-1.24.008-2.053.792-2.235 2.129-.185 1.373.298 2.18 1.562 2.623 1.143.4 2.292.787 3.427 1.21 1.546.58 2.374 1.77 2.51 3.538.132 1.71-.363 3.13-1.655 4.163-.907.726-1.945 1.105-3.074 1.123-1.44.023-2.882-.011-4.324.015-.525.01-.8-.147-.742-.764.026-.281.015-.567.003-.85-.019-.439.165-.606.565-.598.838.019 1.677.007 2.515.005M170.727 50.935c0 1.382-.007 2.763.001 4.145.01 1.724 1.048 2.785 2.737 2.814h.16c1.007.005 1.47.756 1.08 1.733-.087.22-.25.238-.438.276-3.247.643-5.945-1.58-5.953-4.935-.011-4.255.014-8.508-.02-12.762-.005-.733.213-.927.91-.902 1.783.067 1.529-.2 1.505 1.57-.01.686.116.97.858.9.822-.078 1.656.007 2.483-.028.54-.022.732.201.68.717a1.675 1.675 0 0 0 0 .405c.116.765-.16 1.08-.96 1.009-.768-.068-1.55.031-2.321-.029-.634-.05-.752.196-.735.778.039 1.437.013 2.873.013 4.309M156.836 53.55c0-1.786-.007-3.572 0-5.358.018-3.02 1.845-5.17 4.401-5.187.287-.003.573-.001.86-.001 1.178 0 1.463.451 1.187 1.822-.068.34-.251.368-.474.37-.382.003-.766.002-1.148.002-1.798.005-2.661 1.037-2.663 3.198-.002 3.513-.028 7.029.019 10.543.01.89-.22 1.106-.933 1.071-1.438-.073-1.24.139-1.248-1.53-.007-1.643-.001-3.287-.001-4.93M181.303 51.637c0 2.46-.023 4.921.012 7.382.011.751-.163 1.058-.95 1.022-1.718-.081-1.556.243-1.558-1.65-.004-4.723-.001-9.445-.001-14.168 0-1.164.001-1.164 1.103-1.166.19 0 .384.025.57-.005.662-.102.84.216.833.865-.024 2.573-.01 5.148-.01 7.72M149.623 52.12c-.055.813-.013 1.635-.013 2.454 0 .875-.012 1.75.004 2.624.01.406-.065.62-.498.612-1.326-.026-2.653 0-3.979-.023a2.062 2.062 0 0 1-.811-.21c-1.201-.564-1.82-2.19-1.5-3.886.272-1.44 1.265-2.33 2.617-2.336 1.149-.005 2.296.03 3.443-.015.55-.02.784.11.737.78m2.296 6.996c-.026-1.895-.009-3.79-.009-5.686h-.017c0-1.897.05-3.794-.012-5.688-.078-2.301-1.513-4.127-3.563-4.577-1.414-.308-2.856-.07-4.283-.13-.294-.012-.418.168-.426.466-.009.34.015.682-.01 1.018-.043.575.203.733.685.715.817-.031 1.636-.01 2.454-.008 2 .003 2.94 1.108 2.884 3.325-.014.484-.146.628-.573.62-1.304-.025-2.608-.02-3.913-.007-2.711.028-4.686 2.331-4.678 5.438.008 3.062 1.98 5.363 4.646 5.39 2.02.02 4.04-.027 6.06.021.651.015.764-.272.755-.897M206.916 54.6c0 .878-.018 1.756.008 2.632.012.44-.113.59-.519.581-1.295-.024-2.594.023-3.89-.02-1.455-.05-2.473-1.452-2.44-3.284.032-1.801 1.059-3.123 2.485-3.153 1.272-.025 2.544.015 3.814-.017.446-.01.566.159.551.63-.03.876-.009 1.754-.009 2.631m2.3-1.125h-.003c0-1.843.021-3.684-.004-5.527-.039-2.724-1.994-4.876-4.448-4.922-1.02-.018-2.04.036-3.057-.02-.62-.033-.846.208-.763.871.018.139.018.286 0 .425-.085.682.129.98.792.927.76-.06 1.527-.015 2.292-.013 2.028.003 2.98 1.134 2.902 3.385-.015.46-.152.568-.535.562-1.325-.02-2.65-.022-3.974-.004-2.632.033-4.64 2.375-4.652 5.403-.01 3.018 2.001 5.402 4.622 5.433 2.038.025 4.077-.017 6.115.018.59.012.734-.228.724-.841-.03-1.9-.01-3.798-.01-5.697"/></g><path d="M82.077 43.046c-.071.198-.3.11-.457.097-1.696-.134-3.39-.278-5.086-.413a7.44 7.44 0 0 0-.802-.014c-.735.02-1.15.385-1.275 1.114-.082.473-.094.95-.094 1.429v8.172h.008v8.245c0 .211.003.423-.015.632-.042.513-.321.705-.813.557-.56-.169-1.012-.498-1.38-.948-.567-.69-.708-1.516-.71-2.371-.002-.916.037-1.832.05-2.747.034-2.473.058-4.946.098-7.418.027-1.653.052-3.307.04-4.96a2.833 2.833 0 0 0-.155-.883c-.144-.43-.442-.684-.886-.771-.654-.129-1.32-.14-1.981-.19-.541-.043-1.084-.066-1.625-.107-.466-.036-.641-.177-.727-.635a5.723 5.723 0 0 1-.023-2.03c.056-.326.242-.533.58-.603.51-.108 1.028-.138 1.544-.17 1.33-.08 2.655-.033 3.978.124 1.71.204 3.379.575 4.995 1.177a19.758 19.758 0 0 1 4.438 2.329c.136.095.375.173.298.384M73.017 31C62.538 30.99 54.014 39.5 54 49.987c-.013 10.476 8.485 19 18.957 19.013C83.471 69.013 91.98 60.533 92 50.023 92.02 39.55 83.5 31.011 73.018 31" fill="#5A697A"/></g></svg>