<?xml version="1.0" encoding="UTF-8"?>
<svg width="125px" height="90px" viewBox="0 0 125 90" version="1.1" xmlns="http://www.w3.org/2000/svg" xmlns:xlink="http://www.w3.org/1999/xlink">
    <!-- Generator: Sketch 46.2 (44496) - http://www.bohemiancoding.com/sketch -->
    <title>高价值客户</title>
    <desc>Created with Sketch.</desc>
    <defs></defs>
    <g id="首页" stroke="none" stroke-width="1" fill="none" fill-rule="evenodd">
        <g id="Home" transform="translate(-895.000000, -1445.000000)">
            <g id="info1" transform="translate(358.000000, 1290.000000)">
                <g id="聚焦高价值客户" transform="translate(437.000000, 115.000000)">
                    <g id="聚焦" transform="translate(35.000000, 40.000000)">
                        <g id="高价值客户" transform="translate(65.000000, 0.000000)">
                            <g id="Group-7" transform="translate(2.000000, 1.400000)" stroke-width="0.6" stroke="#5A6978" fill-opacity="0" fill="#FFFFFF">
                                <polygon id="Polygon" points="30.47829 0 60.337365 17.2052239 60.337365 51.6156716 30.47829 68.8208955 0.619214982 51.6156716 0.619214982 17.2052239"></polygon>
                                <polygon id="Polygon-Copy" points="90.2619186 0 120.120994 17.2052239 120.120994 51.6156716 90.2619186 68.8208955 60.4028436 51.6156716 60.4028436 17.2052239"></polygon>
                                <polygon id="Polygon-Copy-2" points="60.4045283 17.2702127 90.2636033 34.4754365 90.2636033 68.8858843 60.4045283 86.0911082 30.5454533 68.8858843 30.5454533 34.4754365"></polygon>
                            </g>
                            <g id="Group-8" transform="translate(0.407583, 0.000000)" fill="#5A6978">
                                <ellipse id="Oval-2-Copy-17" cx="91.7890995" cy="2.7" rx="2.70853081" ry="2.7"></ellipse>
                                <ellipse id="Oval-2-Copy-28" cx="32.2014218" cy="2.7" rx="2.70853081" ry="2.7"></ellipse>
                                <ellipse id="Oval-2-Copy-23" cx="91.7890995" cy="71.1" rx="2.70853081" ry="2.7"></ellipse>
                                <ellipse id="Oval-2-Copy-30" cx="61.6943128" cy="19.5" rx="2.70853081" ry="2.7"></ellipse>
                                <ellipse id="Oval-2-Copy-33" cx="32.2014218" cy="36.3" rx="2.70853081" ry="2.7"></ellipse>
                                <ellipse id="Oval-2-Copy-31" cx="61.6943128" cy="54.3" rx="2.70853081" ry="2.7"></ellipse>
                                <ellipse id="Oval-2-Copy-32" cx="61.6943128" cy="87.3" rx="2.70853081" ry="2.7"></ellipse>
                                <ellipse id="Oval-2-Copy-29" cx="32.2014218" cy="71.1" rx="2.70853081" ry="2.7"></ellipse>
                                <ellipse id="Oval-2-Copy-24" cx="91.7890995" cy="36.3" rx="2.70853081" ry="2.7"></ellipse>
                                <ellipse id="Oval-2-Copy-22" cx="121.883886" cy="19.5" rx="2.70853081" ry="2.7"></ellipse>
                                <ellipse id="Oval-2-Copy-26" cx="2.70853081" cy="19.5" rx="2.70853081" ry="2.7"></ellipse>
                                <ellipse id="Oval-2-Copy-25" cx="121.883886" cy="54.3" rx="2.70853081" ry="2.7"></ellipse>
                                <ellipse id="Oval-2-Copy-27" cx="2.70853081" cy="54.3" rx="2.70853081" ry="2.7"></ellipse>
                            </g>
                        </g>
                    </g>
                </g>
            </g>
        </g>
    </g>
</svg>