<?xml version="1.0" encoding="UTF-8"?>
<svg width="104px" height="93px" viewBox="0 0 104 93" version="1.1" xmlns="http://www.w3.org/2000/svg" xmlns:xlink="http://www.w3.org/1999/xlink">
    <!-- Generator: Sketch 46.2 (44496) - http://www.bohemiancoding.com/sketch -->
    <title>引发复利增长</title>
    <desc>Created with Sketch.</desc>
    <defs></defs>
    <g id="首页" stroke="none" stroke-width="1" fill="none" fill-rule="evenodd">
        <g id="Home" transform="translate(-1349.000000, -1448.000000)">
            <g id="info1" transform="translate(358.000000, 1290.000000)">
                <g id="引发复利增长" transform="translate(871.000000, 115.000000)">
                    <g id="增长" transform="translate(16.000000, 43.000000)">
                        <g id="引发复利增长" transform="translate(105.000000, 0.000000)">
                            <g id="Group-7" transform="translate(2.000000, 0.000000)" stroke-width="0.6" stroke="#5A6978" fill-opacity="0" fill="#FFFFFF">
                                <polyline id="Polygon" points="49.2212792 19.2052239 49.2212792 56.6156716 0.776008267 73.8208955"></polyline>
                                <polyline id="Polygon-Copy" points="97.7727867 0 97.7727867 73.8208955 49.3275158 56.6156716"></polyline>
                                <polyline id="Polygon-Copy-2" points="97.77552 39.4754365 97.77552 73.8858843 49.3302491 91.0911082 0.884978236 73.8858843 0.884978236 45.4754365"></polyline>
                            </g>
                            <g id="Group-9" transform="translate(0.000000, 54.000000)" fill="#5A6978">
                                <circle id="Oval-2-Copy-22" cx="51.1999512" cy="2.5" r="2.5"></circle>
                                <circle id="Oval-2-Copy-34" cx="51.5" cy="36.5" r="2.5"></circle>
                                <ellipse id="Oval-2-Copy-37" cx="99.7085308" cy="19.7" rx="2.70853081" ry="2.7"></ellipse>
                                <circle id="Oval-2-Copy-36" cx="3" cy="19.5" r="2.5"></circle>
                            </g>
                            <polyline id="Rectangle-9" stroke="#5A6978" stroke-width="0.6" fill-opacity="0" fill="#FFFFFF" transform="translate(2.828427, 47.828427) scale(1, -1) rotate(45.000000) translate(-2.828427, -47.828427) " points="4.82842712 45.8284271 4.82842712 49.8284271 0.828427125 49.8284271"></polyline>
                            <polyline id="Rectangle-9-Copy" stroke="#5A6978" stroke-width="0.6" fill-opacity="0" fill="#FFFFFF" transform="translate(51.228452, 21.828427) scale(1, -1) rotate(45.000000) translate(-51.228452, -21.828427) " points="53.2284515 19.8284271 53.2284515 23.8284271 49.2284515 23.8284271"></polyline>
                            <polyline id="Rectangle-9-Copy-2" stroke="#5A6978" stroke-width="0.6" fill-opacity="0" fill="#FFFFFF" transform="translate(99.828427, 2.828427) scale(1, -1) rotate(45.000000) translate(-99.828427, -2.828427) " points="101.828427 0.828427125 101.828427 4.82842712 97.8284271 4.82842712"></polyline>
                        </g>
                    </g>
                </g>
            </g>
        </g>
    </g>
</svg>