<?xml version="1.0" encoding="UTF-8"?>
<svg width="61px" height="53px" viewBox="0 0 61 53" version="1.1" xmlns="http://www.w3.org/2000/svg" xmlns:xlink="http://www.w3.org/1999/xlink">
    <!-- Generator: Sketch 46.2 (44496) - http://www.bohemiancoding.com/sketch -->
    <title>技术支持</title>
    <desc>Created with Sketch.</desc>
    <defs></defs>
    <g id="首页" stroke="none" stroke-width="1" fill="none" fill-rule="evenodd">
        <g id="PaaS平台" transform="translate(-1134.000000, -6785.000000)">
            <g id="技术支持" transform="translate(1130.000000, 6779.000000)">
                <rect id="Rectangle" fill-opacity="0" fill="#D8D8D8" x="0" y="0" width="70" height="112"></rect>
                <g transform="translate(5.000000, 7.000000)">
                    <g>
                        <path d="M0.941489362,0 C0.42153617,0 0,0.426663529 0,0.952941176 L0,50.0470588 C0,50.5733365 0.42153617,51 0.941489362,51 L58.0585106,51 C58.5785894,51 59,50.5733365 59,50.0470588 L59,39.8823529 C59,39.3560753 58.5785894,38.9294118 58.0585106,38.9294118 C57.5384319,38.9294118 57.1170213,39.3560753 57.1170213,39.8823529 L57.1170213,49.0941176 L1.88297872,49.0941176 L1.88297872,9.52941176 L57.1170213,9.52941176 L57.1170213,36.0705882 C57.1170213,36.5968659 57.5384319,37.0235294 58.0585106,37.0235294 C58.5785894,37.0235294 59,36.5968659 59,36.0705882 L59,0.952941176 C59,0.426663529 58.5785894,0 58.0585106,0 L0.941489362,0 Z M1.88297872,1.90588235 L36.7180851,1.90588235 L36.7180851,7.62352941 L1.88297872,7.62352941 L1.88297872,1.90588235 L1.88297872,1.90588235 L1.88297872,1.90588235 L1.88297872,1.90588235 Z M38.6010638,7.62352941 L38.6010638,1.90588235 L57.1170213,1.90588235 L57.1170213,7.62352941 L38.6010638,7.62352941 L38.6010638,7.62352941 L38.6010638,7.62352941 Z M47.8904255,3.74823529 C47.3367043,3.74823529 46.8861702,4.20424941 46.8861702,4.76470588 C46.8861702,5.32516235 47.3367043,5.78117647 47.8904255,5.78117647 C48.4441468,5.78117647 48.8946809,5.32516235 48.8946809,4.76470588 C48.8946809,4.20424941 48.4441468,3.74823529 47.8904255,3.74823529 L47.8904255,3.74823529 L47.8904255,3.74823529 Z M42.743617,3.74823529 C42.1898957,3.74823529 41.7393617,4.20424941 41.7393617,4.76470588 C41.7393617,5.32516235 42.1898957,5.78117647 42.743617,5.78117647 C43.2973383,5.78117647 43.7478723,5.32516235 43.7478723,4.76470588 C43.7478723,4.20424941 43.2973383,3.74823529 42.743617,3.74823529 L42.743617,3.74823529 L42.743617,3.74823529 Z M53.037234,3.74823529 C52.4835128,3.74823529 52.0329787,4.20424941 52.0329787,4.76470588 C52.0329787,5.32516235 52.4835128,5.78117647 53.037234,5.78117647 C53.5909553,5.78117647 54.0414894,5.32516235 54.0414894,4.76470588 C54.0414894,4.20424941 53.5909553,3.74823529 53.037234,3.74823529 L53.037234,3.74823529 L53.037234,3.74823529 Z" id="browser" stroke="#FFFFFF" stroke-width="0.4" fill="#767D85"></path>
                        <g id="Group-4" transform="translate(16.000000, 15.000000)" fill="#6ED0CE">
                            <path d="M5.38438082,1.88417556 L11.6679254,8.17512177 C11.972676,8.48023141 12.4667904,8.48023141 12.771437,8.17512177 C13.0761877,7.87001213 13.0761877,7.37531575 12.771437,7.07031028 L5.93800945,0.228833362 C5.63398711,-0.0755470989 5.14132942,-0.0763804472 4.83637066,0.226958329 L0.230463407,4.80714467 C0.0832383514,4.95350146 0.0004177547,5.15246337 1.57079697e-06,5.36017543 C-0.000414613106,5.56788749 0.0818857537,5.76705773 0.22859058,5.91393536 L3.24686029,8.93576041 C3.24790075,8.9368021 7.07772907,12.7711417 7.07772907,12.7711417 C7.23005238,12.9236445 7.42982065,13 7.62948488,13 C7.82914911,13 8.02891738,12.9237486 8.18124069,12.7711417 C8.48599135,12.4660321 8.48599135,11.9713357 8.18124069,11.6663302 L7.92143789,11.4062214 L9.70717897,9.61837683 C10.0119296,9.31326719 10.0119296,8.81857081 9.70717897,8.51356534 C9.40242831,8.2084557 8.90831397,8.2084557 8.60366735,8.51356534 L6.81792627,10.3014099 L4.90275199,8.38397968 L6.68849308,6.5961351 C6.99324374,6.29102546 6.99324374,5.79632909 6.68849308,5.49132361 C6.38374241,5.18621397 5.88962807,5.18621397 5.58498146,5.49132361 L3.79924038,7.27916819 L1.88593893,5.36361299 L5.38438082,1.88417556 L5.38438082,1.88417556 L5.38438082,1.88417556 L5.38438082,1.88417556 Z" id="Path" stroke="#FFFFFF" stroke-width="0.5"></path>
                            <path d="M22.073942,25.7712755 C22.2204206,25.917755 22.4189527,26 22.6261257,26 C22.8332986,26 23.0317266,25.917755 23.1783093,25.7712755 L27.7713029,21.1781502 C28.0762324,20.8732189 28.0762324,20.3788117 27.7713029,20.0739845 L20.926058,13.2286985 C20.6210244,12.9237672 20.1267243,12.9237672 19.8217948,13.2286985 C19.5168653,13.5336298 19.5168653,14.028037 19.8217948,14.3328642 L26.1149602,20.6260674 L22.6261257,24.1149228 L20.7124304,22.2012161 L22.4992192,20.4143124 C22.8041487,20.1093811 22.8041487,19.6149739 22.4992192,19.3101467 C22.1941856,19.0052154 21.6998855,19.0052154 21.394956,19.3101467 L19.6081672,21.0969462 L17.6944719,19.1832395 L19.4813648,17.3964399 C19.7862943,17.0915086 19.7862943,16.5971014 19.4813648,16.2922742 C19.1764354,15.9873429 18.6821352,15.9873429 18.3771017,16.2922742 L16.5903128,18.0790738 L16.3329603,17.8217197 C16.0279267,17.5167884 15.5336266,17.5167884 15.2286971,17.8217197 C14.9237676,18.126651 14.9237676,18.6210582 15.2286971,18.9258854 L16.0380251,19.7353223 C16.0381292,19.7354264 22.073942,25.7712755 22.073942,25.7712755 Z" id="Path" stroke="#FFFFFF" stroke-width="0.5"></path>
                            <path d="M20.6125494,4.83121845 L23.1688638,7.38752189 L8.86566703,21.6906573 L6.30935261,19.1343539 L20.6125494,4.83121845 Z M24.1936373,2 C24.6771725,2 25.1311478,2.18755795 25.4717945,2.52829768 C25.8123468,2.86884852 26,3.32282187 26,3.80635496 C26,4.28998249 25.8124412,4.7438614 25.4717001,5.08460112 L24.1705938,6.38570178 L21.6142794,3.82939833 L22.9154801,2.52829768 C23.2560324,2.18765239 23.7100077,2 24.1936373,2 Z M5.54759585,20.3759573 L7.62405828,22.4524108 L4,24 L5.54759585,20.3759573 Z" id="Combined-Shape"></path>
                        </g>
                    </g>
                </g>
            </g>
        </g>
    </g>
</svg>