<svg xmlns="http://www.w3.org/2000/svg" width="280" height="100" viewBox="0 0 280 100">
    <g fill="none" fill-rule="evenodd">
        <path fill="none" d="M0 0h280v100H0z"/>
        <g fill="#5A6978">
            <path d="M81.118 25h1.545c3.772.263 7.503.947 11.123 2.038 6.87 2.278 13.36 5.624 19.4 9.592-7.544.009-15.086-.01-22.63.009a624.301 624.301 0 0 0-4.462 7.095c4.43.013 8.86 0 13.291.006-4.189 4.994-8.411 9.962-12.603 14.951 15.871.005 31.74.001 47.61-.012 1.322 2.243 1.912 4.866 1.992 7.45.12 2.254-.961 4.458-2.622 5.948-2.252 2.117-5.452 2.713-8.432 2.923h-1.075c-1.328-.048-2.663-.072-3.973-.325-8.464-1.385-16.506-4.777-23.837-9.16a81.707 81.707 0 0 1-11.365-8.198c-4.769-4.14-9.168-8.836-12.292-14.356-1.452-2.75-2.718-5.72-2.788-8.875v-.067c0-2.151.794-4.317 2.38-5.81 2.352-2.165 5.598-3.083 8.738-3.209zM113.443 36.494c5.19-.032 10.381-.014 15.573-.008-.35.521-.68 1.064-1.002 1.61-4.211.02-8.43.036-12.64-.02-.659-.502-1.346-.973-1.931-1.582zM156.136 37.308c1.888-.028 3.772 0 5.667-.013-.112.837-.265 1.668-.398 2.502-1.581-.009-3.163 0-4.736-.009a229.361 229.361 0 0 1-3.882 3.245c.153-1.014.293-2.028.44-3.042.032-.342.365-.513.584-.727.785-.639 1.52-1.349 2.325-1.956zM162.9 38.118c1.274-.008 2.548 0 3.821 0-.522 3.283-1.064 6.557-1.614 9.833-1.152-.865-2.193-1.847-3.304-2.756.366-2.362.728-4.72 1.098-7.077zM171.92 38.115c1.272.016 2.545-.01 3.818.015-.56 3.274-1.07 6.547-1.63 9.82-1.096-.95-2.272-1.834-3.288-2.85.397-2.324.715-4.659 1.1-6.985zM187.068 37.762c.81-.802 2.02-.295 3.022-.439 2.062 2.282 4.095 4.592 6.14 6.888-.344 2.335-.708 4.666-1.04 7.007-1.08.021-2.162.007-3.242.007.292-2.296.6-4.592.88-6.888-1.398-1.503-2.738-3.061-4.128-4.573-1.32 1.007-2.61 2.054-3.946 3.04.11-1.081.28-2.155.41-3.234.043-.18 0-.416.173-.536.57-.436 1.16-.843 1.731-1.272zM194.073 37.295c.992.008 1.984.008 2.976 0-.22 1.914-.478 3.824-.707 5.738-.842-1.09-1.686-2.18-2.572-3.217.09-.84.16-1.688.303-2.52zM201.49 37.327c3.16-.069 6.33 0 9.494-.03v.124c-.162.787-.257 1.585-.382 2.378-2.78.018-5.565-.036-8.343.025-1.233 1.01-2.362 2.16-3.57 3.209.185-1.278.305-2.571.565-3.832.715-.663 1.485-1.264 2.236-1.874zM180.678 37.31c1.359-.027 2.722-.01 4.076-.01-.13.766-.22 1.535-.347 2.3-.014.2-.215.298-.354.413-1.413.998-2.8 2.028-4.217 3.02.268-1.91.587-3.812.842-5.723zM141.018 38.115h11.769c-.127.775-.247 1.551-.381 2.327-1.532-.006-3.064 0-4.596-.008-1.285 1.145-2.555 2.311-3.87 3.418.118-1.137.237-2.275.374-3.412h-3.822c.184-.774.33-1.555.526-2.325z"/>
            <path d="M115.902 38.126c3.825-.025 7.65 0 11.475 0-.326.536-.663 1.072-.961 1.626-2.894 0-5.79.015-8.683-.03-.628-.496-1.202-1.095-1.831-1.596zM119.18 40.592c2.186.02 4.372-.016 6.558-.018a14 14 0 0 1-.769.794c-1.303.018-2.605 0-3.907.014-.802.1-1.28-.498-1.882-.79zM153.039 44.156a732.422 732.422 0 0 0 3.63-2.763c-.378 2.47-.767 4.94-1.183 7.405 1.56 0 3.119-.021 4.678.01-.146.803-.298 1.606-.44 2.41-1.679.012-3.358 0-5.037.007-.29.042-.46-.218-.647-.378-.677-.675-1.431-1.275-2.073-1.987.26-1.39.467-2.797.702-4.195.003-.226.2-.375.37-.51zM179.936 44.498a402.722 402.722 0 0 1 3.998-3.105c-.455 3.258-.924 6.514-1.407 9.768-1.135.137-2.347.02-3.51.057.298-2.24.621-4.475.919-6.72zM185.256 44.064c1.203-.884 2.387-1.795 3.596-2.67-.462 3.282-.983 6.556-1.472 9.836h-3.446c.279-2.218.603-4.43.904-6.645-.002-.255.244-.38.418-.521zM198.02 44.288c1.16-.96 2.292-1.951 3.467-2.895-.364 2.459-.821 4.905-1.193 7.362 2.124-.008 4.247 0 6.372 0 .887-.707 1.787-1.394 2.678-2.093-.22 1.522-.495 3.038-.728 4.559-3.078.011-6.156.011-9.233 0-.743-.838-1.567-1.605-2.334-2.421.195-1.33.395-2.658.585-3.987.008-.237.227-.373.386-.525zM143.56 44.555c1.172-1.044 2.302-2.138 3.49-3.162-.456 3.283-.958 6.559-1.443 9.837h-3.476c.32-2.012.643-4.023.97-6.032.019-.29.28-.458.46-.643zM120.82 43.036c1.092-.008 2.186 0 3.278.007-.3.266-.585.541-.904.799-.361-.016-.753.053-1.096-.037-.435-.25-.836-.525-1.278-.77z"/>
            <path d="M157.216 43.037c1.255-.01 2.51 0 3.768 0-.15.54-.229 1.095-.41 1.627-1.229-.004-2.459-.001-3.689.008.096-.548.225-1.09.33-1.635zM203.917 43.033c2.08.009 4.163 0 6.247.007-.182.804-.197 1.67-.457 2.44-1.34 1.107-2.655 2.248-4.048 3.29.153-1.213.342-2.421.515-3.631-.855-.008-1.712 0-2.567 0 .094-.705.18-1.41.31-2.106zM107.335 43.87c4.977-.02 9.954-.023 14.931-.009.671.433 1.192 1.12 1.832 1.62-6.01.02-12.021.008-18.032 0 .422-.54.836-1.085 1.27-1.611zM104.426 47.929c.448-.62.763-1.78 1.58-1.598 6.403.019 12.808-.018 19.217.017.494.462.902 1.055 1.334 1.603-7.375-.009-14.753-.016-22.13-.022zM161.453 46.311c.998.826 1.993 1.664 2.925 2.548 1.6.028 3.202-.01 4.802.02a189.98 189.98 0 0 1-.286 2.347c-1.625-.008-3.25.019-4.875-.011-1.027-.75-2.073-1.49-3.035-2.315.187-.858.319-1.725.469-2.589zM170.47 46.311c.997.842 1.983 1.697 2.968 2.553 1.586.017 3.172 0 4.759.009-.1.785-.17 1.575-.302 2.357-1.637-.012-3.275 0-4.913-.008-.965-.79-1.998-1.503-2.982-2.271.156-.88.304-1.762.47-2.64zM103.9 48.777c7.977 0 15.955-.02 23.932.011.397.534.815 1.045 1.184 1.606-8.742.032-17.486.007-26.23 0 .388-.53.718-1.108 1.114-1.617zM101.437 51.244c9.4-.02 18.8-.02 28.2 0 .335.542.704 1.055 1.019 1.613-10.109.011-20.218.014-30.328.01.357-.56.728-1.097 1.11-1.623zM98.954 53.707c10.8-.024 21.602-.024 32.405 0 .33.523.62 1.083.936 1.62-11.475 0-22.95-.003-34.426-.012.363-.538.718-1.078 1.085-1.608zM96.23 56.967c.278-.29.602-.56.964-.803 11.89-.02 23.78 0 35.662-.01.68-.073.728.539 1.078.807-12.567.003-25.136.005-37.704.006zM166.44 59.44c.548-.022 1.097-.012 1.648-.008l.205.41c1.661.04 3.324 0 4.986.019-.078.403-.148.807-.26 1.205-4.012-.006-8.024 0-12.035 0 .084-.402.158-.805.262-1.203h4.674c.274-.001.363-.28.52-.423zM176.913 59.433c.7.017 1.406-.042 2.103.03-.168.528-.244 1.075-.393 1.603h-2.066c.102-.549.243-1.089.356-1.633zM193.453 59.426h1.838a6.12 6.12 0 0 1-.407.682c1.126.118 2.267.02 3.4.052.115-.222.222-.448.32-.678.556-.012 1.112 0 1.669-.01.047.22-.024.502.118.68 1.07.021 2.144 0 3.216.008-.076.441-.156.883-.236 1.324-2.895.007-5.792.038-8.685-.016.076-.354.164-.7.218-1.055-.024-.118-.236-.242-.236 0-.218.517-.642.93-.793 1.473-.541 3.003-1.07 6.01-1.625 9.01-.59 0-1.18.018-1.758-.01.422-2.5.897-4.991 1.33-7.49h-.742c.086-.484.175-.967.27-1.45.22-.071.472-.117.611-.33.513-.723.985-1.469 1.492-2.19zM146.671 59.426h11.854c-.07.518-.16 1.032-.236 1.549-1.674.045-3.35.018-5.025.013-.222.875-.323 1.78-.494 2.667 1.677.02 3.355-.01 5.03.037-.097.504-.17 1.01-.264 1.514-1.53 0-3.059-.013-4.595-.022a293.759 293.759 0 0 0 2.118 3.69c.328.639 1.158.422 1.736.446-.118.512-.161 1.037-.294 1.544a9.569 9.569 0 0 1-2.282-.07c-.487-.103-.805-.533-1.044-.946-.596-1.045-1.176-2.102-1.774-3.146-1.286 1.141-2.353 2.508-3.604 3.683-.919.72-2.139.41-3.207.498.094-.522.139-1.055.285-1.566.823.12 1.803 0 2.368-.69 1.007-1.14 2.025-2.27 3.024-3.417-1.51-.014-3.02-.011-4.529-.028.078-.5.169-.997.247-1.497 1.603-.017 3.205.017 4.808.01.202-.905.343-1.824.52-2.735-1.646-.006-3.293.009-4.94-.007.109-.506.195-1.016.298-1.527z"/>
            <path fill-rule="nonzero" d="M179.893 59.434c2.986-.01 5.972-.01 8.96 0a9.937 9.937 0 0 1-.205 1.06c-.392.482-.891.857-1.291 1.332l1.092.012c-.35 1.83-.64 3.673-.966 5.51-.1.785-.553 1.587-1.314 1.84-.669.113-1.35.061-2.023.068.075-.473.16-.943.239-1.415.432-.058.892.066 1.305-.124.014-.141.03-.283.05-.424h-1.81c-.143.647-.224 1.306-.358 1.956-.583.012-1.165.012-1.746 0 .109-.652.239-1.3.325-1.955-.635 0-1.269-.008-1.903.006-.15.644-.224 1.304-.359 1.952-.565.009-1.128.007-1.692 0 .406-2.482.854-4.943 1.27-7.417.406 0 .812 0 1.218-.013-.158-.19-.321-.372-.486-.552.735-.027 1.47 0 2.205-.016.698.831 1.781.54 2.718.564.372-.278.664-.663.997-.992-2.155.012-4.31.012-6.467 0 .071-.464.154-.928.241-1.392zm1.042 3.804c-.034.216-.065.432-.097.648.638 0 1.276.006 1.911 0 .042-.211.083-.424.12-.633-.64-.034-1.287-.019-1.934-.015zm3.683 0c-.034.215-.065.432-.096.648.606 0 1.214.008 1.82-.007.037-.213.077-.426.12-.637-.618-.014-1.232-.01-1.844-.005zm-4.03 2.058c-.036.199-.073.399-.107.597.642.009 1.285.013 1.929 0 .035-.2.072-.4.109-.6a41.773 41.773 0 0 0-1.932.002v.001zm3.693-.012a10.53 10.53 0 0 0-.113.61c.607.008 1.215.01 1.823 0 .036-.2.072-.402.11-.601-.603-.014-1.213-.008-1.82-.014v.005z"/>
            <path d="M162.764 61.08c.442-.013.885-.01 1.33-.014.285.58.441 1.219.71 1.808 1.573.02 3.137 0 4.706.007.422-.587.799-1.208 1.23-1.787h1.49c-.092.595-.217 1.182-.294 1.778.448 0 .894 0 1.343.01-.084.484-.167.97-.242 1.456-4.018.014-8.035 0-12.053 0 .078-.485.165-.97.25-1.454.411-.016.823 0 1.234-.041.095-.581.187-1.173.296-1.762zM176.62 61.888c.792-.006 1.585 0 2.377 0-.4 2.129-.793 4.26-1.179 6.392-.142.562.214 1.247.876 1.195 2.838.06 5.68.008 8.52.026-.08.448-.163.895-.244 1.344a389.67 389.67 0 0 1-8.587 0c-.51.062-.912-.237-1.254-.561-.532.662-1.432.64-2.211.602.078-.464.166-.926.257-1.387.203-.016.404-.056.597-.119.387-1.946.728-3.903 1.092-5.852l-.536-.013c.086-.544.188-1.085.292-1.627zM194.84 61.885h8.767c-.087.542-.174 1.084-.255 1.628-2.92 0-5.843.035-8.762-.016.088-.535.165-1.076.25-1.612zM194.056 64.345c2.91.013 5.82-.018 8.73.015-.084.54-.17 1.08-.252 1.62-2.922 0-5.842.007-8.764 0 .096-.547.176-1.094.286-1.635z"/>
            <path fill-rule="nonzero" d="M161.206 65.164c3.75.02 7.502 0 11.253.012-.267 1.494-.515 2.993-.803 4.482-.155.757-.914 1.272-1.66 1.225-3.278.034-6.555.01-9.832.012.353-1.91.642-3.833 1.042-5.731zm1.604 1.378c-.061.297-.116.591-.163.897 2.504-.01 5.013.026 7.513-.017.05-.297.104-.591.155-.89-2.502.003-5.004-.015-7.505.01zm-.405 2.188c-.048.269-.087.54-.117.812h7.217c.386-.026.35-.536.42-.815-2.5.002-5.011-.013-7.52.003zM194.525 66.805c2.754.011 5.508-.008 8.262 0-.138.794-.297 1.582-.433 2.375-.09.443-.165.928-.492 1.263-.336.393-.892.45-1.372.456-2.24 0-4.48.006-6.72 0 .269-1.367.465-2.738.755-4.094zm1.494 1.357c-.086.47-.168.94-.246 1.41 1.299-.008 2.598 0 3.897-.007.298-.023.644.03.878-.202.07-.404.144-.809.194-1.215-1.575.003-3.15-.02-4.723.014z"/>
        </g>
    </g>
</svg>
