<svg xmlns="http://www.w3.org/2000/svg" width="280" height="100" viewBox="0 0 280 100">
    <g fill="none" fill-rule="evenodd">
        <path fill="#FFF" fill-opacity="0" d="M0 0h280v100H0z"/>
        <g fill="#5A6978">
            <path fill-rule="nonzero" d="M139.458 10.027c1.054-.22 1.565.978 2.267 1.516 3.683 3.365 8.747 4.438 12.91 7.042 2.62 1.61 4.29 4.538 4.473 7.593.196 3.65.268 7.308.391 10.954-.05 3.325-.195 6.65-.299 9.975-.016 1.706-.229 3.44-.943 5.005-1.191 2.794-3.824 4.624-6.554 5.732-3.791 1.866-8.137 3.13-10.934 6.497-.456.575-1.405.755-1.913.145-3.501-4.08-8.998-5.232-13.461-7.886-2.882-1.462-4.89-4.466-5.017-7.709-.196-5.545-.214-11.096-.247-16.646-.056-2.497.09-4.995.436-7.47a8.843 8.843 0 0 1 4.339-6.237c2.98-1.67 6.161-2.934 9.206-4.481 1.49-.783 2.934-1.724 4.051-2.989.382-.383.732-.886 1.295-1.04zm-13.846 10.017c-2.152 1.357-3.595 3.783-3.638 6.343-.112 6.913-.092 13.827-.03 20.734-.021 1.486.082 3.02.73 4.383.868 1.966 2.64 3.349 4.532 4.264 4.252 2.234 9.193 3.535 12.506 7.22 3.944-4.292 9.962-5.344 14.653-8.517 2.036-1.426 3.153-3.912 3.096-6.374.102-6.78.088-13.561.063-20.342.027-1.37-.102-2.755-.63-4.026-.878-2.226-2.84-3.832-4.976-4.792-4.211-2.054-8.91-3.52-12.207-7.02-3.778 4.135-9.497 5.256-14.1 8.127z"/>
            <path d="M98.37 33.763c-1.969-1.872-3.047-5.16-1.286-7.528.607.428 1.142.95 1.586 1.545 4.05 5.281 9.606 9.23 15.607 12.006 1.87.814 3.256 2.854 2.934 4.921-.196.632-.965.358-1.4.182-2.626-1.119-5.282-2.163-7.78-3.57a41.727 41.727 0 0 1-9.66-7.556zM181.007 27.522c.405-.487.88-.91 1.41-1.254.979 1.37 1.094 3.196.542 4.757-.551 1.56-1.848 2.71-3.008 3.851-4.68 4.528-10.33 8.112-16.55 10.1-.41.142-1.124.208-1.173-.392-.196-1.706.72-3.439 2.173-4.329 1.201-.733 2.531-1.224 3.75-1.932 4.915-2.729 9.447-6.293 12.856-10.801zM100.694 37.417c.965.245 1.653.988 2.42 1.565a46.889 46.889 0 0 0 7.343 4.595c1.222.54.978 2.098 1.205 3.186-3.263-1.094-6.297-2.87-9.03-4.949-1.304-.988-2.536-2.69-1.938-4.397zM177.25 38.244c.42-.363.906-.645 1.43-.83.69 1.728-.573 3.461-1.915 4.45-2.71 2.069-5.737 3.807-8.97 4.89.219-1.061-.05-2.597 1.136-3.13a42.756 42.756 0 0 0 8.319-5.38zM103.302 43.625c.53.103 1.042.283 1.52.534 2.443 1.262 4.92 2.463 7.301 3.84 1.021.548 1.215 1.803 1.69 2.758a5.647 5.647 0 0 1-1.668-.444c-2.183-.998-4.41-1.923-6.52-3.073-1.015-.528-1.63-1.537-2.245-2.459-.266-.334-.115-.776-.078-1.156zM168.329 47.506c2.738-1.013 5.034-2.98 7.824-3.806.195 1.328-.836 2.411-1.76 3.21-2.152 1.251-4.47 2.196-6.714 3.272a5.915 5.915 0 0 1-1.876.575c.311-1.39 1.078-2.801 2.526-3.25zM112.444 44.637c1.316.16 2.515.852 3.795 1.197 1.22.225 1.451 1.864.956 2.789-1.046.068-2.018-.495-3.012-.759-1.213-.309-2.044-1.483-2.095-2.703.01-.204.088-.563.356-.524zM166.817 44.684c.38-.045.586.338.536.676-.151 1.107-.902 2.175-2.013 2.483-.996.277-1.956.803-3.005.82-.559-.457-.262-1.272-.176-1.873.104-.71.908-.84 1.462-1.048 1.083-.298 2.083-.878 3.196-1.058zM114.253 48.98c.832-.132 1.65.28 2.44.506.962.195 1.308 1.621.733 2.306-1.397.18-2.801-.763-3.368-2.017-.079-.282-.231-.747.195-.794zM164.507 48.99c.375-.144 1.183-.144 1.015.454-.429 1.44-1.943 2.467-3.433 2.389-.548-.403-.358-1.307-.08-1.833.626-.685 1.655-.737 2.498-1.01zM106.351 49.12c.451-.04.906.027 1.326.195 1.956.783 3.912 1.53 5.815 2.42.857.358 1.201 1.29 1.612 2.046-.814.149-1.612-.117-2.392-.315-2.167-.565-4.348-1.436-5.946-3.057-.36-.34-.362-.851-.415-1.29zM171.184 49.578c.577-.21 1.174-.624 1.808-.458.328.414-.043.86-.284 1.207-.958 1.304-2.508 1.942-3.978 2.482-1.317.467-2.643.997-4.05 1.109 0-.83.235-1.786 1.094-2.12 1.796-.754 3.636-1.409 5.41-2.22zM115.975 52.47a2.465 2.465 0 0 1 2.542 1.48c.167.343.022.885-.444.828-.937-.02-2.095-.307-2.478-1.269-.152-.35-.017-.94.38-1.039zM162.936 52.476c.522-.156 1.015.141.997.716-.219 1.201-1.69 1.806-2.79 1.526-.439-.076-.302-.587-.173-.874.382-.736 1.168-1.203 1.966-1.368z"/>
            <path fill-rule="nonzero" d="M145.142 73.607c.31-.603.978-.867 1.489-1.272.502.403 1.173.677 1.477 1.274.264.87.215 1.887-.349 2.636l.599.49c-.366.743-1.119.336-1.737.265-.612.061-1.37.482-1.715-.271.195-.165.39-.325.586-.484-.563-.755-.592-1.766-.35-2.638zm1.086 1.868c1.093.444.876-.865.88-1.543l-.602-.333c-.484.509-.433 1.242-.278 1.876z"/>
            <path d="M119.41 73.517c-.142-1.047 1.885-1.228 1.889-.174a3.34 3.34 0 0 1-.824.522c0 2.167.051 4.338-.02 6.506 0 .563-1.034.567-1.03 0-.065-2.285-.031-4.573-.016-6.854z"/>
            <path fill-rule="nonzero" d="M123.875 73.214c.405-.622 1.046-.62 1.44 0 .598.021 1.214-.053 1.803.088a.481.481 0 0 1-.12.905c-.686.094-1.384.028-2.073.098.517.634 1.473.159 2.048.689.329.333.639.685.93 1.052a2.795 2.795 0 0 1-2.968 1.37c-.022.165-.063.498-.084.664 1.187.454 2.42 1.062 3.155 2.136.045.52-.634.736-.964.391a8.182 8.182 0 0 0-2.467-1.545c-.606.937-1.58 1.786-2.77 1.696-.375.021-.453-.43-.39-.712.703-.352 1.496-.563 2.047-1.164-.614-.164-2.087.296-1.956-.733.57-.761 1.76-.024 2.469-.587a3.15 3.15 0 0 1-2.739-1.512c.306-.388.64-.753.998-1.094.587-.467 1.492-.029 1.999-.645-.755-.221-2.7.436-2.385-.89.622-.336 1.36-.147 2.027-.207zm-1.039 2.507c-.021.147-.068.44-.09.587.391.043.806.072 1.211.102.012-.254.023-.509.037-.761-.387.026-.773.05-1.158.072zm2.263-.058c0 .252-.011.504-.015.759.545-.022 1.476.082 1.302-.75-.43.002-.85 0-1.287-.002v-.007z"/>
            <path d="M130.53 73.343c.132-.648.926-.491 1.411-.556.822.024 1.688-.248 2.48.041.535.892-.74.953-1.316.978v.853c.587.094 1.49-.23 1.792.462-.06.47-.573.534-.925.704.244.8.557 1.576.935 2.322-.924 1.126-1.512-.558-1.8-1.305-.027 1.174.045 2.347-.023 3.52 0 .588-1.072.578-1.05-.01-.083-1.065 0-2.135-.036-3.2-.391.877-.66 1.844-1.26 2.614-.31.391-1.095 0-.878-.483.526-1.132 1.062-2.265 1.37-3.48-.337-.16-1.006-.146-.965-.665.174-.733 1.174-.361 1.733-.479v-.806c-.487-.053-1.354.204-1.469-.51z"/>
            <path fill-rule="nonzero" d="M135.439 74.497c-.057-.92.911-1.272 1.512-1.745.586.48 1.564.83 1.517 1.747.018 1.506.018 3.016 0 4.522.04.912-.923 1.26-1.513 1.735-.605-.466-1.565-.816-1.516-1.735-.02-1.507-.02-3.015 0-4.524zm1.154-.262c-.12 1.69-.045 3.393-.026 5.085h.765c.025-1.733.053-3.468-.018-5.2-.238.036-.483.06-.721.115z"/>
            <path d="M143.243 72.86a.507.507 0 0 1 .89.287c.082 1.174.055 2.347.02 3.521.06.567-.705.76-1.014.344-.123-.64-.054-1.297-.066-1.942-.391.587-.704 1.244-1.217 1.74a.554.554 0 0 1-.772-.533 18.96 18.96 0 0 1 .025-2.729c.063-.46.73-.516.978-.17.067.355.113.713.137 1.074.309-.548.595-1.123 1.019-1.592z"/>
            <path fill-rule="nonzero" d="M150.81 75.01c.629-.803.918-2.054 2.08-2.25a27.122 27.122 0 0 1 4.293-.026c1.242.122 1.565 1.446 2.22 2.273-.45.536-.68 1.22-1.144 1.745-.696.68-1.74.524-2.625.561v.472c1.096.035 2.197-.06 3.288.045.474.03.587.555.301.878-.659.196-1.353.114-2.028.176.354.751 2.267.89 1.502 1.86-1.216.186-2.188-.853-2.632-1.876l-.401-.091c-.02.586.029 1.173-.079 1.75-.172.37-.76.333-.978.028a10.601 10.601 0 0 1-.058-1.708l-.372-.035c-.464 1.107-1.907 2.632-3.096 1.565.586-.587 1.369-.879 1.934-1.49-.669-.058-1.355.019-2.005-.163a.489.489 0 0 1 .296-.886c1.081-.104 2.17-.012 3.256-.043v-.478c-.83-.035-1.776.116-2.478-.434-.587-.5-.784-1.295-1.273-1.874zm2.033-1.121c-.573.39-.45 1.189-.36 1.774.327.837 1.383.586 2.087.64v-.717c-.526-.05-1.064-.135-1.492-.47.274-.61.921-.645 1.502-.674-.01-.254-.018-.507-.024-.757-.573.037-1.187-.053-1.713.204zm2.815-.206c-.014.25-.028.505-.04.76.468.1 1.354-.085 1.348.625-.133.577-.896.391-1.332.509v.725c.544-.03 1.121.055 1.643-.143.648-.334.56-1.203.446-1.803-.305-.83-1.36-.612-2.065-.673z"/>
            <path d="M163.765 74.896c-.084-1.215 1.035-2.234 2.216-2.205 1.301 0 2.61-.06 3.912.03.572.013.56.966-.01.958-1.355.104-2.72-.07-4.072.073a.978.978 0 0 0-.913.978c-.05 1.985.017 3.972-.03 5.958-.37.011-1.028.252-1.064-.321-.093-1.821-.021-3.648-.039-5.471zM109.41 73.72c.294-.234.6-.532 1.012-.487 1.871.012 3.747-.049 5.617.03a.509.509 0 0 1 .196.978c-.879.138-1.774.035-2.658.06l-.038 1.223c1.037.023 2.08-.06 3.114.037.505.037.614.83.108.968-1.029.16-2.08.024-3.116.07a5.893 5.893 0 0 0 2.858 3.21c.692.217.285 1.225-.37.95-1.44-.474-2.478-1.707-3.22-2.98-.653 1.234-1.59 2.402-2.894 2.975-.372.131-.65-.215-.95-.362 1.175-1.138 2.647-2.09 3.074-3.794-.882-.024-1.76.05-2.649-.036-.586 0-.586-1 0-1.005.963-.09 1.93-.012 2.895-.035.02-.409.037-.816.057-1.22-1.007-.146-2.363.424-3.036-.582zM162.156 73.216c.377-.163.76.178.84.54-.12.406-.61.739-.991.436-.427-.221-.284-.865.15-.976z"/>
            <path d="M165.796 75.665c-.04-.734.65-1.33 1.359-1.315.908-.021 1.82-.049 2.727.018.424-.018.36.524.524.782a8.579 8.579 0 0 1-1.565.25l.033 1.51c.587-.326 1.48-.537 1.51.407-.471.294-.968.544-1.435.84.19.832.71 1.552 1.441 1.993-.103.749-.876.76-1.346.297-1.465-1.256-1.247-3.388-1.32-5.125-.278.026-.551.059-.823.098-.07 1.637.035 3.276-.05 4.912.036.573-1.046.622-1.032.033-.064-1.561-.035-3.132-.023-4.7zM162.13 74.939c.575-.268 1.185.606.571.956-.624.568-1.437-.676-.57-.956zM161.817 76.752c.362-.021 1.025-.254 1.056.311.074 1.1.074 2.204 0 3.304-.011.573-1.036.553-1.06.015-.057-1.208-.013-2.421.004-3.63zM143.941 77.838c.411-.527 1.027-.5 1.446 0 .855.04 1.717-.041 2.57.058a.499.499 0 0 1 0 .918c-.908.129-1.83.033-2.738.054v.932c1.109.03 2.225-.07 3.325.044.573.098.446 1.02-.153.91-2.638.024-5.281.03-7.92-.01-.039-.315-.158-.849.298-.901 1.105-.108 2.218-.014 3.325-.045v-.928c-.917-.021-1.84.067-2.75-.05-.403-.184-.442-.81.027-.918.855-.111 1.718-.017 2.57-.064zM110.363 85.366c.978-.553 2.189-.295 3.082.313-.176.196-.352.391-.526.587-.561-.307-1.222-.767-1.868-.391-1.195.454-1.369 2.322-.318 3.022.532.424 1.244.262 1.86.174v-1.174h-.978v-.659h1.78c0 .767 0 1.536-.016 2.304-1.023.347-2.261.56-3.218-.076-1.375-.933-1.29-3.339.202-4.1zM115.094 85.073h.753v4.107h1.986v.664h-2.739c0-1.593-.004-3.183 0-4.771z"/>
            <path fill-rule="nonzero" d="M120.855 85.11a2.648 2.648 0 0 1 2.265.587c1.074 1.025.915 3.073-.391 3.834-1.076.598-2.662.416-3.365-.667-.915-1.336-.215-3.535 1.49-3.754zm.405.626c-1.37.145-1.956 2.052-.967 2.98.736.842 2.258.476 2.578-.586.49-1.076-.403-2.49-1.611-2.394z"/>
            <path d="M126.36 85.345c.979-.524 2.174-.28 2.962.454-.195.17-.37.342-.555.516-.57-.417-1.323-.849-1.982-.338-1.23.665-1.032 2.777.337 3.147.64.248 1.199-.223 1.692-.562.195.147.39.296.586.448a2.553 2.553 0 0 1-3.233.483c-1.455-.893-1.377-3.42.194-4.148z"/>
            <path fill-rule="nonzero" d="M132.05 85.089l.717-.026c.643 1.592 1.283 3.188 1.942 4.775-.297 0-.587 0-.884.011l-.458-1.173h-1.94c-.149.391-.297.782-.442 1.173h-.878a608.528 608.528 0 0 0 1.944-4.76zm-.38 2.918h1.449c-.239-.632-.474-1.264-.72-1.89a75.47 75.47 0 0 0-.73 1.89z"/>
            <path d="M135.935 85.073h.75v4.107h1.977v.66h-2.738c.015-1.585.011-3.165.011-4.767zM143.05 85.208c.762-.352 1.61-.051 2.22.458-.182.164-.362.328-.54.494-.634-.586-1.489-.498-1.898.296.485.524 1.174.706 1.802 1.005.86.405.733 1.794-.073 2.195-.86.442-1.866.123-2.582-.446.196-.208.392-.413.587-.618.305.213.587.5.96.586.527.112 1.174-.516.812-1.017-.526-.518-1.398-.49-1.899-1.046-.43-.653-.186-1.684.61-1.907zM147.486 85.345c.978-.524 2.173-.28 2.96.454-.195.17-.369.342-.555.514-.567-.413-1.322-.847-1.979-.338-1.232.665-1.035 2.779.334 3.149.64.248 1.201-.223 1.692-.562.196.147.392.296.587.448a2.553 2.553 0 0 1-3.233.483c-1.455-.892-1.377-3.42.194-4.148zM151.388 85.073h.749v1.956h2.09v-1.956h.803v4.769h-.802V87.69h-2.091v2.152l-.755.021c.006-1.604.008-3.2.006-4.79z"/>
            <path fill-rule="nonzero" d="M158.019 85.11a2.64 2.64 0 0 1 2.265.587c1.073 1.023.915 3.073-.392 3.832-1.073.6-2.66.416-3.364-.667-.915-1.334-.215-3.533 1.49-3.752zm.404.626c-1.369.145-1.956 2.052-.966 2.98.736.842 2.255.476 2.578-.586.49-1.076-.403-2.49-1.612-2.394zM163.7 85.133c.852-.21 1.753.02 2.399.613.761.84.884 2.08.301 3.053-.884 1.475-3.44 1.42-4.22-.131-.701-1.314-.058-3.276 1.52-3.535zm.421.617c-1.248.195-1.829 1.854-1.032 2.81.62.928 2.186.783 2.638-.238.66-1.11-.29-2.762-1.606-2.572z"/>
            <path d="M168.014 85.073h.749v4.107h1.977v.66h-2.738c.016-1.585.012-3.165.012-4.767z"/>
        </g>
    </g>
</svg>
