<svg xmlns="http://www.w3.org/2000/svg" xmlns:xlink="http://www.w3.org/1999/xlink" width="40" height="40" viewBox="0 0 40 40">
    <defs>
        <path id="a" d="M.001.005h14.546v16.971H.001z"/>
        <path id="c" d="M.001.005h14.546v16.971H.001z"/>
    </defs>
    <g fill="none" fill-rule="evenodd">
        <circle cx="20" cy="20" r="20" fill="#9DC1FC"/>
        <g transform="translate(13 12)">
            <mask id="b" fill="#fff">
                <use xlink:href="#a"/>
            </mask>
            <path fill="#FFF" fill-rule="nonzero" d="M3.334 5.49h2.758a.608.608 0 0 0 .606-.606.608.608 0 0 0-.606-.606H3.334a.608.608 0 0 0-.606.606c0 .333.272.606.606.606zm0 3.637h5.94a.608.608 0 0 0 .606-.606.608.608 0 0 0-.606-.606h-5.94a.608.608 0 0 0-.606.606c0 .333.272.606.606.606zm0 3.637h7.88a.608.608 0 0 0 .605-.606.608.608 0 0 0-.606-.607h-7.88a.608.608 0 0 0-.605.607c0 .333.272.606.606.606z" mask="url(#b)"/>
        </g>
        <g transform="translate(13 12)">
            <mask id="d" fill="#fff">
                <use xlink:href="#c"/>
            </mask>
            <path fill="#FFF" d="M13.941 3.338a.608.608 0 0 0-.606.607v10c0 1-.818 1.82-1.819 1.82H3.031c-1 0-1.819-.82-1.819-1.82V3.036c0-1 .819-1.818 1.819-1.818h8.819a.608.608 0 0 0 .606-.606.608.608 0 0 0-.606-.606H3.03A3.04 3.04 0 0 0 0 3.035v10.91a3.04 3.04 0 0 0 3.03 3.031h8.486a3.04 3.04 0 0 0 3.031-3.03V3.945a.59.59 0 0 0-.606-.607z" mask="url(#d)"/>
        </g>
    </g>
</svg>
