<svg xmlns="http://www.w3.org/2000/svg" width="280" height="100" viewBox="0 0 280 100">
  <g fill="#5A6978" fill-rule="evenodd" transform="translate(40 28)">
    <path fill-rule="nonzero" d="M28.8148437,11.2225035 C28.818917,11.1210425 28.8209607,11.0192084 28.8209607,10.9170306 C28.8209607,6.81710011 25.4973104,3.49344978 21.3973799,3.49344978 C17.2974495,3.49344978 13.9737991,6.81710011 13.9737991,10.9170306 C13.9737991,11.0190473 13.9758364,11.1207213 13.9798969,11.2220236 L14.1200294,14.7180818 L10.6237583,14.8527986 C6.65052756,15.0058934 3.49344978,18.2795637 3.49344978,22.2707424 C3.49344978,26.2617564 6.65027761,29.5353485 10.6233147,29.688669 L13.8547513,29.813371 L13.9794533,33.0448076 C14.1327738,37.0178447 17.4063658,40.1746725 21.3973799,40.1746725 C25.3885586,40.1746725 28.6622289,37.0175947 28.8153237,33.0443639 L28.9500405,29.5480928 L32.4460987,29.6882254 C32.5474009,29.6922859 32.6490749,29.6943231 32.7510917,29.6943231 C36.8510222,29.6943231 40.1746725,26.3706728 40.1746725,22.2707424 C40.1746725,18.1708119 36.8510222,14.8471616 32.7510917,14.8471616 C32.6489138,14.8471616 32.5470798,14.8492052 32.4456188,14.8532786 L28.6629839,15.0051384 L28.8148437,11.2225035 Z M10.4803493,10.9170306 C10.4803493,4.88772107 15.3680704,0 21.3973799,0 C26.9764135,0 31.578002,4.18493975 32.2341903,9.58686402 L32.3054816,11.3626407 L34.0812582,11.433932 C39.4831825,12.0901202 43.6681223,16.6917088 43.6681223,22.2707424 C43.6681223,28.3000519 38.7804012,33.1877729 32.7510917,33.1877729 C32.6136,33.1877729 32.476702,33.1852312 32.3404421,33.1801923 C32.0627022,39.0281358 27.2719045,43.6681223 21.3973799,43.6681223 C15.5115432,43.6681223 10.7136112,39.010249 10.4886018,33.1795205 C4.6578733,32.9545111 0,28.156579 0,22.2707424 C0,16.3962177 4.63998647,11.60542 10.4549964,11.3633122 C10.482891,11.1914202 10.4803493,11.0545222 10.4803493,10.9170306 Z M21.8340611,29.4104803 C26.0184019,29.4104803 29.4104803,26.0184019 29.4104803,21.8340611 C29.4104803,17.6497203 26.0184019,14.2576419 21.8340611,14.2576419 C17.6497203,14.2576419 14.2576419,17.6497203 14.2576419,21.8340611 C14.2576419,26.0184019 17.6497203,29.4104803 21.8340611,29.4104803 Z"/>
    <g transform="translate(52.402 8.734)">
      <path stroke="#5A6978" stroke-width=".5" d="M8.45110026,12.7353281 L12.3937132,12.7353281 L12.94348,12.0174097 L14.0273058,12.8269772 C14.1424956,12.9084435 14.2000897,12.9950002 14.2000897,13.0866498 C14.2000897,13.1782994 14.1529673,13.2546729 14.0587211,13.3157726 L13.6032001,13.5754452 L13.6032001,17.027563 C13.6032001,17.4756278 13.6241433,17.9236858 13.6660305,18.3717505 L13.7445686,19.4257157 C13.7445686,19.578465 13.5796403,19.7363036 13.2497786,19.8992363 C12.9199169,20.0621689 12.7235736,20.143634 12.6607428,20.143634 C12.597912,20.143634 12.566497,20.072352 12.566497,19.929786 L12.566497,13.1630241 L8.19977832,13.1630241 L8.19977832,19.7312128 C8.19977832,19.8839622 8.16836339,19.9959767 8.10553259,20.0672597 C8.04270179,20.1385427 7.88824506,20.2276452 7.64215776,20.3345697 C7.39607046,20.4414942 7.22590627,20.4949557 7.13166007,20.4949557 C7.03741387,20.4949557 6.99029147,20.4364027 6.99029147,20.3192948 C6.99029147,20.202187 6.9955273,20.0825352 7.0059991,19.9603357 C7.12118889,19.125306 7.17878293,18.2088237 7.17878293,17.2108613 L7.17878293,13.8809424 C7.17878293,13.127379 7.16307547,12.5011161 7.13166007,12.0021349 L8.45110026,12.7353281 Z M3.2518776,13.8351178 L2.27800508,13.8351178 C1.83818948,13.8351178 1.48215362,13.8860335 1.20988683,13.9878664 L0.644412458,13.3310475 C1.04234085,13.3921472 1.48214985,13.4226966 1.96385265,13.4226966 L5.07396167,13.4226966 L5.79651225,12.5825795 L6.5661857,13.4837961 C6.6604319,13.585629 6.70755429,13.6696398 6.70755429,13.7358312 C6.70755429,13.8020226 6.63948861,13.8351178 6.50335521,13.8351178 L4.30428823,13.8351178 L4.30428823,17.3636099 L5.08966929,17.3636099 L5.78080463,16.5693173 L6.55047808,17.4399842 C6.63425248,17.5418171 6.67613905,17.6232822 6.67613905,17.6843819 C6.67613905,17.7454816 6.59760173,17.7760311 6.44052473,17.7760311 L4.30428823,17.7760311 L4.30428823,21.3961723 L6.73896953,20.6935289 L6.81750764,20.9073769 L3.51890716,22.4348626 C2.48219897,22.9134772 1.81201383,23.2749786 1.50833163,23.5193775 C1.43502903,23.570294 1.377435,23.5957518 1.3355478,23.5957518 C1.2936606,23.5957518 1.25177403,23.5652024 1.20988683,23.5041026 L0.487336245,22.5265118 L3.2518776,21.7169443 L3.2518776,17.7760311 L2.49791177,17.7760311 C2.05809618,17.7760311 1.70206032,17.8320383 1.42979352,17.9440545 L0.864319156,17.2719608 C1.26224755,17.3330605 1.70205655,17.3636099 2.18375935,17.3636099 L3.2518776,17.3636099 L3.2518776,13.8351178 Z M9.75483283,13.9725915 L10.9800273,14.5377612 C11.1266325,14.6192276 11.199934,14.6930553 11.199934,14.7592467 C11.199934,14.8254381 11.1528116,14.8916284 11.0585654,14.9578198 C10.9643192,15.0240112 10.9014893,15.1029305 10.8700739,15.1945801 C10.8386585,15.2862297 10.8072436,15.4797093 10.7758282,15.7750247 C10.5873358,17.8116826 10.3936104,19.2042265 10.1946462,19.9526983 C9.99568203,20.70117 9.66582528,21.4241727 9.20506608,22.121728 C8.74430689,22.8192834 8.12909787,23.4328173 7.35942058,23.9623484 C6.58974328,24.4918794 5.50331034,25.0315857 4.10008915,25.5814833 L3.95872056,25.3676353 C5.78081374,24.4613225 7.07406163,23.5346571 7.83850303,22.5876112 C8.60294442,21.6405653 9.10296537,20.6349806 9.33858086,19.5708268 C9.57419636,18.5066731 9.71294563,16.6406133 9.75483283,13.9725915 Z M11.529794,23.3971786 C11.529794,23.7739603 11.590006,24.0056267 11.7104317,24.0921847 C11.8308574,24.1787426 12.134535,24.222021 12.6214737,24.222021 C13.1084124,24.222021 13.4487408,24.1634679 13.6424691,24.0463601 C13.8361974,23.9292523 14.0037437,23.6644907 14.145113,23.2520675 C14.2864823,22.8396443 14.4357032,22.1446452 14.5927802,21.1670494 L14.8755174,21.2281489 C14.8231584,21.8187796 14.7969793,22.2922955 14.7969793,22.6487106 C14.7969793,23.3004411 14.8859882,23.6823088 15.0640088,23.7943249 C15.2420294,23.9063411 15.3310384,23.9928978 15.3310384,24.0539975 C15.3310384,24.1150973 15.2237041,24.2576612 15.0090322,24.4816935 C14.7943603,24.7057259 14.537805,24.8610187 14.2393587,24.9475767 C13.9409124,25.0341346 13.3885333,25.077413 12.5822047,25.077413 C11.7758761,25.077413 11.2261148,24.9984937 10.9329044,24.8406527 C10.639694,24.6828117 10.493091,24.3238561 10.493091,23.7637752 L10.493091,21.3350729 C10.493091,20.7851752 10.4669119,20.1894618 10.4145529,19.5479145 L11.6083321,20.0519848 C11.7863527,20.1232679 11.8753617,20.1843667 11.8753617,20.2352831 C11.8753617,20.2861996 11.8230035,20.35239 11.7182855,20.4338563 L11.529794,20.5560551 L11.529794,23.3971786 Z M25.3682084,17.1497619 C25.5148136,18.6874386 25.8054017,19.9348728 26.2399814,20.892102 C26.6745611,21.8493312 27.2086149,22.5748797 27.8421588,23.0687692 C28.4757027,23.5626587 28.9076579,23.8095998 29.1380375,23.8095998 C29.2636991,23.8095998 29.3762693,23.7561383 29.4757514,23.6492138 C29.5752335,23.5422893 29.708747,23.2189747 29.8762958,22.6792603 C30.0438445,22.139546 30.1799759,21.6456639 30.2846939,21.1975992 L30.5203082,21.2739734 C30.4051184,22.2006528 30.3475244,22.9363844 30.3475244,23.4811904 C30.3475244,24.0259963 30.418208,24.4180471 30.5595773,24.6573544 C30.7009466,24.8966617 30.7716302,25.0799582 30.7716302,25.2072493 C30.7716302,25.3345404 30.6485884,25.398185 30.4025011,25.398185 C30.1564138,25.398185 29.7218406,25.2861705 29.0987685,25.0621381 C28.4756964,24.8381058 27.902374,24.5326117 27.378784,24.1456467 C26.855194,23.7586817 26.38397,23.2622538 25.965098,22.6563481 C25.546226,22.0504423 25.1980439,21.3045276 24.9205412,20.4185814 C24.6430385,19.5326352 24.4466952,18.4990469 24.3315054,17.3177853 L22.5094213,17.6080076 C22.0277186,17.6894739 21.692626,17.7963969 21.5041336,17.9287796 L20.8287059,17.348335 C21.0486137,17.348335 21.477951,17.2974194 22.1167308,17.1955865 L24.3000902,16.8595396 C24.1639568,15.3014963 24.0540045,13.5296306 23.9702301,11.5438892 L25.6195304,12.200708 C25.7347202,12.2414412 25.7923142,12.2872653 25.7923142,12.3381818 C25.7923142,12.3890982 25.7504276,12.4400139 25.6666532,12.4909303 L25.2896703,12.7506029 C25.2582549,13.4634332 25.2425475,14.0769671 25.2425475,14.5912232 C25.2425475,15.1054794 25.2739624,15.80557 25.3367932,16.6915162 L28.5254403,16.1568961 L29.1223299,15.0723813 L30.4260625,16.0346973 C30.5203087,16.1059803 30.5674311,16.1670791 30.5674311,16.2179956 C30.5674311,16.268912 30.5098371,16.304553 30.3946473,16.3249196 L25.3682084,17.1497619 Z M19.163698,16.9053642 C18.221236,18.2495584 17.3520897,19.3086046 16.5562329,20.0825345 L16.3363262,19.9145111 C17.9489834,17.8167535 19.2736462,15.1182223 20.3103544,11.8188366 L21.6455022,12.6742286 C21.7711638,12.7556949 21.8339936,12.8295227 21.8339936,12.8957141 C21.8339936,12.9619054 21.7554563,13.0179127 21.5983793,13.0637375 C21.4413023,13.1095623 21.3130247,13.196119 21.2135426,13.3234101 C21.1140605,13.4507012 20.9596038,13.7409206 20.7501678,14.1940769 C20.5407318,14.6472333 20.2213467,15.2251263 19.7920029,15.9277733 L20.4831382,16.2332704 C20.5773844,16.2740036 20.6245068,16.3121904 20.6245068,16.3478319 C20.6245068,16.3834734 20.5826202,16.4369348 20.4988458,16.5082179 L20.2475239,16.7220659 L20.2475239,21.9460672 C20.2475239,22.9643961 20.2553776,23.6899446 20.2710853,24.1227344 C20.286793,24.5555242 20.2946467,24.8101026 20.2946467,24.8864773 C20.2946467,24.9628519 20.257996,25.0366797 20.1846934,25.1079627 C20.1113908,25.1792457 19.9464624,25.2785313 19.6899033,25.4058224 C19.4333442,25.5331135 19.2605621,25.5967581 19.1715518,25.5967581 C19.0825415,25.5967581 19.038037,25.4694689 19.038037,25.2148867 L19.1165751,23.5041026 C19.1479905,22.7199894 19.163698,22.0835433 19.163698,21.5947454 L19.163698,16.9053642 Z M26.4049114,12.4756555 C27.2740708,12.5876717 27.9259306,12.7633308 28.3605103,13.0026381 C28.79509,13.2419454 29.0123766,13.5143443 29.0123766,13.8198429 C29.0123766,14.1253416 28.9259855,14.4130152 28.7532008,14.6828724 C28.5804161,14.9527296 28.4102519,15.0876561 28.2427031,15.0876561 C28.1379851,15.0876561 28.0594478,15.0520151 28.0070888,14.9807321 C27.9547298,14.9094491 27.8657208,14.7083321 27.7400592,14.3773752 C27.6143977,14.0464183 27.4337618,13.7485616 27.1981463,13.4837961 C26.9625308,13.2190305 26.6667069,12.9644521 26.3106657,12.7200532 L26.4049114,12.4756555 Z M36.5520348,22.7556346 C35.7875934,23.8146967 34.36345,24.7820947 32.2795618,25.6578576 L32.1224856,25.4287347 C33.9445788,24.3900392 35.1802326,23.3004436 35.8294842,22.1599152 C35.3268378,21.8136833 34.4838706,21.4318157 33.3005572,21.0143009 C33.7194292,19.4257077 34.0964083,17.6131094 34.4315059,15.5764516 L33.9759849,15.6070013 C33.5256975,15.6375511 33.1539542,15.7546572 32.8607438,15.958323 L32.0910704,15.1945801 C32.3319218,15.2047634 32.5439725,15.209855 32.727229,15.209855 C32.9104855,15.209855 33.1853661,15.2047634 33.5518791,15.1945801 L34.4943364,15.1487555 C34.6828288,13.8351112 34.8137244,12.587677 34.887027,11.4064154 L36.3635434,12.0326846 C36.4682614,12.083601 36.5206196,12.1370625 36.5206196,12.1930706 C36.5206196,12.2490787 36.478733,12.3178149 36.3949586,12.3992812 L35.92373,12.8880766 C35.7561812,14.0693382 35.6409931,14.8127072 35.5781623,15.1182058 L37.2117549,15.0723813 L37.8243521,14.2169892 L38.8139323,15.102931 C38.9186503,15.1945806 38.9710085,15.2734999 38.9710085,15.3396913 C38.9710085,15.4058826 38.9134145,15.4746188 38.7982247,15.5459018 L38.3584113,15.8666739 C38.1489753,18.758728 37.7039304,20.81063 37.0232635,22.0224415 C38.1018588,22.6130722 38.6411485,23.2444267 38.6411485,23.9165238 C38.6411485,24.1507395 38.5809365,24.3544022 38.4605108,24.5275181 C38.3400851,24.700634 38.2091896,24.7871907 38.0678203,24.7871907 C37.926451,24.7871907 37.8217345,24.7515497 37.7536678,24.6802667 C37.6856011,24.6089837 37.6096817,24.4816944 37.5259073,24.2983952 C37.2117533,23.6262981 36.8871324,23.1120498 36.5520348,22.7556346 Z M36.1436367,21.5641957 C36.7195857,20.3931175 37.1018006,18.3717649 37.290293,15.5000773 L35.5153318,15.5459018 C35.2221214,17.3483441 34.8660856,19.1151182 34.4472136,20.8462774 C35.0231626,21.0703098 35.5886313,21.3096135 36.1436367,21.5641957 Z M44.7199979,18.6161482 L40.7145545,18.6161482 C40.2747389,18.6161482 39.918703,18.6721555 39.6464362,18.7841717 L39.0809618,18.1120779 C39.4684184,18.1629944 39.9029916,18.1884522 40.3846944,18.1884522 L44.7199979,18.1884522 L44.7199979,14.247539 L40.3532792,14.247539 C39.9134636,14.247539 39.5574277,14.3035462 39.2851609,14.4155624 L38.7039789,13.7281938 C39.1019073,13.7892935 39.5364805,13.8198429 40.0077115,13.8198429 L44.5629217,13.8198429 L45.0969808,12.9797258 L46.2593448,13.8503927 C46.3745346,13.9522255 46.4321286,14.0260533 46.4321286,14.0718781 C46.4321286,14.1177029 46.3797704,14.1762559 46.2750524,14.247539 L45.8823619,14.4766618 L45.8823619,23.1527809 C45.8823619,23.5397459 45.8928335,23.8859726 45.9137771,24.1914712 L45.9609,24.863565 C45.9609,25.0570475 45.7933537,25.2225234 45.4582561,25.3599978 C45.1231585,25.4974722 44.9163436,25.5662084 44.8378051,25.5662084 C44.7592666,25.5662084 44.7199979,25.500018 44.7199979,25.3676353 L44.7199979,23.5957518 L40.4475249,23.5957518 C40.0077093,23.5957518 39.6516735,23.651759 39.3794067,23.7637752 L38.7982247,23.0916815 C39.1961531,23.1425979 39.6359621,23.1680558 40.1176649,23.1680558 L44.7199979,23.1680558 L44.7199979,18.6161482 Z M54.2231088,11.1772926 C55.4901966,11.472608 56.123731,11.8952081 56.123731,12.4451058 C56.123731,12.7404211 56.0321041,13.0026369 55.8488476,13.2317609 C55.6655911,13.4608849 55.4901911,13.5754452 55.3226423,13.5754452 C55.1550935,13.5754452 55.0425233,13.5448958 54.9849284,13.4837961 C54.9273335,13.4226963 54.8775932,13.2954071 54.835706,13.1019246 C54.6995726,12.5011106 54.4273099,11.9257633 54.0189097,11.3758657 L54.2231088,11.1772926 Z M61.6213985,13.9267669 C61.6842293,14.0082333 61.7156442,14.0718779 61.7156442,14.1177027 C61.7156442,14.1635275 61.6423427,14.1864395 61.4957375,14.1864395 L50.359034,14.1864395 C49.9296902,14.1864395 49.5736543,14.2424468 49.2909157,14.354463 L48.7097337,13.6670944 C49.1076621,13.7281941 49.5422353,13.7587435 50.0134663,13.7587435 L59.5322848,13.7587435 L60.5061573,12.628404 L61.6213985,13.9267669 Z M55.9509472,17.7302065 C56.3593474,16.8544436 56.7886847,15.7342986 57.2389721,14.3697378 L58.5112894,15.0112818 C58.6683664,15.0723816 58.7469038,15.1411177 58.7469038,15.2174924 C58.7469038,15.2938671 58.6683664,15.3447828 58.5112894,15.370241 C58.3542124,15.3956992 58.160487,15.550992 57.9301074,15.8361241 C57.6997278,16.1212562 57.286098,16.7526107 56.6892054,17.7302065 L59.7364839,17.7302065 L60.8203098,16.4776682 L61.9512585,17.7913059 C62.0350329,17.8931388 62.0769195,17.9796955 62.0769195,18.0509785 C62.0769195,18.1222615 62.003618,18.1579025 61.8570128,18.1579025 L50.6260635,18.1579025 L50.6260635,20.1283591 C50.6260635,21.5642029 50.406159,22.6970769 49.9663434,23.5270149 C49.5265278,24.356953 48.8353994,25.0621352 47.8929374,25.6425827 L47.7672764,25.5203838 C48.416528,24.8381035 48.8694266,24.1201923 49.1259857,23.3666289 C49.3825448,22.6130655 49.5108224,21.5183783 49.5108224,20.0825345 L49.5108224,18.3717505 C49.5108224,17.8422195 49.4951149,17.3025132 49.4636995,16.7526156 L50.8302626,17.7302065 L55.9509472,17.7302065 Z M51.725597,14.4308372 C52.4900384,14.7770691 53.0738325,15.1283873 53.4769968,15.4848024 C53.8801611,15.8412175 54.0817402,16.154349 54.0817402,16.4242062 C54.0817402,16.6940633 54.0084387,16.9410044 53.8618335,17.1650367 C53.7152283,17.3890691 53.5633895,17.5010836 53.4063125,17.5010836 C53.2492355,17.5010836 53.11834,17.4450764 53.013622,17.3330602 C52.908904,17.221044 52.8408383,17.0937548 52.8094229,16.9511887 C52.6628177,16.1059757 52.2596594,15.3269658 51.599936,14.6141355 L51.725597,14.4308372 Z M66.0509477,12.9950006 L75.2241985,12.9950006 L76.1352406,11.8493863 L77.2190664,13.1630241 C77.2818972,13.2343071 77.3133122,13.2954059 77.3133122,13.3463224 C77.3133122,13.3972388 77.2400107,13.4226966 77.0934055,13.4226966 L65.8153333,13.4226966 L65.8153333,24.328945 L75.5069357,24.328945 L76.5122235,23.1069563 L77.6745875,24.4969684 C77.7583619,24.5784347 77.8002484,24.6420793 77.8002484,24.6879041 C77.8002484,24.7337289 77.7217111,24.756641 77.5646341,24.756641 L65.5954267,24.756641 L65.1713209,25.3065358 C65.1294337,25.3574523 65.0796934,25.3829101 65.0220985,25.3829101 C64.9645036,25.3829101 64.8728767,25.337086 64.7472151,25.2454364 L63.8832959,24.6191673 C64.2498089,24.3340352 64.4801851,24.1176435 64.5744313,23.9699858 C64.6686775,23.8223281 64.7157999,23.6313943 64.7157999,23.3971786 L64.7157999,14.7057847 C64.7157999,13.5652563 64.7000924,12.7251475 64.668677,12.1854332 L66.0509477,12.9950006 Z M71.0459713,16.2027207 L69.1767643,16.2027207 C68.5065691,17.058117 67.7787899,17.8218523 66.9934049,18.4939494 L66.8206211,18.3564756 C67.9934627,16.818799 68.8154867,15.2862369 69.2867177,13.7587435 L70.4647893,14.1253401 C70.6323381,14.1864398 70.7161112,14.2475386 70.7161112,14.3086384 C70.7161112,14.3697381 70.6428097,14.4410201 70.4962045,14.5224864 C70.3495993,14.6039527 70.1925247,14.7668829 70.0249759,15.0112818 L69.4909167,15.7902996 L73.5906059,15.7902996 L74.4545251,14.7974338 L75.4441052,15.9735979 C75.4964642,16.0448809 75.5226433,16.1008881 75.5226433,16.1416213 C75.5226433,16.1823544 75.4598135,16.2027207 75.3341519,16.2027207 L72.17692,16.2027207 C72.1140892,17.3534324 72.0407877,18.2088159 71.9570133,18.7688968 L75.0671223,18.7688968 L76.0881177,17.6232825 L77.1562359,18.9369202 C77.2190667,19.0183865 77.2504817,19.0820311 77.2504817,19.1278559 C77.2504817,19.1736808 77.1771802,19.1965928 77.030575,19.1965928 L71.8941828,19.1965928 C71.8208802,19.6039244 71.7004563,19.9959751 71.5329075,20.3727568 C72.6010311,20.729172 73.4466163,21.0804902 74.0696884,21.426722 C74.6927605,21.7729539 75.0906829,22.0606275 75.2634676,22.2897515 C75.4362523,22.5188755 75.5226433,22.7276298 75.5226433,22.9160206 C75.5226433,23.1044115 75.4650493,23.2927995 75.3498595,23.4811904 C75.2346697,23.6695812 75.0880667,23.7637752 74.9100461,23.7637752 C74.7320255,23.7637752 74.4676165,23.5117426 74.1168112,23.0076698 C73.7660059,22.503597 73.3759372,22.0631763 72.9465934,21.6863946 C72.5172496,21.3096129 72.0198466,20.94302 71.4543694,20.5866048 C70.7213434,22.0835484 69.0301731,23.1935103 66.3808077,23.9165238 L66.3336849,23.6874009 C67.841624,22.9949373 68.9123495,22.3228503 69.5458934,21.6711197 C70.1794373,21.0193892 70.5956851,20.1945552 70.7946493,19.1965928 L67.7630784,19.1965928 C67.3337346,19.1965928 66.9776987,19.2526001 66.6949601,19.3646162 L66.1294858,18.6772477 C66.5169424,18.7383474 66.9515156,18.7688968 67.4332183,18.7688968 L70.8574798,18.7688968 C70.951726,18.1273496 71.0145559,17.2719661 71.0459713,16.2027207 Z M87.3347746,11.4216903 C88.6332778,11.8901216 89.2825196,12.3992784 89.2825196,12.9491761 C89.2825196,13.1426586 89.2170718,13.3361381 89.0861743,13.5296206 C88.9552768,13.7231031 88.7824947,13.8198429 88.5678228,13.8198429 C88.3531509,13.8198429 88.20393,13.7765646 88.1201556,13.6900066 C88.0363812,13.6034487 87.9709335,13.3946944 87.9238104,13.0637375 C87.8766873,12.7327806 87.7981499,12.4501985 87.688196,12.2159829 C87.5782422,11.9817672 87.4185496,11.7730129 87.2091136,11.5897137 L87.3347746,11.4216903 Z M81.2245099,13.0255503 L82.9837635,13.0255503 L83.5178226,12.2312577 L84.6173561,13.0561001 C84.7011305,13.1375664 84.7430171,13.2063025 84.7430171,13.2623106 C84.7430171,13.3183187 84.6906588,13.3565055 84.5859408,13.3768721 C84.2194278,13.4583384 83.9052786,13.768924 83.6434836,14.3086384 L82.4182891,16.8442647 C82.9837663,17.3025128 83.4497544,17.7913033 83.8162674,18.3106511 C84.1827804,18.8299988 84.3660341,19.4588075 84.3660341,20.197096 C84.3660341,20.9353845 84.1304222,21.4929112 83.6591912,21.8696929 C83.1879602,22.2464746 82.8528676,22.4348626 82.6539034,22.4348626 C82.5387136,22.4348626 82.4758838,22.3584891 82.465412,22.2057398 C82.4444684,21.9307909 82.3449878,21.7093077 82.1669672,21.5412834 C81.9889466,21.3732592 81.7323913,21.233241 81.3972937,21.1212249 L81.4601242,20.9684763 C81.9104116,21.0193927 82.279537,21.0448506 82.5675115,21.0448506 C82.855486,21.0448506 83.0649189,20.9837518 83.1958163,20.8615523 C83.3267138,20.7393528 83.3921616,20.4313129 83.3921616,19.9374234 C83.3921616,19.4435339 83.3031527,18.9827469 83.1251321,18.5550488 C82.9471115,18.1273506 82.5701323,17.5723697 81.9941833,16.8900893 L83.0465939,13.4379715 L81.1145565,13.4379715 L81.1145565,22.0529912 C81.1145565,23.0509535 81.1250282,23.7688647 81.1459718,24.2067461 C81.1669154,24.6446275 81.177387,24.8890228 81.177387,24.9399393 C81.177387,25.1232385 81.0203124,25.2988976 80.7061584,25.4669218 C80.3920044,25.6349461 80.1851894,25.718957 80.0857073,25.718957 C79.9862252,25.718957 79.9364849,25.6502208 79.9364849,25.5127464 C79.9364849,25.375272 79.9417207,25.2505286 79.9521925,25.1385124 C80.0359669,24.3442158 80.0778535,23.198613 80.0778535,21.7016695 L80.0778535,14.675235 C80.0778535,13.8402052 80.0516744,13.0000965 79.9993154,12.1548835 L81.2245099,13.0255503 Z M85.4969829,14.0336909 L91.1203113,14.0336909 L91.7014933,13.2393984 L92.9423954,14.4308372 C93.0785288,14.56322 93.1465945,14.6650514 93.1465945,14.7363344 C93.1465945,14.8076174 93.0261706,14.8432584 92.7853192,14.8432584 C92.5444678,14.8432584 92.2486439,14.9272693 91.8978386,15.0952935 C91.5470333,15.2633178 91.2355019,15.484801 90.9632351,15.7597499 L90.7904513,15.6986504 L91.4030485,14.461387 L85.5441057,14.461387 C85.5545775,14.675236 85.5598134,14.8687156 85.5598134,15.0418315 C85.5598134,15.7342952 85.4498611,16.184899 85.2299533,16.3936564 C85.0100455,16.6024139 84.8110843,16.706791 84.6330637,16.706791 C84.4550431,16.706791 84.3058222,16.6558753 84.1853965,16.5540424 C84.0649708,16.4522096 84.0047588,16.3274661 84.0047588,16.1798084 C84.0047588,16.0321507 84.088532,15.8564916 84.2560808,15.6528258 C84.6749528,15.1436614 84.9393618,14.723607 85.0493157,14.3926501 C85.1592696,14.0616932 85.2090099,13.7129208 85.1985381,13.3463224 L85.4027371,13.3463224 C85.4550961,13.580538 85.4865111,13.8096586 85.4969829,14.0336909 Z M86.6907621,16.6609664 L89.6595025,16.6609664 L90.4448836,15.6986504 L91.4187561,16.813715 C91.4711151,16.8951813 91.4972942,16.9613717 91.4972942,17.0122882 C91.4972942,17.0632046 91.4292285,17.0886625 91.2930951,17.0886625 L87.0206221,17.0886625 C86.5912783,17.0886625 86.2352425,17.1446697 85.9525039,17.2566859 L85.3870295,16.5693173 C85.7744861,16.630417 86.2090593,16.6609664 86.6907621,16.6609664 Z M88.6385071,19.3646162 L87.3347746,19.3646162 C87.3243028,21.1976083 86.9499415,22.5443281 86.2116796,23.4048161 C85.4734178,24.265304 84.0204773,25.0366766 81.8528147,25.718957 L81.7271538,25.505109 C83.5178315,24.731179 84.7011272,23.9572606 85.2770762,23.1833306 C85.8530252,22.4094007 86.1881177,21.1365086 86.2823639,19.3646162 C85.6435841,19.3646162 85.1880677,19.4206235 84.9158009,19.5326397 L84.3503265,18.8452711 C84.7377831,18.9063708 85.1723563,18.9369202 85.6540591,18.9369202 L91.0574808,18.9369202 L91.9685229,17.8829551 L93.0366411,19.0896688 C93.0890001,19.1711351 93.1151792,19.2373255 93.1151792,19.288242 C93.1151792,19.3391584 93.0471135,19.3646162 92.9109801,19.3646162 L89.6752101,19.3646162 L89.6752101,23.7943249 C89.6752101,24.0183573 89.7197146,24.1583754 89.8087249,24.2143835 C89.8977352,24.2703916 90.1542905,24.2983952 90.5783984,24.2983952 C91.0025063,24.2983952 91.3506884,24.2627543 91.6229552,24.1914712 C91.895222,24.1201882 92.0837116,23.8579724 92.1884296,23.4048161 C92.2931476,22.9516597 92.4030998,22.3483089 92.5182896,21.5947454 L92.7381963,21.5947454 C92.7277245,21.8696943 92.7224887,22.1930088 92.7224887,22.5646989 C92.7224887,22.936389 92.7643753,23.2266084 92.8481497,23.4353658 C92.9319241,23.6441232 93.0785271,23.8045076 93.2879631,23.9165238 C93.4031529,23.9776235 93.4607469,24.0590886 93.4607469,24.1609215 C93.4607469,24.2627544 93.3586484,24.4282304 93.1544483,24.6573544 C92.9502482,24.8864784 92.6779855,25.0417712 92.337652,25.1232376 C91.9973185,25.2047039 91.4109065,25.2454364 90.5783984,25.2454364 C89.7458903,25.2454364 89.2144544,25.1817918 88.9840748,25.0545007 C88.7536952,24.9272096 88.6385071,24.6089866 88.6385071,24.0998221 L88.6385071,19.3646162 Z M108.16308,11.8188366 L108.36728,12.2159829 C107.330571,13.1426622 106.592321,14.135518 106.152505,15.1945801 C105.712689,16.2536422 105.492785,17.3839704 105.492785,18.5855985 C105.492785,19.1864126 105.552997,19.7821261 105.673422,20.3727568 C105.793848,20.9633876 105.971866,21.5310975 106.207482,22.0759035 C106.443097,22.6207094 106.736303,23.1400494 107.087108,23.6339389 C107.437914,24.1278285 107.848926,24.5733407 108.320157,24.970489 L108.131665,25.3218107 C107.608075,24.945029 107.131615,24.5020626 106.702272,23.9928981 C106.272928,23.4837336 105.90642,22.9338443 105.602738,22.3432135 C105.299056,21.7525827 105.063444,21.1339571 104.895895,20.4873183 C104.728346,19.8406794 104.644573,19.1864129 104.644573,18.5244991 C104.644573,17.8727686 104.725729,17.2210478 104.888041,16.5693173 C105.050354,15.9175868 105.283348,15.2964155 105.587031,14.7057847 C105.890713,14.1151539 106.259838,13.5729019 106.694418,13.0790123 C107.128998,12.5851228 107.618547,12.1650684 108.16308,11.8188366 Z M112.781121,11.45224 C113.378014,11.6660891 113.864945,11.9206675 114.24193,12.2159829 C114.618915,12.5112983 114.807404,12.7786056 114.807404,13.0179129 C114.807404,13.2572202 114.710542,13.4888866 114.516813,13.7129189 C114.323085,13.9369513 114.126742,14.0489658 113.927777,14.0489658 C113.728813,14.0489658 113.613625,13.9114935 113.58221,13.6365446 C113.46702,12.8116982 113.142399,12.165069 112.608337,11.6966377 L112.781121,11.45224 Z M124.985943,13.0713749 C125.048774,13.1528412 125.080189,13.2190316 125.080189,13.2699481 C125.080189,13.3208645 125.006887,13.3463224 124.860282,13.3463224 L117.697607,13.3463224 C117.247319,13.3463224 116.891283,13.397238 116.629488,13.4990709 L116.048306,12.8269772 C116.446235,12.8778936 116.880808,12.9033515 117.352039,12.9033515 L123.053905,12.9033515 L123.933532,11.8493863 L124.985943,13.0713749 Z M118.718602,14.675235 L122.174279,14.675235 L122.661215,14.0031412 L123.650795,14.9196327 C123.724098,15.001099 123.760748,15.059652 123.760748,15.0952935 C123.760748,15.1309351 123.724098,15.1742134 123.650795,15.2251298 L123.305227,15.423703 L123.305227,16.1110716 C123.305227,16.4471201 123.315699,16.7347937 123.336643,16.974101 C123.357586,17.2134083 123.368058,17.3483349 123.368058,17.3788848 C123.368058,17.5418174 123.224073,17.7072934 122.936098,17.8753176 C122.648124,18.0433419 122.457016,18.1273528 122.36277,18.1273528 C122.268524,18.1273528 122.221402,18.0560708 122.221402,17.9135048 L122.221402,17.4094345 L118.718602,17.4094345 L118.718602,17.7454813 C118.718602,18.0000636 118.574617,18.1884516 118.286642,18.3106511 C117.998668,18.4328505 117.812796,18.4939494 117.729022,18.4939494 C117.645247,18.4939494 117.603361,18.4404879 117.603361,18.3335634 C117.603361,18.2266388 117.621686,18.0255219 117.658338,17.7302065 C117.694989,17.4348911 117.713314,17.058115 117.713314,16.599867 L117.713314,15.316779 C117.713314,14.858531 117.687135,14.4308392 117.634776,14.0336909 L118.718602,14.675235 Z M122.221402,16.9817385 L122.221402,15.1182058 L118.718602,15.1182058 L118.718602,16.9817385 L122.221402,16.9817385 Z M114.399006,18.0968031 L114.399006,22.3737632 C114.399006,23.3615422 114.40686,24.0794534 114.422568,24.5275181 C114.438275,24.9755828 114.446129,25.2148865 114.446129,25.2454364 C114.446129,25.4389189 114.286436,25.6171238 113.967047,25.7800564 C113.647657,25.9429891 113.435606,26.0244541 113.330888,26.0244541 C113.22617,26.0244541 113.173812,25.9226228 113.173812,25.718957 L113.268057,24.0998221 C113.299473,23.3869918 113.31518,22.6996301 113.31518,22.0377163 L113.31518,18.7994465 C112.665929,19.5428266 111.828197,20.3065619 110.801961,21.0906751 L110.534931,20.8768271 C112.220891,19.1354847 113.545554,17.2108719 114.508959,15.102931 L112.341308,15.102931 C111.901492,15.102931 111.545456,15.1589382 111.273189,15.2709544 L110.723423,14.5835858 C111.110879,14.6345023 111.545453,14.6599601 112.027155,14.6599601 L114.618913,14.6599601 L115.152972,14.0489658 L116.032599,14.9654573 C116.126845,15.0672902 116.173967,15.1436637 116.173967,15.1945801 C116.173967,15.2454966 116.098048,15.2836833 115.946207,15.3091416 C115.794366,15.3345998 115.673942,15.390607 115.584932,15.477165 C115.495921,15.5637229 115.344082,15.7953893 115.129411,16.172171 C114.914739,16.5489527 114.671273,16.9410035 114.399006,17.348335 L114.399006,17.6385573 C115.037786,17.9338727 115.482831,18.1884511 115.734154,18.4023002 C115.985477,18.6161493 116.111137,18.8401783 116.111137,19.0743939 C116.111137,19.3086096 116.040453,19.5300928 115.899084,19.7388503 C115.757715,19.9476077 115.616347,20.0519848 115.474978,20.0519848 C115.333609,20.0519848 115.226275,19.8992378 115.152972,19.5937391 C114.985423,18.9623752 114.734104,18.4634015 114.399006,18.0968031 Z M117.697607,18.9674699 L123.038198,18.9674699 L123.650795,18.3412008 L124.750329,19.0591191 C124.823631,19.1304021 124.860282,19.1864094 124.860282,19.2271425 C124.860282,19.2678757 124.823631,19.3136998 124.750329,19.3646162 L124.34193,19.5937391 L124.34193,23.0764066 C124.34193,23.4124552 124.352402,23.7230408 124.373346,24.0081729 L124.420469,24.7260913 C124.420469,24.8890239 124.26863,25.0595914 123.964948,25.237799 C123.661265,25.4160065 123.462304,25.505109 123.368058,25.505109 C123.273812,25.505109 123.226689,25.4287355 123.226689,25.2759861 L123.226689,24.328945 L117.713314,24.328945 L117.713314,24.970489 C117.713314,25.1232383 117.684517,25.2352528 117.626922,25.3065358 C117.569327,25.3778189 117.417489,25.4669213 117.171401,25.5738458 C116.925314,25.6807704 116.760386,25.7342319 116.676611,25.7342319 C116.592837,25.7342319 116.537861,25.6985909 116.511681,25.6273079 C116.485502,25.5560248 116.482884,25.4134609 116.503827,25.1996118 C116.598074,24.3645821 116.645196,23.5652059 116.645196,22.8014592 L116.645196,20.2047334 C116.645196,19.5326363 116.624253,18.911465 116.582365,18.3412008 L117.697607,18.9674699 Z M119.833843,19.395166 L117.713314,19.395166 L117.713314,21.2586986 L119.833843,21.2586986 L119.833843,19.395166 Z M123.226689,21.2586986 L123.226689,19.395166 L120.917669,19.395166 L120.917669,21.2586986 L123.226689,21.2586986 Z M117.713314,23.9012489 L119.833843,23.9012489 L119.833843,21.6863946 L117.713314,21.6863946 L117.713314,23.9012489 Z M123.226689,23.9012489 L123.226689,21.6863946 L120.917669,21.6863946 L120.917669,23.9012489 L123.226689,23.9012489 Z M131.331822,12.307632 C131.488899,12.3687318 131.567436,12.424739 131.567436,12.4756555 C131.567436,12.5265719 131.509842,12.5825792 131.394652,12.6436789 C131.164273,12.786245 131.049085,13.2241198 131.049085,13.9573167 C131.007198,16.3198398 130.939132,18.0407899 130.844886,19.1202185 C130.750639,20.1996472 130.554296,21.1135837 130.25585,21.8620555 C129.957404,22.6105272 129.47309,23.3258926 128.802895,24.0081729 C128.1327,24.6904533 127.321147,25.260709 126.368214,25.718957 L126.211137,25.505109 C127.10124,24.9348448 127.800223,24.3162192 128.308105,23.6492138 C128.815987,22.9822083 129.224381,22.137008 129.533299,21.1135874 C129.842217,20.0901669 129.996674,18.0051696 129.996674,14.8585333 C129.996674,13.7994712 129.970495,12.7556997 129.918136,11.7271874 L131.331822,12.307632 Z M139.578323,12.7506029 L139.279878,12.9033515 L139.279878,22.1140906 C139.279878,23.0815031 139.287732,23.7943226 139.30344,24.2525707 C139.319147,24.7108187 139.327001,24.955214 139.327001,24.9857638 C139.327001,25.1486965 139.159455,25.3294471 138.824357,25.5280213 C138.48926,25.7265954 138.271973,25.825881 138.172491,25.825881 C138.073009,25.825881 138.023269,25.7036834 138.023269,25.4592844 L138.101807,23.8706992 C138.133222,23.1986021 138.14893,22.5061488 138.14893,21.7933186 L138.14893,14.2780887 C138.14893,13.4532422 138.127986,12.6080419 138.086099,11.7424623 L139.546908,12.3840063 C139.703985,12.4451061 139.782522,12.5011133 139.782522,12.5520298 C139.782522,12.6029462 139.714457,12.6691366 139.578323,12.7506029 Z M135.462926,12.9644509 L135.038821,13.2393984 L135.038821,20.9073769 C135.038821,21.8340562 135.044056,22.4857769 135.054528,22.8625586 L135.085943,23.7790501 C135.085943,23.9317994 134.921015,24.1100043 134.591153,24.3136701 C134.261292,24.5173359 134.049241,24.6191673 133.954995,24.6191673 C133.860748,24.6191673 133.813626,24.5071527 133.813626,24.2831204 L133.892164,22.5876112 C133.92358,21.8645977 133.939287,21.1925106 133.939287,20.57133 L133.939287,14.5377612 C133.939287,13.5703488 133.918344,12.73024 133.876457,12.0174097 L135.384388,12.628404 C135.530993,12.6895038 135.604295,12.7429652 135.604295,12.7887901 C135.604295,12.8346149 135.557173,12.8931679 135.462926,12.9644509 Z M128.347374,15.5764516 C128.630112,16.2281821 128.77148,16.9410016 128.77148,17.7149316 C128.77148,18.4888616 128.653674,19.0285678 128.418058,19.3340665 C128.182443,19.6395652 127.894472,19.7923123 127.554139,19.7923123 C127.213805,19.7923123 127.043641,19.6497483 127.043641,19.3646162 C127.043641,19.2118669 127.101235,19.0642114 127.216425,18.9216454 C127.834261,18.1375321 128.143175,17.2312329 128.143175,16.2027207 C128.143175,16.0092382 128.132703,15.8157586 128.11176,15.6222761 L128.347374,15.5764516 Z M131.708805,16.0194224 C132.703626,16.9868349 133.201029,17.7505702 133.201029,18.3106511 C133.201029,18.5957832 133.122492,18.8376327 132.965415,19.0362068 C132.808338,19.2347809 132.646027,19.3340665 132.478478,19.3340665 C132.310929,19.3340665 132.195741,19.2780593 132.132911,19.1660431 C132.07008,19.0540269 132.046519,18.9216461 132.062226,18.7688968 C132.077934,18.6161475 132.085788,18.4786751 132.085788,18.3564756 C132.085788,17.664012 131.892062,16.9359177 131.504606,16.172171 L131.708805,16.0194224 Z M135.839909,16.0194224 C136.269253,16.3452877 136.612199,16.7144264 136.868758,17.1268496 C137.125318,17.5392728 137.253595,17.9007742 137.253595,18.2113645 C137.253595,18.5219548 137.185529,18.779079 137.049396,18.9827448 C136.913263,19.1864106 136.730009,19.288242 136.499629,19.288242 C136.405383,19.288242 136.324228,19.2475094 136.256161,19.1660431 C136.188094,19.0845768 136.15668,18.9598334 136.161915,18.7918091 C136.167151,18.6237848 136.169769,18.5295908 136.169769,18.5092242 C136.169769,17.5723616 135.996987,16.7882601 135.651418,16.1568961 L135.839909,16.0194224 Z M143.69372,11.773012 C144.238253,12.1192439 144.727803,12.541844 145.162382,13.0408252 C145.596962,13.5398064 145.966088,14.0820584 146.26977,14.6675975 C146.573452,15.2531367 146.806446,15.8717622 146.968759,16.5234927 C147.131072,17.1752232 147.212227,17.826944 147.212227,18.4786745 C147.212227,19.1405883 147.128454,19.7948548 146.960905,20.4414937 C146.793356,21.0881326 146.557744,21.7093039 146.254062,22.3050263 C145.95038,22.9007488 145.583872,23.4531839 145.154529,23.9623484 C144.725185,24.4715128 144.248725,24.9093877 143.725135,25.2759861 L143.536644,24.9246644 C144.007875,24.5275161 144.418887,24.0845497 144.769692,23.5957518 C145.120497,23.1069539 145.416321,22.5876139 145.657173,22.0377163 C145.898024,21.4878187 146.07866,20.917563 146.199085,20.3269323 C146.319511,19.7363015 146.379723,19.140588 146.379723,18.5397739 C146.379723,17.3381458 146.157201,16.2078176 145.712149,15.1487555 C145.267098,14.0896935 144.526229,13.0968376 143.489521,12.1701583 L143.69372,11.773012 Z"/>
      <path d="M3.94671661,1.16622344 L5.4306716,5.51095628 L7.05916767,0.882871302 C7.1426807,0.642450101 7.28722033,0.522241303 7.49279088,0.522241303 L7.54097124,0.522241303 C7.60521203,0.522241303 7.68872382,0.530827646 7.79150909,0.548000589 C7.91999069,0.57662216 8.00350247,0.590932731 8.04204695,0.590932731 C8.14483222,0.60238136 8.28615986,0.608105589 8.46603409,0.608105589 C8.65875648,0.608105589 8.80972009,0.599519246 8.91892945,0.582346303 L9.25619194,0.530827732 C9.27546418,0.525103417 9.31400808,0.522241303 9.3718248,0.522241303 C9.66733247,0.522241303 9.81508408,0.622415301 9.81508408,0.822766302 C9.81508408,1.00594436 9.71230035,1.09753202 9.5067298,1.09753202 C9.45533716,1.09753202 9.37985536,1.09037673 9.28028212,1.07606594 C9.18070889,1.06175516 9.10522708,1.05459987 9.05383444,1.05459987 C8.72620638,1.05459987 8.5623948,1.26925844 8.5623948,1.69858201 L8.5623948,2.29963201 L8.55275873,3.05523772 L8.55275873,3.78508415 L8.5623948,5.14173986 C8.5623948,5.57106343 8.72299439,5.785722 9.04419837,5.785722 C9.10843917,5.785722 9.17910299,5.77713565 9.25619194,5.75996271 C9.3975217,5.74851408 9.48103348,5.74278985 9.5067298,5.74278985 C9.71230035,5.74278985 9.81508408,5.83437751 9.81508408,6.01755557 C9.81508408,6.22363088 9.67696844,6.32666699 9.40073301,6.32666699 C9.41358117,6.32666699 9.3654013,6.32094277 9.25619194,6.30949414 C8.81293044,6.26369962 8.43712742,6.24080271 8.12877159,6.24080271 C7.82683985,6.24080271 7.53776059,6.26083751 7.26152517,6.30090771 C7.14589173,6.31808065 7.043108,6.32666699 6.95317088,6.32666699 C6.70263177,6.32666699 6.5773641,6.23221722 6.5773641,6.04331485 C6.5773641,5.84868817 6.70584377,5.75137628 6.96280695,5.75137628 C7.02704775,5.75137628 7.07522763,5.7542384 7.10734803,5.75996271 C7.24867778,5.77141134 7.33218956,5.77713557 7.35788588,5.77713557 C7.58915275,5.77713557 7.73369238,5.562477 7.79150909,5.13315343 C7.80435725,5.0415644 7.81078124,4.74962875 7.81078124,4.25733772 C7.81078124,4.06843534 7.81399323,3.79367238 7.82041731,3.43304058 L7.83968945,2.66026201 L7.83968945,1.14046416 C7.83968945,1.10611827 7.82362949,1.08894559 7.79150909,1.08894559 C7.77223685,1.08894559 7.7529649,1.10611827 7.73369267,1.14046416 L5.96065553,6.04331485 C5.88356657,6.2608388 5.70369504,6.36959914 5.42103553,6.36959914 C5.25400946,6.36959914 5.13034778,6.34813328 5.05004678,6.30520092 C4.96974579,6.26226857 4.90711195,6.17497408 4.86214339,6.04331485 L3.11801447,1.14046416 C3.09874223,1.10611827 3.07625829,1.08894559 3.05056197,1.08894559 C3.02486565,1.08894559 3.01201769,1.10611827 3.01201769,1.14046416 L3.06983412,5.13315343 C3.0762582,5.55102837 3.20473786,5.75996271 3.45527697,5.75996271 C3.52594185,5.75996271 3.6223016,5.74851425 3.74435911,5.725617 L3.85999197,5.725617 C4.11053108,5.725617 4.23579875,5.82579099 4.23579875,6.02614199 C4.23579875,6.226493 4.10731909,6.32666699 3.8503559,6.32666699 C3.80538734,6.32666699 3.73793551,6.32094277 3.6479984,6.30949414 C3.50666865,6.29232119 3.35570504,6.27228639 3.19510304,6.24938914 C3.06662145,6.23221619 2.90280987,6.22362985 2.7036634,6.22362985 C2.35033902,6.22362985 2.12228761,6.23221619 2.01950233,6.24938914 L1.61478734,6.31808057 C1.60193918,6.31808057 1.58266723,6.32094268 1.55697091,6.32666699 L1.49915448,6.32666699 C1.20364681,6.32666699 1.0558952,6.226493 1.0558952,6.02614199 C1.0558952,5.94600159 1.08480312,5.87874191 1.14261984,5.82436092 C1.20043656,5.76997994 1.27110037,5.74278985 1.35461341,5.74278985 C1.42527829,5.74278985 1.50879007,5.7513762 1.60515127,5.76854914 C1.70151246,5.78572208 1.77217628,5.79430842 1.81714484,5.79430842 C2.1447729,5.79430842 2.30858448,5.57964986 2.30858448,5.15032628 L2.30858448,1.69858201 C2.30858448,1.26925844 2.1447729,1.05459987 1.81714484,1.05459987 C1.7657522,1.05459987 1.6886644,1.06175516 1.58587912,1.07606594 C1.48309385,1.09037673 1.40600605,1.09753202 1.35461341,1.09753202 C1.15546694,1.09753202 1.0558952,1.00594436 1.0558952,0.822766302 C1.0558952,0.622415301 1.20043482,0.522241303 1.48951841,0.522241303 C1.51521473,0.522241303 1.55697062,0.525103417 1.61478734,0.530827732 L1.95204984,0.565173446 C2.11907591,0.582346389 2.2764635,0.590932731 2.42421733,0.590932731 C2.54627485,0.590932731 2.71169242,0.579484275 2.92047501,0.556587017 C3.1292576,0.53368976 3.2818272,0.522241303 3.3781884,0.522241303 C3.62872751,0.522241303 3.79575108,0.6624849 3.87926411,0.942976301 L3.94671661,1.16622344 Z M13.577532,6.47263628 C12.7231294,6.47263628 12.0470051,6.19787331 11.5491389,5.64833914 C11.0512728,5.09880497 10.8023434,4.35465527 10.8023434,3.41586772 C10.8023434,2.46563154 11.0528787,1.72005079 11.553957,1.17910309 C12.0550352,0.638155384 12.7456134,0.36768559 13.6257123,0.36768559 C14.4672668,0.36768559 15.136967,0.631000098 15.6348332,1.15763701 C16.1326994,1.68427393 16.3816287,2.39694037 16.3816287,3.29565772 C16.3816287,4.26879115 16.1294874,5.04156199 15.6251971,5.61399343 C15.1209069,6.18642486 14.4383586,6.47263628 13.577532,6.47263628 Z M13.5968041,0.985908444 C12.9800924,0.985908444 12.5015057,1.1977049 12.1610295,1.62130416 C11.8205532,2.04490341 11.6503177,2.64022317 11.6503177,3.40728129 C11.6503177,4.18578804 11.8205532,4.78826308 12.1610295,5.2147245 C12.5015057,5.64118591 12.9768805,5.85441342 13.587168,5.85441342 C14.1846074,5.85441342 14.6583762,5.63259957 15.0084886,5.18896521 C15.3586009,4.74533085 15.5336544,4.14285581 15.5336544,3.38152201 C15.5336544,2.61446389 15.3666309,2.0234373 15.0325787,1.60842451 C14.6985266,1.19341173 14.2199398,0.985908444 13.5968041,0.985908444 Z M18.6215773,1.69858201 C18.6215773,1.26925844 18.4577657,1.05459987 18.1301377,1.05459987 C18.072321,1.05459987 18.0048691,1.0603241 17.9277802,1.07177273 C17.8121467,1.08894567 17.725423,1.09753202 17.6676063,1.09753202 C17.4684598,1.09753202 17.368888,1.00594436 17.368888,0.822766302 C17.368888,0.622415301 17.5134277,0.522241303 17.8025113,0.522241303 C17.8346317,0.522241303 17.8763875,0.525103417 17.9277802,0.530827732 L18.438492,0.590932731 C18.6312144,0.613829989 18.8367818,0.625278446 19.0552005,0.625278446 C19.2350748,0.625278446 19.4149463,0.616692103 19.5948205,0.59951916 L20.2211652,0.53941416 C20.3432227,0.527965532 20.5038223,0.522241303 20.7029687,0.522241303 C21.28756,0.522241303 21.7757827,0.596656273 22.1676516,0.745488445 C22.681578,0.940115132 23.0878949,1.27784461 23.3866146,1.75868701 C23.6853343,2.23952941 23.8346919,2.79764169 23.8346919,3.43304058 C23.8346919,3.99402338 23.7158482,4.49918654 23.4781573,4.94854521 C23.2404663,5.39790389 22.9160552,5.72847808 22.5049141,5.94027771 C22.01026,6.19787185 21.4128295,6.32666699 20.7126048,6.32666699 C20.5712751,6.32666699 20.4267354,6.32094277 20.2789816,6.30949414 L19.6140927,6.25797557 C19.3892499,6.24080262 19.1547745,6.23221628 18.9106595,6.23221628 C18.6986648,6.23221628 18.5252173,6.24080262 18.3903116,6.25797557 L17.9277802,6.31808057 C17.914932,6.31808057 17.8924481,6.32094268 17.8603277,6.32666699 L17.7832391,6.32666699 C17.5070037,6.32666699 17.368888,6.226493 17.368888,6.02614199 C17.368888,5.94600159 17.397796,5.87874191 17.4556127,5.82436092 C17.5134294,5.76997994 17.5840932,5.74278985 17.6676063,5.74278985 C17.7382711,5.74278985 17.8249949,5.7513762 17.9277802,5.76854914 C17.9727487,5.77999777 18.0402006,5.785722 18.1301377,5.785722 C18.4577657,5.785722 18.6215773,5.57106343 18.6215773,5.14173986 L18.6215773,1.69858201 Z M19.4310073,1.61271773 L19.4310073,5.244777 C19.4310073,5.50809546 19.5755469,5.66837385 19.8646305,5.725617 C19.9609917,5.74851425 20.230799,5.75996271 20.6740605,5.75996271 C21.4449501,5.75996271 22.0038366,5.57392529 22.3507369,5.20184486 C22.7683021,4.75534834 22.9770816,4.16575281 22.9770816,3.43304058 C22.9770816,2.86060915 22.8502079,2.37548078 22.5964568,1.97764094 C22.3427056,1.5798011 21.9942045,1.32364187 21.550943,1.20915559 C21.2682835,1.1347395 20.9278124,1.09753202 20.5295195,1.09753202 C20.0220172,1.09753202 19.71206,1.12329104 19.5996386,1.17480987 C19.4872172,1.2263287 19.4310073,1.37229653 19.4310073,1.61271773 Z M26.0746405,1.69858201 C26.0746405,1.27498275 25.910829,1.0631863 25.5832009,1.0631863 C25.4932638,1.0631863 25.425812,1.06891053 25.3808434,1.08035916 C25.2780581,1.0975321 25.1913343,1.10611844 25.1206695,1.10611844 C25.0371564,1.10611844 24.9664926,1.07892836 24.9086759,1.02454737 C24.8508592,0.970166387 24.8219513,0.902906702 24.8219513,0.822766302 C24.8219513,0.622415301 24.9568549,0.522241303 25.2266663,0.522241303 C25.2330903,0.522241303 25.2812702,0.525103417 25.3712073,0.530827732 C26.3348193,0.588070875 26.7844981,0.616692017 26.7202573,0.616692017 L26.816618,0.616692017 L29.1389112,0.556587017 C29.1838798,0.556587017 29.3509034,0.548000675 29.6399869,0.530827732 C29.7427722,0.525103417 29.83592,0.522241303 29.919433,0.522241303 C30.2534852,0.522241303 30.4205087,0.653898557 30.4205087,0.917217016 C30.4205087,0.96301153 30.4076608,1.10897936 30.3819644,1.35512487 C30.3626922,1.53830293 30.3530562,1.70716767 30.3530562,1.86172415 C30.3530562,2.06207516 30.3594802,2.20231875 30.3723284,2.28245915 C30.3980247,2.44846427 30.4108727,2.57153518 30.4108727,2.65167558 C30.4108727,2.86919952 30.295241,2.97795986 30.0639741,2.97795986 C29.8327072,2.97795986 29.7170755,2.82626781 29.7170755,2.52287915 L29.7170755,2.07638487 C29.7170755,1.59554247 29.6046558,1.31219316 29.379813,1.22632844 C29.2127869,1.16336099 28.7823801,1.13187773 28.0885795,1.13187773 C27.6324698,1.13187773 27.3626625,1.14046407 27.2791495,1.15763701 C27.002914,1.22060447 26.8647984,1.39233133 26.8647984,1.67282273 L26.8647984,2.24811344 C26.8583743,2.32825384 26.8551623,2.38549612 26.8551623,2.41984201 L26.8551623,2.53146558 C26.8551623,2.76043815 26.9129782,2.89209541 27.0286116,2.92644129 C27.0735802,2.93788992 27.150668,2.94361415 27.2598773,2.94361415 L27.6549562,2.94361415 C28.0596733,2.94361415 28.2620287,2.82054324 28.2620287,2.57439772 C28.2620287,2.50570595 28.2523928,2.41698041 28.2331205,2.30821844 C28.2138483,2.19945647 28.2042123,2.10214458 28.2042123,2.01627987 C28.2042123,1.7873073 28.319844,1.67282273 28.5511109,1.67282273 C28.7823777,1.67282273 28.8980094,1.79589364 28.8980094,2.04203915 C28.8980094,2.08783367 28.8755255,2.26528475 28.8305569,2.57439772 C28.7920125,2.83771618 28.7727405,3.06954743 28.7727405,3.26989843 C28.7727405,3.38438472 28.7855885,3.58759483 28.8112848,3.87953486 C28.8177089,3.92532938 28.8337688,4.02550337 28.8594652,4.18005986 C28.8787374,4.30599477 28.8883734,4.40616877 28.8883734,4.48058486 C28.8883734,4.68666017 28.7727417,4.78969629 28.5414748,4.78969629 C28.316632,4.78969629 28.2042123,4.66948749 28.2042123,4.42906629 C28.2042123,4.36609883 28.2122423,4.27451117 28.2283025,4.15430057 C28.2443627,4.03408997 28.2523927,3.94250232 28.2523927,3.87953486 C28.2523927,3.63338935 28.0693091,3.51031843 27.7031366,3.51031843 L27.2695134,3.51031843 C27.0832151,3.51031843 26.9691894,3.53893958 26.9274329,3.59618272 C26.8856763,3.65342586 26.8647984,3.77649677 26.8647984,3.96539915 L26.8647984,4.49775772 C26.8647984,4.58934674 26.8680104,4.71241766 26.8744345,4.86697414 C26.8808585,5.05587651 26.8840705,5.18180954 26.8840705,5.244777 C26.8904946,5.47374957 26.9418865,5.61685528 27.0382477,5.67409843 C27.1089125,5.71416863 27.2759361,5.73420342 27.5393234,5.73420342 L28.8498291,5.73420342 C29.2288498,5.73420342 29.4890211,5.68411643 29.6303509,5.58394093 C29.7716806,5.48376542 29.8423444,5.29629694 29.8423444,5.02152986 C29.8423444,4.93566514 29.8375265,4.80830106 29.8278903,4.63943379 C29.8182542,4.47056651 29.8134362,4.34320243 29.8134362,4.25733772 C29.8134362,3.99974357 29.9290679,3.87094843 30.1603348,3.87094843 C30.4044498,3.87094843 30.5265055,4.00260569 30.5265055,4.26592415 C30.5265055,4.3689618 30.5200815,4.52637808 30.5072334,4.73817771 C30.4943852,4.94997734 30.4879612,5.10739363 30.4879612,5.21043128 C30.4879612,5.29057168 30.4927792,5.40934942 30.5024153,5.56676807 C30.5120515,5.72418671 30.5168694,5.84296445 30.5168694,5.92310485 C30.5168694,6.19214763 30.3691178,6.32666699 30.0736102,6.32666699 C30.0029453,6.32666699 29.8905256,6.32094277 29.7363477,6.30949414 C29.6592587,6.30376982 29.5179311,6.30090771 29.3123605,6.30090771 C29.3573291,6.30090771 29.1067937,6.29518348 28.560747,6.28373485 C28.0147002,6.27228622 27.5425374,6.26656199 27.1442445,6.26656199 C26.540381,6.26656199 25.9493745,6.28373468 25.3712073,6.31808057 C25.345511,6.31808057 25.3166031,6.32094268 25.2844827,6.32666699 L25.2266663,6.32666699 C24.9568549,6.32666699 24.8219513,6.22363088 24.8219513,6.01755557 C24.8219513,5.83437751 24.921523,5.74278985 25.1206695,5.74278985 C25.1527899,5.74278985 25.2395136,5.74851408 25.3808434,5.75996271 C25.4515083,5.77713565 25.5189601,5.785722 25.5832009,5.785722 C25.910829,5.785722 26.0746405,5.57106343 26.0746405,5.14173986 L26.0746405,1.69858201 Z M36.7365155,3.12392915 C36.5502172,3.20406955 36.3125298,3.27276029 36.0234462,3.33000343 C36.4024669,3.39297089 36.6642443,3.51890392 36.8087861,3.70780629 C36.9533278,3.89670866 37.0255977,4.20867911 37.0255977,4.643727 L37.0255977,5.03870271 C37.0191736,5.06159997 37.0159616,5.09594534 37.0159616,5.14173986 C37.0159616,5.55389049 37.1637132,5.75996271 37.4592209,5.75996271 C37.7611526,5.75996271 37.9121162,5.51382089 37.9121162,5.02152986 L37.9121162,4.763937 L37.9024802,4.54927629 L37.9024802,4.42906629 C37.9024802,4.26306117 37.9153281,4.1485766 37.9410244,4.08560915 C37.9924171,3.9882958 38.0919888,3.93963986 38.2397427,3.93963986 C38.4710095,3.93963986 38.5866412,4.05984866 38.5866412,4.30026986 C38.5866412,4.30599417 38.5834292,4.36896069 38.5770052,4.48917129 L38.5673691,4.66948629 C38.560945,4.78969689 38.557733,4.86697397 38.557733,4.90131986 L38.557733,5.11598057 C38.5641571,5.15032646 38.5673691,5.20184451 38.5673691,5.27053628 C38.5673691,5.60254651 38.4629793,5.86156785 38.2541968,6.04760807 C38.0454142,6.23364828 37.7547289,6.32666699 37.3821323,6.32666699 C36.6240909,6.32666699 36.2450759,5.9860754 36.2450759,5.304882 L36.2450759,5.04728914 L36.2547119,4.75535057 L36.2547119,4.56644914 C36.2547119,4.18292008 36.1728062,3.92962298 36.0089921,3.80655022 C35.8451781,3.68347746 35.506313,3.621942 34.9923866,3.621942 L34.096232,3.621942 C33.8906614,3.621942 33.7878777,3.73356446 33.7878777,3.95681272 L33.7878777,4.61796772 C33.7878777,5.04156697 33.7943017,5.28198457 33.8071498,5.33922771 C33.8649665,5.62544343 34.0255661,5.76854914 34.2889534,5.76854914 C34.3788905,5.76854914 34.4463423,5.76282491 34.4913109,5.75137628 C34.6005202,5.73420334 34.684032,5.725617 34.7418487,5.725617 C34.9474193,5.725617 35.050203,5.82292888 35.050203,6.01755557 C35.050203,6.22363088 34.9120874,6.32666699 34.635852,6.32666699 L34.4913109,6.30949414 L33.970963,6.24938914 C33.7718166,6.22649188 33.595157,6.21504342 33.4409791,6.21504342 C33.2482567,6.21504342 33.0234173,6.22935399 32.7664541,6.25797557 L32.3039227,6.30949414 C32.2011374,6.32094277 32.1529575,6.32666699 32.1593816,6.32666699 C31.8831462,6.32666699 31.7450305,6.22363088 31.7450305,6.01755557 C31.7450305,5.83437751 31.8446023,5.74278985 32.0437488,5.74278985 C32.0758692,5.74278985 32.1625929,5.74851408 32.3039227,5.75996271 C32.3745876,5.77713565 32.4420394,5.785722 32.5062802,5.785722 C32.8339082,5.785722 32.9977198,5.57106343 32.9977198,5.14173986 L32.9977198,1.69858201 C32.9977198,1.26925844 32.8339082,1.05459987 32.5062802,1.05459987 C32.4548875,1.05459987 32.3777997,1.06175516 32.2750145,1.07606594 C32.1722292,1.09037673 32.0951414,1.09753202 32.0437488,1.09753202 C31.9602357,1.09753202 31.8895719,1.07034193 31.8317552,1.01596094 C31.7739385,0.961579958 31.7450305,0.897182388 31.7450305,0.822766302 C31.7450305,0.622415301 31.8863582,0.522241303 32.1690177,0.522241303 C32.194714,0.522241303 32.2396819,0.525103417 32.3039227,0.530827732 L32.7953623,0.573759874 C32.9238439,0.585208503 33.0844435,0.590932731 33.2771659,0.590932731 C33.4763124,0.590932731 33.6979398,0.585208503 33.9420548,0.573759874 L34.6743962,0.53941416 C34.9185113,0.527965532 35.1433507,0.522241303 35.3489212,0.522241303 C36.7622188,0.522241303 37.4688569,1.00307649 37.4688569,1.9647613 C37.4688569,2.53146841 37.2247456,2.91785383 36.7365155,3.12392915 Z M34.0673237,3.04665129 L34.9731145,3.04665129 C35.5127371,3.04665129 35.9174481,2.97796055 36.1872594,2.84057701 C36.5148875,2.67457189 36.6786991,2.39694681 36.6786991,2.00769344 C36.6786991,1.35512161 36.1776284,1.02884059 35.175472,1.02884059 C34.6422733,1.02884059 34.2809243,1.06461701 34.0914139,1.13617094 C33.9019036,1.20772487 33.8039378,1.34939953 33.7975137,1.56119916 L33.7878777,1.83596487 L33.7878777,2.82340415 C33.7878777,2.92071749 33.8071496,2.98225295 33.8456941,3.00801236 C33.8842386,3.03377178 33.9581144,3.04665129 34.0673237,3.04665129 Z M41.8672855,0.908630587 L44.4593887,5.70844414 L44.4593887,2.24811344 C44.4593887,1.80161692 44.4561767,1.5554751 44.4497527,1.50968058 C44.3919359,1.21201624 44.2313364,1.0631863 43.9679491,1.0631863 C43.9165564,1.0631863 43.8394686,1.07034159 43.7366834,1.08465237 C43.6338981,1.09896316 43.5568103,1.10611844 43.5054177,1.10611844 C43.4219046,1.10611844 43.3496348,1.07892836 43.2886061,1.02454737 C43.2275773,0.970166387 43.1970634,0.905768817 43.1970634,0.83135273 C43.1970634,0.625277415 43.341603,0.522241303 43.6306866,0.522241303 C43.6885033,0.522241303 43.7302592,0.525103417 43.7559555,0.530827732 L44.1895787,0.582346303 C44.3823011,0.60524356 44.5621727,0.616692017 44.7291987,0.616692017 C44.8962248,0.616692017 45.1178522,0.599519332 45.3940877,0.565173446 C45.4904488,0.553724817 45.6028686,0.539414246 45.7313501,0.522241303 C45.7441983,0.522241303 45.7666823,0.519379189 45.7988026,0.513654875 L45.8662551,0.513654875 C46.1424906,0.513654875 46.2806062,0.613828872 46.2806062,0.814179873 C46.2806062,1.00880656 46.1521266,1.10611844 45.8951634,1.10611844 C45.8501948,1.10611844 45.8148629,1.10325633 45.7891666,1.09753202 L45.6928059,1.09753202 C45.5000835,1.09753202 45.3748158,1.1347395 45.3169991,1.20915559 C45.2591824,1.28357167 45.2238505,1.44671218 45.2110023,1.69858201 L45.1917302,2.18800844 L45.172458,3.06382415 L45.172458,5.35640057 C45.172458,5.75137826 45.1226721,6.02900334 45.0230989,6.18928414 C44.9235257,6.34956494 44.7516841,6.42970414 44.5075691,6.42970414 C44.1927892,6.42970414 43.9261939,6.22935614 43.7077752,5.82865414 L41.1831245,1.14905059 L41.1831245,5.14173986 C41.1831245,5.57106343 41.346936,5.785722 41.6745641,5.785722 C41.7259567,5.785722 41.8030445,5.77856671 41.9058298,5.76425592 C42.0086151,5.74994514 42.0857029,5.74278985 42.1370955,5.74278985 C42.3426661,5.74278985 42.4454498,5.83723962 42.4454498,6.02614199 C42.4454498,6.226493 42.3009102,6.32666699 42.0118266,6.32666699 L41.9540102,6.32666699 C41.9218898,6.32094268 41.8994058,6.31808057 41.8865577,6.31808057 L41.4914787,6.26656199 C41.27306,6.23794042 41.0674926,6.22362985 40.8747702,6.22362985 C40.7077441,6.22362985 40.4925407,6.23794042 40.2291534,6.26656199 L39.7569859,6.31808057 C39.7441377,6.31808057 39.7216538,6.32094268 39.6895334,6.32666699 L39.6124448,6.32666699 C39.3362094,6.32666699 39.1980938,6.226493 39.1980938,6.02614199 C39.1980938,5.84868825 39.3008775,5.75996271 39.506448,5.75996271 C39.5385684,5.75996271 39.6252922,5.76568694 39.766622,5.77713557 C39.8372868,5.79430851 39.9047387,5.80289485 39.9689795,5.80289485 C40.2966075,5.80289485 40.4604191,5.58823629 40.4604191,5.15891271 L40.4604191,4.55786272 L40.4700552,3.802257 L40.4700552,3.06382415 L40.4604191,1.70716844 C40.4604191,1.27784487 40.2933955,1.0631863 39.9593434,1.0631863 C39.9143748,1.0631863 39.850135,1.06891053 39.766622,1.08035916 C39.6445644,1.0975321 39.5546287,1.10611844 39.496812,1.10611844 C39.2912414,1.10611844 39.1884577,1.01166867 39.1884577,0.822766302 C39.1884577,0.622415301 39.3265733,0.522241303 39.6028087,0.522241303 C39.6413532,0.522241303 39.6927451,0.525103417 39.7569859,0.530827732 C40.0781899,0.559449303 40.3255132,0.573759874 40.4989634,0.573759874 C40.5953246,0.573759874 40.7398642,0.565173532 40.9325866,0.548000589 C41.125309,0.530827646 41.2698486,0.522241303 41.3662098,0.522241303 C41.5653563,0.522241303 41.6970479,0.582345702 41.7612887,0.702556302 L41.8672855,0.908630587 Z M51.7530188,1.87889701 L52.5431766,5.51095628 L53.535692,1.04601344 C53.619205,0.656760071 53.8344084,0.462136303 54.1813087,0.462136303 C54.5474813,0.462136303 54.7658967,0.633863157 54.8365616,0.977322016 L55.8001687,5.57106128 L56.6192348,2.00769344 C56.6770515,1.75582361 56.7059594,1.56406196 56.7059594,1.43240273 C56.7059594,1.19770584 56.5710558,1.08035916 56.3012445,1.08035916 C56.2434277,1.08035916 56.1599159,1.08322127 56.0507066,1.08894559 C55.9414972,1.0946699 55.8579855,1.09753202 55.8001687,1.09753202 C55.5239333,1.09753202 55.3858177,1.00022013 55.3858177,0.805593445 C55.3858177,0.616691073 55.5207213,0.522241303 55.7905327,0.522241303 C55.8933179,0.522241303 55.9993137,0.527965532 56.108523,0.53941416 C56.6352976,0.596657303 56.9821927,0.625278446 57.1492187,0.625278446 C57.2777003,0.625278446 57.4688138,0.60810576 57.722565,0.573759874 C57.9763161,0.539413989 58.1674296,0.522241303 58.2959112,0.522241303 C58.5336022,0.522241303 58.6524459,0.622415301 58.6524459,0.822766302 C58.6524459,1.00594436 58.5368142,1.09753202 58.3055473,1.09753202 C58.2670028,1.09753202 58.209187,1.09323884 58.132098,1.08465237 C58.0550091,1.0760659 57.9971932,1.07177273 57.9586487,1.07177273 C57.8237431,1.07177273 57.7257773,1.11756656 57.6647486,1.20915559 C57.6037198,1.30074462 57.53145,1.50681684 57.4479369,1.82737844 L56.3686969,5.92310485 C56.2851839,6.23794214 56.0860404,6.39535842 55.7712605,6.39535842 C55.4372084,6.39535842 55.2284289,6.20073465 55.1449159,5.81148128 L54.1716727,1.26926059 L53.1020688,5.93169128 C53.0314039,6.24080425 52.8483203,6.39535842 52.5528127,6.39535842 C52.2508809,6.39535842 52.0581614,6.23794214 51.9746484,5.92310485 L50.8279559,1.64706344 C50.7701392,1.4295395 50.6978694,1.28214062 50.6111443,1.20486237 C50.5244192,1.12758413 50.3879096,1.08894559 50.2016113,1.08894559 L50.1341588,1.08894559 L49.9221652,1.10611844 C49.7165946,1.10611844 49.6138109,1.01166867 49.6138109,0.822766302 C49.6138109,0.622415301 49.7262306,0.522241303 49.9510734,0.522241303 C50.0410105,0.522241303 50.1437943,0.530827646 50.2594277,0.548000589 C50.606328,0.599519418 50.9435871,0.625278446 51.2712152,0.625278446 C51.4253931,0.625278446 51.7787122,0.596657303 52.331183,0.53941416 C52.4275442,0.527965532 52.520692,0.522241303 52.6106291,0.522241303 C52.841896,0.522241303 52.9575277,0.616691073 52.9575277,0.805593445 C52.9575277,1.01166876 52.8162,1.11470487 52.5335405,1.11470487 C52.4757238,1.11470487 52.3873941,1.10898064 52.2685486,1.09753202 C52.1497031,1.08608339 52.0613733,1.08035916 52.0035566,1.08035916 C51.7787138,1.08035916 51.6662941,1.17480893 51.6662941,1.3637113 C51.6662941,1.43240307 51.6759301,1.51254227 51.6952023,1.6041313 L51.7530188,1.87889701 Z M61.9427262,6.47263628 C61.0883236,6.47263628 60.4121994,6.19787331 59.9143332,5.64833914 C59.416467,5.09880497 59.1675377,4.35465527 59.1675377,3.41586772 C59.1675377,2.46563154 59.418073,1.72005079 59.9191513,1.17910309 C60.4202295,0.638155384 61.1108077,0.36768559 61.9909066,0.36768559 C62.832461,0.36768559 63.5021613,0.631000098 64.0000275,1.15763701 C64.4978937,1.68427393 64.746823,2.39694037 64.746823,3.29565772 C64.746823,4.26879115 64.4946817,5.04156199 63.9903914,5.61399343 C63.4861012,6.18642486 62.8035529,6.47263628 61.9427262,6.47263628 Z M61.9619984,0.985908444 C61.3452867,0.985908444 60.8667,1.1977049 60.5262237,1.62130416 C60.1857475,2.04490341 60.015512,2.64022317 60.015512,3.40728129 C60.015512,4.18578804 60.1857475,4.78826308 60.5262237,5.2147245 C60.8667,5.64118591 61.3420747,5.85441342 61.9523623,5.85441342 C62.5498017,5.85441342 63.0235705,5.63259957 63.3736828,5.18896521 C63.7237952,4.74533085 63.8988487,4.14285581 63.8988487,3.38152201 C63.8988487,2.61446389 63.7318252,2.0234373 63.397773,1.60842451 C63.0637209,1.19341173 62.5851341,0.985908444 61.9619984,0.985908444 Z M68.6249037,1.16622344 L70.1088587,5.51095628 L71.7373548,0.882871302 C71.8208678,0.642450101 71.9654075,0.522241303 72.170978,0.522241303 L72.2191584,0.522241303 C72.2833992,0.522241303 72.3669109,0.530827646 72.4696962,0.548000589 C72.5981778,0.57662216 72.6816896,0.590932731 72.7202341,0.590932731 C72.8230194,0.60238136 72.964347,0.608105589 73.1442212,0.608105589 C73.3369436,0.608105589 73.4879072,0.599519246 73.5971166,0.582346303 L73.9343791,0.530827732 C73.9536513,0.525103417 73.9921952,0.522241303 74.0500119,0.522241303 C74.3455196,0.522241303 74.4932712,0.622415301 74.4932712,0.822766302 C74.4932712,1.00594436 74.3904875,1.09753202 74.1849169,1.09753202 C74.1335243,1.09753202 74.0580425,1.09037673 73.9584693,1.07606594 C73.858896,1.06175516 73.7834142,1.05459987 73.7320216,1.05459987 C73.4043935,1.05459987 73.2405819,1.26925844 73.2405819,1.69858201 L73.2405819,2.29963201 L73.2309459,3.05523772 L73.2309459,3.78508415 L73.2405819,5.14173986 C73.2405819,5.57106343 73.4011815,5.785722 73.7223855,5.785722 C73.7866263,5.785722 73.8572901,5.77713565 73.9343791,5.75996271 C74.0757088,5.74851408 74.1592206,5.74278985 74.1849169,5.74278985 C74.3904875,5.74278985 74.4932712,5.83437751 74.4932712,6.01755557 C74.4932712,6.22363088 74.3551556,6.32666699 74.0789201,6.32666699 C74.0917683,6.32666699 74.0435884,6.32094277 73.9343791,6.30949414 C73.4911176,6.26369962 73.1153145,6.24080271 72.8069587,6.24080271 C72.505027,6.24080271 72.2159477,6.26083751 71.9397123,6.30090771 C71.8240789,6.31808065 71.7212951,6.32666699 71.631358,6.32666699 C71.3808189,6.32666699 71.2555512,6.23221722 71.2555512,6.04331485 C71.2555512,5.84868817 71.3840309,5.75137628 71.6409941,5.75137628 C71.7052349,5.75137628 71.7534148,5.7542384 71.7855352,5.75996271 C71.9268649,5.77141134 72.0103767,5.77713557 72.036073,5.77713557 C72.2673399,5.77713557 72.4118795,5.562477 72.4696962,5.13315343 C72.4825444,5.0415644 72.4889684,4.74962875 72.4889684,4.25733772 C72.4889684,4.06843534 72.4921804,3.79367238 72.4986044,3.43304058 L72.5178766,2.66026201 L72.5178766,1.14046416 C72.5178766,1.10611827 72.5018166,1.08894559 72.4696962,1.08894559 C72.450424,1.08894559 72.431152,1.10611827 72.4118798,1.14046416 L70.6388427,6.04331485 C70.5617537,6.2608388 70.3818822,6.36959914 70.0992227,6.36959914 C69.9321966,6.36959914 69.8085349,6.34813328 69.7282339,6.30520092 C69.6479329,6.26226857 69.5852991,6.17497408 69.5403305,6.04331485 L67.7962016,1.14046416 C67.7769294,1.10611827 67.7544454,1.08894559 67.7287491,1.08894559 C67.7030528,1.08894559 67.6902048,1.10611827 67.6902048,1.14046416 L67.7480212,5.13315343 C67.7544453,5.55102837 67.882925,5.75996271 68.1334641,5.75996271 C68.204129,5.75996271 68.3004887,5.74851425 68.4225462,5.725617 L68.5381791,5.725617 C68.7887182,5.725617 68.9139859,5.82579099 68.9139859,6.02614199 C68.9139859,6.226493 68.7855062,6.32666699 68.528543,6.32666699 C68.4835745,6.32666699 68.4161226,6.32094277 68.3261855,6.30949414 C68.1848558,6.29232119 68.0338922,6.27228639 67.8732902,6.24938914 C67.7448086,6.23221619 67.580997,6.22362985 67.3818505,6.22362985 C67.0285262,6.22362985 66.8004747,6.23221619 66.6976895,6.24938914 L66.2929745,6.31808057 C66.2801263,6.31808057 66.2608544,6.32094268 66.235158,6.32666699 L66.1773416,6.32666699 C65.8818339,6.32666699 65.7340823,6.226493 65.7340823,6.02614199 C65.7340823,5.94600159 65.7629903,5.87874191 65.820807,5.82436092 C65.8786237,5.76997994 65.9492875,5.74278985 66.0328005,5.74278985 C66.1034654,5.74278985 66.1869772,5.7513762 66.2833384,5.76854914 C66.3796996,5.78572208 66.4503634,5.79430842 66.495332,5.79430842 C66.82296,5.79430842 66.9867716,5.57964986 66.9867716,5.15032628 L66.9867716,1.69858201 C66.9867716,1.26925844 66.82296,1.05459987 66.495332,1.05459987 C66.4439393,1.05459987 66.3668515,1.06175516 66.2640663,1.07606594 C66.161281,1.09037673 66.0841932,1.09753202 66.0328005,1.09753202 C65.8336541,1.09753202 65.7340823,1.00594436 65.7340823,0.822766302 C65.7340823,0.622415301 65.878622,0.522241303 66.1677055,0.522241303 C66.1934019,0.522241303 66.2351578,0.525103417 66.2929745,0.530827732 L66.630237,0.565173446 C66.797263,0.582346389 66.9546506,0.590932731 67.1024045,0.590932731 C67.224462,0.590932731 67.3898795,0.579484275 67.5986621,0.556587017 C67.8074447,0.53368976 67.9600143,0.522241303 68.0563755,0.522241303 C68.3069146,0.522241303 68.4739382,0.6624849 68.5574512,0.942976301 L68.6249037,1.16622344 Z M76.5501345,1.69858201 C76.5501345,1.27498275 76.3863229,1.0631863 76.0586948,1.0631863 C75.9687577,1.0631863 75.9013059,1.06891053 75.8563373,1.08035916 C75.753552,1.0975321 75.6668283,1.10611844 75.5961634,1.10611844 C75.5126503,1.10611844 75.4419865,1.07892836 75.3841698,1.02454737 C75.3263531,0.970166387 75.2974452,0.902906702 75.2974452,0.822766302 C75.2974452,0.622415301 75.4323488,0.522241303 75.7021602,0.522241303 C75.7085843,0.522241303 75.7567641,0.525103417 75.8467012,0.530827732 C76.8103132,0.588070875 77.259992,0.616692017 77.1957512,0.616692017 L77.2921119,0.616692017 L79.6144052,0.556587017 C79.6593737,0.556587017 79.8263973,0.548000675 80.1154809,0.530827732 C80.2182661,0.525103417 80.3114139,0.522241303 80.3949269,0.522241303 C80.7289791,0.522241303 80.8960026,0.653898557 80.8960026,0.917217016 C80.8960026,0.96301153 80.8831547,1.10897936 80.8574584,1.35512487 C80.8381861,1.53830293 80.8285501,1.70716767 80.8285501,1.86172415 C80.8285501,2.06207516 80.8349741,2.20231875 80.8478223,2.28245915 C80.8735186,2.44846427 80.8863666,2.57153518 80.8863666,2.65167558 C80.8863666,2.86919952 80.7707349,2.97795986 80.539468,2.97795986 C80.3082011,2.97795986 80.1925694,2.82626781 80.1925694,2.52287915 L80.1925694,2.07638487 C80.1925694,1.59554247 80.0801497,1.31219316 79.8553069,1.22632844 C79.6882809,1.16336099 79.257874,1.13187773 78.5640734,1.13187773 C78.1079637,1.13187773 77.8381564,1.14046407 77.7546434,1.15763701 C77.4784079,1.22060447 77.3402923,1.39233133 77.3402923,1.67282273 L77.3402923,2.24811344 C77.3338682,2.32825384 77.3306562,2.38549612 77.3306562,2.41984201 L77.3306562,2.53146558 C77.3306562,2.76043815 77.3884721,2.89209541 77.5041055,2.92644129 C77.5490741,2.93788992 77.6261619,2.94361415 77.7353712,2.94361415 L78.1304502,2.94361415 C78.5351672,2.94361415 78.7375227,2.82054324 78.7375227,2.57439772 C78.7375227,2.50570595 78.7278867,2.41698041 78.7086144,2.30821844 C78.6893422,2.19945647 78.6797062,2.10214458 78.6797062,2.01627987 C78.6797062,1.7873073 78.7953379,1.67282273 79.0266048,1.67282273 C79.2578717,1.67282273 79.3735034,1.79589364 79.3735034,2.04203915 C79.3735034,2.08783367 79.3510194,2.26528475 79.3060509,2.57439772 C79.2675064,2.83771618 79.2482344,3.06954743 79.2482344,3.26989843 C79.2482344,3.38438472 79.2610824,3.58759483 79.2867787,3.87953486 C79.2932028,3.92532938 79.3092628,4.02550337 79.3349591,4.18005986 C79.3542313,4.30599477 79.3638673,4.40616877 79.3638673,4.48058486 C79.3638673,4.68666017 79.2482356,4.78969629 79.0169687,4.78969629 C78.7921259,4.78969629 78.6797062,4.66948749 78.6797062,4.42906629 C78.6797062,4.36609883 78.6877362,4.27451117 78.7037964,4.15430057 C78.7198566,4.03408997 78.7278866,3.94250232 78.7278866,3.87953486 C78.7278866,3.63338935 78.5448031,3.51031843 78.1786305,3.51031843 L77.7450073,3.51031843 C77.558709,3.51031843 77.4446833,3.53893958 77.4029268,3.59618272 C77.3611703,3.65342586 77.3402923,3.77649677 77.3402923,3.96539915 L77.3402923,4.49775772 C77.3402923,4.58934674 77.3435043,4.71241766 77.3499284,4.86697414 C77.3563525,5.05587651 77.3595644,5.18180954 77.3595644,5.244777 C77.3659885,5.47374957 77.4173804,5.61685528 77.5137416,5.67409843 C77.5844065,5.71416863 77.75143,5.73420342 78.0148173,5.73420342 L79.325323,5.73420342 C79.7043437,5.73420342 79.964515,5.68411643 80.1058448,5.58394093 C80.2471745,5.48376542 80.3178384,5.29629694 80.3178384,5.02152986 C80.3178384,4.93566514 80.3130204,4.80830106 80.3033843,4.63943379 C80.2937481,4.47056651 80.2889301,4.34320243 80.2889301,4.25733772 C80.2889301,3.99974357 80.4045618,3.87094843 80.6358287,3.87094843 C80.8799437,3.87094843 81.0019994,4.00260569 81.0019994,4.26592415 C81.0019994,4.3689618 80.9955754,4.52637808 80.9827273,4.73817771 C80.9698791,4.94997734 80.9634551,5.10739363 80.9634551,5.21043128 C80.9634551,5.29057168 80.9682731,5.40934942 80.9779093,5.56676807 C80.9875454,5.72418671 80.9923634,5.84296445 80.9923634,5.92310485 C80.9923634,6.19214763 80.8446117,6.32666699 80.5491041,6.32666699 C80.4784392,6.32666699 80.3660195,6.32094277 80.2118416,6.30949414 C80.1347526,6.30376982 79.993425,6.30090771 79.7878544,6.30090771 C79.832823,6.30090771 79.5822876,6.29518348 79.0362409,6.28373485 C78.4901941,6.27228622 78.0180313,6.26656199 77.6197384,6.26656199 C77.0158749,6.26656199 76.4248684,6.28373468 75.8467012,6.31808057 C75.8210049,6.31808057 75.792097,6.32094268 75.7599766,6.32666699 L75.7021602,6.32666699 C75.4323488,6.32666699 75.2974452,6.22363088 75.2974452,6.01755557 C75.2974452,5.83437751 75.3970169,5.74278985 75.5961634,5.74278985 C75.6282838,5.74278985 75.7150076,5.74851408 75.8563373,5.75996271 C75.9270022,5.77713565 75.994454,5.785722 76.0586948,5.785722 C76.3863229,5.785722 76.5501345,5.57106343 76.5501345,5.14173986 L76.5501345,1.69858201 Z M84.8897162,0.908630587 L87.4818194,5.70844414 L87.4818194,2.24811344 C87.4818194,1.80161692 87.4786074,1.5554751 87.4721834,1.50968058 C87.4143666,1.21201624 87.2537671,1.0631863 86.9903798,1.0631863 C86.9389872,1.0631863 86.8618994,1.07034159 86.7591141,1.08465237 C86.6563288,1.09896316 86.579241,1.10611844 86.5278484,1.10611844 C86.4443353,1.10611844 86.3720655,1.07892836 86.3110368,1.02454737 C86.250008,0.970166387 86.2194941,0.905768817 86.2194941,0.83135273 C86.2194941,0.625277415 86.3640337,0.522241303 86.6531173,0.522241303 C86.710934,0.522241303 86.7526899,0.525103417 86.7783862,0.530827732 L87.2120094,0.582346303 C87.4047318,0.60524356 87.5846034,0.616692017 87.7516294,0.616692017 C87.9186555,0.616692017 88.1402829,0.599519332 88.4165184,0.565173446 C88.5128796,0.553724817 88.6252993,0.539414246 88.7537809,0.522241303 C88.766629,0.522241303 88.789113,0.519379189 88.8212334,0.513654875 L88.8886859,0.513654875 C89.1649213,0.513654875 89.3030369,0.613828872 89.3030369,0.814179873 C89.3030369,1.00880656 89.1745573,1.10611844 88.9175941,1.10611844 C88.8726255,1.10611844 88.8372936,1.10325633 88.8115973,1.09753202 L88.7152366,1.09753202 C88.5225142,1.09753202 88.3972465,1.1347395 88.3394298,1.20915559 C88.2816131,1.28357167 88.2462812,1.44671218 88.233433,1.69858201 L88.2141609,2.18800844 L88.1948887,3.06382415 L88.1948887,5.35640057 C88.1948887,5.75137826 88.1451028,6.02900334 88.0455296,6.18928414 C87.9459564,6.34956494 87.7741148,6.42970414 87.5299998,6.42970414 C87.2152199,6.42970414 86.9486246,6.22935614 86.7302059,5.82865414 L84.2055552,1.14905059 L84.2055552,5.14173986 C84.2055552,5.57106343 84.3693667,5.785722 84.6969948,5.785722 C84.7483874,5.785722 84.8254752,5.77856671 84.9282605,5.76425592 C85.0310458,5.74994514 85.1081336,5.74278985 85.1595262,5.74278985 C85.3650968,5.74278985 85.4678805,5.83723962 85.4678805,6.02614199 C85.4678805,6.226493 85.3233409,6.32666699 85.0342573,6.32666699 L84.9764409,6.32666699 C84.9443205,6.32094268 84.9218365,6.31808057 84.9089884,6.31808057 L84.5139094,6.26656199 C84.2954907,6.23794042 84.0899233,6.22362985 83.8972009,6.22362985 C83.7301748,6.22362985 83.5149714,6.23794042 83.2515841,6.26656199 L82.7794166,6.31808057 C82.7665684,6.31808057 82.7440845,6.32094268 82.7119641,6.32666699 L82.6348755,6.32666699 C82.3586401,6.32666699 82.2205245,6.226493 82.2205245,6.02614199 C82.2205245,5.84868825 82.3233082,5.75996271 82.5288787,5.75996271 C82.5609991,5.75996271 82.6477229,5.76568694 82.7890527,5.77713557 C82.8597175,5.79430851 82.9271694,5.80289485 82.9914102,5.80289485 C83.3190382,5.80289485 83.4828498,5.58823629 83.4828498,5.15891271 L83.4828498,4.55786272 L83.4924859,3.802257 L83.4924859,3.06382415 L83.4828498,1.70716844 C83.4828498,1.27784487 83.3158262,1.0631863 82.9817741,1.0631863 C82.9368055,1.0631863 82.8725657,1.06891053 82.7890527,1.08035916 C82.6669952,1.0975321 82.5770594,1.10611844 82.5192427,1.10611844 C82.3136721,1.10611844 82.2108884,1.01166867 82.2108884,0.822766302 C82.2108884,0.622415301 82.349004,0.522241303 82.6252395,0.522241303 C82.6637839,0.522241303 82.7151758,0.525103417 82.7794166,0.530827732 C83.1006206,0.559449303 83.3479439,0.573759874 83.5213941,0.573759874 C83.6177553,0.573759874 83.7622949,0.565173532 83.9550173,0.548000589 C84.1477397,0.530827646 84.2922793,0.522241303 84.3886405,0.522241303 C84.587787,0.522241303 84.7194786,0.582345702 84.7837194,0.702556302 L84.8897162,0.908630587 Z M94.9103545,2.97795986 L97.9938973,2.97795986 L97.9938973,1.71575487 C97.9938973,1.2864313 97.8300857,1.07177273 97.5024577,1.07177273 C97.4639132,1.07177273 97.3948554,1.08035907 97.2952821,1.09753202 C97.1957089,1.11470496 97.1105911,1.1232913 97.0399262,1.1232913 C96.8343557,1.1232913 96.731572,1.02884153 96.731572,0.839939159 C96.731572,0.633863844 96.8696876,0.530827732 97.145923,0.530827732 C97.2358601,0.530827732 97.3996717,0.548000417 97.6373627,0.582346303 C97.8750536,0.616692189 98.093469,0.633864874 98.2926155,0.633864874 C98.6138195,0.633864874 98.9350187,0.613830075 99.2562227,0.573759874 C99.442521,0.550862617 99.5645767,0.53941416 99.6223934,0.53941416 C99.9050529,0.53941416 100.046381,0.639588158 100.046381,0.839939159 C100.046381,1.02311722 99.9468088,1.11470487 99.7476623,1.11470487 C99.6962697,1.11470487 99.6191819,1.10754959 99.5163966,1.0932388 C99.4136113,1.07892802 99.3365235,1.07177273 99.2851309,1.07177273 C98.9575028,1.07177273 98.7936912,1.2864313 98.7936912,1.71575487 L98.7936912,5.14173986 C98.7936912,5.57106343 98.9542908,5.785722 99.2754948,5.785722 C99.3268874,5.785722 99.4055812,5.77856671 99.5115785,5.76425592 C99.6175759,5.74994514 99.6962697,5.74278985 99.7476623,5.74278985 C99.9468088,5.74278985 100.046381,5.83437751 100.046381,6.01755557 C100.046381,6.22363088 99.9050529,6.32666699 99.6223934,6.32666699 C99.5645767,6.32666699 99.439309,6.30949431 99.2465866,6.27514842 C99.0217438,6.23507822 98.7776324,6.21504342 98.5142452,6.21504342 C98.1609208,6.21504342 97.8622056,6.23221611 97.6180905,6.26656199 C97.335431,6.30663219 97.1812554,6.32666699 97.1555591,6.32666699 C96.8728996,6.32666699 96.731572,6.22363088 96.731572,6.01755557 C96.731572,5.82865319 96.8343557,5.73420342 97.0399262,5.73420342 C97.0913189,5.73420342 97.1684067,5.74135871 97.271192,5.7556695 C97.3739772,5.76998028 97.451065,5.77713557 97.5024577,5.77713557 C97.772269,5.77713557 97.9328686,5.61971929 97.9842612,5.304882 C97.9906853,5.2648118 97.9938973,5.00722152 97.9938973,4.53210343 L97.9938973,3.56183701 L94.9103545,3.56183701 L94.9103545,4.54068986 C94.9103545,5.01580795 94.9135665,5.27339823 94.9199905,5.31346843 C94.9713832,5.62830571 95.1319828,5.785722 95.4017941,5.785722 C95.4531867,5.785722 95.5318805,5.77856671 95.6378779,5.76425592 C95.7438752,5.74994514 95.822569,5.74278985 95.8739616,5.74278985 C96.0731081,5.74278985 96.1726798,5.83437751 96.1726798,6.01755557 C96.1726798,6.22363088 96.0313522,6.32666699 95.7486927,6.32666699 C95.7037241,6.32666699 95.5656085,6.30949431 95.3343416,6.27514842 C95.0259858,6.22935391 94.7561785,6.20645699 94.5249116,6.20645699 C94.2551003,6.20645699 93.966021,6.22935391 93.6576652,6.27514842 L93.4263995,6.30949414 C93.3493105,6.32094277 93.3075546,6.32666699 93.3011305,6.32666699 C93.0056229,6.32666699 92.8578713,6.22363088 92.8578713,6.01755557 C92.8578713,5.94313948 92.8883852,5.87731085 92.9494139,5.82006771 C93.0104427,5.76282457 93.0827125,5.73420342 93.1662255,5.73420342 C93.2240423,5.73420342 93.310766,5.74278977 93.4263995,5.75996271 C93.4970643,5.77713565 93.5645162,5.785722 93.628757,5.785722 C93.956385,5.785722 94.1201966,5.57106343 94.1201966,5.14173986 L94.1201966,1.69858201 C94.1201966,1.26925844 93.956385,1.05459987 93.628757,1.05459987 C93.5837884,1.05459987 93.5131246,1.06318622 93.4167634,1.08035916 C93.3204022,1.0975321 93.2368904,1.10611844 93.1662255,1.10611844 C93.0827125,1.10611844 93.0104427,1.0774973 92.9494139,1.02025416 C92.8883852,0.963011015 92.8578713,0.897182388 92.8578713,0.822766302 C92.8578713,0.622415301 93.0056229,0.522241303 93.3011305,0.522241303 C93.3589473,0.522241303 93.477791,0.536551874 93.6576652,0.565173446 C93.9017802,0.605243646 94.2004954,0.625278446 94.5538198,0.625278446 C94.6887255,0.625278446 94.889475,0.60810576 95.1560743,0.573759874 C95.4226736,0.539413989 95.6202111,0.522241303 95.7486927,0.522241303 C96.0313522,0.522241303 96.1726798,0.625277415 96.1726798,0.83135273 C96.1726798,0.911493131 96.1437719,0.978752815 96.0859552,1.0331338 C96.0281385,1.08751479 95.9574746,1.11470487 95.8739616,1.11470487 C95.8032967,1.11470487 95.7165729,1.10611853 95.6137877,1.08894559 C95.5110024,1.07177264 95.4403386,1.0631863 95.4017941,1.0631863 C95.0870142,1.0631863 94.9264146,1.27784487 94.9199905,1.70716844 L94.9103545,2.97795986 Z M103.808828,6.47263628 C102.954426,6.47263628 102.278302,6.19787331 101.780435,5.64833914 C101.282569,5.09880497 101.03364,4.35465527 101.03364,3.41586772 C101.03364,2.46563154 101.284175,1.72005079 101.785253,1.17910309 C102.286332,0.638155384 102.97691,0.36768559 103.857009,0.36768559 C104.698563,0.36768559 105.368263,0.631000098 105.86613,1.15763701 C106.363996,1.68427393 106.612925,2.39694037 106.612925,3.29565772 C106.612925,4.26879115 106.360784,5.04156199 105.856494,5.61399343 C105.352203,6.18642486 104.669655,6.47263628 103.808828,6.47263628 Z M103.828101,0.985908444 C103.211389,0.985908444 102.732802,1.1977049 102.392326,1.62130416 C102.05185,2.04490341 101.881614,2.64022317 101.881614,3.40728129 C101.881614,4.18578804 102.05185,4.78826308 102.392326,5.2147245 C102.732802,5.64118591 103.208177,5.85441342 103.818464,5.85441342 C104.415904,5.85441342 104.889673,5.63259957 105.239785,5.18896521 C105.589897,4.74533085 105.764951,4.14285581 105.764951,3.38152201 C105.764951,2.61446389 105.597927,2.0234373 105.263875,1.60842451 C104.929823,1.19341173 104.451236,0.985908444 103.828101,0.985908444 Z M110.375373,0.36768559 C111.004933,0.36768559 111.518852,0.547998786 111.917144,0.908630587 L111.917144,0.788420588 C111.917144,0.56517233 112.016716,0.453549875 112.215863,0.453549875 C112.434281,0.453549875 112.543489,0.576620787 112.543489,0.822766302 L112.543489,0.874284873 C112.543489,0.885733502 112.533853,0.971596929 112.514581,1.13187773 C112.495309,1.29215853 112.485673,1.48392018 112.485673,1.70716844 C112.485673,1.73579001 112.492097,1.82737767 112.504945,1.98193415 L112.533853,2.3253913 C112.540277,2.35401287 112.543489,2.39408247 112.543489,2.4456013 C112.543489,2.72036838 112.424645,2.85774987 112.186954,2.85774987 C111.936415,2.85774987 111.811148,2.7432653 111.811148,2.51429272 L111.811148,2.47136058 L111.83042,2.23952701 C111.836844,2.15938661 111.840056,2.0964201 111.840056,2.05062558 C111.840056,1.70716672 111.70997,1.43812799 111.449795,1.2435013 C111.18962,1.04887461 110.831483,0.95156273 110.375373,0.95156273 C109.957808,0.95156273 109.625367,1.04315039 109.37804,1.22632844 C109.130713,1.4095065 109.007051,1.65564832 109.007051,1.9647613 C109.007051,2.3253931 109.190134,2.59156972 109.556307,2.76329915 C109.761878,2.85488818 110.121621,2.93788949 110.635547,3.01230558 C111.400012,3.12106755 111.923567,3.26989749 112.206227,3.45879986 C112.630216,3.73929126 112.842207,4.13712514 112.842207,4.65231343 C112.842207,5.19039897 112.625398,5.62830245 112.191772,5.966037 C111.758147,6.30377154 111.197655,6.47263628 110.510278,6.47263628 C109.777933,6.47263628 109.170867,6.26656405 108.689061,5.85441342 C108.689061,5.87731068 108.692273,5.90306971 108.698697,5.93169128 L108.698697,5.98320985 C108.711545,6.07479888 108.717969,6.13490328 108.717969,6.16352485 C108.717969,6.37532448 108.605549,6.48122271 108.380706,6.48122271 C108.136591,6.48122271 108.014536,6.36101391 108.014536,6.12059271 C108.014536,6.09197114 108.017748,6.06907422 108.024172,6.05190128 L108.062716,5.605407 C108.081988,5.38215874 108.091624,5.23905303 108.091624,5.17608557 C108.091624,5.06159928 108.075564,4.88987243 108.043444,4.66089986 C108.011323,4.43192729 107.995263,4.26020043 107.995263,4.14571415 C107.995263,3.88812 108.117319,3.75932486 108.361434,3.75932486 C108.611973,3.75932486 108.737241,3.88812 108.737241,4.14571415 L108.737241,4.30026986 C108.730817,4.34606437 108.727605,4.411893 108.727605,4.49775772 C108.727605,4.92708129 108.88178,5.26767288 109.190136,5.51954271 C109.498492,5.77141254 109.916051,5.89734557 110.442826,5.89734557 C110.931056,5.89734557 111.319707,5.79430945 111.60879,5.58823414 C111.897874,5.38215882 112.042413,5.10167163 112.042413,4.74676414 C112.042413,4.20295428 111.656974,3.87094903 110.886085,3.75073843 L110.336829,3.66487415 C109.790782,3.57900943 109.366799,3.47883543 109.064867,3.36434915 C108.788632,3.25558718 108.56861,3.08529138 108.404796,2.85345665 C108.240982,2.62162192 108.159077,2.35973847 108.159077,2.06779844 C108.159077,1.56405878 108.364644,1.15477645 108.775785,0.839939159 C109.186926,0.525101872 109.720117,0.36768559 110.375373,0.36768559 Z M115.255605,5.14173986 L115.255605,1.69858201 C115.255605,1.27498275 115.091794,1.0631863 114.764166,1.0631863 C114.712773,1.0631863 114.645321,1.06891053 114.561808,1.08035916 C114.439751,1.0975321 114.353027,1.10611844 114.301634,1.10611844 C114.096064,1.10611844 113.99328,1.01166867 113.99328,0.822766302 C113.99328,0.622415301 114.134607,0.522241303 114.417267,0.522241303 C114.462236,0.522241303 114.510415,0.525103417 114.561808,0.530827732 L115.033976,0.582346303 C115.188153,0.599519246 115.380873,0.608105589 115.61214,0.608105589 C115.772742,0.608105589 115.965461,0.599519246 116.190304,0.582346303 C116.717079,0.542276103 117.115366,0.522241303 117.385177,0.522241303 C117.796318,0.522241303 118.149637,0.550862445 118.445145,0.608105589 C118.869134,0.688245989 119.201575,0.865697071 119.442478,1.14046416 C119.683381,1.41523124 119.803831,1.74723649 119.803831,2.13648987 C119.803831,2.67457541 119.596657,3.08671986 119.182304,3.37293558 C118.767951,3.65915129 118.168915,3.802257 117.385177,3.802257 L116.701016,3.802257 C116.489021,3.802257 116.363754,3.79939489 116.325209,3.79367058 L116.305937,3.79367058 C116.203152,3.79367058 116.137306,3.8094122 116.108397,3.84089593 C116.079489,3.87237966 116.065035,3.94536357 116.065035,4.05984986 L116.065035,4.23157843 C116.065035,4.95856635 116.089125,5.39933194 116.137306,5.55388843 C116.185486,5.70844491 116.325208,5.785722 116.556475,5.785722 C116.62714,5.785722 116.694592,5.77713565 116.758832,5.75996271 C116.900162,5.74851408 116.986886,5.74278985 117.019006,5.74278985 C117.218153,5.74278985 117.317724,5.83437751 117.317724,6.01755557 C117.317724,6.22363088 117.176397,6.32666699 116.893737,6.32666699 L116.758832,6.30949414 L116.277029,6.24938914 C116.142123,6.23221619 115.939768,6.22362985 115.669956,6.22362985 C115.445113,6.22362985 115.26203,6.23221619 115.1207,6.24938914 L114.561808,6.31808057 C114.54896,6.31808057 114.529688,6.32094268 114.503992,6.32666699 L114.436539,6.32666699 C114.147456,6.32666699 114.002916,6.226493 114.002916,6.02614199 C114.002916,5.94600159 114.031824,5.87874191 114.089641,5.82436092 C114.147457,5.76997994 114.218121,5.74278985 114.301634,5.74278985 C114.372299,5.74278985 114.459023,5.7513762 114.561808,5.76854914 C114.606777,5.77999777 114.674228,5.785722 114.764166,5.785722 C115.091794,5.785722 115.255605,5.57106343 115.255605,5.14173986 Z M116.132488,1.25208773 C116.087519,1.30933087 116.065035,1.46674715 116.065035,1.7243413 L116.065035,2.99513272 C116.065035,3.14968921 116.187091,3.23841475 116.431206,3.26131201 L116.990098,3.26131201 C117.446208,3.26131201 117.825223,3.22982875 118.127154,3.16686129 C118.698898,3.04665069 118.984765,2.71178333 118.984765,2.16224915 C118.984765,1.43526124 118.464422,1.07177273 117.423721,1.07177273 C116.652832,1.07177273 116.222425,1.13187713 116.132488,1.25208773 Z M121.831786,1.69858201 C121.831786,1.27498275 121.667974,1.0631863 121.340346,1.0631863 C121.250409,1.0631863 121.182957,1.06891053 121.137989,1.08035916 C121.035203,1.0975321 120.94848,1.10611844 120.877815,1.10611844 C120.794302,1.10611844 120.723638,1.07892836 120.665821,1.02454737 C120.608005,0.970166387 120.579097,0.902906702 120.579097,0.822766302 C120.579097,0.622415301 120.720424,0.522241303 121.003084,0.522241303 C121.041628,0.522241303 121.086596,0.525103417 121.137989,0.530827732 L121.648701,0.590932731 C121.841423,0.613829989 122.040566,0.625278446 122.246137,0.625278446 C122.445283,0.625278446 122.663699,0.610967874 122.90139,0.582346303 L123.335013,0.530827732 C123.386406,0.525103417 123.431374,0.522241303 123.469918,0.522241303 C123.752578,0.522241303 123.893905,0.622415301 123.893905,0.822766302 C123.893905,0.902906702 123.864997,0.970166387 123.807181,1.02454737 C123.749364,1.07892836 123.6787,1.10611844 123.595187,1.10611844 C123.530946,1.10611844 123.444222,1.0975321 123.335013,1.08035916 C123.290044,1.06891053 123.222593,1.0631863 123.132656,1.0631863 C122.805027,1.0631863 122.641216,1.27498275 122.641216,1.69858201 L122.641216,5.14173986 C122.641216,5.57106343 122.805027,5.785722 123.132656,5.785722 C123.184048,5.785722 123.2515,5.77999777 123.335013,5.76854914 C123.457071,5.7513762 123.543794,5.74278985 123.595187,5.74278985 C123.794333,5.74278985 123.893905,5.83437751 123.893905,6.01755557 C123.893905,6.22363088 123.752578,6.32666699 123.469918,6.32666699 L123.402466,6.32666699 C123.376769,6.32094268 123.354285,6.31808057 123.335013,6.31808057 L122.833937,6.24938914 C122.666911,6.22649188 122.490252,6.21504342 122.303953,6.21504342 C122.034142,6.21504342 121.793243,6.22935399 121.581248,6.25797557 L121.137989,6.31808057 C121.125141,6.31808057 121.102657,6.32094268 121.070536,6.32666699 L120.993448,6.32666699 C120.717212,6.32666699 120.579097,6.22363088 120.579097,6.01755557 C120.579097,5.83437751 120.678668,5.74278985 120.877815,5.74278985 C120.909935,5.74278985 120.996659,5.74851408 121.137989,5.75996271 C121.208654,5.77713565 121.276105,5.785722 121.340346,5.785722 C121.667974,5.785722 121.831786,5.57106343 121.831786,5.14173986 L121.831786,1.69858201 Z M127.955071,5.15032628 C127.955071,5.57964986 128.118883,5.79430842 128.446511,5.79430842 C128.497904,5.79430842 128.574991,5.78715314 128.677777,5.77284235 C128.780562,5.75853157 128.85765,5.75137628 128.909042,5.75137628 C128.992555,5.75137628 129.064825,5.77856637 129.125854,5.83294735 C129.186883,5.88732834 129.217397,5.95172591 129.217397,6.02614199 C129.217397,6.226493 129.072857,6.32666699 128.783773,6.32666699 L128.725957,6.32666699 C128.693837,6.32094268 128.671353,6.31808057 128.658504,6.31808057 L128.186337,6.25797557 C128.006463,6.23507831 127.804107,6.22362985 127.579264,6.22362985 C127.335149,6.22362985 127.119946,6.23507831 126.933648,6.25797557 L126.451844,6.31808057 C126.432572,6.31808057 126.410088,6.32094268 126.384392,6.32666699 L126.316939,6.32666699 C126.03428,6.32666699 125.892952,6.226493 125.892952,6.02614199 C125.892952,5.84296394 125.995736,5.75137628 126.201306,5.75137628 C126.252699,5.75137628 126.329787,5.75853157 126.432572,5.77284235 C126.535357,5.78715314 126.612445,5.79430842 126.663838,5.79430842 C126.985042,5.79430842 127.145641,5.57964986 127.145641,5.15032628 L127.145641,4.54927629 L127.155277,3.79367058 L127.155277,3.06382415 L127.145641,1.6642363 C127.145641,1.25780998 126.911166,1.05459987 126.442208,1.05459987 L126.14349,1.05459987 C125.680956,1.05459987 125.449693,1.25494787 125.449693,1.65564987 C125.449693,1.79875773 125.452905,1.89606961 125.459329,1.94758844 L125.497873,2.2652863 C125.504297,2.31680512 125.507509,2.38835798 125.507509,2.47994701 C125.507509,2.84057881 125.382241,3.02089201 125.131702,3.02089201 C124.894011,3.02089201 124.775168,2.88923475 124.775168,2.62591629 C124.775168,2.55150021 124.781592,2.42270507 124.79444,2.23952701 C124.813712,1.96475992 124.823348,1.79017096 124.823348,1.71575487 C124.823348,1.57264701 124.816924,1.42381707 124.804076,1.26926059 C124.77838,0.965871927 124.765532,0.837076787 124.765532,0.882871302 C124.765532,0.642450101 124.887587,0.522241303 125.131702,0.522241303 C125.221639,0.522241303 125.430419,0.530827646 125.758047,0.548000589 C125.790167,0.548000589 126.053551,0.553724817 126.548205,0.565173446 L127.646717,0.582346303 C127.775199,0.582346303 128.118882,0.576622074 128.677777,0.565173446 C128.799834,0.565173446 129.008614,0.556587103 129.304121,0.53941416 C129.567509,0.522241217 129.773076,0.513654875 129.92083,0.513654875 C130.242034,0.513654875 130.402633,0.631001558 130.402633,0.865698445 L130.402633,0.882871302 C130.402633,0.940114445 130.394603,1.04601267 130.378543,1.20056916 C130.362483,1.35512564 130.344817,1.52112827 130.325545,1.69858201 L130.325545,1.79303273 C130.325545,1.87889744 130.335181,2.01341681 130.354453,2.19659487 C130.380149,2.43701607 130.392997,2.58584601 130.392997,2.64308915 C130.392997,2.87778604 130.26773,2.99513272 130.017191,2.99513272 C129.773076,2.99513272 129.65102,2.85202701 129.65102,2.56581129 C129.65102,2.46277364 129.660656,2.30965053 129.679928,2.10643737 C129.6992,1.90322421 129.708836,1.7501011 129.708836,1.64706344 C129.708836,1.25208575 129.455089,1.05459987 128.947587,1.05459987 L128.677777,1.05459987 C128.440086,1.05459987 128.26985,1.09896264 128.167065,1.18768951 C128.06428,1.27641639 128.006464,1.42381527 127.993616,1.62989058 L127.964707,2.23094058 L127.955071,5.15032628 Z M135.812849,5.31346843 L135.465951,4.47199843 C135.427406,4.3804094 135.387257,4.32316712 135.3455,4.30026986 C135.303743,4.2773726 135.218626,4.26592415 135.090144,4.26592415 L133.374923,4.26592415 C133.246442,4.26592415 133.158112,4.28595894 133.109931,4.32602914 C133.061751,4.36609934 132.999117,4.47485969 132.922028,4.65231343 L132.642582,5.31346843 C132.616886,5.37643588 132.604038,5.43654028 132.604038,5.49378343 C132.604038,5.67696148 132.729305,5.76854914 132.979844,5.76854914 C133.044085,5.76854914 133.135627,5.76282491 133.254473,5.75137628 C133.373318,5.73992765 133.461648,5.73420342 133.519464,5.73420342 C133.782852,5.73420342 133.914543,5.83437742 133.914543,6.03472842 C133.914543,6.2236308 133.770004,6.31808057 133.48092,6.31808057 C133.429528,6.31808057 133.358864,6.31235634 133.268927,6.30090771 L132.787123,6.24080271 C132.697186,6.22935408 132.549434,6.22362985 132.343864,6.22362985 C132.119021,6.22362985 131.961633,6.22935408 131.871696,6.24080271 L131.466981,6.29232128 C131.287107,6.31521854 131.155415,6.32666699 131.071902,6.32666699 C130.821363,6.32666699 130.696096,6.23221722 130.696096,6.04331485 C130.696096,5.84296385 130.818151,5.74278985 131.062266,5.74278985 C131.113659,5.74278985 131.152203,5.74565197 131.177899,5.75137628 L131.303168,5.75137628 C131.476618,5.75137628 131.60831,5.69127188 131.698247,5.57106128 C131.736791,5.52526677 131.801031,5.3907474 131.890968,5.16749914 L133.683278,0.848525588 C133.786063,0.608104386 133.988418,0.487895589 134.29035,0.487895589 C134.585858,0.487895589 134.781789,0.608104386 134.878151,0.848525588 L136.603007,5.10739414 C136.712217,5.37643691 136.811788,5.553888 136.901726,5.63975271 C136.991663,5.72561743 137.120142,5.76854914 137.287168,5.76854914 C137.338561,5.76854914 137.377105,5.76568702 137.402801,5.75996271 L137.672611,5.74278985 C137.916726,5.74278985 138.038782,5.83437751 138.038782,6.01755557 C138.038782,6.21218225 137.916726,6.30949414 137.672611,6.30949414 C137.601946,6.30949414 137.508799,6.30376991 137.393165,6.29232128 C136.988448,6.25225108 136.686521,6.23221628 136.487374,6.23221628 C136.249684,6.23221628 135.864245,6.25511319 135.331046,6.30090771 C135.19614,6.31235634 135.093356,6.31808057 135.022692,6.31808057 C134.765728,6.31808057 134.637249,6.22076868 134.637249,6.02614199 C134.637249,5.83151531 134.778576,5.73420342 135.061236,5.73420342 C135.119053,5.73420342 135.20417,5.73992765 135.316592,5.75137628 C135.429013,5.76282491 135.514131,5.76854914 135.571948,5.76854914 C135.783942,5.76854914 135.889938,5.69127205 135.889938,5.53671557 C135.889938,5.51381831 135.864242,5.43940334 135.812849,5.31346843 Z M135.119052,3.56183701 L134.251806,1.19198273 L133.365287,3.56183701 C133.352439,3.59618289 133.346015,3.61621769 133.346015,3.621942 C133.346015,3.67346083 133.394195,3.69921986 133.490556,3.69921986 L135.022692,3.69921986 C135.099781,3.69921986 135.138324,3.67632295 135.138324,3.63052843 C135.138324,3.6190798 135.1319,3.59618289 135.119052,3.56183701 Z M140.644901,5.04728914 C140.644901,5.38502369 140.683445,5.58537168 140.760534,5.64833914 C140.818351,5.69985797 140.893833,5.73134122 140.986982,5.74278985 C141.080131,5.75423848 141.290516,5.75996271 141.618144,5.75996271 L142.466119,5.75996271 C142.90938,5.75996271 143.204883,5.7070136 143.352637,5.60111378 C143.500391,5.49521397 143.574267,5.28198646 143.574267,4.96142486 C143.574267,4.87556014 143.571055,4.77538614 143.564631,4.66089986 C143.551783,4.4376516 143.545359,4.30313223 143.545359,4.25733772 C143.545359,4.00546789 143.657778,3.87953486 143.882621,3.87953486 C144.152433,3.87953486 144.287336,3.99401943 144.287336,4.222992 C144.287336,4.29168377 144.284124,4.34606394 144.2777,4.38613414 L144.210248,4.824042 C144.190975,4.94997691 144.181339,5.08163417 144.181339,5.21901771 C144.181339,5.29915811 144.189369,5.41793585 144.20543,5.5753545 C144.22149,5.73277314 144.22952,5.85155088 144.22952,5.93169128 C144.22952,6.18928543 144.065708,6.31808057 143.73808,6.31808057 C143.673839,6.31808057 143.526088,6.31235634 143.294821,6.30090771 C143.140643,6.29518339 142.902956,6.28945917 142.581752,6.28373485 L141.859046,6.27514842 L140.317275,6.27514842 C140.163097,6.27514842 139.906138,6.28087265 139.546389,6.29232128 C139.494996,6.29232128 139.406667,6.29804551 139.281397,6.30949414 C139.156128,6.32094277 139.058162,6.32666699 138.987497,6.32666699 C138.717686,6.32666699 138.582782,6.22363088 138.582782,6.01755557 C138.582782,5.83437751 138.682354,5.74278985 138.8815,5.74278985 C138.932893,5.74278985 139.009981,5.74994514 139.112766,5.76425592 C139.215551,5.77856671 139.292639,5.785722 139.344032,5.785722 C139.67166,5.785722 139.835471,5.57106343 139.835471,5.14173986 L139.835471,1.69858201 C139.835471,1.27498275 139.67166,1.0631863 139.344032,1.0631863 C139.254095,1.0631863 139.186643,1.06891053 139.141674,1.08035916 C139.038889,1.0975321 138.952165,1.10611844 138.8815,1.10611844 C138.797987,1.10611844 138.727323,1.07892836 138.669507,1.02454737 C138.61169,0.970166387 138.582782,0.902906702 138.582782,0.822766302 C138.582782,0.622415301 138.720898,0.522241303 138.997133,0.522241303 C139.035678,0.522241303 139.083857,0.525103417 139.141674,0.530827732 L139.652386,0.582346303 C139.935045,0.610967874 140.143825,0.625278446 140.278731,0.625278446 C140.445757,0.625278446 140.651324,0.610967874 140.895439,0.582346303 L141.338698,0.530827732 C141.390091,0.525103417 141.431847,0.522241303 141.463967,0.522241303 C141.753051,0.522241303 141.897591,0.622415301 141.897591,0.822766302 C141.897591,0.902906702 141.868683,0.970166387 141.810866,1.02454737 C141.753049,1.07892836 141.682385,1.10611844 141.598872,1.10611844 C141.534632,1.10611844 141.447908,1.0975321 141.338698,1.08035916 C141.29373,1.06891053 141.226278,1.0631863 141.136341,1.0631863 C140.808713,1.0631863 140.644901,1.27498275 140.644901,1.69858201 L140.644901,5.04728914 Z"/>
    </g>
  </g>
</svg>
