<svg xmlns="http://www.w3.org/2000/svg" width="320" height="100" viewBox="0 0 320 100">
    <g fill="none" fill-rule="evenodd">
        <path fill="none" d="M0 0h320v100H0z"/>
        <path fill="#343F4B" d="M94.056 62.32l-3.596-1.815c2.418-.758 4.26-1.44 6.16-1.845.396-.084 1.012.858 1.526 1.326l-1.67 1.664c1.106 2.452 2.963 2.205 5.334 1.047.757-.369 2.292.127 3.045.744.446.365.099 1.746.025 2.664-.024.312-.39.588-.448.91-.136.754-.015 2.116-.292 2.193-1.689.477-3.454.731-5.21.887-.362.032-.782-.68-1.188-1.034-.538-.467-1.087-.921-1.93-1.634l-.498 6.536c-2.726-.677-1.557-2.75-1.961-3.92l-3.41.164-.125-.556 2.741-2.61c-.97-.72-1.835-1.36-2.913-2.158l4.41-2.562zm4.908 3.355c-.468.145.096 1.923.242 1.923.147 0 2.82-.367 2.82-1.307s-2.594-.761-3.062-.616zM77.764 68.54l-.437 4.947c-1.697-.6-2.508-1.246-2.204-2.921.216-1.186.042-2.442.042-3.982l-2.214 2.072c-1.108-1.19-1.033-2.182-.218-3.49a23.113 23.113 0 0 0 2.398-5.146c.346-1.083.78-1.403 1.712-1.053.984.369 2.658.93 1.714 2.132-1.928 2.458-.325 5.029-.822 7.475l.03-.034z"/>
        <path fill="#343F4B" d="M77.735 68.574c3.003.038 6.006-1.532 8.987-.071.474.232.69.989 1.025 1.503-.581.368-1.126.96-1.75 1.057-1.467.23-2.998.079-4.455.344-2.539.463-3.435-.139-3.778-2.867l-.029.034M80.916 65.56c-.144-.689-.19-1.287-.404-1.818-.211-.522-.594-.975-.983-1.587 1.31-.562 2.343-1.286 3.432-1.382.84-.075 2.1.401 2.55 1.058.707 1.03-.243 1.624-1.25 2.033-1.13.46-2.187 1.1-3.345 1.696"/>
        <path fill="#FFF" d="M88.458 39.974l11.36 6.182-2.585 3.72-11.526-5.752c-.219.33-.33.5-.444.669-1.285 1.912-2.836 2.39-4.198 1.297-1.176-.945-1.281-3.757-.135-4.99.9-.968 2.052-1.747 2.777-2.822 1.187-1.757 2.117-3.687 3.19-5.602 3.176.371 3.656 2.242 1.561 7.298"/>
        <path fill="#343F4B" d="M88.458 39.974c2.095-5.056 1.615-6.927-1.562-7.298-1.072 1.915-2.002 3.845-3.19 5.602-.724 1.075-1.876 1.854-2.776 2.822-1.146 1.233-1.04 4.045.135 4.99 1.362 1.094 2.913.615 4.198-1.297l.444-.669 11.526 5.752 2.585-3.72-11.36-6.182m11.668 6.32c1.953.244 3.696.46 5.44.679l.266.528c-1.376.965-2.679 2.068-4.151 2.85-1.255.667-2.64 1.22-4.155.232-.294-.19-1.284.532-1.863.955-8 5.84-19.253 2.18-22.067-7.193-1.737-5.784.33-12.03 5.154-15.586 4.772-3.517 11.312-3.657 16.248-.346 5.057 3.39 7.357 9.554 5.793 15.532-.17.65-.365 1.292-.665 2.349M146.58 30.972h-15.745v2.072h-7.043v-2.072h-4.144v-2.9h4.144V26h7.043v2.072h15.745V26h7.044v2.072h4.143v2.9h-4.143v2.072h-7.044v-2.072zm-26.932 20.84h16.532v2.9h-16.532v-2.9zm8.811-13.397h7.33l-8.688 8.689h9.062v1.947c0 .685-.557 1.241-1.244 1.241h-15.225v-4.148l3.032-3.032h-3.095v-3.394l6.251-5.801h7.076l-4.499 4.498zm21.795-4.403l-.859.858h8.07v17.315a2.49 2.49 0 0 1-2.488 2.488h-12.036v-2.934h7.48V38.11h-4.445l-3.442 3.44-6.609.105 7.28-7.642h7.049zm-14.473 9.023h6.907l5.396 6.816h-6.865l-5.438-6.816zM194.643 51.689v-3.73h-14.088v-3.314h21.546v6.215a3.732 3.732 0 0 1-3.73 3.729h-11.186v-2.9h7.458zm-7.458-24.032H202.1v9.116H171.44v2.9h11.601v-1.657h7.458v1.657h11.602v2.9h-21.546V54.59h-7.043V42.573h-2.072V54.59h-7.458V27.657h15.745V26h7.458v1.657zm7.458 2.9H171.44v3.315h23.203v-3.314zM215.774 51.772v2.817h-7.044V26.414h37.705v24.65a3.526 3.526 0 0 1-3.522 3.525h-3.522v-2.398h-6.096l-1.088-3.65-1.289 3.367h-6.276l-1.408-2.955-1.329 2.819h-6.131zm0-.587h1.077l3.792-8.447-3.875-8.817h-.994v17.264zm0-18.09h5.891l1.451 3.102L224.688 33h6.058l1.275 3.346 1.638-3.395h5.732v-3.221h-23.617v3.365zm23.617.9h-.855l-3.814 8.782 3.722 8.48h.947V33.995zm-11.843 4.336l-1.912 4.323 1.817 4.439 2.156-4.62-2.06-4.142zM121.014 75.466l-.203-1.71c.398.108.745.162 1.042.162.405 0 .728-.067.971-.202s.442-.324.597-.567c.115-.182.3-.633.556-1.355.034-.101.088-.25.162-.445l-4.076-10.763h1.962l2.236 6.221c.29.789.55 1.618.779 2.488.209-.836.458-1.652.748-2.448l2.296-6.261h1.821l-4.087 10.925c-.438 1.18-.778 1.992-1.021 2.438-.324.6-.695 1.04-1.113 1.32-.418.28-.917.42-1.497.42-.35 0-.742-.075-1.173-.223zm18.278-5.463c-.675.574-1.324.978-1.948 1.214a5.627 5.627 0 0 1-2.008.354c-1.18 0-2.087-.288-2.72-.864-.635-.577-.952-1.314-.952-2.21 0-.527.12-1.007.36-1.442.239-.435.552-.784.94-1.047a4.424 4.424 0 0 1 1.31-.597c.358-.094.897-.185 1.619-.273 1.47-.175 2.552-.384 3.247-.627.007-.25.01-.408.01-.476 0-.741-.172-1.264-.516-1.568-.465-.411-1.157-.617-2.074-.617-.856 0-1.488.15-1.896.45-.408.3-.71.832-.906 1.594l-1.78-.243c.162-.762.428-1.377.8-1.846.37-.469.906-.83 1.607-1.083.702-.252 1.514-.379 2.438-.379.917 0 1.663.108 2.236.324.573.216.995.487 1.264.814.27.327.459.74.567 1.24.06.31.09.87.09 1.678v2.428c0 1.693.04 2.763.117 3.212.078.448.231.878.46 1.29h-1.901a3.86 3.86 0 0 1-.364-1.326zm-.152-4.066c-.661.27-1.652.5-2.974.688-.749.108-1.278.23-1.588.364a1.555 1.555 0 0 0-.971 1.457c0 .485.183.89.55 1.214.368.323.906.485 1.614.485.702 0 1.325-.153 1.872-.46a2.834 2.834 0 0 0 1.203-1.26c.196-.41.294-1.018.294-1.82v-.668zm4.814.02c0-1.99.553-3.463 1.659-4.42.924-.796 2.05-1.194 3.379-1.194 1.476 0 2.684.484 3.62 1.452.938.967 1.407 2.304 1.407 4.01 0 1.383-.207 2.47-.622 3.263a4.404 4.404 0 0 1-1.81 1.846 5.272 5.272 0 0 1-2.595.657c-1.504 0-2.72-.482-3.647-1.446-.927-.964-1.391-2.354-1.391-4.168zm1.871 0c0 1.376.3 2.406.9 3.09.6.685 1.356 1.027 2.267 1.027.903 0 1.655-.344 2.255-1.031.6-.688.9-1.737.9-3.146 0-1.329-.301-2.335-.905-3.02-.603-.684-1.354-1.027-2.25-1.027-.91 0-1.666.34-2.266 1.022-.6.681-.9 1.71-.9 3.085zm11.592 5.372v-9.327h-1.608v-1.416h1.608v-1.143c0-.722.064-1.258.192-1.609.176-.472.484-.854.926-1.148.441-.293 1.06-.44 1.856-.44.513 0 1.079.061 1.7.182l-.274 1.589a6.11 6.11 0 0 0-1.072-.102c-.553 0-.944.118-1.173.354-.23.236-.344.678-.344 1.326v.99h2.094v1.417h-2.094v9.327h-1.811zm13.16-1.326c-.675.574-1.324.978-1.948 1.214a5.627 5.627 0 0 1-2.008.354c-1.18 0-2.087-.288-2.72-.864-.635-.577-.952-1.314-.952-2.21 0-.527.12-1.007.36-1.442.239-.435.552-.784.94-1.047a4.424 4.424 0 0 1 1.31-.597c.358-.094.897-.185 1.619-.273 1.47-.175 2.552-.384 3.247-.627.007-.25.01-.408.01-.476 0-.741-.172-1.264-.516-1.568-.465-.411-1.157-.617-2.074-.617-.856 0-1.488.15-1.896.45-.408.3-.71.832-.906 1.594l-1.78-.243c.162-.762.428-1.377.8-1.846.37-.469.906-.83 1.607-1.083.702-.252 1.514-.379 2.438-.379.917 0 1.663.108 2.236.324.573.216.995.487 1.264.814.27.327.459.74.567 1.24.06.31.09.87.09 1.678v2.428c0 1.693.04 2.763.117 3.212.078.448.231.878.46 1.29h-1.901a3.86 3.86 0 0 1-.364-1.326zm-.152-4.066c-.661.27-1.652.5-2.974.688-.749.108-1.278.23-1.588.364a1.555 1.555 0 0 0-.971 1.457c0 .485.183.89.55 1.214.368.323.906.485 1.614.485.702 0 1.325-.153 1.872-.46a2.834 2.834 0 0 0 1.203-1.26c.196-.41.294-1.018.294-1.82v-.668zm5.492 5.392V60.586h1.638v1.527c.79-1.18 1.93-1.77 3.42-1.77.647 0 1.242.116 1.785.35.543.232.95.537 1.219.915.27.377.458.826.566 1.345.068.337.101.927.101 1.77v6.606h-1.82v-6.535c0-.742-.071-1.296-.213-1.664a1.75 1.75 0 0 0-.753-.88c-.361-.22-.784-.329-1.27-.329-.775 0-1.445.246-2.008.739-.563.492-.844 1.426-.844 2.802v5.867h-1.821zm12.016.89l1.77.263c.075.546.28.944.617 1.193.452.338 1.07.506 1.852.506.843 0 1.493-.168 1.952-.506.459-.337.769-.809.93-1.416.095-.37.139-1.15.132-2.336-.796.937-1.787 1.406-2.974 1.406-1.477 0-2.62-.533-3.43-1.599-.808-1.065-1.213-2.343-1.213-3.833 0-1.025.186-1.971.556-2.838.371-.866.91-1.536 1.614-2.008.705-.472 1.532-.708 2.483-.708 1.268 0 2.313.513 3.136 1.538v-1.295h1.68v9.286c0 1.672-.171 2.858-.512 3.556-.34.698-.88 1.249-1.618 1.654-.739.404-1.647.606-2.726.606-1.282 0-2.317-.288-3.106-.864-.789-.577-1.17-1.445-1.143-2.605zm1.507-6.454c0 1.41.28 2.438.84 3.085.56.648 1.261.971 2.104.971.836 0 1.538-.322 2.104-.966.567-.644.85-1.654.85-3.03 0-1.314-.292-2.306-.875-2.973-.584-.668-1.287-1.002-2.11-1.002-.809 0-1.496.33-2.063.987-.566.657-.85 1.633-.85 2.928zm11.693 5.564v-2.074h2.074v2.074h-2.074zm13.079-3.935l1.79.232c-.195 1.234-.696 2.2-1.502 2.898s-1.795 1.047-2.969 1.047c-1.47 0-2.652-.48-3.545-1.441-.894-.961-1.34-2.338-1.34-4.132 0-1.16.192-2.175.576-3.045.384-.87.97-1.522 1.755-1.957a5.207 5.207 0 0 1 2.564-.653c1.167 0 2.121.295 2.863.885.742.59 1.217 1.428 1.426 2.514l-1.77.273c-.168-.721-.467-1.264-.895-1.629-.428-.364-.946-.546-1.553-.546-.917 0-1.662.329-2.235.987-.574.657-.86 1.697-.86 3.12 0 1.443.276 2.492.83 3.146.552.654 1.274.981 2.164.981.715 0 1.312-.219 1.79-.657.48-.439.783-1.113.91-2.023zm17.346 3.935V60.586h1.628v1.507c.337-.526.786-.949 1.346-1.27.56-.32 1.197-.48 1.911-.48.796 0 1.449.165 1.958.496.509.33.868.792 1.077 1.386.85-1.255 1.956-1.882 3.318-1.882 1.065 0 1.885.295 2.458.885.573.59.86 1.499.86 2.726v7.375h-1.81V64.56c0-.728-.06-1.252-.178-1.573a1.524 1.524 0 0 0-.642-.773 2.005 2.005 0 0 0-1.093-.294c-.755 0-1.382.251-1.881.754-.5.502-.749 1.306-.749 2.412v6.242h-1.82v-6.98c0-.81-.149-1.416-.446-1.82-.296-.406-.782-.608-1.456-.608-.513 0-.986.135-1.421.405-.435.27-.75.664-.946 1.183-.196.52-.294 1.268-.294 2.246v5.574h-1.82z"/>
        <path fill="#59697B" d="M224.218 68.048a3.345 3.345 0 0 1-.883.73 1.976 1.976 0 0 1-.98.277c-.36 0-.71-.105-1.05-.316-.34-.21-.616-.534-.829-.97a3.246 3.246 0 0 1-.318-1.44c0-.642.165-1.287.494-1.932.33-.646.74-1.13 1.23-1.454.489-.323.964-.485 1.426-.485.352 0 .688.092 1.007.276.32.184.595.464.826.84l.206-.94h1.086l-.874 4.072c-.12.567-.182.88-.182.941 0 .11.042.203.125.282a.42.42 0 0 0 .3.119c.215 0 .496-.124.844-.37a3.392 3.392 0 0 0 1.095-1.303c.27-.544.404-1.105.404-1.684 0-.676-.173-1.307-.519-1.893-.346-.587-.862-1.056-1.548-1.409a4.904 4.904 0 0 0-2.273-.528c-.946 0-1.811.222-2.594.665a4.55 4.55 0 0 0-1.821 1.906 5.678 5.678 0 0 0-.646 2.661c0 .992.215 1.845.646 2.561.43.717 1.054 1.246 1.87 1.588.815.342 1.718.512 2.71.512 1.06 0 1.948-.178 2.664-.534.716-.356 1.252-.789 1.608-1.298h1.099c-.207.424-.56.857-1.062 1.298a5.67 5.67 0 0 1-1.79 1.047c-.693.257-1.526.386-2.501.386a8.512 8.512 0 0 1-2.486-.346c-.759-.23-1.405-.578-1.939-1.041a4.607 4.607 0 0 1-1.208-1.6 6.028 6.028 0 0 1-.51-2.476c0-.987.203-1.928.607-2.822.494-1.096 1.195-1.936 2.103-2.519.909-.582 2.01-.874 3.305-.874 1.004 0 1.905.206 2.704.616.8.411 1.43 1.023 1.89 1.836.393.7.59 1.461.59 2.282 0 1.174-.413 2.216-1.239 3.126-.736.817-1.541 1.226-2.415 1.226-.28 0-.505-.042-.677-.127a.819.819 0 0 1-.38-.364c-.052-.102-.09-.276-.115-.522zm-2.937-1.645c0 .554.131.985.394 1.293.263.307.565.46.904.46.227 0 .466-.067.717-.203.25-.135.49-.336.719-.603.228-.267.416-.606.561-1.017.146-.41.219-.822.219-1.235 0-.55-.137-.977-.41-1.28a1.293 1.293 0 0 0-.998-.456c-.26 0-.503.066-.732.197-.228.132-.45.343-.664.635a3.558 3.558 0 0 0-.516 1.062c-.13.416-.194.799-.194 1.147z"/>
    </g>
</svg>
