<svg xmlns="http://www.w3.org/2000/svg" width="280" height="100" viewBox="0 0 280 100">
  <path fill="#5A6978" fill-rule="evenodd" d="M138.909153,44.6807017 L141.089075,44.6807017 L148.599829,44.6807017 L150.991815,44.6807017 L150.991815,48.7454086 L142.457892,48.7454086 L138.909153,48.7454086 L138.909153,60.3964273 L142.113079,60.3964273 L153.900604,60.3964273 L153.900604,62.4807532 L153.900604,64.4673959 L120.540535,64.4736576 L120.540535,62.3584405 L120.540535,60.3964273 L131.368761,60.3964273 L134.050457,60.3964273 L134.050457,36.853939 L134.050457,33.3557112 L138.909153,33.3557112 L138.909153,44.6807017 Z M184.271821,38.0733589 L190.658039,38.0733589 L190.658039,39.7068393 L190.658039,56.5292997 L187.248612,56.5292997 L184.271821,56.5292997 L184.271821,66.1414185 L181.943287,66.1414185 L179.800936,66.1414185 L179.800936,56.5292997 L176.376972,56.5292997 L173.976753,56.5292997 L173.976753,38.0733589 L176.081534,38.0733589 L179.800936,38.0733589 L179.800936,33.0506052 L184.271821,33.0506052 L184.271821,38.0733589 Z M202.552992,34.5052865 L204.41106,34.5052865 C204.41106,34.5052865 204.345103,42.4155392 204.345103,45.6574529 C205.747317,45.1677845 206.812648,44.7954195 207.949363,44.3984249 C208.478689,45.0646745 208.99591,45.7154784 209.513965,46.3658649 C209.705574,46.3128488 209.897601,46.2594153 210.089628,46.2063992 C210.089628,44.8726477 210.08921,43.5388961 210.089628,42.2047272 C210.090045,40.9540481 210.090462,35.5764622 210.090462,35.5764622 L214.100901,35.5764622 L214.100901,64.367962 L210.064581,64.367962 C210.064581,64.367962 210.066668,55.6311591 210.066668,52.2631756 C208.863161,52.3950897 208.070424,52.4819192 207.197119,52.5775151 C206.449049,50.6167543 205.710581,48.6818754 204.97253,46.746579 C204.688247,46.7578501 204.404381,46.7691212 204.120516,46.7799749 C204.169357,54.2026465 203.866289,61.4913167 197.005922,66.5441268 C195.974404,65.6570464 194.964593,64.7887512 194.010721,63.9680453 C194.140548,63.6274064 194.150984,63.4470681 194.243658,63.3790239 C199.454264,59.5702136 200.121766,53.875366 200.409388,48.1220754 C200.596823,44.380892 200.359712,34.5052865 200.359712,34.5052865 L202.552992,34.5052865 Z M116.817346,43.2535733 L116.817346,44.5618604 L116.817346,46.0579998 L83.8041787,46.0087407 L83.8041787,44.6365838 L83.8041787,43.2807075 L92.1085039,43.2827947 L92.1085039,42.2262298 L92.1085039,40.7325951 L86.1615167,40.6111172 L86.1615167,39.2372906 L86.1615167,37.9177323 C86.1615167,37.9177323 99.4289003,37.9477887 105.126253,37.9694961 C107.4886,37.9782625 114.801482,37.9089659 114.801482,37.9089659 L114.801482,39.3232852 L114.801482,40.6248931 L108.975973,40.6248931 L108.975973,43.2581652 L116.817346,43.2535733 Z M99.6634832,56.7105123 L97.1570311,56.7105123 L91.1570841,56.7105123 L89.2308682,56.7105123 L89.2308682,47.4456356 L91.159985,47.4456356 L109.798444,47.4456356 L111.773147,47.4456356 L111.773147,56.7105123 L109.776895,56.7105123 L103.39444,56.7105123 L99.6634832,56.7105123 Z M99.2496589,57.856505 L102.545144,57.0469767 L105.365648,60.3918634 L101.773299,61.0262148 L99.2496589,57.856505 Z M65.808492,68.1670882 L60.5319857,64.9809463 L73.0872385,43.2358695 L78.7439106,46.1226977 L65.808492,68.1670882 Z M220.553419,34.5046977 L224.999258,34.5046977 C224.999258,39.0519763 224.997588,43.4026362 224.999258,47.7537135 C225.000928,53.0327813 224.999258,65.8564159 224.999258,65.8564159 L222.884041,65.8564159 L220.684081,65.8564159 C220.684081,65.8564159 220.691595,58.1281712 220.697857,55.3500441 C220.704954,51.9494995 220.713303,51.9494995 217.354086,52.0897626 C216.721232,50.0551132 216.070428,47.9628557 215.300651,45.4894668 C216.281658,45.1162668 217.412529,44.2596602 218.182723,44.5105474 C218.981304,44.7706185 219.430897,46.1035351 220.553419,46.9559673 L220.553419,34.5046977 Z M60.8442946,49.9536729 L71.1335926,32 L76.6447171,35.7155414 L66.1947462,53.0286068 L60.8442946,49.9536729 Z M157.692605,41.6017068 L160.301665,41.6017068 L173.048489,41.6017068 L173.048489,43.4209522 L173.048489,45.1817546 L167.69261,45.1817546 L167.87754,65.2781964 L165.741033,65.2781964 L163.742702,65.2781964 L163.747711,45.1817546 L162.04243,45.1817546 L157.692605,45.1817546 L157.692605,41.6017068 Z M59.2637078,48.0957558 L55,45.6158562 L62.2501474,33.3214765 L66.6885891,35.5251024 L59.2637078,48.0957558 Z M96.1412543,58.2993256 C97.0191508,59.7424489 95.4792767,61.8354948 97.5279001,61.8492939 C99.5765235,61.8630929 102.777196,61.8630929 102.777196,61.8630929 L109.302757,61.8630929 L109.302757,65.4172589 C109.302757,65.4172589 101.099238,65.4172589 96.8396475,65.4172589 C92.5800574,65.4172589 92.9886748,61.4823789 92.9886748,61.4823789 L92.9886748,58.2993256 C92.9886748,58.2993256 95.6603523,58.2588329 96.1412543,58.2993256 Z M158.048109,62.7500645 L159.109684,47.393763 L159.227822,47.393763 L162.967753,47.393763 L161.381027,62.7500645 L158.048109,62.7500645 Z M100.569635,36.1277195 C97.380737,36.1277195 89.2308682,36.0751209 89.2308682,36.0751209 L89.2308682,34.9576082 L89.2308682,33.7449171 L111.880014,33.7273842 L111.880014,34.9250472 L111.880014,36.111439 C111.880014,36.111439 103.758532,36.1673772 100.569635,36.1673772 L100.569635,36.1277195 Z M172.541019,60.67402 L170.826136,60.67402 L169.084953,60.67402 L169.013569,47.4283438 L172.620334,47.4283438 L172.541019,60.67402 Z M159.025537,38.1811033 L159.025537,34.5146434 L171.736461,34.5146434 L171.736461,38.1811033 L159.025537,38.1811033 Z M199.341778,43.1432973 L198.001765,53.2038329 L194.756094,53.2038329 L194.018461,53.2038329 L195.759226,43.1432973 L199.341778,43.1432973 Z M87.0935262,58.497531 L91.1757659,58.497531 L87.3594416,64.3948417 L82.969124,64.3948417 L87.0935262,58.497531 Z M113.003371,57.4644263 C114.464862,59.2001818 115.641653,60.5978031 116.994607,62.2041492 C116.031133,63.0423881 115.241736,63.7295101 114.268244,64.5773503 C112.931152,63.0586686 111.763546,61.7328486 110.103349,59.8472287 C110.981245,59.1258758 111.826998,58.4308222 113.003371,57.4644263 Z M176.477837,41.6013411 L176.477837,45.3583876 L179.817434,45.3583876 L179.817434,41.6013411 L176.477837,41.6013411 Z M176.477837,48.2805349 L176.477837,52.0375814 L179.817434,52.0375814 L179.817434,48.2805349 L176.477837,48.2805349 Z M184.826829,41.6013411 L184.826829,45.3583876 L188.166426,45.3583876 L188.166426,41.6013411 L184.826829,41.6013411 Z M184.826829,48.2805349 L184.826829,52.0375814 L188.166426,52.0375814 L188.166426,48.2805349 L184.826829,48.2805349 Z M92.9879147,49.5328837 L92.9879147,51.2026822 L107.598651,51.2026822 L107.598651,49.5328837 L92.9879147,49.5328837 Z M92.9879147,52.6050524 L92.9879147,54.2748508 L107.598651,54.2748508 L107.598651,52.6050524 L92.9879147,52.6050524 Z M96.7449612,40.7664419 L96.7449612,43.2711395 L104.676504,43.2711395 L104.676504,40.7664419 L96.7449612,40.7664419 Z"/>
</svg>
