<svg width="281" height="100" viewBox="0 0 281 100" xmlns="http://www.w3.org/2000/svg"><title>2EFBA3D5-64B5-4A32-9FF0-F69816FEF037</title><g fill="none" fill-rule="evenodd"><path fill="none" d="M0 0h280v100H0z"/><path d="M183.808 38.41v-2.458h-3.153v2.473l-3.882.018.015 3.18 3.867-.019v23.067h3.153V41.59l3.882-.018-.014-3.179-3.868.018zm1.355 26.261h2.453V43.386h-2.453V64.67zm-7.796-4.147c0 .72-.581 1.306-1.296 1.306v2.473c2.067 0 3.749-1.696 3.749-3.78V43.387h-2.453v17.138zm27.884-18.953l-.01-3.179-6.273.02v-2.427h-3.154v2.438l-6.283.02.01 3.179 15.71-.05zm-51.297 1.065c-.312 2.258-.975 4.418-1.845 6.407-.835-1.996-1.457-4.155-1.725-6.407h-2.819c.362 3.475 1.454 6.725 2.908 9.587a29.561 29.561 0 0 1-2.749 3.878v4.103c1.455-1.37 2.97-3.135 4.342-5.203 1.418 2.208 3.007 4.09 4.534 5.539v-4.12a29.6 29.6 0 0 1-2.902-4.172c1.505-2.855 2.66-6.115 3.082-9.612h-2.826zm13.308 17.904v-4.12a29.575 29.575 0 0 1-2.902-4.172c1.505-2.854 2.66-6.115 3.083-9.612h-2.827c-.311 2.258-.975 4.418-1.845 6.407-.835-1.996-1.457-4.155-1.724-6.407h-2.82c.362 3.475 1.455 6.725 2.908 9.587a29.545 29.545 0 0 1-2.749 3.878v4.104c1.456-1.371 2.97-3.136 4.342-5.205 1.418 2.209 3.007 4.09 4.534 5.54zm.683-24.546h-20.53c-2.332 0-4.229 1.913-4.229 4.263v24.097h3.154V40.257c0-.597.482-1.084 1.075-1.084h20.53c.593 0 1.075.487 1.075 1.084v20.087c0 .75-.604 1.359-1.347 1.359h-2.065v3.179h2.065c2.482 0 4.5-2.036 4.5-4.538V40.257c0-2.35-1.896-4.263-4.228-4.263zm-32.789-.892h-3.153v1.804h-9.785v-1.804h-3.153v1.804h-2.89v3.179h9.508v2.2h-6.107c-1.724 0-3.126 1.413-3.126 3.15v10.522c0 1.737 1.402 3.15 3.126 3.15h15.368c1.723 0 3.125-1.413 3.125-3.15V45.436c0-1.738-1.402-3.15-3.125-3.15h-6.108v-2.201h9.6v-3.18h-3.28v-1.803zm-.212 10.009c.178 0 .322.146.322.325v1.504h-16.013v-1.504c0-.18.145-.325.323-.325h15.368zm-15.69 6.276h16.012v-1.622h-16.013v1.622zm16.012 4.57c0 .18-.144.325-.322.325h-15.368a.324.324 0 0 1-.323-.325v-1.744h16.013v1.744zm-43.673.48v-4.301h7.67c2.353 0 4.267-1.93 4.267-4.301v-8.221c0-2.372-1.914-4.301-4.267-4.301H80.77c-2.353 0-4.267 1.93-4.267 4.3v8.222c0 2.371 1.914 4.3 4.267 4.3h7.67v4.307L75 56.465l.005 2.825 13.435-.023v5.628h3.153v-5.633l13.282-.023-.005-2.825-13.277.022zM80.77 49.31a1.471 1.471 0 0 1-1.464-1.475v-2.698h21.42v2.698a1.47 1.47 0 0 1-1.463 1.475H80.77zm-1.464-9.696c0-.814.657-1.475 1.464-1.475h18.493a1.47 1.47 0 0 1 1.464 1.475v2.698h-21.42v-2.698zm31.67.085a2.34 2.34 0 0 0 2.33-2.35 2.34 2.34 0 0 0-2.33-2.349 2.34 2.34 0 0 0-2.331 2.35 2.34 2.34 0 0 0 2.33 2.35zm2.986 19.218V46.251c0-1.985-1.602-3.6-3.572-3.6h-1.68v3.179h1.68a.42.42 0 0 1 .418.421V59.17a2.235 2.235 0 0 1-2.223 2.241v3.18a5.34 5.34 0 0 0 3.898-1.693 5.464 5.464 0 0 0 3.831 1.57h21.942v-3.18h-21.942a2.365 2.365 0 0 1-2.352-2.371zm91.383-8.23V47.59c-1.224-.83-1.845-2.559-1.845-5.166h-2.803c0 3.226.828 5.25 1.935 6.515h-2.182a27.61 27.61 0 0 1-3.124 5.318 27.592 27.592 0 0 1-3.125-5.318h-2.152c1.107-1.265 1.934-3.289 1.934-6.515h-2.802c0 2.607-.621 4.337-1.845 5.166v3.098a6.016 6.016 0 0 0 1.794-.9 30.807 30.807 0 0 0 4.116 6.942c-1.775 1.88-3.787 3.485-5.932 4.696V65c2.91-1.384 5.644-3.416 8.012-5.877 2.367 2.461 5.101 4.493 8.012 5.877v-3.574c-2.146-1.21-4.157-2.816-5.933-4.696a30.804 30.804 0 0 0 4.123-6.959c.593.443 1.22.731 1.817.917z" fill="#5A6978"/></g></svg>