<svg width="281" height="100" viewBox="0 0 281 100" xmlns="http://www.w3.org/2000/svg"><title>5E1F4980-89F3-4661-AEFF-D6B2DB99A236</title><g fill="none" fill-rule="evenodd"><path fill="none" d="M0 0h280v100H0z"/><path d="M177.075 61h1.14V39.9h-1.14V61zm16.42-3.973h12.557v-7.322h-12.557v7.322zm2.347-1.96h7.708v-3.43h-7.708v3.43zm-1.057-11.937a17.68 17.68 0 0 1-1.83 2.475c-.466-.36-1.47-.902-2.038-1.16 1.6-1.494 2.94-3.815 3.687-6.136l2.244.49a22.134 22.134 0 0 1-.929 2.269h2.475V38h2.372v3.068h5.905v2.062h-5.905v2.785h6.988v2.037h-16.45v-2.037h7.09V43.13h-3.61zm-5.647.98c-.825-1.212-2.68-2.94-4.305-4.074l1.778-1.444c1.6 1.11 3.533 2.708 4.41 3.945l-1.883 1.573zm1.187 12.041c1.134 1.779 3.248 2.604 6.084 2.707 2.862.102 8.585.025 11.808-.18-.283.566-.67 1.702-.8 2.449-2.913.128-8.094.18-11.034.051-3.274-.129-5.492-.98-7.116-2.965a181.808 181.808 0 0 1-3.79 3.197l-1.237-2.475a39.14 39.14 0 0 0 3.738-2.655v-6.06h-3.3v-2.217h5.647v8.148zm36.043-11.628v3.274h7.013v2.191h-7.013v3.43h7.374v2.242h-7.374v5.982h-2.449v-17.12h-1.444c-1.083 2.012-2.269 3.816-3.506 5.183-.386-.413-1.316-1.263-1.856-1.624 2.268-2.373 4.331-6.085 5.568-9.797l2.295.618c-.413 1.108-.851 2.243-1.34 3.327H234v2.294h-7.632zm-7.785-5.699a41.244 41.244 0 0 1-2.554 5.39v17.403h-2.423V48.004a23.388 23.388 0 0 1-2.115 2.526c-.23-.593-.928-1.933-1.34-2.476 2.45-2.423 4.744-6.186 6.136-9.952l2.296.722zM58.85 40.92H47.396v3.169h8.417l3.037-3.169zm4.225 4.56v-4.56L47 56.895v3.169h16.437v-3.169h-11.85L63.076 45.48zm58.76-4.56h-11.453v3.169h8.417l3.036-3.169zm4.225 4.56v-4.56l-16.074 15.976v3.169h16.437v-3.169h-11.85L126.06 45.48zm-23.387.398c1.004 1.224 1.516 2.842 1.516 4.614 0 3.822-2.519 6.92-6.936 6.92s-6.936-3.098-6.936-6.92c0-3.82 2.374-6.918 6.936-6.918 1.014 0 1.918.154 2.714.434l2.551-2.536c-1.447-.757-3.203-1.187-5.265-1.187-6.732 0-10.233 4.57-10.233 10.207 0 5.638 3.716 10.208 10.233 10.208s10.234-4.57 10.234-10.208c0-2.713-.814-5.178-2.407-7.006l-2.407 2.392zm65.75-2.392l-2.407 2.391c1.004 1.225 1.517 2.842 1.517 4.616 0 3.82-2.52 6.918-6.937 6.918s-6.936-3.097-6.936-6.918c0-3.822 2.373-6.918 6.936-6.918 1.014 0 1.918.152 2.714.432l2.551-2.536c-1.447-.756-3.204-1.186-5.265-1.186-6.732 0-10.233 4.57-10.233 10.208 0 5.637 3.716 10.207 10.233 10.207 6.516 0 10.234-4.57 10.234-10.207 0-2.715-.814-5.179-2.407-7.007zm-24.503 9.192c0 2.706-1.644 4.9-5.528 4.9-3.884 0-5.528-2.194-5.528-4.9V40.602h-3.614V53.1c0 4.062 2.718 7.356 9.142 7.356 6.424 0 9.142-3.294 9.142-7.356V40.602h-3.614v12.075zM77.01 40.683h-3.346l-8.45 19.675h3.344l2.247-5.23h10.214l2.246 5.23h3.345l-8.45-19.675h-1.15zm-4.897 11.401l3.798-8.844 3.8 8.844h-7.598z" fill="#5A6978"/></g></svg>