<svg xmlns="http://www.w3.org/2000/svg" width="280" height="100" viewBox="0 0 280 100">
  <g fill="none" fill-rule="evenodd" transform="translate(110 20)">
    <path fill="#5A6978" d="M44.8928589,0 L54.0075598,0 C57.3170931,0 60,2.69463714 60,6.0000383 L60,53.9999617 C60,57.3136914 57.3053629,60 53.9999617,60 L6.0000383,60 C2.68630865,60 0,57.3053629 0,53.9999617 L0,6.0000383 L0,6.0000383 C0,2.68630865 2.69256607,0 6.00636808,0"/>
    <path fill="#FFFFFF" d="M18.273039,9.81818182 L18.273039,13.377039 L10.9701818,13.377039 L10.9701818,23.313039 L12.9244675,23.313039 L14.6136854,23.313039 L14.8620099,23.313039 L18.2721469,23.313039 M18.273039,29.0318961 L20.289039,29.0318961 L20.2881469,23.313039 L25.0404851,23.313039 C26.4609518,23.313039 27.6124675,22.1538076 27.6124675,20.7413504 L27.6124675,13.377039 L20.289039,13.377039 L20.289039,9.81818182 L18.273039,9.81818182 L18.273039,9.81818182 M12.9244675,21.1633221 L12.9244675,15.3690363 L18.273039,15.3690363 L18.273039,21.1633221 L12.9244675,21.1633221 Z M20.289039,21.1633221 L20.289039,15.3690363 L25.6581818,15.3690363 L25.6581818,21.1633221 L20.289039,21.1633221 Z M42.1153247,17.697039 C42.4856104,19.5484675 43.0204675,21.2558961 43.7198961,22.7987532 C42.609039,24.5678961 41.0867532,25.9873247 39.153039,27.057039 L40.2638961,28.8467532 C42.0741818,27.7358961 43.5758961,26.3576104 44.7484675,24.7118961 C45.7358961,26.337039 46.9907532,27.7153247 48.513039,28.8467532 L49.5004675,27.1187532 C47.9987532,25.9873247 46.7644675,24.609039 45.7976104,22.9838961 C46.9907532,20.6798961 47.649039,17.9438961 47.7724675,14.7553247 L48.9038961,14.7553247 L48.9038961,12.8833247 L43.8227532,12.8833247 C44.0078961,12.0604675 44.1724675,11.1553247 44.337039,10.209039 L42.4238961,9.8798961 C41.9713247,13.2536104 41.1278961,15.969039 39.8936104,17.985039 L41.0456104,19.425039 C41.4158961,18.9107532 41.7656104,18.3347532 42.1153247,17.697039 Z M45.9827532,14.7553247 C45.8593247,17.0387532 45.4478961,19.0753247 44.7278961,20.8444675 C43.9873247,19.0753247 43.5141818,17.0798961 43.2878961,14.817039 C43.2878961,14.7964675 43.2878961,14.7758961 43.3084675,14.7553247 L45.9827532,14.7553247 Z M31.665039,11.6901818 L31.665039,13.4181818 L34.1541818,13.4181818 L34.1541818,15.105039 L30.6981818,15.105039 L30.6981818,16.8947532 L35.3061818,16.8947532 C34.8124675,17.3884675 34.2776104,17.8616104 33.7016104,18.3553247 L31.6444675,18.3553247 L31.6444675,19.857039 C31.1918961,20.145039 30.7393247,20.4124675 30.2661818,20.6798961 L31.4798961,22.0581818 C32.5084675,21.4821818 33.4753247,20.8238961 34.4216104,20.0833247 L37.2398961,20.0833247 C36.6021818,20.721039 35.9438961,21.297039 35.2444675,21.7907532 L35.2444675,23.0661818 C33.8661818,23.2101818 32.3438961,23.3336104 30.6776104,23.4158961 L30.945039,25.2878961 C32.5084675,25.1438961 33.9484675,24.9998961 35.2444675,24.8353247 L35.2444675,26.0901818 C35.2444675,26.7484675 34.9358961,27.0776104 34.3393247,27.0776104 C33.9278961,27.0776104 33.3724675,27.0158961 32.673039,26.9336104 L33.1667532,28.6821818 L35.0593247,28.6821818 C36.4376104,28.6821818 37.137039,27.9827532 37.137039,26.6044675 L37.137039,24.5884675 C38.5564675,24.3827532 39.729039,24.1564675 40.6341818,23.9096104 L40.6341818,22.0993247 C39.6056104,22.3873247 38.4536104,22.6136104 37.137039,22.8193247 L37.137039,22.161039 C38.0627532,21.3587532 38.865039,20.5564675 39.5438961,19.7541818 L39.5438961,18.3553247 L36.3347532,18.3553247 C36.7873247,17.9027532 37.2193247,17.4296104 37.6718961,16.8947532 L40.2021818,16.8947532 L40.2021818,15.105039 L39.0501818,15.105039 C39.7907532,14.0147532 40.5107532,12.8216104 41.1896104,11.5256104 L39.6673247,10.7233247 C38.8856104,12.3073247 37.9598961,13.7678961 36.8901818,15.105039 L36.0261818,15.105039 L36.0261818,13.4181818 L38.0833247,13.4181818 L38.0833247,11.6901818 L36.0261818,11.6901818 L36.0261818,10.065039 L34.1541818,10.065039 L34.1541818,11.6901818 L31.665039,11.6901818 Z M27.9416104,32.5633247 L19.713039,32.5633247 L19.7194727,49.495305 L26.1852138,49.495305 L26.1852138,49.495305 C27.1627878,49.495305 27.9541851,48.1525281 27.9528422,46.4877169 L27.9416104,32.5633247 Z M21.585039,47.3027559 L21.585039,34.7404701 L26.049039,34.7404701 L26.049039,47.3027559 L21.585039,47.3027559 Z M10.3941818,36.8216104 L10.3941818,38.6524675 L13.8296104,38.6524675 L13.8296104,38.7553247 C12.9656104,40.8536104 11.6284675,42.7461818 9.81818182,44.3918961 L10.6616104,46.5313247 C11.937039,45.0913247 13.0067532,43.5073247 13.8296104,41.7793247 L13.8296104,50.1107532 L15.7221818,50.1107532 L15.7221818,41.3678961 C16.3804675,42.1907532 17.1621818,43.2398961 18.0878961,44.5564675 L19.2398961,42.8696104 C18.0467532,41.6147532 16.8741818,40.4833247 15.7221818,39.4753247 L15.7221818,38.6524675 L19.0753247,38.6524675 L19.0753247,36.8216104 L15.7221818,36.8216104 L15.7221818,34.0033247 C16.833039,33.7564675 17.9027532,33.4273247 18.9518961,33.057039 L18.0261818,31.4318961 C16.0718961,32.1724675 13.521039,32.6867532 10.353039,32.9336104 L10.9701818,34.6821818 C11.9164675,34.5998961 12.8833247,34.497039 13.8296104,34.353039 L13.8296104,36.8216104 L10.3941818,36.8216104 Z M30.5541818,32.9953247 L30.5541818,34.8467532 L35.4913247,34.8467532 C34.545039,35.6284675 33.7221818,36.2456104 33.0227532,36.7187532 C32.7758961,36.8421818 32.4673247,36.9244675 32.0764675,36.9656104 L32.5084675,38.6318961 C37.8981818,38.4467532 42.3004675,38.2204675 45.7153247,37.9324675 C46.2501818,38.4673247 46.7438961,38.9816104 47.1758961,39.4753247 L48.8216104,38.3438961 C47.9164675,37.3564675 46.5998961,36.1838961 44.913039,34.8467532 L49.1918961,34.8467532 L49.1918961,32.9953247 L40.9633247,32.9953247 C40.7576104,32.337039 40.5518961,31.761039 40.3256104,31.2261818 L38.0421818,31.5758961 C38.289039,32.0078961 38.5358961,32.481039 38.7416104,32.9953247 L30.5541818,32.9953247 Z M37.9598961,34.8467532 L43.8021818,34.8467532 L42.9176104,35.4227532 C43.3496104,35.793039 43.7816104,36.1427532 44.193039,36.513039 C41.6421818,36.6776104 38.6593247,36.8421818 35.2444675,36.9656104 C36.0467532,36.4307532 36.9518961,35.7107532 37.9598961,34.8467532 Z M35.4296104,44.1244675 L44.2547532,44.1244675 L44.2547532,45.3793247 L35.4296104,45.3793247 L35.4296104,44.1244675 Z M44.2547532,42.4787532 L35.4296104,42.4787532 L35.4296104,41.1416104 L44.2547532,41.1416104 L44.2547532,42.4787532 Z M35.4296104,47.025039 L44.2547532,47.025039 L44.2547532,47.8478961 C44.2547532,48.2593247 43.9667532,48.4856104 43.4318961,48.4856104 L41.457039,48.4033247 L41.9713247,50.2958961 L44.0696104,50.2958961 C45.5096104,50.2958961 46.2501818,49.617039 46.2501818,48.2593247 L46.2501818,39.4753247 L33.4753247,39.4753247 L33.4753247,50.3164675 L35.4296104,50.3164675 L35.4296104,47.025039 Z"/>
  </g>
</svg>
