<svg width="281" height="100" viewBox="0 0 281 100" xmlns="http://www.w3.org/2000/svg"><title>13862E3B-A197-4023-9620-E360DAA2B06E</title><g fill="none" fill-rule="evenodd"><path fill="none" d="M0 0h280v100H0z"/><path d="M106.98 31H71.291c-.718 0-1.292.57-1.292 1.235v35.483c0 .712.574 1.282 1.292 1.282h35.687c.718 0 1.292-.57 1.292-1.282V32.235c0-.665-.574-1.235-1.292-1.235zm-.862 7.315v.475l-.096 1.805v.285c-.143 1.235-.19 1.187-.287 2.042-.191 1.33-1.435 1.71-1.435 1.71l-.526.095-.478.143-.43.047s-2.154.143-2.489.143h-.765c-.478.047-.43.617-.43.617v2.85s.047.808-.862.808c-.813 0-1.243-.048-1.243-.855l-.048-.998V45.535c0-.333-.43-.428-.43-.428H96.262c-.956 0-3.348-.142-4.353-.475-1.1-.427-1.34-1.235-1.435-1.615-.383-2.042-.287-4.987-.287-4.987s-.096-2.043.096-3.705c.047-.285.478-.333.478-.333 1.53-.19 1.387.903 1.387.903l.048.665s0 .19.43.19H95.26l1.148-.048s.335 0 .526-.237c.191-.238.144-.665.144-.665v-.903s-.096-.807.287-1.045c.239-.19.478-.19.765-.19.287 0 .622.048.765.143.335.237.24.855.24.95v1.282s0 .285.287.523c.095.095.526.142.526.142h2.488l.813.048s.765.047.765-.475v-.143c.048-.285.048-.142.048-.332 0-.333-.096-.95.765-.95.862 0 1.053.57 1.053.57l.096.712.143 1.948v1.235zm-.096 14.63c-.095.19-.334.427-.574.427h-5.071s-5.74 0-5.836-.047c-.096-.048-.191-.19-.287-.428-.048-.19-.143-.427.048-.665.287-.427 1.005-.332 1.005-.332h3.54s.335 0 .335-.428c0-.142.095-.522.334-.76.144-.142.287-.142.574-.142.335 0 .527.047.718.19.191.19.24.475.24.712 0 .38.19.38.382.38h2.105c.335 0 1.961.048 2.153.143 0 0 .382.19.382.522 0 .095 0 .285-.048.428zM94.35 55.082c.335-.38 1.004-.38 1.004-.38h3.875s5.837 0 6.267.096c0 0 .43.284.43.617 0 .332-.19.76-.621.76-.24 0-2.631.047-2.631.047H95.21c-.287 0-.526-.047-.718-.237-.191-.19-.287-.665-.143-.902zm11.625 3.515c-.096.19-.335.333-.574.333-.24 0-.24 0-6.65.047h-3.636c-.287 0-.574-.142-.765-.332-.192-.238-.192-.428-.096-.713.048-.142.096-.19.191-.237.335-.238.814-.238.814-.238h3.492s6.458 0 6.889.095c0 0 .191.048.287.19a.43.43 0 0 1 .143.333c0 .095-.048.38-.095.522zm-.096 4.418c-.048 1.472-.096 1.568-.191 2.138-.096.712-.383 1.52-1.58 1.852-1.673.427-6.888.475-8.562-.238-1.292-.57-1.244-3.657-1.244-3.657s.048-2.328.048-2.613a.6.6 0 0 1 .191-.427c.192-.19.861-.19.957-.143.335.143.383.333.383.523.047 0 .047.19.191.19.24.047 1.627.047 1.627.047H103.87c.287 0 .382-.094.382-.142 0-.285.24-.665.766-.665.143 0 .335.047.43.047.335.143.43.428.43.428s.049 1.425 0 2.66zm-12.964-9.643v4.418l-.048 8.55s0 .38-.144.57c-.095.143-.143.19-.43.238-.096.047-.192.047-.24.047-.286 0-.478-.047-.67-.285-.143-.095-.19-.332-.19-.665l-.048-3.752.047-7.98s.144-1.33-.526-1.473c0 0-.574-.047-.813-.047-.096-.048-.526-.048-.526-.713 0-.76.717-.712.717-.712h1.675s.478 0 .717.19c.096.095.192.19.287.332.096.19.192.332.192.712v.57zm-4.21-4.464c-.096.19-.43.284-.718.284-.287 0-2.105.048-4.831.048H78.85a1.44 1.44 0 0 1-.861-.285c-.24-.19-.24-.332-.143-.617.047-.096.143-.143.239-.19.382-.19.956-.19.956-.19h1.005c.43 0 .526-.286.526-.38v-.286l.048-.522c.048-.475-.287-.522-.287-.522a2.235 2.235 0 0 1-.43-.143c-1.005-.427-.957-2.232-.957-2.232s0-1.853.048-2.043c0-.19.047-.19.143-.285.144-.143.622-.143.718-.095.239.095.287.19.335.285v.048s0 .142.143.142c.144.047 1.244.047 1.244.047h.287c.622 0 2.105-.047 2.2-.047.096 0 .527.047.957.047h1.005c.24 0 .287-.095.287-.142 0-.19.191-.428.622-.428.096 0 .239.048.287.048.287.095.335.38.335.38s.048.998 0 1.947c-.048 1.283-.335 2.09-1.053 2.375 0 0-.335.19-.287.523l.048.617.048.285c0 .096.096.38.67.38.622.048 1.148.048 1.291.095 0 0 .192.048.383.19.096.048.144.095.144.238 0 .095 0 .332-.096.427zM86.36 43.92v-.475c0-.285-.335-.332-.383-.332h-.048c-.526.047-4.831.047-5.406.047-.287 0-.382.19-.382.285 0 0 0 .38.095.712.192.903.91.998.91.998s3.54.095 4.305 0c.957-.19.909-1.235.909-1.235zm-1.818 2.85c0-.237-.287-.237-.287-.237h-1.579s-.335-.048-.382.332v.238l-.048.427-.048.048c0 .047 0 .38.383.38h1.674c.335 0 .383-.238.383-.38v-.048l-.048-.427s0-.143-.048-.333zm-1.579 4.94c.24-.142.574-.142.574-.142h3.684s.24 0 .526.142c.048.048.096.143.191.238.096.19.144.332.144.522-.048.19-.191.38-.287.428-.144.142-.24.237-.765.237h-3.732s-.24-.047-.43-.237c-.192-.19-.479-.76.095-1.188zm4.401 15.533c-.526-.048-.813-.618-.813-.618v-3.657s-.048-1.425-.526-1.948c-.574-.665-1.914-1.187-1.914-1.187s-3.157-1.188-3.635-1.188c-.144 0-.957.19-.957.19l-1.722.618s-3.11.997-3.397 1.805c-.191.522-.191 1.092-.191 1.092l-.048.475.048.38-.048.903v.902l.048.665s0 .855-.048 1.045c-.096.19-.096.237-.335.38-.24.142-.813.237-1.148 0-.335-.19-.383-.665-.383-.665s.144-2.992.144-4.085c0-2.138.909-2.708 1.148-2.803.287-.237 2.775-1.092 2.775-1.092s.813-.237.908-.332c.096-.095-.143-.095-.143-.095h-3.875c-.24 0-.526-.095-.718-.285-.143-.095-.19-.285-.19-.523 0-.19.047-.38.19-.475.335-.237.91-.19.91-.19h1.865l1.483.048 1.77-.048h.383s.43 0 .43-.427v-.19c0-.333-.43-.333-.43-.333H75.884c-.43 0-2.296-.047-2.487-.047-.383 0-.67-.048-.862-.238a.631.631 0 0 1-.19-.475.6.6 0 0 1 .19-.427c.287-.38.91-.333.91-.333h5.596c.096 0 .383-.047.383-.332 0-.238-.048-1.615-.048-1.758 0-.427.096-.522.096-.522.144-.333.861-.428.861-.428.813.048 1.005.665 1.005.665l-.048.57.048 1.14s0 .665.478.665H87.078c.335 0 .622.048.861.095 0 0 .192.095.335.238.096.095.144.19.144.285 0 .19 0 .332-.096.475-.143.237-.383.38-.765.38h-1.005c-.287 0-2.631.047-2.631.047l-1.148-.047-1.1.047s-.335 0-.335.333V56.223c0 .095.095.285.43.285.287 0 .383.047.43.047.097 0 .431-.047.91-.047h1.913c.479 0 .957.047 1.388.047.717 0 1.34 0 1.483.095.143.048.287.143.43.285.048.048.048.19.048.333 0 .142.048.285 0 .38-.144.19-.335.332-.718.332-.574 0-3.587.048-3.587.048s-.383.047-.048.142c.574.19 1.674.665 2.583 1.188 1.196.617 1.53 1.425 1.579 1.52.143.38.143 1.377.143 1.377l.048.808s.048 2.992.096 3.325c.095.475-.479.902-1.1.855zm-2.152-4.275c0 .285-.048 1.187-.048 1.187l.048 1.425v.903s-.048.522-.43.664c-.192.096-.431.048-.623.048-.191-.047-.383-.095-.574-.285 0 0-.143-.095-.143-.57v-1.567l-.048-.618s.095-.903-.144-1.425c-.239-.475-.86-.522-.86-.522l-.814.047h-.287s-.335 0-.383.332c0 0-.191.76-.287.998-.143.238-.574 1.283-1.004 1.663-.383.38-.766.854-1.1 1.092-.383.19-.91.665-1.532.855 0 0-.382.142-.67 0-.143-.047-.286-.237-.382-.38-.287-.523.096-.855.383-1.045.287-.19.909-.57 1.1-.76.24-.19.718-.617 1.1-1.14.383-.522.574-1.045.574-1.092 0 0 .048-.523-.43-.523-.43 0-.91-.047-.91-.047l-.812.047-.335-.047s-.383-.048-.67-.19c-.144-.096-.191-.333-.191-.57 0 0-.048-.523.382-.665.479-.19.957-.143 1.34-.143h1.578l1.196-.047 2.105.047h.43s1.388 0 2.01.665c.622.665.43 1.33.43 1.663zM72.2 45.488v-2.66c0-.238.095-.38.19-.475.192-.19.67-.19.766-.143.287.143.335.38.335.523.048 0 .048.285.192.285.19.047.908.047.908.047h1.053c.287 0 .335-.095.335-.142 0-.285.191-.713.67-.713h.334c.287.143.335.523.335.523s.096 1.425 0 2.66c-.048 1.472 0 1.472-.095 2.09-.096.665-.287 1.567-1.388 1.805-1.483.332-2.296.047-3.061-.76-.766-.903-.574-3.04-.574-3.04zm5.118-5.13c0 .142-.048.332-.095.475-.096.237-.24.332-.479.332s.192.048-2.44.048h-1.291c-.24 0-.479-.143-.67-.333-.191-.237-.191-.38-.096-.665.048-.142.096-.19.144-.285.287-.19.718-.19.718-.19h1.148s2.344 0 2.679.095c0 0 .19.048.287.19.047.095.095.19.095.333zm-5.07-2.993c.239-.427.86-.38.86-.38h1.483s2.058-.047 2.44.048c0 0 .335.285.335.617 0 .333-.143.76-.526.76h-3.875c-.24 0-.478 0-.622-.19-.143-.237-.24-.617-.096-.855zm5.214 14.203s.526 0 .765.38c.24.427 0 .855-.143.95-.192.142-.24.237-.814.237H73.397s-.287-.047-.479-.237l-.143-.143c-.048-.142-.048-.285-.048-.38 0-.095-.048-.237 0-.332.048-.143.143-.238.287-.333.287-.142.574-.142.622-.142h3.827zm-5.167-17.1c.24-.428.861-.333.861-.333h.67s.287.048.287-.38c0-.19.191-.57.766-.57.334 0 .621.285.621.523 0 .38.192.38.335.38h.287c.287 0 .718.095.91.19 0 0 .334.142.334.475 0 .142-.048.237-.096.38a.514.514 0 0 1-.478.38c-.191 0-.765.047-.765.047h-1.962s-1.291-.047-1.483-.095c-.048 0-.287-.142-.335-.38-.047-.19-.095-.38.048-.617zm8.707 2.327h-1.914c-.335 0-.622-.047-.813-.237-.24-.19-.335-.523-.143-.76.334-.38 1.1-.333 1.1-.333h1.77c.191 0 .191-.142.191-.19v-.19c0-.332-.335-.332-.335-.332h-1.77c-.335 0-.622 0-.813-.19-.24-.19-.335-.57-.143-.76.334-.38 1.1-.38 1.1-.38h1.052s1.196 0 1.818.047h.048c.048 0 .287.095.43.285.096.143.24.333.24.713v1.662c0 .143.048.428.048.808 0 .19-.048.522-.24.855-.143.285-.334.475-.67.712-.286.19-.67.333-1.243.333h-1.627c-.335 0-.622 0-.813-.19-.24-.19-.335-.57-.143-.76.334-.428 1.1-.38 1.1-.38h1.052c.766 0 .91-.475.91-.618 0-.047-.049-.095-.192-.095zm4.832 2.803c.86 0 1.722.047 1.913.095 0 0 .144.047.287.142.096.143.144.19.144.285 0 .143 0 .38-.048.475-.096.19-.383.333-.67.333h-8.085c-.287 0-.574-.095-.765-.285-.24-.19-.24-.333-.144-.618.048-.142.144-.19.192-.237.382-.19.86-.19.86-.19H85.836zm-2.153-3.468v-1.71c.048-.332.095-.57.239-.712.191-.238.478-.238.574-.238.622-.047 1.722-.047 1.722-.047h1.053s.765-.048 1.1.38c.24.19.096.57-.144.76-.19.142-.478.19-.813.19h-1.77s-.335.047-.335.332v.19c0 .048 0 .19.24.19h1.722s.765-.047 1.1.333c.24.237.096.57-.144.76-.19.19-.478.19-.813.19-.287 0-1.483.047-1.865.047 0 0-.288 0-.192.19h-.048c.048.19.24.523.91.523h1.052s.765-.048 1.148.332c.191.238.048.57-.192.76-.19.19-.478.238-.813.238h-1.626c-.574 0-1.005-.19-1.292-.428-.287-.19-.478-.38-.622-.617a2.743 2.743 0 0 1-.191-.903v-.76zm19.23 1.045h-3.204c-.24 0-.43.238-.479.333a3.845 3.845 0 0 0-.095.427v.238l.048 4.227v.475s0 .238.19.475c.24.19.527.19.527.19s1.483.143 2.823-.095c1.339-.237 1.243-1.282 1.243-1.282l.096-1.425.096-2.47s0-.57-.335-.855c-.287-.285-.91-.238-.91-.238zm1.436 26.03v-.617c0-.38-.478-.428-.574-.428-.67.048-6.697.048-7.415.048-.383 0-.478.237-.478.332v.808c.047.38.047.57.095.95.096 1.14 1.196 1.282 1.196 1.282s4.975.095 5.98-.047c1.244-.19 1.196-1.568 1.196-1.568v-.76zm-7.845-26.03h-1.244l-2.249.048s-.813-.048-.813.712c0 0-.048 3.42 0 4.275.048.808.478.903.718 1.045.191.095.909.238.909.238l2.344.047h.287c.048 0 .287-.095.43-.19 0 0 .144-.237.144-.332v-1.283l.048-2.565v-.855c-.096-.522-.048-.997-.574-1.14zM74.21 48.053s.048.19.909.095c1.004-.095.956-1.71.956-1.71v-1.615c0-.38-.382-.38-.478-.38h-1.674a.414.414 0 0 0-.43.38V45.725c.047.428 0 .665.047 1.093.096 1.14.67 1.235.67 1.235zm47.073 16.767c-.622.19-1.1.285-1.387.285-.91 0-1.627-.237-2.201-.807-.526-.523-.861-1.235-.861-2.138 0-.902.287-1.615.861-2.185.526-.57 1.244-.855 2.153-.855.43 0 1.004.143 1.77.428.048 0 .095.047.143.047l.096-1.282c-.096 0-.24-.048-.478-.143-.718-.19-1.292-.285-1.723-.285-1.34 0-2.392.38-3.253 1.188-.813.76-1.196 1.852-1.196 3.087 0 1.283.383 2.328 1.196 3.088.814.76 1.962 1.14 3.35 1.14.382 0 .956-.143 1.721-.333.192-.047.335-.095.43-.095l-.143-1.33c-.095.048-.287.095-.478.19zm1.866 1.378h1.626v-8.123h-1.626v8.122zm2.679-6.888h2.104v6.887h1.675V59.31h2.153v-1.235h-5.932v1.235zm6.984 6.887h1.627v-8.122h-1.627v8.122zm9.137-1.377c-.622.19-1.052.285-1.34.285-.956 0-1.674-.237-2.2-.807-.574-.523-.861-1.235-.861-2.138 0-.902.287-1.615.813-2.185.526-.57 1.244-.855 2.153-.855.43 0 1.052.143 1.818.428 0 0 .048.047.096.047l.095-1.282c-.095 0-.239-.048-.478-.143-.718-.19-1.292-.285-1.675-.285-1.339 0-2.44.38-3.253 1.188-.813.76-1.243 1.852-1.243 3.087 0 1.283.382 2.328 1.196 3.088.86.76 1.961 1.14 3.348 1.14.43 0 1.005-.143 1.723-.333.19-.047.334-.095.43-.095l-.143-1.33c-.096.048-.24.095-.479.19zm8.324-3.467a.364.364 0 0 0-.191-.095c-.91-.475-1.34-.855-1.34-1.188 0-.332.096-.522.383-.712.24-.143.574-.238 1.005-.238.287 0 .621.048.908.095.288.095.575.19.91.332l.143-1.282c-.096 0-.24-.047-.43-.095-.623-.19-1.149-.285-1.531-.285-.91 0-1.627.19-2.201.618a2.112 2.112 0 0 0-.813 1.71c0 .285.048.522.191.807.096.238.191.428.383.665.287.285.717.57 1.387.95.096 0 .144.048.191.048 0 .047.048.047.096.095.91.475 1.34.902 1.34 1.282 0 .333-.144.57-.383.808-.287.19-.67.285-1.1.285a2.67 2.67 0 0 1-.814-.143c-.335-.095-.717-.285-1.196-.475l-.143 1.378c.048 0 .143.047.24.047.908.285 1.53.428 1.913.428.956 0 1.722-.238 2.296-.713.574-.475.861-1.093.861-1.853 0-.522-.144-.95-.43-1.33-.288-.38-.862-.76-1.675-1.14zm5.214 1.235h3.253v-1.235h-3.253v-2.138h3.397v-1.14h-4.975v8.122h5.119v-1.234h-3.54v-2.375zm10.86 2.232c-.622.19-1.1.285-1.388.285-.908 0-1.674-.237-2.2-.807-.574-.523-.861-1.235-.861-2.138 0-.902.287-1.615.813-2.185.526-.57 1.244-.855 2.153-.855.43 0 1.052.143 1.818.428 0 0 .048.047.095.047l.096-1.282c-.096 0-.24-.048-.43-.143-.718-.19-1.292-.285-1.723-.285-1.34 0-2.44.38-3.253 1.188-.813.76-1.244 1.852-1.244 3.087 0 1.283.431 2.328 1.244 3.088.814.76 1.914 1.14 3.349 1.14.383 0 .957-.143 1.674-.333.192-.047.335-.095.43-.095l-.143-1.33c-.095.048-.239.095-.43.19zm6.793-2.042c0 .76-.144 1.377-.43 1.757-.288.38-.718.618-1.292.618-.574 0-1.005-.19-1.244-.57-.287-.38-.43-.95-.43-1.758v-4.75h-1.58v4.797c0 1.14.24 1.996.814 2.613.526.57 1.34.903 2.44.903 1.052 0 1.913-.333 2.44-.903.526-.617.813-1.52.813-2.707v-4.703h-1.531v4.703zm7.893-.285a1.15 1.15 0 0 0-.574-.333c.574-.142.957-.38 1.292-.712.287-.333.43-.76.43-1.283 0-.712-.239-1.235-.765-1.615-.478-.332-1.244-.475-2.248-.475h-2.68v8.123h1.58v-3.42h.525c.383 0 .718.095.91.19.239.19.382.427.526.76l.909 2.47h1.722l-1.148-2.85c-.192-.428-.335-.713-.479-.856zm-.909-1.188c-.287.238-.717.333-1.196.333h-.86v-2.423h.717c.622 0 1.052.095 1.34.238.286.237.43.522.43.95 0 .38-.144.712-.43.902zm3.54 4.893h1.627v-8.123h-1.627v8.122zm2.68-6.888h2.152v6.887h1.627V59.31h2.2v-1.235h-5.98v1.235zm6.984 6.887h1.626v-8.122h-1.626v8.122zm5.023-3.61h3.253v-1.234h-3.253v-2.138h3.444v-1.14h-5.023v8.122h5.119v-1.234h-3.54v-2.375zm8.085-1.234c-.048-.048-.096-.095-.192-.095-.909-.475-1.34-.855-1.34-1.188 0-.332.144-.522.383-.712.24-.143.574-.238 1.005-.238.335 0 .622.048.909.095.287.095.622.19.909.332l.143-1.282c-.095 0-.239-.047-.382-.095-.67-.19-1.196-.285-1.579-.285-.909 0-1.627.19-2.153.618-.574.427-.813.997-.813 1.71 0 .285.048.522.144.807.095.238.239.428.43.665.24.285.718.57 1.34.95.095 0 .143.048.19.048.049.047.049.047.144.095.862.475 1.292.902 1.292 1.282 0 .333-.096.57-.383.808-.287.19-.622.285-1.052.285-.287 0-.574-.048-.861-.143-.335-.095-.718-.285-1.148-.475l-.144 1.378c.048 0 .096.047.192.047.908.285 1.578.428 1.96.428.958 0 1.675-.238 2.25-.713.573-.475.908-1.093.908-1.853 0-.522-.191-.95-.478-1.33-.287-.38-.861-.76-1.674-1.14zm-80.513-7.885v-6.033h7.798v-9.88h-7.798v-3.942h-2.918v3.942h-7.798v9.88h7.798v6.033h2.918zm-7.893-8.74h4.975v-4.465h-4.975v4.465zm7.893 0h4.928v-4.465h-4.928v4.465zm19.183.427h12.821v-2.327h-12.82v2.327zm10.094 8.313h2.632V46.2h-12.63v7.268h9.998zm-7.367-2.185h7.367v-2.708h-7.367v2.707zm10.907-12.778v-2.517h-5.5l-.862-2.423h-3.11l.862 2.423h-5.789c.144-.475.335-.95.43-1.425l.096-.238-2.726-.712-.048.237c-.814 3.753-2.297 6.413-3.923 8.93l-.048.095v4.37s1.914-2.375 2.392-3.087v9.357h2.631V39.17c.383-.902.718-1.805 1.053-2.707v2.042h14.542zm-13.634 3.278h12.821v-2.28h-12.82v2.28zm30.856 9.167h-2.105V40.168h-2.774V50.95h-2.392v2.518h15.404V50.95h-5.31v-5.89h4.066v-2.612h-4.066v-4.845h5.31v-2.66h-14.687v2.66h6.554V50.95zm-6.123-1.472v-3.515l-2.153 2.28v-7.79h-4.927v2.66h2.153v5.937c0 .903-.192 1.568-.622 2.043l-.144.142 1.77 2.09.24-.19c1.53-1.472 2.63-2.66 3.683-3.657zm-1.387-11.828l-3.253-3.8-2.105 1.663c1.148 1.472 3.014 4.037 3.014 4.037l2.344-1.9zm33.295 10.07c0 .143 0 .333-.048.523-.047.807-.095 1.377-.19 1.662 0 .428-.192.998-1.388.998H197.585v2.422h2.87c2.393 0 3.684-.997 3.732-2.802.096-.903.191-1.9.24-3.04.813.427 1.721.807 2.678 1.187l.24.095 1.243-2.517-.335-.095c-2.2-.57-3.922-1.473-5.214-2.66h5.167v-2.328h-9.95c.238-.427.43-.855.621-1.33h8.515v-2.327h-3.396l1.913-1.995-2.344-1.14-3.244 3.135h1.713l-2.057.332.344-.332h-.918c.192-.95.383-2.185.526-3.658v-.237h-2.726v.237c-.048 1.045-.24 2.28-.527 3.658h-.526l.287.285-2.105-.285h1.818l-3.11-3.088-2.2 1.235 1.722 1.853h-3.683v2.327h7.128c-.192.475-.43.903-.766 1.33h-7.08v2.328h5.071c-1.196.997-2.966 1.995-5.262 2.897l-.287.143 1.34 2.422.238-.095c1.244-.617 2.297-1.187 3.253-1.805v.665h1.818c-.335 1.9-2.248 3.135-5.74 3.753l-.383.047.24.333c.478.665.908 1.235 1.195 1.757l.096.19.191-.047c4.306-.998 6.698-2.993 7.08-6.033h4.736zm-6.84-2.327c.765-.57 1.387-1.235 1.913-1.9h3.11a9.206 9.206 0 0 0 1.674 1.9h-6.698z" fill="#59697B"/></g></svg>